<svg xmlns="http://www.w3.org/2000/svg" xmlns:xlink="http://www.w3.org/1999/xlink" width="1039" height="550" viewBox="0 0 1039 550">
    <defs>
        <filter id="wgrsetacdb" width="100.7%" height="100.1%" x="-.3%" y="0%" filterUnits="objectBoundingBox">
            <feOffset dx="-.5" in="SourceAlpha" result="shadowOffsetInner1"/>
            <feComposite in="shadowOffsetInner1" in2="SourceAlpha" k2="-1" k3="1" operator="arithmetic" result="shadowInnerInner1"/>
            <feColorMatrix in="shadowInnerInner1" values="0 0 0 0 0.8 0 0 0 0 0.8 0 0 0 0 0.8 0 0 0 1 0"/>
        </filter>
        <filter id="9ne1w4wcod" width="132.9%" height="131.9%" x="-16.5%" y="-13.7%" filterUnits="objectBoundingBox">
            <feMorphology in="SourceAlpha" operator="dilate" radius="1.5" result="shadowSpreadOuter1"/>
            <feOffset dy="4" in="shadowSpreadOuter1" result="shadowOffsetOuter1"/>
            <feGaussianBlur in="shadowOffsetOuter1" result="shadowBlurOuter1" stdDeviation="9"/>
            <feColorMatrix in="shadowBlurOuter1" result="shadowMatrixOuter1" values="0 0 0 0 0 0 0 0 0 0 0 0 0 0 0 0 0 0 0.12 0"/>
            <feMorphology in="SourceAlpha" operator="dilate" radius=".5" result="shadowSpreadOuter2"/>
            <feOffset dy="10" in="shadowSpreadOuter2" result="shadowOffsetOuter2"/>
            <feGaussianBlur in="shadowOffsetOuter2" result="shadowBlurOuter2" stdDeviation="7"/>
            <feColorMatrix in="shadowBlurOuter2" result="shadowMatrixOuter2" values="0 0 0 0 0 0 0 0 0 0 0 0 0 0 0 0 0 0 0.14 0"/>
            <feMorphology in="SourceAlpha" radius="1.5" result="shadowSpreadOuter3"/>
            <feOffset dy="6" in="shadowSpreadOuter3" result="shadowOffsetOuter3"/>
            <feGaussianBlur in="shadowOffsetOuter3" result="shadowBlurOuter3" stdDeviation="3"/>
            <feColorMatrix in="shadowBlurOuter3" result="shadowMatrixOuter3" values="0 0 0 0 0 0 0 0 0 0 0 0 0 0 0 0 0 0 0.2 0"/>
            <feMerge>
                <feMergeNode in="shadowMatrixOuter1"/>
                <feMergeNode in="shadowMatrixOuter2"/>
                <feMergeNode in="shadowMatrixOuter3"/>
            </feMerge>
        </filter>
        <rect id="4lp8wdw5oc" width="203.465" height="216" x="0" y="0" rx="3"/>
        <path id="pc2jton1ra" d="M2 0h69.758v549.537H2c-1.105 0-2-.895-2-2V2C0 .895.895 0 2 0z"/>
    </defs>
    <g fill="none" fill-rule="evenodd">
        <g>
            <g transform="translate(-201 -1122) translate(201 1122)">
                <rect width="1038.217" height="549.537" fill="#FBF9FF" rx="3"/>
                <g>
                    <use fill="#FBF9FF" xlink:href="#pc2jton1ra"/>
                    <use fill="#000" filter="url(#wgrsetacdb)" xlink:href="#pc2jton1ra"/>
                </g>
                <path fill="#213E65" fill-rule="nonzero" d="M502.98 158.475c1.199.026 2.55.077 4.042.158 4.1.222 8.606.635 13.413 1.285 13.46 1.82 26.87 5.142 39.394 10.337 28.681 11.898 48.628 31.806 55.907 61.434l.091.381 3.953-.761-2.717 9.689-6.12-7.987 3.901-.752-.08-.33c-7.195-29.289-26.91-48.966-55.318-60.75-12.438-5.16-25.765-8.46-39.145-10.27-4.78-.646-9.258-1.057-13.333-1.278-1.481-.08-2.822-.13-4.01-.156-.69-.015-1.244-.02-1.652-.02l-.166.001-.068.001h-.008l-.013-1h.082c.428-.003 1.048 0 1.848.018zM635.075 367.795c4.655 30.69 21.948 51.991 48.453 65.46 18.218 9.258 38.66 13.875 58.02 15.296l.469.032.15-3.979 8.825 4.835-9.163 4.16.15-4.016-.506-.035c-19.48-1.43-40.044-6.074-58.398-15.401-26.51-13.471-43.93-34.74-48.844-65.274l-.145-.928.989-.15z"/>
                <g fill="#518DE2" fill-rule="nonzero" transform="translate(256.148 128.982)">
                    <rect width="225.265" height="59.041" rx="5"/>
                </g>
                <g transform="translate(10.9 8.175)">
                    <rect width="48.141" height="45.416" fill="#213E65" fill-rule="nonzero" rx="5"/>
                    <g fill="#FFF">
                        <path d="M6.07 3.626c0 1.582-1.285 2.864-2.868 2.864C1.617 6.49.334 5.208.334 3.626.334 2.045 1.617.762 3.202.762c1.583 0 2.867 1.283 2.867 2.864M9.934 5.793L17.623 5.793 17.623 1.461 9.934 1.461z" transform="translate(15.442 19.075)"/>
                    </g>
                </g>
                <g fill="#17BD85" transform="translate(519.563 251.606)">
                    <rect width="225.265" height="59.041" rx="5"/>
                </g>
                <g fill="#213E65" fill-rule="nonzero" transform="translate(765.72 419.647)">
                    <rect width="175.282" height="118" rx="5"/>
                </g>
                <rect width="32" height="32" x="987" y="20" fill="#EAEAEA" fill-rule="nonzero" rx="16"/>
                <g fill-rule="nonzero" transform="translate(804.735 251)">
                    <rect width="225.265" height="59.041" fill="#FDCD2D" rx="5"/>
                    <g fill="#E9E9E9">
                        <path d="M0 0H152.17V5.742H0zM0 10.527H78.419V16.269H0zM0 21.054H57.881V26.796H0zM87.754 10.527H114.827V16.269H87.754z" transform="translate(15.61 68)"/>
                    </g>
                </g>
                <path fill="#FDCD2D" fill-rule="nonzero" d="M790.581 276.923c.083 0 .165.02.24.059l7.887 4.04c.264.135.368.458.233.722-.053.104-.138.187-.243.238l-7.964 3.886c-.267.13-.588.019-.718-.247-.036-.075-.055-.158-.054-.241l.033-3.463-29.73-.29c-.277-.003-.499-.229-.496-.505.003-.276.229-.498.505-.495l29.731.29.034-3.463c.003-.267.2-.486.455-.525z"/>
                <path stroke="#213E65" stroke-linecap="round" stroke-width="3" d="M181 158.454L234.465 158.454M180.757 437.359L234.222 437.359"/>
                <circle cx="476.871" cy="237.981" r="9.992" fill="#213E65" fill-rule="nonzero"/>
                <path fill="#FFF" fill-rule="nonzero" d="M476.724 232.532c-.385 0-.697.312-.697.697v3.906h-3.906c-.385 0-.698.312-.698.698 0 .385.313.697.698.697h3.906v3.906c0 .385.312.698.697.698.385 0 .698-.313.698-.698v-3.906h3.906c.385 0 .697-.312.697-.697 0-.386-.312-.698-.697-.698h-3.906v-3.906c0-.385-.313-.697-.698-.697z"/>
                <g transform="translate(283.398 256.148)">
                    <g>
                        <use fill="#000" filter="url(#9ne1w4wcod)" xlink:href="#4lp8wdw5oc"/>
                        <use fill="#FFF" xlink:href="#4lp8wdw5oc"/>
                    </g>
                    <text fill="#393939" fill-rule="nonzero" font-family="Manrope-ExtraLight_SemiBold, Manrope" font-size="13" font-weight="500" transform="translate(11.808 9.992)">
                        <tspan x=".58" y="14">Add</tspan>
                    </text>
                    <text fill="#213E65" fill-rule="nonzero" font-family="Manrope-ExtraLight_SemiBold, Manrope" font-size="13" font-weight="500">
                        <tspan x="20" y="61">Response</tspan>
                    </text>
                    <path fill="#FDCD2D" fill-rule="nonzero" d="M0 187H204V216H0z"/>
                    <text fill="#213E65" fill-rule="nonzero" font-family="Manrope-ExtraLight_SemiBold, Manrope" font-size="13" font-weight="500">
                        <tspan x="20" y="97">Action</tspan>
                    </text>
                    <text fill="#213E65" fill-rule="nonzero" font-family="Manrope-ExtraLight_SemiBold, Manrope" font-size="13" font-weight="500">
                        <tspan x="20" y="133">Media</tspan>
                    </text>
                    <text fill="#213E65" fill-rule="nonzero" font-family="Manrope-ExtraLight_SemiBold, Manrope" font-size="13" font-weight="500">
                        <tspan x="20" y="169">User</tspan>
                    </text>
                    <text fill="#213E65" fill-rule="nonzero" font-family="Manrope-ExtraLight_SemiBold, Manrope" font-size="13" font-weight="500">
                        <tspan x="20" y="207">API call</tspan>
                    </text>
                    <path fill="#000" fill-rule="nonzero" d="M179.079 56.5l-2.963-2.845c-.075-.07-.117-.169-.117-.272 0-.102.042-.2.117-.271.159-.15.406-.15.565 0l3.2 3.074c.152.181.152.446 0 .627l-3.2 3.074c-.159.15-.406.15-.565 0-.075-.07-.117-.169-.117-.272 0-.102.042-.2.117-.271l2.963-2.844zM179.079 93.5l-2.963-2.845c-.075-.07-.117-.169-.117-.272 0-.102.042-.2.117-.271.159-.15.406-.15.565 0l3.2 3.074c.152.181.152.446 0 .627l-3.2 3.074c-.159.15-.406.15-.565 0-.075-.07-.117-.169-.117-.272 0-.102.042-.2.117-.271l2.963-2.844zM179.079 131.5l-2.963-2.845c-.075-.07-.117-.169-.117-.272 0-.102.042-.2.117-.271.159-.15.406-.15.565 0l3.2 3.074c.152.181.152.446 0 .627l-3.2 3.074c-.159.15-.406.15-.565 0-.075-.07-.117-.169-.117-.272 0-.102.042-.2.117-.271l2.963-2.844zM179.08 164.5l-2.963-2.845c-.075-.07-.117-.169-.117-.271 0-.103.042-.201.117-.272.159-.15.407-.15.565 0l3.2 3.074c.153.181.153.446 0 .627l-3.2 3.074c-.158.15-.406.15-.565 0-.075-.07-.117-.169-.117-.271 0-.103.042-.201.117-.272l2.963-2.844z"/>
                    <path fill="#213E65" fill-rule="nonzero" stroke="#FFF" d="M9.35 15.763l7.65.156L0 0v23.63l5.16-5.846 3.795 8.8c.337.777 1.053 1.312 1.878 1.402.826.09 1.636-.277 2.125-.964.49-.687.584-1.59.248-2.367L9.35 15.763z" transform="translate(165 202)"/>
                    <path fill="#213E65" fill-rule="nonzero" d="M0 187H4V216H0z"/>
                </g>
                <rect width="95.223" height="14.355" x="97" y="28" fill="#E9E9E9" fill-rule="nonzero" rx="7.177"/>
                <g>
                    <g transform="translate(340 19) translate(.251 .473)">
                        <rect width="450.908" height="32" fill="#EAEAEA" stroke="#E9E9E9" rx="2.5"/>
                        <g fill="#97ACB2" fill-rule="nonzero">
                            <path d="M11.497 10.875L9.63 8.96c1.628-2.15 1.346-5.226-.645-7.027-1.99-1.8-5.004-1.703-6.881.22C.227 4.079.132 7.168 1.889 9.209c1.756 2.04 4.758 2.33 6.854.66l1.865 1.918c.118.121.278.19.445.19.167 0 .327-.069.444-.19.119-.12.185-.285.185-.456 0-.17-.066-.335-.185-.455zm-5.83-1.208c-2.077 0-3.762-1.727-3.762-3.858 0-2.13 1.685-3.857 3.763-3.857S9.43 3.679 9.43 5.809c-.003 2.13-1.686 3.855-3.763 3.858z" transform="translate(15.251 10.473)"/>
                        </g>
                    </g>
                </g>
                <path fill="#E9E9E9" fill-rule="nonzero" d="M533.061 323.559H685.231V329.30100000000004H533.061z"/>
                <path fill="#FFF" fill-rule="nonzero" d="M784 492H923V497.742H784z" opacity=".507"/>
                <path fill="#E9E9E9" fill-rule="nonzero" d="M266.997 210.538H419.16700000000003V216.28H266.997zM533.061 334.086H611.48V339.82800000000003H533.061z"/>
                <path fill="#FFF" fill-rule="nonzero" d="M784 502.527H856V508.269H784z" opacity=".507"/>
                <path fill="#E9E9E9" fill-rule="nonzero" d="M266.997 221.065H345.416V226.807H266.997zM533.061 344.613H590.942V350.355H533.061z"/>
                <path fill="#FFF" fill-rule="nonzero" d="M784 513.054H837V518.7959999999999H784z" opacity=".507"/>
                <path fill="#E9E9E9" fill-rule="nonzero" d="M266.997 231.591H324.87800000000004V237.333H266.997zM620.816 334.086H647.889V339.82800000000003H620.816zM354.752 221.065H381.825V226.807H354.752z"/>
                <path fill="#FFF" d="M795.864 443.126c-2.411 0-4.366 2.004-4.366 4.476s1.955 4.476 4.366 4.476c2.412 0 4.367-2.004 4.367-4.476-.001-2.472-1.956-4.475-4.367-4.476zm25.47 9.76l-8.344 7.695c-.914.833-2.124 1.24-3.342 1.123-1.217-.116-2.333-.744-3.082-1.735l-1.103-1.46c-.725-.961-1.797-1.583-2.974-1.725-1.177-.143-2.36.206-3.284.966l-12.538 10.491v-28.768c0-.96.76-1.738 1.696-1.739h31.274c.937 0 1.696.779 1.696 1.739v13.413zM819.636 435h-31.274c-1.157 0-2.267.471-3.085 1.31-.818.838-1.278 1.976-1.278 3.162v32.06c0 2.47 1.953 4.472 4.363 4.472h31.274c2.41 0 4.363-2.002 4.363-4.472v-32.06c0-2.47-1.953-4.472-4.363-4.472z" opacity=".507"/>
                <path stroke="#213E65" stroke-width="3" d="M207.467 157L207.467 438.669"/>
                <path fill="#FDCD2D" fill-rule="nonzero" d="M514.978 145.464l275.268 1.27c.103-.006.302-.014.593-.022 2.029-.055 4.75-.015 8.06.191 4.837.303 10.054.914 15.55 1.907 14.947 2.7 29.758 7.784 43.6 15.823 26.612 15.456 46.82 40.151 58.048 75.824l3.34-.96c.286-.081.583.084.665.369.023.08.027.164.012.246l-1.62 8.712c-.055.292-.335.484-.627.43-.114-.021-.218-.079-.297-.165l-5.997-6.523c-.201-.219-.187-.558.032-.759.06-.056.135-.098.215-.12l3.315-.954-.177-.562c-11.188-35.115-31.158-59.425-57.412-74.673-13.734-7.977-28.436-13.023-43.276-15.704-5.455-.986-10.634-1.593-15.432-1.893-3.28-.204-5.972-.244-7.972-.19l-.514.018-.082.004-275.297-1.27c-.276 0-.499-.225-.497-.501 0-.277.226-.5.502-.498z"/>
                <g fill="#FFF" fill-rule="nonzero">
                    <path d="M4.312 24v-4.275C1.627 17.715.028 14.52 0 11.111 0 4.984 5.25 0 11.706 0c6.455 0 11.706 4.984 11.706 11.11 0 6.127-5.25 11.113-11.706 11.113-1.172.002-2.338-.163-3.466-.49L4.313 24h-.001zm6.043-12.279l3.058 3.047 6.396-6.461-5.788 2.994-3.087-2.993-6.432 6.461 5.853-3.048z" transform="translate(702 270)"/>
                </g>
                <g fill="#FFF">
                    <path d="M17.423 15.57c.28.896.824 1.68 1.558 2.243.094.07.14.19.115.307-.024.116-.114.207-.228.23-1.295.215-2.621-.054-3.739-.758-1.6 1.017-3.445 1.553-5.327 1.548C4.521 19.263.137 14.984 0 9.57.137 4.156 4.52-.124 9.802 0c5.282-.124 9.666 4.156 9.803 9.57-.006 2.203-.78 4.33-2.182 6zm-6.87-2.842c.003-.12-.043-.234-.125-.317-.083-.084-.196-.13-.312-.125H9.02c-.116-.004-.229.041-.311.125-.083.083-.129.198-.127.317v.726c-.002.12.044.234.127.318.082.083.195.128.311.124h1.096c.116.004.229-.04.312-.124.082-.084.128-.199.126-.318v-.726zm1.378-6.758c-.612-.496-1.381-.744-2.16-.695-.735-.038-1.461.173-2.067.6-.473.367-.75.94-.747 1.547 0 .159.125.288.28.288l1.253.032c.196 0 .37-.127.438-.316.034-.147.11-.28.219-.383.18-.165.412-.255.653-.252.277-.012.546.092.747.287.189.215.28.502.251.79.014.29-.063.578-.219.821-.157.236-.358.437-.59.594-.397.25-.747.57-1.033.947-.172.263-.27.569-.28.884-.032.192.125.316.312.316h1.347c.158-.007.289-.127.313-.287.024-.173.066-.343.125-.506.115-.224.289-.41.502-.537.43-.226.806-.55 1.096-.947.215-.396.333-.84.343-1.294.032-.72-.256-1.414-.783-1.89z" transform="translate(282 148)"/>
                </g>
                <g fill="#213E65" fill-rule="nonzero">
                    <path d="M.254 5.164C-.188 5.625-.039 6 .59 6h10.269c.626 0 .776-.367.334-.82L6.472.338C6.26.119 5.97-.002 5.669 0c-.301.003-.59.13-.798.352L.254 5.164z" transform="rotate(90 488.369 518.285)"/>
                </g>
                <g fill="#213E65" fill-rule="nonzero">
                    <path d="M14 28C6.268 28 0 21.732 0 14S6.268 0 14 0s14 6.268 14 14c0 3.713-1.475 7.274-4.1 9.9-2.626 2.625-6.187 4.1-9.9 4.1zm-3.791-17.629l-1.18-1.21c-.084-.087-.198-.135-.318-.135-.119 0-.233.048-.316.134l-4.421 4.503c-.175.181-.175.469 0 .65l4.418 4.524c.083.086.198.135.317.135.12 0 .234-.049.317-.135l1.18-1.21c.176-.182.176-.47 0-.65L7.3 13.997l2.907-2.979c.174-.181.174-.468 0-.65l.002.003zm14.283 3.292l-4.42-4.502c-.082-.085-.196-.134-.316-.134s-.234.049-.317.134l-1.18 1.212c-.176.18-.176.468 0 .649l2.906 2.98-2.907 2.98c-.175.18-.175.468 0 .65l1.181 1.21c.083.086.198.134.317.134.12 0 .234-.048.317-.134l4.393-4.53c.092-.08.146-.197.15-.32.005-.122-.042-.241-.128-.329h.004zM16.62 8.511h-1.425c-.196.005-.37.129-.437.314L11.412 18.86c-.054.143-.034.304.053.43.088.125.231.199.384.198h1.422c.196-.005.37-.13.437-.314l3.37-10.034c.045-.147.018-.306-.073-.43-.09-.124-.234-.197-.388-.198l.003-.001z" transform="translate(943 22)"/>
                </g>
                <ellipse cx="35.687" cy="131.392" fill="#CCC" fill-rule="nonzero" rx="5.813" ry="5.959"/>
                <ellipse cx="35.687" cy="166.757" fill="#CCC" fill-rule="nonzero" rx="5.813" ry="5.959"/>
                <ellipse cx="35.687" cy="202.122" fill="#CCC" fill-rule="nonzero" rx="5.813" ry="5.959"/>
            </g>
        </g>
    </g>
</svg>
