<svg xmlns="http://www.w3.org/2000/svg" width="47" height="71" viewBox="0 0 47 71">
    <g fill="none" fill-rule="evenodd">
        <g fill="#213E64" fill-rule="nonzero">
            <g>
                <g>
                    <g>
                        <path d="M43.794 0H2.246C1.006.002.002 1.006 0 2.246v56.146c.002 1.24 1.006 2.244 2.246 2.246h10.106v8.983c.031.345.19.666.447.9.205.126.436.203.676.224.124.016.249-.026.338-.114L45.255 59.4c.454-.129.772-.537.785-1.009V2.246C46.038 1.006 45.034.002 43.794 0zm-39.3 56.146V4.492h30.764l-22.235 7.974c-.4.18-.66.572-.671 1.009v42.671H4.494zm14.6-12.352c0 .62-.503 1.123-1.123 1.123s-1.123-.503-1.123-1.123V39.3c0-.62.503-1.123 1.123-1.123s1.123.503 1.123 1.123v4.494z" transform="translate(-859 -1592) translate(408 1537) translate(324) translate(127 55)"/>
                    </g>
                </g>
            </g>
        </g>
    </g>
</svg>
