<svg xmlns="http://www.w3.org/2000/svg" xmlns:xlink="http://www.w3.org/1999/xlink" width="1038" height="480" viewBox="0 0 1038 480">
    <defs>
        <filter id="cj8ge0ba4b" width="100.1%" height="100.1%" x="-.1%" y="-.1%" filterUnits="objectBoundingBox">
            <feOffset dx="-.5" in="SourceAlpha" result="shadowOffsetInner1"/>
            <feComposite in="shadowOffsetInner1" in2="SourceAlpha" k2="-1" k3="1" operator="arithmetic" result="shadowInnerInner1"/>
            <feColorMatrix in="shadowInnerInner1" values="0 0 0 0 0.8 0 0 0 0 0.8 0 0 0 0 0.8 0 0 0 1 0"/>
        </filter>
        <filter id="lso54mcekd" width="100.7%" height="100.1%" x="-.3%" y="-.1%" filterUnits="objectBoundingBox">
            <feOffset dx="-.5" in="SourceAlpha" result="shadowOffsetInner1"/>
            <feComposite in="shadowOffsetInner1" in2="SourceAlpha" k2="-1" k3="1" operator="arithmetic" result="shadowInnerInner1"/>
            <feColorMatrix in="shadowInnerInner1" values="0 0 0 0 0.8 0 0 0 0 0.8 0 0 0 0 0.8 0 0 0 1 0"/>
        </filter>
        <filter id="koq230raef" width="143.5%" height="143.5%" x="-21.7%" y="-17.4%" filterUnits="objectBoundingBox">
            <feOffset dy="1" in="SourceAlpha" result="shadowOffsetOuter1"/>
            <feGaussianBlur in="shadowOffsetOuter1" result="shadowBlurOuter1" stdDeviation="1.5"/>
            <feColorMatrix in="shadowBlurOuter1" result="shadowMatrixOuter1" values="0 0 0 0 0 0 0 0 0 0 0 0 0 0 0 0 0 0 0.2 0"/>
            <feMorphology in="SourceAlpha" radius=".5" result="shadowSpreadOuter2"/>
            <feOffset dy="2" in="shadowSpreadOuter2" result="shadowOffsetOuter2"/>
            <feGaussianBlur in="shadowOffsetOuter2" result="shadowBlurOuter2" stdDeviation=".5"/>
            <feColorMatrix in="shadowBlurOuter2" result="shadowMatrixOuter2" values="0 0 0 0 0 0 0 0 0 0 0 0 0 0 0 0 0 0 0.12 0"/>
            <feOffset dy="1" in="SourceAlpha" result="shadowOffsetOuter3"/>
            <feGaussianBlur in="shadowOffsetOuter3" result="shadowBlurOuter3" stdDeviation=".5"/>
            <feColorMatrix in="shadowBlurOuter3" result="shadowMatrixOuter3" values="0 0 0 0 0 0 0 0 0 0 0 0 0 0 0 0 0 0 0.14 0"/>
            <feMerge>
                <feMergeNode in="shadowMatrixOuter1"/>
                <feMergeNode in="shadowMatrixOuter2"/>
                <feMergeNode in="shadowMatrixOuter3"/>
            </feMerge>
        </filter>
        <filter id="e657ktu5fh" width="143.5%" height="143.5%" x="-21.7%" y="-17.4%" filterUnits="objectBoundingBox">
            <feOffset dy="1" in="SourceAlpha" result="shadowOffsetOuter1"/>
            <feGaussianBlur in="shadowOffsetOuter1" result="shadowBlurOuter1" stdDeviation="1.5"/>
            <feColorMatrix in="shadowBlurOuter1" result="shadowMatrixOuter1" values="0 0 0 0 0 0 0 0 0 0 0 0 0 0 0 0 0 0 0.2 0"/>
            <feMorphology in="SourceAlpha" radius=".5" result="shadowSpreadOuter2"/>
            <feOffset dy="2" in="shadowSpreadOuter2" result="shadowOffsetOuter2"/>
            <feGaussianBlur in="shadowOffsetOuter2" result="shadowBlurOuter2" stdDeviation=".5"/>
            <feColorMatrix in="shadowBlurOuter2" result="shadowMatrixOuter2" values="0 0 0 0 0 0 0 0 0 0 0 0 0 0 0 0 0 0 0.12 0"/>
            <feOffset dy="1" in="SourceAlpha" result="shadowOffsetOuter3"/>
            <feGaussianBlur in="shadowOffsetOuter3" result="shadowBlurOuter3" stdDeviation=".5"/>
            <feColorMatrix in="shadowBlurOuter3" result="shadowMatrixOuter3" values="0 0 0 0 0 0 0 0 0 0 0 0 0 0 0 0 0 0 0.14 0"/>
            <feMerge>
                <feMergeNode in="shadowMatrixOuter1"/>
                <feMergeNode in="shadowMatrixOuter2"/>
                <feMergeNode in="shadowMatrixOuter3"/>
            </feMerge>
        </filter>
        <filter id="26gtko887k" width="1073.9%" height="1073.9%" x="-487%" y="-347.8%" filterUnits="objectBoundingBox">
            <feOffset dy="4" in="SourceAlpha" result="shadowOffsetOuter1"/>
            <feGaussianBlur in="shadowOffsetOuter1" result="shadowBlurOuter1" stdDeviation="4"/>
            <feColorMatrix in="shadowBlurOuter1" values="0 0 0 0 0 0 0 0 0 0 0 0 0 0 0 0 0 0 0.936106862 0"/>
        </filter>
        <filter id="j4ezureu3m" width="1073.9%" height="1073.9%" x="-487%" y="-347.8%" filterUnits="objectBoundingBox">
            <feOffset dy="4" in="SourceAlpha" result="shadowOffsetOuter1"/>
            <feGaussianBlur in="shadowOffsetOuter1" result="shadowBlurOuter1" stdDeviation="4"/>
            <feColorMatrix in="shadowBlurOuter1" values="0 0 0 0 0 0 0 0 0 0 0 0 0 0 0 0 0 0 0.936106862 0"/>
        </filter>
        <filter id="czq92iwjoo" width="143.5%" height="143.5%" x="-21.7%" y="-17.4%" filterUnits="objectBoundingBox">
            <feOffset dy="1" in="SourceAlpha" result="shadowOffsetOuter1"/>
            <feGaussianBlur in="shadowOffsetOuter1" result="shadowBlurOuter1" stdDeviation="1.5"/>
            <feColorMatrix in="shadowBlurOuter1" result="shadowMatrixOuter1" values="0 0 0 0 0 0 0 0 0 0 0 0 0 0 0 0 0 0 0.2 0"/>
            <feMorphology in="SourceAlpha" radius=".5" result="shadowSpreadOuter2"/>
            <feOffset dy="2" in="shadowSpreadOuter2" result="shadowOffsetOuter2"/>
            <feGaussianBlur in="shadowOffsetOuter2" result="shadowBlurOuter2" stdDeviation=".5"/>
            <feColorMatrix in="shadowBlurOuter2" result="shadowMatrixOuter2" values="0 0 0 0 0 0 0 0 0 0 0 0 0 0 0 0 0 0 0.12 0"/>
            <feOffset dy="1" in="SourceAlpha" result="shadowOffsetOuter3"/>
            <feGaussianBlur in="shadowOffsetOuter3" result="shadowBlurOuter3" stdDeviation=".5"/>
            <feColorMatrix in="shadowBlurOuter3" result="shadowMatrixOuter3" values="0 0 0 0 0 0 0 0 0 0 0 0 0 0 0 0 0 0 0.14 0"/>
            <feMerge>
                <feMergeNode in="shadowMatrixOuter1"/>
                <feMergeNode in="shadowMatrixOuter2"/>
                <feMergeNode in="shadowMatrixOuter3"/>
            </feMerge>
        </filter>
        <filter id="822dhvyzmq" width="1073.9%" height="1073.9%" x="-487%" y="-347.8%" filterUnits="objectBoundingBox">
            <feOffset dy="4" in="SourceAlpha" result="shadowOffsetOuter1"/>
            <feGaussianBlur in="shadowOffsetOuter1" result="shadowBlurOuter1" stdDeviation="4"/>
            <feColorMatrix in="shadowBlurOuter1" values="0 0 0 0 0 0 0 0 0 0 0 0 0 0 0 0 0 0 0.936106862 0"/>
        </filter>
        <filter id="d3ympopr0s" width="1073.9%" height="1073.9%" x="-487%" y="-347.8%" filterUnits="objectBoundingBox">
            <feOffset dy="4" in="SourceAlpha" result="shadowOffsetOuter1"/>
            <feGaussianBlur in="shadowOffsetOuter1" result="shadowBlurOuter1" stdDeviation="4"/>
            <feColorMatrix in="shadowBlurOuter1" values="0 0 0 0 0 0 0 0 0 0 0 0 0 0 0 0 0 0 0.936106862 0"/>
        </filter>
        <filter id="jh73yk8kvu" width="105.6%" height="119%" x="-2.8%" y="-7.6%" filterUnits="objectBoundingBox">
            <feOffset dy="1" in="SourceAlpha" result="shadowOffsetOuter1"/>
            <feGaussianBlur in="shadowOffsetOuter1" result="shadowBlurOuter1" stdDeviation="1.5"/>
            <feColorMatrix in="shadowBlurOuter1" result="shadowMatrixOuter1" values="0 0 0 0 0 0 0 0 0 0 0 0 0 0 0 0 0 0 0.2 0"/>
            <feMorphology in="SourceAlpha" radius=".5" result="shadowSpreadOuter2"/>
            <feOffset dy="2" in="shadowSpreadOuter2" result="shadowOffsetOuter2"/>
            <feGaussianBlur in="shadowOffsetOuter2" result="shadowBlurOuter2" stdDeviation=".5"/>
            <feColorMatrix in="shadowBlurOuter2" result="shadowMatrixOuter2" values="0 0 0 0 0 0 0 0 0 0 0 0 0 0 0 0 0 0 0.12 0"/>
            <feOffset dy="1" in="SourceAlpha" result="shadowOffsetOuter3"/>
            <feGaussianBlur in="shadowOffsetOuter3" result="shadowBlurOuter3" stdDeviation=".5"/>
            <feColorMatrix in="shadowBlurOuter3" result="shadowMatrixOuter3" values="0 0 0 0 0 0 0 0 0 0 0 0 0 0 0 0 0 0 0.14 0"/>
            <feMerge>
                <feMergeNode in="shadowMatrixOuter1"/>
                <feMergeNode in="shadowMatrixOuter2"/>
                <feMergeNode in="shadowMatrixOuter3"/>
            </feMerge>
        </filter>
        <filter id="0ppxddmqgw" width="107.4%" height="129.9%" x="-3.7%" y="-12%" filterUnits="objectBoundingBox">
            <feOffset dy="1" in="SourceAlpha" result="shadowOffsetOuter1"/>
            <feGaussianBlur in="shadowOffsetOuter1" result="shadowBlurOuter1" stdDeviation="1.5"/>
            <feColorMatrix in="shadowBlurOuter1" result="shadowMatrixOuter1" values="0 0 0 0 0 0 0 0 0 0 0 0 0 0 0 0 0 0 0.2 0"/>
            <feMorphology in="SourceAlpha" radius=".5" result="shadowSpreadOuter2"/>
            <feOffset dy="2" in="shadowSpreadOuter2" result="shadowOffsetOuter2"/>
            <feGaussianBlur in="shadowOffsetOuter2" result="shadowBlurOuter2" stdDeviation=".5"/>
            <feColorMatrix in="shadowBlurOuter2" result="shadowMatrixOuter2" values="0 0 0 0 0 0 0 0 0 0 0 0 0 0 0 0 0 0 0.12 0"/>
            <feOffset dy="1" in="SourceAlpha" result="shadowOffsetOuter3"/>
            <feGaussianBlur in="shadowOffsetOuter3" result="shadowBlurOuter3" stdDeviation=".5"/>
            <feColorMatrix in="shadowBlurOuter3" result="shadowMatrixOuter3" values="0 0 0 0 0 0 0 0 0 0 0 0 0 0 0 0 0 0 0.14 0"/>
            <feMerge>
                <feMergeNode in="shadowMatrixOuter1"/>
                <feMergeNode in="shadowMatrixOuter2"/>
                <feMergeNode in="shadowMatrixOuter3"/>
            </feMerge>
        </filter>
        <filter id="x3oqfwd46y" width="125.1%" height="131.4%" x="-12.6%" y="-12.6%" filterUnits="objectBoundingBox">
            <feOffset in="SourceAlpha" result="shadowOffsetOuter1"/>
            <feGaussianBlur in="shadowOffsetOuter1" result="shadowBlurOuter1" stdDeviation=".5"/>
            <feColorMatrix in="shadowBlurOuter1" result="shadowMatrixOuter1" values="0 0 0 0 0 0 0 0 0 0 0 0 0 0 0 0 0 0 0.2 0"/>
            <feOffset dy="1" in="SourceAlpha" result="shadowOffsetOuter2"/>
            <feGaussianBlur in="shadowOffsetOuter2" result="shadowBlurOuter2" stdDeviation=".5"/>
            <feColorMatrix in="shadowBlurOuter2" result="shadowMatrixOuter2" values="0 0 0 0 0 0 0 0 0 0 0 0 0 0 0 0 0 0 0.12 0"/>
            <feOffset in="SourceAlpha" result="shadowOffsetOuter3"/>
            <feGaussianBlur in="shadowOffsetOuter3" result="shadowBlurOuter3" stdDeviation=".5"/>
            <feColorMatrix in="shadowBlurOuter3" result="shadowMatrixOuter3" values="0 0 0 0 0 0 0 0 0 0 0 0 0 0 0 0 0 0 0.14 0"/>
            <feMerge>
                <feMergeNode in="shadowMatrixOuter1"/>
                <feMergeNode in="shadowMatrixOuter2"/>
                <feMergeNode in="shadowMatrixOuter3"/>
            </feMerge>
        </filter>
        <filter id="j00w1servB" width="652.7%" height="652.7%" x="-276.4%" y="-175.9%" filterUnits="objectBoundingBox">
            <feOffset dy="2" in="SourceAlpha" result="shadowOffsetOuter1"/>
            <feGaussianBlur in="shadowOffsetOuter1" result="shadowBlurOuter1" stdDeviation="1.5"/>
            <feColorMatrix in="shadowBlurOuter1" values="0 0 0 0 0 0 0 0 0 0 0 0 0 0 0 0 0 0 0.936106862 0"/>
        </filter>
        <filter id="eurcvi930D" width="652.8%" height="652.7%" x="-276.4%" y="-175.9%" filterUnits="objectBoundingBox">
            <feOffset dy="2" in="SourceAlpha" result="shadowOffsetOuter1"/>
            <feGaussianBlur in="shadowOffsetOuter1" result="shadowBlurOuter1" stdDeviation="1.5"/>
            <feColorMatrix in="shadowBlurOuter1" values="0 0 0 0 0 0 0 0 0 0 0 0 0 0 0 0 0 0 0.936106862 0"/>
        </filter>
        <filter id="3051tlx5wF" width="131.4%" height="153.8%" x="-15.7%" y="-26.9%" filterUnits="objectBoundingBox">
            <feOffset in="SourceAlpha" result="shadowOffsetOuter1"/>
            <feGaussianBlur in="shadowOffsetOuter1" result="shadowBlurOuter1" stdDeviation="2"/>
            <feColorMatrix in="shadowBlurOuter1" result="shadowMatrixOuter1" values="0 0 0 0 0 0 0 0 0 0 0 0 0 0 0 0 0 0 0.2 0"/>
            <feMorphology in="SourceAlpha" radius=".5" result="shadowSpreadOuter2"/>
            <feOffset dy="2" in="shadowSpreadOuter2" result="shadowOffsetOuter2"/>
            <feGaussianBlur in="shadowOffsetOuter2" result="shadowBlurOuter2" stdDeviation="1"/>
            <feColorMatrix in="shadowBlurOuter2" result="shadowMatrixOuter2" values="0 0 0 0 0 0 0 0 0 0 0 0 0 0 0 0 0 0 0.12 0"/>
            <feOffset dy="2" in="SourceAlpha" result="shadowOffsetOuter3"/>
            <feGaussianBlur in="shadowOffsetOuter3" result="shadowBlurOuter3" stdDeviation="1"/>
            <feColorMatrix in="shadowBlurOuter3" result="shadowMatrixOuter3" values="0 0 0 0 0 0 0 0 0 0 0 0 0 0 0 0 0 0 0.14 0"/>
            <feMerge>
                <feMergeNode in="shadowMatrixOuter1"/>
                <feMergeNode in="shadowMatrixOuter2"/>
                <feMergeNode in="shadowMatrixOuter3"/>
            </feMerge>
        </filter>
        <circle id="glle3sswfe" cx="11.5" cy="11.5" r="11.5"/>
        <circle id="ksqm7xmahi" cx="11.5" cy="11.5" r="11.5"/>
        <circle id="etcfbs1m4l" cx="4.313" cy="5.031" r="1.438"/>
        <circle id="81rsxq7dyn" cx="12.938" cy="5.031" r="1.438"/>
        <circle id="3oh1c7zcdp" cx="11.5" cy="11.5" r="11.5"/>
        <circle id="b33yh4x8dr" cx="4.313" cy="5.031" r="1.438"/>
        <circle id="5mpncv5b9t" cx="12.938" cy="5.031" r="1.438"/>
        <circle id="v21sc3wzpz" cx="7.96" cy="7.96" r="7.96"/>
        <circle id="xo7xw5ad6C" cx="2.985" cy="3.483" r="1"/>
        <circle id="qg47kynn5E" cx="8.955" cy="3.483" r="1"/>
        <path id="t6tamdwaxa" d="M2 0h342v480H2c-1.105 0-2-.895-2-2V2C0 .895.895 0 2 0z"/>
        <path id="000lcazddc" d="M2 0h70v480H2c-1.105 0-2-.895-2-2V2C0 .895.895 0 2 0z"/>
        <path id="fo8p4n2jcv" d="M8.711 0h170.393v43.826c0 4.811-3.9 8.711-8.71 8.711H8.71c-4.81 0-8.711-3.9-8.711-8.71V8.71C0 3.901 3.9 0 8.711 0z"/>
        <path id="gne160e15x" d="M16.086 0h122.256c3.609 0 6.534 2.925 6.534 6.533V26.9c0 3.608-2.925 6.533-6.534 6.533H9.552v-26.9C9.552 2.925 12.477 0 16.086 0z"/>
        <path id="tzlldmq84G" d="M16.086 38.209h25.142c3.608 0 6.533 2.925 6.533 6.533v9.222c0 3.608-2.925 6.534-6.533 6.534H9.552V44.742c0-3.608 2.925-6.533 6.534-6.533z"/>
        <radialGradient id="zmbaswdk0j" cx="40.631%" cy="30.606%" r="49.79%" fx="40.631%" fy="30.606%" gradientTransform="scale(.66664 1) rotate(59.534 .508 .484)">
            <stop offset="0%" stop-color="#072D41"/>
            <stop offset="100%"/>
        </radialGradient>
        <radialGradient id="omm7410dgA" cx="40.631%" cy="30.606%" r="49.79%" fx="40.631%" fy="30.606%" gradientTransform="scale(.66664 1) rotate(59.534 .508 .484)">
            <stop offset="0%" stop-color="#072D41"/>
            <stop offset="100%"/>
        </radialGradient>
    </defs>
    <g fill="none" fill-rule="evenodd">
        <g>
            <g>
                <g transform="translate(-201 -6585) translate(201 6585)">
                    <rect width="1038" height="480" fill="#FBF9FF" rx="3"/>
                    <g>
                        <use fill="#FBF9FF" xlink:href="#t6tamdwaxa"/>
                        <use fill="#000" filter="url(#cj8ge0ba4b)" xlink:href="#t6tamdwaxa"/>
                    </g>
                    <g fill="#E9E9E9" transform="translate(185 75)">
                        <rect width="16" height="16" x="128" rx="8"/>
                        <rect width="16" height="16" x="96" rx="8"/>
                        <rect width="16" height="16" x="64" rx="8"/>
                        <rect width="16" height="16" x="32" rx="8"/>
                        <rect width="16" height="16" rx="8"/>
                    </g>
                    <path stroke="#EAEAEA" stroke-linecap="round" d="M97.5 58.5L328.5 58.5" opacity=".5"/>
                    <g>
                        <use fill="#FBF9FF" xlink:href="#000lcazddc"/>
                        <use fill="#000" filter="url(#lso54mcekd)" xlink:href="#000lcazddc"/>
                    </g>
                    <rect width="48.141" height="45.416" x="10.9" y="8.175" fill="#213E65" fill-rule="nonzero" rx="5"/>
                    <path fill="#FFF" d="M32.41 30.876c0 1.582-1.283 2.864-2.867 2.864s-2.868-1.282-2.868-2.864c0-1.581 1.284-2.864 2.868-2.864 1.584 0 2.868 1.283 2.868 2.864M36.276 33.042L43.965 33.042 43.965 28.71 36.276 28.71z"/>
                    <rect width="32" height="32" x="987" y="20" fill="#EAEAEA" fill-rule="nonzero" rx="16"/>
                    <rect width="95.223" height="14.355" x="97" y="28" fill="#E9E9E9" fill-rule="nonzero" rx="7.177"/>
                    <rect width="206" height="24" x="88" y="440" fill="#FFF" fill-rule="nonzero" stroke="#EAEAEA" rx="2"/>
                    <path fill="#003057" fill-rule="nonzero" d="M313.352 449.797L309 442 329 450.973 309.068 461.259 313.36 452.163 318.821 450.932z"/>
                    <g transform="translate(361 19)">
                        <rect width="450.908" height="32" fill="#EAEAEA" stroke="#E9E9E9" rx="2.5"/>
                        <path fill="#97ACB2" fill-rule="nonzero" d="M26.749 21.348l-1.868-1.915c1.629-2.15 1.346-5.226-.644-7.026-1.991-1.8-5.004-1.704-6.882.22-1.877 1.924-1.971 5.013-.215 7.054 1.757 2.041 4.758 2.33 6.855.66l1.865 1.918c.118.121.278.19.444.19.167 0 .327-.069.445-.19.118-.12.185-.284.185-.456 0-.17-.067-.335-.185-.455zm-5.83-1.208c-2.078 0-3.763-1.727-3.763-3.858 0-2.13 1.685-3.857 3.763-3.857s3.763 1.727 3.763 3.857c-.002 2.13-1.685 3.856-3.763 3.858z"/>
                    </g>
                    <path fill="#213E65" fill-rule="nonzero" d="M998.185 37.803c-.442.461-.293.836.335.836h10.268c.627 0 .777-.367.334-.82l-4.72-4.841c-.212-.22-.501-.341-.803-.339-.3.003-.588.13-.797.352l-4.617 4.812z" transform="rotate(90 1003.654 35.64)"/>
                    <path fill="#213E65" fill-rule="nonzero" d="M957 50c-7.732 0-14-6.268-14-14s6.268-14 14-14 14 6.268 14 14c0 3.713-1.475 7.274-4.1 9.9-2.626 2.625-6.187 4.1-9.9 4.1zm-3.791-17.629l-1.18-1.21c-.084-.087-.198-.135-.318-.135-.119 0-.233.048-.316.134l-4.421 4.503c-.175.181-.175.469 0 .65l4.418 4.524c.083.086.198.135.317.135.12 0 .234-.049.317-.135l1.18-1.21c.176-.182.176-.47 0-.65l-2.906-2.98 2.907-2.979c.174-.181.174-.468 0-.65l.002.003zm14.283 3.292l-4.42-4.502c-.082-.085-.196-.134-.316-.134s-.234.049-.317.134l-1.18 1.212c-.176.18-.176.468 0 .649l2.906 2.98-2.906 2.98c-.176.18-.176.468 0 .65l1.18 1.21c.083.086.198.134.317.134.12 0 .234-.048.317-.134l4.393-4.53c.092-.08.146-.197.15-.32.005-.122-.042-.241-.128-.329h.004zm-7.872-5.152h-1.425c-.196.005-.37.129-.437.314l-3.346 10.035c-.054.143-.034.304.053.43.088.125.231.199.384.198h1.422c.196-.005.37-.13.437-.314l3.37-10.034c.045-.147.018-.306-.073-.43-.09-.124-.234-.197-.388-.198l.003-.001z"/>
                    <ellipse cx="35.687" cy="131.392" fill="#CCC" fill-rule="nonzero" rx="5.813" ry="5.959"/>
                    <ellipse cx="35.687" cy="166.757" fill="#CCC" fill-rule="nonzero" rx="5.813" ry="5.959"/>
                    <ellipse cx="35.687" cy="202.122" fill="#CCC" fill-rule="nonzero" rx="5.813" ry="5.959"/>
                    <g transform="translate(361 83)">
                        <path stroke="#979797" stroke-linecap="square" d="M0 189.5L546 189.5M0 157.5L546 157.5M0 125.5L546 125.5M0 93.5L546 93.5M0 61.5L546 61.5M0 29.5L546 29.5" opacity=".5"/>
                        <rect width="116" height="9" x="420" y="173" fill="#EAEAEA" fill-rule="nonzero" rx="4.5"/>
                        <rect width="66" height="9" x="480" y="141" fill="#518DE2" fill-rule="nonzero" opacity=".5" rx="4.5"/>
                        <rect width="116" height="9" x="420" y="109" fill="#EAEAEA" fill-rule="nonzero" rx="4.5"/>
                        <rect width="126" height="9" x="420" y="77" fill="#518DE2" fill-rule="nonzero" opacity=".5" rx="4.5"/>
                        <rect width="86" height="9" x="460" y="45" fill="#518DE2" fill-rule="nonzero" opacity=".5" rx="4.5"/>
                        <rect width="96" height="14" x="424" y="9" fill="#FDCD2D" fill-rule="nonzero" rx="7"/>
                        <g transform="translate(420)">
                            <mask id="vi8dy04sag" fill="#fff">
                                <use xlink:href="#glle3sswfe"/>
                            </mask>
                            <g>
                                <use fill="#000" filter="url(#koq230raef)" xlink:href="#glle3sswfe"/>
                                <use fill="#FFF" xlink:href="#glle3sswfe"/>
                            </g>
                            <g fill-rule="nonzero" mask="url(#vi8dy04sag)">
                                <g>
                                    <path fill="#003057" d="M14.793 8.192c.15-.108.297.098.148.207-.125.092-.254.315-.338.628.02.073.024.126-.006.234-.095.342-.402.498-.32.015.03-.172.06-.279.082-.345.094-.328.244-.6.434-.74zm-9.645 0c.19.138.34.41.434.739.021.066.052.173.081.345.083.482-.224.327-.318-.015-.031-.108-.027-.161-.007-.234-.085-.313-.213-.537-.337-.628-.15-.109-.003-.316.147-.207zm4.672 4.523c.104.015.126-.139.022-.153-.068-.01-.115-.013-.182-.038-.097-.037-.153.108-.056.145.085.031.133.033.216.046zm1.048-.24c-.248.204-.522.361-.877.369h-.029c-.409-.008-.709-.214-.986-.463-.111-.088-.226-.196-.356-.325-.085-.082-.186-.144-.298-.185-.028-.007-.053-.016-.073-.024-.159-.065-.064-.306.099-.246l.01.004.026.008c.418.126 1.08-.151 1.59.087.51-.238 1.174.039 1.592-.087l.027-.008.01-.004c.163-.06.256.182.099.246-.02.008-.045.017-.072.024-.333.123-.465.401-.762.604zm-1.959-.522c.1.096.201.198.31.291.17.115.394.198.76.2.363-.002.586-.086.755-.201.109-.092.211-.194.31-.29-.396.031-.846.04-1.054.04h-.024c-.21 0-.66-.009-1.057-.04zm.284-1.287s.015-.017.041-.035c.287-.208.458.13.739.13.282 0 .457-.337.741-.13.028.02.042.035.042.035.12.13-.077.308-.197.178-.072-.05-.222.09-.293.123-.077.036-.172.059-.294.059-.205 0-.307-.053-.458-.165-.041-.03-.084-.047-.126-.017-.119.13-.315-.048-.195-.178zm1.317-2.888c.006-.078.048-.159.133-.216.482-.32 1.045-.5 1.634-.477.392.015.708.104 1.014.274l.025.015c-.726-.06-1.627.046-2.126.183-.274.076-.47.161-.68.22zm-3.884-.406l.023-.013c.306-.172.621-.26 1.013-.274.59-.023 1.152.157 1.634.477.091.06.13.144.133.225-.236-.063-.46-.163-.703-.23-.493-.136-1.378-.24-2.1-.185zm.397 1.334l-.351-.1c-.17-.048-.097-.302.073-.254l.24.068.032-.042-.106-.047c-.162-.071-.054-.312.108-.24l.214.094c.153-.101.342-.168.548-.193.318.024.561.055.749.092.094.037.182.083.261.136l.065.047.014.01.014.012c.12.102.213.225.264.362.016.041.013.077-.002.107-.045.096-.21.123-.26-.01-.02-.054-.052-.108-.095-.159-.107-.127-.28-.235-.495-.291.1.076.162.2.152.335-.016.215-.203.377-.42.36-.216-.014-.38-.2-.365-.414.01-.142.096-.26.214-.32-.335.023-.589.178-.694.37-.028.06-.084.098-.16.077zm5.93-.286l.24-.068c.17-.048.244.206.073.254l-.352.1c-.074.02-.131-.016-.155-.069-.108-.199-.364-.354-.697-.377.118.06.204.178.214.32.015.215-.149.4-.366.415-.217.015-.404-.147-.42-.36-.009-.136.051-.26.153-.336-.303.078-.519.258-.591.449-.065.173-.327.076-.263-.097.097-.259.337-.463.64-.575.184-.035.419-.063.718-.085.21.024.4.09.557.194l.214-.095c.162-.071.27.17.108.241l-.107.048c.013.012.024.027.034.041zm-.846 6.778c-.255.83-.812 1.832-1.729 2.073.099.116.162.254.239.384.183.31.464.935.873 1.73.572-1.548 1.022-2.697 1.183-3.137-.084-.143-.316-.547-.47-.891-.036-.083-.07-.13-.096-.159zM9.97 17.062c1.172-.02 1.72-1.427 1.873-1.912.02-.58.096-1.094.286-1.637-.051.029-.106.058-.162.087-.379.193-.777.354-1.143.574-.263.158-.559.16-.86.162-.587-.006-.592-.032-1.024-.256-.36-.186-.75-.346-1.113-.546.183.527.257 1.027.278 1.589.025.08.04.157.052.19.07.198.181.459.336.72.312.525.789 1.017 1.477 1.029zm-2.132-1.86c-.028.028-.061.074-.096.153-.154.344-.387.747-.47.89.161.441.61 1.59 1.184 3.137.325-.631.617-1.281.968-1.9.041-.074.087-.148.143-.213-.915-.239-1.472-1.238-1.73-2.067h.001zm.986 4.277c-.014.001-.026 0-.038-.004-.013-.004-.024-.01-.034-.019-.008-.007-.016-.017-.021-.026l-.178.342c-.067.127-.194.118-.243-.016-.511-1.39-.936-2.49-1.167-3.1l1.247 6.08v2.648c0 .238.165.436.389.49H.277c.457-3.464.599-5.956.724-7.228.028-.29.077-.879.769-1.125 1.448-.568 5.17-1.372 5.262-1.393.07-.12.31-.532.466-.881l.017-.036c-1.167-.366-1.801-1.302-2.144-2.597-.261-.775-.46-1.702-.581-2.726-.334-.44-.542-.985-.55-1.477-.007-.43.173-.687.422-.783 0-1.43.145-2.815.403-4.011.122-.86.43-1.676 1.07-2.268C6.915.658 8.163.057 9.966 0c0 0 .192-.006.481.014.95.065 2.279.359 2.684 1.323.017.084.029.172.033.265.092 1.551-.42 2.702-1.249 3.494-.664.424-1.523.64-2.493.72-.578.047-1.096.04-1.44.057-.963.046-1.606.563-1.72 1.442-.005.042-.008.076-.009.102-.1.02-.195.042-.28.07l-.01-.018c-.132-.288-.267-.732-.13-1.166.055-.168-.199-.248-.254-.08-.147.458-.052.952.15 1.378-.062.05-.105.128-.105.213v.475c0 .129.074.222.172.307.071.051.099.143.115.239-.054.003-.11-.026-.135-.098l-.008-.028c-.01-.028-.029-.079-.055-.14-.147-.342-.448-.828-.906-.702-.594.163-.159 1.258.003 1.563.218.41.683.912 1.184 1.002.028.005.094.058.103.085.489 1.364.855 1.99 1.275 2.377.073.067.15.13.23.187.022.007.043.02.06.042.486.331 1.078.523 1.58.825.212.129.48.12.72.124.548-.006.507-.021.902-.226.558-.288 1.226-.522 1.692-.95.42-.387.786-1.012 1.275-2.377.026-.074.435-.21.51-.253.596-.346 1.068-1.174 1.08-1.858.014-.724-.654-.7-1.01-.193-.039.055-.075.112-.109.173l-.025.046c-.018.036-.036.073-.052.11l-.038.096-.006.01-.012.033-.015.045-.009.024c-.028.063-.083.088-.135.083.025-.11.06-.2.11-.238.098-.085.174-.178.174-.307v-.475c0-.096-.053-.182-.129-.23-.062-.037-.135-.067-.216-.094-.073-.268-.204-.507-.351-.928-.09-.257-.178-.578-.25-1.018-.067-.416-.342-.723-.868-.642.67-.842 1.03-1.976.951-3.316-.002-.039-.005-.077-.01-.115.055-.015.095-.023.149-.023.479 0 .9.6 1.153 1.515h.01c.355 1.33.56 2.966.56 4.662v.023c.697.299.303 1.445.06 1.904-.054.102-.117.201-.184.297-.12 1.04-.322 1.98-.586 2.763-.345 1.3-.98 2.236-2.153 2.6l.016.033c.165.367.422.806.477.9l.004-.018s3.798.818 5.263 1.392c.692.246.74.835.77 1.125.125 1.272.267 3.764.723 7.229l-8.498-.001c.223-.054.39-.253.39-.49l-.002-2.65 1.264-6.166c-.22.586-.664 1.728-1.201 3.188-.05.135-.176.143-.243.016-.065-.122-.128-.245-.19-.37l-.01.023c-.005.013-.013.022-.023.03-.01.009-.02.016-.033.02-.013.004-.026.005-.039.005-.013-.001-.025-.005-.038-.01-.01-.005-.02-.014-.03-.024-.008-.01-.014-.021-.018-.034-.005-.012-.006-.025-.006-.037.001-.014.005-.025.01-.038.006-.012.015-.021.024-.03.01-.008.021-.015.034-.018.013-.004.026-.005.038-.005.013 0 .025.004.036.008l-.015-.03c-.006.002-.012.002-.019.002-.013-.001-.026-.005-.038-.01-.011-.005-.021-.013-.03-.024-.009-.01-.015-.02-.02-.034-.004-.012-.005-.025-.005-.037.001-.014.004-.026.01-.038.006-.008.011-.017.019-.025-.112-.227-.223-.454-.336-.68l-.45.688.559 2.327H9.125l.56-2.327-.45-.688c-.1.205-.214.44-.344.7.008.017.011.028.012.04.002.014 0 .026-.005.038-.004.013-.01.024-.019.034-.008.01-.019.018-.03.024-.01.005-.02.007-.03.01l-.01.02c.018-.002.03 0 .044.005.012.004.023.01.032.019.01.008.017.018.024.029.006.011.01.024.01.038 0 .013-.002.026-.005.037-.004.013-.01.024-.019.034-.008.01-.02.018-.03.024-.016.007-.028.012-.041.012zm.897 4.46c-.018-.012-.009-.03.004-.026l.017.008c.012-.008.027-.013.043-.015l.056.006c.024.009.043.025.05.045.005.014-.016.021-.02.008-.005-.015-.022-.03-.047-.036.008.005.013.016.012.026-.001.017-.016.03-.033.029-.017-.002-.03-.016-.029-.033.002-.01.008-.02.017-.025-.026.002-.046.015-.054.03-.002.003-.006.007-.012.004l-.028-.008c-.014-.004-.007-.023.005-.02l.02.007zm.464.023c-.005.002-.01-.003-.012-.006-.008-.015-.029-.027-.054-.028.01.005.016.014.017.025 0 .017-.012.032-.029.033-.017 0-.03-.013-.032-.029 0-.01.005-.02.012-.026-.017.004-.03.013-.04.023-.003.004-.005.009-.006.013-.004.01-.017.007-.02 0 .005-.018.01-.028.02-.036.014-.01.02-.014.028-.017.015-.003.033-.005.058-.007.016.002.03.007.043.015l.017-.008c.012-.005.02.014.008.018l.013.002c.013-.003.019.017.005.02l-.028.008zm.031-.104c-.056-.006-.126.003-.164.014l-.055.018c0-.006.004-.013.01-.018.039-.025.082-.038.129-.037.03 0 .055.007.08.02v.003zm-.304.032l-.053-.017c-.039-.011-.109-.018-.165-.014.025-.015.05-.021.082-.022.046-.002.09.012.128.037.005.003.008.009.008.016zm.104.226c.01.01-.005.024-.016.013-.004-.002-.006 0-.01.002-.011.009-.02.013-.035.013-.01 0-.017-.002-.024-.004-.005-.003-.017-.015-.023-.01-.009.01-.024-.004-.015-.013.026-.02.04.007.062.007s.036-.027.058-.01l.003.002zm.021.1l-.082.003c-.018 0-.053 0-.085-.003l.024.023c.014.009.03.016.06.016.028 0 .046-.006.059-.016.01-.007.017-.015.024-.023zm-.152.041c-.024-.016-.034-.038-.06-.047-.019-.006-.01-.026.002-.021.035.01.087-.01.128.007.039-.017.092.004.125-.006.015-.005.023.014.01.018-.015.005-.022.01-.028.017-.01.01-.02.017-.028.026-.022.019-.046.036-.077.037-.031-.004-.052-.015-.072-.03zm.082.018l.017-.003c.008-.003.003-.015-.005-.012l-.015.003c-.007.002-.005.014.003.012zm.365-.353c.011-.009.023.007.011.016-.01.007-.019.026-.026.05.002.005.002.01-.001.018-.008.027-.03.038-.026 0 .002-.013.006-.02.007-.027.008-.025.02-.047.035-.057zm-.754 0c.015.01.027.032.034.057.003.006.005.014.007.028.006.037-.017.026-.026-.001-.003-.009-.002-.013 0-.018-.007-.025-.018-.042-.027-.05-.01-.008 0-.025.012-.016zm1.383-2.499c-.014 0-.025-.004-.037-.01-.012-.004-.021-.013-.03-.023-.01-.01-.016-.021-.02-.034-.004-.012-.005-.025-.005-.038 0-.013.004-.025.01-.036.005-.012.013-.021.024-.03.01-.009.02-.015.033-.02.012-.004.025-.005.039-.005.012.001.026.005.038.01.01.006.021.014.03.024.008.01.015.02.019.033.004.013.005.025.005.038-.001.014-.004.026-.01.038-.005.011-.014.02-.024.03-.01.008-.021.015-.034.018-.013.004-.025.006-.038.005zm.12-1.728c-.012 0-.025-.004-.036-.009-.01-.006-.022-.015-.03-.024-.008-.01-.016-.021-.02-.034-.003-.012-.004-.025-.004-.037 0-.014.005-.027.01-.038.006-.012.014-.021.024-.03.01-.009.02-.015.033-.02.013-.004.026-.005.039-.005.013.001.025.005.037.01.011.005.02.013.03.024.009.01.015.02.02.033.004.012.005.025.005.038-.001.013-.006.026-.01.037-.005.012-.014.022-.024.03-.01.009-.021.016-.033.02-.014.005-.025.007-.04.005zm-.014.216c-.013 0-.026-.004-.037-.009-.012-.005-.021-.014-.03-.024-.008-.01-.016-.021-.019-.034-.004-.012-.005-.025-.005-.037 0-.014.005-.026.01-.037.005-.012.013-.021.023-.03.01-.008.02-.015.032-.018.013-.004.026-.006.04-.004.013 0 .025.004.037.009.011.005.022.014.03.024.009.01.015.02.02.033.004.012.005.025.005.038-.001.013-.004.026-.01.037-.005.012-.013.021-.024.03-.01.008-.021.015-.033.018-.013.003-.025.006-.04.004zm-.015.216c-.014 0-.025-.004-.037-.009-.012-.005-.021-.014-.03-.024-.01-.01-.017-.022-.02-.034-.004-.012-.005-.025-.004-.038.001-.013.004-.026.01-.037.005-.012.013-.021.024-.03.01-.009.021-.015.033-.02.012-.004.025-.005.039-.005.014.001.025.005.037.01.012.005.021.013.03.024.01.01.017.02.02.032.004.013.005.026.004.04-.001.013-.004.025-.01.036-.005.011-.013.02-.023.03-.01.009-.021.015-.034.02-.012.005-.026.006-.039.005zm-.016.216c-.014 0-.025-.004-.037-.009-.012-.005-.021-.014-.03-.024-.01-.01-.015-.021-.02-.034-.004-.012-.005-.024-.005-.037.001-.014.004-.026.01-.037.005-.012.013-.021.024-.03.01-.008.021-.015.033-.018.012-.005.025-.006.038-.006.014.001.026.005.037.01.012.005.022.013.03.024.01.01.016.02.02.032.004.013.005.026.005.04-.001.012-.004.024-.01.036-.005.011-.013.02-.024.03-.01.009-.021.015-.033.02-.011.002-.024.004-.038.003zm-.015.216c-.012 0-.025-.004-.037-.01-.011-.005-.022-.014-.03-.024-.009-.01-.015-.021-.02-.033-.004-.012-.005-.025-.005-.037.001-.013.004-.026.01-.037.006-.012.015-.021.024-.03.01-.008.021-.015.034-.018.012-.005.025-.006.038-.006.014.001.026.005.038.01.012.006.021.014.03.024.008.01.016.02.019.032.004.014.005.026.005.04 0 .013-.005.024-.01.036-.006.011-.014.022-.024.03-.01.009-.02.016-.034.02-.011.003-.024.004-.038.003zm-.014.216c-.014 0-.027-.004-.039-.01-.01-.004-.02-.013-.03-.023-.008-.01-.015-.021-.018-.033-.005-.012-.006-.025-.006-.038.001-.014.006-.027.01-.037.006-.012.015-.022.024-.03.01-.009.021-.015.034-.02.013-.004.026-.005.038-.005.014.001.027.005.038.01.012.006.022.013.031.024.009.01.015.02.02.033.003.013.006.026.005.04-.002.013-.005.024-.01.036-.005.011-.014.022-.024.03-.01.009-.022.015-.033.02-.015.002-.028.004-.04.003zm-.016.216c-.014 0-.027-.004-.037-.01-.012-.005-.023-.014-.031-.023-.009-.01-.016-.021-.02-.034-.003-.011-.006-.025-.005-.038.002-.013.005-.025.01-.036.005-.012.014-.022.024-.03.01-.009.02-.015.033-.02.013-.004.026-.005.038-.005.014.001.027.004.037.01.012.005.023.013.031.023.009.01.015.02.02.033.003.013.005.025.005.04-.002.013-.006.024-.01.036-.005.011-.014.02-.024.03-.01.009-.022.015-.034.02-.01.004-.024.005-.037.004zm-.015.216c-.014 0-.027-.004-.038-.01-.012-.005-.022-.013-.031-.023-.009-.01-.015-.021-.02-.034-.003-.012-.004-.025-.004-.039 0-.013.005-.025.01-.036.004-.012.013-.022.023-.03.01-.01.022-.016.034-.02.013-.004.026-.005.039-.005.012.001.026.004.037.01.011.005.02.013.03.023.009.01.016.02.02.033.004.013.005.025.005.038-.001.014-.005.026-.01.038-.005.011-.014.02-.023.03-.01.007-.021.015-.034.018-.012.006-.024.008-.038.007zm-2.014.216c-.014.001-.027 0-.04-.005-.012-.004-.023-.01-.032-.019-.01-.008-.018-.018-.024-.03-.006-.01-.009-.023-.01-.037-.001-.014.001-.026.005-.038.005-.012.01-.023.02-.033.008-.01.018-.018.03-.023.01-.006.024-.01.037-.01.014-.002.027 0 .04.004.011.005.023.01.032.02.01.008.018.018.025.03.006.011.008.024.01.036 0 .014-.002.027-.006.038-.004.013-.01.024-.02.034-.008.01-.018.018-.03.024-.012.005-.024.008-.037.01zm-.123-1.728c-.014.002-.025 0-.04-.005-.01-.004-.022-.01-.032-.019-.01-.008-.018-.017-.024-.03-.006-.01-.009-.024-.01-.037 0-.013.001-.026.005-.037.005-.013.011-.025.02-.034.008-.01.019-.018.03-.024.01-.005.024-.009.037-.01.014 0 .027.001.04.006.012.004.023.01.032.019.01.008.017.018.024.03.006.011.01.024.01.038.001.013 0 .025-.005.037-.005.013-.01.024-.02.034-.008.01-.017.017-.029.024-.011.004-.024.008-.038.008zm.016.216c-.014.002-.027 0-.04-.005-.012-.004-.023-.01-.033-.019-.01-.008-.018-.017-.023-.029-.007-.012-.01-.024-.01-.037-.001-.013.001-.026.005-.038.005-.013.01-.024.02-.033.008-.01.018-.018.03-.024.01-.005.023-.008.037-.01.014 0 .027.002.038.005.013.004.024.01.033.019.01.008.018.017.025.029.005.012.008.024.01.037 0 .013-.002.026-.006.037-.004.013-.01.023-.02.034-.008.01-.018.018-.03.024-.01.006-.023.01-.036.01zm.015.216c-.014.001-.027 0-.038-.005-.013-.004-.024-.01-.034-.019-.01-.008-.018-.017-.025-.03-.005-.012-.008-.024-.01-.037 0-.013.002-.026.006-.039.004-.012.01-.024.02-.032.008-.01.018-.018.03-.024.012-.005.024-.009.038-.01.014 0 .026.001.038.006.013.004.024.01.034.018.01.009.018.02.024.03.006.012.009.025.01.038.001.013 0 .026-.005.038s-.01.025-.02.034c-.008.01-.018.017-.03.024-.013.004-.024.007-.038.008zm.016.216c-.014.001-.027 0-.038-.005-.013-.004-.024-.01-.033-.019-.01-.008-.018-.019-.025-.03-.005-.012-.01-.024-.01-.037 0-.013 0-.026.005-.039.004-.012.01-.023.02-.032.008-.01.018-.018.03-.024.011-.005.024-.009.038-.01.013 0 .026.001.038.006.013.005.023.01.033.018.01.009.018.018.024.03.006.011.01.024.01.037 0 .013-.001.026-.005.037-.005.013-.011.024-.02.034-.008.01-.019.018-.03.024-.012.006-.025.01-.037.01zm.015.216c-.013.001-.027 0-.039-.005s-.023-.01-.032-.019c-.011-.008-.018-.019-.025-.03-.005-.012-.008-.023-.01-.037 0-.013.002-.026.005-.039.004-.011.01-.023.019-.032.008-.01.019-.017.03-.024.012-.005.025-.009.039-.01.013 0 .025.001.038.006.013.004.024.009.034.018.01.009.018.018.023.03.007.011.01.024.01.037 0 .013-.001.026-.005.037-.004.013-.01.024-.019.033-.008.01-.019.018-.03.024-.013.007-.026.01-.038.011zm.014.216c-.013.001-.026 0-.039-.005-.013-.004-.023-.01-.033-.019-.01-.008-.018-.019-.024-.03-.005-.012-.009-.024-.01-.037 0-.013.001-.026.006-.039.004-.012.01-.023.019-.033.008-.01.019-.017.03-.024.011-.006.024-.009.038-.01.013 0 .026.001.038.006.012.004.024.01.034.018.01.009.018.02.023.03.005.011.01.025.01.037.002.014 0 .027-.005.04-.004.012-.01.022-.019.032-.008.01-.019.018-.03.024-.011.006-.024.01-.038.01zm.016.216c-.014.001-.025 0-.038-.005-.013-.004-.024-.01-.034-.019-.01-.008-.017-.019-.024-.03-.005-.012-.009-.024-.01-.037 0-.014.001-.026.006-.039.004-.012.01-.024.019-.033.008-.01.019-.017.03-.023.011-.006.024-.01.037-.01.014 0 .027.001.039.006.012.004.024.01.034.018.009.009.018.02.023.03.006.012.01.025.01.038.001.013 0 .026-.005.037-.004.013-.01.024-.019.034-.008.01-.018.018-.03.023-.012.006-.025.01-.038.01zm.015.216c-.014.001-.025 0-.038-.004-.013-.004-.023-.01-.034-.019-.01-.008-.017-.018-.023-.03-.006-.01-.01-.023-.01-.037 0-.012.001-.026.005-.038.005-.012.011-.024.02-.033.008-.01.019-.017.03-.023.012-.005.025-.009.037-.01.014 0 .027.001.038.006.013.004.025.01.034.018.01.009.018.02.024.03.006.012.01.025.01.038.001.013 0 .026-.005.038-.004.013-.01.023-.02.034-.008.01-.017.017-.029.024-.014.002-.025.005-.039.006z" transform="translate(1.438 1.438)"/>
                                    <path fill="#41B6E6" d="M14.088 7.709c.035.022.059.061.059.105v.475c0 .066-.031.12-.118.194-.156.114-.157.27-.188.522-.05.397-.088 1.264-1.406 1.392-1.24.12-1.768-.545-1.96-1.04-.19-.488-.185-.728-.515-.729-.33.001-.325.24-.514.729-.192.495-.719 1.16-1.96 1.04-1.318-.128-1.358-.995-1.406-1.392-.031-.251-.034-.408-.189-.522-.086-.074-.117-.128-.117-.194v-.475c0-.044.023-.082.058-.105.165-.096.738-.233 1.61-.2 1.014.037 1.673.33 1.906.41.195.068.496.076.587.077h.025c.029 0 .389 0 .612-.077.232-.08.89-.373 1.906-.41.871-.032 1.444.105 1.61.2zm-1.92.134c-1.747.124-1.575.48-1.515 1.149.058.654.614 1.255 1.554 1.255.756-.001 1.365-.425 1.372-1.287.007-1.102-.658-1.172-1.411-1.117zM6.34 8.96c.007.863.616 1.286 1.371 1.286.94 0 1.497-.601 1.554-1.255.06-.67.233-1.023-1.515-1.15-.753-.053-1.418.016-1.41 1.12z" transform="translate(1.438 1.438)"/>
                                </g>
                            </g>
                        </g>
                        <rect width="116" height="9" x="430" y="301" fill="#518DE2" fill-rule="nonzero" opacity=".5" rx="4.5"/>
                        <rect width="66" height="9" x="420" y="269" fill="#EAEAEA" fill-rule="nonzero" rx="4.5"/>
                        <rect width="116" height="9" x="430" y="237" fill="#518DE2" fill-rule="nonzero" opacity=".5" rx="4.5"/>
                        <rect width="126" height="9" x="420" y="205" fill="#518DE2" fill-rule="nonzero" opacity=".5" rx="4.5"/>
                        <rect width="116" height="9" x="210" y="173" fill="#EAEAEA" fill-rule="nonzero" rx="4.5"/>
                        <rect width="66" height="9" x="270" y="141" fill="#518DE2" fill-rule="nonzero" opacity=".5" rx="4.5"/>
                        <rect width="116" height="9" x="210" y="109" fill="#EAEAEA" fill-rule="nonzero" rx="4.5"/>
                        <rect width="126" height="9" x="210" y="77" fill="#EAEAEA" fill-rule="nonzero" rx="4.5"/>
                        <rect width="86" height="9" x="210" y="45" fill="#EAEAEA" fill-rule="nonzero" rx="4.5"/>
                        <rect width="96" height="14" x="214" y="9" fill="#E64949" fill-rule="nonzero" rx="7"/>
                        <g>
                            <g transform="translate(210)">
                                <use fill="#000" filter="url(#e657ktu5fh)" xlink:href="#ksqm7xmahi"/>
                                <use fill="#FFF" xlink:href="#ksqm7xmahi"/>
                            </g>
                            <g>
                                <path fill="url(#zmbaswdk0j)" d="M12.219 0c2.778 0 5.031 2.253 5.031 5.031 0 2.779-2.253 5.032-5.031 5.032H7.337c-1.27 1.543-4.57 1.53-4.46 1.36.11-.168.95-.572 1.098-1.47C1.702 9.464 0 7.446 0 5.03 0 2.253 2.253 0 5.031 0h7.188z" transform="translate(210) translate(2.875 5.75)"/>
                                <g transform="translate(210) translate(2.875 5.75)">
                                    <use fill="#000" filter="url(#26gtko887k)" xlink:href="#etcfbs1m4l"/>
                                    <use fill="#20D0F0" xlink:href="#etcfbs1m4l"/>
                                </g>
                                <g transform="translate(210) translate(2.875 5.75)">
                                    <use fill="#000" filter="url(#j4ezureu3m)" xlink:href="#81rsxq7dyn"/>
                                    <use fill="#20D0F0" xlink:href="#81rsxq7dyn"/>
                                </g>
                            </g>
                        </g>
                        <rect width="116" height="9" x="210" y="301" fill="#EAEAEA" fill-rule="nonzero" rx="4.5"/>
                        <rect width="66" height="9" x="270" y="269" fill="#518DE2" fill-rule="nonzero" opacity=".5" rx="4.5"/>
                        <rect width="116" height="9" x="220" y="237" fill="#518DE2" fill-rule="nonzero" opacity=".5" rx="4.5"/>
                        <rect width="126" height="9" x="210" y="205" fill="#518DE2" fill-rule="nonzero" opacity=".5" rx="4.5"/>
                        <rect width="116" height="9" y="173" fill="#EAEAEA" fill-rule="nonzero" rx="4.5"/>
                        <rect width="66" height="9" x="60" y="141" fill="#518DE2" fill-rule="nonzero" opacity=".5" rx="4.5"/>
                        <rect width="116" height="9" y="109" fill="#EAEAEA" fill-rule="nonzero" rx="4.5"/>
                        <rect width="126" height="9" y="77" fill="#EAEAEA" fill-rule="nonzero" rx="4.5"/>
                        <rect width="116" height="9" y="301" fill="#EAEAEA" fill-rule="nonzero" rx="4.5"/>
                        <rect width="66" height="9" x="60" y="269" fill="#518DE2" fill-rule="nonzero" opacity=".5" rx="4.5"/>
                        <rect width="116" height="9" y="237" fill="#EAEAEA" fill-rule="nonzero" rx="4.5"/>
                        <rect width="126" height="9" y="205" fill="#EAEAEA" fill-rule="nonzero" rx="4.5"/>
                        <rect width="86" height="9" x="40" y="45" fill="#518DE2" fill-rule="nonzero" opacity=".5" rx="4.5"/>
                        <rect width="96" height="14" x="4" y="9" fill="#17BD85" fill-rule="nonzero" rx="7"/>
                        <g>
                            <g>
                                <use fill="#000" filter="url(#czq92iwjoo)" xlink:href="#3oh1c7zcdp"/>
                                <use fill="#FFF" xlink:href="#3oh1c7zcdp"/>
                            </g>
                            <g>
                                <path fill="url(#zmbaswdk0j)" d="M12.219 0c2.778 0 5.031 2.253 5.031 5.031 0 2.779-2.253 5.032-5.031 5.032H7.337c-1.27 1.543-4.57 1.53-4.46 1.36.11-.168.95-.572 1.098-1.47C1.702 9.464 0 7.446 0 5.03 0 2.253 2.253 0 5.031 0h7.188z" transform="translate(2.875 5.75)"/>
                                <g transform="translate(2.875 5.75)">
                                    <use fill="#000" filter="url(#822dhvyzmq)" xlink:href="#b33yh4x8dr"/>
                                    <use fill="#20D0F0" xlink:href="#b33yh4x8dr"/>
                                </g>
                                <g transform="translate(2.875 5.75)">
                                    <use fill="#000" filter="url(#d3ympopr0s)" xlink:href="#5mpncv5b9t"/>
                                    <use fill="#20D0F0" xlink:href="#5mpncv5b9t"/>
                                </g>
                            </g>
                        </g>
                        <path stroke="#979797" stroke-linecap="square" d="M0 317.5L546 317.5M0 285.5L546 285.5M0 253.5L546 253.5M0 221.5L546 221.5" opacity=".5"/>
                    </g>
                    <g>
                        <g>
                            <g transform="translate(88 302) translate(60.805)">
                                <use fill="#000" filter="url(#jh73yk8kvu)" xlink:href="#fo8p4n2jcv"/>
                                <use fill="#FFF" xlink:href="#fo8p4n2jcv"/>
                            </g>
                            <path fill="#17BD86" d="M34.991 7.96H42.951V16.318H34.991z" opacity=".5" transform="translate(88 302) translate(60.805)"/>
                            <path fill="#E64949" d="M43.781 7.96H87.231V16.318H43.781zM103.085 7.96H144.756V16.318H103.085zM8.358 17.91H34.24V26.268H8.358zM43.995 17.967H71.071V26.325H43.995zM125.703 17.967H163.563V26.677999999999997H125.703zM8.358 27.861H48.102000000000004V36.219H8.358z" opacity=".5" transform="translate(88 302) translate(60.805)"/>
                            <path fill="#FDCD2D" d="M78.01 27.861H112.85400000000001V36.219H78.01zM127.363 27.861H158.941V36.219H127.363zM44.539 37.811H84.283V46.169H44.539zM107.192 37.811H126.24799999999999V46.169H107.192z" opacity=".5" transform="translate(88 302) translate(60.805)"/>
                            <text fill="#262626" font-family="Manrope-ExtraLight_Regular, Manrope" font-size="6.368" transform="translate(88 302) translate(60.805)">
                                <tspan x="8.711" y="13.383">I’d like to fly business class from San Francisco to </tspan> <tspan x="8.711" y="23.333">Adelaide on 17 of May, can you show me direct flights </tspan> <tspan x="8.711" y="33.284">under $5,000 that start before 7PM with good meal </tspan> <tspan x="8.711" y="43.234">options and free baggage of upto 40kgs</tspan>
                            </text>
                        </g>
                        <g>
                            <g transform="translate(88 302) translate(0 60.978)">
                                <use fill="#000" filter="url(#0ppxddmqgw)" xlink:href="#gne160e15x"/>
                                <use fill="#FFF" xlink:href="#gne160e15x"/>
                            </g>
                            <g>
                                <g transform="translate(88 302) translate(0 60.978) translate(0 17.512)">
                                    <use fill="#000" filter="url(#x3oqfwd46y)" xlink:href="#v21sc3wzpz"/>
                                    <use fill="#FFF" xlink:href="#v21sc3wzpz"/>
                                </g>
                                <g>
                                    <path fill="url(#omm7410dgA)" d="M9.154 0c1.539 0 2.786 1.247 2.786 2.786V4.18c0 1.539-1.247 2.786-2.786 2.786l-4.076.002c-.879 1.067-3.162 1.058-3.086.94.072-.112.61-.373.744-.942h.05C1.247 6.965 0 5.718 0 4.18V2.786C0 1.247 1.247 0 2.786 0h6.368z" transform="translate(88 302) translate(0 60.978) translate(0 17.512) translate(1.99 3.98)"/>
                                    <g transform="translate(88 302) translate(0 60.978) translate(0 17.512) translate(1.99 3.98)">
                                        <use fill="#000" filter="url(#j00w1servB)" xlink:href="#xo7xw5ad6C"/>
                                        <use fill="#20D0F0" xlink:href="#xo7xw5ad6C"/>
                                    </g>
                                    <g transform="translate(88 302) translate(0 60.978) translate(0 17.512) translate(1.99 3.98)">
                                        <use fill="#000" filter="url(#eurcvi930D)" xlink:href="#qg47kynn5E"/>
                                        <use fill="#20D0F0" xlink:href="#qg47kynn5E"/>
                                    </g>
                                </g>
                            </g>
                            <g transform="translate(88 302) translate(0 60.978)">
                                <use fill="#000" filter="url(#3051tlx5wF)" xlink:href="#tzlldmq84G"/>
                                <use fill="#FFF" xlink:href="#tzlldmq84G"/>
                            </g>
                            <g fill="#17BD86" transform="translate(88 302) translate(0 60.978) translate(20.299 47.761)">
                                <circle cx="14.7" cy="1.633" r="1.633" opacity=".2"/>
                                <circle cx="8.167" cy="1.633" r="1.633" opacity=".7"/>
                                <circle cx="1.633" cy="1.633" r="1.633"/>
                            </g>
                            <text fill="#262626" font-family="Manrope-ExtraLight_Regular, Manrope" font-size="6.368" transform="translate(88 302) translate(0 60.978)">
                                <tspan x="18.263" y="13.781">Sure, I can help you with that, let me pull </tspan> <tspan x="18.263" y="23.333">up the information</tspan>
                            </text>
                        </g>
                    </g>
                </g>
            </g>
        </g>
    </g>
</svg>
