<svg xmlns="http://www.w3.org/2000/svg" width="53" height="72" viewBox="0 0 53 72">
    <g fill="none" fill-rule="evenodd">
        <g fill="#E64949" fill-rule="nonzero">
            <g>
                <g>
                    <path d="M174.416 99.644l-.002 25.911h-17.327c3.085-1.075 6.328-1.625 9.595-1.626h2.854c.432.001.846-.17 1.152-.475.306-.306.477-.72.476-1.152V99.844l3.252-.2zm-45.533 1.515v21.142c0 .431.17.845.476 1.15.305.305.719.477 1.15.476h2.855c3.267.002 6.51.551 9.595 1.626h-17.332l.004-24.394h3.252zm39.026-3.251v22.768h-1.228c-5.237.001-10.395 1.271-15.034 3.7V106.04h1.626c1.294 0 2.535-.513 3.45-1.428.916-.916 1.43-2.157 1.429-3.451V98.47c1.858-.37 3.748-.557 5.643-.561l4.114-.001zm-31.664-.001c1.895.004 3.785.191 5.643.561v2.691c-.001 1.294.512 2.535 1.427 3.45.914.916 2.155 1.43 3.449 1.431h1.63v18.331c-4.64-2.429-9.797-3.698-15.034-3.7h-1.228l-.001-22.764h4.114zm18.654 1.628v1.626c0 .431-.17.845-.476 1.15-.305.305-.719.477-1.15.476h-6.509c-.898 0-1.626-.728-1.626-1.626l.004-1.626h9.757zm-.001-4.88v1.627h-9.756l-.001-1.627h9.757zm-4.856-8.35l3.318 5.1h-6.665l3.347-5.1zm-.022-22.549c7.185 0 13.01 5.825 13.01 13.01.006 5.32-2.275 10.386-6.261 13.908l-4.781-7.338 2.622-4c1.777-2.343 1.482-5.653-.681-7.645-2.163-1.992-5.486-2.014-7.675-.05-2.19 1.962-2.528 5.267-.783 7.634l2.634 4.049-5.131 7.818c-3.799-3.527-5.96-8.476-5.964-13.66v-.716c0-7.185 5.825-13.01 13.01-13.01zm-22.768 14.638v3.252H124v-3.252h3.252zm48.787 0v3.252h-3.252v-3.252h3.252zm-26.014-4.883c.873-.002 1.678.471 2.1 1.236.508.86.439 1.944-.175 2.732l-1.89 2.882-1.941-2.964c-.605-.787-.666-1.864-.155-2.715.427-.732 1.214-1.178 2.061-1.171zM132.773 60.47l2.3 2.3-2.3 2.3-2.3-2.3 2.3-2.3zm34.496 0l2.3 2.3-2.3 2.3-2.3-2.3 2.3-2.3zM151.646 54v3.252h-3.252V54h3.252z" transform="translate(-856 -1810) translate(84 1756) translate(648)"/>
                </g>
            </g>
        </g>
    </g>
</svg>
