<svg xmlns="http://www.w3.org/2000/svg" width="63" height="66" viewBox="0 0 63 66">
    <g fill="none" fill-rule="evenodd">
        <g fill="#213E64" fill-rule="nonzero">
            <g>
                <g>
                    <g>
                        <path d="M52.216 12.636h9.232L49.394.582v9.232c0 .749.296 1.467.826 1.996.53.53 1.247.827 1.996.826z" transform="translate(-527 -1594) translate(408 1537) translate(60) translate(59 57)"/>
                        <path d="M52.216 14.613c-2.651 0-4.8-2.149-4.8-4.8V0h-27.8c-1.048 0-2.053.416-2.794 1.157-.741.74-1.157 1.746-1.157 2.794v13.526c6.79-2.952 14.719-.926 19.26 4.923 4.542 5.848 4.542 14.03 0 19.88-4.541 5.848-12.47 7.874-19.26 4.922v14.01c.003 2.18 1.77 3.948 3.951 3.951h38.466c2.18-.007 3.944-1.772 3.951-3.951v-46.6l-9.817.001zm-.919 11.55c-.004.27-.222.49-.493.493h-9.9c-.27-.004-.49-.222-.493-.493 0-.131.05-.257.144-.35.092-.092.218-.144.349-.143h9.9c.27.004.49.222.493.493zm-6.7 6.911h-2.3c-.27-.004-.49-.222-.493-.493 0-.131.05-.257.144-.35.092-.092.218-.144.349-.143h2.3c.273 0 .493.22.493.493s-.22.494-.493.494v-.001zm5.708 5.432c.27.004.49.222.493.493-.004.27-.222.49-.493.493h-9.65c-.27-.004-.49-.222-.493-.493 0-.131.05-.257.144-.35.092-.092.218-.144.349-.143h9.65zm-.286-19.254c.27.004.49.222.493.493-.004.27-.222.49-.493.493h-6.038c-.271-.003-.49-.222-.494-.493 0-.131.051-.257.144-.35.093-.093.219-.144.35-.143h6.038zm-6.814-5.428h-1.83c-.27-.004-.49-.222-.493-.493 0-.131.05-.257.144-.35.092-.092.218-.144.349-.143h1.83c.27.004.49.222.493.493-.004.27-.222.49-.493.493zm-6.39-7.406h6.39c.27.004.49.222.493.493-.004.27-.222.49-.493.493h-6.39c-.27-.004-.49-.222-.493-.493-.002-.131.05-.258.142-.35.093-.094.22-.145.351-.143zm-9.124 0h6.043c.27.004.49.222.493.493-.004.27-.222.49-.493.493h-6.043c-.27-.004-.49-.222-.493-.493-.001-.131.05-.257.143-.35.093-.093.219-.144.35-.143zm-5.113 0h2.034c.27.004.49.222.493.493-.004.27-.222.49-.493.493h-2.035c-.27-.004-.49-.222-.493-.493-.001-.131.05-.257.143-.35.093-.093.219-.144.35-.143h.001zm6.594 7.405h-6.6c-.27-.004-.49-.222-.493-.493 0-.131.05-.257.144-.35.092-.092.218-.144.349-.143h6.6c.27.004.49.222.493.493-.003.271-.223.49-.494.494l.001-.001zm3.082 0c-.27-.004-.49-.222-.493-.493 0-.131.05-.257.144-.35.092-.092.218-.144.349-.143h6.043c.27.004.49.222.493.493-.004.27-.222.49-.493.493h-6.043zm3.447 6.415c-.27-.004-.49-.222-.493-.493 0-.131.05-.257.144-.35.092-.092.218-.144.349-.143h5.2c.27.004.49.222.493.493-.004.27-.222.49-.493.493h-5.2zm0 24.685h3.583c.27.004.49.222.493.493-.004.27-.222.49-.493.493H35.7c-.27-.004-.49-.222-.493-.493-.002-.131.05-.257.143-.35.092-.093.219-.144.35-.142l.001-.001zm-2.163 6.415h7.287c.271.003.49.222.494.493-.004.271-.223.49-.494.493h-7.289c-.27-.004-.49-.222-.493-.493 0-.13.051-.256.144-.349.092-.092.218-.144.349-.143l.002-.001zm-10.96 0h7.877c.27.004.49.222.493.493-.004.27-.222.49-.493.493h-7.878c-.27-.004-.49-.222-.493-.493 0-.13.051-.256.144-.349.092-.092.218-.144.349-.143l.001-.001zm1.48 7.405h-1.48c-.27-.004-.49-.222-.493-.493-.001-.131.05-.257.143-.35.093-.093.219-.145.35-.144h1.48c.271.004.49.223.493.494-.003.272-.222.492-.494.495l.001-.002zm12.322 0h-9.244c-.27-.004-.49-.222-.493-.493-.001-.131.05-.257.143-.35.093-.093.219-.145.35-.144h9.243c.271.004.49.223.493.494-.003.271-.222.491-.493.495l.001-.002zm13.8 0H39.458c-.27-.004-.49-.222-.493-.493-.001-.131.05-.257.143-.35.093-.093.219-.145.35-.144h10.723c.271.004.49.223.493.494-.003.271-.222.491-.493.495l-.001-.002zm1.008-6.418h-7.283c-.27-.004-.49-.222-.493-.493-.001-.131.05-.257.143-.35.093-.093.219-.145.35-.144h7.287c.271.004.49.223.493.494-.003.273-.223.493-.496.495l-.001-.002zm3.93 6.418h-1.855c-.271-.003-.49-.222-.494-.493-.001-.131.05-.258.144-.35.092-.093.219-.145.35-.144h1.856c.271.004.49.223.493.494-.003.271-.222.491-.493.495l-.001-.002zm0-6.418h-.848c-.27-.004-.49-.222-.493-.493-.001-.131.05-.257.143-.35.093-.093.219-.145.35-.144h.848c.271.004.49.223.493.494-.003.271-.22.49-.492.495l-.001-.002zm0-6.415H42.362c-.27-.004-.49-.222-.493-.493 0-.131.05-.257.144-.35.092-.092.218-.144.349-.143h12.757c.27.004.49.222.493.493-.003.271-.222.49-.493.494l-.001-.001zm0-6.418h-1.726c-.27-.004-.49-.222-.493-.493 0-.131.05-.257.144-.35.092-.092.218-.144.349-.143h1.727c.27.004.49.222.493.493-.003.271-.222.49-.493.494l-.001-.001zm0-6.418h-7.444c-.271-.003-.49-.222-.494-.493 0-.131.051-.257.144-.35.093-.093.219-.144.35-.143h7.444c.27.004.49.222.493.493-.003.27-.221.49-.492.494l-.001-.001zm0-6.418h-1.233c-.27-.004-.49-.222-.493-.493 0-.131.05-.257.144-.35.092-.092.218-.144.349-.143h1.234c.27.004.49.222.493.493-.003.271-.222.49-.493.494l-.001-.001zm0-6.418h-2.013c-.271-.003-.49-.222-.494-.493 0-.131.051-.257.144-.35.093-.093.219-.144.35-.143h2.013c.27.004.49.222.493.493-.003.27-.221.49-.492.494l-.001-.001z" transform="translate(-527 -1594) translate(408 1537) translate(60) translate(59 57)"/>
                        <path d="M32.204 22.273c-4.071-4.071-10.194-5.29-15.513-3.086-5.32 2.203-8.788 7.394-8.788 13.152 0 5.757 3.468 10.948 8.788 13.151 5.32 2.203 11.442.985 15.513-3.086 2.67-2.67 4.17-6.29 4.17-10.066 0-3.775-1.5-7.396-4.17-10.065zM29.39 39.59c-2.933 2.934-7.344 3.812-11.176 2.225-3.833-1.587-6.332-5.327-6.332-9.475s2.5-7.888 6.332-9.475c3.832-1.587 8.243-.709 11.176 2.225 1.924 1.922 3.005 4.53 3.005 7.25 0 2.72-1.081 5.328-3.005 7.25zM8.035 40.332l-6.772 6.765c-1.635 1.7-1.61 4.395.058 6.063 1.668 1.667 4.364 1.693 6.063.058l6.783-6.772c-1.28-.717-2.453-1.608-3.486-2.649-1.035-1.03-1.925-2.195-2.646-3.465z" transform="translate(-527 -1594) translate(408 1537) translate(60) translate(59 57)"/>
                        <path d="M22.141 33.461c.3.004.588-.114.8-.326.212-.212.33-.5.326-.8 0-.622-.504-1.126-1.126-1.126-.622 0-1.126.504-1.126 1.126.001.621.505 1.125 1.126 1.126z" transform="translate(-527 -1594) translate(408 1537) translate(60) translate(59 57)"/>
                        <path d="M28.946 32.037c-.129-.158-3.061-3.9-6.8-3.9s-6.683 3.741-6.8 3.9c-.14.18-.14.432 0 .612.118.157 3.061 3.89 6.8 3.89s6.675-3.733 6.8-3.89c.14-.18.14-.432 0-.612zm-6.8 2.41c-1.167 0-2.113-.946-2.113-2.113s.946-2.113 2.113-2.113 2.113.946 2.113 2.113c0 .561-.223 1.1-.62 1.497s-.936.62-1.497.619l.004-.003z" transform="translate(-527 -1594) translate(408 1537) translate(60) translate(59 57)"/>
                    </g>
                </g>
            </g>
        </g>
    </g>
</svg>
