<svg xmlns="http://www.w3.org/2000/svg" width="53" height="62" viewBox="0 0 53 62">
    <g fill="none" fill-rule="evenodd">
        <g fill="#518DE2" fill-rule="nonzero">
            <g>
                <g>
                    <path d="M168.562 99.862c1.336 0 2.42 1.084 2.42 2.42v3.141c-.005 4.06-3.295 7.351-7.356 7.356h-4.706l3.495 3.495c.915.95.9 2.456-.032 3.388-.932.932-2.44.945-3.388.03l-7.62-7.622c-.943-.944-.943-2.474 0-3.418l7.62-7.62c.946-.929 2.464-.921 3.402.016.937.938.945 2.456.016 3.402l-3.495 3.495h4.706c1.393-.002 2.521-1.13 2.523-2.523v-3.142c0-.64.254-1.256.707-1.71.452-.453 1.067-.708 1.708-.708zm-32.212 1.293c3.069.004 5.556 2.491 5.559 5.56v6.79c-.004 3.069-2.491 5.555-5.56 5.557h-6.79c-3.069-.002-5.556-2.488-5.56-5.557v-6.79c.003-3.07 2.49-5.557 5.56-5.56zm-.001-21.078c3.07.004 5.557 2.492 5.56 5.562v6.79c-.003 3.07-2.49 5.558-5.56 5.562h-6.79c-3.07-.004-5.557-2.492-5.56-5.562v-6.79c.003-3.07 2.49-5.558 5.56-5.562zm32.75-.947c.614.008 1.799.105 1.799 1.217v.933c0 .159.02.36.12.408.29.13.559.302.8.508l.223.165c.151.11.351.123.516.036l.794-.463c.253-.148.542-.225.835-.223.596 0 1.146.319 1.444.835l.736 1.259c.462.796.19 1.816-.606 2.278l-.8.468c-.16.094-.246.275-.221.458.025.22.039.44.041.662 0 .225-.019.449-.041.674-.03.185.056.368.216.465l.8.468c.379.22.658.579.779 1 .11.415.071.855-.109 1.245l-.736 1.3c-.302.511-.85.827-1.444.832-.295.003-.585-.075-.839-.225l-.775-.465c-.15-.08-.332-.066-.468.036-.34.267-.71.495-1.1.681-.134.053-.146.315-.146.425v.911c-.111 1.026-.932 1.83-1.96 1.919h-1.456c-.942-.13-1.62-.97-1.549-1.919v-.916c-.028-.19-.156-.352-.336-.422-.434-.182-.848-.41-1.233-.681-.152-.11-.352-.123-.518-.036l-.794.465c-.253.148-.542.224-.835.221-.595 0-1.146-.317-1.444-.832l-.722-1.264c-.458-.796-.186-1.813.609-2.274l.806-.451c.155-.096.239-.275.213-.456-.024-.25-.041-.47-.041-.684 0-.214.019-.427.036-.643.038-.193-.046-.39-.213-.494l-.8-.468c-.384-.214-.665-.575-.779-1-.108-.43-.05-.884.165-1.271l.746-1.262c.298-.516.848-.833 1.444-.832.294-.004.584.072.839.22l.794.465c.164.083.36.069.511-.036.372-.268.772-.496 1.192-.681.186-.064.32-.23.343-.425v-.914c0-1.107.896-1.208 1.408-1.217zm-32.75 5.779h-6.79c-.4.002-.724.327-.724.727v6.79c0 .4.323.726.724.727h6.791c.4-.002.724-.327.724-.727l-.001-6.79c0-.4-.323-.726-.724-.727zm31.877.169c-1.632 0-2.955 1.322-2.956 2.954 0 1.631 1.321 2.955 2.953 2.956 1.632-.002 2.954-1.323 2.957-2.955 0-1.632-1.323-2.955-2.954-2.955zM136.35 59c3.069.004 5.556 2.491 5.559 5.56v6.79c-.003 3.07-2.49 5.557-5.56 5.56h-6.79c-3.07-.003-5.557-2.49-5.56-5.56v-6.79c.003-3.07 2.49-5.557 5.56-5.56zm27.268 4.541c4.06.005 7.351 3.295 7.356 7.356v2.693c0 1.335-1.082 2.416-2.416 2.416-1.335 0-2.417-1.081-2.417-2.416v-2.693c-.001-1.392-1.127-2.52-2.519-2.524h-9.428c-.88.02-1.696-.436-2.139-1.191-.443-.756-.443-1.691 0-2.447.443-.755 1.26-1.212 2.135-1.194zm-27.269.291h-6.79c-.4.002-.724.327-.724.727v6.79c0 .4.323.726.724.727h6.791c.4-.002.724-.327.724-.727l-.001-6.79c0-.4-.323-.726-.724-.727z" transform="translate(-1181 -7200) translate(85 7141) translate(972)"/>
                </g>
            </g>
        </g>
    </g>
</svg>
