<svg xmlns="http://www.w3.org/2000/svg" width="68" height="56" viewBox="0 0 68 56">
    <g fill="none" fill-rule="evenodd">
        <g fill="#17BD85" fill-rule="nonzero">
            <g>
                <g>
                    <path d="M35.824 42.426c.039.81-.372 1.576-1.067 1.992-.696.417-1.565.417-2.26 0-.696-.416-1.107-1.182-1.068-1.992-.039-.81.372-1.576 1.067-1.992.696-.417 1.565-.417 2.26 0 .696.416 1.107 1.182 1.068 1.992" transform="translate(-200 -4185) translate(84 4131) translate(116 54)"/>
                    <path d="M0 34.625c-.01 7.39 2.421 14.576 6.917 20.441l.551.77h52.09l.551-.77c4.546-5.838 6.985-13.042 6.922-20.441.066-12.018-6.308-23.152-16.706-29.18-10.397-6.028-23.226-6.028-33.623 0C6.304 11.473-.07 22.607-.005 34.625H0zm10.223-6.484c.13-.482.447-.892.88-1.14.434-.247.948-.312 1.429-.18.96.26 1.542 1.231 1.32 2.2v.219c-.24.772-.949 1.304-1.758 1.32-.19.017-.381-.021-.551-.109-.495-.109-.92-.422-1.172-.862-.252-.44-.305-.965-.148-1.447v-.001zm1.1 10.66c-.961.033-1.78-.69-1.867-1.648v-.109c-.115-1.028.622-1.956 1.65-2.078 1.028-.12 1.96.61 2.088 1.637v.107c.088 1.022-.633 1.937-1.648 2.09h-.229l.006.001zm3.3 7.8c-.278.124-.575.198-.879.219-.693.014-1.334-.37-1.648-.988l-.109-.109c-.485-.911-.14-2.044.771-2.529.911-.485 2.044-.14 2.529.771v.109c.252.423.323.929.197 1.404-.126.476-.439.88-.867 1.123h.006zm2.637-24.4c-.354.51-.92.834-1.539.879-.392.01-.777-.105-1.1-.328-.808-.644-.954-1.815-.328-2.637l.109-.109c.644-.808 1.815-.954 2.637-.328.68.674.773 1.742.219 2.523h.002zm5.605-5.164l-.109.109c-.29.206-.633.32-.988.328-.634.007-1.223-.33-1.539-.879-.506-.857-.266-1.959.551-2.527.882-.566 2.055-.32 2.637.551.264.389.355.87.25 1.329-.104.459-.394.853-.801 1.089h-.001zm6.375-6.375c.499-.113 1.022-.01 1.44.283.42.293.695.749.76 1.256.11.47.019.963-.253 1.36-.273.399-.7.663-1.177.73h-.443c-.967.034-1.792-.694-1.88-1.658-.089-.963.59-1.828 1.548-1.971h.005zM55.059 45.94l-.109.109c-.314.618-.955 1.002-1.648.988-.304-.021-.601-.095-.879-.219-.88-.51-1.216-1.613-.77-2.527l.109-.109c.51-.88 1.613-1.216 2.527-.77.461.208.81.605.957 1.09.148.483.08 1.007-.187 1.437v.001zm2.746-8.57c-.086.958-.906 1.681-1.867 1.648h-.221c-.997-.098-1.73-.978-1.648-1.977v-.109c.07-.675.496-1.26 1.118-1.531.621-.272 1.34-.187 1.883.22.542.409.822 1.077.733 1.749h.002zm-2.969-10.328c.995-.224 1.997.348 2.309 1.32v.109c.224.995-.348 1.997-1.32 2.309-.109 0-.328.109-.441.109-.855.013-1.596-.59-1.758-1.43v-.109c-.18-.466-.151-.987.081-1.43.232-.442.644-.763 1.13-.879l-.001.001zm-10.77-12.418c.257-.414.67-.707 1.147-.81.476-.105.974-.01 1.38.259l.109.109c.41.26.7.674.803 1.148.104.475.013.972-.252 1.379-.335.53-.912.86-1.539.879-.355-.008-.699-.122-.988-.328h-.109c-.86-.59-1.102-1.752-.551-2.637v.001zm-8.019-2.414c.22-.998 1.2-1.635 2.2-1.43 1.018.205 1.696 1.173 1.539 2.2-.156.859-.887 1.494-1.759 1.53h-.437c-1.041-.239-1.717-1.246-1.543-2.3zm14.07 8.129c.124-.235.316-.427.551-.551.48-.34 1.096-.421 1.648-.219h.101c.219.109.328.109.441.328.03 0 .057.01.078.031.02.02.032.049.031.078 0 .03.01.057.031.078.02.02.049.032.078.031.06.06.136.098.219.109l.109.109.22.219c.441.796.202 1.798-.552 2.309h-.109L38.683 39.35c1.394 2.304 1.058 5.258-.817 7.19-1.875 1.933-4.818 2.357-7.163 1.032-2.344-1.325-3.5-4.064-2.812-6.668.687-2.603 3.044-4.415 5.737-4.41.758-.025 1.51.126 2.2.441l14.289-16.596z" transform="translate(-200 -4185) translate(84 4131) translate(116 54)"/>
                </g>
            </g>
        </g>
    </g>
</svg>
