<svg xmlns="http://www.w3.org/2000/svg" width="56" height="56" viewBox="0 0 56 56">
    <g fill="none" fill-rule="evenodd">
        <g fill="#E64949" fill-rule="nonzero">
            <g>
                <g>
                    <path d="M.42 38.394c1.634 1.424 3.438 2.64 5.372 3.619 5.894 3.045 13.62 4.721 21.754 4.721 8.134 0 15.86-1.676 21.754-4.721 1.932-.98 3.736-2.194 5.37-3.617.274.793.416 1.625.42 2.464 0 7.859-12.333 14.231-27.545 14.231C12.333 55.091 0 48.719 0 40.86c.004-.84.146-1.673.42-2.466zm54.25-13.312c.274.793.416 1.625.42 2.464 0 7.859-12.333 14.231-27.545 14.231C12.333 41.777 0 35.405 0 27.546c.004-.839.146-1.671.42-2.464 1.634 1.424 3.438 2.64 5.372 3.619 5.894 3.045 13.62 4.721 21.754 4.721 8.134 0 15.86-1.678 21.754-4.721 1.931-.98 3.735-2.196 5.37-3.619zM27.545 0C42.757 0 55.09 6.372 55.09 14.231c0 7.861-12.333 14.231-27.545 14.231C12.333 28.462 0 22.092 0 14.231S12.333 0 27.545 0z" transform="translate(-206 -5773) translate(84 5711) translate(122 62)"/>
                </g>
            </g>
        </g>
    </g>
</svg>
