<?xml version="1.0" encoding="UTF-8"?>
<svg xmlns="http://www.w3.org/2000/svg" width="66" height="42" viewBox="0 0 66 42">
  <g fill="none" fill-rule="evenodd">
    <g fill="#17BD85" fill-rule="nonzero">
      <g>
        <g>
          <path d="M9.519 4.76c0-1.925-1.16-3.66-2.938-4.398C4.8-.374 2.755.032 1.393 1.394.032 2.756-.375 4.803.361 6.582 1.098 8.36 2.834 9.52 4.76 9.52c2.62-.022 4.738-2.14 4.76-4.76m0 32.073c0-2.629-2.131-4.76-4.76-4.76s-4.76 2.131-4.76 4.76 2.131 4.76 4.76 4.76c2.62-.022 4.738-2.14 4.76-4.76M51.398 9.445v6.882h-4.98c-7.688 0-9.444-2.637-12.007-6.516-2.637-4.027-6.3-9.519-16.475-9.519H9.665c2.342 2.518 2.342 6.418 0 8.936h8.2c5.417 0 6.736 1.976 9.078 5.492 1.371 2.268 3.075 4.317 5.055 6.079-1.959 1.78-3.66 3.826-5.051 6.078-2.343 3.587-3.661 5.492-9.078 5.492h-8.2c2.342 2.518 2.342 6.418 0 8.936h8.2c10.251 0 13.838-5.492 16.475-9.519 2.637-3.953 4.319-6.516 11.936-6.516h5.048v6.882l14.499-11.353L51.398 9.445z" transform="translate(-201 -1825) translate(84 1756) translate(117 69)"></path>
        </g>
      </g>
    </g>
  </g>
</svg>
