<svg xmlns="http://www.w3.org/2000/svg" width="66" height="61" viewBox="0 0 66 61">
    <g fill="none" fill-rule="evenodd">
        <g fill="#17BD85" fill-rule="nonzero">
            <g>
                <g>
                    <g>
                        <path d="M45.632 40.441l4.1 4.1c-.218 3.761-3.332 6.7-7.1 6.7H18.238l-8.061 8.121c-.467.528-1.14.827-1.844.822-1.47-.002-2.66-1.193-2.663-2.663v-6.353c-3.29-.704-5.65-3.6-5.672-6.966V22.613c0-3.921 3.179-7.1 7.1-7.1h4.3v4.985h-4.3c-.572-.012-1.124.206-1.534.604-.41.398-.645.943-.651 1.515v21.514c.008 1.204.981 2.178 2.185 2.186h3.552v5.6l5.6-5.6h26.441c1.203-.008 2.177-.982 2.185-2.185v-3.689l.756-.002zM65.919 7.102v21.52c-.022 3.365-2.38 6.262-5.67 6.967v6.353c-.023.738-.314 1.442-.819 1.98-.548.426-1.219.667-1.913.686-.721-.006-1.41-.301-1.913-.819l-7.992-7.994H23.225c-3.921 0-7.1-3.179-7.1-7.1V7.107c0-3.921 3.179-7.1 7.1-7.1h35.519c1.898-.028 3.728.709 5.078 2.044s2.105 3.157 2.097 5.056v-.005zM42.83 26.029c.004-.291-.11-.572-.316-.778-.206-.206-.487-.32-.778-.316h-2.868c-.291-.004-.572.11-.778.316-.206.206-.32.487-.316.778v1.843c-.004.291.11.572.316.778.206.206.487.32.778.316h2.869c.291.004.572-.11.778-.316.206-.206.32-.487.316-.778l-.001-1.843zm5.669-12.638c.079-1.862-.672-3.663-2.049-4.918-1.592-1.304-3.616-1.962-5.67-1.844-1.924-.086-3.823.466-5.4 1.572-1.216.961-1.942 2.413-1.98 3.963-.015.192.05.381.18.523.129.143.31.226.503.23l3.21.069c.525.014.998-.32 1.161-.819.121-.385.331-.737.614-1.025.472-.412 1.082-.631 1.708-.614.717-.04 1.416.235 1.913.753.497.562.743 1.302.683 2.049.006.772-.207 1.53-.614 2.185-.398.636-.936 1.174-1.572 1.572-1.04.663-1.964 1.494-2.732 2.46-.447.691-.685 1.498-.683 2.321-.02.223.06.443.217.602.159.158.38.238.602.217h3.485c.408.013.762-.281.824-.685.023-.452.14-.895.342-1.3.3-.566.75-1.038 1.3-1.366 1.132-.59 2.114-1.43 2.869-2.46.717-1.022 1.1-2.242 1.094-3.49l-.005.005z" transform="translate(-849 -2229) translate(84 1756) translate(648 413) translate(117 60)"/>
                    </g>
                </g>
            </g>
        </g>
    </g>
</svg>
