<svg xmlns="http://www.w3.org/2000/svg" width="60" height="43" viewBox="0 0 60 43">
    <g fill="none" fill-rule="evenodd">
        <g fill-rule="nonzero">
            <g>
                <g>
                    <g>
                        <path fill="#518DE2" d="M54.729 1.335H25.464v-.28C25.45.478 24.986.014 24.409 0h-1.83c-.577.014-1.041.478-1.055 1.055v.28H4.784C2.142 1.335 0 3.477 0 6.119s2.142 4.784 4.784 4.784h16.743v.28c.014.577.478 1.041 1.055 1.055h1.827c.577-.014 1.041-.478 1.055-1.055V10.9h29.265c2.642 0 4.784-2.142 4.784-4.784s-2.142-4.784-4.784-4.784v.003zm0 6.683H25.464V4.149h29.265c.523-.001 1.024.206 1.394.576.37.37.577.871.576 1.394-.002.515-.213 1.008-.584 1.366-.37.357-.87.55-1.386.533z" transform="translate(-1176 -1825) translate(84 1756) translate(972) translate(120 69)"/>
                        <path fill="#E64949" d="M54.73 16.603H19.557v-.28c-.012-.58-.479-1.046-1.058-1.058h-1.83c-.577.014-1.041.478-1.055 1.055v.28H4.782c-2.642 0-4.784 2.142-4.784 4.784s2.142 4.784 4.784 4.784h10.834v.209c.014.577.478 1.041 1.055 1.055h1.828c.577-.014 1.041-.478 1.055-1.055v-.28H54.73c2.641-.003 4.781-2.143 4.784-4.784-.004-1.26-.512-2.468-1.41-3.353-.899-.885-2.113-1.374-3.374-1.36v.003zm0 6.683H19.557v-3.869H54.73c.523 0 1.024.207 1.394.576.369.37.576.871.575 1.394-.003.515-.213 1.007-.584 1.365-.37.357-.87.55-1.385.534z" transform="translate(-1176 -1825) translate(84 1756) translate(972) translate(120 69)"/>
                        <path fill="#17BD85" d="M54.73 31.795h-7.178v-.28c-.013-.577-.477-1.041-1.053-1.056h-1.83c-.577.014-1.041.478-1.055 1.055v.28H4.785c-2.642 0-4.784 2.142-4.784 4.784s2.142 4.784 4.784 4.784h38.761v.28c.013.577.476 1.042 1.053 1.057h1.83c.577-.014 1.041-.478 1.055-1.055v-.285h7.175c2.641-.003 4.781-2.143 4.784-4.784.015-1.26-.475-2.476-1.36-3.374-.885-.898-2.092-1.406-3.353-1.41v.004zm0 6.683h-7.178v-3.869h7.175c.523-.002 1.025.205 1.395.575.37.37.578.872.577 1.395 0 .516-.209 1.01-.58 1.368-.37.358-.872.55-1.387.532l-.002-.001z" transform="translate(-1176 -1825) translate(84 1756) translate(972) translate(120 69)"/>
                    </g>
                </g>
            </g>
        </g>
    </g>
</svg>
