<svg xmlns="http://www.w3.org/2000/svg" width="68" height="65" viewBox="0 0 68 65">
    <g fill="none" fill-rule="evenodd">
        <g fill="#213E64">
            <g>
                <g>
                    <g>
                        <path d="M39.049 64.118l-9.906-.153-.284-5.916 17.844-19.644c-1.548-4.421-.048-9.335 3.704-12.139 3.753-2.803 8.89-2.847 12.69-.11 3.801 2.739 5.386 7.626 3.914 12.073-1.47 4.448-5.657 7.426-10.341 7.357l-1.433 1.575-2.023 2.215-8.14.841v7.288l-6.377-.66.352 7.273zM6.57 59.607C1.654 57.954.001 56.057.001 54.975V44.803c1.692 1.088 3.52 1.95 5.437 2.561 6.264 1.902 12.786 2.817 19.332 2.712 2.344 0 4.625-.1 6.81-.291l-6.331 6.969.259 5.377h-.738c-6.16.108-12.301-.744-18.2-2.524zm0-15.606C1.654 42.348.001 40.451.001 39.369V29.197c1.692 1.088 3.52 1.95 5.437 2.561 6.264 1.901 12.786 2.815 19.332 2.709 6.09.077 12.162-.697 18.038-2.3-.233 1.227-.305 2.479-.216 3.724l.213 1.532-7.6 8.367c-3.456.5-6.943.746-10.435.736-6.16.107-12.301-.744-18.2-2.525zm54.909-10.374c.972-1.07.892-2.726-.178-3.698-1.07-.971-2.725-.892-3.698.177-.972 1.07-.893 2.725.176 3.698.513.469 1.192.713 1.887.68.694-.033 1.347-.342 1.813-.857zM6.57 28.395C1.654 26.742.001 24.845.001 23.763V13.602c1.692 1.084 3.519 1.942 5.434 2.55 6.265 1.902 12.788 2.816 19.335 2.71 6.544.106 13.064-.808 19.326-2.71 1.917-.607 3.745-1.464 5.437-2.55v8.98c-1.217.724-2.32 1.625-3.27 2.674-.73.802-1.367 1.684-1.9 2.628-.433.174-.9.344-1.4.511-5.897 1.78-12.034 2.632-18.193 2.526-6.16.107-12.301-.744-18.2-2.525v-.001zm0-15.606c-1.848-.556-3.59-1.417-5.153-2.547C.279 9.342.002 8.621.002 8.157c0-.145.026-.29.074-.426l.064-.138.177-.358.2-.262.223-.284.674-.617c1.081-.81 2.27-1.466 3.532-1.947h.007l1.614-.6C12.467 1.745 18.608.892 24.77 1c6.16-.107 12.298.745 18.195 2.525l1.564.578.071.028 1.337.6.064.032 1.102.613.074.043.589.411c.701.46 1.272 1.093 1.66 1.837l.025.057c.05.139.077.285.078.433 0 .465-.277 1.181-1.419 2.085-1.563 1.13-3.303 1.991-5.15 2.547-5.896 1.78-12.032 2.632-18.19 2.526-6.161.107-12.301-.745-18.2-2.526z" transform="translate(-686 -1182) translate(246 1124) translate(324) translate(116 58)"/>
                    </g>
                </g>
            </g>
        </g>
    </g>
</svg>
