<svg xmlns="http://www.w3.org/2000/svg" width="69" height="69" viewBox="0 0 69 69">
    <g fill="none" fill-rule="evenodd">
        <g fill="#213E64" fill-rule="nonzero">
            <g>
                <g>
                    <g>
                        <path d="M0 0v20.615h68.715V0H0zm27.486 13.743H6.871V6.871h20.615v6.872zm20.615 0H41.23V6.871h6.871v6.872zm13.761 0h-6.871V6.871h6.872l-.001 6.872zM0 44.674L24.06 44.674 24.06 37.784 6.872 37.784 6.872 30.931 24.06 30.931 24.06 24.059 0 24.059zM0 68.715L24.06 68.715 24.06 61.843 6.872 61.843 6.872 54.972 24.06 54.972 24.06 48.1 0 48.1zM65.285 39.506c0-5.525-2.948-10.63-7.732-13.393-4.785-2.763-10.68-2.763-15.466 0-4.784 2.762-7.732 7.868-7.732 13.393v5.149h-3.441v24.06h37.8V44.674h-3.442v-5.167l.013-.001zm-6.872 5.167H41.23v-5.149c0-4.746 3.848-8.594 8.594-8.594 4.746 0 8.594 3.848 8.594 8.594l-.005 5.149z" transform="translate(-848 -734) translate(84 678) translate(648) translate(116 56)"/>
                    </g>
                </g>
            </g>
        </g>
    </g>
</svg>
