<svg xmlns="http://www.w3.org/2000/svg" width="78" height="79" viewBox="0 0 78 79">
    <g fill="none" fill-rule="evenodd">
        <g fill-rule="nonzero">
            <g>
                <g>
                    <path fill="#70CADB" d="M6.606 41.838c-2.826.071-5.366-1.716-6.253-4.4-.033-.102-.065-.204-.094-.307-.98-3.46.937-7.08 4.351-8.213l54.94-18.406c.652-.189 1.327-.287 2.006-.293 2.894-.077 5.5 1.745 6.419 4.49l.082.266c1.028 3.592-1.526 6.8-4.585 7.827L8.836 41.458c-.719.245-1.472.373-2.232.38h.002z" transform="translate(-1167 -1278) translate(1116 1227) translate(51 51)"/>
                    <path fill="#E01765" d="M15.763 68.858c-2.817.091-5.362-1.668-6.273-4.335-.034-.1-.066-.202-.095-.305-1.004-3.483.912-7.138 4.348-8.293l54.94-18.575c.703-.235 1.439-.358 2.18-.365 2.871-.057 5.454 1.739 6.4 4.45l.084.279c.524 1.897.22 3.927-.838 5.587-.786 1.224-3.267 2.3-3.267 2.3L18.096 68.46c-.752.255-1.54.39-2.334.4l.001-.002z" transform="translate(-1167 -1278) translate(1116 1227) translate(51 51)"/>
                    <path fill="#E8A723" d="M61.498 68.976c-2.922.028-5.53-1.83-6.459-4.6L36.703 9.913l-.092-.306c-1.03-3.537.966-7.247 4.485-8.338 3.518-1.091 7.262.839 8.415 4.338l18.334 54.461.053.175c.628 2.039.255 4.255-1.005 5.976-1.261 1.72-3.262 2.744-5.395 2.76v-.003z" transform="translate(-1167 -1278) translate(1116 1227) translate(51 51)"/>
                    <path fill="#3EB890" d="M34.243 78.149c-2.923.028-5.532-1.829-6.462-4.6L9.45 19.085c-.574-1.697-.449-3.552.347-5.157s2.198-2.827 3.896-3.397c.677-.226 1.386-.345 2.1-.352 2.923-.029 5.531 1.829 6.46 4.6l18.332 54.465c.69 2.051.356 4.31-.9 6.073-1.255 1.763-3.28 2.817-5.445 2.834l.003-.002z" transform="translate(-1167 -1278) translate(1116 1227) translate(51 51)"/>
                    <path fill="#CC2027" d="M52.459 56.71L65.244 52.339 61.064 39.927 48.264 44.253z" transform="translate(-1167 -1278) translate(1116 1227) translate(51 51)"/>
                    <path fill="#361238" d="M25.246 66.01L38.03 61.639 33.819 49.132 21.019 53.459z" transform="translate(-1167 -1278) translate(1116 1227) translate(51 51)"/>
                    <path fill="#65863A" d="M43.358 29.675L56.144 25.309 52.014 13.042 39.204 17.334z" transform="translate(-1167 -1278) translate(1116 1227) translate(51 51)"/>
                    <path fill="#1A937D" d="M16.141 38.966L28.926 34.602 24.746 22.177 11.936 26.468z" transform="translate(-1167 -1278) translate(1116 1227) translate(51 51)"/>
                </g>
            </g>
        </g>
    </g>
</svg>
