<svg xmlns="http://www.w3.org/2000/svg" width="69" height="68" viewBox="0 0 69 68">
    <g fill="none" fill-rule="evenodd">
        <g fill="#E64949" fill-rule="nonzero">
            <g>
                <g>
                    <path d="M140.618 120.259c0 4.687-7.034 4.687-7.034 0s7.034-4.69 7.034 0zm26.002 0c0 4.687-7.034 4.687-7.034 0s7.034-4.69 7.034 0zm-35.063-.747c.025.254-.012.51-.107.747.01.469.082.935.214 1.385h-5.539c-.589 0-1.066-.477-1.066-1.066 0-.589.477-1.066 1.066-1.066zm42.523 0c.572.039 1.027.494 1.066 1.066-.001.588-.478 1.065-1.066 1.066h-5.542c.175-.44.248-.913.214-1.385 0-.214-.107-.533-.107-.747zm-16.519 0c-.081.24-.117.494-.107.747.01.469.082.935.214 1.385h-15.133c.175-.44.248-.913.214-1.385 0-.214-.107-.533-.107-.747zm-19.394-8.629v3.942c-.348-.089-.707-.125-1.066-.107-.359-.017-.718.02-1.066.108v-3.943h2.132zm26.002 0v3.942c-.348-.089-.707-.125-1.066-.107-.359-.022-.719.014-1.066.108v-3.943h2.132zm5.327-35.172c1.634.034 2.95 1.35 2.984 2.984v27.068c.002.792-.312 1.552-.872 2.112s-1.32.874-2.112.872h-12.79c-1.634-.034-2.95-1.35-2.984-2.984V78.695c.034-1.634 1.35-2.95 2.984-2.984zm-26.002 0c1.634.034 2.95 1.35 2.984 2.984v27.068c.002.792-.312 1.552-.872 2.112s-1.32.874-2.112.872h-12.79c-1.634-.034-2.95-1.35-2.984-2.984V78.695c-.002-.792.312-1.552.872-2.112s1.32-.874 2.112-.872zm19.609 22.059c-1.942 0-3.517 1.575-3.517 3.517s1.575 3.517 3.517 3.517c1.935-.017 3.5-1.582 3.517-3.517 0-1.942-1.575-3.517-3.517-3.517zm-26.002 0c-1.942 0-3.517 1.575-3.517 3.517s1.575 3.517 3.517 3.517c.936.01 1.836-.357 2.498-1.02.662-.66 1.029-1.561 1.019-2.497 0-1.942-1.575-3.517-3.517-3.517zm26.002 2.24c.765 0 1.385.62 1.385 1.385s-.62 1.385-1.385 1.385-1.385-.62-1.385-1.385.62-1.385 1.385-1.385zm-26.003 0c.765 0 1.385.62 1.385 1.385s-.62 1.385-1.385 1.385-1.385-.62-1.385-1.385.62-1.385 1.385-1.385zM153.298 56c4.362.054 8.355 2.458 10.444 6.287 5.373.447 9.5 4.947 9.484 10.338v.533c2.934-.003 5.743 1.189 7.781 3.3 2.064 2.148 3.212 5.014 3.2 7.993-.006 5.54-4.1 10.227-9.59 10.976V78.692c-.038-2.81-2.306-5.078-5.116-5.116h-12.79c-2.81.04-5.076 2.31-5.113 5.119v16.837h-2.984v-16.84c-.038-2.81-2.306-5.078-5.116-5.116h-12.79c-2.809.04-5.074 2.31-5.111 5.119v16.624c-2.31-.531-4.419-1.715-6.075-3.41-2.257-2.35-3.517-5.482-3.517-8.74-.02-3.303 1.33-6.466 3.728-8.737 2.213-2.28 5.242-3.583 8.419-3.624.865-4.978 5.18-8.617 10.232-8.632 1.39.027 2.763.318 4.045.858 1.904-4.296 6.17-7.057 10.869-7.034zm13.978 35.588h-8.223c-.589 0-1.066.477-1.066 1.066 0 .589.477 1.066 1.066 1.066h8.1c.57-.042 1.026-.495 1.066-1.066.017-.288-.09-.57-.293-.773-.204-.204-.485-.31-.773-.293zm-26.002 0h-8.223c-.38 0-.733.203-.923.533-.19.33-.19.736 0 1.066.19.33.542.533.923.533h8.1c.588-.001 1.065-.478 1.066-1.066.017-.288-.09-.57-.293-.773-.204-.204-.485-.31-.773-.293zm26.002-5.646h-8.223c-.589 0-1.066.477-1.066 1.066 0 .589.477 1.066 1.066 1.066h8.1c.588-.002 1.064-.478 1.066-1.066.017-.288-.09-.57-.293-.773-.204-.204-.485-.31-.773-.293zm-26.125 0h-8.1c-.589 0-1.066.477-1.066 1.066 0 .589.477 1.066 1.066 1.066h8.1c.589 0 1.066-.477 1.066-1.066 0-.589-.477-1.066-1.066-1.066zm26.124-5.542h-8.222c-.589 0-1.066.477-1.066 1.066 0 .589.477 1.066 1.066 1.066h8.1c.573-.038 1.03-.496 1.066-1.069.017-.287-.09-.568-.294-.77-.204-.204-.485-.31-.772-.293zm-26.002 0h-8.222c-.589 0-1.066.477-1.066 1.066 0 .589.477 1.066 1.066 1.066h8.1c.283 0 .555-.113.755-.313.2-.2.312-.473.311-.756.017-.287-.09-.568-.294-.77-.204-.204-.485-.31-.772-.293z" transform="translate(-848 -1298) translate(84 1242) translate(648)"/>
                </g>
            </g>
        </g>
    </g>
</svg>
