<svg xmlns="http://www.w3.org/2000/svg" width="67" height="71" viewBox="0 0 67 71">
    <g fill="none" fill-rule="evenodd">
        <g fill="#518DE2" fill-rule="nonzero">
            <g>
                <g>
                    <path d="M118.5 124.476c.393-.011.773.136 1.056.41.282.273.442.648.444 1.041v.1c0 .828-.672 1.5-1.5 1.5s-1.5-.672-1.5-1.5c-.004-.838.662-1.527 1.5-1.551zm64 0c.838.024 1.504.713 1.5 1.551 0 .828-.672 1.5-1.5 1.5-.828-.002-1.5-.674-1.5-1.502v-.1c.002-.393.163-.768.445-1.04.282-.273.663-.42 1.055-.409zm-32-.027c.828 0 1.5.672 1.5 1.5V126c0 .828-.672 1.5-1.5 1.5s-1.5-.672-1.5-1.5v-.051c0-.828.672-1.5 1.5-1.5zm-32-4.922c.393-.011.773.136 1.056.41.282.273.442.648.444 1.041v.1c0 .828-.672 1.5-1.5 1.5s-1.5-.672-1.5-1.5c-.004-.838.662-1.527 1.5-1.551zm64 0c.838.024 1.504.713 1.5 1.551 0 .828-.672 1.5-1.5 1.5-.828-.002-1.5-.674-1.5-1.502v-.1c.002-.393.163-.768.445-1.04.282-.273.663-.42 1.055-.409zm-58.627-.007l.053.002c.779.026 1.4.658 1.414 1.437v.1c.001.799-.624 1.458-1.422 1.5-.03.006-.064.006-.097.002-.828 0-1.5-.672-1.5-1.5-.003-.836.664-1.52 1.5-1.539.035-.002.07-.002.105 0zm53.314-.002c.836.022 1.501.707 1.5 1.543 0 .828-.672 1.5-1.5 1.5h-.1c-.798-.042-1.423-.701-1.422-1.5v-.1c.01-.78.633-1.415 1.414-1.438h.105zm-47.949.002c.782.023 1.411.647 1.436 1.427.002.033.002.067 0 .1 0 .806-.636 1.468-1.441 1.5-.033.002-.067.002-.1 0-.828 0-1.5-.672-1.5-1.5-.002-.834.667-1.514 1.5-1.527h.105zm42.624-.005c.836.01 1.507.695 1.5 1.531 0 .828-.672 1.5-1.5 1.5-.033.002-.067.002-.1 0-.804-.033-1.439-.695-1.438-1.5-.002-.033-.002-.067 0-.1.02-.782.652-1.41 1.434-1.426.035-.002.07-.002.105 0zm-21.362-.058c.828 0 1.5.672 1.5 1.5v.09c0 .828-.672 1.5-1.5 1.5s-1.5-.672-1.5-1.5v-.09c0-.828.672-1.5 1.5-1.5zm-15.995.058l.05.001c.788.016 1.427.637 1.461 1.42.002.033.002.067 0 .1 0 .813-.648 1.479-1.461 1.5-.033.002-.067.002-.1 0-.828 0-1.5-.672-1.5-1.5 0-.832.669-1.509 1.5-1.52.033-.002.067-.002.1 0zm32.046-.009c.834 0 1.51.676 1.51 1.51s-.676 1.51-1.51 1.51c-.033.002-.067.002-.1 0-.815-.018-1.464-.685-1.461-1.5v-.1c.036-.782.674-1.401 1.457-1.414.033-.002.067-.002.1 0zm-26.68.002c.788.009 1.434.623 1.48 1.407.002.035.002.07 0 .105 0 .82-.66 1.49-1.48 1.5h-.1c-.832 0-1.506-.674-1.506-1.506s.674-1.506 1.506-1.506h.1zm21.362-.001c.832 0 1.506.674 1.506 1.506s-.674 1.506-1.506 1.506h-.1c-.82-.01-1.48-.68-1.48-1.5-.002-.035-.002-.07 0-.105.046-.784.692-1.398 1.477-1.406h.1zm-16.045-.007c.828 0 1.5.672 1.5 1.5s-.672 1.5-1.5 1.5h-.1c-.828 0-1.5-.672-1.5-1.5s.672-1.5 1.5-1.5zm10.722 0c.828 0 1.5.672 1.5 1.5s-.672 1.5-1.5 1.5h-.1c-.828 0-1.5-.672-1.5-1.5s.672-1.5 1.5-1.5zm-5.41-5c.828 0 1.5.672 1.5 1.5v.051c0 .828-.672 1.5-1.5 1.5s-1.5-.672-1.5-1.5V116c0-.828.672-1.5 1.5-1.5zm0-57.5c7.426 0 14.548 2.95 19.799 8.201C175.55 70.452 178.5 77.574 178.5 85c0 15.464-12.536 28-28 28s-28-12.536-28-28 12.536-28 28-28zm4.531 6.5h-9c-.828 0-1.5.672-1.5 1.5s.672 1.5 1.5 1.5H149v2.574c-9.026.844-15.801 8.621-15.401 17.677.4 9.056 7.836 16.205 16.901 16.249 6.641.008 12.678-3.856 15.451-9.891 2.774-6.035 1.775-13.132-2.556-18.167l.758-.758.437.437c.589.568 1.524.56 2.103-.018.578-.579.586-1.514.018-2.103l-3-3c-.587-.586-1.538-.585-2.124.002-.585.588-.584 1.538.003 2.124l.437.437-.773.773c-2.635-2.158-5.86-3.47-9.254-3.762V66.5h3.031c.828 0 1.5-.672 1.5-1.5s-.672-1.5-1.5-1.5zm-14.079 12.96c.579-.578 1.514-.586 2.103-.018l5.145 5.144c.707-.38 1.497-.582 2.3-.586 2.761 0 5 2.239 5 5s-2.239 5-5 5-5-2.239-5-5c.005-.8.203-1.587.579-2.293l-5.145-5.144c-.568-.589-.56-1.524.018-2.103zM150.5 84c-1.105 0-2 .895-2 2s.895 2 2 2 2-.895 2-2-.895-2-2-2z" transform="translate(-525 -4188) translate(84 4131) translate(324)"/>
                </g>
            </g>
        </g>
    </g>
</svg>
