<svg xmlns="http://www.w3.org/2000/svg" width="97" height="91" viewBox="0 0 97 91">
    <g fill="none" fill-rule="evenodd">
        <g>
            <g>
                <g>
                    <g>
                        <path fill="#213E64" d="M46 0C24.14-.002 5.44 15.708 1.67 37.241c-3.769 21.533 8.483 42.66 29.044 50.085 20.562 7.424 43.484-1.004 54.341-19.978L74.147 49l9.951 5.96 6.133-1.726c2.464-13.151-1.059-26.717-9.61-37.008C72.072 5.935 59.382-.013 46 0z" transform="translate(-1002 -959) translate(312 914) translate(648) translate(42 45)"/>
                        <path fill="#FFF" d="M46 26.808c10.046 0 18.191 8.144 18.191 18.19 0 10.047-8.144 18.192-18.19 18.192-10.047 0-18.191-8.144-18.192-18.19 0-4.825 1.916-9.452 5.328-12.864 3.411-3.411 8.038-5.328 12.863-5.328z" transform="translate(-1002 -959) translate(312 914) translate(648) translate(42 45)"/>
                        <path fill="#FDCD2D" d="M57.488 5.746c3.7 0 6.7 3 6.7 6.7s-3 6.7-6.7 6.7-6.7-3-6.7-6.7 3-6.7 6.7-6.7zM40.254 3.828c3.7 0 6.7 3 6.7 6.7s-3 6.7-6.7 6.7-6.7-3-6.7-6.7 3-6.7 6.7-6.7zm-15.316 7.66c3.7 0 6.7 3 6.7 6.7s-3 6.7-6.7 6.7-6.7-3-6.7-6.7 3-6.7 6.7-6.7zM13.446 24.894c3.7 0 6.7 3 6.7 6.7s-3 6.7-6.7 6.7-6.7-3-6.7-6.7 3-6.7 6.7-6.7zM4.829 48.828c0-3.7 3-6.7 6.7-6.7s6.7 3 6.7 6.7-3 6.7-6.7 6.7c-1.777 0-3.481-.706-4.738-1.962-1.256-1.257-1.962-2.961-1.962-4.738zm14.363 23.938c-3.7 0-6.7-3-6.7-6.7s3-6.7 6.7-6.7 6.7 3 6.7 6.7-3 6.7-6.7 6.7zM32.6 84.254c-3.7 0-6.7-3-6.7-6.7s3-6.7 6.7-6.7 6.7 3 6.7 6.7-3 6.7-6.7 6.7zm17.23 1.918c-3.7 0-6.7-3-6.7-6.7s3-6.7 6.7-6.7 6.7 3 6.7 6.7-3 6.7-6.7 6.7zm22.021-12.449c0 3.7-3 6.7-6.7 6.7s-6.7-3-6.7-6.7 3-6.7 6.7-6.7 6.7 3 6.7 6.7z" transform="translate(-1002 -959) translate(312 914) translate(648) translate(42 45)"/>
                        <path fill="#E64848" d="M71.851 73.723c0 3.7-3 6.7-6.7 6.7s-6.7-3-6.7-6.7 3-6.7 6.7-6.7 6.7 3 6.7 6.7z" transform="translate(-1002 -959) translate(312 914) translate(648) translate(42 45)"/>
                        <path fill="#17BD86" fill-rule="nonzero" d="M71.851 48.047s10.458 32.257 22.041 17.837c11.583-14.42-22.041-17.837-22.041-17.837z" transform="translate(-1002 -959) translate(312 914) translate(648) translate(42 45)"/>
                    </g>
                </g>
            </g>
        </g>
    </g>
</svg>
