<svg xmlns="http://www.w3.org/2000/svg" width="95" height="77" viewBox="0 0 95 77">
    <g fill="none" fill-rule="evenodd">
        <g fill="#1DA1F2" fill-rule="nonzero">
            <g>
                <g>
                    <path d="M29.797 77c35.755 0 55.307-29.621 55.307-55.307 0-.841-.018-1.679-.055-2.513 3.806-2.752 7.09-6.161 9.7-10.066-3.547 1.573-7.31 2.604-11.163 3.06 4.059-2.43 7.096-6.25 8.548-10.752-3.817 2.265-7.993 3.86-12.347 4.72-6.025-6.408-15.6-7.977-23.354-3.827-7.755 4.15-11.76 12.987-9.771 21.554-15.632-.782-30.196-8.165-40.068-20.31-5.16 8.883-2.524 20.246 6.018 25.951-3.086-.095-6.103-.929-8.8-2.431v.248c.002 9.255 6.528 17.225 15.6 19.055-2.862.78-5.866.895-8.779.334 2.546 7.918 9.843 13.343 18.159 13.5-6.886 5.404-15.39 8.335-24.143 8.321-1.55.001-3.098-.088-4.637-.269 8.889 5.711 19.234 8.743 29.8 8.732" transform="translate(-511 -1279) translate(468 1227) translate(43 52)"/>
                </g>
            </g>
        </g>
    </g>
</svg>
