<svg xmlns="http://www.w3.org/2000/svg" width="64" height="65" viewBox="0 0 64 65">
    <g fill="none" fill-rule="evenodd">
        <g fill="#518DE2" fill-rule="nonzero">
            <g>
                <g>
                    <path d="M164.234 98.374v23.938h-12.22V98.374h12.22zm17.078-14.292v38.229h-12.22V84.082h12.22zm-34.085 4.001v34.228h-12.22V88.083h12.22zm-17.006 15.078v19.15h-12.22v-19.15h12.22zm44.874-45.16c3.292.029 5.943 2.708 5.937 6 .005 1.575-.62 3.088-1.734 4.201-1.114 1.114-2.627 1.737-4.202 1.732-.76.002-1.512-.144-2.216-.43l-9.5 10.791c.437.838.658 1.771.642 2.716 0 3.276-2.656 5.931-5.931 5.931-3.276 0-5.932-2.655-5.932-5.931.02-.605.116-1.205.285-1.786l-7.718-6.074c-1.018.799-2.279 1.227-3.573 1.214-.89-.003-1.767-.198-2.574-.572l-9.289 10.434c.463.882.708 1.862.715 2.858.004 1.574-.62 3.085-1.733 4.198-1.113 1.113-2.624 1.737-4.198 1.733-3.269-.059-5.883-2.735-5.864-6.004.02-3.27 2.665-5.914 5.934-5.933.76-.002 1.512.144 2.216.43l9.5-10.573c-.381-.778-.577-1.634-.572-2.5 0-3.276 2.656-5.932 5.931-5.932 3.276 0 5.932 2.656 5.932 5.932-.002.484-.074.966-.215 1.429l7.933 6.216c.97-.66 2.116-1.008 3.288-1 .81.022 1.61.191 2.359.5l9.435-10.718c-.519-.89-.79-1.901-.787-2.931-.004-1.574.62-3.085 1.733-4.198 1.113-1.113 2.624-1.737 4.198-1.733zm-51.019 29.012c-.145 0-.288.073-.43.073h-.073c-.142.069-.284.069-.357.142-.255.106-.476.279-.642.5-.53.56-.658 1.388-.327 2.084.332.695 1.057 1.116 1.826 1.058.573.031 1.127-.206 1.5-.642.073-.07.146-.215.215-.285.069-.07.069-.212.142-.285v-.073c0-.073.073-.142.073-.215.066-.107.092-.233.073-.357 0-1.105-.895-2-2-2zm34.011-6.003l-.175.008c-.466.04-.905.244-1.239.577-.375.376-.586.884-.586 1.415 0 1.105.895 2 2 2s2-.895 2-2-.895-2-2-2zm-16.934-12.645c-1.105 0-2 .895-2 2s.895 2 2 2 2-.895 2-2c.013-.534-.194-1.05-.571-1.429-.378-.377-.895-.584-1.429-.571zm34.585-6.175c-.756-.263-1.597-.055-2.144.53-.073.07-.146.215-.215.285-.069.07-.069.212-.142.285v.073c0 .073-.073.142-.073.215-.066.107-.092.233-.073.357 0 1.105.895 2 2 2 .145 0 .288-.073.43-.073h.073c.142-.069.284-.069.357-.142.128-.056.248-.128.357-.215l.285-.285c.31-.359.486-.813.5-1.287-.067-.797-.598-1.48-1.355-1.743z" transform="translate(-202 -2227) translate(84 1756) translate(0 413)"/>
                </g>
            </g>
        </g>
    </g>
</svg>
