<svg xmlns="http://www.w3.org/2000/svg" width="77" height="77" viewBox="0 0 77 77">
    <g fill="none" fill-rule="evenodd">
        <g fill-rule="nonzero">
            <g>
                <g>
                    <path fill="#25D366" d="M76.994 57.46c0 .422-.013 1.336-.038 2.042-.033 1.665-.169 3.326-.406 4.974-.278 1.445-.746 2.847-1.394 4.168-1.429 2.815-3.719 5.1-6.536 6.525-1.329.65-2.739 1.119-4.192 1.395-1.636.233-3.284.367-4.936.4-.707.025-1.621.038-2.041.038l-37.911-.008c-.422 0-1.336-.013-2.042-.038-1.665-.033-3.326-.169-4.974-.406-1.445-.278-2.847-.746-4.168-1.394-2.815-1.428-5.1-3.717-6.525-6.534-.65-1.328-1.119-2.737-1.395-4.19-.233-1.636-.367-3.284-.4-4.936-.025-.707-.038-1.621-.038-2.041l.006-37.914c0-.422.013-1.336.038-2.042.034-1.666.17-3.328.408-4.977.278-1.444.746-2.845 1.394-4.166 1.428-2.814 3.717-5.1 6.533-6.525 1.329-.65 2.739-1.119 4.192-1.395 1.636-.233 3.284-.367 4.936-.4.707-.025 1.622-.038 2.041-.038L57.46.006c.422 0 1.336.013 2.042.038 1.665.033 3.326.169 4.974.406 1.445.278 2.847.746 4.168 1.394 2.814 1.428 5.1 3.716 6.525 6.532.65 1.329 1.119 2.739 1.395 4.192.233 1.636.367 3.284.4 4.936.025.707.038 1.621.038 2.041l-.006 37.914-.002.001z" transform="translate(-196 -1279) translate(144 1227) translate(52 52)"/>
                    <g fill="#FFF">
                        <path d="M47.375 8.095C37.581-1.702 22.044-2.726 11.049 5.7.053 14.127-2.997 29.396 3.917 41.4L0 55.7l14.637-3.838c4.049 2.204 8.585 3.36 13.195 3.36h.011c11.166 0 21.233-6.726 25.507-17.041 4.275-10.316 1.917-22.19-5.975-30.089v.003zM27.843 50.564h-.009c-4.11 0-8.145-1.105-11.681-3.2l-.838-.5-8.686 2.278 2.318-8.466-.546-.868c-5.564-8.865-4.425-20.371 2.769-27.974 7.193-7.603 18.619-9.376 27.778-4.31 9.159 5.065 13.731 15.685 11.116 25.819-2.615 10.134-11.756 17.215-22.222 17.216l.001.005zm12.588-17.183c-.69-.345-4.082-2.014-4.714-2.244-.632-.23-1.092-.345-1.552.345-.46.69-1.782 2.244-2.185 2.7-.403.456-.8.518-1.495.173-2.034-.81-3.912-1.968-5.548-3.423-1.508-1.394-2.802-3.004-3.838-4.778-.4-.691-.043-1.064.3-1.408.31-.309.69-.806 1.035-1.208.284-.349.516-.736.69-1.151.186-.387.164-.841-.058-1.208-.172-.345-1.552-3.74-2.127-5.121-.56-1.345-1.129-1.163-1.552-1.184-.4-.02-.862-.024-1.322-.024-.707.018-1.374.331-1.84.863-1.577 1.494-2.454 3.582-2.415 5.754 0 3.395 2.472 6.674 2.817 7.135.345.461 4.865 7.427 11.786 10.414 1.284.553 2.597 1.038 3.933 1.453 1.408.428 2.896.521 4.346.273 1.325-.2 4.082-1.668 4.657-3.279.45-1.03.59-2.171.4-3.28-.172-.288-.632-.46-1.322-.806l.004.004z" transform="translate(-196 -1279) translate(144 1227) translate(52 52) translate(11.524 10.122)"/>
                    </g>
                </g>
            </g>
        </g>
    </g>
</svg>
