<svg xmlns="http://www.w3.org/2000/svg" width="609" height="456" viewBox="0 0 609 456">
    <g fill="none" fill-rule="evenodd">
        <g>
            <g transform="translate(-84 -722) translate(84 722)">
                <ellipse cx="228.009" cy="227.814" fill="#FFF" fill-rule="nonzero" opacity=".1" rx="228.009" ry="227.814"/>
                <rect width="177.458" height="78.869" x="362.719" y="141.81" fill="#14253D" fill-rule="nonzero" rx="8"/>
                <path fill="#4D6584" fill-rule="nonzero" d="M397.498 141.81H540.177V455.56H397.498z"/>
                <path fill="#CAA424" fill-rule="nonzero" d="M316.723 201.841h59.21V455.56H229.101V289.389c0-48.351 39.23-87.548 87.622-87.548z"/>
                <path fill="#FDCD2D" fill-rule="nonzero" d="M362.693 201.841h47.692c6.361 0 11.518 5.152 11.518 11.508v242.21H275.071V289.39c0-48.351 39.23-87.548 87.622-87.548z"/>
                <path fill="#CAA424" fill-rule="nonzero" d="M382.682 358.685H406.076V382.059H382.682zM382.682 398.276H406.076V421.65000000000003H382.682zM343.809 358.685H367.20300000000003V382.059H343.809zM343.809 398.276H367.20300000000003V421.65000000000003H343.809z"/>
                <path fill="#14253D" fill-rule="nonzero" d="M496.899 318.763H520.293V342.137H496.899zM496.899 358.354H520.293V381.728H496.899zM496.899 397.947H520.293V421.321H496.899zM496.899 201.51H520.293V224.884H496.899zM496.899 241.102H520.293V264.476H496.899zM496.899 280.695H520.293V304.069H496.899zM393.089 141.81L393.089 100.337 397.464 100.337 397.464 104.989 424.64 104.989 419.863 121.073 397.462 121.073 397.462 141.81z"/>
                <path fill="#12986B" fill-rule="nonzero" d="M576.035 438.341c-1.975-.002-3.891.672-5.43 1.91.326-1.428.492-2.889.496-4.354 0-5.25-2.087-10.284-5.803-13.997-3.715-3.712-8.755-5.796-14.009-5.796-10.26.001-18.82 7.832-19.724 18.044-1.641-.868-3.47-1.321-5.327-1.32-3.035 0-5.945 1.203-8.091 3.347-2.146 2.144-3.352 5.052-3.352 8.084 0 6.314 5.123 11.433 11.443 11.433h49.795c4.797 0 8.685-3.885 8.685-8.677-.001-4.79-3.888-8.674-8.683-8.674z"/>
                <path fill="#17BD86" fill-rule="nonzero" d="M585.335 438.341c-1.975-.002-3.892.672-5.43 1.91.327-1.428.494-2.888.498-4.354 0-10.932-8.87-19.793-19.812-19.793-10.26 0-18.82 7.832-19.724 18.044-1.641-.868-3.47-1.321-5.327-1.32-3.035 0-5.945 1.203-8.09 3.347-2.147 2.144-3.352 5.052-3.352 8.084s1.205 5.94 3.351 8.084c2.146 2.145 5.056 3.35 8.09 3.35h49.798c2.303 0 4.511-.916 6.14-2.543 1.627-1.627 2.541-3.834 2.541-6.135 0-2.3-.915-4.507-2.543-6.134-1.628-1.627-3.837-2.54-6.14-2.54z"/>
                <ellipse cx="222.633" cy="376.721" fill="#12986B" fill-rule="nonzero" rx="39.107" ry="39.074"/>
                <path fill="#271F0F" fill-rule="nonzero" d="M221.194 412.63H229.916V455.56H221.194z"/>
                <ellipse cx="228.474" cy="376.721" fill="#17BD86" fill-rule="nonzero" rx="39.107" ry="39.074"/>
                <path fill="#213E64" fill-rule="nonzero" d="M583.71 152.46H538.47l-7.082 7.792v-36.883h52.32c1.083 0 2.12.429 2.885 1.193.765.764 1.195 1.801 1.195 2.882v20.943c-.001 2.25-1.827 4.074-4.08 4.074z"/>
                <path stroke="#FFF" d="M540.177 134.3L578.603 134.3M540.177 141.81L563.427 141.81"/>
                <path fill="#213E64" fill-rule="nonzero" d="M233.52 179.68h-35.314l-5.529 6.082V156.97h40.844c.844 0 1.654.335 2.251.931.598.597.933 1.406.933 2.25v16.348c0 .844-.335 1.653-.933 2.25-.597.596-1.407.931-2.251.93z"/>
                <path stroke="#FFF" d="M199.537 165.504L229.535 165.504M199.537 173.096L217.688 173.096"/>
                <g>
                    <path fill="#FDCD2D" fill-rule="nonzero" d="M2.602 18.564h28.866l4.518 4.971V.001H2.602C1.165.001 0 1.165 0 2.601v13.363c0 1.436 1.165 2.6 2.602 2.6z" transform="translate(571.765 157.711)"/>
                    <path stroke="#FFF" d="M30.379 6.974L5.861 6.974M30.379 11.767L15.545 11.767" transform="translate(571.765 157.711)"/>
                </g>
                <g>
                    <path fill="#FDCD2D" fill-rule="nonzero" d="M4.205 30.996h46.66l7.304 8.035V.991H4.205C1.882.99 0 2.872 0 5.194v21.6c0 2.321 1.884 4.202 4.206 4.202z" transform="translate(226.054 181.766)"/>
                    <path stroke="#FFF" d="M49.107 12.271L9.475 12.271M49.107 20.017L25.127 20.017" transform="translate(226.054 181.766)"/>
                </g>
                <path fill="#213E64" fill-rule="nonzero" d="M370.741 359.439h-45.238l-7.082 7.79v-36.886h52.32c2.253 0 4.08 1.824 4.08 4.075v20.943c0 1.081-.43 2.119-1.194 2.884-.765.765-1.803 1.194-2.886 1.194z"/>
                <path stroke="#FFF" d="M327.207 341.278L365.633 341.278M327.207 348.788L346.62 348.788"/>
                <g>
                    <path fill="#FFF" fill-rule="nonzero" d="M2.996 21.366h33.227l5.2 5.724V0H2.997C2.202 0 1.44.315.878.876.316 1.437 0 2.198 0 2.992v15.382c0 .794.316 1.555.878 2.116.562.561 1.324.876 2.118.876z" transform="translate(353.355 348.788)"/>
                    <path stroke="#FFC117" d="M34.971 8.028L6.748 8.028M34.971 13.545L17.894 13.545" transform="translate(353.355 348.788)"/>
                </g>
            </g>
        </g>
    </g>
</svg>
