<svg xmlns="http://www.w3.org/2000/svg" width="74" height="74" viewBox="0 0 74 74">
    <g fill="none" fill-rule="evenodd">
        <g fill="#213E64" fill-rule="nonzero">
            <g>
                <g>
                    <g>
                        <path d="M36.548 0C16.364.002.003 16.366.004 36.55c.001 20.185 16.365 36.547 36.55 36.546 20.184 0 36.546-16.364 36.546-36.548.01-9.697-3.838-19-10.695-25.856C55.548 3.836 46.245-.01 36.548 0zM14.621 54.076c-.208-.005-.413-.056-.6-.149-.407-.166-.73-.488-.899-.894-.168-.406-.166-.863.005-1.268 1.643-3.983 2.234-8.322 1.716-12.6-.93-8.094 2.697-16.038 9.421-20.637 6.725-4.599 15.443-5.098 22.649-1.296.526.276.864.814.883 1.409.02.594-.282 1.153-.789 1.463-.507.31-1.142.324-1.662.036-6.143-3.231-13.57-2.797-19.294 1.128-5.725 3.925-8.806 10.696-8.006 17.591.598 4.834-.069 9.741-1.935 14.241-.242.605-.837.994-1.489.973v.003zM51.69 34.832v.224c-.008.902-.738 1.632-1.64 1.64-.845-.016-1.547-.656-1.64-1.496-.793-6.502-6.696-11.138-13.2-10.366-.81.102-1.608.277-2.386.522-.56.187-1.176.061-1.618-.33-.441-.391-.64-.988-.523-1.566.118-.578.536-1.05 1.095-1.236.978-.294 1.975-.518 2.984-.67 3.995-.45 8.007.675 11.186 3.136 3.225 2.45 5.301 6.117 5.742 10.142zm-32 24.541c-.254-.014-.506-.065-.746-.149-.392-.202-.684-.554-.81-.977-.127-.422-.076-.877.14-1.261 2.958-5.713 4.127-12.184 3.356-18.571-.407-3.522.41-7.078 2.313-10.069.314-.494.87-.78 1.454-.746.584.033 1.104.38 1.36.906s.207 1.15-.128 1.629c-1.501 2.348-2.159 5.137-1.865 7.908.824 7.023-.447 14.134-3.654 20.436-.28.53-.823.87-1.422.894h.002zm5.746 3.578c-.264-.005-.523-.082-.746-.224-.392-.202-.684-.554-.81-.977-.127-.422-.076-.877.14-1.261 1.419-2.672 2.52-5.502 3.28-8.43.226-.886 1.128-1.42 2.014-1.194.885.226 1.42 1.127 1.194 2.013-.802 3.173-2.006 6.231-3.581 9.1-.277.577-.852.952-1.492.973h.001zm8.053 1.119c-.284.558-.862.906-1.489.894-.254-.014-.506-.065-.746-.149-.798-.395-1.13-1.359-.746-2.162 3.967-7.986 5.522-16.954 4.475-25.809-.1-.588.133-1.183.605-1.547.472-.364 1.107-.438 1.65-.192.543.246.907.771.945 1.366 1.191 9.462-.444 19.065-4.7 27.6l.006-.001zm7.386.152c-.277.577-.852.95-1.492.97-.23-.014-.456-.065-.67-.149-.811-.382-1.198-1.319-.894-2.162 3.661-8.472 5-17.767 3.881-26.928-.192-1.83-1.353-3.417-3.041-4.152-1.688-.735-3.64-.505-5.11.602-1.472 1.107-2.233 2.92-1.994 4.745.251 2.129.352 4.273.3 6.416 0 .442-.185.865-.512 1.163-.326.299-.763.446-1.204.405-.438-.012-.853-.201-1.149-.525-.296-.323-.447-.753-.419-1.191.075-1.967 0-3.936-.224-5.891-.27-2.21.348-4.436 1.716-6.191 1.352-1.77 3.373-2.903 5.588-3.134 2.21-.27 4.436.348 6.191 1.716 1.77 1.354 2.903 3.377 3.132 5.594 1.205 9.764-.21 19.673-4.1 28.71l.001.002zm8.056-2.238c-.238.663-.863 1.108-1.567 1.116-.177.012-.355-.014-.522-.076-.421-.13-.771-.426-.968-.82-.197-.395-.224-.852-.074-1.267 1.817-5.468 2.822-11.172 2.984-16.931.015-.595.351-1.135.877-1.412.527-.277 1.162-.248 1.661.075.5.324.785.892.746 1.486-.141 6.067-1.198 12.077-3.135 17.828l-.002.001zm8.651-6.043c-.16.779-.845 1.34-1.64 1.343h-.3c-.433-.075-.816-.326-1.056-.694-.24-.368-.317-.82-.211-1.246 1.356-6.877 1.634-13.923.825-20.885-.37-3.214-1.578-6.275-3.505-8.874-.514-.742-.34-1.758.392-2.286.732-.529 1.751-.375 2.294.346 2.269 3.063 3.708 6.66 4.178 10.442.755 7.293.427 14.658-.976 21.855l-.001-.001zm6.191-20.885c-.426.053-.855-.067-1.191-.333-.337-.266-.552-.656-.598-1.083-1.779-13.867-14.392-23.716-28.276-22.08-13.885 1.636-23.864 14.146-22.371 28.047.054.426-.065.857-.332 1.194-.266.337-.657.553-1.084.599H9.7c-.82-.008-1.513-.607-1.64-1.416-1.69-15.675 9.55-29.79 25.206-31.652 15.655-1.861 29.893 9.224 31.926 24.858.064.436-.05.88-.318 1.23-.266.352-.664.58-1.101.635v.001z" transform="translate(-521 -731) translate(84 678) translate(324) translate(113 53)"/>
                    </g>
                </g>
            </g>
        </g>
    </g>
</svg>
