<svg xmlns="http://www.w3.org/2000/svg" width="67" height="66" viewBox="0 0 67 66">
    <g fill="none" fill-rule="evenodd">
        <g fill="#17BD85" fill-rule="nonzero">
            <g>
                <path d="M138.449 74.826l3.258 1.344c-.495 2.453-.495 4.98 0 7.434l-3.258 1.344c-.795.339-1.172 1.25-.849 2.052l1.629 3.966c.339.795 1.25 1.172 2.052.849l3.258-1.344c1.374 2.082 3.156 3.864 5.238 5.238l-1.344 3.258c-.322.801.055 1.713.849 2.052l3.966 1.629c.801.322 1.713-.055 2.052-.849l1.344-3.258c2.453.495 4.98.495 7.434 0l1.344 3.258c.339.795 1.25 1.172 2.052.849l3.966-1.629c.795-.339 1.172-1.25.849-2.052l-1.344-3.258c2.082-1.374 3.864-3.156 5.238-5.238l3.258 1.344c.801.322 1.713-.055 2.052-.849L183.122 87c.322-.801-.055-1.713-.849-2.052l-3.258-1.344c.495-2.453.495-4.98 0-7.434l3.258-1.344c.795-.339 1.172-1.25.849-2.052l-1.629-3.966c-.339-.795-1.25-1.172-2.052-.849l-3.258 1.344c-1.374-2.082-3.156-3.864-5.238-5.238l1.344-3.258c.322-.801-.055-1.713-.849-2.052l-3.964-1.628c-.801-.322-1.713.055-2.052.849l-1.344 3.258c-2.453-.495-4.98-.495-7.434 0l-1.344-3.255c-.339-.795-1.25-1.172-2.052-.849l-3.966 1.626c-.795.339-1.172 1.25-.849 2.052l1.344 3.258c-2.082 1.374-3.864 3.156-5.238 5.238l-3.257-1.345c-.801-.322-1.713.055-2.052.849l-1.629 3.971c-.17.383-.176.82-.017 1.207.16.388.472.693.863.845v-.005zm16.919-7.008c4.883-2.02 10.501-.9 14.235 2.839 3.734 3.738 4.849 9.358 2.824 14.238-2.025 4.88-6.79 8.06-12.074 8.057-5.284-.004-10.046-3.19-12.064-8.073-2.748-6.667.42-14.3 7.08-17.063l-.001.002zm-2.052 18.407l2.052-7.506c.062-.198.22-.352.419-.409.2-.057.414-.009.571.127l.99.99 6.3-6.3c.432-.426 1.125-.426 1.557 0l1.911 1.911c.426.432.426 1.125 0 1.557l-6.3 6.3.99.99c.151.151.209.372.15.578-.059.205-.224.363-.432.412l-7.506 2.052c-.198.06-.413.006-.56-.14-.146-.147-.2-.362-.14-.56l-.002-.002zm-34.972 22.937h2.053c.297 1.599.925 3.118 1.842 4.461l-1.417 1.416c-.495.514-.495 1.328 0 1.842l1.557 1.557c.514.495 1.328.495 1.842 0l1.416-1.416c1.343.916 2.862 1.543 4.46 1.841v2.052c0 .357.141.699.393.95.252.253.594.394.951.394h2.2c.357 0 .699-.141.95-.393.253-.252.394-.594.394-.951v-2.052c1.599-.297 3.118-.925 4.461-1.842l1.416 1.416c.514.495 1.328.495 1.842 0l1.553-1.558c.495-.514.495-1.328 0-1.842l-1.416-1.416c.917-1.343 1.544-2.862 1.842-4.461h2.052c.357 0 .699-.141.95-.393.253-.252.394-.594.394-.951v-2.2c-.003-.74-.604-1.338-1.344-1.337h-2.052c-.297-1.599-.925-3.118-1.842-4.461l1.416-1.416c.495-.514.495-1.328 0-1.842l-1.56-1.557c-.514-.495-1.328-.495-1.842 0l-1.413 1.416c-1.343-.916-2.863-1.543-4.461-1.84v-2.054c0-.357-.14-.7-.393-.952-.252-.252-.594-.394-.951-.394h-2.2c-.356 0-.697.143-.949.395-.251.253-.392.595-.391.951v2.054c-1.598.297-3.117.923-4.46 1.84l-1.416-1.416c-.514-.495-1.328-.495-1.842 0l-1.557 1.557c-.495.514-.495 1.328 0 1.842l1.416 1.416c-.916 1.343-1.543 2.862-1.841 4.461h-2.053c-.357-.001-.7.14-.952.392-.253.252-.395.594-.395.951v2.2c-.012.36.125.71.38.964.255.255.604.392.964.38l.003-.004zm8.99-.213l4.107-4.107-.921-.921c-.129-.126-.18-.31-.137-.486.044-.174.177-.313.35-.363l6.654-1.77c.175-.026.352.033.478.158.125.126.184.303.158.478l-1.77 6.654c-.05.173-.189.306-.363.35-.175.044-.36-.008-.486-.137l-.921-.921-4.106 4.107c-.406.354-1.01.354-1.416 0l-1.7-1.7c-.177-.184-.269-.433-.255-.688.013-.254.132-.492.327-.656l.001.002z" transform="translate(-201 -1299) translate(84 1242)"/>
            </g>
        </g>
    </g>
</svg>
