<svg xmlns="http://www.w3.org/2000/svg" width="72" height="73" viewBox="0 0 72 73">
    <g fill="none" fill-rule="evenodd">
        <g fill="#518DE2" fill-rule="nonzero">
            <g>
                <g>
                    <g>
                        <path d="M34.909.492c1.13-.652 2.52-.652 3.65 0s1.825 1.857 1.825 3.161c.01 1.57-1.01 2.96-2.509 3.423v5.359c6.503-.341 11.979 1.141 16.314 4.45l6.386-6.391c-.376-.62-.574-1.333-.571-2.059 0-2.016 1.634-3.65 3.65-3.65s3.65 1.634 3.65 3.65-1.634 3.65-3.65 3.65c-.428-.01-.852-.087-1.256-.229l-6.5 6.388c.704.668 1.353 1.393 1.938 2.168 2.994 4.078 4.666 8.975 4.791 14.032h5.362c.308-.019.61.095.828.313.218.219.332.52.313.828v5.477c1.499.464 2.517 1.854 2.509 3.423 0 2.016-1.634 3.65-3.65 3.65s-3.65-1.634-3.65-3.65c-.01-1.595.997-3.019 2.505-3.54V36.61h-4.22c-.198 5.878-1.886 11.609-4.906 16.655l6.163 4.788c.583-.461 1.31-.703 2.053-.685 2.016 0 3.65 1.634 3.65 3.65s-1.634 3.65-3.65 3.65-3.65-1.634-3.65-3.65c.02-.39.098-.774.229-1.141l-6.047-4.676c-.081.301-.238.576-.456.8-.341.571-.341.797.8 5.362.341 1.141.685 2.509 1.141 4.335.225 1.061.02 2.169-.571 3.079-.591.898-1.554 1.485-2.623 1.6L33.996 73h-.685c-2.853 0-3.538-2.853-3.994-4.791-.686-2.624-1.027-3.08-2.168-2.965l-9.467 1.141c-1.657.387-3.394-.135-4.564-1.371-1.597-1.938-1.253-5.129-.912-6.729-.882-1.109-1.401-2.463-1.486-3.877-1.597-1.253-1.256-3.42-.685-5.132-2.283-.912-3.536-2.05-3.765-3.65-.57-2.964 2.965-5.817 3.65-6.273 1.65-1.418 2.538-3.529 2.4-5.7-.115-.718-.115-1.45 0-2.168l-7.414-1.488c-.456 0-.797-.456-.912-.912L2.853 20.76C1.198 20.384.018 18.922 0 17.225c-.014-.972.367-1.908 1.054-2.596.688-.687 1.624-1.068 2.596-1.054.972-.014 1.908.367 2.596 1.054.687.688 1.068 1.624 1.054 2.596-.011 1.433-.86 2.726-2.168 3.309l1.026 7.415 6.5 1.253c.876-4.4 3.206-8.379 6.617-11.294l-6.269-6.272c-.407.132-.83.209-1.256.229-2.016 0-3.65-1.634-3.65-3.65s1.634-3.65 3.65-3.65 3.65 1.634 3.65 3.65c.001.724-.196 1.434-.571 2.053l6.385 6.385c.893-.568 1.85-1.028 2.853-1.368 3.699-1.478 7.573-2.473 11.526-2.962V7.076c-1.499-.464-2.517-1.854-2.509-3.423 0-1.304.696-2.509 1.825-3.161zm31.03 59.169c-.736.051-1.318.635-1.368 1.368 0 .756.612 1.368 1.368 1.368.756 0 1.368-.612 1.368-1.368 0-.756-.612-1.368-1.368-1.368zm-22.084-41.37c-2.658-.842-5.553.162-7.12 2.469-1.601-2.28-4.505-3.247-7.154-2.381-2.648.865-4.42 3.36-4.366 6.146-3.112.685-5.336 3.43-5.362 6.617-.032 1.54.494 3.039 1.482 4.22-1.528 1.315-2.405 3.231-2.4 5.247.031 3.614 2.79 6.62 6.388 6.959.444 2.52 2.365 4.523 4.864 5.073 2.5.55 5.083-.463 6.544-2.564 1.451 2.118 4.043 3.143 6.55 2.591 2.507-.551 4.429-2.569 4.858-5.1 3.66-.315 6.451-3.403 6.395-7.073-.021-2.01-.893-3.917-2.4-5.247 1.466-1.832 1.878-4.293 1.087-6.502-.79-2.21-2.67-3.85-4.966-4.336.048-2.788-1.742-5.276-4.4-6.118zm-2.049 1.555c5.534 0 5.653 8.361.118 8.361-.65 0-1.178.527-1.178 1.178 0 .65.527 1.178 1.178 1.178 2.65-.035 5.02-1.662 6.005-4.123 2.13.429 3.658 2.303 3.649 4.475-.04 1.413-.684 2.741-1.767 3.649-.323.242-.503.63-.48 1.032.024.402.249.766.598.968 1.532.88 2.51 2.479 2.595 4.242-.038 2.473-1.9 4.536-4.357 4.827-.61-3.025-3.275-5.197-6.361-5.183-.65 0-1.178.527-1.178 1.178 0 .65.527 1.178 1.178 1.178 2.265.028 4.095 1.858 4.123 4.123v.237c-.352 5.416-8.361 5.063-8.361-.237V24.084c-.005-1.125.44-2.206 1.236-3.002.796-.795 1.877-1.24 3.002-1.236zm-10.161-.004c2.302-.02 4.193 1.82 4.235 4.124v22.962c0 5.416-8.361 5.535-8.361 0 .028-2.265 1.858-4.095 4.123-4.123.318.02.63-.098.854-.324.226-.225.344-.536.324-.854 0-2.594-6.475-1.064-7.535 4-2.094-.247-3.79-1.82-4.192-3.89-.404-2.07.577-4.163 2.425-5.179.344-.206.564-.569.588-.969.023-.4-.152-.786-.47-1.031-1.393-1.11-2.023-2.922-1.62-4.656.402-1.735 1.767-3.084 3.506-3.466.945 2.493 3.34 4.136 6.005 4.123.65 0 1.178-.527 1.178-1.178 0-.65-.527-1.178-1.178-1.178-5.417 0-5.417-8.361.118-8.361zM67.992 43.12c-.74.02-1.331.626-1.331 1.367 0 .742.59 1.348 1.331 1.368.497.013.963-.244 1.215-.673.253-.428.253-.96 0-1.39-.252-.428-.718-.685-1.215-.672zm-34.365-5.158c-.435-.18-.935-.082-1.272.247-.226.215-.353.513-.353.824 0 .312.127.61.353.825.328.352.84.464 1.285.281.445-.183.73-.623.715-1.104-.006-.47-.292-.893-.728-1.073zm7.234.064c-.46-.265-1.04-.189-1.416.187-.354.328-.467.841-.283 1.287.185.446.627.73 1.109.713.531.002.997-.354 1.135-.867.138-.512-.085-1.054-.545-1.32zM27.17 32.21c-.46-.424-1.173-.41-1.616.033-.442.443-.457 1.156-.033 1.616l1.415 1.292c1.886 1.886-2.59 2.945-.941 4.594 1.06 1.178 2.238-.704 2.59-.941.698-.675 1.045-1.632.941-2.594 0-2.233-1.649-3.059-2.356-4zm20.753-.019c-1.178-1.174-2.356.829-2.945 1.3-1.413 1.484-1.413 3.816 0 5.3.707.711 1.06 1.3 1.767 1.3.47-.006.893-.292 1.073-.728.18-.435.082-.935-.247-1.272v-.015c-.708-.822-1.415-1.059-1.415-1.885 0-.658.528-1.184 1.063-1.678l.228-.21c.715-.658 1.307-1.281.476-2.112zm-14.625 2.264c-.646 0-1.17.525-1.171 1.171 0 .646.523 1.171 1.169 1.173.31.004.61-.12.83-.342.221-.22.345-.52.345-.833-.002-.646-.527-1.17-1.173-1.169zm6.971-.008c-.311 0-.61.128-.824.354-.34.333-.443.839-.261 1.279.181.44.611.725 1.087.721.46-.025.865-.314 1.041-.74.176-.427.09-.917-.218-1.26-.215-.226-.513-.354-.825-.354zm-6.974-3.301c-.312 0-.61.127-.825.353-.328.337-.425.837-.245 1.272.18.435.6.72 1.071.728.46-.022.863-.31 1.039-.738.176-.427.092-.917-.216-1.262-.215-.226-.513-.353-.825-.353zm7.799.355c-.375-.378-.958-.455-1.419-.188-.46.266-.685.81-.545 1.323.14.514.609.869 1.141.865.47-.005.891-.292 1.07-.728.179-.435.082-.935-.247-1.272zM3.654 15.861c-.74.02-1.331.626-1.331 1.367 0 .742.59 1.348 1.331 1.368.748-.012 1.355-.62 1.364-1.371.014-.366-.126-.72-.385-.98-.258-.258-.613-.398-.979-.384zm60-8.903c-.367-.014-.723.126-.982.385-.26.26-.4.616-.385.983-.013.497.244.963.673 1.215.428.253.96.253 1.39 0 .428-.252.685-.718.672-1.215.015-.367-.125-.724-.384-.984-.26-.26-.617-.399-.984-.384zm-51.206.155c-.428-.253-.96-.253-1.39 0-.428.252-.685.718-.672 1.215-.015.367.125.724.384.984.26.26.617.399.984.384h-.004l.131-.008c.648-.068 1.162-.581 1.232-1.229l.008-.131c.013-.497-.244-.963-.673-1.215zM36.732 2.28c-.756 0-1.369.613-1.369 1.369s.613 1.369 1.369 1.369 1.369-.613 1.369-1.369-.613-1.369-1.369-1.369z" transform="translate(-522 -1810) translate(84 1756) translate(324) translate(114 54)"/>
                    </g>
                </g>
            </g>
        </g>
    </g>
</svg>
