<svg xmlns="http://www.w3.org/2000/svg" width="67" height="66" viewBox="0 0 67 66">
    <g fill="none" fill-rule="evenodd">
        <g fill="#518DE2" fill-rule="nonzero">
            <g>
                <g>
                    <g>
                        <path d="M183.563 95.679c-.002-4.939-3.076-9.355-7.707-11.071v-2.031c0-14.124-11.45-25.574-25.574-25.574-14.124 0-25.574 11.45-25.574 25.574v2.024c-5.373 1.991-8.546 7.548-7.529 13.188 1.017 5.639 5.93 9.738 11.661 9.727h4.275c1.121 0 2.03-.91 2.031-2.031V85.866c0-1.121-.91-2.03-2.031-2.031h-1.962v-1.261c0-10.565 8.564-19.129 19.129-19.129 10.565 0 19.129 8.564 19.129 19.129v1.262h-1.963c-1.121 0-2.03.91-2.031 2.031v19.618c0 1.121.91 2.03 2.031 2.031h.911c-2.08 4.783-6.639 8.02-11.84 8.408-.297-1.388-1.523-2.38-2.942-2.381h-6.656c-.8-.006-1.57.31-2.137.876-.566.566-.882 1.336-.876 2.137v3.432c-.006.8.31 1.57.876 2.137.566.566 1.336.882 2.137.876h6.656c1.474.013 2.73-1.065 2.942-2.524 7.774-.43 14.456-5.658 16.744-13.1 5.876-.776 10.275-5.773 10.3-11.7v.002z" transform="translate(-1011 -1740) translate(84 1242) translate(162 441) translate(648)"/>
                    </g>
                </g>
            </g>
        </g>
    </g>
</svg>
