<svg xmlns="http://www.w3.org/2000/svg" width="57" height="56" viewBox="0 0 57 56">
    <g fill="none" fill-rule="evenodd">
        <g fill="#E64949" fill-rule="nonzero">
            <g>
                <g>
                    <g>
                        <path d="M1.75 55.987c-.464 0-.91-.184-1.238-.512C.184 55.147 0 54.702 0 54.238V26.245c0-.966.784-1.749 1.75-1.749h22.757c.966 0 1.75.783 1.75 1.749v27.993c0 .966-.784 1.749-1.75 1.749H1.75zm29.753 0c-.966 0-1.748-.783-1.749-1.749V36.744c0-.966.783-1.749 1.749-1.749H54.26c.464 0 .91.183 1.238.511.328.328.513.774.512 1.238v17.494c0 .966-.784 1.749-1.75 1.749H31.503zm0-24.494c-.966 0-1.749-.783-1.749-1.749V1.751C29.753.785 30.534.001 31.5 0h22.757c.464 0 .91.184 1.237.512.329.328.513.773.513 1.237v27.993c0 .966-.784 1.749-1.75 1.749l-22.754.002zM1.75 20.993c-.464.001-.91-.183-1.238-.511-.329-.328-.513-.774-.512-1.238v-17.5C0 1.28.185.835.513.508.841.18 1.286-.004 1.75-.004h22.757c.464 0 .909.184 1.237.512.328.327.513.772.513 1.236v17.5c0 .966-.784 1.749-1.75 1.749H1.75z" transform="translate(-530 -2231) translate(84 1756) translate(324 413) translate(122 62)"/>
                    </g>
                </g>
            </g>
        </g>
    </g>
</svg>
