<svg xmlns="http://www.w3.org/2000/svg" width="56" height="56" viewBox="0 0 56 56">
    <g fill="none" fill-rule="evenodd">
        <g fill="#17BD85">
            <g>
                <g>
                    <path d="M149.67 107.737c2.497 1.568 5.178 2.825 7.981 3.741-2.204 3.667-4.975 5.861-7.981 5.861-3.006 0-5.781-2.194-7.981-5.861 2.803-.916 5.484-2.172 7.981-3.741zm-21.054-8.344c2.634 1.342 5.421 2.36 8.3 3.03.669 2.866 1.68 5.642 3.013 8.266-1.347.356-2.733.546-4.127.565-2.096.128-4.154-.6-5.701-2.019-2.134-2.137-2.536-5.667-1.485-9.842zm42.078.014c1.09 4.327.597 7.769-1.461 9.827-1.542 1.42-3.6 2.15-5.695 2.02-1.394-.019-2.78-.209-4.127-.565 1.333-2.624 2.344-5.4 3.013-8.266 2.868-.67 5.645-1.682 8.27-3.016zm-32.474 3.315c1.874.398 3.768.692 5.674.881 1.471 1.212 3.007 2.344 4.6 3.391-2.333 1.417-4.826 2.554-7.426 3.385-1.25-2.43-2.206-5-2.848-7.657zm22.904 0c-.643 2.656-1.6 5.227-2.85 7.657-2.6-.831-5.093-1.967-7.427-3.384 1.594-1.047 3.13-2.179 4.6-3.392 1.907-.191 3.802-.485 5.677-.881zm-7.888 1.049c-1.18.901-2.373 1.734-3.566 2.491-1.194-.757-2.383-1.588-3.566-2.491 1.169.076 2.359.113 3.566.113 1.207 0 2.397-.041 3.566-.113zm-3.563-27.09c1.799 0 3.557.084 5.262.24 1.336 1.109 2.659 2.304 3.923 3.567 1.264 1.263 2.457 2.571 3.564 3.9.156 1.711.24 3.476.24 5.282s-.084 3.572-.24 5.282c-1.109 1.325-2.295 2.628-3.564 3.9-1.269 1.272-2.584 2.458-3.923 3.567-1.705.156-3.463.24-5.262.24-1.799 0-3.557-.084-5.262-.24-1.336-1.109-2.659-2.304-3.923-3.567-1.264-1.263-2.457-2.571-3.564-3.9-.156-1.711-.24-3.476-.24-5.282s.084-3.572.24-5.282c1.099-1.316 2.295-2.628 3.564-3.9 1.269-1.272 2.586-2.458 3.923-3.567 1.705-.156 3.463-.24 5.262-.24zm12.508 20.429c-.197 1.493-.448 2.937-.755 4.319-1.382.307-2.826.555-4.321.755.893-.78 1.765-1.6 2.618-2.458.853-.858 1.672-1.73 2.457-2.616zm-25.022-.001c.786.884 1.603 1.758 2.458 2.613.858.858 1.732 1.675 2.618 2.458-1.495-.197-2.939-.448-4.321-.755-.307-1.379-.555-2.824-.755-4.316zm29.845-6.282c1.219 2.024 2.234 4.163 3.032 6.386.127.361.242.711.347 1.061-2.431 1.25-5.003 2.207-7.66 2.85.399-1.873.693-3.766.881-5.672 1.216-1.479 2.351-3.023 3.4-4.625zm-34.673-.009c1.05 1.605 2.187 3.151 3.406 4.632.19 1.905.484 3.799.881 5.672-2.668-.645-5.248-1.606-7.687-2.862.833-2.607 1.975-5.105 3.4-7.442zm17.951-10.115h-1.226v3.087h-1.914v-3.085h-1.226v3.085h-.62c-.833 0-1.508.676-1.509 1.509v.62h-3.085v1.227h3.085v1.911h-3.085v1.226h3.087v1.914h-3.085v1.227h3.086v.62c0 .833.676 1.508 1.509 1.509h.62v3.085h1.226v-3.085h1.911v3.083h1.226v-3.085h1.914v3.085h1.227v-3.087h.62c.833-.002 1.507-.676 1.509-1.509v-.62h3.085v-1.226h-3.085v-1.911h3.085v-1.226h-3.085v-1.911h3.085l-.004-1.229h-3.085v-.62c-.002-.833-.676-1.507-1.509-1.509h-.62v-3.085h-1.226v3.085h-1.911v-3.085zm-22.413.982c.089.282.178.563.278.85.901 2.502 2.065 4.9 3.473 7.157-1.554 2.504-2.801 5.186-3.713 7.988v-.002l-.321-.195c-3.394-2.111-5.457-4.73-5.58-7.548l-.005-.265c0-3.008 2.196-5.779 5.868-7.985zm43.604.004l.318.194c3.476 2.172 5.548 4.868 5.548 7.789 0 3.01-2.196 5.779-5.868 7.985-.086-.282-.178-.563-.278-.85-.898-2.494-2.057-4.886-3.457-7.137 1.403-2.25 2.563-4.642 3.461-7.136.101-.287.189-.57.278-.85l-.002.005zm-17.431 3.324c.076 0 .148.03.202.083.053.054.083.126.083.202v8.743c0 .156-.127.283-.283.283h-8.745c-.156 0-.283-.127-.283-.283v-8.745c0-.156.127-.283.283-.283zm-18.476 1.067c-.074 1.178-.115 2.373-.115 3.59 0 1.214.041 2.412.115 3.589-.916-1.19-1.756-2.388-2.52-3.593.763-1.195 1.603-2.39 2.52-3.586zm28.207.001c.914 1.192 1.753 2.388 2.517 3.588-.764 1.202-1.607 2.402-2.517 3.588.074-1.176.115-2.374.115-3.588s-.04-2.412-.115-3.588zm-27.158-7.867c-.397 1.876-.691 3.773-.881 5.682-1.213 1.48-2.343 3.026-3.385 4.631-1.223-2.028-2.243-4.171-3.044-6.4-.132-.36-.247-.713-.35-1.063 2.431-1.25 5.003-2.207 7.66-2.85zm26.106.005c2.657.643 5.229 1.6 7.66 2.85-.105.347-.22.702-.345 1.061-.798 2.225-1.814 4.365-3.034 6.389-1.048-1.603-2.183-3.147-3.4-4.625-.19-1.906-.483-3.8-.881-5.675zm-20.491-1.058l-.66.595c-.66.6-1.312 1.219-1.957 1.864-.857.861-1.676 1.734-2.457 2.618.197-1.495.448-2.939.755-4.321 1.382-.307 2.826-.555 4.321-.755l-.002-.001zm14.874-.002c1.495.197 2.939.448 4.321.755.307 1.379.555 2.821.755 4.316-.786-.886-1.603-1.76-2.458-2.613-.861-.855-1.734-1.675-2.618-2.458zm6.431-9.072c2.095-.13 4.153.6 5.7 2.019 2.061 2.054 2.551 5.499 1.461 9.827-2.626-1.334-5.403-2.347-8.271-3.016-.67-2.867-1.681-5.642-3.014-8.267 1.347-.356 2.733-.546 4.127-.565zm-33.433 2.017c1.547-1.42 3.605-2.148 5.7-2.019 1.394.019 2.78.209 4.127.565-1.333 2.624-2.344 5.4-3.013 8.266-2.868.67-5.645 1.682-8.271 3.016-1.09-4.327-.597-7.769 1.461-9.827zm28.174-1.146c1.248 2.43 2.204 5.001 2.848 7.657-1.875-.399-3.77-.693-5.677-.881-1.472-1.21-3.007-2.343-4.598-3.392 2.334-1.417 4.827-2.553 7.427-3.384zm-17.209 0c2.6.831 5.093 1.967 7.427 3.384-1.594 1.047-3.13 2.179-4.6 3.392-1.906.19-3.8.485-5.675.881.642-2.656 1.599-5.227 2.848-7.657zm8.603 4.116c1.194.757 2.383 1.588 3.566 2.491-1.169-.072-2.359-.113-3.566-.113-1.207 0-2.397.041-3.566.113 1.18-.901 2.373-1.734 3.566-2.491zm0-11.074c3.006 0 5.781 2.194 7.981 5.861-2.803.916-5.484 2.172-7.981 3.741-2.498-1.568-5.178-2.824-7.981-3.741 2.204-3.667 4.975-5.861 7.981-5.861z" transform="translate(-530 -5773) translate(84 5711) translate(324)"/>
                </g>
            </g>
        </g>
    </g>
</svg>
