<svg xmlns="http://www.w3.org/2000/svg" width="60" height="71" viewBox="0 0 60 71">
    <g fill="none" fill-rule="evenodd">
        <g fill="#E64949" fill-rule="nonzero">
            <g>
                <g>
                    <g>
                        <path d="M119.158 68.415c0-1.974-1.601-3.575-3.576-3.576-9.926 0-17.165-2.718-23.431-8.817-1.39-1.363-3.616-1.363-5.006 0-6.272 6.1-13.5 8.817-23.431 8.817-1.975 0-3.576 1.601-3.576 3.576 0 1.66 0 3.375-.064 5.2-.33 17.371-.788 41.166 28.4 51.278.759.266 1.585.266 2.344 0 29.188-10.113 28.73-33.907 28.4-51.293-.036-1.81-.064-3.526-.064-5.185h.004zm-12.337 36.2c-3.33-2.643-6.925-4.932-10.728-6.83-.053-.025-.087-.079-.087-.138v-3.572c.503-.852.854-1.786 1.036-2.76.559-.179 1.059-1.073 1.53-2.746.43-1.523.437-2.512 0-3.017-.178-.212-.437-.34-.714-.352.097-.301.174-.61.229-.922.508-3.076.243-5.3-.793-6.616-.396-.533-.973-.905-1.623-1.045-.536-.829-1.275-1.508-2.146-1.972-1.358-.787-2.931-1.12-4.492-.953-.613.031-1.219.147-1.8.344-.664.247-1.291.582-1.866.995-.737.467-1.412 1.025-2.01 1.66-1.069 1.05-1.827 2.377-2.19 3.832-.281 1.227-.281 2.501 0 3.727.059.312.135.62.23.922-.277.012-.537.14-.715.352-.422.508-.413 1.495 0 3.017.472 1.665.972 2.567 1.53 2.746.183.986.533 1.933 1.037 2.8v3.576c0 .058-.032.11-.084.134-3.804 1.897-7.4 4.185-10.73 6.827-5.65-9.1-5.437-20.41-5.235-30.868v-1.874c8.946-.564 16.19-3.288 22.456-8.5 6.266 5.207 13.51 7.931 22.378 8.5v1.875c.237 10.445.444 21.76-5.213 30.86v-.002z" transform="translate(-366 -1738) translate(84 1242) translate(162 441) translate(60)"/>
                    </g>
                </g>
            </g>
        </g>
    </g>
</svg>
