<svg xmlns="http://www.w3.org/2000/svg" width="64" height="60" viewBox="0 0 64 60">
    <g fill="none" fill-rule="evenodd">
        <g fill="#17BD85">
            <g>
                <g>
                    <g>
                        <path d="M165.305 74.215l-4.713 4.713 13.906.234-.233-13.904-4.713 4.716-7.688-7.691s-.947-.944-3.067 1.178-1.178 3.064-1.178 3.064l7.686 7.69zM130.67 60c.366.003.66.3.663.665v58c-.002.366-.297.664-.663.668h-12.005c-.366-.004-.66-.302-.66-.668v-58c.002-.364.296-.66.66-.665h12.005zm-10.242 2.938v20.15h8.667v-20.15h-8.667zm43.578 20.395c.368.004.663.305.66.673v34.656c0 .367-.293.666-.66.673h-12.012c-.368-.004-.663-.305-.66-.673V84.006c0-.367.293-.666.66-.673h12.012zm-16.668-9.332c.366.003.661.302.66.668v44c0 .366-.294.663-.66.668h-12.01c-.368-.003-.664-.302-.663-.67v-44c.001-.367.296-.664.663-.668l12.01.002zm-10.245 2.27v13.635h8.667V76.271h-8.667zm43.578 18.4c.178 0 .348.072.472.198.125.126.193.298.191.475v23.318c0 .368-.295.667-.663.673h-12.006c-.178 0-.348-.072-.472-.198-.125-.126-.193-.298-.191-.475V95.34c0-.368.295-.668.663-.674l12.006.005zm-10.242 2.933v6.334h8.666v-6.334h-8.666zm-16.664-11.999v8.966h8.667v-8.966h-8.667z" transform="translate(-688 -1743) translate(84 1242) translate(162 441) translate(324)"/>
                    </g>
                </g>
            </g>
        </g>
    </g>
</svg>
