<svg xmlns="http://www.w3.org/2000/svg" width="54" height="69" viewBox="0 0 54 69">
    <g fill="none" fill-rule="evenodd">
        <g fill="#518DE2" fill-rule="nonzero">
            <g>
                <g>
                    <path d="M169.926 77.117v44.576h2.346v2.35h-44.579v-2.35h2.346V93.541h18.766v28.152h2.351V77.117h18.77zm-44.58 44.58v2.346H123v-2.346h2.346zm51.618 0v2.346h-2.346v-2.346h2.346zm-42.232-25.81h-2.346v25.806h2.346V95.887zm5.865 0h-2.346v25.806h2.347l-.001-25.806zm5.866 0h-2.346v25.806h2.347l-.001-25.806zm19.942 16.424h-11.729v9.382h2.346v-7.036h7.039v7.036h2.344v-9.382zm-10.554-4.692h-2.346v2.346h2.346v-2.346zm5.864-.003h-2.351l.004 2.346h2.347v-2.346zm5.865.003h-2.346v2.343h2.344l.002-2.343zm-11.729-7.039h-2.346v2.346h2.346v-2.346zm5.864-.003h-2.351l.004 2.346h2.347v-2.346zm5.865.003h-2.346v2.343h2.344l.002-2.343zm-11.729-7.039h-2.346v2.346h2.346v-2.346zm11.729 0h-2.346v2.343h2.344l.002-2.343zm-5.865-.003h-2.351l.004 2.346h2.347v-2.346zm-17.599-7.036v4.693l-3.52-.001v-2.346h-2.346v2.347h-3.519v-4.693h9.385zm11.735 0h-2.346v2.346h2.346v-2.346zm5.864-.003h-2.351l.004 2.346h2.347v-2.346zm5.865.003h-2.346v2.343h2.344l.002-2.343zm-25.809-4.693v2.346h-4.693v-2.346h4.693zm14.08-2.346h-2.346v2.346h2.346v-2.346zm5.864-.003h-2.351l.004 2.346h2.347V79.46zm5.865.003h-2.346v2.343h2.344l.002-2.343zm-.001-11.732v7.039h-2.346v-4.693h-2.346v4.693h-4.693v-4.693h-2.346v4.693h-2.346v-7.039h14.077zm-4.692-11.73v7.038h2.346v2.347h-9.385V63.04h2.346v-7.039h4.693z" transform="translate(-531 -1298) translate(84 1242) translate(324)"/>
                </g>
            </g>
        </g>
    </g>
</svg>
