<svg xmlns="http://www.w3.org/2000/svg" width="63" height="74" viewBox="0 0 63 74">
    <g fill="none" fill-rule="evenodd">
        <g fill="#213E64" fill-rule="nonzero">
            <g>
                <g>
                    <path d="M36.548 26.106v5.221H26.106v-5.221c0-2.883 2.338-5.221 5.221-5.221s5.221 2.338 5.221 5.221zM35.243 41.769c0 2.163-1.753 3.916-3.916 3.916-2.163 0-3.916-1.753-3.916-3.916 0-2.163 1.753-3.916 3.916-3.916 2.163 0 3.915 1.753 3.916 3.916z" transform="translate(-203 -731) translate(84 678) translate(119 53)"/>
                    <path d="M61.124 13.288L32.408.235c-.687-.313-1.475-.313-2.162 0L1.529 13.288C.598 13.712 0 14.641 0 15.664v20.885c0 21 10.687 28.985 30.409 36.382.59.221 1.241.221 1.832 0C51.963 65.575 62.653 57.6 62.653 36.549V15.664c0-1.023-.599-1.952-1.53-2.376h.001zM46.99 52.212c0 1.442-1.169 2.611-2.611 2.611H18.274c-1.442 0-2.611-1.169-2.611-2.611V33.938c0-1.442 1.169-2.611 2.611-2.611h2.611v-5.221c0-5.767 4.675-10.443 10.442-10.443 5.768 0 10.443 4.676 10.443 10.443v5.221h2.61c1.442 0 2.611 1.169 2.611 2.611l-.001 18.274z" transform="translate(-203 -731) translate(84 678) translate(119 53)"/>
                </g>
            </g>
        </g>
    </g>
</svg>
