<svg xmlns="http://www.w3.org/2000/svg" width="73" height="58" viewBox="0 0 73 58">
    <g fill="none" fill-rule="evenodd">
        <g fill="#17BD85" fill-rule="nonzero">
            <g>
                <g>
                    <g>
                        <path d="M72.305 29.357V42.92l-20.455.077-16.614 12.54c-1.142.956-2.568 1.507-4.056 1.567H5.185c-1.123.085-2.228-.32-3.03-1.11-.802-.79-1.224-1.888-1.157-3.012.157-2.222 1.961-3.97 4.187-4.056h15.1c.25 1.137.756 2.201 1.481 3.112 1.988 2.013 5.656 1.811 7.676-.148l7.416-7.229-1.182-1.33-7.4 7.223c-.945.937-2.316 1.301-3.602.958-1.285-.343-2.292-1.342-2.645-2.625-.178-.617-.2-1.267-.067-1.895.172-.697.539-1.331 1.058-1.827l13.552-13.159c.729-.684 1.526-1.291 2.38-1.811 1.045-.516 2.188-.801 3.353-.838h30zM16.888 0c8.68.025 15.712 7.056 15.737 15.737 0 8.691-7.046 15.737-15.737 15.737-8.691 0-15.737-7.046-15.737-15.737C1.151 7.046 8.197 0 16.888 0zm7.034 20.732c-.384-.103-.794.006-1.075.287-3.302 3.26-8.612 3.26-11.914 0-.435-.43-1.137-.43-1.57.004-.433.433-.435 1.135-.004 1.57 1.974 2.034 4.695 3.171 7.53 3.147 2.824-.028 5.526-1.157 7.53-3.147.281-.28.391-.69.289-1.074-.103-.384-.403-.684-.786-.787zm-.289-11.737c-1.242 0-2.249 1.007-2.249 2.249 0 1.242 1.007 2.249 2.249 2.249 1.238-.008 2.243-1.01 2.249-2.249 0-1.242-1.007-2.249-2.249-2.249zm-13.489-.002c-1.242 0-2.249 1.007-2.249 2.249.003 1.24 1.008 2.246 2.249 2.249 1.242 0 2.249-1.007 2.249-2.249 0-1.242-1.007-2.249-2.249-2.249z" transform="translate(-523 -7202) translate(85 7141) translate(324) translate(114 61)"/>
                    </g>
                </g>
            </g>
        </g>
    </g>
</svg>
