<svg xmlns="http://www.w3.org/2000/svg" width="90" height="55" viewBox="0 0 90 55">
    <g fill="none" fill-rule="evenodd">
        <g fill="#E64949" fill-rule="nonzero">
            <g>
                <g>
                    <path d="M121.278 63.002c2.79 0 4.183 1.128 4.182 3.384.047.862-.2 1.714-.7 2.417-.436.572-1.086.941-1.8 1.024-.809.06-1.595.293-2.306.683-.51.45-.817 1.086-.851 1.765-.179 1.682-.265 3.373-.257 5.064-.005 2.014-.153 4.025-.443 6.018-.203 1.428-.718 2.794-1.508 4-.86 1.211-1.967 2.228-3.246 2.985 1.22.72 2.291 1.67 3.154 2.798.822 1.184 1.366 2.538 1.593 3.962.337 2.035.49 4.097.457 6.16 0 1.876.044 3.264.129 4.155.037.705.21 1.397.51 2.036.19.402.517.724.922.909.601.198 1.22.336 1.849.412.716.092 1.364.474 1.792 1.055.501.693.751 1.536.71 2.39 0 2.293-1.394 3.44-4.182 3.441-1.607.028-3.196-.342-4.625-1.078-1.324-.692-2.417-1.755-3.144-3.06-.758-1.391-1.15-2.953-1.14-4.537-.057-2.883-.114-5.196-.169-6.94-.004-1.134-.09-2.266-.257-3.388-.183-1.047-.618-2.033-1.268-2.874-.637-.706-1.375-1.313-2.191-1.8-.71-.406-1.357-.915-1.92-1.508-.43-.62-.63-1.369-.568-2.12-.067-1.274.566-2.484 1.65-3.157 1.051-.614 2.03-1.344 2.918-2.177.605-.647 1.027-1.443 1.224-2.306.244-1.007.382-2.037.412-3.073.04-1.109.096-3.778.169-8.009-.053-2.342.844-4.606 2.488-6.275 1.733-1.618 4.047-2.468 6.416-2.356zm65.639 2.344c1.646 1.668 2.544 3.932 2.488 6.275.075 4.23.133 6.9.173 8.009.028 1.036.166 2.066.412 3.073.197.864.62 1.66 1.227 2.306.887.832 1.865 1.562 2.914 2.177 1.084.673 1.717 1.883 1.65 3.157.062.751-.14 1.5-.568 2.12-.563.594-1.21 1.102-1.92 1.508-.816.488-1.554 1.094-2.191 1.8-.647.842-1.082 1.828-1.268 2.874-.167 1.122-.252 2.254-.253 3.388-.057 1.743-.115 4.056-.173 6.94.013 1.585-.38 3.147-1.14 4.537-.727 1.305-1.82 2.369-3.144 3.06-1.428.736-3.015 1.106-4.621 1.078-2.79.003-4.186-1.143-4.186-3.437-.04-.854.21-1.697.71-2.39.43-.58 1.076-.96 1.792-1.055.628-.076 1.248-.214 1.849-.412.405-.185.731-.507.922-.909.3-.64.473-1.33.51-2.036.084-.891.127-2.276.129-4.155-.035-2.063.118-4.125.457-6.16.228-1.422.775-2.775 1.6-3.956.863-1.127 1.935-2.078 3.157-2.8-1.278-.76-2.385-1.776-3.251-2.985l.001-.003c-.79-1.207-1.304-2.572-1.508-4-.287-1.993-.435-4.004-.443-6.018.01-1.691-.076-3.382-.257-5.064-.034-.68-.34-1.316-.851-1.765-.71-.39-1.497-.623-2.306-.683-.717-.08-1.37-.447-1.811-1.019-.5-.704-.746-1.555-.7-2.417 0-2.255 1.395-3.383 4.186-3.383 2.367-.114 4.68.731 6.414 2.345zm-21.128 37.406c0 6.053-9.087 6.053-9.087 0s9.087-6.058 9.087 0zm.824-2.572c1.352.092 2.402 1.216 2.402 2.572s-1.05 2.48-2.402 2.572c.787-1.624.787-3.52 0-5.144zm-10.725-.385c-.343.8-.546 1.654-.6 2.523 0 .931.217 2.523.599 2.524h-20.519c-.914.018-1.766-.459-2.228-1.247-.462-.788-.462-1.765 0-2.553s1.314-1.265 2.228-1.247zm-8.738-9.472c0 6.058-9.087 6.058-9.087 0s9.087-6.053 9.087 0zm-9.902-3.141c-.354 1.016-.556 2.078-.6 3.153.044 1.075.246 2.137.6 3.153h-1.88c-1.433 0-2.59-1.725-2.59-3.153s1.162-3.153 2.59-3.153zm29.183 0c1.433 0 2.59 1.725 2.59 3.153s-1.158 3.153-2.59 3.153h-18.466c.354-1.016.556-2.078.6-3.153-.046-1.075-.248-2.137-.6-3.153zm-4.784-9.286c0 6.058-9.087 6.058-9.087 0s9.087-6.058 9.087 0zm-9.902-2.065c-.383 0-.6 1.592-.6 2.523.053.87.255 1.723.598 2.524h-16.377c-.914.018-1.766-.459-2.228-1.247-.462-.788-.462-1.765 0-2.553s1.314-1.265 2.228-1.247zm14.689-.002c.914-.018 1.766.459 2.228 1.247.462.788.462 1.765 0 2.553s-1.314 1.265-2.228 1.247h-3.969c.344-.8.547-1.654.6-2.523 0-.931-.219-2.523-.6-2.523h3.966z" transform="translate(-839 -7204) translate(85 7141) translate(648)"/>
                </g>
            </g>
        </g>
    </g>
</svg>
