<svg xmlns="http://www.w3.org/2000/svg" width="56" height="75" viewBox="0 0 56 75">
    <g fill="none" fill-rule="evenodd">
        <g fill="#213E64" fill-rule="nonzero">
            <g>
                <g>
                    <g>
                        <path d="M43.499 55.63c-.898.918-2.124 1.444-3.408 1.461-.47.005-.938-.078-1.379-.244l-3.9-1.217-3.084 2.84c-.082.082-.244.162-.323.244l4.869 15.1c.09.234.295.406.542.456.246.05.5-.03.675-.212l3.569-4.546c.165-.23.459-.328.729-.244l5.519 1.623c.25.094.531.027.71-.17.18-.198.22-.485.102-.724L43.499 55.63zM22.235 55.63l-3.9 1.217c-.443.159-.909.241-1.379.244-1.282-.018-2.505-.543-3.401-1.461l-4.62 14.285c-.074.237-.017.496.15.68.167.183.419.265.662.214l5.519-1.623c.27-.087.565.012.729.244l3.569 4.546c.166.199.427.291.681.24.254-.05.46-.237.536-.484l4.869-15.1c-.082-.082-.244-.162-.323-.244l-3.092-2.758zM55.754 23.01c.376-.658.201-1.493-.406-1.946l-4.219-2.923c-.401-.314-.64-.791-.65-1.3l.323-5.113c.066-.755-.467-1.43-1.217-1.541l-5.115-.811c-.512-.072-.946-.413-1.135-.894L41.47 3.613c-.282-.708-1.05-1.093-1.785-.894L34.734 4.18c-.485.147-1.012.022-1.379-.328L29.542.362c-.557-.489-1.39-.489-1.946 0l-3.9 3.49c-.372.34-.894.463-1.379.323L17.37 2.719c-.74-.24-1.534.159-1.785.894L13.639 8.4c-.19.48-.624.821-1.135.894l-5.113.812c-.75.11-1.285.784-1.221 1.539l.323 5.113c-.011.509-.25.986-.65 1.3l-4.219 2.923c-.643.43-.823 1.295-.406 1.946l2.517 4.463c.244.456.244 1.005 0 1.461l-2.517 4.463c-.376.658-.201 1.493.406 1.946l4.219 2.923c.401.314.64.791.65 1.3l-.323 5.114c-.066.755.467 1.43 1.217 1.541l5.113.812c.512.072.946.413 1.135.894l1.946 4.787c.282.708 1.05 1.093 1.785.894l4.951-1.461c.484-.149 1.011-.025 1.379.323l3.813 3.49c.557.489 1.39.489 1.946 0l3.813-3.49c.372-.34.894-.463 1.379-.323l4.951 1.461c.74.24 1.534-.159 1.785-.894l1.946-4.787c.192-.481.628-.822 1.141-.892l5.113-.812c.75-.111 1.282-.786 1.217-1.541l-.32-5.034c.011-.509.25-.986.65-1.3l4.219-2.923c.643-.43.823-1.295.406-1.946l-2.517-4.463c-.244-.456-.244-1.005 0-1.461l2.516-4.462zm-15.5 7.709c.799 1.39.327 3.164-1.056 3.975 0 0 1.056 3.084-3.246 3.975-1.477.221-2.974.276-4.463.162-1.705 0-3.328-.082-4.707-.162-3.812-.406-3.812-6.98-3.812-7.217v5.436c0 1.217-.406 1.705-.488 1.705-.35.266-.778.41-1.217.406h-3.329c-.582.002-1.14-.228-1.551-.639-.411-.411-.641-.97-.639-1.551V28.04c-.002-.582.228-1.14.639-1.551.411-.411.97-.641 1.551-.639h3.328c.545-.023 1.074.183 1.461.567.255-.756.67-1.448 1.217-2.029 2.435-1.867 5.031-9.009 5.031-9.009s-.406-2.6.812-2.6 4.058.812 2.352 6 0 4.381 0 4.381c.406-.082.729-.162 1.135-.244 0 0 4.951-1.135 6.815.567.83.82.965 2.11.323 3.084.548.56.84 1.322.81 2.105-.029.784-.38 1.52-.968 2.038l.002.009z" transform="translate(-1178 -731) translate(84 678) translate(972) translate(122 53)"/>
                    </g>
                </g>
            </g>
        </g>
    </g>
</svg>
