<svg xmlns="http://www.w3.org/2000/svg" width="80" height="52" viewBox="0 0 80 52">
    <g fill="none" fill-rule="evenodd">
        <g fill="#17BD85" fill-rule="nonzero">
            <g>
                <g>
                    <g>
                        <path d="M14.647 8.728c0-4.82 3.906-8.728 8.726-8.729 4.82-.001 8.728 3.905 8.73 8.725.002 4.82-3.904 8.729-8.724 8.731-2.316.004-4.539-.914-6.177-2.551-1.639-1.637-2.558-3.86-2.555-6.176zm35.432 10.973c.689-.209 1.212-.77 1.373-1.472.16-.701-.067-1.435-.596-1.923-.53-.487-1.279-.654-1.965-.437l-20.626 5.95-14.279-.005c-.698-.027-1.357.327-1.72.924L.366 40.849c-.31.435-.428.977-.328 1.501.099.525.408.986.855 1.277.311.209.686.302 1.059.263.698.027 1.357-.327 1.72-.924l8.33-12.559v17.321c.026 1.084.899 1.957 1.983 1.983h14.678c1.084-.026 1.957-.899 1.983-1.983V25.254l19.433-5.553zM77.443 1.456H41.351c-1.084.026-1.957.899-1.983 1.983v11.1l8.593-2.51c.515-.153 1.048-.241 1.585-.263 2.675-.03 5.024 1.772 5.686 4.364.911 3.177-.924 6.491-4.1 7.405l-11.9 3.439v5.686c.026 1.084.899 1.957 1.983 1.983h16.129v3.832l-7.8 9.254c-.65.853-.536 2.063.263 2.778.376.307.838.491 1.322.527.591-.02 1.154-.256 1.585-.661l4.765-5.682v3.966c0 1.095.888 1.983 1.983 1.983 1.095 0 1.983-.888 1.983-1.983v-3.966l4.761 5.686c.38.477.978.726 1.585.661.492.001.966-.188 1.322-.527.802-.714.917-1.926.263-2.778l-7.8-9.254v-3.832h16.13c1.084-.026 1.957-.899 1.983-1.983V3.44c-.23-1.084-1.142-1.889-2.246-1.983v-.001z" transform="translate(-1166 -4195) translate(84 4131) translate(972) translate(110 64)"/>
                    </g>
                </g>
            </g>
        </g>
    </g>
</svg>
