<svg xmlns="http://www.w3.org/2000/svg" width="68" height="79" viewBox="0 0 68 79">
    <g fill="none" fill-rule="evenodd">
        <g fill="#FFF" fill-rule="nonzero">
            <g>
                <g>
                    <path d="M4.797 28.32c9.335-8.773 21.776-4.226 26.605 1.258 1.601 1.817-.22 4.04-2.457 2.766-10.211-5.805-16.438-1.258-18.57 2.898-3.335 6.497.176 15.63 11.938 16.375 7.293-21.054 26.313-31.859 39.348-22.875.472.329.941.68 1.398 1.059 12.334 12.582-2.9 36.171-22.396 47.687-1.07.637-2.949 1.344-4.609 1.325-1.93-.024-3.91-.715-5.23-1.325-1.09-.5-2.16-1.035-3.211-1.597C5.207 63.93-7.234 39.63 4.797 28.32zM35.062.684c6.407 0 11.598 5.191 11.598 11.598 0 6.406-5.191 11.598-11.598 11.598-6.407 0-11.598-5.191-11.598-11.598 0-6.407 5.191-11.598 11.598-11.598z" transform="translate(-449 -1465) translate(128 1358) translate(321 107)"/>
                </g>
            </g>
        </g>
    </g>
</svg>
