<svg xmlns="http://www.w3.org/2000/svg" width="143" height="71" viewBox="0 0 143 71">
    <g fill="none" fill-rule="evenodd">
        <rect width="143" height="71" fill="#FFF" rx="7"/>
        <g>
            <path fill="#518DE2" d="M47.98 7.41c-.034-.076-.115-.13-.195-.124l-6.104.12-1.09-1.091.122-6.104c.002-.084-.048-.16-.125-.194-.077-.033-.167-.015-.227.044L34.35 6.07c-.038.038-.058.088-.06.142l-.098 4.971-14.904 14.902 2.62 2.62 14.904-14.901 4.97-.098c.053-.002.103-.023.14-.06l6.012-6.011c.06-.059.079-.148.045-.225z" transform="translate(48 9)"/>
            <path fill="#E64949" d="M24.719 27.398c0 2.275-1.846 4.12-4.12 4.12-2.276 0-4.122-1.845-4.122-4.12 0-2.277 1.846-4.121 4.121-4.121 2.275 0 4.12 1.844 4.12 4.12" transform="translate(48 9)"/>
            <path fill="#E64949" d="M34.906 19.209c1.417 2.466 2.175 5.268 2.175 8.189 0 4.402-1.714 8.542-4.827 11.654-3.115 3.113-7.252 4.83-11.656 4.827-4.404 0-8.542-1.714-11.656-4.827-6.425-6.427-6.425-16.883.002-23.31 3.115-3.113 7.252-4.827 11.656-4.827 2.921 0 5.723.758 8.188 2.175l2.998-2.996c-3.302-2.144-7.154-3.3-11.186-3.3-5.502 0-10.677 2.144-14.568 6.033-8.036 8.035-8.036 21.106-.002 29.138C9.92 45.856 15.094 48 20.598 48c5.502 0 10.677-2.144 14.569-6.035 3.891-3.89 6.033-9.065 6.033-14.567 0-4.031-1.155-7.883-3.298-11.185l-2.996 2.996z" transform="translate(48 9)"/>
            <path fill="#000" fill-rule="nonzero" d="M28.948 25.167c.766 2.885.027 6.092-2.232 8.35-1.635 1.633-3.806 2.533-6.118 2.533-2.313 0-4.484-.9-6.12-2.533-3.372-3.373-3.372-8.863 0-12.238 1.636-1.633 3.809-2.535 6.12-2.535.766 0 1.514.108 2.235.3l3.208-3.208c-1.68-.794-3.531-1.213-5.443-1.213-3.413 0-6.62 1.33-9.034 3.742-2.413 2.412-3.742 5.62-3.742 9.034 0 3.41 1.33 6.618 3.742 9.033 2.415 2.413 5.62 3.742 9.034 3.742 3.412 0 6.618-1.33 9.031-3.742 3.906-3.906 4.748-9.735 2.525-14.47l-3.206 3.205z" transform="translate(48 9)"/>
        </g>
    </g>
</svg>
