<svg xmlns="http://www.w3.org/2000/svg" width="120" height="120" viewBox="0 0 120 120">
    <path fill="#FDCD2D" d="M59.18 45.02c2.845-.084 5.23 2.133 5.348 4.978.567-.201 1.162-.309 1.762-.314h.02c1.368-.004 2.68.54 3.646 1.505.994.989 1.556 2.33 1.556 3.731h-.004l.014 3.886c.431-.117.872-.178 1.317-.183h.024c1.378-.005 2.704.549 3.67 1.533.98.984 1.528 2.31 1.528 3.698l.53 16.893c.004 1.183.042 2.373.075 3.564.272 3.914.06 7.851-.633 11.718-.937 3.81-2.822 7.322-5.48 10.21-.286.388-.464.843-.52 1.32l1.434 10.308c.066.492-.06.994-.36 1.388-.3.398-.746.66-1.238.726-.09.014-.174.019-.263.019-.932 0-1.725-.69-1.851-1.617l-1.467-10.622c.009-1.453.515-2.859 1.439-3.98 2.24-2.418 3.834-5.361 4.64-8.554.628-3.567.811-7.2.553-10.809-.037-1.148-.07-2.301-.08-3.445l-.046-.365-.483-16.692c.01-.417-.15-.82-.44-1.12-.263-.272-.629-.427-1.008-.427-.825.024-1.472.699-1.454 1.52l.493 18.247c.014.497-.17.98-.511 1.34-.343.361-.816.572-1.313.586-.497.014-.98-.168-1.34-.515-.361-.343-.572-.816-.586-1.313h.004l-.394-27.304c0-.403-.159-.792-.445-1.078-.276-.257-.633-.407-1.012-.417-.727.028-1.374.464-1.678 1.125l.468 27.627c.019 1.036-.806 1.889-1.842 1.903-1.026 0-1.87-.811-1.903-1.842l-.544-31.959c.005-.413-.154-.81-.45-1.106-.262-.263-.623-.413-.998-.413-.825.019-1.472.694-1.458 1.514h.005l.539 31.935c.014 1.036-.811 1.889-1.847 1.907h-.033c-1.022-.004-1.856-.82-1.87-1.846l-.413-24.327c-.06-.183-.094-.37-.098-.558-.024-.342-.174-.66-.427-.895-.36-.375-.858-.59-1.378-.59-.82.023-1.467.698-1.453 1.513l.005.005.52 25.504c.01 2.095-1.163 2.695-1.669 2.854-.506.16-1.805.356-2.986-1.322l-5.798-8.207c-.385-.436-.928-.703-1.505-.736-.553-.019-1.088.192-1.481.586-.699.675-1.046 1.875 1.734 5.61 2.203 2.94 3.605 6.404 4.074 10.046.735 4.27 1.926 9.108 6.768 12.52.033.023.061.052.094.075.038.028.08.042.117.07.164.122 3.835 2.724 7.383.83.91-.488 2.044-.14 2.531.769.488.914.146 2.048-.768 2.536-1.388.75-2.94 1.134-4.514 1.134-1.004-.01-2.007-.15-2.972-.431l-.005.004-.69 8.836c-.074.975-.885 1.725-1.865 1.725h-.07l-.075-.005c-1.036-.08-1.805-.984-1.725-2.015l.764-9.769c-.028-.267-.16-.515-.361-.693-6.52-4.594-7.683-11.33-8.306-14.948-.375-3.061-1.543-5.972-3.39-8.447-1.401-1.884-5.123-6.89-1.321-10.551 1.125-1.092 2.648-1.683 4.218-1.631 1.632.08 3.155.825 4.224 2.057h-.005l.136.17 3.633 5.141-.44-21.67c-.034-2.897 2.282-5.268 5.179-5.31h.028c.614.004 1.224.112 1.8.313l-.037-2.151c-.061-2.845 2.184-5.212 5.03-5.301zm53.503 6.558c1.974.005 3.853.825 5.199 2.268 2.822 3.136 2.826 7.899 0 11.035v.004l-8.297 8.433c-.464.483-1.111.754-1.782.754-.689 0-1.34-.28-1.814-.778l-8.25-8.385c-2.84-3.136-2.854-7.913-.028-11.063 1.294-1.387 3.085-2.203 4.978-2.263 1.899-.061 3.736.642 5.11 1.95 1.317-1.257 3.065-1.955 4.884-1.955zm-95.603 0c1.974.004 3.858.824 5.199 2.268 2.827 3.136 2.827 7.898.005 11.034v.005l-8.297 8.432c-.47.483-1.111.755-1.786.755-.69 0-1.341-.281-1.814-.778h.004l-8.25-8.386c-2.845-3.136-2.855-7.912-.028-11.062 1.289-1.387 3.08-2.203 4.973-2.264 1.899-.06 3.736.642 5.11 1.95 1.317-1.256 3.066-1.955 4.884-1.955zm95.603 3.75c-.942 0-1.842.398-2.475 1.092h.005l-.014.014-1.036 1.097c-.755.75-1.974.75-2.728 0v-.005l-1.046-1.106c-.632-.694-1.532-1.092-2.475-1.092-.942 0-1.842.398-2.475 1.096-1.425 1.702-1.425 4.181 0 5.883v.005l7.36 7.48 7.387-7.508c1.407-1.707 1.393-4.172-.028-5.864-.637-.694-1.533-1.092-2.475-1.092zm-95.603 0c-.942 0-1.837.398-2.475 1.091h.005l-.014.014-1.036 1.097c-.755.75-1.974.75-2.724 0l-.004-.004-1.046-1.107c-.632-.693-1.532-1.092-2.475-1.092-.942 0-1.842.399-2.475 1.097-1.425 1.702-1.425 4.181 0 5.883l7.355 7.48 7.388-7.508c1.41-1.702 1.397-4.167-.024-5.86-.632-.693-1.532-1.092-2.475-1.092zM21.21.283c.896-.52 2.045-.215 2.565.68.108.065.225.103.347.122h.131c6.9 0 11.043 4.05 13.28 6.23 1.753 1.893 3.975 3.29 6.44 4.044 1.992.629 7.29 2.283 6.328 6.942-.276 1.369-1.092 2.569-2.268 3.328-1.247.792-2.761 1.05-4.2.713l-.202-.056-4.303-1.463L49.72 34.67c.746 1.017 1.05 2.292.84 3.535-.212 1.246-.915 2.353-1.95 3.07-.357.243-.741.44-1.15.586l.826 1.106c.745 1.017 1.045 2.292.834 3.534-.206 1.242-.914 2.348-1.95 3.066-1.964 1.364-4.636 1.073-6.262-.685-.282.342-.605.642-.961.9-2.141 1.483-5.07.995-6.613-1.105v.005l-1.73-2.39c-.98 1.016-2.358 1.546-3.769 1.448-1.41-.099-2.704-.816-3.534-1.96 0 0-9.858-12.876-10.463-13.668-2.132-2.56-3.933-5.381-5.353-8.395-1.228-3.122-1.626-6.506-1.153-9.83 0-.314-.07-.623-.21-.909L.534 6.111c-.717-.745-.69-1.931.056-2.648.75-.717 1.936-.694 2.649.056l6.81 7.12c.765 1.064 1.121 2.367 1.009 3.67-.399 2.681-.094 5.414.876 7.945 1.303 2.719 2.94 5.269 4.88 7.58L27.31 43.54c.329.478.985.595 1.463.267.206-.146.351-.37.394-.619.042-.244-.014-.487-.16-.684l-9.304-12.22c-.629-.826-.47-2.002.351-2.626.825-.628 2.002-.468 2.63.352L36.37 46.478c.338.45.97.554 1.43.23.29-.197.492-.501.562-.844.038-.164.005-.337-.093-.478l-.005.005v-.005L24.497 26.918c-.619-.83-.445-2.006.385-2.625.83-.619 2.001-.445 2.62.384l16.083 21.567c.332.46.97.567 1.439.249.215-.146.36-.37.403-.624.042-.239-.02-.487-.164-.684L29.198 23.637c-.619-.83-.445-2.006.384-2.625.83-.618 2.007-.445 2.625.385L44.42 37.783c.14.103.267.23.37.37.488.39 1.172.408 1.674.047.21-.145.356-.37.403-.618.037-.244-.02-.493-.164-.69L33.81 19.728c-1.144-1.58-.562-2.7-.258-3.112.727-.914 1.997-1.2 3.042-.68l8.129 2.761c.436.098.89.019 1.27-.21.328-.217.558-.554.633-.943.084-.399.276-1.336-3.774-2.606-3.028-.933-5.76-2.635-7.936-4.94-2.56-2.499-5.704-5.162-10.66-5.162h-.14c-1.453-.009-2.803-.759-3.586-1.987-.52-.895-.215-2.044.68-2.564zM97.389.058c.482-.122.989-.051 1.41.202.896.534 1.191 1.687.666 2.587-.783 1.228-2.133 1.978-3.586 1.988h-.14c-4.955 0-8.096 2.662-10.66 5.16-2.17 2.306-4.908 4.008-7.936 4.94-4.05 1.271-3.858 2.209-3.773 2.607.075.389.304.726.637.942.38.23.834.31 1.27.211v.005l8.124-2.766c1.036-.567 2.33-.281 3.037.666.704.947.605 2.268-.234 3.103L73.275 36.92c-.131.192-.183.43-.14.66.042.249.187.474.398.62.506.36 1.186.342 1.673-.048.104-.14.23-.267.37-.37l12.217-16.386c.619-.83 1.79-1.003 2.62-.385.83.619 1.003 1.795.385 2.625L74.72 45.208c-.136.192-.188.431-.15.66.047.254.187.479.403.624.46.314 1.083.216 1.425-.225l16.097-21.59c.619-.83 1.795-1.003 2.625-.384.83.619.999 1.795.38 2.625L81.732 45.387c-.098.14-.136.314-.094.478.07.342.272.646.558.843.46.324 1.092.22 1.43-.23L97.318 28.01c.623-.82 1.8-.98 2.625-.351.825.623.984 1.8.356 2.624l-9.333 12.253c-.126.192-.178.427-.136.652.043.253.188.478.404.623.459.319 1.092.22 1.425-.234 0 .005 9.937-12.98 10.523-13.743 1.94-2.311 3.577-4.856 4.88-7.58.975-2.526 1.275-5.264.881-7.94-.117-1.308.24-2.611 1.003-3.675l.127-.15 6.684-6.97c.717-.75 1.903-.773 2.649-.056.75.717.773 1.903.056 2.648h.005l-6.586 6.867c-.146.286-.216.595-.216.914.478 3.319.075 6.708-1.153 9.83-1.42 3.013-3.22 5.83-5.353 8.39L95.668 45.815c-.9 1.22-2.325 1.936-3.84 1.922-.979.005-1.935-.295-2.742-.853-.248-.178-.482-.375-.693-.595v-.005l-1.73 2.39c-1.542 2.1-4.472 2.588-6.61 1.107-.356-.258-.68-.558-.96-.9-1.627 1.758-4.304 2.048-6.268.68-1.04-.713-1.744-1.824-1.95-3.066-.215-1.233.085-2.498.82-3.51l.84-1.126c-.404-.145-.793-.342-1.149-.586-1.031-.717-1.734-1.814-1.945-3.051-.216-1.238.08-2.508.815-3.525l10.42-13.874-4.509 1.519c-1.443.337-2.957.08-4.204-.713-1.172-.759-1.992-1.959-2.269-3.328-.956-4.659 4.34-6.318 6.333-6.942 2.466-.754 4.683-2.151 6.436-4.045 2.235-2.18 6.384-6.23 13.28-6.23h.135c.136-.018.267-.074.375-.163.249-.427.656-.74 1.135-.863z"/>
</svg>
