<svg xmlns="http://www.w3.org/2000/svg" width="64" height="64" viewBox="0 0 64 64">
    <g fill="none" fill-rule="evenodd">
        <g fill="#FFF" fill-rule="nonzero">
            <g>
                <g>
                    <g>
                        <path d="M145.932 0C148.201 0 150 1.802 150 4.068v3.065c1.068.333 2.068.734 3 1.2l2.195-2.132c1.534-1.534 4.201-1.534 5.735 0l6.2 6.2c.8.735 1.2 1.8 1.2 2.867 0 1.068-.4 2.068-1.2 2.868l-2.132 2.132c.466.933.867 1.933 1.2 2.933h3.068c2.268 0 4.068 1.8 4.068 4.065l.002 8.667c0 2.268-1.802 4.067-4.067 4.067H166.2c-.333 1.068-.734 2.068-1.2 3l2.203 2.198c.8.735 1.2 1.8 1.2 2.868 0 1.067-.4 2.067-1.2 2.867l-6.2 6.2c-1.535 1.534-4.201 1.534-5.735 0L153.136 55c-.932.467-1.932.868-2.932 1.201v3.068c0 2.268-1.803 4.067-4.068 4.067H137.4c-2.268 0-4.068-1.802-4.068-4.067V56.2c-1.067-.333-2.067-.734-3-1.2l-2.197 2.2c-1.534 1.534-4.201 1.534-5.735 0l-6.2-6.2c-.8-.735-1.2-1.735-1.2-2.868 0-1.133.465-2.133 1.202-2.864l2.133-2.133c-.466-.932-.867-1.932-1.2-2.932h-3.068c-2.269 0-4.068-1.803-4.068-4.068V27.4c0-2.268 1.802-4.068 4.068-4.068h3.065c.333-1.067.734-2.067 1.2-3l-2.135-2.195c-1.599-1.601-1.599-4.135 0-5.734l6.2-6.2c1.534-1.535 4.201-1.535 5.735 0l2.133 2.132c.932-.466 1.932-.867 2.932-1.2V4.067C133.198 1.799 135 0 137.266 0zm0 4.065l-8.666.068v4.54c0 .931-.667 1.734-1.534 2-1.732.533-3.398 1.2-4.932 2.067-.8.466-1.8.333-2.466-.333l-3.2-3.2-6.134 6.2 3.2 3.132c.667.667.8 1.667.334 2.467-.867 1.53-1.534 3.197-2 4.932-.265.935-1.068 1.534-2 1.534H114l.068 8.666 4.534-.067c.932 0 1.734.666 2 1.534.469 1.731 1.2 3.398 2.068 4.932.466.8.333 1.8-.334 2.466l-3.2 3.2 6.2 6.133 3.133-3.2c.398-.399.932-.6 1.466-.6.334 0 .667.066 1 .266 1.531.868 3.198 1.534 4.932 2 .935.266 1.534 1.068 1.534 2v4.534l8.667-.067-.068-4.534c0-.933.667-1.735 1.534-2 1.732-.534 3.399-1.2 4.932-2.068.8-.466 1.8-.333 2.467.333l3.203 3.198 6.132-6.2-3.2-3.133c-.667-.667-.8-1.667-.333-2.466.867-1.531 1.533-3.198 2-4.933.265-.934 1.067-1.533 2-1.533h4.601l-.068-8.667-4.533.068c-.933 0-1.735-.667-2-1.534-.47-1.732-1.2-3.399-2.068-4.932-.466-.8-.333-1.8.333-2.467l3.198-3.203-6.2-6.133-3.133 3.201c-.667.667-1.667.8-2.466.333-1.532-.867-3.198-1.534-4.933-2-.935-.265-1.533-1.067-1.533-2V4.065zM134.934 19.6c1-.6 2.2-.531 3.2.068l14.935 9.265c.933.602 1.532 1.602 1.532 2.734 0 1.136-.602 2.136-1.534 2.735l-14.932 9.333c-.466.333-1.068.466-1.667.466-.534 0-1.068-.135-1.534-.4-1.067-.6-1.666-1.668-1.666-2.8V22.398c0-1.2.666-2.265 1.666-2.8zm2.4 4.4v15.334l12.334-7.666L137.334 24z" transform="translate(-318 -483) translate(182 453) translate(0 3) translate(26 27)"/>
                    </g>
                </g>
            </g>
        </g>
    </g>
</svg>
