<svg xmlns="http://www.w3.org/2000/svg" width="143" height="71" viewBox="0 0 143 71">
    <g fill="none" fill-rule="evenodd">
        <rect width="143" height="71" fill="#FFF" rx="7"/>
        <g fill-rule="nonzero">
            <path fill="#17BD85" d="M10.078 34.351v-1.624H8.623v1.624c-.84.276-1.454 1.086-1.454 2.051 0 .823.44 1.563 1.147 1.932l1.418.738c.213.11.344.332.344.578 0 .357-.28.647-.622.647h-.21c-.343 0-.623-.29-.623-.647v-.867H7.17v.867c0 .965.614 1.773 1.454 2.051v1.624h1.455V41.7c.84-.276 1.454-1.086 1.454-2.051 0-.824-.44-1.563-1.147-1.932l-1.418-.739c-.213-.11-.344-.33-.344-.577 0-.357.28-.647.622-.647h.211c.342 0 .622.29.622.647v.11h1.454v-.11c0-.965-.614-1.775-1.454-2.051z" transform="translate(42 12)"/>
            <path fill="#518DE2" d="M45.67 3.905l-.096-.662h-5.152c-3.499 0-6.886-1.023-9.797-2.957L30.193 0l-.43.286c-2.91 1.934-6.297 2.957-9.797 2.957h-5.152l-.096.662c-.012.077-1.046 7.313-1.729 13.446-.335-.139-.704-.218-1.091-.218H9.78c-1.093 0-2.034.633-2.499 1.544H5.286c-1.634 0-2.963 1.325-2.963 2.955 0 .79.307 1.53.867 2.09l1.32 1.315c-.829.351-1.413 1.173-1.413 2.128 0 1.053.712 1.933 1.68 2.215L1.63 33.863C.563 35.379 0 37.162 0 39.014 0 43.968 4.045 48 9.015 48h.55c4.97 0 9.016-4.032 9.016-8.986 0-1.852-.564-3.635-1.63-5.153l-3.147-4.481c.298-.087.569-.228.805-.417 3.29 3.486 9.58 7.323 12.253 8.882 1.009.584 2.16.895 3.331.895 1.171 0 2.323-.31 3.331-.897C38.93 34.696 48 28.823 48 24.85c0-4.632-2.235-20.28-2.33-20.945zM3.87 21.632c0-.78.635-1.412 1.415-1.412h1.682v1.543h1.549v-1.829c0-.692.567-1.257 1.263-1.257h2.118c.697 0 1.264.565 1.264 1.257 0 .116-.016.234-.049.346l-1.31 4.57H6.514l-2.23-2.22c-.267-.269-.414-.622-.414-.998zm13.162 17.382c0 4.103-3.349 7.442-7.467 7.442h-.55c-4.119 0-7.467-3.34-7.467-7.442 0-1.534.466-3.01 1.349-4.268l3.699-5.266h5.386l3.699 5.266c.884 1.258 1.35 2.734 1.35 4.268zM13.16 27.936H5.419c-.428 0-.775-.347-.775-.771 0-.425.347-.772.775-.772h7.742c.427 0 .774.347.774.772 0 .424-.347.771-.774.771zm19.581 8.573c-1.542.9-3.555.9-5.1 0-2.706-1.574-9.182-5.53-12.201-8.936.025-.133.042-.268.042-.409 0-1.192-.913-2.166-2.076-2.29l1.194-4.169c.071-.25.108-.509.108-.771 0-.452-.118-.872-.308-1.25.56-5.267 1.464-11.823 1.756-13.9h3.809c3.635.002 7.16-1.013 10.227-2.938 3.068 1.925 6.593 2.94 10.228 2.94h3.809c.433 3.088 2.222 16.068 2.222 20.063 0 2.236-5.38 6.812-13.71 11.66z" transform="translate(42 12)"/>
            <path fill="#17BD85" d="M44.883 25.415c-.03-3.624-1.477-14.672-1.92-17.973l-.09-.676H40.42c-3.423 0-6.819-.87-9.818-2.513l-.368-.201-.367.201c-3 1.644-6.395 2.513-9.818 2.513h-2.452l-.093.676c-.443 3.3-1.89 14.347-1.92 17.973v.127l.039.122c.522 1.616 4.765 5.533 12.849 10.32.532.317 1.141.484 1.762.484.62 0 1.23-.169 1.762-.483 8.084-4.786 12.326-8.705 12.849-10.321l.038-.122v-.127zm-18.505 3.236c-.426 0-.77-.351-.77-.781v-9.38c0-.43.344-.781.77-.781h7.71c.426 0 .772.352.772.781v9.38c0 .43-.346.781-.772.781h-7.71zm6.168-12.505H27.92V13.8c0-1.294 1.037-2.345 2.313-2.345 1.276 0 2.313 1.051 2.313 2.345v2.345zM17.13 25.279c.06-3.455 1.301-13.106 1.814-16.95h1.106c3.254 0 6.48-.738 9.414-2.13v3.774c-1.758.363-3.084 1.942-3.084 3.83v2.345c-1.276 0-2.313 1.05-2.313 2.344v9.38c0 1.293 1.037 2.345 2.313 2.345h3.084v4.51c-.071-.032-.146-.05-.212-.089-8.223-4.869-11.636-8.312-12.122-9.36zm14.087 9.356c-.066.039-.143.058-.212.088v-4.508h3.084c1.276 0 2.313-1.052 2.313-2.345v-9.38c0-1.293-1.037-2.344-2.313-2.344V13.8c0-1.888-1.327-3.467-3.084-3.83V6.2c2.933 1.39 6.16 2.13 9.414 2.13h1.106c.51 3.843 1.752 13.494 1.814 16.949-.488 1.047-3.901 4.49-12.122 9.356z" transform="translate(42 12)"/>
            <path fill="#17BD85" d="M30.234 19.013c-1.718 0-3.117 1.399-3.117 3.117 0 .752.28 1.482.78 2.05v2.625h4.674V24.18c.5-.567.78-1.297.78-2.05 0-1.717-1.4-3.116-3.117-3.116zm1.036 4.27l-.257.232v1.732h-1.558v-1.732l-.258-.232c-.337-.304-.522-.713-.522-1.153 0-.86.7-1.559 1.559-1.559s1.558.7 1.558 1.559c0 .44-.185.85-.522 1.153z" transform="translate(42 12)"/>
        </g>
    </g>
</svg>
