<svg xmlns="http://www.w3.org/2000/svg" width="63" height="76" viewBox="0 0 63 76">
    <g fill="none" fill-rule="evenodd">
        <g fill-rule="nonzero">
            <path fill="#FDCD2D" d="M31.5-3C33.985-3 36-.985 36 1.5c0 2.316-1.75 4.224-4 4.473V21.5c0 .276-.224.5-.5.5-.245 0-.45-.177-.492-.41L31 21.5V5.972c-2.25-.249-4-2.156-4-4.472C27-.985 29.015-3 31.5-3z" transform="translate(0 4)"/>
            <path fill="#518DE2" d="M55.875 37.814v-5.096C55.875 19.088 44.75 8 31.071 8 17.396 8 6.268 19.088 6.268 32.718v5.091C3.158 38.421 0 40.902 0 43.891v4.192c0 3.45 4.209 6.23 7.694 6.23.796 0 1.442-.645 1.442-1.438 0-.094-.012-.185-.028-.273.027-.11.045-.223.045-.341V32.718c0-12.044 9.834-21.843 21.92-21.843 12.086 0 21.918 9.799 21.918 21.843v19.013L40.344 66.52h-3.456c-.584-1.52-2.06-2.605-3.788-2.605h-4.417c-2.237 0-4.057 1.813-4.057 4.042 0 2.23 1.82 4.043 4.057 4.043H33.1c1.728 0 3.204-1.085 3.788-2.605h4.121c.423 0 .825-.185 1.099-.506L54.58 54.305c3.453-.076 7.545-2.82 7.545-6.222v-4.192c0-2.983-3.146-5.46-6.25-6.077zm-52.99 10.27V43.89c0-1.292 1.688-2.597 3.384-3.116v10.424c-1.696-.52-3.384-1.824-3.384-3.116zM33.1 69.124h-4.417c-.646 0-1.172-.524-1.172-1.168 0-.644.526-1.168 1.172-1.168H33.1c.646 0 1.172.524 1.172 1.168 0 .644-.525 1.168-1.172 1.168zm26.142-21.042c0 1.288-1.676 2.588-3.367 3.111V40.78c1.69.523 3.367 1.823 3.367 3.111v4.192z" transform="translate(0 4)"/>
        </g>
        <g>
            <path stroke="#518DE2" stroke-width="1.2" d="M13.638-.436c3.931 0 7.49 1.594 10.067 4.17 2.577 2.577 4.17 6.136 4.17 10.068 0 4.05-1.581 7.662-4.137 10.268-2.58 2.63-6.152 4.236-10.1 4.236-3.932 0-7.491-1.593-10.068-4.17C.994 21.56-.6 18-.6 14.068c0-4.05 1.582-7.662 4.138-10.267 2.58-2.63 6.152-4.237 10.1-4.237zm.632 8.796l-.235.004c-1.058.048-1.994.543-2.669 1.296-.7.78-1.123 1.835-1.123 2.969h0v8.08l.956-.497.008-7.722.007-.21c.05-.766.372-1.455.866-1.966.546-.566 1.3-.914 2.131-.914.679 0 1.306.233 1.81.627h0l.703-.727-.171-.139c-.7-.535-1.572-.84-2.518-.797zm1.159 5.279H13.72v.715h1.708v-.715z" transform="translate(0 4) translate(17.936 21.68)"/>
            <path fill="#518DE2" d="M6.911 15.502c-.803 0-1.454-.675-1.454-1.506 0-.832.65-1.505 1.454-1.505.803 0 1.453.673 1.453 1.505 0 .831-.65 1.506-1.453 1.506z" transform="translate(0 4) translate(17.936 21.68)"/>
        </g>
    </g>
</svg>
