<svg xmlns="http://www.w3.org/2000/svg" width="62" height="51" viewBox="0 0 62 51">
    <g fill="none">
        <path fill="#E64949" d="M.835 41.919l.664.717c.846.923 2.137 2.246 3.404 3.526l3.025 3.026c1.962 1.954 1.278 2.034 3.222.324l2.271-1.976 4.421-3.886c1.038-.922 1.174-1.13 1.193-2.111l.028-7.252c.012-1.05.101-1.075.813-1.276 6.198-1.767 16.055-1.803 22.13-.175l.27.075c.495.153.545.307.57 1.347l.132 6.94c.03 1.116.128 1.295 1.231 2.244l4.88 4.153 1.727 1.454c2.132 1.778 1.449 1.813 3.24-.066l2.758-2.846c1.237-1.287 2.544-2.662 3.46-3.676l1.022-1.145c.953-1.097 1.024-1.508-.32-2.913-3.304-3.448-7.217-6.37-11.625-8.227-10.243-4.311-26.525-4.251-36.859.29-4.042 1.779-8.022 4.776-11.111 8.006l-.382.405c-1.371 1.479-1.238 1.866-.164 3.042z"/>
        <path fill="#17BD85" d="M31 0C35.419 0 39 3.581 39 7.999 39.001 12.418 35.419 16 31 16s-8-3.582-8-8.001S26.581 0 31 0zm-3.19 4.384l-.407.406c-.116.116-.116.29 0 .407l2.536 2.535c.077.077.077.194 0 .271l-2.555 2.555c-.116.116-.116.29 0 .406l.406.407c.116.116.29.116.407 0l2.554-2.536c.078-.077.194-.077.271 0l2.536 2.536c.116.116.29.116.406 0l.407-.407c.116-.116.116-.29 0-.406l-2.536-2.536c-.058-.077-.058-.193 0-.27l2.536-2.536c.116-.116.116-.29 0-.406l-.407-.407c-.116-.116-.29-.116-.406 0L31.022 6.94c-.077.077-.193.077-.27 0l-2.536-2.555c-.116-.116-.29-.116-.406 0z"/>
    </g>
</svg>
