<svg xmlns="http://www.w3.org/2000/svg" width="56" height="56" viewBox="0 0 56 56">
    <g fill="none">
        <path fill="#E64949" d="M26.203 34.21c.984.526 2.08.8 3.195.8.678-.003 1.35-.105 1.997-.305l.238-.066 1.76 5.725-.238.076c-.77.245-1.607.171-2.323-.204-.716-.378-1.248-1.028-1.481-1.803-.129-.504-.457-.934-.911-1.19-.454-.255-.992-.315-1.49-.163-.498.155-.912.505-1.145.97-.233.467-.264 1.006-.088 1.496.873 2.868 3.517 4.827 6.515 4.832.678 0 1.35-.1 1.998-.295l.237-.076.21.675c.235.84 1.01 1.412 1.883 1.389.19 0 .378-.031.56-.086 1-.311 1.56-1.367 1.256-2.368l-.2-.685.238-.067c3.603-1.1 5.633-4.914 4.532-8.516-1.1-3.603-4.914-5.633-8.517-4.532l-.237.066-1.76-5.763.238-.076c.77-.243 1.607-.17 2.32.209.716.378 1.249 1.025 1.484 1.797.307 1.006 1.372 1.572 2.378 1.265 1.006-.306 1.572-1.372 1.265-2.377-.53-1.739-1.731-3.194-3.338-4.043-1.608-.85-3.486-1.024-5.222-.485l-.238.067-.2-.675c-.304-1.006-1.367-1.574-2.372-1.27-1.006.304-1.574 1.367-1.27 2.373l.21.685-.239.076c-2.639.803-4.536 3.12-4.803 5.866-.266 2.746 1.149 5.383 3.586 6.679h-.028zm9.31-.76c1.594-.485 3.282.413 3.767 2.006.485 1.594-.414 3.282-2.007 3.767l-.238.076-1.759-5.773.238-.076zm-8.768-6.658c.376-.704 1.015-1.23 1.778-1.465l.238-.066 1.77 5.763-.248.076c-.763.224-1.584.133-2.283-.247-.71-.369-1.239-1.01-1.464-1.779-.245-.768-.17-1.6.209-2.31v.028z"/>
        <path fill="#518DE2" d="M1.065 33.231c.262.126.547.19.837.19.725.003 1.389-.406 1.712-1.055l1.74-3.538c1.506-3.084 1.739-6.636.647-9.892l-.827-2.349c-.768-2.29-.6-4.789.47-6.955 1.068-2.166 2.951-3.818 5.236-4.6l.952-.324c2.532-.863 5.314-.566 7.608.808l-2.33.79c-.991.337-1.522 1.414-1.189 2.406l2.16 6.363c-4.818 4.092-7.738 9.986-8.073 16.299-.336 6.31 1.942 12.48 6.298 17.062 4.356 4.58 10.406 7.164 16.726 7.145 2.494-.002 4.971-.416 7.333-1.227 5.77-1.96 10.528-6.13 13.222-11.596 2.694-5.469 3.106-11.782 1.144-17.553-1.964-5.768-6.14-10.523-11.608-13.213-2.825-1.395-5.906-2.192-9.054-2.34l-2.121-6.38c-.162-.479-.509-.873-.96-1.097-.455-.221-.978-.257-1.456-.093l-5.706 1.95C22.12 2.37 19.99 1.214 17.667.694c-2.323-.521-4.746-.386-6.995.39l-.95.323c-3.246 1.11-5.919 3.462-7.434 6.539-1.514 3.076-1.75 6.629-.651 9.877l.79 2.32c.767 2.307.594 4.823-.486 7l-1.74 3.539c-.224.451-.26.974-.095 1.452.161.48.506.873.96 1.097zm20.41-15.94l.095-.067c1.596-1.198 3.377-2.135 5.27-2.768 1.906-.646 3.901-.991 5.915-1.017h.324c6.11.007 11.85 2.929 15.453 7.865 3.6 4.936 4.631 11.295 2.772 17.115-1.857 5.82-6.382 10.405-12.176 12.342-5.795 1.936-12.167.992-17.15-2.544-4.987-3.533-7.985-9.232-8.076-15.343-.088-6.108 2.742-11.896 7.621-15.574l-.048-.01z"/>
    </g>
</svg>
