<?xml version="1.0" encoding="UTF-8"?>
<svg xmlns="http://www.w3.org/2000/svg" width="95" height="84" viewBox="0 0 95 84">
  <g fill="#FFF">
    <path d="M1.753 19.187l.718-.194c2.192-.57 3.607-.742 4.486-.636l.135.019.044.009.036.002c2.859.18 4.947 3.006 6.8 7.662l.302.782c.627 1.665 1.178 3.438 1.652 5.21l.158.604.168.67.12.016c.21.034.427.084.648.152l.222.073c2.423.858 3.988 2.223 5.964 4.798l1.64 2.197c.195.256.372.484.55.707 1.46 1.83 2.855 3.123 4.685 4.192 7.424 4.335 13.275 9.435 14.894 13.568.704 1.795.994 5.343 1.03 10.373.014 2.058-.018 4.235-.082 6.419l-.042 1.31c-.023.63-.046 1.223-.07 1.768l-.058 1.22c-.04.76-.582 1.393-1.315 1.566l-.16.03-14.146 1.973c-1.202.168-2.195-.92-1.907-2.09 1.215-4.942-1.085-8.533-7.24-13.258l-.381-.29c-.588-.444-3.06-2.263-3.673-2.73-1.391-1.056-2.392-1.9-3.212-2.74-.684-.704-1.222-1.39-1.618-2.097-.404-.722-.774-1.505-1.113-2.34-.59-1.453-1.06-2.995-1.426-4.535l-.176-.776c-.069-.318-.125-.599-.168-.834l-.076-.449c-.225-1.322-.52-2.824-.88-4.502l-.267-1.217-.485-2.131-1.581-6.657c-.257-1.145-.968-3.395-2.004-6.4l-.575-1.65c-.3-.853-.61-1.725-.927-2.604L1.14 22.852.608 21.42c-.35-.933.179-1.963 1.145-2.232zM6.5 21.732c-.093-.005-.324.002-.71.05-.271.035-.58.085-.926.153l-.379.079.207.559c.486 1.326.972 2.668 1.44 3.983l.749 2.125c1.136 3.26 1.939 5.743 2.31 7.228l1.825 7.697.334 1.48c.094.423.184.836.27 1.24l.266 1.26c.21 1.023.396 1.981.555 2.88l.13.764.047.247.128.638c.048.223.101.457.159.7.329 1.385.75 2.768 1.27 4.045.287.71.598 1.367.929 1.958.235.42.595.88 1.086 1.385.615.631 1.404 1.305 2.494 2.146l1.014.764c.967.719 2.52 1.863 2.988 2.217l.811.623c5.818 4.544 8.734 8.54 8.488 13.645l-.026.385 10.431-1.455.06-1.527c.09-2.574.139-5.17.122-7.586l-.017-1.332c-.073-3.88-.338-6.706-.78-7.83-1.257-3.21-6.634-7.897-13.435-11.868-2.237-1.306-3.932-2.879-5.635-5.013l-.392-.5c-.133-.173-.27-.353-.418-.55l-1.17-1.576-.482-.628c-1.404-1.785-2.46-2.697-3.909-3.263l-.419-.153-.02.076c-.207.726-.149 2.1.183 3.821.621 3.221 2.145 7.205 2.961 8.113.502.557 1.1 1.032 2.148 1.737l.86.57c2.187 1.444 3.233 2.375 3.952 3.923.397.854.02 1.866-.84 2.26-.862.392-1.882.019-2.278-.835-.345-.742-.983-1.336-2.452-2.325l-.877-.58c-1.447-.957-2.285-1.605-3.076-2.484-1.324-1.474-3.043-5.965-3.77-9.739-.424-2.197-.502-4.03-.117-5.384.1-.354.235-.676.399-.963l.08-.134-.053-.229c-.115-.486-.251-1.03-.408-1.616-.446-1.672-.966-3.342-1.549-4.89-1.417-3.765-3.003-6.079-4.061-6.232l-.101-.008c-.11-.001-.22-.013-.328-.035l-.068-.016zM87.99 18.375c.954-.157 2.61.051 5.34.81.966.27 1.494 1.3 1.145 2.233l-.857 2.317-.959 2.64-.47 1.312-.741 2.105-.696 2.025c-.73 2.157-1.256 3.836-1.517 4.875l-1.818 7.666-.33 1.46c-.092.415-.18.82-.266 1.217l-.258 1.225c-.246 1.191-.453 2.28-.618 3.251l-.055.331c-.077.435-.198 1.034-.37 1.754-.366 1.54-.836 3.082-1.426 4.535-.34.835-.71 1.618-1.114 2.34-.395.706-.933 1.393-1.618 2.096-.744.765-1.64 1.531-2.841 2.458l-.37.283c-.614.467-3.085 2.286-3.673 2.73-6.44 4.869-8.86 8.505-7.62 13.548.275 1.12-.625 2.167-1.758 2.104l-.15-.014-14.144-1.972c-.813-.113-1.432-.782-1.476-1.595l-.04-.822c-.03-.65-.06-1.379-.087-2.167-.092-2.618-.141-5.26-.124-7.729l.011-1.02c.067-4.49.363-7.682 1.018-9.352 1.62-4.134 7.47-9.234 14.895-13.569 1.83-1.069 3.224-2.362 4.684-4.192l.36-.46.19-.247 1.368-1.839c2.108-2.808 3.703-4.259 6.236-5.156.299-.106.59-.18.871-.225l.117-.016.208-.82.12-.455c.473-1.772 1.025-3.545 1.652-5.21 1.928-5.12 4.086-8.254 7.101-8.444l.035-.002.046-.01zm1.514 3.435l-.21-.029L89 21.75c-.17-.015-.293-.02-.369-.02l-.065.004-.05.013c-.054.012-.109.02-.163.026l-.166.01c-1.056.013-2.698 2.353-4.162 6.239-.583 1.55-1.102 3.22-1.549 4.891-.117.44-.223.855-.317 1.24l-.144.605.082.135c.131.23.243.481.334.754l.065.209c.384 1.354.307 3.187-.117 5.384-.727 3.774-2.446 8.265-3.771 9.74-.669.743-1.372 1.32-2.449 2.062l-1.218.811c-1.673 1.106-2.37 1.726-2.737 2.515-.397.854-1.416 1.227-2.278.834-.861-.393-1.238-1.405-.84-2.259.68-1.467 1.655-2.38 3.615-3.7l.925-.612c1.22-.807 1.876-1.314 2.419-1.918.816-.908 2.34-4.892 2.962-8.113.31-1.606.38-2.91.221-3.668l-.06-.229-.172.061c-1.745.618-2.898 1.667-4.636 3.983l-.942 1.27c-.396.533-.713.948-1.038 1.356-1.703 2.134-3.399 3.707-5.635 5.013-6.802 3.97-12.179 8.658-13.436 11.868-.49 1.249-.764 4.6-.796 9.162-.017 2.416.03 5.012.122 7.586l.058 1.527 10.43 1.454-.003-.035c-.408-5.396 2.653-9.536 8.883-14.318l.68-.514c.88-.656 2.862-2.116 3.38-2.51l.654-.504c.928-.728 1.622-1.331 2.175-1.9.491-.504.851-.963 1.086-1.383.332-.592.642-1.25.93-1.96.52-1.276.941-2.66 1.27-4.044.116-.486.212-.936.288-1.338l.078-.434.01-.07c.205-1.204.463-2.54.773-4.01l.136-.637c.13-.606.268-1.23.414-1.877l1.165-4.967.85-3.57c.338-1.353 1.032-3.528 2.01-6.362l.588-1.69c.303-.861.616-1.74.935-2.626l1.172-3.22-.11-.024c-.366-.078-.693-.137-.983-.179z"></path>
    <path d="M66.928 58.382c.548-.767 1.62-.947 2.393-.403.774.544.956 1.607.407 2.374l-.183.266c-.077.116-.168.256-.273.42l-.108.173c-.445.711-.897 1.505-1.328 2.358-.425.84-1.456 1.18-2.304.76-.848-.422-1.19-1.445-.766-2.285.48-.95.982-1.833 1.48-2.628l.35-.547c.138-.21.25-.373.332-.488zM26.473 57.979c.773-.544 1.845-.364 2.394.403l.145.208c.138.204.321.482.537.827.497.795 1 1.677 1.48 2.628.424.84.081 1.863-.767 2.284-.847.422-1.879.081-2.304-.76-.344-.682-.702-1.326-1.06-1.92l-.267-.437c-.263-.42-.461-.714-.565-.86-.548-.766-.366-1.829.407-2.373zM24.844 16.557c0-12.246 13.727-20.45 23.192-13.964l.105.075.178-.11C58.435-3.574 70.65 4.005 70.904 16.171l.004.386c0 7.204-6.034 14.96-15.679 23.274-.715.617-1.8.541-2.422-.168-.622-.71-.546-1.786.17-2.402 8.888-7.66 14.497-14.872 14.497-20.704C67.474 6.314 57.15.212 49.1 6.14c-.644.475-1.533.443-2.141-.075-7.088-6.034-18.681.482-18.681 10.492 0 1.996.844 4.374 2.467 7.038 1.803 2.96 4.484 6.15 7.807 9.437 2.315 2.29 4.802 4.49 7.288 6.519l1.256 1.009 1.01.787.086-.067c.378-.297.781-.62 1.207-.968l.433-.355c.73-.6 1.812-.502 2.418.222.606.723.506 1.796-.224 2.397-.606.5-1.175.958-1.698 1.37l-.922.717-.256.194c-.606.452-1.438.456-2.049.011l-.959-.721-.777-.603c-.536-.42-1.107-.875-1.706-1.363-2.566-2.093-5.132-4.364-7.532-6.738-3.504-3.466-6.353-6.857-8.321-10.087-1.918-3.15-2.962-6.088-2.962-8.799z"></path>
    <path d="M51.859 12.593h-7.024v3.897l-3.932.001v6.968l3.932-.001v3.9h7.024v-3.9h3.931v-6.967H51.86v-3.898zm-2.29 2.27v3.899l3.932-.002v2.427l-3.932.001v3.9h-2.444v-3.9h-3.933V18.76l3.933.002v-3.899h2.444z"></path>
  </g>
</svg>
