<svg xmlns="http://www.w3.org/2000/svg" width="528" height="341" viewBox="0 0 528 341">
    <g fill="none" fill-rule="evenodd">
        <g>
            <g>
                <path fill="#FBF9FF" fill-rule="nonzero" d="M171.75 335H467C422.824 111.667 382.787 0 346.889 0c-53.847 0-73.56 69.532-103.096 96.385-29.537 26.854-46.71 38.71-95.004 19.355C100.495 96.385 0 104.593 0 169.455c0 43.24 14.123 98.352 42.369 165.334l129.38.211z" transform="translate(-760 -90) matrix(-1 0 0 1 1288 90)"/>
                <g>
                    <path fill="#000" fill-rule="nonzero" d="M11.424 4.611c-.319-1.254-.631-2.445-.92-3.64-.132-.546-.105-.573.32-.971.099.258.204.475.267.703.296 1.076.58 2.155.872 3.232.023.086.08.162.154.305.634-.249 1.253-.502 1.88-.735 1.17-.435 2.365-.767 3.615-.896 1.68-.172 3 .398 3.918 1.811.98 1.507 1.532 3.188 1.968 4.907.493 1.944.744 3.927.899 5.925.283 3.653.097 7.298-.114 10.946-.158 2.717-.276 5.437-.34 8.157-.113 4.814-.227 9.63-.23 14.444-.003 2.438.225 4.877.37 7.314.022.36.168.71.25 1.068.026.11.052.23.038.34-.203 1.55.084 3.066.378 4.568.613 3.126 1.29 6.24 1.938 9.358.17.82.33 1.64.498 2.46.027.128.072.254.213.39.04-.134.1-.267.12-.406.277-1.912.588-3.814 1.341-5.618.58-1.388 1.337-2.66 2.295-3.826.652-.793 1.438-1.11 2.43-.757 1.014.36 2.053.682 3.014 1.152 1.098.537 1.33 1.41.691 2.44-.464.747-1.036 1.435-1.605 2.113-1.517 1.808-3.116 3.551-4.569 5.407-1.048 1.338-1.921 2.81-2.852 4.236-.114.174-.163.436-.14.646.407 3.563.6 7.138.623 10.721.02 3.072-.085 6.139-.374 9.198-.153 1.62-.244 3.248-.443 4.862-.327 2.651-.715 5.295-1.084 7.94-.398 2.855-.823 5.706-1.201 8.563-.25 1.89-.459 3.785-.644 5.683-.055.568.021 1.15.06 1.725.014.222.047.45-.208.525-.273.08-.468-.089-.527-.337-.07-.29-.114-.596-.11-.894.01-.675.027-1.351.091-2.022.41-4.282.96-8.547 1.59-12.803.517-3.496.96-7.003 1.36-10.514.59-5.186.703-10.396.513-15.608-.174-4.794-.724-9.546-1.753-14.242-.682-3.112-1.344-6.23-1.934-9.36-.28-1.48-.367-2.995-.55-4.493-.028-.222-.065-.465-.176-.653-2.488-4.216-4.247-8.756-5.985-13.3-1.114-2.911-2.183-5.846-3.104-8.822-1.126-3.643-2.064-7.342-3.106-11.01-.712-2.505-1.424-5.012-2.212-7.494-.79-2.488-1.148-5.031-1.211-7.623-.012-.505.088-1.017.166-1.52.04-.268.188-.495-.101-.756-.211-.19-.019-.443.172-.59.482-.371.964-.747 1.475-1.077.627-.405 1.284-.765 1.974-1.172" transform="translate(-760 -90) matrix(-1 0 0 1 1288 90) translate(60 205)"/>
                    <path fill="#618133" d="M27.975 78.11c.166-.245.26-.374.344-.51 1.264-2.02 2.675-3.934 4.276-5.71.954-1.06 1.908-2.12 2.836-3.2.454-.53.89-1.086 1.263-1.673.449-.707.314-1.251-.463-1.59-1.027-.45-2.101-.798-3.166-1.155-.435-.146-.844.006-1.157.336-.272.288-.537.587-.772.905-1.31 1.778-2.131 3.77-2.533 5.922-.264 1.416-.473 2.844-.645 4.273-.09.75-.253 1.517.017 2.402M11.628 5.416c-.915.408-1.697.917-2.47 1.437-.074.049-.15.13-.172.21-.157.58-.293 1.163-.449 1.742-.225.836-.003 1.667.028 2.499.048 1.305.203 2.6.571 3.856.543 1.852 1.146 3.688 1.668 5.547.75 2.664 1.456 5.34 2.169 8.014 1.355 5.083 2.996 10.075 4.873 14.993 1.344 3.524 2.722 7.033 4.372 10.43.049.102.129.189.225.326.03-.124.057-.17.05-.21-.471-2.347-.928-4.697-1.423-7.04-.558-2.638-1.183-5.263-1.721-7.906-.747-3.667-1.406-7.352-2.163-11.017-1.387-6.718-3.057-13.372-4.785-20.01-.245-.94-.505-1.877-.773-2.87M22.816 51.736c.047-.01.093-.022.14-.033-.035-1.278-.115-2.556-.096-3.833.062-4.326.116-8.652.256-12.976.131-4.067.382-8.13.554-12.196.17-4.05.12-8.094-.668-12.093-.375-1.902-.906-3.76-1.873-5.459-.852-1.498-2.009-2.06-3.716-1.733-1.171.224-2.318.588-3.461.935-.553.168-1.074.443-1.626.677.033.246.04.43.085.605 1.185 4.666 2.414 9.321 3.55 13.999.893 3.683 1.704 7.388 2.49 11.096.642 3.025 1.164 6.075 1.793 9.103.71 3.415 1.482 6.818 2.224 10.227.122.56.232 1.12.348 1.681" transform="translate(-760 -90) matrix(-1 0 0 1 1288 90) translate(60 205)"/>
                    <path fill="#000" fill-rule="nonzero" d="M40.648 95.424c-.778-.684-1.249-1.506-1.1-2.537.074-.518.26-1.044.503-1.513.63-1.22 1.306-2.42 1.995-3.61.216-.372.532-.687.814-1.043l2.322.884c.507-.45.54-1.203 1.181-1.5.385.335.058.59-.072.853-.143.289-.303.569-.48.898.243.15.458.279.669.414.314.202.638.392.934.617.457.345.635.814.438 1.361-.156.435-.308.899-.579 1.262-.891 1.195-1.819 2.365-2.767 3.517-.774.942-1.752 1.284-2.94.827-.06-.023-.138-.003-.243-.003-1.396 2.29-3.236 4.255-4.89 6.363-1.195 1.524-2.403 3.04-3.513 4.625-2.791 3.979-4.988 8.262-6.422 12.915-.688 2.232-1.196 4.504-1.358 6.842-.016.218-.002.439-.002.658l.14.05c.14-.225.28-.45.418-.676 1.772-2.91 3.522-5.831 5.319-8.725 1.49-2.4 3.078-4.737 4.938-6.872 1.58-1.814 3.385-3.353 5.654-4.26.517-.208 1.057-.38 1.602-.496.963-.202 1.907-.106 2.829.38.198-.179.377-.358.575-.515.203-.162.408-.54.687-.28.304.283-.103.467-.258.666-.112.145-.247.273-.4.44.17.156.336.28.47.434.35.403.715.798 1.02 1.235.377.54.344 1.097-.092 1.608-.319.372-.62.762-.968 1.105-4.29 4.24-8.836 8.19-13.63 11.852-2.45 1.87-4.922 3.713-7.384 5.569l-.695.528c-.418-.254-.85-.276-1.314-.098-.178.068-.414.023-.616-.016-2.591-.493-5.175-1.03-7.774-1.483-2.575-.448-5.164-.83-7.751-1.207-1.94-.283-3.898-.465-5.801-.967-.293-.077-.586-.159-.87-.263-.904-.334-1.26-.839-1.236-1.805.01-.368.08-.742.169-1.101.083-.337.228-.658.346-.984-.014-.046-.013-.103-.041-.13-.154-.151-.47-.224-.32-.529.14-.281.387-.183.614-.104.064.022.137.017.17.02.58-.477 1.12-.956 1.696-1.388 1.155-.866 2.38-1.005 3.765-.497 3.122 1.145 6.164 2.465 9.029 4.144 2.699 1.581 5.326 3.284 7.984 4.934.232.144.461.293.715.455.263-1.555-2.545-19.081-4.038-25.299-.306-.026-.627-.042-.946-.084-.752-.098-1.285-.504-1.634-1.174-.394-.758-.539-1.583-.684-2.41-.205-1.17-.405-2.342-.62-3.51-.05-.269-.153-.528-.257-.876l2.089-1.088c-.297-.692-.545-1.376-.503-2.1.34-.142.471.015.54.234.09.29.156.585.231.879.063.245.124.49.199.788.37-.122.693-.239 1.022-.336 1.064-.313 1.637-.066 1.942.979.469 1.609.884 3.236 1.044 4.913.075.787-.059 1.53-.454 2.225-.316.555-.66 1.077-1.36 1.352 1.59 7.285 2.798 14.627 3.778 22.009l.163-.003c.081-.444.159-.888.244-1.331.733-3.805 2.064-7.402 3.808-10.852 2.094-4.145 4.761-7.906 7.758-11.445 1.025-1.21 2.024-2.446 3.006-3.692.382-.485.84-.948.857-1.643.003-.117.19-.229.335-.39" transform="translate(-760 -90) matrix(-1 0 0 1 1288 90) translate(60 205)"/>
                    <path fill="#FDCD2D" fill-rule="nonzero" d="M16.739 95.202c.047.31.08.563.125.813.209 1.145.4 2.294.64 3.433.134.633.318 1.261.545 1.868.225.602.74.907 1.364.94.835.044 1.566-.175 2.016-.979.303-.54.5-1.087.468-1.722-.085-1.738-.572-3.394-1.01-5.057-.179-.684-.47-.82-1.153-.617-1.03.306-2.003.753-2.995 1.32M43.029 87.424c-.133.189-.238.313-.315.454-.729 1.328-1.457 2.656-2.173 3.99-.131.245-.232.513-.3.782-.235.934.193 1.9 1.036 2.39 1.035.603 1.788.556 2.582-.304.853-.923 1.641-1.908 2.423-2.893.33-.417.619-.88.843-1.361.334-.714.233-.963-.422-1.398-1.117-.741-2.375-1.172-3.674-1.66" transform="translate(-760 -90) matrix(-1 0 0 1 1288 90) translate(60 205)"/>
                    <path fill="#618133" d="M19.255 127.8l.043-.166-18.015-6.166c-.497.737-.681 1.395-.673 2.117.007.503.195.853.696 1 .447.132.887.312 1.345.384 2.166.344 4.34.642 6.505.989 2.51.4 5.019.823 7.523 1.262.866.152 1.718.385 2.576.58M22.063 127.744c-.262-.2-.382-.308-.518-.39-2.312-1.406-4.595-2.863-6.947-4.197-2.761-1.568-5.653-2.875-8.673-3.879-1.494-.496-3.3.216-4.13 1.615.517.305 19.32 6.687 20.268 6.85M46.098 107.49c-6.32 5.88-11.933 12.406-17.726 18.767.25-.132.48-.287.698-.456 1.68-1.298 3.357-2.6 5.037-3.897 4.308-3.327 8.378-6.925 12.27-10.724.4-.39.762-.818 1.129-1.24.256-.294.288-.616.082-.966-.361-.612-.812-1.126-1.49-1.484M25.749 127.72l.108.078c.056-.039.12-.07.166-.118 1.334-1.372 2.718-2.7 3.989-4.127 4.904-5.508 9.88-10.948 15.188-16.075.093-.09.157-.211.28-.381-.28-.086-.494-.165-.713-.217-.73-.172-1.443-.045-2.139.169-2.28.698-4.1 2.102-5.696 3.808-1.904 2.035-3.47 4.332-4.95 6.68-1.73 2.74-3.386 5.526-5.074 8.291-.385.631-.773 1.261-1.159 1.892" transform="translate(-760 -90) matrix(-1 0 0 1 1288 90) translate(60 205)"/>
                </g>
                <g fill="#CDFF06" fill-rule="nonzero">
                    <g>
                        <path d="M0 76.22c16.659-16.701 34.835-38.284 54.528-64.75 29.54-39.7 147.631 35.656 161.045 44.964 8.942 6.205 12.312 12.822 10.11 19.85L0 76.22z" transform="translate(-760 -90) matrix(-1 0 0 1 1288 90) translate(300.762 258.89)"/>
                    </g>
                </g>
                <g fill="#000" fill-rule="nonzero">
                    <g>
                        <path d="M26.198 252.618L26.765 252.764 27.057 251.632 26.49 251.486zM25.613 254.883L26.181 255.029 26.473 253.897 25.905 253.751zM46.648 173.353L47.216 173.499 47.508 172.366 46.941 172.22zM25.228 256.375L25.796 256.522 25.889 256.161 25.321 256.015zM46.064 175.617L46.631 175.763 46.924 174.631 46.356 174.484zM27.367 248.089L27.934 248.235 28.226 247.102 27.659 246.956zM26.782 250.353L27.349 250.499 27.642 249.367 27.074 249.221zM29.704 239.03L30.271 239.176 30.563 238.043 29.995 237.897zM30.288 236.765L30.855 236.911 31.147 235.778 30.58 235.632zM28.535 243.559L29.102 243.705 29.395 242.573 28.827 242.427zM27.95 245.824L28.518 245.97 28.81 244.837 28.243 244.691zM29.119 241.294L29.687 241.44 29.979 240.308 29.411 240.162zM48.986 164.294L49.553 164.44 49.845 163.307 49.278 163.161zM51.323 155.235L51.89 155.381 52.182 154.248 51.615 154.102zM51.907 152.97L52.475 153.116 52.767 151.983 52.199 151.837zM52.491 150.705L53.059 150.851 53.351 149.719 52.783 149.573zM53.076 148.44L53.643 148.586 53.935 147.454 53.368 147.308zM50.738 157.499L51.306 157.645 51.598 156.513 51.031 156.367zM47.233 171.087L47.8 171.234 48.092 170.101 47.525 169.955zM47.817 168.823L48.384 168.969 48.676 167.837 48.109 167.691zM48.401 166.558L48.969 166.704 49.261 165.572 48.693 165.426zM50.154 159.764L50.721 159.91 51.014 158.778 50.446 158.632zM30.872 234.5L31.44 234.646 31.732 233.514 31.164 233.368zM49.57 162.029L50.137 162.175 50.43 161.042 49.862 160.896zM43.727 184.676L44.294 184.823 44.586 183.69 44.019 183.544zM40.221 198.265L40.789 198.411 41.081 197.278 40.513 197.132zM40.806 196L41.373 196.146 41.665 195.013 41.097 194.867zM31.457 232.235L32.024 232.381 32.316 231.249 31.749 231.103zM39.637 200.529L40.204 200.675 40.496 199.543 39.929 199.397zM41.974 191.47L42.541 191.616 42.833 190.484 42.266 190.338zM39.052 202.794L39.62 202.94 39.912 201.808 39.344 201.662zM44.311 182.411L44.879 182.558 45.171 181.425 44.603 181.279zM38.468 205.059L39.036 205.205 39.328 204.072 38.76 203.926zM44.896 180.147L45.463 180.293 45.755 179.161 45.188 179.014zM45.48 177.882L46.047 178.028 46.339 176.896 45.772 176.749zM43.143 186.941L43.71 187.087 44.002 185.955 43.434 185.808zM42.558 189.206L43.126 189.352 43.418 188.22 42.851 188.073zM41.389 193.735L41.957 193.881 42.249 192.749 41.682 192.603zM37.884 207.324L38.451 207.47 38.743 206.337 38.176 206.191zM33.209 225.441L33.777 225.588 34.069 224.455 33.502 224.309zM32.041 229.971L32.608 230.117 32.9 228.984 32.333 228.838zM34.378 220.912L34.946 221.058 35.237 219.926 34.67 219.779zM32.625 227.706L33.192 227.852 33.485 226.719 32.917 226.573zM33.794 223.176L34.361 223.323 34.653 222.19 34.086 222.044zM36.715 211.853L37.282 211.999 37.575 210.867 37.007 210.721zM37.299 209.588L37.867 209.734 38.159 208.602 37.592 208.456zM35.547 216.382L36.114 216.529 36.406 215.396 35.839 215.25zM36.131 214.117L36.698 214.264 36.991 213.131 36.423 212.985zM34.962 218.647L35.53 218.793 35.822 217.661 35.254 217.514z" transform="translate(-760 -90) matrix(-1 0 0 1 1288 90) translate(220.77 20.068)"/>
                        <path d="M139.343 8.592c-.956-1.24-.617-4.481.58-5.539.991 1.294.683 4.244-.58 5.54m.87 2.046c-.218 2.796-.46 5.59-.658 8.386-.092 1.293-.653 2.497-.536 3.843.731 8.443.008 16.916.466 25.368.21 3.861-.575 7.492-2.37 10.956-1.551 2.997-3.23 5.903-5.135 8.684-1.877 2.738-3.749 5.48-5.638 8.21-.393.568-.852 1.09-1.373 1.75-4.63-5.73-7.89-12.138-11.522-18.243 1.003-1.064 1.922-2.12 2.924-3.086 2.155-2.077 4.32-4.147 6.545-6.15 1.92-1.728 3.111-3.774 3.52-6.353.69-4.354.987-8.727.97-13.127-.013-3.271-.034-6.545-.153-9.814-.032-.902-.334-1.829-.675-2.679-.625-1.558-1.457-3.035-2.044-4.605-.758-2.026-.528-2.67 1.15-3.993 2.392-1.888 4.894-3.614 7.691-4.862.524-.234 1.082-.691 1.686-.172.483.417.638 1.724.275 2.38-.154.279-.37.56-.629.738-.804.556-1.647 1.053-2.465 1.59-.62.407-1.27.786-1.82 1.274-.544.48-.673 1.142-.217 1.77.83 1.14 1.21 2.41 1.227 3.804.001.093-.016.219.035.272.178.186.382.347.577.518.145-.205.439-.43.412-.609-.176-1.142-.377-2.285-.665-3.404-.123-.48-.474-.9-.801-1.489 1.11-1.347 2.897-1.474 3.95-2.621.583.342 1.067.846 1.56.852.45.007.907-.523 1.258-.75l2.457.888c0 .058.02.368-.003.674m-19.45 72.122c-.813.415-1.367.158-1.963-.459-2.562-2.65-4.53-5.713-6.196-8.964-1.192-2.324-2.151-4.767-3.309-7.11-.686-1.39-.645-2.876-.843-4.333-.029-.213.197-.521.39-.69.838-.738 1.708-1.441 2.82-2.368.19.32.343.597.512.865.94 1.504 1.955 2.967 2.813 4.518 2.535 4.585 5.294 9.025 8.376 13.265.654.9 1.23 1.856 1.99 3.011-1.678.826-3.145 1.526-4.59 2.265m-6.002 5.338c-1.757 1.605-3.42 3.316-5.056 5.046-.462.49-.577 1.308-1.043 1.793-1.136 1.18-.719 2.584-.755 3.93-.207 7.942-.383 15.884-.636 23.824-.128 4.063-.399 8.12-.6 12.18-.071 1.445-.122 2.89-.193 4.335-.013.268-.083.535-.13.825-4.12.911-8.219 1.592-12.378 1.835-6.039.354-12.081.285-18.096-.31-4.373-.433-8.725-1.098-13.07-1.767-3.418-.526-6.816-1.193-10.213-1.85-.95-.183-1.864-.553-2.846-.853.114-3.104.97-5.836 1.619-8.601 1.364-5.82 2.788-11.624 4.207-17.429.142-.577.38-1.14.647-1.673.23-.46.227-.82-.24-1.059-.443-.226-.692.098-.894.432-.095.159-.158.338-.237.507-2.38 5.073-4.756 10.149-7.147 15.217-.234.496-.562.947-.88 1.477-.383-.127-.695-.193-.975-.328-3.56-1.715-6.883-3.787-9.777-6.5-1.57-1.473-3.116-2.97-4.722-4.403-.675-.603-.75-1.157-.38-1.962 1.975-4.284 3.845-8.617 5.873-12.876 1.688-3.542 3.502-7.026 5.338-10.495 2.199-4.154 5.24-7.731 8.098-11.428.449-.58 1.073-1.04 1.665-1.492 1.358-1.04 2.885-1.737 4.58-2.01 3.364-.541 6.732-1.056 10.161-1.591.17.339.32.613.446.898 1.284 2.913 2.661 5.78 4.643 8.296 2.101 2.67 4.747 4.569 8.205 4.899 3.334.318 6.4-.333 8.788-3.018 1.72-1.933 3.009-4.038 3.507-6.594.26-1.33.588-2.645.815-3.98.105-.618.383-.995.92-1.293 1.228-.678 2.433-1.398 3.639-2.115 2.65-1.58 5.297-3.168 7.943-4.756.558-.334 1.107-.68 1.7-1.047 1.076 2.454 2.03 4.873 3.18 7.193 1.18 2.38 2.416 4.758 3.883 6.968 1.437 2.162 3.196 4.11 4.845 6.192-1.464 1.172-3.024 2.295-4.434 3.583m-7.958 182.665c.017.32.002.64.002 1.04l-31.283 3.732c-.382-.568-.24-1.316-.224-2.044.105-5.046.273-10.092.294-15.138.028-6.404-.285-12.816-.051-19.21.338-9.213.112-18.415.027-27.623-.051-5.608.053-11.218.02-16.826-.03-5.236-.149-10.471-.228-15.706-.001-.094.017-.19-.002-.28-.48-2.218.278-4.192 1.067-6.22 2.567-6.602 5.727-12.891 9.602-18.823.281-.43.55-.874.756-1.341.07-.159-.041-.575-.116-.587-.23-.036-.602-.019-.705.127-.7.992-1.366 2.01-2.007 3.043-4.963 7.99-8.462 16.639-11.546 25.485-2.02 5.793-3.37 11.753-4.776 17.708-3.747 15.875-7.867 31.647-13.527 46.974-3.06 8.285-6.229 16.528-9.982 24.532-.892 1.903-1.932 3.728-3.466 5.397-.42-.23-.822-.433-1.209-.664-.607-.363-1.041-1.069-1.976-.729-.252.091-.723-.35-1.065-.59-2.495-1.74-4.968-3.51-7.474-5.233-2.661-1.827-5.352-3.612-8.03-5.414-.31-.208-.63-.404-.936-.62-1.268-.897-1.294-.918-.933-2.426 1.927-8.037 3.903-16.06 5.79-24.105 2.573-10.958 5.038-21.94 7.63-32.894 1.85-7.816 3.965-15.572 5.726-23.407 2.448-10.894 5.243-21.698 8.041-32.504.667-2.572 1.583-5.082 2.396-7.616.095-.296.27-.567.388-.809 6.831 2.025 13.808 2.785 20.724 3.872 6.124.963 12.292 1.249 18.474 1.244 5.674-.003 11.314-.468 16.87-1.704.314-.07.638-.089 1.098-.152-.32.37-.647.601-.76.91-.173.47.265.693.535 1.016.258.31.345.835.352 1.268.059 3.833.12 7.667.11 11.5-.035 14.023-.049 28.047-.168 42.07-.06 7.057-.383 14.112-.483 21.17-.076 5.325-.025 10.653.034 15.979.088 7.9.185 15.8.379 23.698.097 3.97.417 7.933.632 11.9m2.369 2.283c0 1.754.02 3.235-.01 4.713-.013.56-.423.756-.947.83-1.573.223-3.134.537-4.711.712-6.41.708-12.825 1.378-19.239 2.058-2.835.3-5.671.595-8.508.882-.369.038-.744.044-1.115.024-.534-.03-.873-.302-.916-.864-.108-1.386-.214-2.772-.332-4.303 1.201-.2 2.24-.407 3.29-.54 6.259-.794 12.519-1.58 18.781-2.349 2.738-.336 5.477-.668 8.223-.917 1.76-.159 3.532-.164 5.484-.246m-28.37 9.757c8.555-.932 16.947-1.845 25.427-2.77.308 1.127.178 2.277.097 3.416-.037.53-.491.608-.923.678-2.908.463-5.806.986-8.721 1.39-4.21.583-8.432 1.087-12.651 1.609-.734.091-1.478.107-2.457.173l-.772-4.496m28.236 1.967c-.075 1.902-.114 3.85-.24 5.792-.173 2.702-.41 5.4-.62 8.1-.014.186-.025.373-.025.56.001 1.015.138 1.113 1.124.991.68-.083 1.371-.093 2.133-.141-.196 1.794-1.497 3.155-1.343 4.915.866.194 1.052-.297 1.23-.867.345-1.11.727-2.207 1.098-3.308.141-.419.335-.766.869-.756.871.014 1.744.003 2.843.003-.301.85-.522 1.447-.726 2.05-.209.619-.432 1.235-.591 1.866-.114.456-.099.92.602 1.19.604-1.644 1.19-3.233 1.798-4.89 2.185.007 4.294.093 6.235.974 1.675.76 2.928 2.063 3.427 3.872.707 2.562.798 5.155-.022 7.786-.206.036-.428.107-.65.112-8.608.184-17.214.351-25.82.545-6.315.142-12.63.319-18.945.478-1.426.036-1.698-.27-1.31-1.661.678-2.427 1.393-4.844 2.132-7.253.534-1.736.586-3.508.393-5.275-.406-3.708-.902-7.406-1.384-11.298l19.561-2.517c.089.574.196 1.105.248 1.643.393 3.995.774 7.992 1.16 11.988.045.463.055.957.683 1.048.56-.308.357-.821.318-1.254-.217-2.372-.461-4.74-.693-7.11-.207-2.13-.41-4.258-.63-6.521 1.733-.265 3.328-1.038 5.133-.388.459-.638 1.052-1.022 2.012-.674m15.587 30.693c-.807-.222-1.542-.136-2.338.006-.563.1-1.178-.109-1.772-.165-.78-.073-1.574-.252-2.342-.177-1.949.19-3.873.632-5.837-.006-.42-.136-.998.117-1.473.28-.571.196-1.104.503-1.664.734-.87.357-1.716.42-2.506-.23-.56-.46-1.226-.45-1.871-.27-1.27.353-2.51.636-3.853.25-.482-.14-1.1.101-1.634.248-1.206.331-2.345.394-3.544-.166-.53-.247-1.3-.21-1.893-.05-1.471.393-2.872.734-4.357-.035-.427-.222-1.095-.036-1.642.04-.362.05-.697.274-1.058.357-1.665.381-2.35.113-3.02-1.33l42.951-.931c-.479 1.207-1.194 1.705-2.147 1.445m-44.285-.3l2.119-.138c-1.193 1.468-1.587 1.474-2.12.138m-36.816-36.862l-3.032 2.689c-8.514-4.835-17.29-9.816-26.058-14.81-.394-.225-.713-.578-1.173-.958l3.43-4.413c.585.357 1.106.64 1.592.976 6.16 4.243 12.314 8.498 18.479 12.738.808.555 1.653 1.062 2.507 1.547.352.2.765.36 1.165.401 1.307.137 2.18.917 3.09 1.83m1.034-146.666c-.446.894-.731.985-1.68.474-1.149-.619-2.276-1.292-3.35-2.034-2.343-1.621-4.652-3.292-6.964-4.96-2.13-1.537-3.981-3.374-5.781-5.389l1.861-5.499c.871.238 1.43.768 1.99 1.284 1.89 1.742 3.753 3.512 5.662 5.231 3.012 2.712 6.505 4.681 10.319 6.466-.724 1.567-1.354 3.014-2.057 4.427m-4.615 9.534c-2.157 5.426-4.351 10.838-6.428 16.295-.945 2.483-1.85 5.014-2.091 7.688-.273 3.025-.425 6.061-.634 9.092-.028.395-.084.789-.126 1.183l-.443.048c-.116-.671-.292-1.338-.336-2.013-.132-2.004-.201-4.012-.317-6.017-.025-.432-.147-.859-.224-1.288l-.308-.065c-.165.227-.446.44-.479.685-.724 5.27-1.815 10.509-1.458 15.88.035.512.112 1.037.036 1.537-.07.459-.319.889-.51 1.388-.888-.456-1.063-1.14-1.238-1.81-.657-2.522-.698-5.081-.43-7.655.102-.974.242-1.944.371-2.916.052-.39.082-.832-.424-.84-.202-.004-.549.366-.594.609-.195 1.054-.407 2.122-.423 3.188-.031 2.003.126 4.009.095 6.012-.023 1.435-.177 2.874-.376 4.296-.06.433-.462.818-.724 1.252-.816-.458-.971-1.101-1.14-1.726-.553-2.059-.614-4.153-.435-6.263.166-1.955.33-3.911.482-5.868.03-.392.004-.788.004-1.21-.818-.073-1.01.32-1.044.824-.277 4-1.014 7.987-.277 12.014.207 1.13-.015 1.458-1.115 2.094-.7-.295-.875-.959-.97-1.59-.17-1.152-.347-2.32-.327-3.479.042-2.521.222-5.04.31-7.56.016-.508.272-1.141-.598-1.573-.14.332-.355.627-.377.935-.146 2.003-.21 4.012-.379 6.013-.14 1.669-.373 3.33-.597 4.99-.04.307-.233.592-.37.925-.675-.191-.774-.713-.788-1.207-.06-2.236-.235-4.483-.094-6.709.357-5.61 1.652-11.074 2.749-16.572 1.202-6.028 3.308-11.771 5.227-17.58 2.182-6.605 4.307-13.23 6.492-19.955 4.397 3.043 8.594 6.533 13.43 9.212-1.04 2.573-2.094 5.15-3.122 7.736M127.286 2.942c.439-.828.966-.845 1.458-.078.497.777.897 1.616 1.39 2.52l-3.385 2.25c-.238-1.795-.204-3.294.537-4.692m5.144-.92c.54-.616 1.041-.482 1.314.317.117.34.15.708.238 1.152l-2.401 1.101c-.097-1.113.26-1.898.85-2.57m4.488-.15c.305 2.441.25 4.562-.497 6.72-.1-.207-.342-.485-.279-.61.695-1.376.54-2.663-.173-3.999-.398-.748-.035-1.416.949-2.112M28.522 283.683c-.04.478-.012 1.033-.143 1.549-1.18 4.659-2.386 9.311-3.59 13.965-.081.315-.198.622-.292.935-.135.448-.36 1.012.252 1.19.535.155.632-.422.755-.812.352-1.113.74-2.217 1.024-3.347 1.056-4.21 2.076-8.43 3.112-12.646.022-.086.088-.16.197-.352l5.147 1.892c-.165.44-.282.778-.418 1.11-1.07 2.64-2.148 5.278-3.217 7.919-.14.345-.283.696-.364 1.057-.155.7.125 1.094.84 1.104.638.01 1.276-.097 1.958-.156-.715 1.736-.715 1.736 1.145 2.638-.21.351-.403.698-.622 1.029-.759 1.14-.62 1.52.674 1.828.497.119.99.247 1.663.416-.28.52-.51.954-.746 1.385-.158.286-.39.552-.465.857-.067.276-.075.734.087.862.344.272.683.08.89-.327.277-.54.574-1.07.884-1.593.188-.314.417-.604.681-.981l2.429.582c-.257.521-.457.93-.659 1.337-.124.251-.32.493-.355.756-.037.277.08.575.13.863.257-.128.598-.192.752-.397.275-.368.427-.827.651-1.236.177-.322.385-.626.631-1.021 2.718.658 5.372 1.473 7.602 3.123 1.87 1.384 2.515 3.419 1.964 5.74-.128.54-.311 1.067-.483 1.644-.4.022-.769.058-1.136.059-7.815.021-15.628.018-23.442.079-1.138.009-2.07-.264-3-.898-6.991-4.772-13.828-9.753-20.504-14.957-.07-.054-.107-.15-.3-.432.744-1.275 1.391-2.637 2.265-3.834 3.304-4.527 4.93-9.595 5.17-15.154.046-1.065.211-2.125.321-3.18.925.048 13.481 5.085 18.512 7.404m21.474 32.94c-.917.02-1.834-.122-2.752-.14-.494-.008-1.023.024-1.478.193-.845.316-1.63.686-2.536.142-.236-.142-.657-.107-.943-.008-.636.218-1.243.42-1.868 0-1.315.477-2.592.242-3.88-.151-.22-.067-.532.128-.789.233-.538.22-1.002.313-1.57-.079-.294-.203-.911-.144-1.29.016-.896.38-1.725.618-2.69.172-.3-.139-.844-.018-1.152.179-.614.393-1.104.462-1.582-.15-.515-.657-.996-.436-1.55-.005-1.02.79-.986.717-1.883-.23-.413-.436-1.05-.712-1.635-.918-.622-.218-1.255-.322-1.648-.948-.131-.21-.424-.424-.66-.445-.656-.053-.942-.432-1.258-.95-.208-.344-.687-.648-1.09-.722-.663-.124-1.142-.402-1.44-.98-.38-.73-.92-1.119-1.788-1.086-.582.022-1.105-.172-1.25-.876-.108-.525-.457-.78-1.01-.771-.845.016-1.393-.397-1.749-1.16-.148-.32-.4-.657-.698-.828-1.007-.582-1.238-.727-1.68-1.399-.224 0-.508-.043-.774.008-.869.168-1.453-.19-1.83-.94-.252-.506-.59-.824-1.205-.742-.593.08-1.007-.18-1.187-.745-.285-.888-.77-1.416-1.799-.94-.17-.988-.312-1.808.51-2.594.436.295.909.574 1.336.91 5.664 4.45 11.426 8.764 17.433 12.748.612.406 1.128.953 1.685 1.44.685.598 1.403.946 2.389.929 6.786-.117 13.572-.175 20.36-.231 1.45-.012 2.901.054 4.35.098.409.013.815.078 1.562.154-.473.418-.713.81-.961.817m91.336-306.217c.158-1.91.358-3.818.44-5.73.032-.722-.077-1.514-.363-2.17-.464-1.063-1.402-1.194-2.287-.453-.298.25-.566.536-.906.862-.154-.495-.23-.863-.377-1.201-.445-1.018-1.156-1.21-1.976-.493-.304.264-.486.668-.822 1.151-.271-.581-.357-.844-.504-1.066-.683-1.03-1.954-1.058-2.837.013-.492.598-.82 1.332-1.273 2.09-.377-.53-.68-1.045-1.07-1.485-.83-.941-2.013-.926-2.754.086-.375.513-.69 1.145-.79 1.763-.18 1.099-.325 2.244-.203 3.339.112 1.017-.156 1.631-.947 2.234-1.512 1.153-1.97 2.694-1.258 4.485.518 1.3 1.08 2.586 1.696 3.843.686 1.402 1.178 2.82 1.17 4.416-.022 3.646.085 7.293.027 10.938-.059 3.738-.347 7.463-1.013 11.157-.364 2.018-1.25 3.681-2.757 5.063-2 1.835-3.97 3.7-5.936 5.572-1.282 1.222-2.533 2.477-3.78 3.7-1.263-.911-1.326-.918-2.39-.066-.693.555-1.366 1.138-2.05 1.706-.799.662-1.43 1.384-.805 2.5-.308.223-.521.403-.757.544-4.61 2.773-9.217 5.548-13.839 8.3-.428.255-.938.387-1.423.535-.846.257-1.71.462-2.55.738-.218.07-.375.326-.636.567 1.298.866 2.389-.392 3.677-.157-.296 1.4-.58 2.71-.849 4.023-.44 2.157-1.447 3.99-2.852 5.696-2.209 2.682-5.093 3.365-8.31 3.007-3.327-.37-5.88-2.22-7.685-4.915-1.5-2.241-2.668-4.705-3.964-7.08-.147-.27-.168-.605-.284-1.051.705 0 1.297-.009 1.89.002.513.009 1.029.08 1.539.047.446-.03.685-.286.44-.805-.15-.044-.325-.12-.505-.138-.744-.074-1.492-.197-2.235-.18-4.693.101-9.308.837-13.875 1.851-2.246.499-4.233 1.66-5.676 3.435-3.008 3.698-6.004 7.42-8.298 11.63-3.512 6.448-6.681 13.063-9.673 19.765-.7 1.567-1.385 3.14-2.068 4.691-1.407-.31-1.613-.227-2.072 1.003-.457 1.225-.852 2.472-1.276 3.709-.784 2.284-.926 2.041.922 3.714 1.186 1.074 1.485 2.13.926 3.548-.153.389-.222.81-.35 1.21-1.634 5.117-3.253 10.238-4.913 15.345-1.53 4.71-3.326 9.345-4.611 14.118-1.82 6.764-3.171 13.644-4.07 20.606-.422 3.274-.64 6.502.366 9.71.506 1.61 1.395 1.848 2.575.65.053-.053.171-.043.085-.023.606.669 1.052 1.44 1.722 1.832.85.498 1.515-.37 2.165-.807.185.141.298.222.406.308 1.22.953 2.083.78 2.8-.594.255-.49.432-1.022.663-1.582.206.13.36.23.516.323 1.003.6 1.71.424 2.348-.55.468-.715.476-1.495.376-2.295-.327-2.619-.051-5.226.148-7.835.042-.56.148-1.116.226-1.674.257.226.3.442.357.657.128.496.235 1 .403 1.483.184.52.545.864 1.141.88.574.015.871-.371 1.008-.822.186-.614.326-1.256.373-1.894.228-3.075.161-6.2.694-9.219.523-2.967 1.45-5.902 2.535-8.723 2.864-7.452 5.908-14.834 8.888-22.242.08-.197.238-.365.371-.537.447-.577 1.028-1.09 1.325-1.735.897-1.944 1.637-3.96 2.524-5.908 1.375-3.018 2.82-6.004 4.242-9 .091-.188.253-.344.533-.714-.024.433-.006.616-.045.786-.784 3.413-1.522 6.839-2.379 10.233-1.013 4.012-1.615 8.113-3.097 12.026-2.753 7.265-4.213 14.912-6.181 22.404-1.744 6.637-3.139 13.363-4.744 20.037-2.412 10.035-4.904 20.049-7.302 30.086-2.41 10.083-4.733 20.185-7.119 30.274-1.15 4.86-2.364 9.706-3.534 14.563-.27 1.125-.484 2.263-.748 3.509-1.186-.63-1.86-.107-2.467.737-.792 1.1-1.58 2.215-2.491 3.214-.945 1.035-.786 1.82.357 2.669.627.466 1.258.927 1.865 1.374l-3.814 7.06c-.141.023-.236.063-.321.05-1.448-.233-1.956.154-2.079 1.588-.091 1.07-.212 2.14-.275 3.212-.301 5.11-1.802 9.775-4.809 13.987-1.322 1.853-2.49 3.88-3.341 5.985-.836 2.061-.625 3.578 1.493 3.6.44.758.864 1.562 1.927 1.6 1.091.036 1.173 1.437 2.168 1.608.138.023.278.074.414.064.648-.048 1.037.343 1.55.669.907.575 1.71 1.157 2.33 2.045.207.296.738.355 1.105.55.308.165.72.304.863.573.404.76 1.047 1.058 1.824 1.118.613.047 1.038.249 1.347.815.345.635.902 1.111 1.644 1.198.54.062.79.357 1.064.768.221.332.587.579.92.822.4.294.82.57 1.258.805.49.262.995.595 1.524.666.721.097 1.156.423 1.572.988.703.952 1.357 1.06 2.441.55.25-.117.485-.264.563-.307.736.203 1.413.634 1.859.464 1.058-.406 2.077-.227 3.12-.22.364.002.746-.103 1.088-.239.582-.23 1.093-.299 1.724-.028.419.179 1.039.116 1.49-.052.663-.248 1.205-.27 1.86.048.423.205 1.018.248 1.48.136.61-.148 1.199-.028 1.77-.084 1.246-.122 2.463-.1 3.7.024.35.035.746-.106 1.081-.256.662-.297 1.266-.346 2.007-.156.834.212 1.753.154 2.63.106.322-.017.734-.269.923-.54.539-.78 1.32-1.517.704-2.65-.12-.221.048-.621.13-.927.89-3.31-.394-6.462-3.435-8.07-1.397-.74-2.915-1.256-4.386-1.853-.635-.258-1.29-.468-2.054-.741.356-.726.7-1.33.943-1.971.09-.236-.055-.561-.093-.846-.267.132-.638.195-.78.41-.432.653-.777 1.365-1.22 2.173l-2.45-.623c.183-.523.373-.864.405-1.22.024-.262-.158-.543-.248-.814-.228.124-.536.192-.667.382-.285.412-.48.887-.768 1.446l-2.002-.461c1.068-2.079 1.066-2.092-.537-3.261l.22-.485c.534-1.17.16-1.778-1.13-1.788-.5-.004-1.001.064-1.729.115l4.254-10.524-23.848-9.604c.315-1.788 2.632-6.06 3.922-7.278l19.514 11.039c-.567.995-1.065 1.838-1.529 2.699-.227.42-.75.946-.074 1.312.603.326.736-.372.966-.735.566-.891 1.107-1.798 1.696-2.76 1.066.626 1.988 1.176 2.919 1.71.965.553 1.208.5 1.93-.288.567-.618 1.136-1.237 1.743-1.817 1.227-1.17 1.21-2.051-.13-3.096-.536-.419-1.113-.785-1.515-1.066 1.287-2.369 2.63-4.564 3.711-6.881 3.478-7.458 6.41-15.143 9.265-22.856 5.915-15.98 10.185-32.43 14.035-49 1.269-5.463 2.554-10.914 4.46-16.199l.49-1.358c.103.02.206.038.31.057.028.349.074.696.08 1.044.094 5.562.233 11.124.257 16.685.024 5.562-.11 11.124-.097 16.686.014 6.777.161 13.555.152 20.332-.007 5.702-.264 11.404-.214 17.105.065 7.525.35 15.048-.17 22.568-.045.643-.007 1.29-.007 1.969l-.56.212c-1.272.484-1.309.493-1.256 1.81.05 1.26.134 2.52.28 3.77.139 1.191.623 1.648 1.844 1.675 1.024.022 2.052-.116 3.078-.184.687-.046 1.373-.095 2.126-.146.21 1.129.383 2.136.588 3.137.167.817.482 1.618-.162 2.401-.13.157-.023.528.012.795.48 3.657 1.002 7.31 1.435 10.972.181 1.534.071 3.072-.393 4.578-.756 2.454-1.464 4.923-2.176 7.39-.178.616-.298 1.248-.465 1.955-.743-.034-1.391-.093-2.038-.083-.453.007-.91.079-1.351.184-.115.027-.25.296-.236.44.014.144.182.354.319.39.311.08.646.092.972.095.929.01 1.858.004 2.726.004.509.84.592 2.018 1.706 1.981.879-.029 1.744-.449 2.766-.738 1.049 1.52 2.61 1.17 4.193.693.268-.08.528-.214.8-.243.318-.033.704-.082.957.06 1.453.81 2.892.444 4.365.091.562-.135 1.268-.252 1.748-.032 1.333.61 2.62.54 3.966.17.487-.135 1.057-.349 1.495-.216 1.295.392 2.5.128 3.72-.236.616-.184 1.178-.17 1.717.253.772.606 1.654.605 2.536.302.661-.227 1.292-.543 1.95-.776.43-.152.941-.412 1.322-.301 2.017.58 3.992.171 5.99-.052.671-.076 1.373.128 2.062.187.73.064 1.46.135 2.193.151.506.011 1.064-.222 1.51-.077 1.48.48 2.545-.198 3.545-1.1.576-.52.965-1.096.568-1.976-.17-.378-.066-.92.02-1.366.407-2.097.258-4.165-.04-6.27-.414-2.909-3.2-5.768-6.458-6.148-.836-.098-1.673-.196-2.507-.31-.401-.055-.798-.148-1.396-.262l2.32-5.788c-.579-.391-.962-.152-1.219.387-.3.632-.573 1.278-.837 1.927-.471 1.158-.927 2.323-1.348 3.382h-3.477c.38-1.163.723-2.172 1.036-3.19.123-.398.226-.814.243-1.226.005-.15-.243-.37-.422-.441-.103-.04-.368.116-.439.25-.129.24-.158.532-.246.797-.423 1.281-.852 2.56-1.273 3.819h-2.753c.193-2.68.388-5.238.558-7.798.137-2.05.255-4.103.36-6.155.063-1.234-.115-1.398-1.322-1.375-.45.008-.901.001-1.321.001v-3.8c.338-.075.56-.137.787-.174 1.583-.26 1.857-.553 1.942-2.191.048-.933.072-1.87.072-2.803-.002-2.177-.046-2.222-2.167-2.676-.133-.853-.335-1.715-.392-2.588-.204-3.078-.45-6.158-.513-9.24-.229-11.216-.475-22.433-.545-33.652-.038-6.073.341-12.15.409-18.225.146-13.134.233-26.27.304-39.405.04-7.433-.01-14.867 0-22.3.004-2.836-.013-5.674.11-8.504.206-4.761.591-9.514.767-14.275.285-7.707.459-15.418.685-23.126.043-1.477-.09-2.941.425-4.409.41-1.17.878-2.226 1.705-3.164 2.368-2.684 5.149-4.893 7.952-7.086.638-.498 1.511-.813 1.628-1.81.015-.134.244-.272.403-.35 1.168-.585 2.343-1.157 3.518-1.73 1.889-.92 1.96-1.12 1.027-2.942-.062-.122-.099-.257-.113-.295 1.055-1.446 2.085-2.821 3.077-4.223.864-1.222 1.66-2.49 2.53-3.706 2.807-3.924 5.418-7.96 7.45-12.35 1.254-2.712 1.999-5.513 1.959-8.526-.076-5.654-.204-11.311-.094-16.963.088-4.57-.546-9.135.088-13.713.41-2.957.525-5.955.77-8.934" transform="translate(-760 -90) matrix(-1 0 0 1 1288 90) translate(220.77 20.068)"/>
                    </g>
                    <g>
                        <path d="M24.02 14.23c-.432-1.678-1.572-2.672-3.23-2.883-1.316-.168-2.712-.246-4 .007-2.707.531-5.09 1.802-7.025 3.825-.202.212-.444.388-.67.577-.405 1.415-.894 2.814-1.193 4.251-.09.433-.114.85-.09 1.26-.058-.01-.11-.02-.157-.037-1.702-.561-2.997.394-2.932 2.183.049 1.33.688 2.357 1.869 2.912.691.323.85.702.79 1.4C7 32.15 6.28 36.519 5.373 40.863c-.104.5-.014 1.04-.014 1.6.922-.032.886-.602.99-1.085.976-4.521 1.723-9.078 2.133-13.687.129-1.44.113-1.484-1.274-2.202-1.068-.552-1.688-1.738-1.306-2.644.129-.308.446-.69.73-.74.252-.043.604.296.858.525.125.112.597.602.944.907.229.501.5 1.003.804 1.515.312-1.34.477-2.455.835-3.504.866-2.54 2.667-4.34 4.857-5.795 1.34-.89 2.828-.915 3.648-2.163h.007c.744.765 1.278.716 2.037 1.366.982.84 1.868 1.73 2.436 2.853-.007.726-.04 1.451-.106 2.17-.352 3.82-.854 7.615-2.58 11.12-.795 1.615-1.628 1.974-3.398 1.429-1.303-.401-2.544-.931-3.597-1.835-.301-.259-.678-.694-1.057-.194-.345.456.096.788.424 1.029.562.413 1.136.827 1.757 1.14 1.553.785 3.171 1.356 4.943 1.03.162.472.298.818.4 1.175.62 2.153 1.218 4.312 1.855 6.46.158.534.121 1.236 1.231 1.514-.085-.64-.093-1.09-.209-1.511-.643-2.34-1.326-4.669-1.963-7.01-.14-.511-.436-1.009-.064-1.6 1.473-2.33 2.174-4.939 2.676-7.616.334-1.782.59-3.571.71-5.37l.03.035c.218-2.056.357-3.8-.092-5.544" transform="translate(-760 -90) matrix(-1 0 0 1 1288 90) translate(220.77 20.068) translate(66.172 30.987)"/>
                        <path d="M.851 11.69c-.036-1.901.167-2.659.542-3.06-.194.966-.14 1.943.05 2.585.378 1.287 1.069 2.47 2.01 3.165.475.351.947.658 1.43.91-2.016-.42-3.991-1.38-4.032-3.6zm3.948-6.841c.22-.83.41-1.546 1.424-2.17.72-.443 1.618-.44 2.587-.339-1.679.178-2.542 1.422-4.025 2.565l.014-.056zm10.215-3.211c1.253-.596 2.548-1.212 4.207-.834 1.337.305 2.344 1.405 2.692 2.944.109.484.14.965.103 1.41-.061-.913-.788-3.783-3.752-3.783-1.77 0-3.1.708-5.033.996.62-.184 1.209-.461 1.783-.733zm-5.918 14.11c-.015.005-.029.006-.044.01l.012-.109h-.009c-.003-.433-.255-.89.188-1.28 1.936-1.699 3.904-3.352 6.454-4.068 1.337-.376 2.71-.797 3.744.591 1.232-1.105 2.133-2.69 2.452-4.28.423-.738.553-1.832.305-2.929C21.825 2.033 20.737.85 19.286.52c-1.759-.401-3.1.237-4.398.853-.805.383-1.565.743-2.416.873-.94.142-1.905.018-2.838-.102-1.318-.17-2.564-.33-3.565.287-1.112.685-1.327 1.49-1.553 2.342-.036.136-.073.272-.113.41-.336.233-.7.46-1.115.664-.95.47-1.5 1.36-1.78 2.315-.662.416-.994 1.114-.95 3.532.054 2.886 3.038 3.787 5.482 4.08.7.207 1.444.271 2.267.145l.26.005c.224.004.385.007.465.016l.016-.146.046-.037.003-.01h-.001z" transform="translate(-760 -90) matrix(-1 0 0 1 1288 90) translate(220.77 20.068) translate(66.172 30.987)"/>
                    </g>
                    <g>
                        <path d="M5.636 3.187L6.531 6.721 5.226 6.851z" transform="translate(-760 -90) matrix(-1 0 0 1 1288 90) translate(220.77 20.068) translate(79.056 47.943)"/>
                        <g>
                            <path d="M5.638 2.84l-.405 3.623 1.29-.129-.885-3.494zm-.413 3.636l-.004-.002-.001-.005.41-3.665c0-.002.002-.005.005-.005s.006.002.007.004l.895 3.535-.001.005c-.001.002-.003.002-.005.003l-1.304.13h-.002zM4.604.21s.054 1.082-.186 1.309c-1.007-.111-3.275.262-4.412.763C.454 1.246 4.604.21 4.604.21" transform="translate(-760 -90) matrix(-1 0 0 1 1288 90) translate(220.77 20.068) translate(79.056 47.943) translate(0 .381)"/>
                            <path d="M4.598.217c-.095.025-1.09.279-2.123.646C1.062 1.365.214 1.85.018 2.27c1.11-.483 3.36-.871 4.398-.757.223-.217.186-1.2.182-1.296M.006 2.29c-.002 0-.003-.002-.004-.003C0 2.284 0 2.282 0 2.28c.186-.43 1.018-.911 2.47-1.428C3.553.467 4.593.206 4.603.204h.006c.001.001.003.003.003.005.001.044.051 1.088-.189 1.314-.001.001-.003.003-.005.002-1.039-.115-3.305.277-4.408.763H.006M2.87 5.054c-.325.02-.648-.04-.95-.14.111.033.23.05.354.05.616 0 1.118-.439 1.118-.978 0-.218-.169-.478-.329-.658.79.072 1.485.483 1.74.652-.228.272-.942 1.013-1.934 1.074M1.185 3.717c-.018.093-.03.194-.03.269 0 .391.265.73.645.886C1.218 4.657.737 4.31.532 4.149c.119-.101.342-.272.653-.432m3.873.138c-.041-.031-1.033-.772-2.198-.787-1.601-.018-2.567.958-2.608 1-.023.024-.036.057-.034.091 0 .034.016.066.041.088.051.045 1.215 1.059 2.483 1.059.047 0 .095-.002.142-.005 1.33-.082 2.165-1.227 2.2-1.275.04-.055.028-.13-.026-.171M8.328 4.804c-.285.02-.57-.05-.831-.158.045.009.09.014.136.014.497 0 .9-.403.9-.899 0-.217-.075-.42-.212-.581.055-.004.111-.005.167-.005.627 0 1.201.441 1.402.615-.178.247-.758.956-1.562 1.014m-1.876-.842c.065-.056.163-.134.289-.219.024.208.114.417.256.588.038.046.079.087.122.124-.302-.178-.542-.38-.667-.493m3.69-.28c-.032-.03-.774-.755-1.653-.755-1.361 0-2.27.907-2.308.946-.047.048-.047.125 0 .173.01.012.268.274.661.53.49.318.954.48 1.383.48.04 0 .08-.002.12-.004 1.1-.08 1.786-1.17 1.815-1.217.03-.049.022-.112-.019-.153M6.33.21s-.054 1.082.187 1.309c1.007-.111 2.628.155 3.765.656C9.835 1.139 6.331.21 6.331.21" transform="translate(-760 -90) matrix(-1 0 0 1 1288 90) translate(220.77 20.068) translate(79.056 47.943) translate(0 .381)"/>
                            <path d="M7.02 1.488c1.003 0 2.307.263 3.25.675-.193-.419-.93-.886-2.134-1.354-.875-.34-1.712-.568-1.8-.591-.003.097-.04 1.078.184 1.295.154-.017.322-.025.5-.025m3.262.694l-.002-.001c-1.11-.488-2.727-.77-3.762-.656l-.005-.001c-.101-.096-.163-.346-.186-.745-.016-.295-.002-.567-.002-.57 0-.001 0-.003.002-.004s.003-.002.006-.001c.008.002.886.236 1.808.594.852.33 1.915.837 2.147 1.375.001.002 0 .005-.001.007l-.005.002M3.498 7.783c.62.585 1.122.91 1.96.966.84.056 1.427-.25 1.427-.25s-.671 1.137-1.482 1.348c-1.677.438-1.598-.876-1.905-2.064" transform="translate(-760 -90) matrix(-1 0 0 1 1288 90) translate(220.77 20.068) translate(79.056 47.943) translate(0 .381)"/>
                            <path d="M3.51 7.803c.048.187.086.378.122.562.122.603.237 1.174.64 1.424.263.165.632.182 1.129.052.744-.194 1.377-1.182 1.467-1.328-.108.052-.662.291-1.41.242-.843-.056-1.338-.378-1.949-.952m1.307 2.136c-.22 0-.402-.047-.551-.14-.407-.253-.522-.826-.645-1.432-.038-.19-.078-.388-.127-.582-.002-.003 0-.005.002-.007l.007.001c.617.582 1.11.907 1.958.963.827.056 1.416-.246 1.422-.249.003-.001.006 0 .007.002.002.001.002.004.001.007-.006.011-.682 1.14-1.486 1.351-.22.057-.415.086-.588.086" transform="translate(-760 -90) matrix(-1 0 0 1 1288 90) translate(220.77 20.068) translate(79.056 47.943) translate(0 .381)"/>
                        </g>
                    </g>
                </g>
            </g>
        </g>
    </g>
</svg>
