<svg xmlns="http://www.w3.org/2000/svg" width="1184" height="258" viewBox="0 0 1184 258">
    <defs>
        <linearGradient id="q1sufv0hma" x1="399.851%" x2="-204.692%" y1="50%" y2="50%">
            <stop offset="0%" stop-color="#73A5D6"/>
            <stop offset="95%" stop-color="#8FF6FC"/>
            <stop offset="100%" stop-color="#90FAFF"/>
        </linearGradient>
        <linearGradient id="kk0kyj465b" x1="224.492%" x2="-225.467%" y1="50.003%" y2="50.003%">
            <stop offset="0%" stop-color="#73A5D6"/>
            <stop offset="95%" stop-color="#8FF6FC"/>
            <stop offset="100%" stop-color="#90FAFF"/>
        </linearGradient>
        <linearGradient id="srnatdbhlc" x1="59.842%" x2="27.722%" y1="191.001%" y2="-269.421%">
            <stop offset="0%" stop-color="#73A5D6"/>
            <stop offset="95%" stop-color="#8FF6FC"/>
            <stop offset="100%" stop-color="#90FAFF"/>
        </linearGradient>
        <linearGradient id="tn4kyk555d" x1="-1545.161%" x2="5078.602%" y1="49.892%" y2="49.892%">
            <stop offset="0%" stop-color="#73A5D6"/>
            <stop offset="95%" stop-color="#8FF6FC"/>
            <stop offset="100%" stop-color="#90FAFF"/>
        </linearGradient>
        <linearGradient id="wjdtu8umwe" x1="-2678.925%" x2="3944.839%" y1="50%" y2="50%">
            <stop offset="0%" stop-color="#73A5D6"/>
            <stop offset="95%" stop-color="#8FF6FC"/>
            <stop offset="100%" stop-color="#90FAFF"/>
        </linearGradient>
        <linearGradient id="o6kyofhkof" x1="-1535.03%" x2="5090.573%" y1="49.999%" y2="49.999%">
            <stop offset="0%" stop-color="#73A5D6"/>
            <stop offset="95%" stop-color="#8FF6FC"/>
            <stop offset="100%" stop-color="#90FAFF"/>
        </linearGradient>
        <linearGradient id="2fnxm5l6rg" x1=".323%" x2="6626.129%" y1="49.892%" y2="49.892%">
            <stop offset="0%" stop-color="#73A5D6"/>
            <stop offset="95%" stop-color="#8FF6FC"/>
            <stop offset="100%" stop-color="#90FAFF"/>
        </linearGradient>
        <linearGradient id="6qz5vrzjqh" x1=".323%" x2="6624.086%" y1="50%" y2="50%">
            <stop offset="0%" stop-color="#73A5D6"/>
            <stop offset="95%" stop-color="#8FF6FC"/>
            <stop offset="100%" stop-color="#90FAFF"/>
        </linearGradient>
        <linearGradient id="80sw5nd25i" x1="180.863%" x2="-34.724%" y1="35.083%" y2="59.66%">
            <stop offset="0%" stop-color="#73A5D6"/>
            <stop offset="95%" stop-color="#8FF6FC"/>
            <stop offset="100%" stop-color="#90FAFF"/>
        </linearGradient>
        <linearGradient id="q79zjt5isj" x1="-91.008%" x2="153.712%" y1="48.653%" y2="50.991%">
            <stop offset="0%" stop-color="#73A5D6"/>
            <stop offset="95%" stop-color="#8FF6FC"/>
            <stop offset="100%" stop-color="#90FAFF"/>
        </linearGradient>
        <linearGradient id="2ytjnrqhgk" x1="-91.008%" x2="153.712%" y1="48.7%" y2="50.957%">
            <stop offset="0%" stop-color="#73A5D6"/>
            <stop offset="95%" stop-color="#8FF6FC"/>
            <stop offset="100%" stop-color="#90FAFF"/>
        </linearGradient>
        <linearGradient id="pzqcsystul" x1="3088.907%" x2="-3602.91%" y1="50%" y2="50%">
            <stop offset="0%" stop-color="#73A5D6"/>
            <stop offset="95%" stop-color="#8FF6FC"/>
            <stop offset="100%" stop-color="#90FAFF"/>
        </linearGradient>
        <linearGradient id="5729xxxham" x1="2587.876%" x2="-4103.008%" y1="50%" y2="50%">
            <stop offset="0%" stop-color="#73A5D6"/>
            <stop offset="95%" stop-color="#8FF6FC"/>
            <stop offset="100%" stop-color="#90FAFF"/>
        </linearGradient>
        <linearGradient id="2j6ke7vlgn" x1="1582.801%" x2="-5110.244%" y1="50%" y2="50%">
            <stop offset="0%" stop-color="#73A5D6"/>
            <stop offset="95%" stop-color="#8FF6FC"/>
            <stop offset="100%" stop-color="#90FAFF"/>
        </linearGradient>
        <linearGradient id="r09o6omhoo" x1="0%" x2="100%" y1="49.978%" y2="49.978%">
            <stop offset="0%" stop-color="#73A5D6"/>
            <stop offset="95%" stop-color="#8FF6FC"/>
            <stop offset="100%" stop-color="#90FAFF"/>
        </linearGradient>
        <linearGradient id="z849vk9trp" x1="3.728%" x2="100.819%" y1="50.351%" y2="49.623%">
            <stop offset="0%" stop-color="#73A5D6"/>
            <stop offset="95%" stop-color="#8FF6FC"/>
            <stop offset="100%" stop-color="#90FAFF"/>
        </linearGradient>
        <linearGradient id="264wut39qq" x1="59.016%" x2="145.77%" y1="74.346%" y2="311.27%">
            <stop offset="0%" stop-color="#73A5D6"/>
            <stop offset="95%" stop-color="#8FF6FC"/>
            <stop offset="100%" stop-color="#90FAFF"/>
        </linearGradient>
        <linearGradient id="431liqaa0r" x1="-54.506%" x2="101.027%" y1="-119.194%" y2="131.431%">
            <stop offset="0%" stop-color="#73A5D6"/>
            <stop offset="95%" stop-color="#8FF6FC"/>
            <stop offset="100%" stop-color="#90FAFF"/>
        </linearGradient>
        <linearGradient id="y0vi7njrfs" x1="25.831%" x2="104.193%" y1="10.177%" y2="122.843%">
            <stop offset="0%" stop-color="#73A5D6"/>
            <stop offset="95%" stop-color="#8FF6FC"/>
            <stop offset="100%" stop-color="#90FAFF"/>
        </linearGradient>
        <linearGradient id="wxlmmqmcxt" x1="79.436%" x2="189.93%" y1="71.623%" y2="153.314%">
            <stop offset="0%" stop-color="#73A5D6"/>
            <stop offset="95%" stop-color="#8FF6FC"/>
            <stop offset="100%" stop-color="#90FAFF"/>
        </linearGradient>
        <linearGradient id="z7jo90dliu" x1="61.822%" x2="134.112%" y1="70.679%" y2="200.279%">
            <stop offset="0%" stop-color="#73A5D6"/>
            <stop offset="95%" stop-color="#8FF6FC"/>
            <stop offset="100%" stop-color="#90FAFF"/>
        </linearGradient>
        <linearGradient id="n3fiayvt7v" x1="50.123%" x2="211.779%" y1="50.098%" y2="110.991%">
            <stop offset="0%" stop-color="#73A5D6"/>
            <stop offset="95%" stop-color="#8FF6FC"/>
            <stop offset="100%" stop-color="#90FAFF"/>
        </linearGradient>
        <linearGradient id="yjsam0n1vw" x1="186.635%" x2="163.791%" y1="-451.768%" y2="-368.701%">
            <stop offset="0%" stop-color="#73A5D6"/>
            <stop offset="95%" stop-color="#8FF6FC"/>
            <stop offset="100%" stop-color="#90FAFF"/>
        </linearGradient>
        <linearGradient id="0gc3ccv87x" x1="783.321%" x2="670.235%" y1="-1674.278%" y2="-1389.453%">
            <stop offset="0%" stop-color="#73A5D6"/>
            <stop offset="95%" stop-color="#8FF6FC"/>
            <stop offset="100%" stop-color="#90FAFF"/>
        </linearGradient>
        <linearGradient id="1vm4fibk1y" x1="480.923%" x2="414.967%" y1="-1160.3%" y2="-975.058%">
            <stop offset="0%" stop-color="#73A5D6"/>
            <stop offset="95%" stop-color="#8FF6FC"/>
            <stop offset="100%" stop-color="#90FAFF"/>
        </linearGradient>
        <linearGradient id="4sd2drr3ez" x1="41.673%" x2="127.358%" y1="23.004%" y2="299.926%">
            <stop offset="0%" stop-color="#73A5D6"/>
            <stop offset="95%" stop-color="#8FF6FC"/>
            <stop offset="100%" stop-color="#90FAFF"/>
        </linearGradient>
        <linearGradient id="md4kexaxdA" x1="12.371%" x2="128.374%" y1="-13.6%" y2="178.863%">
            <stop offset="0%" stop-color="#73A5D6"/>
            <stop offset="95%" stop-color="#8FF6FC"/>
            <stop offset="100%" stop-color="#90FAFF"/>
        </linearGradient>
        <linearGradient id="a3bagmfeqB" x1="53.5%" x2="204.769%" y1="53.029%" y2="193.341%">
            <stop offset="0%" stop-color="#73A5D6"/>
            <stop offset="95%" stop-color="#8FF6FC"/>
            <stop offset="100%" stop-color="#90FAFF"/>
        </linearGradient>
        <linearGradient id="g3tq2wkerC" x1="42.436%" x2="81.949%" y1="20.082%" y2="187.129%">
            <stop offset="0%" stop-color="#73A5D6"/>
            <stop offset="95%" stop-color="#8FF6FC"/>
            <stop offset="100%" stop-color="#90FAFF"/>
        </linearGradient>
        <linearGradient id="qv0kf7hoyD" x1="-11.946%" x2="76.783%" y1="-37.283%" y2="88.18%">
            <stop offset="0%" stop-color="#73A5D6"/>
            <stop offset="95%" stop-color="#8FF6FC"/>
            <stop offset="100%" stop-color="#90FAFF"/>
        </linearGradient>
        <linearGradient id="vgns98ghnE" x1="33.206%" x2="191.385%" y1="45.876%" y2="114.395%">
            <stop offset="0%" stop-color="#73A5D6"/>
            <stop offset="95%" stop-color="#8FF6FC"/>
            <stop offset="100%" stop-color="#90FAFF"/>
        </linearGradient>
        <linearGradient id="gkyass52eF" x1="32.552%" x2="91.715%" y1="-18.962%" y2="214.206%">
            <stop offset="0%" stop-color="#73A5D6"/>
            <stop offset="95%" stop-color="#8FF6FC"/>
            <stop offset="100%" stop-color="#90FAFF"/>
        </linearGradient>
        <linearGradient id="pmgvf5f6oG" x1="-9.693%" x2="176.832%" y1="-51.49%" y2="265.129%">
            <stop offset="0%" stop-color="#73A5D6"/>
            <stop offset="95%" stop-color="#8FF6FC"/>
            <stop offset="100%" stop-color="#90FAFF"/>
        </linearGradient>
        <linearGradient id="u38d7iphiH" x1="8.908%" x2="86.193%" y1="-92.081%" y2="174.704%">
            <stop offset="0%" stop-color="#73A5D6"/>
            <stop offset="95%" stop-color="#8FF6FC"/>
            <stop offset="100%" stop-color="#90FAFF"/>
        </linearGradient>
        <linearGradient id="liv7n2qu8I" x1="-84.955%" x2="177.668%" y1="-174.337%" y2="261.183%">
            <stop offset="0%" stop-color="#73A5D6"/>
            <stop offset="95%" stop-color="#8FF6FC"/>
            <stop offset="100%" stop-color="#90FAFF"/>
        </linearGradient>
        <linearGradient id="qx3exz5qoJ" x1="30.605%" x2="96.103%" y1="-17.439%" y2="214.958%">
            <stop offset="0%" stop-color="#73A5D6"/>
            <stop offset="95%" stop-color="#8FF6FC"/>
            <stop offset="100%" stop-color="#90FAFF"/>
        </linearGradient>
        <linearGradient id="holstdsvxK" x1="9.357%" x2="177.885%" y1="-3.263%" y2="179.552%">
            <stop offset="0%" stop-color="#73A5D6"/>
            <stop offset="95%" stop-color="#8FF6FC"/>
            <stop offset="100%" stop-color="#90FAFF"/>
        </linearGradient>
        <linearGradient id="058tf3vxkL" x1="-39.433%" x2="110.602%" y1="-134.957%" y2="174.34%">
            <stop offset="0%" stop-color="#73A5D6"/>
            <stop offset="95%" stop-color="#8FF6FC"/>
            <stop offset="100%" stop-color="#90FAFF"/>
        </linearGradient>
        <linearGradient id="8302f4m2tM" x1="143.567%" x2="-32.766%" y1="144.485%" y2="-33.586%">
            <stop offset="0%" stop-color="#73A5D6"/>
            <stop offset="95%" stop-color="#8FF6FC"/>
            <stop offset="100%" stop-color="#90FAFF"/>
        </linearGradient>
        <linearGradient id="9kto4wwzkN" x1="127.29%" x2="-18.375%" y1="128.059%" y2="-19.049%">
            <stop offset="0%" stop-color="#73A5D6"/>
            <stop offset="95%" stop-color="#8FF6FC"/>
            <stop offset="100%" stop-color="#90FAFF"/>
        </linearGradient>
        <linearGradient id="n956n9cxbO" x1="49.887%" x2="50.18%" y1="151.768%" y2="-96.696%">
            <stop offset="0%" stop-color="#73A5D6"/>
            <stop offset="95%" stop-color="#8FF6FC"/>
            <stop offset="100%" stop-color="#90FAFF"/>
        </linearGradient>
        <linearGradient id="ny8p7zg2qP" x1="248.591%" x2="-385.097%" y1="54.66%" y2="39.791%">
            <stop offset="0%" stop-color="#73A5D6"/>
            <stop offset="95%" stop-color="#8FF6FC"/>
            <stop offset="100%" stop-color="#90FAFF"/>
        </linearGradient>
        <linearGradient id="32otf2olpQ" x1="48.68%" x2="53.493%" y1="171.184%" y2="-270.682%">
            <stop offset="0%" stop-color="#73A5D6"/>
            <stop offset="95%" stop-color="#8FF6FC"/>
            <stop offset="100%" stop-color="#90FAFF"/>
        </linearGradient>
        <linearGradient id="o0a2rbq1zR" x1="49.53%" x2="51.38%" y1="123.232%" y2="-164.973%">
            <stop offset="0%" stop-color="#73A5D6"/>
            <stop offset="95%" stop-color="#8FF6FC"/>
            <stop offset="100%" stop-color="#90FAFF"/>
        </linearGradient>
        <linearGradient id="c28cwv0xwS" x1="125.023%" x2="-210.071%" y1="125.602%" y2="-212.707%">
            <stop offset="0%" stop-color="#73A5D6"/>
            <stop offset="95%" stop-color="#8FF6FC"/>
            <stop offset="100%" stop-color="#90FAFF"/>
        </linearGradient>
        <linearGradient id="nh5lnonbiT" x1="124.88%" x2="-210.66%" y1="125.59%" y2="-213.245%">
            <stop offset="0%" stop-color="#73A5D6"/>
            <stop offset="95%" stop-color="#8FF6FC"/>
            <stop offset="100%" stop-color="#90FAFF"/>
        </linearGradient>
        <linearGradient id="o6nfbo7zlU" x1="124.452%" x2="-210.641%" y1="125.551%" y2="-212.834%">
            <stop offset="0%" stop-color="#73A5D6"/>
            <stop offset="95%" stop-color="#8FF6FC"/>
            <stop offset="100%" stop-color="#90FAFF"/>
        </linearGradient>
        <linearGradient id="1g57fdc62V" x1="-49.261%" x2="81.248%" y1="-64.445%" y2="102.062%">
            <stop offset="0%" stop-color="#73A5D6"/>
            <stop offset="95%" stop-color="#8FF6FC"/>
            <stop offset="100%" stop-color="#90FAFF"/>
        </linearGradient>
        <linearGradient id="nf59gfg9nW" x1="0%" x2="100%" y1="49.997%" y2="49.997%">
            <stop offset="0%" stop-color="#73A5D6"/>
            <stop offset="95%" stop-color="#8FF6FC"/>
            <stop offset="100%" stop-color="#90FAFF"/>
        </linearGradient>
        <linearGradient id="xae4kooaqX" x1="-14.348%" x2="130.095%" y1="-3.717%" y2="111.645%">
            <stop offset="0%" stop-color="#73A5D6"/>
            <stop offset="95%" stop-color="#8FF6FC"/>
            <stop offset="100%" stop-color="#90FAFF"/>
        </linearGradient>
        <linearGradient id="78ffrr68cY" x1=".005%" x2="100%" y1="49.993%" y2="49.993%">
            <stop offset="0%" stop-color="#73A5D6"/>
            <stop offset="95%" stop-color="#8FF6FC"/>
            <stop offset="100%" stop-color="#90FAFF"/>
        </linearGradient>
        <linearGradient id="yb89lrse1Z" x1="0%" x2="100%" y1="50%" y2="50%">
            <stop offset="0%" stop-color="#73A5D6"/>
            <stop offset="95%" stop-color="#8FF6FC"/>
            <stop offset="100%" stop-color="#90FAFF"/>
        </linearGradient>
        <linearGradient id="d7loivkppaa" x1="-.014%" x2="100.019%" y1="50.003%" y2="50.003%">
            <stop offset="0%" stop-color="#73A5D6"/>
            <stop offset="95%" stop-color="#8FF6FC"/>
            <stop offset="100%" stop-color="#90FAFF"/>
        </linearGradient>
        <linearGradient id="n45q75k4eab" x1="0%" x2="100.028%" y1="49.997%" y2="49.997%">
            <stop offset="0%" stop-color="#73A5D6"/>
            <stop offset="95%" stop-color="#8FF6FC"/>
            <stop offset="100%" stop-color="#90FAFF"/>
        </linearGradient>
        <linearGradient id="p3xfygpvoac" x1="-83.933%" x2="204.371%" y1="-105.46%" y2="255.758%">
            <stop offset="0%" stop-color="#73A5D6"/>
            <stop offset="95%" stop-color="#8FF6FC"/>
            <stop offset="100%" stop-color="#90FAFF"/>
        </linearGradient>
        <linearGradient id="tb1rjt481ad" x1="-11.04%" x2="128.111%" y1="-32.325%" y2="135.784%">
            <stop offset="0%" stop-color="#73A5D6"/>
            <stop offset="95%" stop-color="#8FF6FC"/>
            <stop offset="100%" stop-color="#90FAFF"/>
        </linearGradient>
        <linearGradient id="big0n95pmae" x1="22.285%" x2="77.689%" y1="66.779%" y2="33.209%">
            <stop offset="0%" stop-color="#73A5D6"/>
            <stop offset="95%" stop-color="#8FF6FC"/>
            <stop offset="100%" stop-color="#90FAFF"/>
        </linearGradient>
        <linearGradient id="nkypl1uz9af" x1="-1545.699%" x2="5078.065%" y1="50%" y2="50%">
            <stop offset="0%" stop-color="#73A5D6"/>
            <stop offset="95%" stop-color="#8FF6FC"/>
            <stop offset="100%" stop-color="#90FAFF"/>
        </linearGradient>
        <linearGradient id="5qs110fdyag" x1=".323%" x2="6626.129%" y1="50%" y2="50%">
            <stop offset="0%" stop-color="#73A5D6"/>
            <stop offset="95%" stop-color="#8FF6FC"/>
            <stop offset="100%" stop-color="#90FAFF"/>
        </linearGradient>
        <linearGradient id="6eyr4w7rcah" x1=".43%" x2="6624.193%" y1="49.893%" y2="49.893%">
            <stop offset="0%" stop-color="#73A5D6"/>
            <stop offset="95%" stop-color="#8FF6FC"/>
            <stop offset="100%" stop-color="#90FAFF"/>
        </linearGradient>
    </defs>
    <g fill="none">
        <path fill="url(#q1sufv0hma)" d="M1041.995 136.147L971.273 136.147 935.502 74.19 970.863 12.935 973.303 14.347 938.752 74.19 972.902 133.323 1041.995 133.323z"/>
        <path fill="url(#kk0kyj465b)" d="M1147.427 196.684h-71.541l-35.77-61.949 35.77-61.957h71.541l35.77 61.957-35.77 61.95zm-69.912-2.815h68.283l34.15-59.134-34.15-59.141h-68.283l-34.141 59.141 34.141 59.134z"/>
        <path fill="url(#srnatdbhlc)" d="M1162.696 190.65L1165.512 190.65 1165.512 260.562 1162.696 260.562z" transform="rotate(-30 1164.104 225.606)"/>
        <path fill="url(#tn4kyk555d)" d="M1073.847 63.645c0 2.146-1.74 3.886-3.885 3.886-2.146 0-3.886-1.74-3.886-3.886s1.74-3.885 3.886-3.885 3.885 1.74 3.885 3.885z"/>
        <path fill="url(#wjdtu8umwe)" d="M1161.966 235.931c0 2.146-1.74 3.885-3.885 3.885-2.146 0-3.886-1.74-3.886-3.885 0-2.146 1.74-3.885 3.886-3.885 1.03 0 2.018.409 2.747 1.138.729.728 1.138 1.717 1.138 2.747z"/>
        <path fill="url(#o6kyofhkof)" d="M1064.673 191.537c0 1.573-.948 2.99-2.4 3.59-1.454.602-3.126.268-4.236-.845-1.11-1.113-1.441-2.786-.837-4.237.604-1.452 2.023-2.396 3.595-2.393 2.143.004 3.878 1.743 3.878 3.885z"/>
        <path fill="url(#2fnxm5l6rg)" d="M954.762 80.357c0 2.145-1.74 3.885-3.885 3.885-2.146 0-3.886-1.74-3.886-3.885 0-2.146 1.74-3.886 3.885-3.886 2.146 0 3.886 1.74 3.886 3.886z"/>
        <path fill="url(#6qz5vrzjqh)" d="M985.043 29.303c0 2.146-1.74 3.886-3.886 3.886-2.145 0-3.885-1.74-3.885-3.886 0-2.145 1.74-3.885 3.885-3.885 2.146 0 3.886 1.74 3.886 3.885z"/>
        <path fill="url(#80sw5nd25i)" d="M175.417 61.377L264.431 61.377 264.431 64.11 175.417 64.11z" transform="rotate(-60.07 219.924 62.743)"/>
        <path fill="url(#q79zjt5isj)" d="M242.632 22.819L330.074 22.819"/>
        <path fill="url(#2ytjnrqhgk)" d="M331.654 25.552L241.053 25.552"/>
        <path fill="url(#pzqcsystul)" d="M202.107 101.27c0 2.456-1.99 4.446-4.445 4.446s-4.445-1.99-4.445-4.445 1.99-4.445 4.445-4.445c1.18-.003 2.312.465 3.146 1.3.834.833 1.301 1.965 1.3 3.145z"/>
        <path fill="url(#5729xxxham)" d="M246.618 24.181c0 2.455-1.99 4.446-4.445 4.446s-4.446-1.99-4.446-4.446c0-2.455 1.99-4.445 4.446-4.445 2.455 0 4.445 1.99 4.445 4.445z"/>
        <path fill="url(#2j6ke7vlgn)" d="M336.032 24.181c0 2.455-1.99 4.446-4.445 4.446s-4.445-1.99-4.445-4.446c0-2.455 1.99-4.445 4.445-4.445s4.445 1.99 4.445 4.445z"/>
        <path fill="url(#r09o6omhoo)" d="M31.61 28.067l-.903 1.537 5.014 2.983.91-1.529-5.021-2.991zm7.912 4.679l-.91 1.537 5.013 2.992.953-1.496-5.056-2.991v-.042zm7.905 4.704l-.903 1.538 5.014 2.99.91-1.545-5.013-2.983h-.008zm7.913 4.68l-.911 1.537 5.055 2.974.91-1.537-5.013-2.991-.041.016zm7.904 4.679l-.902 1.504 5.013 2.99.91-1.537-5.012-2.99-.009.033zm7.913 4.679l-.91 1.537 5.013 2.991.91-1.537-5.013-2.991zm7.904 4.679l-.902 1.537 5.013 2.992.945-1.521-5.014-2.991-.042-.017zm7.913 4.68l-.91 1.528 5.055 2.991.91-1.537-5.013-2.983h-.042zm7.913 4.678l-.944 1.521 5.013 2.983.903-1.537-5.014-2.983.042.016zm7.905 4.68l-.911 1.503 5.055 2.992.91-1.538-5.013-2.991-.041.033zm7.912 4.679l-.885 1.52 5.013 2.992.91-1.538-5.054-2.991.016.017zm7.913 4.679l-.919 1.537 5.014 2.992.952-1.521-5.013-2.991-.034-.017z"/>
        <path fill="url(#z849vk9trp)" d="M581.848 43.592l-.159-1.864 6.133-.51.15 1.864-6.124.51zm9.592-.836l-.159-1.863 6.125-.51.159 1.863-6.125.51zm9.584-.836l-.15-1.863 6.124-.51.15 1.864-6.124.51zm9.592-.835l-.158-1.863 6.133-.51.15 1.863-6.125.51zm9.584-.794l-.15-1.872 6.125-.51.158 1.864-6.133.518zm9.593-.835l-.15-1.855 6.124-.518.15 1.863-6.124.51zm9.592-.836l-.159-1.863 6.125-.51.159 1.863-6.125.51zm9.584-.836l-.15-1.871 6.124-.51.16 1.872-6.134.51zm9.592-.835l-.158-1.863 6.133-.519.15 1.864-6.125.518zm9.584-.836l-.167-1.596 6.125-.518.159 1.864-6.117.25zm9.593-.835l-.15-1.864 6.124-.51.15 1.864-6.124.51zm9.592-.836l-.134-1.529 6.1-.476.159 1.863-6.125.142zm9.584-.835l-.15-1.864 6.124-.51.15 1.864-6.124.51zm9.592-.836l-.159-1.863 6.134-.51.15 1.863-6.125.51zm9.593-.794l-.16-1.871 6.126-.51.158 1.863-6.124.518zm9.584-.835l-.16-1.864 6.134-.51.15 1.864-6.124.51zm9.592-.376l-.159-1.872 6.125-.51.159 1.864-6.125.518zm9.575-.836l-.15-1.855 6.125-.518.15 1.863-6.125.51zm9.593-.794l-.159-1.863 6.125-.518.159 1.872-6.125.51zm9.584-.835l-.15-1.864L770 25.92l.159 1.864-6.133.518zm9.592-.836l-.15-1.863 6.124-.51.15 1.863-6.124.51zm9.592-.835l-.15-1.713 6.133-.518.15 1.871-6.133.36zm9.593-.836l-.159-1.713 6.133-.51.159 1.864-6.133.359zm9.584-.836l-.16-1.863 6.126-.51.158 1.864-6.124.51z"/>
        <path fill="url(#264wut39qq)" d="M685.8 203.845c-.852 0-1.622-.51-1.954-1.295-2.339-5.524-3.538-11.464-3.526-17.463.07-1.119.997-1.99 2.118-1.99 1.12 0 2.048.871 2.118 1.99-.014 5.433 1.072 10.814 3.192 15.817.219.517.223 1.1.012 1.621-.212.52-.622.936-1.14 1.153-.259.112-.538.17-.82.167z"/>
        <path fill="url(#431liqaa0r)" d="M763.283 208.834c-.312-.005-.62-.076-.902-.21-.508-.238-.9-.67-1.09-1.198-.19-.528-.161-1.11.079-1.617 1.812-3.844 3.005-7.95 3.534-12.166.266-1.035 1.26-1.71 2.32-1.577 1.061.133 1.857 1.035 1.858 2.103-.587 4.66-1.907 9.197-3.91 13.445-.344.735-1.077 1.209-1.889 1.22z"/>
        <path fill="url(#y0vi7njrfs)" d="M767.946 187.209c-1.173 0-2.123-.95-2.123-2.122.019-16.338-9.761-31.095-24.816-37.442-.697-.299-1.182-.946-1.272-1.7-.09-.752.229-1.496.836-1.95.607-.455 1.41-.55 2.107-.252 16.62 7.012 27.418 23.304 27.398 41.344 0 .564-.224 1.105-.624 1.503-.4.399-.942.621-1.506.619z"/>
        <path fill="url(#wxlmmqmcxt)" d="M684.807 173.155c-.24.002-.477-.038-.702-.117-1.104-.387-1.687-1.594-1.304-2.7 6.303-18.014 23.303-30.078 42.389-30.08 1.118.07 1.989.998 1.989 2.119 0 1.12-.871 2.048-1.99 2.118-17.294.006-32.693 10.95-38.385 27.281-.314.83-1.11 1.38-1.997 1.379z"/>
        <path fill="url(#z7jo90dliu)" d="M691.24 191.379c-1.073-.005-1.975-.807-2.105-1.872-.175-1.467-.261-2.943-.26-4.42.028-12.934 6.906-24.886 18.074-31.41 1.005-.507 2.23-.142 2.794.832.564.974.27 2.219-.672 2.837-11.09 6.465-17.272 18.907-15.725 31.651.143 1.163-.684 2.221-1.847 2.365l-.259.017z"/>
        <path fill="url(#n3fiayvt7v)" d="M746.204 160.229c-.47-.002-.926-.16-1.295-.452-6.906-5.368-15.7-7.691-24.357-6.434-.786.2-1.616-.066-2.14-.685-.524-.618-.65-1.481-.325-2.224.325-.742 1.045-1.234 1.855-1.268 1.738-.251 3.492-.377 5.248-.376 8.09-.032 15.953 2.668 22.318 7.662.712.557.992 1.505.698 2.36-.294.856-1.097 1.431-2.002 1.433v-.016z"/>
        <path fill="url(#yjsam0n1vw)" d="M747.683 223.573c-.491.001-.967-.17-1.345-.485-.903-.743-1.034-2.078-.293-2.983 11.005-13.419 16.294-36.706 6.083-52.448-.637-.98-.358-2.292.623-2.929.98-.637 2.292-.358 2.928.623 5.214 8.038 7.22 18.583 5.632 29.679-1.46 10.156-5.6 19.74-11.99 27.766-.403.49-1.003.776-1.638.777z"/>
        <path fill="url(#0gc3ccv87x)" d="M727.379 200.085c-1.137-.003-2.07-.902-2.114-2.039-.135-3.968-.715-7.909-1.73-11.748-.245-.747-.057-1.569.49-2.135.545-.566 1.36-.784 2.115-.566.756.219 1.329.837 1.49 1.607 1.09 4.142 1.719 8.394 1.871 12.675.042 1.17-.87 2.152-2.039 2.198l-.083.008z"/>
        <path fill="url(#1vm4fibk1y)" d="M722.457 229.957c-.269.003-.536-.049-.785-.15-.521-.209-.938-.615-1.159-1.131-.22-.516-.228-1.098-.02-1.619 2.793-6.96 4.504-14.306 5.073-21.783.14-1.117 1.128-1.93 2.252-1.853 1.123.078 1.99 1.02 1.976 2.145-.599 7.917-2.408 15.694-5.365 23.062-.324.804-1.105 1.33-1.972 1.329z"/>
        <path fill="url(#4sd2drr3ez)" d="M691.742 213.83c-.198-.003-.394-.031-.585-.083-.542-.154-1-.517-1.273-1.01-.273-.492-.338-1.073-.181-1.614 1.176-4.205 1.497-8.603.944-12.935.005-1.067.802-1.964 1.861-2.096 1.06-.13 2.051.545 2.317 1.578.614 4.898.245 9.87-1.086 14.623-.257.895-1.066 1.518-1.997 1.537z"/>
        <path fill="url(#md4kexaxdA)" d="M751.1 187.209c-1.172 0-2.122-.95-2.122-2.122-.001-7.85-3.875-15.194-10.353-19.628-.883-.69-1.078-1.95-.443-2.874.635-.924 1.88-1.195 2.842-.618 7.624 5.226 12.182 13.876 12.182 23.12 0 1.165-.94 2.113-2.105 2.122z"/>
        <path fill="url(#a3bagmfeqB)" d="M699.287 187.209c-1.172 0-2.122-.95-2.122-2.122.018-15.47 12.554-28.007 28.025-28.025.96 0 1.92.05 2.874.15 1.02.258 1.698 1.226 1.591 2.273-.107 1.048-.965 1.858-2.017 1.905-.813-.09-1.63-.135-2.448-.134-13.15.014-23.798 10.682-23.79 23.83 0 1.17-.944 2.118-2.113 2.123z"/>
        <path fill="url(#g3tq2wkerC)" d="M698.618 220.699c-.253 0-.505-.046-.743-.134-.526-.197-.951-.595-1.183-1.106-.232-.51-.251-1.093-.054-1.618 1.721-4.596 2.599-9.464 2.59-14.372.002-3.222-.374-6.433-1.12-9.567-.187-.739.037-1.521.588-2.048.55-.527 1.342-.717 2.072-.497.73.22 1.284.815 1.452 1.559 2.097 8.769 1.535 17.964-1.613 26.412-.313.826-1.105 1.372-1.989 1.37z"/>
        <path fill="url(#qv0kf7hoyD)" d="M730.813 230.107c-.927-.005-1.743-.61-2.017-1.496-.273-.885.06-1.846.822-2.373 10.663-7.313 17.688-18.839 19.302-31.668.044-.793.529-1.495 1.256-1.816.726-.321 1.572-.208 2.188.293.617.502.9 1.306.734 2.083-1.764 14.02-9.443 26.614-21.099 34.601-.349.24-.762.372-1.186.376z"/>
        <path fill="url(#vgns98ghnE)" d="M709.949 179.271c-.34-.004-.675-.087-.978-.242-1.036-.55-1.432-1.836-.886-2.875 2.775-5.293 7.844-9.004 13.73-10.05 5.884-1.047 11.921.69 16.35 4.703.6.5.875 1.288.719 2.053-.156.764-.719 1.38-1.466 1.606-.746.226-1.556.024-2.11-.526-3.452-3.154-8.174-4.523-12.778-3.704-4.604.818-8.565 3.731-10.718 7.882-.36.7-1.076 1.144-1.863 1.153z"/>
        <path fill="url(#gkyass52eF)" d="M710.71 207.672c-1.168 0-2.115-.946-2.115-2.114-.014-6.048-.834-12.067-2.44-17.898-.311-1.126.35-2.291 1.475-2.603 1.126-.311 2.291.35 2.603 1.475 1.708 6.196 2.582 12.591 2.599 19.018 0 1.169-.946 2.117-2.114 2.122h-.009z"/>
        <path fill="url(#pmgvf5f6oG)" d="M706.682 225.704c-.29-.004-.574-.07-.836-.193-.512-.23-.912-.654-1.11-1.18-.197-.525-.177-1.108.057-1.619 1.387-3.056 2.364-6.28 2.908-9.592.192-1.154 1.282-1.934 2.436-1.742 1.153.191 1.933 1.282 1.742 2.436-.603 3.675-1.69 7.255-3.234 10.645-.345.771-1.118 1.261-1.963 1.245z"/>
        <path fill="url(#u38d7iphiH)" d="M744.174 198.18h-.16c-1.166-.076-2.05-1.08-1.98-2.248.323-4.937-.357-9.888-1.996-14.555-.335-1.09.25-2.249 1.326-2.626 1.075-.377 2.257.162 2.676 1.222 1.829 5.207 2.593 10.727 2.248 16.235-.08 1.11-1.002 1.97-2.114 1.972z"/>
        <path fill="url(#liv7n2qu8I)" d="M714.152 228.52c-.289-.003-.573-.066-.836-.184-1.07-.476-1.552-1.729-1.078-2.8.997-2.238 1.835-4.545 2.507-6.901.378-1.055 1.512-1.634 2.588-1.322 1.076.312 1.725 1.406 1.481 2.5-.737 2.544-1.647 5.034-2.724 7.453-.34.765-1.1 1.257-1.938 1.254z"/>
        <path fill="url(#qx3exz5qoJ)" d="M718.162 214.716h-.317c-1.158-.176-1.955-1.257-1.78-2.415.5-3.337.646-6.717.435-10.085-.109-1.613-.293-3.234-.552-4.813-.191-1.154.589-2.244 1.742-2.436 1.154-.191 2.245.589 2.436 1.742.284 1.722.485 3.485.602 5.24.23 3.669.07 7.352-.477 10.987-.164 1.026-1.05 1.78-2.089 1.78z"/>
        <path fill="url(#holstdsvxK)" d="M736.754 200.879c-1.17-.005-2.114-.954-2.114-2.122 0-7.094-1.98-20.53-9.45-20.53-3.787.004-6.856 3.073-6.86 6.86v.384c.043.755-.32 1.476-.953 1.891-.632.416-1.438.462-2.114.122-.675-.34-1.118-1.015-1.161-1.77v-.627c.009-6.125 4.971-11.087 11.096-11.097 10.102 0 13.687 13.37 13.687 24.767 0 .564-.225 1.105-.625 1.503-.4.399-.942.621-1.506.619z"/>
        <path fill="url(#058tf3vxkL)" d="M732.71 219.947c-.716 0-1.383-.363-1.773-.964-.39-.6-.449-1.357-.157-2.011 1.61-3.603 2.735-7.405 3.342-11.305.264-1.068 1.3-1.757 2.387-1.588 1.087.17 1.864 1.142 1.79 2.24-.657 4.268-1.882 8.43-3.642 12.374-.343.768-1.107 1.26-1.947 1.254z"/>
        <path fill="url(#8302f4m2tM)" d="M426.424 229.974c-39.933-.194-75.818-24.423-90.92-61.39-15.103-36.968-6.45-79.393 21.925-107.492 28.374-28.1 70.881-36.34 107.7-20.878 36.818 15.462 60.697 51.58 60.503 91.513-.332 54.498-44.71 98.446-99.208 98.247zm.91-186.818c-35.63-.174-67.858 21.132-81.655 53.983-13.797 32.852-6.445 70.78 18.627 96.098 25.071 25.318 62.926 33.04 95.91 19.564 32.986-13.475 54.605-45.493 54.779-81.124.189-48.63-39.03-88.235-87.66-88.521z"/>
        <path fill="url(#9kto4wwzkN)" d="M426.324 250.747c-65.902-.327-119.244-54.196-118.92-120.09h9.193c-.301 60.847 48.956 110.58 109.793 110.88 60.838.301 110.58-48.955 110.872-109.801.292-60.846-48.981-110.53-109.819-110.822l.05-9.191c65.893.326 119.236 54.195 118.92 120.088-.32 65.893-54.197 119.26-120.09 118.936z"/>
        <path fill="url(#n956n9cxbO)" d="M525.932 231.904l-6.451-6.518c51.588-51.078 51.997-134.61.91-186.198l6.518-6.45c54.605 55.18 54.17 144.52-.977 199.166z"/>
        <path fill="url(#ny8p7zg2qP)" d="M613.265 120.414L563.641 120.18 563.649 119.261 613.265 119.503z"/>
        <path fill="url(#32otf2olpQ)" d="M588.952 109.273L589.871 109.273 589.871 209.165 588.952 209.165z" transform="rotate(-89.72 589.411 159.219)"/>
        <path fill="url(#o0a2rbq1zR)" d="M581.444 109.612L582.364 109.612 582.364 279.123 581.444 279.123z" transform="rotate(-89.72 581.904 194.368)"/>
        <path fill="url(#c28cwv0xwS)" d="M607.817 120.389c.007-2.194 1.335-4.168 3.365-5 2.03-.833 4.362-.36 5.907 1.197 1.546 1.557 2 3.892 1.152 5.916-.848 2.023-2.832 3.336-5.026 3.326-2.992-.014-5.407-2.448-5.398-5.44z"/>
        <path fill="url(#nh5lnonbiT)" d="M633.97 158.725c.02-2.99 2.456-5.398 5.446-5.381 2.989.017 5.399 2.453 5.383 5.442-.015 2.989-2.45 5.4-5.439 5.386-2.992-.018-5.403-2.456-5.39-5.447z"/>
        <path fill="url(#o6nfbo7zlU)" d="M661.294 194.754c.01-2.194 1.341-4.166 3.372-4.995 2.032-.83 4.363-.353 5.906 1.207 1.543 1.56 1.994 3.895 1.142 5.918-.85 2.022-2.837 3.332-5.03 3.318-1.438-.007-2.814-.584-3.825-1.606-1.011-1.022-1.574-2.404-1.565-3.842z"/>
        <path fill="url(#1g57fdc62V)" d="M466.957 109.4h-6.793v-8.706c0-17.63-14.706-31.977-32.788-31.977-18.081 0-32.787 14.347-32.787 31.977v8.707h-6.158c-3.57.005-6.463 2.897-6.468 6.467v63.094c.005 3.569 2.899 6.459 6.468 6.459h78.543c3.565-.005 6.454-2.894 6.459-6.459v-63.094c0-1.716-.683-3.363-1.897-4.576-1.215-1.213-2.862-1.893-4.579-1.891zm-32.796 47.628c0 3.572-2.895 6.468-6.467 6.468-3.572 0-6.467-2.896-6.467-6.468V137.81c0-3.572 2.895-6.467 6.467-6.467 3.572 0 6.467 2.895 6.467 6.467v19.218zm13.068-47.627h-39.706v-8.707c0-10.503 8.907-19.05 19.853-19.05 10.946 0 19.853 8.547 19.853 19.05v8.707z"/>
        <path fill="url(#nf59gfg9nW)" d="M219.52 122.737l33.18 57.395-33.138 57.403h-66.294l-33.138-57.403 33.138-57.395h66.252zm1.763-3.05H151.48l-34.902 60.445 34.902 60.453h69.804l34.901-60.453-34.901-60.445z"/>
        <path fill="url(#xae4kooaqX)" d="M191.863 183.984h-2.507c-.267 0-.384-.276-.409-.36-.277-.8-.606-1.582-.986-2.34-.095-.135-.095-.315 0-.45l1.788-1.797c1.381-1.386 1.381-3.627 0-5.013l-3.869-3.886c-.671-.652-1.57-1.017-2.506-1.019-.936.002-1.835.367-2.507 1.02l-1.78 1.838c-.137.09-.314.09-.45 0-.76-.372-1.541-.696-2.34-.97-.084 0-.343-.142-.343-.384v-2.507c-.005-1.964-1.596-3.555-3.56-3.56h-5.48c-1.965.005-3.556 1.596-3.56 3.56v2.507c0 .242-.26.35-.343.376-.798.28-1.58.607-2.34.978-.136.09-.314.09-.45 0l-1.814-1.814c-.672-.652-1.57-1.017-2.507-1.019-.937-.002-1.837.364-2.506 1.02l-3.886 3.885c-1.367 1.391-1.367 3.622 0 5.013l1.797 1.788c.092.137.092.315 0 .452-.379.76-.708 1.545-.986 2.348 0 .083-.142.359-.41.359h-2.506c-1.968 0-3.564 1.592-3.568 3.56v5.48c.004 1.968 1.6 3.56 3.568 3.56h2.423c.159-.006.305.087.367.234.297.897.657 1.77 1.078 2.615.055.121.025.264-.075.351l-1.755 1.747c-1.367 1.391-1.367 3.622 0 5.013l3.877 3.877c.67.657 1.57 1.026 2.507 1.028.938 0 1.839-.369 2.507-1.028l1.73-1.721c.086-.1.228-.134.35-.084.844.428 1.718.794 2.616 1.095.159.064.26.222.25.393v2.373c.005 1.962 1.597 3.55 3.56 3.55h5.481c1.963 0 3.555-1.588 3.56-3.55v-2.373c-.01-.171.092-.33.25-.393.896-.303 1.77-.666 2.616-1.086.12-.058.265-.027.35.075l1.73 1.721c.668.659 1.569 1.028 2.507 1.028.938 0 1.839-.369 2.507-1.028l3.877-3.877c1.38-1.386 1.38-3.627 0-5.013l-1.747-1.755c-.1-.083-.132-.225-.075-.343.419-.846.779-1.72 1.078-2.615.06-.148.208-.242.368-.234h2.431c1.963-.004 3.552-1.597 3.552-3.56v-5.48c.014-1.938-1.523-3.53-3.46-3.585zm-12.25 6.3c.004 4.03-2.42 7.663-6.142 9.208-3.721 1.544-8.007.694-10.857-2.154-2.85-2.848-3.704-7.132-2.163-10.855 1.541-3.723 5.174-6.15 9.203-6.15 5.493.008 9.946 4.457 9.96 9.95zm44.169-26.663h-1.671c-.184 0-.26-.192-.284-.242-.189-.552-.412-1.09-.669-1.613-.063-.093-.063-.216 0-.31l1.237-1.236c.948-.955.948-2.496 0-3.45l-2.666-2.666c-.464-.448-1.084-.7-1.73-.702-.646-.004-1.268.249-1.729.702l-1.245 1.245c-.1.1-.259 0-.31 0-.52-.26-1.06-.484-1.612-.669-.05 0-.225-.092-.225-.259v-1.738c0-1.352-1.096-2.448-2.449-2.448h-3.768c-1.352 0-2.448 1.096-2.448 2.448v1.747c0 .167-.176.242-.226.259-.552.184-1.091.408-1.612.668-.094.063-.216.063-.31 0l-1.245-1.245c-.46-.453-1.083-.705-1.73-.702-.646-.005-1.269.247-1.729.702l-2.665 2.666c-.954.955-.954 2.503 0 3.459l1.236 1.228c.061.094.061.215 0 .31-.26.522-.485 1.06-.676 1.612 0 .058-.1.242-.276.242h-1.671c-.65 0-1.272.258-1.731.717-.46.46-.718 1.082-.718 1.732v3.768c.005 1.349 1.1 2.44 2.449 2.44h1.67c.11-.005.21.058.251.159.209.614.457 1.214.744 1.796.038.083.018.181-.05.242l-1.203 1.204c-.954.955-.954 2.503 0 3.459l2.665 2.657c.46.457 1.082.712 1.73.71.647 0 1.27-.255 1.73-.71l1.186-1.178c.059-.071.157-.095.242-.059.58.294 1.18.545 1.797.752.106.046.173.152.167.268v1.67c.005 1.35 1.1 2.44 2.448 2.44h3.769c1.348 0 2.443-1.09 2.448-2.44v-1.67c-.006-.116.06-.222.167-.268.615-.209 1.216-.46 1.796-.752.085-.036.184-.012.243.059l1.186 1.178c.46.457 1.082.712 1.73.71.647 0 1.269-.255 1.73-.71l2.665-2.657c.945-.96.945-2.5 0-3.46l-1.245-1.203c-.068-.06-.088-.159-.05-.242.284-.583.532-1.183.743-1.796.04-.102.142-.167.251-.16h1.671c1.35 0 2.444-1.09 2.448-2.44v-3.767c.003-.653-.255-1.279-.717-1.74-.46-.461-1.087-.72-1.74-.717zm-8.406 4.328c.003 2.772-1.664 5.273-4.224 6.336-2.56 1.063-5.508.48-7.47-1.48-1.96-1.959-2.549-4.906-1.489-7.468 1.06-2.56 3.56-4.231 6.331-4.231 3.768 0 6.83 3.042 6.852 6.81v.033z"/>
        <path fill="url(#78ffrr68cY)" opacity=".5" style="mix-blend-mode:multiply" d="M1062.199 18.357L1028.083 77.449 959.8 77.449 959.591 77.098 959.591 80.265 1029.712 80.265 1064.297 20.363 1134.894 20.363"/>
        <path fill="url(#yb89lrse1Z)" opacity=".5" style="mix-blend-mode:multiply" d="M1124.917 0.836L1056.684 0.836"/>
        <path fill="url(#d7loivkppaa)" d="M135.446 156.76H45.137L.017 78.56 45.137.35h90.309l45.12 78.21-45.12 78.2zm-88.73-2.723h87.159L177.45 78.56 133.875 3.075H46.717L3.133 78.56l43.584 75.477z" opacity=".2" transform="translate(96.09 100.268)"/>
        <path fill="url(#n45q75k4eab)" d="M112.05 129.162H37.684L.443 64.723l37.2-64.43h74.365l37.2 64.43-37.158 64.44zm-73.104-2.248h71.809l35.929-62.19-35.93-62.184H38.947L3.016 64.723l35.93 62.191z" opacity=".2" transform="translate(649.236 121.157)"/>
        <path fill="url(#p3xfygpvoac)" d="M838.234 123.088h44.184c2.01-.005 3.639-1.633 3.643-3.644V83.941c-.004-2.01-1.632-3.638-3.643-3.643h-33.422V76.53c0-5.908 5.013-10.72 11.18-10.72 4.84-.032 9.154 3.048 10.695 7.636.258.81.866 1.461 1.657 1.772.791.311 1.68.25 2.42-.167l1.446-.836c1.164-.67 1.692-2.07 1.262-3.342-2.6-7.447-9.66-12.407-17.547-12.325-10.177 0-18.45 8.08-18.45 17.998v3.769h-3.467c-2.01.004-3.639 1.633-3.643 3.643v35.503c.006.97.399 1.897 1.09 2.578.691.68 1.625 1.057 2.595 1.049zm18.449-26.797c-.064-1.342.615-2.61 1.767-3.3 1.153-.69 2.591-.69 3.743 0 1.153.69 1.832 1.958 1.768 3.3v10.804c.064 1.341-.615 2.61-1.768 3.3-1.152.69-2.59.69-3.743 0-1.152-.69-1.831-1.959-1.767-3.3V96.29z"/>
        <path fill="url(#tb1rjt481ad)" d="M914.53 40.508c-.377-.356-.816-.64-1.296-.835l-2.105-.836c-32.66-12.8-68.947-12.8-101.606 0l-.484.192c-3.683 1.421-6.107 4.968-6.092 8.916v78.81c-.002 2.965 1.482 5.733 3.953 7.37l48.738 32.37c2.835 1.894 6.532 1.894 9.367 0l48.63-32.236c2.563-1.704 4.103-4.577 4.103-7.654V44.578c.002-1.936-1.326-3.62-3.209-4.07zm-103.177 7.236c.003-.339.211-.643.527-.768 31.153-12.22 65.772-12.22 96.926 0l.518.2v79.38c0 .273-.135.528-.36.684l-48.153 31.986c-.277.18-.634.18-.911 0l-48.204-31.96c-.228-.155-.365-.41-.368-.686l.025-78.836z"/>
        <path fill="url(#big0n95pmae)" d="M0 240.042l.71 1.671L6.1 239.4l-.702-1.672L0 240.042zm8.448-3.626l.701 1.67 5.415-2.339-.702-1.671-5.398 2.315-.016.025zm8.447-3.627l.702 1.671 5.398-2.322-.71-1.672-5.39 2.315v.008zm8.44-3.618l.71 1.671 5.39-2.314-.694-1.671-5.407 2.314zm8.447-3.626l.71 1.671 5.39-2.306-.702-1.671-5.398 2.306zm8.448-3.618l.701 1.671 5.398-2.323-.702-1.671-5.397 2.323zm8.447-3.626l.702 1.67 5.398-2.314-.702-1.671-5.398 2.315zm8.448-3.627l.702 1.671 5.397-2.314-.71-1.671-5.39 2.314zm8.439-3.618l.71 1.671 5.39-2.314-.702-1.671-5.398 2.314zm8.448-3.626l.71 1.67 5.39-2.314-.703-1.67-5.397 2.314zm8.447-3.627l.702 1.672 5.398-2.315-.71-1.671-5.39 2.314zm8.448-3.618l.702 1.672 5.397-2.315-.71-1.671-5.39 2.323v-.009z"/>
        <path fill="url(#nkypl1uz9af)" d="M799.162 99.667c0 2.145-1.74 3.885-3.885 3.885-2.146 0-3.885-1.74-3.885-3.885 0-2.146 1.74-3.886 3.885-3.886 2.146 0 3.885 1.74 3.885 3.886z"/>
        <path fill="url(#5qs110fdyag)" d="M680.035 99.667c0 2.145-1.74 3.885-3.885 3.885-2.146 0-3.885-1.74-3.885-3.885 0-2.146 1.74-3.886 3.885-3.886 1.03 0 2.019.41 2.747 1.138.73.729 1.138 1.717 1.138 2.748z"/>
        <path fill="url(#6eyr4w7rcah)" d="M710.316 48.622c0 2.143-1.736 3.882-3.88 3.885-2.143.003-3.884-1.73-3.89-3.874-.006-2.144 1.725-3.887 3.868-3.897 1.034-.004 2.026.403 2.759 1.132.732.73 1.143 1.72 1.143 2.754z"/>
    </g>
</svg>
