<svg xmlns="http://www.w3.org/2000/svg" width="143" height="71" viewBox="0 0 143 71">
    <g fill="none" fill-rule="evenodd">
        <rect width="143" height="71" fill="#FFF" rx="7"/>
        <g fill-rule="nonzero">
            <path fill="#518DE2" d="M35.307 16c.395 0 .716.32.716.716 0 8.224-3.866 14.722-8.887 15.11-1.358 3.496-3.291 6.59-6.023 7.942v2.873h2.385v2.385h1.11L25.977 56H10.045l1.372-10.974h1.109v-2.385h2.385v-2.873c-2.732-1.353-4.665-4.446-6.024-7.943C3.866 31.437 0 24.94 0 16.715 0 16.322.32 16 .716 16zM23.344 46.458H12.679l-1.014 8.11h12.693l-1.014-8.11zm-5.333.954c1.711 0 3.102 1.39 3.102 3.101s-1.39 3.102-3.102 3.102c-1.71 0-3.1-1.39-3.1-3.102 0-1.71 1.39-3.101 3.1-3.101zm0 1.431c-.92 0-1.67.75-1.67 1.67 0 .921.75 1.67 1.67 1.67.921 0 1.67-.749 1.67-1.67 0-.92-.749-1.67-1.67-1.67zm4.056-4.77h-8.11v.953h8.11v-.954zm-2.385-3.58h-3.34v2.148h3.34v-2.147zm9.083-23.062H7.258c.357 3.916 2.435 21.631 10.754 21.631 8.321 0 10.397-17.715 10.753-21.63zm-2.858 2.492l.096.008c.392.061.66.428.599.818-.688 4.422-1.728 11.106-5.173 14.781-.14.15-.331.226-.521.226-.175 0-.35-.063-.49-.192-.29-.27-.304-.723-.034-1.012 3.142-3.353 4.18-10.033 4.801-14.023.062-.391.43-.656.818-.598zm8.673-2.492h-4.376c-.162 1.946-.764 7.625-2.516 12.862 3.756-.844 6.695-6.236 6.892-12.862zm-28.763 0H1.443c.197 6.626 3.136 12.018 6.89 12.862C6.58 25.056 5.98 19.38 5.817 17.431z" transform="translate(19 9)"/>
            <path fill="#17BD85" d="M54.74 0l.018.001.063.005.066.009.039.007c.028.005.057.012.086.02l.027.008c.06.018.12.042.178.07l-.099-.043.054.022.045.021.016.008.043.023.062.038c.017.01.033.022.05.034l.048.037.04.035c.016.013.031.027.045.042l.01.009.036.038.04.047.042.055.03.043c.024.039.047.079.068.12l-.043-.078.04.072.003.007 4.527 9.176 10.098 1.468.018.002.013.003.014.002c.076.01.152.03.226.058l.027.011c.146.058.283.147.4.268.018.018.036.038.053.058l.014.018c.02.024.039.048.056.073l.019.03c.016.022.03.045.043.07l.023.044.03.066c.007.016.014.032.02.05l.02.056c.022.07.038.145.046.22l.002.023c.009.09.007.181-.007.274-.016.11-.047.213-.09.31-.058.13-.142.253-.25.36l.046-.05-.032.034-.015.015-7.327 7.143 1.73 10.086.005.024c.035.237-.001.487-.121.715-.031.059-.066.114-.105.165l-.017.02c-.02.026-.04.05-.063.073l-.016.017c-.021.022-.043.042-.065.062l-.029.023c-.018.015-.036.03-.055.043l-.048.033-.053.032c-.016.01-.033.018-.05.027-.022.012-.046.023-.07.034l-.034.013c-.024.01-.048.019-.073.026-.051.016-.104.029-.158.038l.107-.022c-.026.007-.053.013-.08.018l-.027.004-.006.001c-.155.027-.318.022-.476-.018l-.013-.004c-.084-.021-.167-.053-.246-.095l-7.891-4.149V35h8.166c.602 0 1.098.455 1.161 1.04l.007.126V42h3.5c.6 0 1.096.455 1.16 1.039l.006.127v11.668c0 .643-.523 1.166-1.166 1.166h-28c-.645 0-1.168-.523-1.168-1.166V43.166c0-.643.523-1.166 1.168-1.166h3.5v-5.834c0-.6.454-1.096 1.039-1.16l.127-.006h8.166v-7.402l-7.89 4.15-.014.006-.034.016c-.303.143-.639.144-.93.028l-.014-.007c-.031-.012-.061-.027-.091-.042l-.034-.02c-.021-.01-.042-.023-.063-.037l-.047-.032-.055-.042-.028-.025c-.021-.018-.042-.037-.062-.058l-.039-.04-.031-.037c-.047-.056-.089-.118-.125-.183l-.008-.018-.004-.008c-.016-.028-.03-.057-.042-.087l-.009-.025c-.055-.139-.083-.29-.08-.445l.002-.04c.002-.044.007-.09.015-.134l1.729-10.087-7.327-7.142c-.218-.212-.335-.49-.35-.77L38 12.484v-.079c0-.016.002-.032.003-.047.002-.027.005-.053.009-.079l.007-.045.014-.064c.006-.023.012-.046.02-.069l.012-.036c.01-.028.02-.055.032-.082l.02-.045.038-.07.02-.032c.015-.025.032-.05.05-.074.032-.044.067-.086.106-.125l-.077.087.05-.06.027-.027.009-.01c.058-.058.124-.111.195-.157.138-.09.291-.147.45-.171l.014-.001.011-.003.018-.002 10.096-1.468L53.653.65l.008-.016.018-.033c.034-.061.072-.118.115-.17l.04-.046c.013-.016.027-.03.041-.044l.03-.028c.05-.047.105-.09.162-.127.038-.023.077-.045.118-.066l-.07.037.054-.029.016-.008.046-.02c.017-.009.035-.016.053-.023l.06-.021.06-.018.052-.012.063-.012.062-.008.063-.005.058-.001h.037zm12.793 44.334H41.867v9.332h25.666v-9.332zm-4.666-7H46.533V42h16.334v-4.666zM54.7 3.803l-3.753 7.607c-.097.196-.242.353-.414.463l-.04.025c-.02.012-.04.022-.059.032-.017.01-.035.018-.054.026-.02.01-.041.018-.062.026l-.03.01c-.03.012-.061.021-.092.03-.042.01-.084.019-.128.025l.117-.023c-.037.01-.075.017-.113.023h-.004l-8.396 1.219 6.07 5.916c.241.231.379.562.357.913l-.015.126-1.433 8.36 7.506-3.947.018-.01.049-.023.071-.03c.005 0 .01-.003.016-.005l.096-.03.044-.01.067-.013.082-.01.038-.002H54.762c.03.001.058.004.088.008l.024.003c.028.004.055.01.083.015l.04.01.078.024.036.013c.044.016.089.036.133.06l-.065-.032.048.023.017.008 7.508 3.949-1.434-8.36c0-.009-.002-.016-.003-.024-.006-.03-.009-.06-.011-.09l-.002-.04c-.002-.03-.002-.06 0-.088l.002-.036c.001-.028.004-.057.008-.085l.006-.035c.04-.234.152-.457.335-.635l-.067.07.057-.06.01-.01 6.075-5.923-8.396-1.22h-.003c-.039-.005-.076-.012-.114-.022l-.01-.003c-.032-.008-.062-.017-.093-.028l-.03-.011c-.018-.007-.037-.014-.055-.023-.035-.015-.07-.033-.102-.051-.14-.08-.266-.189-.365-.324-.037-.05-.07-.104-.098-.16l-.007-.014L54.7 3.803z" transform="translate(19 9)"/>
            <path fill="#E64949" d="M98.519 16v1.064c0 1.818-.073 3.587-.204 5.299h5.74l-.184 1.224c-1.765 11.814-8.059 20.253-15.55 21.13v3.054l4.538-.002v2.637h3.029L95.89 56H78.166v-5.592h3.027v-2.637h4.541v-3.054c-7.49-.877-13.786-9.316-15.55-21.13L70 22.363l5.74.002c-.134-1.712-.205-3.481-.205-5.299V16H98.52zm-4.752 36.538h-13.48v1.332h13.48v-1.332zm2.622-34.408H77.665c.22 14.726 4.944 24.537 9.362 24.537s9.143-9.81 9.362-24.537zm5.183 6.365h-3.456c-.74 6.65-2.453 12.233-4.766 15.852 3.88-2.993 6.925-8.675 8.222-15.852zm-25.632 0h-3.455c1.294 7.177 4.342 12.861 8.22 15.852-2.314-3.62-4.027-9.203-4.765-15.852zm11.087-2.009l2.305 3.382 3.911 1.16-2.487 3.25.113 4.1-3.842-1.374-3.842 1.374.113-4.1-2.487-3.25 3.911-1.16 2.305-3.382zm0 3.07l-1.228 1.802-2.086.619 1.325 1.732-.059 2.185 2.048-.733 2.046.733-.059-2.185 1.325-1.732-2.084-.619-1.228-1.802z" transform="translate(19 9)"/>
        </g>
    </g>
</svg>
