<svg xmlns="http://www.w3.org/2000/svg" width="28" height="28" viewBox="0 0 28 28">
    <g fill="none" fill-rule="evenodd">
        <g fill="#000" fill-rule="nonzero">
            <g>
                <g>
                    <path d="M14 12.604v.93c2.312-.002 4.187-1.876 4.189-4.188h-.931c-.002 1.799-1.46 3.255-3.258 3.258zM14 5.157c-2.312.002-4.187 1.877-4.189 4.188h.931c.002-1.798 1.46-3.255 3.258-3.258v-.93z" transform="translate(-302 -4936) translate(0 4392) translate(302 544)"/>
                    <path d="M14.465 11.673h.175c.636.001 1.167-.486 1.22-1.12.052-.635-.392-1.202-1.019-1.306l-1.529-.255c-.15-.024-.256-.16-.243-.31.012-.15.138-.267.29-.267h1.28c.16 0 .29.13.29.29v.175h.931v-.174c0-.674-.546-1.22-1.22-1.222h-.175V7.02h-.93v.465h-.175c-.637-.001-1.167.487-1.22 1.12-.052.635.391 1.203 1.019 1.306l1.529.255c.15.024.255.16.243.31-.012.15-.139.267-.29.267H13.36c-.16 0-.291-.13-.291-.29v-.175h-.93v.174c0 .675.546 1.22 1.22 1.222h.175v.465h.931v-.465z" transform="translate(-302 -4936) translate(0 4392) translate(302 544)"/>
                    <path d="M16.793 3.984c-.861-.453-1.82-.689-2.793-.689-.157 0-.312.012-.465.023V.038h-.931v3.426c-.318.073-.63.173-.931.297V2.83h-.931v1.396h.047c-.545.34-1.031.766-1.443 1.259V1.899h-.931v5.12c-.779 1.867-.571 4 .55 5.683 1.123 1.683 3.011 2.694 5.035 2.694 2.023 0 3.912-1.01 5.035-2.694 1.121-1.683 1.328-3.816.55-5.683V3.295h-.93v2.19c-.279-.331-.59-.633-.932-.898V1.899h-.93v2.085zm.93 1.862c1.197 1.277 1.654 3.08 1.212 4.775-.442 1.694-1.722 3.043-3.391 3.573-1.669.532-3.492.17-4.832-.956-1.34-1.128-2.009-2.863-1.771-4.598.236-1.734 1.346-3.226 2.939-3.952 1.594-.726 3.447-.586 4.912.374v2.422h.931V5.846zM16.793.037L17.723.037 17.723.968 16.793.968z" transform="translate(-302 -4936) translate(0 4392) translate(302 544)"/>
                    <path d="M10.742.968L11.673.968 11.673 1.899 10.742 1.899zM22.385 5.234c.037.223.231.387.458.387s.421-.164.458-.387c.127-.759.722-1.354 1.48-1.48.224-.038.388-.232.388-.459s-.164-.421-.388-.458c-.758-.127-1.353-.722-1.48-1.48-.037-.224-.231-.388-.458-.388s-.421.164-.458.388c-.127.758-.722 1.353-1.48 1.48-.224.037-.388.231-.388.458s.164.421.387.459c.76.126 1.354.721 1.48 1.48zm.458-2.603c.181.258.406.483.664.664-.258.182-.483.406-.664.665-.182-.259-.406-.483-.664-.665.258-.181.482-.406.664-.664zM26.01 19.12c-.322 0-.64.08-.925.233l-5.279 2.842c.344-.65.323-1.431-.056-2.06-.378-.63-1.06-1.015-1.794-1.015H12.77c-.967-.783-2.175-1.211-3.42-1.211-1.246 0-2.453.428-3.421 1.21H.037v.932h5.586v6.981H.037v.931h18.52c.458.001.908-.135 1.29-.39l7.247-4.832c.715-.485 1.034-1.379.786-2.207-.248-.829-1.005-1.401-1.87-1.414zm.567 2.846l-7.247 4.833c-.229.153-.499.234-.774.233H6.553v-7.226c.824-.649 1.849-.99 2.897-.967 1.05.025 2.058.414 2.851 1.1.084.072.192.112.303.112h5.352c.642 0 1.164.521 1.164 1.163 0 .643-.522 1.164-1.164 1.164H13.07c-.257 0-.465.208-.465.465s.208.466.465.466h6.516c.077 0 .153-.019.221-.056l5.721-3.081c.49-.245 1.087-.068 1.364.406.278.473.14 1.08-.314 1.388z" transform="translate(-302 -4936) translate(0 4392) translate(302 544)"/>
                    <path d="M4.691 24.705c0-.564-.34-1.074-.862-1.29-.521-.216-1.121-.097-1.522.302-.399.4-.517 1-.302 1.522.216.522.726.862 1.29.862.772 0 1.396-.625 1.396-1.396zm-1.861 0c0-.189.113-.358.287-.43.174-.072.374-.032.507.1.133.134.173.335.102.508-.072.174-.242.287-.43.287-.258 0-.466-.208-.466-.465z" transform="translate(-302 -4936) translate(0 4392) translate(302 544)"/>
                </g>
            </g>
        </g>
    </g>
</svg>
