<svg xmlns="http://www.w3.org/2000/svg" width="64" height="72" viewBox="0 0 64 72">
    <g fill="none" fill-rule="evenodd">
        <g fill="#FFF" fill-rule="nonzero">
            <g>
                <g>
                    <path d="M158.64 89.159c.4-.481 1.123-.64 1.682-.24 1.763 1.28 3.922 1.84 7.281 1.84 2.319 0 5.04-.24 7.2-1.76.478-.4 1.278-.4 1.678.16.4.562.32 1.281-.24 1.681-1.2.878-2.482 1.44-3.84 1.76-.242 2.4-2.32 4.318-4.8 4.318-2.482 0-4.56-1.919-4.8-4.319-1.36-.318-2.638-.878-3.92-1.759-.48-.4-.64-1.122-.24-1.681zm11.123 3.922c-.8.081-1.522.081-2.241.081-.722 0-1.522 0-2.24-.081.4.878 1.2 1.518 2.24 1.518 1.04 0 1.919-.64 2.24-1.518zm5.036-8.322c.563-.4 1.282-.319 1.682.24.4.563.318 1.282-.24 1.682-2.323 1.681-5.123 2.481-8.642 2.481-3.6 0-6.4-.8-8.718-2.48-.56-.4-.72-1.123-.244-1.682.4-.481 1.122-.64 1.681-.24 1.922 1.359 4.24 2 7.281 2 2.96 0 5.36-.641 7.2-2zm-7.277-47.519c10.959 0 18.959 8.241 18.959 19.441 0 6.563-2.96 10.8-5.519 14.482-1.922 2.8-3.681 5.277-3.681 8.318 0 3.919-6.478 5.6-9.76 5.6-3.277 0-9.759-1.681-9.759-5.6 0-2.959-1.68-5.437-3.68-8.318-2.56-3.682-5.52-7.923-5.52-14.482 0-11.282 7.919-19.44 18.96-19.44zm6.315 22.638h-6.56c.082.88.4 1.6.8 2l.082.08c.719.641 2 .96 4.16.96.321-.081.64.078.88.319.16.24.32.562.32.881v3.119c0 .64-.56 1.2-1.2 1.2-2.8 0-4.241 4.56-4.241 4.64-.238.641-.878.96-1.52.8-.64-.237-.958-.878-.8-1.518 0-.24 1.523-5.281 5.282-6.24v-.882c-1.122-.078-2.24-.238-3.281-.719-.719 1.04-1.919 1.681-3.2 1.681-.563 0-1.2-.159-1.681-.4-.56 1.441-1.92 2.4-3.52 2.4-.477 0-.958-.08-1.358-.24 0 2.4.162 4.322.48 5.681.963 1.76 1.682 3.678 1.682 5.919 0 1.6 4.24 3.2 7.36 3.2 3.118 0 7.359-1.6 7.359-3.2 0-2.241.722-4.16 1.837-6 .478-1.678.56-4.319.56-8.56 0-1.521-1.682-3.762-2.241-4.48l-.081-.082c-.238-.319-.719-.56-1.119-.56zM148.562 71.88c.56-.562 1.679-.64 2.238.081.322.319.481.72.481 1.119 0 .4-.162.8-.481 1.119-.319.322-.719.481-1.119.481s-.722-.16-1.04-.4c.478.64.318 1.522-.241 2.081-.322.24-.64.4-1.04.4s-.723-.16-1.041-.4c.159.24.24.563.24.882 0 .4-.162.8-.481 1.118-.319.322-.719.482-1.119.482s-.8-.163-1.118-.482c-.322-.318-.482-.718-.482-1.118 0-.4.163-.8.482-1.12.559-.562 1.518-.562 2.159-.08-.478-.641-.4-1.522.24-2.082.641-.562 1.441-.562 2.082-.08-.16-.242-.24-.563-.24-.882 0-.4.162-.8.48-1.119zm35.675-.085c.56-.56 1.681-.56 2.24 0 .322.319.482.719.482 1.119 0 .322-.081.64-.24.881.64-.478 1.521-.478 2.08.081.641.563.722 1.441.241 2.082.64-.478 1.6-.478 2.156 0 .322.318.482.718.482 1.118 0 .4-.163.8-.482 1.12-.318.321-.718.48-1.118.48-.4 0-.8-.162-1.12-.48-.321-.32-.48-.72-.48-1.12 0-.322.08-.64.24-.88-.322.24-.722.4-1.04.4-.322 0-.722-.16-1.041-.4-.56-.563-.64-1.442-.24-2.082-.323.24-.641.4-1.041.4-.4 0-.8-.163-1.12-.481-.32-.32-.48-.72-.48-1.12 0-.4.162-.8.48-1.118zM167.44 39.718c-9.6 0-16.56 7.2-16.56 17.04 0 5.441 2.323 9.041 4.641 12.482-.08-1.281-.08-2.722-.08-4.24l.002-.482V56.2c0-2.16 1.76-3.841 3.841-3.841.563 0 1.2.16 1.681.4.56-1.44 1.919-2.4 3.519-2.4.563 0 1.2.16 1.681.4.56-1.44 1.919-2.4 3.519-2.4s2.96.96 3.519 2.319c.559-.24 1.118-.4 1.759-.4 2.16 0 3.84 1.76 3.84 3.84v8.163c.4.878.72 1.837.72 2.718 0 1.6 0 2.96-.082 4.16v-.003l.211-.295c2.248-3.176 4.3-6.607 4.35-11.627l-.002-.476c0-9.84-6.96-17.04-16.559-17.04zm-8.078 15.04c-.8 0-1.44.641-1.44 1.441v8.32c.078.721.64 1.28 1.359 1.28.8 0 1.44-.64 1.44-1.44v-2h.082v-6.16c0-.8-.64-1.44-1.44-1.44zm5.281-2c-.8 0-1.44.642-1.44 1.442v2l-.003 6.159c0 .8.64 1.44 1.44 1.44.563 0 1.041-.318 1.282-.8-.8-1.04-1.2-2.48-1.2-4.4 0-.321.078-.64.318-.88.241-.16.563-.32.882-.32h.159l.003-3.2c0-.8-.64-1.44-1.44-1.44zm-21.921 6.804c.56-.56 1.6-.56 2.24 0 .322.319.482.719.482 1.119s-.163.8-.482 1.118c-.322.32-.722.482-1.125.482-.4 0-.8-.163-1.118-.482-.16-.159-.32-.4-.4-.64 0 .8-.56 1.44-1.36 1.6h-.24c-.72 0-1.278-.4-1.52-1.04 0 .477-.162.8-.48 1.118-.319.322-.72.481-1.119.481-.4 0-.8-.162-1.119-.481-.322-.319-.481-.719-.481-1.119s.162-.8.481-1.119c.56-.64 1.6-.64 2.24 0 .16.16.32.4.4.641 0-.8.56-1.44 1.36-1.6.8-.16 1.519.322 1.76 1.04 0-.4.162-.8.48-1.118zm47.36-.003c.559-.56 1.6-.56 2.24 0 .322.318.481.718.481 1.118.24-.8.96-1.278 1.76-1.118.8.159 1.359.8 1.359 1.6.081-.241.24-.482.4-.641.56-.64 1.681-.64 2.24 0 .32.24.478.722.475 1.197 0 .4-.162.8-.48 1.118-.32.322-.72.482-1.12.482-.4 0-.8-.163-1.118-.482-.322-.318-.482-.718-.482-1.118-.237.64-.8 1.04-1.518 1.04h-.241c-.8-.159-1.36-.8-1.36-1.6-.08.24-.24.482-.4.64-.318.323-.718.482-1.118.482-.4 0-.8-.162-1.119-.481-.322-.319-.481-.719-.481-1.119s.162-.8.481-1.118zM175.04 52.68c-.8 0-1.438.637-1.438 1.437V57.4h.16c1.037 0 2 .48 2.718 1.2V54.12c0-.8-.64-1.44-1.44-1.44zm-5.197-1.922c-.8 0-1.441.64-1.441 1.44v2h.078l.003 3.122h2.8V52.2c0-.8-.64-1.44-1.44-1.44zm-4.64-8.96c.637-.08 1.278.32 1.359.963.16.64-.319 1.278-.96 1.36-3.121.559-5.521 2.08-7.68 4.8-.241.321-.641.48-.96.48-.237 0-.478-.08-.719-.24-.478-.4-.56-1.122-.16-1.681 2.56-3.282 5.438-5.04 9.12-5.682zm-26.489 1.682c.56-.64 1.681-.64 2.24 0 .322.319.482.719.482 1.119 0 .04-.005.074-.013.107l-.056.185-.012.108c.4-.641 1.28-.879 2-.56.722.322 1.04 1.122.88 1.84l.242-.24c.559-.64 1.6-.64 2.24 0 .322.319.481.719.481 1.119s-.162.8-.48 1.119c-.32.321-.72.48-1.12.48-.4 0-.8-.162-1.118-.48-.322-.238-.482-.72-.482-1.12 0-.162 0-.321.082-.48-.319.48-.8.8-1.36.8-.24 0-.4-.079-.64-.16-.722-.322-1.04-1.122-.882-1.84l-.24.24c-.319.322-.719.481-1.119.481-.478 0-.878-.159-1.125-.48-.322-.32-.481-.72-.481-1.12 0-.4.162-.8.481-1.118zm55.281-.078c.56-.56 1.6-.56 2.24 0 .323.319.482.719.482 1.119s-.162.8-.481 1.118c-.319.322-.719.482-1.119.482s-.8-.163-1.119-.482c0-.08-.078-.159-.159-.24.238.722-.162 1.522-.881 1.84-.24.16-.4.16-.64.16-.56 0-1.041-.319-1.36-.8.081.162.081.322.081.481 0 .4-.162.8-.481 1.119-.319.322-.719.481-1.119.481s-.8-.162-1.125-.562c-.322-.32-.481-.72-.481-1.12 0-.4.162-.8.481-1.118.56-.64 1.6-.64 2.24 0 0 .081.079.16.16.24-.237-.721.163-1.521.881-1.84.719-.319 1.6 0 2 .64l-.04-.058-.023-.071c-.012-.053-.016-.113-.017-.175l-.001-.095c0-.4.163-.8.481-1.119zm-44.08-13.037c.559-.56 1.6-.56 2.24 0 .322.318.481.718.481 1.118 0 .4-.162.8-.48 1.119 0 .016-.004.03-.01.04l-.016.019.089-.035c.63-.214 1.302-.015 1.755.494l.1.123c.4.721.24 1.6-.319 2.08.64-.24 1.36-.162 1.84.32.323.318.482.718.482 1.118 0 .4-.162.8-.481 1.119-.319.322-.719.481-1.119.481s-.8-.162-1.119-.481c-.322-.319-.48-.719-.48-1.119s.162-.8.48-1.118l.082-.082c-.238.078-.479.16-.72.16-.559 0-1.04-.238-1.359-.719-.478-.722-.318-1.6.241-2.081-.16.078-.4.16-.64.16-.4 0-.8-.163-1.047-.48-.322-.318-.482-.718-.482-1.118 0-.4.163-.8.482-1.118zm32.962-.007c.56-.64 1.681-.64 2.24 0 .323.318.482.719.482 1.118 0 .4-.163.8-.481 1.12-.319.321-.719.48-1.119.48-.24 0-.4-.078-.64-.159.637.563.718 1.44.318 2.081-.319.478-.8.72-1.36.72-.237 0-.477-.079-.718-.16l.081.081c.322.319.481.719.481 1.119s-.162.8-.48 1.118c-.32.322-.72.482-1.12.482-.4 0-.8-.16-1.125-.485-.321-.318-.48-.718-.48-1.118 0-.4.162-.8.48-1.12.482-.477 1.282-.559 1.841-.318-.637-.481-.8-1.44-.319-2.081.482-.64 1.282-.878 2-.56 0-.08-.081-.08-.081-.08-.322-.32-.481-.72-.481-1.12 0-.4.162-.8.481-1.118zM166.4 25.48c.56-.64 1.681-.64 2.24 0 .322.32.482.72.482 1.12 0 .4-.24.8-.478 1.118-.241.24-.563.4-.882.481.8.16 1.36.8 1.36 1.6 0 .881-.641 1.519-1.441 1.6.319 0 .719.16.96.4.321.238.48.719.48 1.119s-.162.8-.48 1.119c-.32.321-.72.48-1.12.48-.4 0-.8-.162-1.118-.48-.322-.32-.481-.72-.481-1.12 0-.477.16-.877.484-1.118.24-.24.56-.4.96-.4-.8-.081-1.441-.8-1.441-1.6s.56-1.519 1.36-1.6c-.323-.081-.641-.24-.882-.481-.322-.319-.481-.719-.481-1.119s.16-.881.478-1.119z" transform="translate(-688 -478) translate(182 453) translate(370)"/>
                </g>
            </g>
        </g>
    </g>
</svg>
