<?xml version="1.0" encoding="UTF-8"?>
<svg xmlns="http://www.w3.org/2000/svg" width="16" height="16" viewBox="0 0 16 16">
  <g fill="none" fill-rule="evenodd">
    <g fill="#E64949" fill-rule="nonzero">
      <g>
        <g>
          <path d="M7.976 2C3.583 2 0 5.577 0 9.97c0 4.394 3.583 7.976 7.976 7.976 4.394 0 7.97-3.582 7.97-7.975C15.946 5.577 12.37 2 7.976 2zm0 1.449c3.611 0 6.52 2.911 6.52 6.522 0 3.61-2.909 6.526-6.52 6.526-3.61 0-6.527-2.916-6.527-6.526 0-3.611 2.917-6.522 6.527-6.522zm-.01 1.44c-.194 0-.38.08-.514.219-.135.139-.208.325-.205.519v4.344c0 .193.076.379.213.515.137.137.323.213.516.212h4.343c.4 0 .725-.324.725-.725 0-.4-.325-.726-.725-.726h-3.62v-3.62c.003-.195-.073-.385-.211-.524-.138-.14-.327-.217-.523-.214z" transform="translate(-907 -428) translate(892 426) translate(15)"></path>
        </g>
      </g>
    </g>
  </g>
</svg>
