<svg xmlns="http://www.w3.org/2000/svg" width="48" height="65" viewBox="0 0 48 65">
    <g fill="none" fill-rule="evenodd">
        <g fill="#FFF" fill-rule="nonzero">
            <g>
                <g>
                    <path d="M6.816 18.845l23.128.002c.814 0 1.421.61 1.421 1.422v16.906c0 .814-.61 1.422-1.42 1.422h-6.087v6.22c.745-.472 1.624-.676 2.57-.676 2.23 0 4.192 1.353 5.003 3.313.88-.541 1.96-.88 3.044-.88 2.23 0 4.192 1.353 5.003 3.313.88-.541 1.96-.88 3.043-.88 3.043 0 5.479 2.436 5.479 5.41l-.264 15.758c0 .745-.61 1.422-1.421 1.422-.745 0-1.421-.61-1.421-1.422V54.418c0-1.422-1.15-2.57-2.57-2.57-1.422 0-2.571 1.148-2.571 2.57v2.705c0 .745-.61 1.421-1.421 1.421-.745 0-1.422-.61-1.422-1.421l.006-5.072c0-1.421-1.15-2.57-2.57-2.57-1.422 0-2.571 1.149-2.571 2.57v2.636c0 .745-.61 1.421-1.421 1.421-.745 0-1.422-.61-1.422-1.42v-5.073c0-1.421-1.149-2.57-2.57-2.57-1.421 0-2.57 1.149-2.57 2.57v2.636c0 .745-.61 1.422-1.422 1.422-.745 0-1.42-.61-1.42-1.422V32.71c0-.677-.273-1.353-.746-1.826-.473-.475-1.149-.813-1.825-.745-1.421 0-2.57 1.15-2.57 2.57v28.679c0 .945-.608 1.825-1.488 2.163-.88.338-1.894.135-2.57-.541l-4.396-4.396c-.877-.88-2.298-1.015-3.313-.338-.607.404-1.014 1.08-1.149 1.825-.068.745.135 1.421.608 2.029l6.155 7.235c.473.608.404 1.488-.203 2.03-.27.202-.608.337-.946.337-.407 0-.814-.203-1.083-.541l-6.155-7.305C.254 62.67-.153 61.115.05 59.558c.203-1.556 1.083-2.908 2.367-3.788 2.163-1.487 5.072-1.15 6.966.676l3.587 3.585V38.594H6.816c-.813 0-1.42-.61-1.42-1.421V20.266c0-.814.61-1.421 1.42-1.421zm21.775 2.842H8.303v13.999h4.666V32.71c0-3.043 2.435-5.479 5.41-5.479 1.624.066 2.84.608 3.925 1.625 1.08 1.014 1.622 2.367 1.622 3.854v2.975h4.665V21.687zm-2.974-10.416c.539-.542 1.419-.542 1.96 0 .542.539.542 1.419 0 1.96l-2.57 2.57c-.27.273-.676.407-1.015.407-.338 0-.676-.134-.945-.407-.542-.538-.542-1.418 0-1.96zm-16.3 0c.54-.542 1.42-.542 1.961 0l2.57 2.57c.542.539.542 1.419 0 1.96-.27.272-.676.407-1.014.407-.407 0-.745-.137-1.014-.407l-2.502-2.57c-.542-.54-.542-1.419 0-1.96zm9.062-3.854c.813 0 1.42.676 1.42 1.421v3.651c0 .814-.675 1.421-1.42 1.421-.743 0-1.353-.61-1.419-1.421l-.003-3.65c0-.814.61-1.422 1.422-1.422z" transform="translate(-170 -1020) translate(128 988) translate(42 25)"/>
                </g>
            </g>
        </g>
    </g>
</svg>
