<?xml version="1.0" encoding="UTF-8"?>
<svg xmlns="http://www.w3.org/2000/svg" width="91" height="84" viewBox="0 0 91 84">
  <g fill="#FFF">
    <path d="M89.9 60.225c-.272 0-.537-.11-.731-.303-.192-.195-.302-.461-.302-.735 0-1.94-.752-3.765-2.118-5.14-1.368-1.373-3.185-2.128-5.115-2.128-1.93 0-3.747.755-5.115 2.128-1.366 1.375-2.119 3.2-2.119 5.14 0 .274-.111.54-.303.733-.19.193-.457.305-.73.305-.273 0-.537-.11-.732-.303-.192-.195-.301-.461-.301-.735V9.345c0-1.262.245-2.486.731-3.638.467-1.111 1.14-2.112 1.993-2.97.853-.858 1.85-1.532 2.955-2.002C79.16.247 80.379 0 81.633 0c1.257 0 2.475.247 3.622.735 1.106.47 2.101 1.144 2.955 2.002.854.858 1.525 1.859 1.992 2.97.486 1.152.732 2.376.732 3.638V31.893c0 .573-.463 1.038-1.033 1.038-.57 0-1.034-.465-1.034-1.038V9.345c0-1.94-.752-3.765-2.118-5.14-1.368-1.372-3.185-2.128-5.115-2.128-1.93 0-3.747.756-5.115 2.128-1.366 1.375-2.119 3.2-2.119 5.14v43.967c1.776-2.205 4.41-3.47 7.234-3.47 2.823 0 5.458 1.265 7.233 3.47v-8.96c0-.572.463-1.038 1.034-1.038.57 0 1.033.466 1.033 1.039v14.834c0 .272-.11.54-.302.733-.192.193-.459.305-.731.305zm0-21.064c-.57 0-1.033-.465-1.033-1.038s.463-1.039 1.034-1.039c.57 0 1.033.466 1.033 1.039S90.47 39.16 89.9 39.16z"></path>
    <path d="M81.634 68.532c-.57 0-1.034-.465-1.034-1.038s.463-1.038 1.034-1.038c1.93 0 3.747-.756 5.115-2.129 1.364-1.375 2.118-3.2 2.118-5.14 0-1.942-.754-3.765-2.118-5.14-1.368-1.373-3.185-2.128-5.115-2.128-1.933 0-3.747.755-5.115 2.128-1.366 1.375-2.119 3.2-2.119 5.14 0 .573-.463 1.038-1.033 1.038-.57 0-1.033-.465-1.033-1.038 0-1.263.245-2.486.731-3.639.467-1.112 1.14-2.112 1.993-2.97.853-.857 1.847-1.532 2.955-2.001 1.147-.488 2.364-.735 3.62-.735 1.255 0 2.475.247 3.622.735 1.106.47 2.101 1.144 2.955 2.002.854.858 1.525 1.857 1.992 2.97.486 1.152.732 2.375.732 3.638s-.246 2.486-.732 3.639c-.467 1.11-1.138 2.112-1.992 2.97-.854.857-1.85 1.532-2.956 2.001-1.147.489-2.364.736-3.618.736h-.002z"></path>
    <path d="M81.634 68.532H9.317c-2.474 0-4.803-.897-6.558-2.525-.86-.797-1.538-1.73-2.015-2.774C.25 62.149 0 60.996 0 59.81V41.225c0-.573.463-1.038 1.033-1.038.57 0 1.034.465 1.034 1.038V59.81c.002 1.757.744 3.416 2.093 4.67 1.375 1.274 3.204 1.976 5.157 1.976H81.636c.568.002 1.031.467 1.031 1.038 0 .573-.463 1.038-1.033 1.038zm-80.6-32.5C.462 36.031 0 35.565 0 34.994c0-.573.463-1.038 1.033-1.038.57 0 1.034.465 1.034 1.038 0 .571-.463 1.036-1.034 1.036zm0-6.23C.462 29.801 0 29.335 0 28.764V14.953c0-1.186.25-2.339.744-3.423.477-1.045 1.155-1.977 2.015-2.774C4.514 7.127 6.845 6.23 9.317 6.23h63.362c.568 0 1.033.465 1.033 1.039 0 .573-.465 1.038-1.033 1.038H9.317c-1.951 0-3.782.702-5.157 1.975-1.35 1.254-2.091 2.914-2.093 4.67v13.813c0 .571-.463 1.036-1.034 1.036z"></path>
    <path d="M65.1 60.225H19.137c-1.791 0-3.478-.674-4.749-1.9-.62-.598-1.11-1.298-1.453-2.08-.355-.813-.535-1.674-.535-2.561V21.079c0-.887.18-1.749.535-2.56.343-.784.833-1.483 1.453-2.082 1.271-1.225 2.958-1.9 4.75-1.9h7.353c.57 0 1.033.465 1.033 1.039 0 .573-.463 1.038-1.033 1.038h-7.354c-1.254 0-2.432.47-3.317 1.323-.872.843-1.353 1.958-1.353 3.142v32.605c0 1.183.481 2.298 1.353 3.142.885.853 2.063 1.323 3.317 1.323H65.1c.57 0 1.034.465 1.034 1.038s-.463 1.038-1.034 1.038zm0-43.611H38.89c-.57 0-1.033-.465-1.033-1.038 0-.574.463-1.039 1.034-1.039H65.1c.57 0 1.033.465 1.033 1.039 0 .573-.463 1.038-1.034 1.038zm-32.41 0c-.57 0-1.033-.465-1.033-1.038 0-.574.463-1.039 1.034-1.039.57 0 1.033.465 1.033 1.039 0 .573-.463 1.038-1.033 1.038z"></path>
    <path d="M19.633 21.806H23.766V25.959H19.633zM27.9 21.806H32.033V25.959H27.9zM36.167 21.806H40.300000000000004V25.959H36.167zM44.434 21.806H48.567V25.959H44.434zM52.7 21.806H56.833000000000006V25.959H52.7zM19.633 30.113H23.766V34.266H19.633zM27.9 30.113H32.033V34.266H27.9zM36.167 30.113H40.300000000000004V34.266H36.167zM44.434 30.113H48.567V34.266H44.434zM52.7 30.113H56.833000000000006V34.266H52.7zM19.633 38.42H23.766V42.573H19.633zM27.9 38.42H32.033V42.573H27.9zM36.167 38.42H40.300000000000004V42.573H36.167zM19.633 46.727H23.766V50.879999999999995H19.633zM27.9 46.727H32.033V50.879999999999995H27.9zM44.434 38.42H48.567V42.573H44.434zM7.233 41.535c-.57 0-1.033-.465-1.033-1.039v-6.23c0-.573.463-1.038 1.033-1.038.57 0 1.034.465 1.034 1.038v6.23c0 .574-.463 1.039-1.034 1.039zM87.832 83.07c-.16 0-.315-.038-.461-.11-.508-.256-.717-.881-.46-1.394l2.066-4.153c.176-.353.53-.574.924-.574.16 0 .316.038.463.11.245.123.43.337.516.6.087.262.068.545-.056.794l-2.066 4.153c-.176.353-.532.574-.926.574z"></path>
    <path d="M44.708 81.286c-25.312 0-41.098-2.285-41.757-2.38l-.002-.003c-.382-.056-.709-.332-.83-.7-.12-.369-.023-.786.25-1.059l4.133-4.155h.002c.196-.195.455-.303.73-.303.276 0 .535.108.729.305.196.195.304.455.304.733 0 .278-.108.538-.304.735l-2.65 2.662c.232.03.49.06.792.096 1.713.2 4.532.505 8.24.81 6.54.538 17.116 1.182 30.363 1.182 14.172 0 28.612-.721 42.921-2.144l-2.593-2.606c-.195-.197-.302-.457-.302-.735 0-.278.107-.538.302-.733.196-.198.454-.305.731-.305.277 0 .535.107.73.303l4.135 4.155c.28.28.374.704.242 1.08-.133.376-.473.644-.866.685-15.095 1.577-30.335 2.377-45.3 2.377z"></path>
    <path d="M5.167 83.07c-.395 0-.748-.22-.924-.574l-2.067-4.155c-.254-.511-.047-1.136.461-1.392.147-.072.302-.11.463-.11.393 0 .748.22.924.574l2.067 4.153c.254.513.047 1.138-.461 1.394-.147.072-.302.11-.463.11z"></path>
  </g>
</svg>
