<?xml version="1.0" encoding="UTF-8"?>
<svg xmlns="http://www.w3.org/2000/svg" width="131" height="25" viewBox="0 0 131 25" fill="none">
  <g clip-path="url(#clip0_5_71)">
    <path fill-rule="evenodd" clip-rule="evenodd" d="M0 5.39999H3.08H3.93V1.45999H0V5.39999Z" fill="#FDCD48"></path>
    <path d="M3.93 8.09H0V23.81H3.93V8.09Z" fill="#093EB0"></path>
    <path fill-rule="evenodd" clip-rule="evenodd" d="M14.93 7.70999C14.3 7.70999 13.75 7.77999 13.25 7.90999C12.76 8.03999 12.32 8.21999 11.93 8.42999C11.54 8.63999 11.2 8.86999 10.92 9.11999C10.53 9.46999 10.3 9.91999 10.2 10.15V8.04999H6.31V23.75H10.26V15.25C10.26 14.67 10.36 14.13 10.55 13.63C10.74 13.13 11 12.69 11.34 12.31C11.68 11.93 12.08 11.64 12.55 11.42C13.02 11.21 13.52 11.1 14.06 11.1C14.93 11.1 15.64 11.37 16.19 11.92C16.74 12.47 17.01 13.24 17.01 14.25V23.76H20.96V14.22C20.96 12.23 20.45 10.66 19.42 9.47999C18.39 8.29999 16.9 7.71999 14.93 7.71999V7.70999Z" fill="#093EB0"></path>
    <path fill-rule="evenodd" clip-rule="evenodd" d="M32.35 20.67C31.98 20.85 31.49 20.94 30.86 20.94C30.19 20.94 29.71 20.7 29.41 20.22C29.11 19.74 28.96 19.05 28.96 18.16V11.3H33.17V8.08999H28.96V1.45999H25.02V8.07999H22.44V11.29H25.02V18.42C25.02 19.29 25.11 20.09 25.29 20.81C25.47 21.53 25.76 22.15 26.18 22.67C26.59 23.18 27.13 23.58 27.8 23.86C28.47 24.14 29.28 24.28 30.24 24.28C31.2 24.28 32.02 24.14 32.78 23.86C33.54 23.58 34.31 23.12 35.09 22.47L33.42 20.03C33.09 20.28 32.73 20.49 32.37 20.67H32.35Z" fill="#093EB0"></path>
    <path fill-rule="evenodd" clip-rule="evenodd" d="M48.62 10.4C48.02 9.54999 47.22 8.85999 46.22 8.33999C45.23 7.80999 44.01 7.54999 42.58 7.54999C41.39 7.54999 40.32 7.75999 39.34 8.18999C38.37 8.61999 37.53 9.19999 36.83 9.92999C36.13 10.67 35.58 11.53 35.19 12.53C34.8 13.53 34.6 14.6 34.6 15.77C34.6 17.04 34.8 18.21 35.19 19.26C35.58 20.31 36.14 21.21 36.87 21.96C37.6 22.71 38.47 23.3 39.5 23.72C40.53 24.14 41.67 24.36 42.92 24.36C44.17 24.36 45.2 24.23 46.09 23.96C46.97 23.69 47.7 23.39 48.27 23.05C48.84 22.71 49.28 22.4 49.58 22.09C49.88 21.79 50.07 21.6 50.13 21.54L47.98 19.13C47.85 19.26 47.65 19.44 47.39 19.65C47.13 19.86 46.8 20.06 46.4 20.25C46 20.44 45.51 20.61 44.94 20.75C44.37 20.9 43.71 20.97 42.95 20.97C42.44 20.97 41.92 20.88 41.39 20.7C40.86 20.52 40.4 20.26 39.98 19.93C39.57 19.59 39.23 19.19 38.97 18.72C38.71 18.25 38.58 17.73 38.58 17.14H50.31V16.57C50.31 15.45 50.18 14.36 49.91 13.28C49.64 12.21 49.21 11.25 48.6 10.4H48.62ZM38.56 14.29C38.56 13.89 38.65 13.49 38.83 13.08C39.01 12.68 39.26 12.31 39.6 11.99C39.94 11.67 40.35 11.4 40.86 11.18C41.36 10.97 41.94 10.86 42.59 10.86C43.19 10.86 43.73 10.97 44.2 11.18C44.67 11.39 45.06 11.66 45.36 11.99C45.66 12.31 45.89 12.68 46.05 13.08C46.21 13.48 46.28 13.88 46.28 14.29H38.57H38.56Z" fill="#093EB0"></path>
    <path fill-rule="evenodd" clip-rule="evenodd" d="M104.42 12.5C104.79 12.05 105.25 11.69 105.81 11.41C106.37 11.13 107.02 10.99 107.78 10.99C108.54 10.99 109.25 11.14 109.85 11.42C110.45 11.71 110.97 12.11 111.42 12.62L113.93 10.08C113.19 9.3 112.3 8.68 111.26 8.22C110.21 7.76 109.05 7.53 107.78 7.53C106.51 7.53 105.39 7.75 104.36 8.2C103.32 8.65 102.44 9.25 101.7 10.01C100.96 10.77 100.39 11.66 99.98 12.67C99.57 13.68 99.36 14.76 99.36 15.9C99.36 17.15 99.55 18.29 99.93 19.31C100.31 20.34 100.85 21.22 101.57 21.95C102.28 22.69 103.16 23.26 104.21 23.66C105.26 24.06 106.45 24.26 107.79 24.26C109.13 24.26 110.3 24.03 111.3 23.56C112.3 23.09 113.17 22.47 113.91 21.69L111.57 19.15C111.12 19.66 110.58 20.07 109.93 20.37C109.28 20.67 108.57 20.82 107.79 20.82C107.01 20.82 106.38 20.68 105.82 20.38C105.26 20.09 104.8 19.71 104.43 19.24C104.06 18.77 103.79 18.25 103.61 17.67C103.43 17.09 103.34 16.5 103.34 15.9C103.34 15.3 103.43 14.66 103.61 14.06C103.79 13.46 104.06 12.93 104.43 12.49L104.42 12.5Z" fill="#093EB0"></path>
    <path fill-rule="evenodd" clip-rule="evenodd" d="M131 16.52C131 15.41 130.87 14.31 130.6 13.24C130.33 12.17 129.9 11.21 129.3 10.37C128.7 9.51999 127.9 8.83999 126.91 8.30999C125.92 7.78999 124.71 7.51999 123.28 7.51999C122.1 7.51999 121.02 7.72999 120.05 8.15999C119.08 8.57999 118.24 9.15999 117.54 9.89999C116.84 10.64 116.29 11.5 115.9 12.49C115.51 13.48 115.32 14.56 115.32 15.72C115.32 16.99 115.51 18.15 115.9 19.2C116.29 20.25 116.85 21.14 117.57 21.89C118.29 22.64 119.17 23.22 120.19 23.65C121.22 24.07 122.35 24.28 123.6 24.28C124.85 24.28 125.88 24.15 126.76 23.88C127.64 23.61 128.37 23.31 128.93 22.98C129.5 22.65 129.93 22.33 130.23 22.03C130.53 21.73 130.72 21.55 130.78 21.48L128.64 19.07C128.51 19.2 128.31 19.38 128.05 19.59C127.79 19.8 127.47 20 127.06 20.19C126.66 20.38 126.17 20.55 125.61 20.69C125.04 20.84 124.38 20.91 123.62 20.91C123.11 20.91 122.59 20.82 122.06 20.64C121.54 20.46 121.07 20.21 120.66 19.87C120.25 19.54 119.91 19.14 119.66 18.67C119.4 18.2 119.28 17.68 119.28 17.1H130.98V16.53L131 16.52ZM119.26 14.25C119.26 13.85 119.35 13.45 119.53 13.05C119.71 12.65 119.96 12.29 120.3 11.96C120.63 11.64 121.05 11.37 121.55 11.16C122.05 10.95 122.63 10.84 123.27 10.84C123.87 10.84 124.41 10.95 124.87 11.16C125.34 11.37 125.72 11.64 126.02 11.96C126.32 12.28 126.55 12.65 126.71 13.05C126.87 13.45 126.94 13.85 126.94 14.25H119.25H119.26Z" fill="#093EB0"></path>
    <path d="M56.58 8.09H52.8V23.81H56.58V8.09Z" fill="#093EB0"></path>
    <path fill-rule="evenodd" clip-rule="evenodd" d="M60.78 8.09C59.35 8.09 58.2 9.25 58.2 10.67C58.2 12.09 59.36 13.25 60.78 13.25C62.2 13.25 63.36 12.09 63.36 10.67C63.36 9.25 62.2 8.09 60.78 8.09Z" fill="#093EB0"></path>
    <path d="M76.84 9.01999H71.68V12.26H76.84V9.01999Z" fill="#093EB0"></path>
    <path fill-rule="evenodd" clip-rule="evenodd" d="M73.32 -9.696e-06C68.96 0.18999 65.59 3.92999 65.59 8.28999V23.74L69.41 21.83V8.04999C69.42 5.70999 71.33 3.80999 73.68 3.80999C74.97 3.80999 76.13 4.38999 76.91 5.29999L79.62 2.59999C78.07 0.91999 75.81 -0.11001 73.32 -9.696e-06Z" fill="#093EB0"></path>
    <path fill-rule="evenodd" clip-rule="evenodd" d="M93.05 10.03C92.13 8.42001 90.05 7.40001 87.87 7.40001C83.12 7.37001 79.39 10.3 79.39 15.89C79.39 21.48 82.95 24.54 87.77 24.51C89.58 24.48 92.13 23.56 93.05 21.65L93.25 24.02H97.04V7.79001H93.18L93.05 10.03ZM88.23 20.82C85.56 20.82 83.41 18.98 83.41 15.88C83.41 12.78 85.55 10.98 88.23 10.98C94.56 10.98 94.56 20.82 88.23 20.82Z" fill="#093EB0"></path>
  </g>
  <defs>
    <clipPath id="clip0_5_71">
      <rect width="131" height="24.51" fill="white"></rect>
    </clipPath>
  </defs>
</svg>
