<svg xmlns="http://www.w3.org/2000/svg" width="24" height="24" viewBox="0 0 24 24">
    <g fill="none" fill-rule="evenodd">
        <g fill="#FFF" fill-rule="nonzero">
            <g>
                <g>
                    <g>
                        <path d="M17.487 19.425l1.7 1c-1.9 2.05-4.625 3.325-7.65 3.325-3.026 0-5.75-1.275-7.675-3.3l1.725-1c1.55 1.475 3.625 2.375 5.95 2.375 2.3 0 4.4-.9 5.95-2.4zm-.15-7.1c.525-.15 1.05.15 1.2.675.15.525-.15 1.05-.675 1.2l-1.775.475 6.5 3.75c.475.275.625.875.35 1.35-.275.45-.85.625-1.325.35l-6.526-3.776.475 1.775c.15.525-.15 1.05-.675 1.2-.25.075-.5.026-.724-.1-.226-.124-.375-.35-.45-.6L12.635 14.6c-.15-.525.15-1.05.675-1.2zm-12.325.124c.2-.125.475-.175.725-.1l4.025 1.076c.5.15.826.674.675 1.2L9.362 18.65c-.15.5-.675.825-1.2.675-.5-.15-.825-.675-.675-1.2l.5-1.776-6.526 3.776c-.474.25-1.075.1-1.324-.375-.275-.476-.125-1.05.35-1.325l6.525-3.702-1.775-.474c-.5-.15-.825-.675-.675-1.2.075-.275.226-.475.45-.6zm8.975-9.55c4.65 1.1 8.125 5.301 8.125 10.276 0 1.05-.15 2.075-.45 3.025l-1.725-1c.15-.65.25-1.325.25-2.025 0-3.925-2.625-7.225-6.2-8.3zm-4.9.027V4.9c-3.576 1.076-6.2 4.4-6.2 8.3 0 .675.074 1.375.25 2l-1.725 1c-.3-.95-.45-1.975-.45-3.025C.962 8.2 4.437 4 9.087 2.925zM11.537 0c.55 0 .975.45.975.975v7.55l1.3-1.3c.375-.374 1-.374 1.375 0 .176.175.276.425.276.675 0 .225-.076.475-.276.675l-2.95 2.95c-.375.375-1 .375-1.375 0l-2.95-2.95c-.375-.375-.375-1 0-1.375s.975-.375 1.35 0l1.3 1.3V.975c0-.55.45-.975.975-.975z" transform="translate(-787 -4117) translate(671 4063) translate(116) translate(0 54)"/>
                    </g>
                </g>
            </g>
        </g>
    </g>
</svg>
