<svg width="1729" height="887" viewBox="0 0 1729 887" fill="none" xmlns="http://www.w3.org/2000/svg"><mask id="mask0_548_8189" style="mask-type:alpha" maskUnits="userSpaceOnUse" x="0" y="0" width="1729" height="888"><rect x="1729" y="887" width="1729" height="887" transform="rotate(-180 1729 887)" fill="#1A3DAA"/></mask><g mask="url(#mask0_548_8189)"><path d="M1726 -136.799L1726 -2.35315C914.403 67.4974 119.531 -91.6866 -0.45752 845L-76.362 -112.986L1726 -136.799Z" fill="#FDFDFF"/><path d="M1693.26 -175.495C1693.26 -157.966 1723.02 -68.3356 1723.02 -2.84923C911.426 67.0013 50.1457 -248.423 -33.2006 806.304L-109.105 -151.682L1693.26 -175.495Z" fill="#F2F5FB"/><path d="M1647.62 -248.919C1647.62 -231.39 1719.05 -72.3044 1719.05 -6.81815C901.964 -41.5458 4.504 -321.847 -78.8423 732.879L-154.747 -225.106L1647.62 -248.919Z" fill="#EDF1F9"/><path d="M1612.89 -342.187C1612.89 -324.658 1715.09 -78.7538 1715.09 -13.2675C867.237 -140.767 -113.57 -373.939 -113.57 639.611L-189.474 -318.374L1612.89 -342.187Z" fill="#E6ECF7"/><path d="M1552.36 -413.627C1552.36 -396.098 1715.09 -82.7227 1715.09 -17.2364C844.912 -288.608 -174.095 -445.378 -174.095 568.171L-250 -389.814L1552.36 -413.627Z" fill="#E6ECF7"/></g></svg>