<svg xmlns="http://www.w3.org/2000/svg" width="48" height="70" viewBox="0 0 48 70">
    <g fill="none" fill-rule="evenodd">
        <g fill="#FFF" fill-rule="nonzero">
            <g>
                <g>
                    <path d="M167.926 46.793c.512-.087 1.093.005 1.378.213.07.055.217.16.268.567.17 1.263 1.332 2.153 2.591 1.982 1.263-.166 2.153-1.328 1.983-2.59-.203-1.54-.932-2.813-2.103-3.676-.502-.373-1.083-.654-1.71-.848v-.526c0-1.277-1.033-2.31-2.306-2.31-1.277 0-2.31 1.033-2.31 2.31v.807c-1.632.821-2.918 2.49-3.264 4.394-.244 1.351-.323 4.772 4.2 7.41.097.055.203.106.305.147 1.567.867 2.42 1.858 2.231 2.619-.138.563-.728.936-1.06.936-1.512 0-2.098-.59-2.315-.964-.285-.973-1.18-1.683-2.245-1.683-1.286 0-2.333 1.047-2.333 2.338 0 .447.13.867.346 1.222.595 1.259 1.881 2.748 4.136 3.389v.613c0 1.277 1.032 2.31 2.31 2.31 1.272 0 2.305-1.033 2.305-2.31v-.784c1.604-.724 2.9-2.185 3.338-3.96.364-1.467.12-2.974-.696-4.353-.816-1.374-2.177-2.573-4.048-3.56-.042-.022-.088-.04-.13-.064-.728-.447-2-1.401-1.802-2.48.11-.632.668-1.102.931-1.148m11.822 44.126c-3.2 1.052-6.916-.346-9.027-1.383 1.088-2.093 3.255-5.422 6.455-6.473 3.2-1.052 6.916.345 9.027 1.387-1.088 2.09-3.255 5.418-6.455 6.47m-12.006-20.485c-9.858 0-17.884-8.037-17.884-17.908 0-9.876 8.027-17.908 17.884-17.908 9.862 0 17.884 8.032 17.884 17.908 0 9.871-8.022 17.908-17.884 17.908M155.741 90.92c-3.2-1.05-5.367-4.375-6.455-6.464 2.12-1.037 5.85-2.434 9.027-1.392 3.195 1.05 5.362 4.375 6.45 6.464-2.12 1.042-5.85 2.434-9.023 1.392m34.719-9.369c-.079-.055-1.96-1.3-4.63-2.277-3.683-1.351-7.174-1.554-10.092-.6-2.034.669-3.956 1.96-5.671 3.79v-7.529c11.319-1.171 20.176-10.77 20.176-22.407 0-12.42-10.093-22.528-22.5-22.528-12.402 0-22.495 10.107-22.495 22.528 0 11.646 8.87 21.255 20.203 22.407v7.561c-1.72-1.844-3.656-3.149-5.698-3.822-2.919-.954-6.41-.751-10.093.6-2.67.977-4.555 2.222-4.634 2.277-.885.59-1.25 1.71-.885 2.711.032.088.807 2.209 2.38 4.579 2.17 3.273 4.863 5.51 7.782 6.469 1.203.396 2.508.594 3.882.594 1.95 0 4.048-.4 6.21-1.19.37-.138.72-.276 1.057-.419v3.19c0 1.273 1.032 2.31 2.31 2.31 1.272 0 2.305-1.037 2.305-2.31V94.31c.327.138.668.272 1.028.406 2.162.788 4.26 1.19 6.21 1.19 1.374 0 2.68-.199 3.883-.595 2.918-.96 5.606-3.196 7.778-6.47 1.572-2.37 2.351-4.49 2.383-4.578.365-1-.004-2.12-.89-2.71" transform="translate(-1064 -483) translate(182 453) translate(738)"/>
                </g>
            </g>
        </g>
    </g>
</svg>
