<svg xmlns="http://www.w3.org/2000/svg" width="23" height="24" viewBox="0 0 23 24">
    <g fill="none" fill-rule="evenodd">
        <g fill="#000" fill-rule="nonzero">
            <g>
                <g>
                    <g>
                        <path d="M14.005 14.933c-1.085 1.37-2.988 1.777-4.539.975-1.552-.802-2.317-2.591-1.826-4.268.053-.169.177-.305.34-.373.165-.068.35-.059.507.023l5.315 2.752c.157.081.27.227.308.4.04.17 0 .351-.105.491zM9.758 10.1c.449.231.992.17 1.378-.156.385-.326.537-.851.384-1.332-.153-.48-.58-.823-1.083-.866-.503-.043-.982.222-1.215.67-.153.294-.182.637-.081.953.1.316.323.58.617.73zm5.43 0c-.447-.23-.99-.17-1.377.156-.385.326-.536.852-.384 1.333.154.48.58.822 1.084.865.502.044.982-.22 1.214-.669.155-.295.185-.639.084-.956-.1-.318-.323-.581-.62-.734v.005zm7.176 2.857c.494.608.664 1.416.455 2.17-.208.755-.768 1.362-1.505 1.63-1.004.362-1.65 1.341-1.59 2.407.045.783-.293 1.538-.905 2.026-.613.488-1.425.649-2.177.43-1.027-.294-2.126.12-2.7 1.021-.426.659-1.143 1.07-1.926 1.106-.783.035-1.534-.312-2.014-.93-.658-.84-1.787-1.151-2.781-.765-.731.283-1.553.195-2.207-.236-.653-.432-1.058-1.154-1.084-1.937-.034-1.064-.76-1.981-1.787-2.257-.763-.195-1.383-.75-1.661-1.485-.278-.736-.18-1.562.264-2.212.147-.218.258-.46.326-.712.21-.756.04-1.566-.456-2.174C.12 10.433-.05 9.624.16 8.87c.208-.754.769-1.361 1.505-1.629 1.004-.363 1.65-1.341 1.59-2.407-.045-.783.293-1.539.906-2.028.613-.487 1.426-.648 2.178-.429 1.028.295 2.127-.12 2.702-1.02C9.466.695 10.183.284 10.965.25c.783-.035 1.534.311 2.016.93.656.84 1.786 1.152 2.78.766.73-.284 1.553-.196 2.206.236.655.432 1.059 1.153 1.086 1.936.033 1.064.758 1.98 1.787 2.257.758.198 1.373.753 1.648 1.488.276.734.177 1.556-.265 2.204-.598.884-.547 2.055.128 2.882l.013.008zm-7.455-7.56c-1.752-.906-3.791-1.08-5.67-.483-1.88.597-3.445 1.917-4.352 3.667-.906 1.751-1.08 3.79-.482 5.67C5 16.13 6.32 17.696 8.072 18.602c1.75.907 3.79 1.08 5.669.484 1.88-.598 3.444-1.917 4.351-3.667.907-1.752 1.081-3.791.484-5.67-.598-1.88-1.916-3.445-3.667-4.352z" transform="translate(-321 -4101) translate(128 4085) translate(176) translate(17 16)"/>
                    </g>
                </g>
            </g>
        </g>
    </g>
</svg>
