<svg xmlns="http://www.w3.org/2000/svg" width="63" height="78" viewBox="0 0 63 78">
    <g fill="none" fill-rule="evenodd">
        <g fill="#FFF" fill-rule="nonzero">
            <g>
                <path d="M36.942 107.347c6.863 0 13.348 2.516 18.262 7.082 5.031 4.676 7.8 10.973 7.8 17.73v14.48c0 1-.808 1.809-1.808 1.809h-3.621v14.48c0 1-.809 1.808-1.809 1.808h-9.05l.001 18.052c.009.295-.054.593-.193.868-.008.013-.014.026-.021.04-.014.027-.03.054-.046.08l-.04.062c-.01.018-.022.035-.034.052l-.01.011-.004.007.014-.018c-.084.118-.179.222-.282.313l-.03.023c-.127.109-.268.196-.417.263l-.053.022-.078.03-.074.025c-.023.008-.047.014-.07.02-.029.008-.058.015-.088.021l-.067.014-.085.012-.06.007h-.019l-.014.002-.137.005-32.577.001c-1 0-1.809-.809-1.809-1.809v-36.73C5.018 144.491.99 139.394.99 133.372c0-5.004 2.782-9.37 6.881-11.63l-.002.165c0-7.32 5.953-13.273 13.273-13.273 1.737 0 3.397.335 4.919.945 3.42-1.463 7.164-2.232 10.882-2.232zm.003 3.626c-2.35 0-4.715.354-6.97 1.037 2.684 2.398 4.391 5.87 4.438 9.734l.135.073c.212.12.421.247.626.379 1.324.848 2.473 1.915 3.406 3.142l.12.16.04.055c1.605 2.194 2.553 4.898 2.553 7.819 0 1.649-.304 3.228-.857 4.687-1.9 5.017-6.75 8.59-12.42 8.59-2.457 0-4.809-.661-6.88-1.919-2.1 1.281-4.495 1.938-7 1.918l.004 34.383h25.125l-20.746-14.817c-.812-.582-1-1.71-.422-2.523.582-.813 1.711-1 2.524-.422l22.475 16.052.001-16.388c0-1 .809-1.809 1.809-1.809h9.05v-14.48c0-1 .809-1.808 1.809-1.808h3.621v-12.668c0-11.688-10.066-21.195-22.44-21.195zM20.657 156.05l14.48 10.86c.8.6.961 1.734.363 2.534-.355.477-.898.727-1.449.727-.379 0-.758-.117-1.086-.363l-14.48-10.86c-.8-.6-.96-1.734-.363-2.534.601-.801 1.734-.961 2.535-.364zm13.207-30.357l-.02.068c-1.015 3.336-3.31 6.12-6.31 7.775l.001-.165c0 3.298-1.21 6.319-3.208 8.643l-.175.2c.694.304 1.43.53 2.197.664.035.008.07.013.106.02l-.106-.02.258.042-.152-.023c.123.02.247.038.371.053l-.219-.03c.116.017.232.032.349.044.097.011.194.02.292.028l-.292-.028c.121.014.243.025.366.034l-.074-.006c.131.01.263.018.395.023l-.32-.017c.107.007.215.013.323.017.121.005.245.007.37.007 5.324 0 9.652-4.328 9.652-9.652 0-1.95-.585-3.803-1.622-5.356-.595-.889-1.333-1.673-2.182-2.321zm-25.446 0l-.018.012c-2.303 1.765-3.79 4.544-3.79 7.665 0 4.747 3.44 8.702 7.96 9.504.02 0 .042.004.063.007.547.094 1.094.14 1.629.14.237 0 .472-.008.706-.024l.054-.004-.054.004c.128-.01.255-.021.382-.035l-.328.03c.135-.01.269-.023.402-.039l-.074.009c.112-.013.224-.027.335-.043l-.261.034c.128-.015.256-.033.383-.054l-.122.02c.09-.014.18-.028.27-.044l-.148.024c.812-.131 1.59-.364 2.322-.685-2.068-2.311-3.34-5.349-3.381-8.678-3.021-1.667-5.327-4.477-6.33-7.844zm10.073 9.22l.012.074c.336 1.988 1.282 3.77 2.637 5.148 1.373-1.395 2.325-3.204 2.651-5.22-.857.173-1.743.264-2.65.264-.907 0-1.793-.091-2.65-.266zm2.65-8.308l-.122.126c-1.171 1.234-2.02 2.777-2.411 4.493.807.22 1.656.338 2.533.338.876 0 1.726-.118 2.534-.338-.405-1.775-1.3-3.364-2.533-4.619zm-6.879-2.887c-.877 0-1.726.117-2.534.337.511 2.238 1.8 4.182 3.568 5.531.566-1.898 1.546-3.62 2.834-5.06-1.184-.52-2.493-.808-3.868-.808zm13.758 0c-1.375 0-2.684.289-3.87.81 1.29 1.438 2.27 3.16 2.835 5.059 1.768-1.349 3.058-3.293 3.568-5.531-.808-.22-1.657-.338-2.533-.338zm-6.879-11.461c-4.798 0-8.787 3.515-9.529 8.106.857-.174 1.743-.265 2.65-.265 2.516 0 4.871.704 6.879 1.926 2.006-1.222 4.362-1.926 6.879-1.926.905 0 1.789.09 2.643.264-.36-2.198-1.48-4.211-3.132-5.682l-.06-.053.06.053-.19-.165.13.112c-1.695-1.476-3.91-2.37-6.33-2.37z" transform="translate(-129 -1465) translate(128 1358)"/>
            </g>
        </g>
    </g>
</svg>
