<svg xmlns="http://www.w3.org/2000/svg" width="73" height="64" viewBox="0 0 73 64">
    <g fill="none" fill-rule="evenodd">
        <g fill="#FFF" fill-rule="nonzero">
            <g>
                <g>
                    <g>
                        <path d="M59.06 0c2.555 0 4.636 2.079 4.636 4.636 0 2.555-2.079 4.636-4.636 4.636-2.184 0-4.017-1.516-4.506-3.555h-4.688l-3.568 4.477-1.908 2.395-2.385 2.99c.287-.043.581-.065.87-.065 3.307 0 5.997 2.687 5.997 5.99 0 .036 0 .07-.006.109.057.027.108.062.16.092l3.033-1.541c-.176-.311-.357-.622-.557-.93-1.536-2.433-3.63-4.536-6.169-6.093l1.898-2.385c2.879 1.833 5.25 4.277 6.98 7.102.192.31.373.622.546.938l2.046-1.038c.151-.078.316-.116.49-.116h5.738c.49-2.036 2.32-3.555 4.504-3.555 2.555 0 4.636 2.079 4.636 4.636 0 2.555-2.079 4.636-4.636 4.636-2.184 0-4.014-1.516-4.504-3.555h-5.485l-1.846.938-1.173.592-3.647 1.852c1.106 1.25 1.76 2.89 1.76 4.658 0 1.446-.433 2.79-1.173 3.906h2.798c.043-.36.08-.719.102-1.081.036-.449.052-.903.052-1.357 0-2.136-.365-4.22-1.044-6.18l2.717-1.379c.884 2.385 1.354 4.94 1.354 7.562 0 .454-.013.908-.043 1.357-.021.362-.051.721-.094 1.081h5.717c.49-2.036 2.32-3.555 4.504-3.555 2.557 0 4.636 2.079 4.634 4.655 0 2.555-2.08 4.636-4.637 4.636-2.184 0-4.014-1.516-4.503-3.555H49.169c-.654.381-1.37.663-2.14.822-1.328 1.92-3.52 3.087-5.891 3.087-.076 0-.149-.008-.222-.013l4.377 8.05h3.59c.105-.362.221-.722.338-1.081.713-2.147 1.63-4.215 2.74-6.17.652-1.15 1.18-2.362 1.574-3.616h3.152c-.481 1.781-1.181 3.503-2.098 5.112-.843 1.492-1.565 3.055-2.162 4.671-.13.36-.254.72-.376 1.081h3.844c.49-2.035 2.322-3.554 4.506-3.554 2.555 0 4.636 2.078 4.636 4.636 0 2.554-2.078 4.636-4.636 4.636-2.184 0-4.017-1.517-4.506-3.555H44.644c-.392 0-.76-.216-.946-.568l-5.615-10.32c-.968-.455-1.825-1.123-2.509-1.96-.208.043-.41.078-.613.1-.03.002-.06.01-.095.016-.23.024-.468.037-.7.037-.233 0-.462-.01-.687-.037-.073-.008-.143-.022-.216-.036-.151-.021-.3-.037-.446-.073-.095-.018-.181-.043-.273-.07-.122-.03-.246-.062-.368-.1-.102-.035-.202-.076-.303-.113-.102-.04-.202-.079-.302-.122-.108-.049-.217-.1-.325-.157-.083-.043-.17-.086-.251-.13-.114-.064-.222-.13-.33-.2-.067-.046-.14-.094-.21-.146-.109-.073-.217-.151-.32-.237-.065-.052-.124-.103-.189-.16-.1-.086-.197-.173-.29-.265-.064-.065-.129-.13-.188-.195-.063-.064-.13-.124-.187-.194-.873.332-1.803.505-2.747.505-4.263 0-7.737-3.468-7.737-7.737 0-3.76 2.75-6.941 6.345-7.604.792-2.716 3.322-4.693 6.237-4.693 1.043 0 2.049.244 2.962.714.738-.36 1.55-.546 2.387-.546 1.168 0 2.263.368 3.166 1.008l2.465-3.098c-.346-.143-.705-.273-1.068-.394-1.97-.655-4.052-.995-6.15-.995-3.56 0-7.039.968-10.061 2.798-5.764 3.497-9.208 9.572-9.208 16.249 0 .057.006.108.006.16l.005.172c.006.276-.065.549-.203.787l-5.182 8.948c-.043.073-.089.146-.146.21.1 0 .216.012.311.028l3.747.74c.71.141 1.224.766 1.224 1.487v6.756c0 1.806 1.49 3.27 3.323 3.27h6.904c.835 0 1.514.68 1.514 1.515v7.582h20.01v-4.72c0-2.416.237-4.814.705-7.144h3.093c-.511 2.322-.77 4.717-.77 7.144v6.234c0 .835-.68 1.514-1.515 1.514H25.861c-.838 0-1.514-.679-1.514-1.514v-7.583h-5.39c-3.504 0-6.35-2.824-6.35-6.298V43.09l-2.406-.476c-1.127-.062-2.109-.719-2.59-1.743-.481-1.03-.354-2.203.324-3.098l4.92-8.494c.014-7.734 3.996-14.762 10.67-18.806 3.49-2.12 7.513-3.239 11.627-3.239 2.793 0 5.561.519 8.14 1.527.351.13.697.276 1.038.433l4.168-5.234c.203-.254.514-.405.844-.405h5.212C55.044 1.519 56.876 0 59.06 0zM11.671 56.582c.89.346 1.333 1.349.988 2.239l-1.548 3.926c-.405.785-1.336 1.14-2.158.823-.824-.316-1.28-1.202-1.053-2.054l1.533-3.946c.345-.89 1.346-1.333 2.238-.988zm-3.776-3.499c.336.896-.117 1.893-1.012 2.232l-4.39 1.644c-.097.042-.196.076-.298.102-.925.251-1.88-.294-2.134-1.218-.251-.928.294-1.883 1.219-2.134l4.386-1.638c.893-.336 1.892.116 2.229 1.012zm-4.208-9.28l3.755 1.965.001.003c.68.333 1.064 1.067.949 1.815-.116.748-.701 1.334-1.45 1.45-.375.065-.762.005-1.098-.172L2.09 46.899v-.003c-.852-.44-1.188-1.49-.746-2.344.44-.854 1.49-1.188 2.344-.748zm56.725 1.531c-.887 0-1.611.722-1.608 1.609 0 .887.721 1.608 1.608 1.608.887 0 1.608-.721 1.608-1.608 0-.887-.721-1.609-1.608-1.609zM31.387 16.606c-1.79 0-3.303 1.393-3.455 3.18-.059.77-.7 1.373-1.478 1.389-2.55.046-4.62 2.157-4.62 4.701 0 2.598 2.114 4.71 4.709 4.71.457 0 .911-.074 1.349-.204-.116-.489-.187-.994-.187-1.513 0-3.569 2.904-6.472 6.472-6.472.403 0 .808.04 1.203.113.822.155 1.362.947 1.206 1.768-.154.822-.946 1.357-1.768 1.206-.208-.038-.425-.06-.64-.06-1.901 0-3.445 1.547-3.445 3.445 0 .578.149 1.127.403 1.608.065.13.143.251.224.368l.06.078c.065.09.135.173.208.254l.078.087c.095.094.192.186.295.267.027.027.06.044.086.065.084.065.165.122.252.179.04.021.078.046.121.073.095.051.19.102.29.146.024.01.046.024.073.037.124.054.254.098.384.136l.108.03c.105.026.208.048.316.064.038.003.078.011.116.016.14.017.281.03.427.03.484 0 .955-.103 1.4-.303.2-.092.411-.135.62-.135.286 0 .562.081.8.233.08.048.151.105.216.165.01.008.019.013.027.021.065.065.13.13.181.208.008.008.014.022.022.03l.04.06.04.064c.728 1.325 2.115 2.147 3.62 2.147 1.525 0 2.917-.835 3.64-2.176.24-.446.691-.738 1.197-.787 2.073-.19 3.633-1.903 3.636-3.982 0-1.773-1.138-3.314-2.833-3.828-.77-.235-1.22-1.03-1.03-1.808.062-.246.092-.476.092-.706 0-1.635-1.333-2.963-2.968-2.963-.574 0-1.133.168-1.617.484-.381.252-.857.317-1.29.179-.432-.138-.78-.463-.946-.887-.375-.943-1.273-1.549-2.284-1.549-.535 0-1.046.173-1.479.497-.535.409-1.27.411-1.81.014-.606-.446-1.317-.679-2.06-.679zm36.143 14.62c-.886 0-1.608.722-1.608 1.608 0 .887.722 1.609 1.608 1.609.887 0 1.609-.722 1.609-1.609 0-.886-.722-1.608-1.609-1.608zm0-14.112c-.887 0-1.609.725-1.609 1.609 0 .887.722 1.608 1.609 1.608.886 0 1.608-.721 1.608-1.608 0-.887-.722-1.609-1.608-1.609zM59.058 3.028c-.887 0-1.609.722-1.609 1.608 0 .887.722 1.609 1.609 1.609.886 0 1.608-.722 1.608-1.609 0-.886-.722-1.608-1.608-1.608z" transform="translate(-440 -1032) translate(128 911) translate(0 120) translate(312 1)"/>
                    </g>
                </g>
            </g>
        </g>
    </g>
</svg>
