<svg xmlns="http://www.w3.org/2000/svg" width="60" height="60" viewBox="0 0 60 60">
    <g fill="none" fill-rule="evenodd">
        <g fill="#FFF" fill-rule="nonzero">
            <g>
                <g>
                    <path d="M50.662 64.71c2.193 0 3.97 1.776 3.97 3.97 0 2.192-1.777 3.969-3.97 3.969-2.193 0-3.97-1.777-3.97-3.97 0-2.193 1.777-3.97 3.97-3.97zM28.2 25.93l.453.005c5.132.114 9.94 2.166 13.576 5.81 8.554 8.557 8.554 22.482 0 31.04-4.617 4.621-10.754 7.12-17.11 7.12-1.217 0-2.44-.095-3.664-.282l-.611-.1-.79 2.867-3.991-5.083 5.954-2.054-.645 2.347c7.12 1.2 14.313-1.072 19.456-6.218 7.78-7.785 7.78-20.45 0-28.232-3.375-3.374-7.857-5.233-12.628-5.233s-9.254 1.859-12.628 5.233c-6.227 6.232-6.227 16.369 0 22.6 2.697 2.698 6.282 4.184 10.095 4.184 3.682 0 7.15-1.386 9.813-3.909l.282-.274 1.404 1.404c-3.07 3.071-7.154 4.763-11.499 4.763-4.343 0-8.427-1.692-11.498-4.763-7.001-7.006-7.001-18.404 0-25.41 3.642-3.644 8.447-5.696 13.578-5.81l.453-.006zM9.975 59.746c2.193 0 3.97 1.777 3.97 3.97 0 2.193-1.777 3.97-3.97 3.97-2.193 0-3.97-1.777-3.97-3.97 0-2.193 1.777-3.97 3.97-3.97zm26.037-42.813c5.267 1.288 10.085 4.004 13.94 7.86 8.965 8.967 11.943 22.25 7.784 34.156l-.157.44 2.421.968-5.327 3.29-1.332-5.954 2.394.957c4.094-11.278 1.325-23.938-7.187-32.455-3.469-3.47-7.775-5.95-12.482-7.2l-.525-.134.471-1.928zM16.922 15.9l5.954 1.965-3.553 5.165-.965-2.865c-3.381 1.392-6.42 3.411-9.04 6.031-8.63 8.635-9.76 21.994-2.753 31.915l.242.337-1.602 1.171C-2.65 48.87-1.51 34.225 7.916 24.792c2.689-2.687 5.792-4.785 9.233-6.269l.577-.241-.804-2.382zm22.003 34.621l1.896.588c-.183.584-.4 1.16-.653 1.715l-.196.414-1.781-.876c.293-.59.538-1.21.734-1.84zM27.437 33.922c.587 0 1.064.477 1.064 1.064 0 .376-.195.705-.489.895l-.115.064v1.327c2.353.153 4.394 1.447 5.571 3.336 1.221.81 2.03 2.19 2.03 3.747 0 1.474-.722 2.788-1.834 3.61l-.032.06-.006.01c-.082.145-.169.286-.261.426 0 .002-.002.002-.002.003-1.275 1.918-3.456 3.184-5.932 3.184-1.025 0-1.999-.218-2.88-.608-1.914.936-4.48.783-4.48.783s.05-.04.13-.118l.11-.11c.53-.547 1.692-2.01.876-3.645-1.1-.825-1.812-2.132-1.812-3.595 0-1.557.807-2.937 2.03-3.747 1.13-1.814 3.056-3.08 5.29-3.312l.28-.024v-1.327c-.357-.172-.603-.536-.603-.959 0-.587.477-1.064 1.065-1.064zm3.515 6.849h-7.031c-1.997 0-3.623 1.608-3.623 3.584 0 1.912 1.523 3.48 3.43 3.579l.193.005h7.031c1.997 0 3.623-1.608 3.623-3.584s-1.626-3.584-3.623-3.584zm-6.824 2.625c.531.002.96.43.96.959 0 .53-.43.959-.96.959s-.96-.43-.96-.96c0-.529.43-.958.96-.958zm6.677 0c.53 0 .96.43.96.959 0 .53-.43.959-.96.959s-.96-.43-.96-.96c0-.529.43-.958.96-.958zm-.982-30.29c2.193 0 3.97 1.777 3.97 3.97 0 2.193-1.777 3.97-3.97 3.97-2.193 0-3.97-1.777-3.97-3.97 0-2.193 1.777-3.97 3.97-3.97z" transform="translate(-158 -1389) translate(128 1352) translate(30 24)"/>
                </g>
            </g>
        </g>
    </g>
</svg>
