<svg xmlns="http://www.w3.org/2000/svg" width="47" height="56" viewBox="0 0 47 56">
    <path fill="#17BD85" d="M28.001 0c5.134 0 9.333 4.2 9.333 9.333 0 .584-.116 1.167-.116 1.634 5.482 1.515 9.45 3.967 9.45 7.7V21c0 6.649-2.917 12.833-7.933 17.149l-6.184 5.134-2.217 10.85C30.1 55.185 29.167 56 28 56h-9.333c-1.167 0-2.1-.7-2.333-1.866l-2.099-10.851-6.184-5.134C2.917 33.833 0 27.649 0 21l.001-2.333c0-5.483 8.982-8.4 18.667-9.101v-.233C18.668 4.2 22.868 0 28 0zM5.133 24.616c.816 3.851 2.917 7.351 5.95 9.8l6.768 5.718c.465.348.7.932.815 1.399l1.985 9.8h5.483l1.984-9.8c.116-.467.349-.932.816-1.283l6.765-5.717c3.033-2.566 5.017-5.95 5.95-9.8C36.981 26.948 29.981 28 23.332 28c-6.649 0-13.65-1.05-18.2-3.384zm14.933-10.5c-10.15.583-15.4 3.384-15.4 4.55 0 1.167 6.417 4.667 18.667 4.667 12.25 0 18.667-3.5 18.667-4.666 0-.7-2.333-2.218-6.884-3.384-.7.818-1.515 1.517-2.45 2.1-4.318 2.566-10.035 1.167-12.6-3.267zM28 4.666c-2.566 0-4.667 2.102-4.667 4.667C23.333 11.9 25.434 14 28 14s4.667-2.1 4.667-4.667c0-2.565-2.101-4.666-4.667-4.666zM10.5 0C12.432 0 14 1.568 14 3.5S12.432 7 10.5 7 7 5.432 7 3.5 8.568 0 10.5 0z"/>
</svg>
