<svg xmlns="http://www.w3.org/2000/svg" width="53" height="48" viewBox="0 0 53 48">
    <path fill="#518DE2" d="M52.267 36.677c0 .709-.282 1.386-.782 1.886s-1.179.781-1.885.781h-10c-1.473 0-2.667-1.194-2.667-2.667 0-1.473 1.194-2.666 2.667-2.666h10c.706 0 1.385.28 1.885.78s.782 1.18.782 1.886zm-2.667-11.2h-10c-1.473 0-2.667 1.194-2.667 2.667 0 1.473 1.194 2.667 2.667 2.667h10c1.473 0 2.667-1.194 2.667-2.667 0-1.473-1.194-2.667-2.667-2.667zm0-8.533h-10c-1.473 0-2.667 1.194-2.667 2.667 0 1.473 1.194 2.666 2.667 2.666h10c1.473 0 2.667-1.193 2.667-2.666 0-1.473-1.194-2.667-2.667-2.667zM31.131 34.011h-10c-1.473 0-2.666 1.193-2.666 2.666 0 1.473 1.193 2.667 2.666 2.667h10.004c1.473 0 2.667-1.194 2.667-2.667 0-1.473-1.194-2.666-2.667-2.666h-.004zm0-8.534h-10c-1.473 0-2.666 1.194-2.666 2.667 0 1.473 1.193 2.667 2.666 2.667h10.004c1.473 0 2.667-1.194 2.667-2.667 0-1.473-1.194-2.667-2.667-2.667h-.004zM49.6 42.544h-10c-1.473 0-2.667 1.194-2.667 2.667 0 1.473 1.194 2.666 2.667 2.666h10c1.473 0 2.667-1.193 2.667-2.666 0-1.473-1.194-2.667-2.667-2.667zm-15.802 2.667c0-.707-.281-1.386-.781-1.886s-1.18-.781-1.886-.781h-10c-1.473 0-2.666 1.194-2.666 2.667 0 1.473 1.193 2.666 2.666 2.666h10.004c1.473 0 2.667-1.193 2.667-2.666h-.004zm7.008-33.478c.39.396.921.623 1.477.636.105 0 .21-.01.315-.027.825-.15 1.467-.804 1.6-1.634l1.381-8.27c.096-.576-.064-1.165-.44-1.611-.376-.446-.928-.704-1.512-.704-.11 0-.219.008-.325.027l-8.246 1.358c-.91.152-1.598.91-1.658 1.832-.035.587.19 1.162.612 1.572l1.563 1.563-8.533 8.533-4.555-4.554c-1.016-1.017-2.664-1.017-3.679 0L4.54 24.725c-.505.485-.794 1.152-.8 1.85-.007.7.268 1.373.762 1.867.494.496 1.167.768 1.867.762.698-.006 1.364-.294 1.85-.798L20.625 16l4.554 4.554c1.017 1.017 2.663 1.017 3.68 0l10.4-10.42 1.547 1.6zM2.666 39.344h10c1.474 0 2.667-1.194 2.667-2.667 0-1.473-1.193-2.666-2.666-2.666h-10C1.194 34.01 0 35.204 0 36.677c0 1.473 1.194 2.667 2.667 2.667zm12.667 5.867c0-.707-.28-1.386-.78-1.886s-1.18-.781-1.886-.781h-10C1.194 42.544 0 43.738 0 45.211c0 1.473 1.194 2.666 2.667 2.666h10c.706 0 1.385-.28 1.885-.78s.781-1.178.781-1.886z"/>
</svg>
