<svg xmlns="http://www.w3.org/2000/svg" width="40" height="40" viewBox="0 0 40 40">
    <g fill="none" fill-rule="evenodd">
        <g fill="#000" fill-rule="nonzero">
            <g>
                <path d="M28.339 27.44c-.74 0-1.339.6-1.339 1.34v36.44c0 .74.598 1.34 1.339 1.34H65.66c.74 0 1.339-.6 1.339-1.34 0-.724-.598-1.322-1.339-1.322h-36V28.78c0-.74-.598-1.34-1.322-1.34zM55 36.78c-.803 0-1.433.755-1.402 1.401.032.709.71 1.307 1.402 1.26h3.764L46.937 50.559l-4.236-3.543c-.268-.315-.693-.504-1.118-.473-.3.016-.583.142-.803.347l-8.898 8c-.536.456-.614 1.386-.126 1.921.472.535 1.401.567 1.905.063l8.048-7.228 4.283 3.559c.457.55 1.402.598 1.921.11L60.78 41.22v4c-.016.71.63 1.355 1.338 1.355.693 0 1.339-.646 1.323-1.355v-7.102c0-.709-.63-1.338-1.323-1.338H55z" transform="translate(-699 -2030) translate(672 2003)"/>
            </g>
        </g>
    </g>
</svg>
