<svg xmlns="http://www.w3.org/2000/svg" width="40" height="42" viewBox="0 0 40 42">
    <g fill="none" fill-rule="evenodd">
        <g fill="#000" fill-rule="nonzero">
            <g>
                <g>
                    <path d="M24.379 25.995c-1.89 2.383-5.202 3.093-7.901 1.696-2.702-1.396-4.033-4.51-3.179-7.429.092-.293.309-.531.594-.65.286-.117.607-.102.88.04l9.253 4.792c.273.14.469.394.537.695.067.298 0 .612-.184.856zm-7.393-8.414c.781.403 1.728.295 2.4-.27.67-.568.934-1.483.668-2.32-.267-.837-1.01-1.432-1.886-1.507-.876-.075-1.71.386-2.114 1.165-.267.512-.318 1.11-.142 1.66.175.55.562 1.008 1.074 1.272zm9.454 0c-.78-.4-1.726-.295-2.398.273-.67.566-.934 1.483-.668 2.32.267.836 1.01 1.43 1.885 1.505.875.076 1.71-.384 2.115-1.164.269-.513.32-1.112.145-1.665-.175-.553-.562-1.012-1.08-1.277v.008zm12.49 4.974c.86 1.057 1.156 2.465.793 3.778-.363 1.314-1.339 2.37-2.62 2.835-1.748.632-2.873 2.337-2.77 4.19.079 1.364-.508 2.678-1.574 3.529-1.067.849-2.48 1.128-3.79.748-1.788-.512-3.701.21-4.701 1.778-.74 1.146-1.988 1.863-3.35 1.925-1.364.06-2.67-.543-3.508-1.618-1.144-1.464-3.11-2.005-4.84-1.333-1.273.493-2.703.34-3.842-.412-1.137-.751-1.842-2.008-1.887-3.371-.06-1.853-1.321-3.448-3.111-3.93C2.4 30.337 1.323 29.372.839 28.09c-.484-1.281-.313-2.719.46-3.85.255-.38.448-.8.568-1.24.364-1.316.067-2.726-.795-3.783C.21 18.16-.085 16.753.278 15.439c.363-1.313 1.339-2.37 2.62-2.835 1.748-.632 2.873-2.335 2.77-4.191-.08-1.363.508-2.679 1.575-3.53 1.068-.849 2.483-1.128 3.792-.746 1.788.512 3.701-.21 4.703-1.778.74-1.146 1.988-1.863 3.35-1.924 1.362-.06 2.67.542 3.508 1.618 1.142 1.464 3.11 2.006 4.84 1.334 1.271-.493 2.703-.34 3.84.411 1.14.752 1.843 2.007 1.89 3.37.058 1.852 1.32 3.448 3.11 3.929 1.32.345 2.391 1.31 2.87 2.59.48 1.278.308 2.708-.461 3.837-1.042 1.538-.952 3.578.222 5.017l.022.014zM25.951 9.395c-3.049-1.578-6.6-1.881-9.87-.841-3.27 1.04-5.996 3.336-7.574 6.383-1.579 3.049-1.88 6.6-.84 9.87 1.037 3.27 3.334 5.996 6.383 7.575 3.047 1.578 6.597 1.88 9.868.842 3.272-1.04 5.996-3.337 7.575-6.384 1.578-3.049 1.881-6.6.842-9.87-1.04-3.272-3.336-5.996-6.384-7.574z" transform="translate(-899 -2059) translate(872 2033) translate(27 26)"/>
                </g>
            </g>
        </g>
    </g>
</svg>
