<svg xmlns="http://www.w3.org/2000/svg" width="40" height="40" viewBox="0 0 40 40">
    <g fill="none" fill-rule="evenodd">
        <g fill="#000" fill-rule="nonzero">
            <g>
                <path d="M40.34 52.598c1.784 0 3.514.614 4.9 1.735h7.426c1.051 0 2.028.552 2.57 1.453.543.902.573 2.022.08 2.952l7.561-4.072c.407-.218.864-.333 1.325-.333 1.239.019 2.324.839 2.679 2.025.355 1.187-.102 2.467-1.127 3.162l-10.38 6.92c-.546.366-1.191.561-1.848.56H27v-1.333h8v-10h-8v-1.334h8.44c1.386-1.121 3.116-1.735 4.9-1.735zm.143 1.334c-1.502-.035-2.97.455-4.15 1.385v10.35h17.193c.393.001.78-.116 1.108-.334l10.38-6.923c.65-.44.848-1.31.45-1.989-.397-.678-1.252-.931-1.955-.58l.002-.001-8.195 4.413c-.098.053-.207.08-.317.08h-9.333c-.368 0-.667-.298-.667-.667 0-.368.299-.666.667-.666h7c.92 0 1.666-.747 1.666-1.667s-.746-1.666-1.666-1.666h-7.667c-.158 0-.313-.057-.433-.16-1.137-.984-2.58-1.54-4.083-1.575zM30.25 60.918c.574-.572 1.434-.742 2.18-.433.749.31 1.235 1.04 1.235 1.848 0 1.105-.895 2-2 2-.808 0-1.538-.487-1.848-1.235-.308-.747-.138-1.607.433-2.18zm1.887.943c-.192-.19-.478-.246-.727-.145-.25.104-.411.347-.411.617 0 .368.298.667.666.667.27 0 .514-.162.617-.412.102-.248.045-.535-.145-.727zM46.333 27v4.7c.22-.017.441-.033.666-.033 1.394 0 2.767.338 4 .986v-2.986h1.333v3.85c.489.38.935.811 1.334 1.286v-3.136h1.333V37c1.115 2.675.818 5.73-.788 8.14-1.608 2.412-4.314 3.86-7.212 3.86-2.898 0-5.603-1.449-7.211-3.86-1.607-2.41-1.903-5.465-.789-8.14v-7.333h1.334v5.136c.59-.706 1.286-1.315 2.066-1.803h-.066v-2h1.333v1.333c.432-.176.878-.32 1.333-.425V27h1.334zm4.666 7.198c-2.098-1.375-4.753-1.577-7.036-.537-2.282 1.04-3.872 3.177-4.21 5.662-.34 2.485.616 4.97 2.536 6.585 1.92 1.613 4.532 2.132 6.922 1.37 2.39-.76 4.223-2.692 4.857-5.118.633-2.427-.022-5.01-1.735-6.84v2.346h-1.334zm2 6.135c-.003 3.312-2.688 5.997-6 6V45l.213-.005c2.407-.111 4.337-2.042 4.449-4.448l.005-.214zM47.666 37v.667h.25c.965.001 1.748.785 1.748 1.75v.25h-1.333v-.25c0-.23-.187-.417-.415-.417H46.08c-.217 0-.398.167-.415.383-.018.215.133.409.348.444l2.19.365c.898.148 1.533.961 1.458 1.87-.075.908-.835 1.606-1.746 1.605h-.25v.666h-1.334v-.666h-.25c-.966-.002-1.748-.784-1.75-1.75v-.25h1.334v.25c0 .23.186.416.416.416h1.835c.217 0 .399-.166.415-.383.019-.215-.133-.408-.348-.443l-2.19-.365c-.898-.149-1.533-.962-1.458-1.87.075-.909.835-1.607 1.746-1.605h.25V37h1.334zm-.667-2.667v1.333c-2.576.003-4.663 2.09-4.666 4.667H41c.003-3.312 2.688-5.997 6-6zm12.667-5.998c.325 0 .603.235.656.555.182 1.087 1.034 1.938 2.12 2.12.32.053.555.332.555.657s-.235.603-.555.656c-1.086.182-1.938 1.034-2.12 2.12-.053.32-.331.555-.656.555s-.604-.235-.657-.555c-.182-1.086-1.033-1.938-2.12-2.12-.32-.053-.555-.331-.555-.656s.235-.604.555-.657c1.087-.182 1.938-1.033 2.12-2.12.053-.32.332-.555.657-.555zm0 2.38c-.26.37-.582.692-.952.952.37.26.692.581.952.951.26-.37.581-.691.951-.951-.37-.26-.691-.582-.951-.952zm-16-2.382v1.334h-1.333v-1.334h1.333zM52.333 27v1.333h-1.334V27h1.334z" transform="translate(-1147 -2060) translate(1120 2033)"/>
            </g>
        </g>
    </g>
</svg>
