<svg xmlns="http://www.w3.org/2000/svg" width="64" height="88" viewBox="0 0 64 88">
    <g fill="none" fill-rule="evenodd">
        <g fill="#FFF" fill-rule="nonzero" stroke="#FFF">
            <g>
                <path d="M607.273 100.387v45.3h2.059c-.98-1.628-1.25-3.89-.692-6.07.7-2.75 2.91-4.718 5.77-5.14.36-.047.719-.078 1.07-.078-.48-2.48.797-4.75 3.649-6.371 2.59-1.47 7.289-1.848 9.828.421 2.668-2.472 7.508-1.722 9.789-.421 2.86 1.62 4.136 3.89 3.648 6.37.352 0 .711.028 1.07.079 2.872.422 5.079 2.39 5.77 5.14.559 2.18.289 4.442-.691 6.07h2.648l.289.489c2.371 4.019 3.621 8.609 3.629 13.288 0 14.418-11.726 26.148-26.148 26.148-14.411 0-26.141-11.726-26.141-26.148 0-4.539 1.191-9 3.43-12.93h0l-.489-.289c-7.93-4.67-12.852-13.288-12.852-22.48 0-9.187 4.923-17.808 12.852-22.488h0l1.512-.89zm45.734 61.164h-4.199c-.43 4.43-4.18 7.91-8.73 7.91-.559 0-1.098-.047-1.63-.148h0-.011c-2.07-.387-3.867-1.508-5.148-3.079-1.082-1.308-1.77-2.918-1.942-4.68h0-3.68c-.16 1.708-.82 3.278-1.84 4.56-1.468 1.859-3.66 3.109-6.148 3.32h0-.011c-.243.02-.48.03-.73.03-4.56 0-8.31-3.48-8.74-7.91h0-5.3c1.063 12.34 11.442 22.06 24.051 22.06 12.62-.001 23-9.72 24.058-22.063h0zm-12.925-7.645c-1.05 0-2 .238-2.89.68h0-.051c-.719.34-1.371.808-1.91 1.379-.95.96-1.598 2.199-1.828 3.59-.059.328-.09.66-.09 1-.012.039-.012.09-.012.129 0 .3.02.59.07.87.329 2.653 2.211 4.833 4.7 5.602.632.2 1.312.309 2.011.309.059 0 .121 0 .18-.012 3.36-.078 6.121-2.629 6.531-5.898.051-.282.07-.57.07-.871 0-.04 0-.09-.011-.13 0-.34-.031-.671-.09-1h0l-.06-.31c-.132-.615-.349-1.197-.624-1.736h0v-.051s0-.012-.011-.012c-.223-.418-.48-.75-.781-1.11h0-.012c-.23-.28-.48-.538-.762-.769-.488-.43-1.039-.78-1.629-1.05-.851-.391-1.8-.61-2.8-.61zm-27.832 5.649c-.02.107-.04.217-.05.33l-.009.17h0c-.03.168-.043.324-.03.496-.013.039-.013.09-.013.129 0 .3.02.59.07.87.36 2.872 2.532 5.184 5.321 5.762.45.098.918.149 1.398.149.372 0 .743-.031 1.102-.102 2.937-.469 5.238-2.84 5.61-5.808.05-.282.07-.57.07-.871 0-.04 0-.09-.012-.13 0-.34-.031-.671-.09-1-.531-3.199-3.32-5.648-6.68-5.648-1.898 0-3.62.782-4.859 2.051-.937.961-1.598 2.211-1.828 3.602h0-.211.211zm37.8-11.871h-42.16c-2.01 3.59-3.07 7.652-3.07 11.78h0v.09h5.422c.16-1.288.61-2.491 1.282-3.55.25-.402.539-.79.859-1.14.117-.15.258-.29.398-.43.98-.961 2.188-1.7 3.54-2.121.828-.27 1.718-.41 2.628-.41 4.461 0 8.149 3.34 8.7 7.648h3.738c.55-4.309 4.238-7.649 8.7-7.649.589 0 1.16.063 1.718.172.777.16 1.527.418 2.219.77.629.308 1.21.699 1.73 1.148.508.43.98.922 1.38 1.461.878 1.18 1.456 2.582 1.648 4.102h4.327v-.09c0-4.133-1.058-8.191-3.058-11.781h0zm-22.093-17.38c-1-1.28-2.91-1.6-4.692-1.421 1.063 1.2 2.403 3.3 1.641 5.64-.14.422-.527.692-.95.692-.097 0-.206-.02-.308-.05-.52-.173-.812-.743-.64-1.262.73-2.231-2.04-4.493-2.059-4.512-.32.11-.602.238-.84.379-2.398 1.36-3.23 3.039-2.469 4.98h.012c1.539.489 2.84 1.52 3.71 2.969.29.48.13 1.09-.339 1.379-.48.277-1.09.117-1.371-.352-1.23-2.05-3.36-2.527-4.96-2.289-1.61.227-3.532 1.32-4.122 3.649-.422 1.66-.242 3.41.48 4.582.22.351.34.691.391 1.011h6.031c.059-.34.059-.66.04-.89-.688-.27-1.38-.66-1.989-1.211-1.312-1.192-1.992-2.84-2.031-4.93 0-.55.437-1 .988-1.012.512-.039 1 .43 1.012.98.031 1.5.488 2.669 1.36 3.47 1.687 1.53 4.437 1.34 4.468 1.34.54-.051 1.031.359 1.07.91.051.547-.359 1.027-.91 1.078-.031 0-.21.02-.5.02-.36 0-.867-.02-1.469-.11 0 .113-.007.23-.02.351h8.47v-3.14c-1.207.508-2.559.547-2.809.558h0-.012c-.55 0-.988-.437-1-.988-.011-.55.438-1.011.989-1.011.906-.02 2.668-.36 2.828-1.11h0zm6.613-1.425c-1.758-.16-3.64.172-4.61 1.441h0v7c.329.727 1.258 2.278 2.52 2.739.64.238 1.313.168 2.05-.211.493-.25 1.09-.059 1.353.43.25.5.046 1.101-.442 1.351-.738.379-1.48.57-2.2.57-.491 0-.98-.09-1.46-.261-.7-.27-1.309-.703-1.82-1.192l.003.004v4.93h8.512c-.007-.121-.02-.242-.02-.352-.597.09-1.109.11-1.468.11-.289 0-.469-.02-.5-.02-.55-.047-.96-.527-.922-1.078.047-.55.528-.96 1.078-.91 0 0 .117.012.309.012l.107-.001c.837-.012 2.748-.174 4.041-1.351.88-.797 1.328-1.969 1.36-3.469.007-.55.5-.98 1.02-.98.55.011.991.46.98 1.011-.032 2.09-.719 3.739-2.02 4.93-.61.55-1.308.942-2 1.211-.012.23-.012.55.04.89h5.948c.051-.32.172-.652.391-1.011.711-1.16.902-2.91.48-4.57-.597-2.328-2.519-3.418-4.128-3.649-1.59-.242-3.73.239-4.95 2.29-.28.472-.902.632-1.37.35-.481-.288-.634-.897-.352-1.378.867-1.45 2.187-2.48 3.719-2.98.761-1.938-.07-3.61-2.47-4.97-.241-.14-.53-.269-.85-.39h0l-.013.012c-.03.02-2.18 1.781-2.18 3.73 0 .262.032.52.122.782.168.523-.121 1.09-.64 1.261-.11.032-.208.051-.31.051-.417 0-.82-.27-.949-.691-.757-2.34.582-4.442 1.641-5.64zm-29.309-24.914c-6.43 4.48-10.359 11.91-10.359 19.8 0 7.892 3.93 15.321 10.359 19.79h0z" transform="translate(-720 -1457) translate(128 1358)"/>
            </g>
        </g>
    </g>
</svg>
