<svg xmlns="http://www.w3.org/2000/svg" width="43" height="64" viewBox="0 0 43 64">
    <g fill="none" fill-rule="evenodd">
        <g fill="#FFF" fill-rule="nonzero">
            <g>
                <g>
                    <g>
                        <path d="M26.256 4.001l-4.5 23.698 16.298.099-22.197 32.1 4.5-26.1L4.06 33.7 26.256 4.001m0-4.001h-.299c-.7.099-1.198.3-1.701.7-.299.2-.601.5-.802.7-.098.098-.098.2-.2.299L.758 31.4C-.142 32.6-.24 34.2.46 35.602c.7 1.3 2.098 2.2 3.6 2.2l11.498.1-3.6 21.398c-.298 1.8.602 3.698 2.402 4.401.499.2 1.1.299 1.6.299 1.3 0 2.298-.601 3.1-1.701l22.4-32.1c.9-1.2 1-2.799.3-4.202-.7-1.3-2.099-2.2-3.6-2.2H26.66l3.6-18.801c.098-.3.098-.602.098-.9 0-2.201-1.701-3.9-3.898-4.001C26.359 0 26.257 0 26.257 0z" transform="translate(-752 -1032) translate(128 911) translate(0 120) translate(624 1)"/>
                    </g>
                </g>
            </g>
        </g>
    </g>
</svg>
