<svg xmlns="http://www.w3.org/2000/svg" width="143" height="71" viewBox="0 0 143 71">
    <g fill="none" fill-rule="evenodd">
        <rect width="143" height="71" fill="#FFF" rx="7"/>
        <g fill-rule="nonzero">
            <path fill="#518DE2" d="M.392 28.393c-.414-.69-.505-1.526-.249-2.29.869-2.588 1.535-5.24 1.995-7.93.138-.793.613-1.487 1.302-1.899.69-.413 1.526-.505 2.288-.252l.946.304c-.138-.549-.138-1.123 0-1.673.429-1.712 2.064-2.837 3.816-2.628 1.752.21 3.074 1.693 3.085 3.458.007.873-.315 1.715-.906 2.36 1.087.206 2.123.362 3.133.503v-.001c.496.065.842.52.779 1.013-.065.494-.52.842-1.014.777-1.307-.167-2.673-.399-4.064-.685-.119-.024-.23-.072-.33-.141-.503-.35-.738-.974-.591-1.569l.028-.118.002-.002c.08-.314.263-.594.518-.797.414-.32.653-.816.645-1.34-.003-.86-.648-1.583-1.503-1.682-.853-.1-1.647.455-1.848 1.291-.088.353-.057.724.086 1.058.13.298.157.632.08.95l-.029.118c-.157.589-.66 1.02-1.263 1.087-.122.014-.247.003-.363-.032-.605-.181-1.203-.363-1.778-.562-.267-.09-.558-.057-.799.088-.239.14-.403.379-.448.652-.476 2.781-1.166 5.523-2.065 8.2-.088.261-.058.547.08.785.14.238.374.405.645.457 3.522.602 6.978 1.549 10.317 2.827.228.082.413.252.514.473.1.22.109.47.022.697-.086.227-.26.41-.482.506-.224.096-.474.1-.7.008-3.22-1.226-6.553-2.133-9.95-2.71-.793-.135-1.488-.61-1.9-1.301h.001z" transform="translate(54 18)"/>
            <path fill="#E64949" d="M21.357 6.678c1.706.433 2.827 2.063 2.618 3.809-.208 1.745-1.681 3.066-3.442 3.087-.875.007-1.719-.315-2.364-.905-.207 1.086-.363 2.122-.504 3.133h.001c-.058.448-.44.785-.893.786h-.116c-.241-.03-.46-.154-.607-.346-.148-.193-.211-.436-.177-.675.167-1.308.4-2.673.686-4.064.024-.12.072-.23.142-.33.35-.504.975-.739 1.57-.591l.12.028.001.001c.315.081.595.264.798.518.32.415.818.654 1.343.645.862-.002 1.585-.648 1.684-1.502.1-.853-.455-1.647-1.293-1.848-.353-.088-.724-.057-1.059.086-.3.13-.634.157-.951.08l-.12-.029c-.59-.157-1.022-.66-1.088-1.263-.014-.122-.003-.247.032-.363.182-.605.363-1.202.563-1.778.09-.266.057-.558-.088-.798-.14-.24-.38-.404-.653-.449-2.786-.475-5.532-1.166-8.213-2.064-.263-.088-.55-.058-.787.08-.238.139-.406.374-.458.644C7.499 6.092 6.55 9.547 5.27 12.886c-.185.455-.7.68-1.16.503-.46-.176-.695-.685-.528-1.148 1.228-3.22 2.137-6.553 2.715-9.95.137-.794.613-1.488 1.305-1.902.692-.411 1.531-.502 2.295-.246 2.592.868 5.247 1.535 7.941 1.995.794.138 1.489.613 1.901 1.302.414.69.506 1.525.253 2.288-.102.309-.207.627-.305.945.547-.136 1.121-.134 1.669.004z" transform="translate(54 18)"/>
            <path fill="#FDCD2D" d="M23.732 3.558c3.228 1.236 6.57 2.153 9.977 2.735.794.136 1.488.612 1.902 1.305.411.692.502 1.53.246 2.294-.868 2.591-1.536 5.244-1.995 7.938-.138.793-.613 1.486-1.302 1.9-.69.413-1.526.505-2.289.251l-.945-.305c.137.55.137 1.126 0 1.677-.392 1.556-1.788 2.647-3.39 2.647-.525 0-1.045-.116-1.519-.34-1.211-.574-1.986-1.793-1.992-3.135-.007-.874.315-1.717.906-2.362-1.087-.207-2.123-.363-3.133-.505v.002c-.496-.065-.842-.52-.779-1.015.065-.494.52-.843 1.014-.778 1.307.167 2.673.4 4.064.686.119.024.23.072.33.142.503.35.738.975.59 1.57l-.027.119-.002.001c-.08.315-.263.596-.518.798-.414.32-.654.818-.645 1.342.003.862.648 1.585 1.503 1.684.853.1 1.647-.455 1.848-1.293.088-.353.056-.724-.086-1.058-.13-.3-.158-.634-.08-.951l.029-.12c.157-.589.659-1.021 1.263-1.088.122-.014.247-.002.363.033.605.181 1.202.363 1.778.563.266.089.558.056.798-.088.24-.14.404-.38.449-.654.475-2.784 1.166-5.53 2.065-8.209.087-.262.058-.548-.081-.786-.139-.239-.374-.406-.644-.458-3.522-.603-6.978-1.55-10.317-2.83-.454-.184-.68-.7-.502-1.16.175-.46.684-.694 1.147-.527l-.026-.025z" transform="translate(54 18)"/>
            <path fill="#17BD85" d="M18.643 32.057c2.813.476 5.586 1.168 8.294 2.068.263.088.554.059.794-.08.241-.14.41-.375.463-.645.608-3.53 1.566-6.993 2.86-10.337.082-.228.254-.414.477-.515.224-.102.477-.109.706-.022.23.086.414.26.511.483.098.223.1.475.009.7-1.249 3.234-2.175 6.582-2.763 9.995-.138.794-.619 1.49-1.319 1.904-.699.414-1.545.505-2.318.249-2.617-.87-5.297-1.54-8.02-2-.8-.138-1.501-.615-1.92-1.305-.416-.69-.509-1.529-.253-2.293.104-.309.21-.628.308-.947-.555.14-1.137.14-1.693 0-1.779-.39-2.97-2.051-2.754-3.842.215-1.792 1.768-3.129 3.59-3.093.883-.007 1.735.316 2.386.907.21-1.089.367-2.127.51-3.139h-.001c.091-.47.534-.787 1.012-.726.478.06.826.478.794.954-.168 1.31-.403 2.679-.692 4.072h.001c-.026.12-.074.231-.143.33-.354.505-.985.74-1.588.592l-.12-.029c-.32-.08-.603-.263-.806-.518-.325-.413-.826-.65-1.353-.64-.87.003-1.601.65-1.701 1.506-.102.855.46 1.65 1.306 1.851.356.088.731.057 1.07-.086.301-.13.639-.158.96-.08l.12.029c.596.157 1.032.66 1.1 1.266.014.122.002.247-.033.363-.184.607-.367 1.205-.569 1.782-.09.266-.057.559.089.8.147.243.4.408.686.446z" transform="translate(54 18)"/>
        </g>
    </g>
</svg>
