<?xml version="1.0" encoding="UTF-8"?>
<svg xmlns="http://www.w3.org/2000/svg" width="50" height="60" viewBox="0 0 50 60">
  <path fill="#518DE2" d="M26.857 0c1.672 0 3.34.176 4.958.518.57.122.933.68.811 1.25-.122.569-.685.934-1.25.81-1.475-.314-2.995-.473-4.52-.473-11.516 0-20.538 9.016-20.538 20.526l-.005.886c-.005.59-.012 1.196.005 1.714.005.166-.03.33-.101.48l-3.506 7.446h3.607c.495 0 .921.345 1.03.827.274 1.252.485 2.39.677 3.425 1.255 6.77 1.553 8.38 14.092 8.38.42 0 .798.25.967.634l4.99 11.472h16.16V34.737c0-.204.062-.404.174-.577 2.06-3.157 3.3-6.898 3.488-10.53.03-.58.527-1.027 1.107-.997.58.03 1.026.525.996 1.107-.202 3.895-1.497 7.898-3.657 11.306l-.002 23.902c0 .58-.471 1.052-1.053 1.052H27.382c-.418 0-.798-.248-.966-.633l-4.993-11.475C8.433 47.81 7.347 45.335 5.95 37.791c-.144-.78-.3-1.622-.486-2.527H1.05c-.358 0-.696-.185-.886-.492-.192-.305-.218-.687-.063-1.013l4.106-8.72c-.01-.481-.005-1.015 0-1.543l.005-.865C4.212 9.942 14.158 0 26.857 0zm15.798.527c.581 0 1.053.471 1.053 1.052v20c0 .133-.026.267-.075.391l-2.106 5.264c-.16.399-.547.661-.978.661-.43 0-.819-.263-.978-.66l-2.106-5.265c-.05-.124-.075-.258-.075-.391v-20c0-.58.471-1.052 1.053-1.052zM34.23 25.79c.581 0 1.053.471 1.053 1.052 0 .582-.472 1.053-1.053 1.053h-15.8c-.581 0-1.053-.471-1.053-1.053 0-.581.472-1.052 1.053-1.052zM41.6 8.42h-2.105v12.957l1.053 2.632 1.053-2.632V8.421zm-9.476 12.106c.582 0 1.053.471 1.053 1.053 0 .58-.471 1.052-1.053 1.052H18.431c-.581 0-1.053-.471-1.053-1.052 0-.582.472-1.053 1.053-1.053zm0-5.264c.581 0 1.053.471 1.053 1.053 0 .58-.472 1.052-1.053 1.052h-9.86c-.581 0-1.053-.471-1.053-1.052 0-.582.472-1.053 1.053-1.053zm9.48-12.63h-2.11l.003 3.684h2.106V2.632z"></path>
</svg>
