<?xml version="1.0" encoding="UTF-8"?>
<svg xmlns="http://www.w3.org/2000/svg" width="795" height="395" viewBox="0 0 795 395">
  <g fill="none" fill-rule="evenodd">
    <path fill="#FFF" fill-rule="nonzero" d="M516.942 390H4.626c-35-295.918 149.682-373.303 208.478-383.787 218.11-38.891 270.083 116.915 350.319 131.88 80.235 14.965 236.896 43.708 178.019 251.618l-224.5.289z"></path>
    <g fill-rule="nonzero">
      <path fill="#518DE2" d="M1.111 80.447c-1.175-1.953-1.431-4.324-.706-6.49 2.462-7.33 4.35-14.845 5.654-22.47.389-2.245 1.736-4.21 3.688-5.377 1.957-1.171 4.322-1.432 6.484-.714l2.678.862c-.389-1.556-.389-3.184 0-4.74 1.215-4.852 5.85-8.04 10.813-7.447 4.964.597 8.709 4.796 8.74 9.797.02 2.475-.893 4.86-2.565 6.685 3.079.586 6.014 1.027 8.876 1.428v-.004c1.404.184 2.386 1.472 2.206 2.871-.185 1.4-1.472 2.387-2.871 2.202-3.705-.473-7.574-1.13-11.515-1.94-.337-.07-.654-.205-.935-.402-1.427-.99-2.093-2.76-1.676-4.443l.08-.337.005-.004c.228-.89.745-1.685 1.467-2.258 1.175-.906 1.852-2.314 1.828-3.798-.008-2.438-1.836-4.483-4.258-4.764-2.417-.285-4.667 1.287-5.236 3.657-.249.999-.16 2.05.245 2.996.368.846.445 1.793.224 2.691l-.08.337c-.445 1.668-1.868 2.891-3.58 3.08-.345.04-.698.008-1.027-.092-1.716-.514-3.408-1.027-5.04-1.593-.754-.252-1.58-.16-2.261.25-.678.396-1.143 1.074-1.271 1.848-1.347 7.88-3.304 15.648-5.85 23.232-.248.742-.164 1.552.229 2.226.393.673 1.058 1.147 1.824 1.295 9.98 1.704 19.77 4.387 29.232 8.009.646.232 1.17.713 1.456 1.339.284.626.308 1.335.064 1.977-.245.642-.738 1.16-1.367 1.432-.634.272-1.344.284-1.981.024-9.126-3.473-18.568-6.044-28.195-7.68-2.245-.381-4.214-1.728-5.38-3.685h.001z" transform="translate(154 69)"></path>
      <path fill="#E64949" d="M60.51 18.92c4.837 1.227 8.01 5.846 7.42 10.793-.591 4.943-4.765 8.688-9.754 8.748-2.478.02-4.868-.894-6.696-2.566-.587 3.079-1.028 6.014-1.43 8.876h.004c-.165 1.27-1.25 2.225-2.53 2.229h-.33c-.683-.084-1.302-.437-1.72-.982-.417-.545-.598-1.235-.502-1.913.474-3.704 1.133-7.573 1.945-11.514.068-.337.205-.653.401-.934.993-1.427 2.764-2.093 4.451-1.676l.338.08.004.005c.891.228 1.687.745 2.261 1.467.908 1.174 2.318 1.852 3.804 1.828 2.442-.008 4.491-1.836 4.772-4.258.286-2.417-1.29-4.666-3.663-5.235-1-.249-2.053-.16-3 .244-.848.369-1.796.445-2.696.225l-.338-.08c-1.67-.446-2.896-1.869-3.085-3.58-.04-.345-.008-.698.093-1.027.514-1.716 1.028-3.408 1.594-5.04.253-.753.161-1.579-.249-2.26-.397-.678-1.076-1.143-1.851-1.271-7.894-1.347-15.675-3.304-23.27-5.85-.744-.248-1.555-.164-2.23.229s-1.15 1.058-1.298 1.824c-1.707 9.979-4.394 19.769-8.022 29.23-.522 1.286-1.984 1.924-3.286 1.423-1.305-.497-1.968-1.94-1.494-3.252 3.479-9.124 6.054-18.566 7.693-28.192.385-2.249 1.735-4.217 3.695-5.388C23.501-.063 25.88-.32 28.045.406c7.343 2.457 14.867 4.35 22.499 5.652 2.25.39 4.218 1.736 5.387 3.689 1.173 1.956 1.434 4.322.715 6.482-.29.874-.587 1.777-.864 2.679 1.55-.385 3.177-.381 4.728.012z" transform="translate(154 69)"></path>
      <path fill="#FDCD2D" d="M67.242 10.08c9.145 3.502 18.616 6.1 28.266 7.75 2.25.385 4.218 1.735 5.389 3.698 1.166 1.96 1.423 4.332.697 6.5-2.458 7.34-4.35 14.857-5.653 22.49-.389 2.248-1.736 4.212-3.689 5.384-1.956 1.169-4.322 1.43-6.483.71l-2.678-.862c.389 1.557.389 3.188 0 4.75-1.11 4.408-5.068 7.5-9.607 7.5-1.487 0-2.958-.33-4.302-.964-3.432-1.626-5.629-5.079-5.645-8.881-.02-2.478.894-4.867 2.566-6.694-3.079-.586-6.014-1.027-8.877-1.429v.004c-1.403-.185-2.385-1.473-2.205-2.875.185-1.401 1.472-2.389 2.871-2.204 3.705.474 7.574 1.132 11.515 1.943.337.068.654.205.934.402 1.428.991 2.093 2.762 1.676 4.449l-.08.337-.004.004c-.228.891-.746 1.686-1.467 2.26-1.175.908-1.853 2.317-1.829 3.803.009 2.441 1.837 4.489 4.258 4.77 2.418.285 4.667-1.29 5.237-3.662.248-1 .16-2.052-.245-3-.369-.847-.445-1.794-.224-2.694l.08-.337c.445-1.67 1.868-2.895 3.58-3.084.345-.04.698-.008 1.027.093 1.716.514 3.408 1.028 5.04 1.594.753.253 1.58.16 2.26-.25.678-.397 1.143-1.075 1.272-1.85 1.347-7.89 3.303-15.667 5.85-23.26.248-.743.164-1.554-.23-2.229-.392-.674-1.058-1.148-1.823-1.297-9.98-1.706-19.771-4.392-29.232-8.018-1.287-.522-1.925-1.983-1.424-3.284.498-1.305 1.94-1.968 3.252-1.494l-.073-.072z" transform="translate(154 69)"></path>
      <path fill="#17BD85" d="M52.821 90.828c7.971 1.35 15.829 3.31 23.5 5.86.747.25 1.57.165 2.252-.228.681-.394 1.16-1.06 1.31-1.828 1.724-10.002 4.438-19.812 8.1-29.287.236-.647.723-1.173 1.356-1.458.633-.29 1.35-.31 2-.065.649.245 1.172.74 1.448 1.37.276.63.284 1.346.024 1.985-3.537 9.162-6.162 18.646-7.83 28.319-.388 2.25-1.752 4.222-3.735 5.395-1.98 1.173-4.377 1.43-6.568.703-7.415-2.467-15.009-4.363-22.72-5.668-2.273-.39-4.256-1.74-5.44-3.696-1.181-1.956-1.445-4.33-.719-6.495.292-.876.593-1.78.872-2.684-1.574.394-3.22.394-4.799 0-5.038-1.104-8.413-5.812-7.8-10.886.608-5.077 5.01-8.865 10.17-8.764 2.503-.02 4.916.895 6.762 2.57.592-3.085 1.038-6.025 1.444-8.893h-.004c.26-1.33 1.513-2.23 2.868-2.057 1.355.169 2.34 1.354 2.251 2.704-.478 3.711-1.144 7.588-1.963 11.537h.004c-.073.337-.21.654-.406.935-1.002 1.43-2.79 2.097-4.498 1.676l-.341-.08c-.905-.23-1.708-.748-2.284-1.471-.92-1.169-2.34-1.84-3.833-1.812-2.467.008-4.536 1.84-4.82 4.266-.288 2.423 1.303 4.676 3.7 5.246 1.01.25 2.073.161 3.03-.245.856-.37 1.814-.445 2.722-.225l.341.08c1.688.447 2.925 1.873 3.116 3.588.04.345.008.699-.094 1.028-.519 1.72-1.038 3.415-1.61 5.05-.256.755-.163 1.582.251 2.265.418.691 1.132 1.157 1.943 1.266v-.001z" transform="translate(154 69)"></path>
    </g>
    <path fill="#75FFC0" fill-rule="nonzero" d="M617.91 208.877c61.305 0 177.074-17.69 177.074 55.538C794.984 337.64 797.606 390 736.3 390H437c231.584-67.05 119.606-181.123 180.91-181.123z"></path>
    <g>
      <path fill="#000" fill-rule="nonzero" d="M31.624 12.76c-.882-3.472-1.747-6.765-2.547-10.075-.365-1.508-.29-1.584.884-2.685.276.714.568 1.314.742 1.946.82 2.977 1.603 5.964 2.412 8.944.065.237.223.449.428.844 1.755-.689 3.469-1.39 5.204-2.035 3.237-1.202 6.546-2.122 10.007-2.478 4.65-.478 8.302 1.1 10.845 5.01 2.713 4.17 4.242 8.823 5.447 13.579 1.365 5.38 2.06 10.866 2.488 16.395.785 10.109.27 20.196-.315 30.29-.435 7.518-.762 15.045-.94 22.573-.313 13.322-.627 26.647-.639 39.971-.006 6.747.624 13.495 1.028 20.239.06.994.465 1.967.691 2.955.07.306.144.637.104.94-.562 4.29.233 8.485 1.048 12.642 1.696 8.65 3.57 17.266 5.363 25.896.471 2.267.915 4.539 1.38 6.807.074.356.199.702.589 1.082.113-.374.277-.742.332-1.125.768-5.292 1.629-10.554 3.714-15.547 1.603-3.84 3.698-7.363 6.351-10.586 1.806-2.196 3.98-3.071 6.726-2.097 2.808.997 5.683 1.886 8.346 3.189 3.04 1.486 3.682 3.9 1.913 6.75-1.286 2.068-2.87 3.973-4.446 5.848-4.197 5.004-8.624 9.827-12.646 14.963-2.902 3.702-5.319 7.777-7.896 11.722-.316.483-.452 1.207-.386 1.787 1.127 9.86 1.661 19.752 1.725 29.67.055 8.499-.236 16.986-1.036 25.452-.424 4.485-.675 8.988-1.227 13.455-.905 7.335-1.979 14.65-3.001 21.97-1.102 7.9-2.279 15.79-3.326 23.696-.692 5.23-1.269 10.475-1.78 15.726-.154 1.572.058 3.185.164 4.775.04.614.131 1.244-.576 1.453-.754.222-1.293-.247-1.457-.933-.194-.806-.318-1.65-.305-2.475.026-1.867.075-3.738.253-5.595 1.133-11.85 2.659-23.651 4.401-35.43 1.43-9.673 2.656-19.379 3.763-29.094 1.635-14.352 1.946-28.767 1.421-43.19-.482-13.267-2.005-26.417-4.852-39.41-1.888-8.612-3.721-17.24-5.355-25.901-.774-4.096-1.014-8.29-1.523-12.435-.076-.615-.18-1.287-.486-1.807-6.888-11.668-11.758-24.231-16.568-36.803-3.084-8.058-6.044-16.18-8.59-24.415-3.119-10.079-5.714-20.316-8.6-30.467-1.972-6.932-3.942-13.87-6.123-20.738-2.186-6.884-3.177-13.921-3.353-21.093-.034-1.4.243-2.814.459-4.209.114-.74.522-1.369-.279-2.089-.584-.525-.051-1.228.477-1.634 1.334-1.027 2.667-2.067 4.081-2.98 1.737-1.12 3.557-2.117 5.466-3.242" transform="translate(558 37)"></path>
      <path fill="#618133" d="M77.441 216.148c.459-.678.717-1.035.95-1.408 3.501-5.593 7.407-10.89 11.838-15.804 2.642-2.93 5.281-5.864 7.85-8.856 1.259-1.467 2.463-3.003 3.497-4.628 1.243-1.957.87-3.462-1.282-4.402-2.843-1.242-5.815-2.205-8.764-3.195-1.202-.402-2.336.018-3.202.931-.754.797-1.488 1.624-2.137 2.505-3.626 4.92-5.9 10.43-7.011 16.386-.73 3.918-1.31 7.87-1.787 11.826-.25 2.075-.7 4.196.048 6.645M32.19 14.988c-2.536 1.128-4.698 2.536-6.84 3.975-.203.135-.413.36-.474.583-.434 1.602-.813 3.216-1.243 4.819-.623 2.315-.01 4.613.076 6.916.132 3.61.563 7.193 1.582 10.67 1.503 5.127 3.172 10.206 4.618 15.349 2.074 7.372 4.028 14.779 6.002 22.179 3.752 14.066 8.295 27.879 13.49 41.488 3.721 9.752 7.536 19.461 12.102 28.864.136.28.358.52.625.9.084-.341.157-.47.135-.579-1.303-6.495-2.567-12.999-3.937-19.48-1.545-7.303-3.275-14.568-4.765-21.88-2.067-10.149-3.892-20.346-5.986-30.487-3.84-18.592-8.464-37.003-13.247-55.375-.678-2.601-1.397-5.19-2.138-7.942M63.159 143.166c.13-.03.259-.06.387-.092-.096-3.535-.317-7.072-.266-10.605.173-11.971.322-23.944.709-35.91.364-11.253 1.059-22.496 1.533-33.748.472-11.21.332-22.397-1.849-33.465-1.037-5.263-2.508-10.403-5.184-15.105-2.357-4.145-5.56-5.702-10.288-4.797-3.24.62-6.415 1.626-9.58 2.588-1.53.465-2.971 1.226-4.5 1.873.092.68.113 1.19.236 1.674 3.28 12.912 6.682 25.794 9.824 38.738 2.474 10.194 4.72 20.445 6.897 30.705 1.775 8.371 3.22 16.812 4.96 25.19 1.967 9.452 4.103 18.869 6.158 28.302.337 1.548.642 3.101.963 4.652" transform="translate(558 37)"></path>
      <path fill="#000" fill-rule="nonzero" d="M112.52 264.06c-2.153-1.891-3.455-4.166-3.045-7.019.205-1.435.723-2.89 1.393-4.186 1.747-3.38 3.616-6.697 5.524-9.99.597-1.03 1.472-1.902 2.253-2.887 2.278.868 4.373 1.664 6.427 2.445 1.403-1.242 1.497-3.328 3.27-4.152 1.066.928.16 1.634-.2 2.363-.394.8-.84 1.573-1.33 2.486.674.416 1.27.77 1.853 1.144.87.559 1.766 1.085 2.587 1.706 1.263.958 1.758 2.254 1.213 3.768-.434 1.204-.853 2.486-1.604 3.492-2.467 3.308-5.035 6.546-7.658 9.733-2.144 2.605-4.852 3.552-8.142 2.288-.167-.064-.38-.008-.67-.008-3.866 6.34-8.96 11.773-13.536 17.608-3.308 4.216-6.652 8.414-9.726 12.797-7.726 11.01-13.809 22.863-17.777 35.74-1.905 6.178-3.311 12.464-3.76 18.933-.043.605-.006 1.214-.006 1.822l.388.14c.386-.625.777-1.246 1.159-1.874 4.903-8.05 9.748-16.136 14.722-24.142 4.127-6.64 8.522-13.11 13.671-19.018 4.372-5.018 9.368-9.278 15.65-11.79 1.433-.572 2.926-1.052 4.436-1.37 2.664-.56 5.28-.295 7.83 1.053.549-.497 1.045-.992 1.59-1.427.564-.447 1.13-1.493 1.903-.775.843.784-.285 1.292-.714 1.844-.31.401-.684.755-1.106 1.215.472.432.93.778 1.299 1.202.969 1.116 1.98 2.21 2.825 3.417 1.042 1.493.953 3.036-.256 4.451-.88 1.03-1.717 2.107-2.68 3.057-11.875 11.735-24.457 22.665-37.731 32.799-6.781 5.176-13.623 10.274-20.437 15.409-.616.465-1.23.933-1.925 1.462-1.158-.703-2.353-.765-3.639-.272-.492.188-1.146.063-1.704-.043-7.173-1.364-14.325-2.853-21.519-4.104-7.13-1.24-14.295-2.296-21.458-3.34-5.372-.783-10.789-1.288-16.058-2.677-.811-.213-1.623-.439-2.409-.728-2.5-.922-3.49-2.32-3.42-4.993.027-1.02.22-2.053.467-3.048.231-.932.633-1.821.957-2.722-.037-.128-.035-.285-.112-.361-.426-.417-1.3-.62-.883-1.463.383-.778 1.068-.506 1.697-.29.177.062.38.048.472.058 1.604-1.32 3.1-2.646 4.694-3.842 3.195-2.397 6.585-2.782 10.42-1.376 8.644 3.168 17.064 6.82 24.995 11.468 7.47 4.376 14.744 9.089 22.103 13.654.642.399 1.276.811 1.978 1.26.729-4.304-7.045-52.803-11.177-70.008-.847-.074-1.738-.117-2.619-.233-2.083-.273-3.556-1.395-4.523-3.249-1.092-2.098-1.492-4.382-1.894-6.671-.568-3.237-1.121-6.478-1.719-9.711-.137-.745-.422-1.463-.708-2.425 1.904-.99 3.824-1.99 5.78-3.01-.82-1.915-1.508-3.808-1.391-5.814.944-.391 1.304.044 1.494.65.25.8.433 1.62.641 2.431.174.678.343 1.358.55 2.182 1.026-.34 1.92-.661 2.83-.93 2.945-.866 4.532-.184 5.374 2.708 1.299 4.453 2.448 8.956 2.89 13.598.208 2.176-.162 4.232-1.255 6.156-.874 1.537-1.826 2.979-3.765 3.741 4.4 20.16 7.746 40.477 10.459 60.904l.45-.01c.225-1.228.44-2.457.676-3.683 2.028-10.528 5.714-20.48 10.54-30.03 5.799-11.469 13.181-21.875 21.477-31.67 2.839-3.35 5.603-6.767 8.32-10.217 1.058-1.342 2.325-2.622 2.373-4.545.008-.324.528-.634.927-1.08" transform="translate(558 37)"></path>
      <path fill="#FDCD2D" fill-rule="nonzero" d="M46.336 263.446c.132.86.222 1.559.347 2.251.577 3.169 1.105 6.348 1.772 9.5.37 1.751.88 3.49 1.507 5.167.623 1.669 2.047 2.512 3.776 2.602 2.313.121 4.337-.485 5.583-2.707.838-1.497 1.38-3.008 1.294-4.768-.236-4.807-1.583-9.39-2.794-13.993-.496-1.89-1.3-2.27-3.192-1.707-2.853.848-5.547 2.085-8.293 3.655M119.112 241.922c-.366.523-.658.869-.871 1.257-2.018 3.675-4.034 7.35-6.016 11.044-.362.677-.642 1.418-.83 2.162-.65 2.585.533 5.257 2.869 6.616 2.863 1.665 4.949 1.537 7.147-.843 2.36-2.555 4.542-5.28 6.706-8.007.915-1.152 1.714-2.436 2.335-3.766.922-1.974.644-2.665-1.17-3.867-3.092-2.053-6.573-3.243-10.17-4.596" transform="translate(558 37)"></path>
      <path fill="#618133" d="M53.302 353.654l.118-.459L3.552 336.13c-1.376 2.04-1.887 3.862-1.862 5.86.017 1.392.54 2.36 1.925 2.769 1.238.364 2.456.86 3.722 1.06 5.996.953 12.013 1.777 18.008 2.736 6.951 1.11 13.894 2.277 20.826 3.494 2.397.42 4.755 1.064 7.131 1.605M61.076 353.498c-.726-.55-1.06-.852-1.436-1.08-6.398-3.89-12.718-7.92-19.229-11.614-7.645-4.338-15.649-7.955-24.01-10.733-4.134-1.374-9.133.597-11.431 4.468 1.43.845 53.478 18.506 56.106 18.959M127.609 297.45c-17.496 16.272-33.033 34.33-49.069 51.934.693-.365 1.327-.796 1.932-1.262 4.651-3.592 9.292-7.196 13.943-10.785 11.926-9.205 23.192-19.163 33.968-29.675 1.105-1.079 2.107-2.265 3.123-3.431.709-.816.798-1.707.227-2.673-1-1.694-2.249-3.117-4.124-4.107M71.278 353.432c.1.071.199.143.298.216.156-.108.332-.195.462-.328 3.691-3.796 7.522-7.47 11.04-11.42 13.578-15.24 27.349-30.294 42.044-44.483.26-.249.436-.585.778-1.054-.78-.24-1.369-.457-1.975-.6-2.02-.475-3.995-.124-5.922.466-6.311 1.933-11.35 5.82-15.768 10.539-5.272 5.631-9.606 11.989-13.705 18.484-4.786 7.582-9.371 15.292-14.044 22.945-1.066 1.746-2.138 3.49-3.208 5.235" transform="translate(558 37)"></path>
    </g>
    <g fill="#000" fill-rule="nonzero">
      <path d="M198.178 4.094c-1.514 2.638-2.825 5.368-3.447 8.367-.848 4.087-1.35 8.221-1.472 12.396-.11 3.739-.185 7.48-.28 11.219-.005.179-.064.357-.122.662l-9.589-.455c0-.42-.031-.785.006-1.142.536-5.202.111-10.413.138-15.62.003-.529-.24-1.109-.515-1.578-.768-1.305-1.62-2.56-2.424-3.843-.317-.505-.597-1.033-.796-1.625.96.463 1.565 1.28 2.22 2.04.586.68 1.135 1.398 1.76 2.042.169.176.55.148.834.212-.019-.294.081-.717-.075-.859-.707-.646-.53-1.375-.277-2.095.313-.891.615-1.803 1.072-2.622 1.263-2.27 2.592-4.503 3.927-6.732.28-.466.699-.848 1.053-1.269l.294.176c-.173.4-.304.823-.525 1.193-1.464 2.442-2.714 4.986-3.68 7.666-.15.418-.584.974-.005 1.249.71.337.856-.422.998-.865.745-2.316 1.932-4.417 3.132-6.505.73-1.268 1.536-2.498 2.399-3.678.322-.44.902-.69 1.366-1.028l.191.2c-.053.16-.066.353-.165.477-2.087 2.58-3.255 5.635-4.489 8.658-.035.087-.084.173-.102.264-.082.41-.273.922.283 1.068.176.046.586-.37.718-.654.796-1.715 1.527-3.46 2.309-5.183.695-1.531 1.746-2.807 2.945-3.968.406-.394.826-.78 1.6-.599-.11.247-.15.476-.283.61-1.676 1.677-2.622 3.808-3.67 5.873-.426.842-.806 1.711-1.15 2.591-.081.207.072.505.118.76.257-.132.64-.197.752-.407.928-1.757 1.812-3.538 2.698-5.316.535-1.074 1.273-1.978 2.234-2.783.51.49.206.777.019 1.103m-5.643 44.713c-.26 3.26-1.79 6.008-4.205 8.139-2.551 2.25-5.252 4.338-7.955 6.41-3.532 2.708-7.061 5.407-10.28 8.498-1.291 1.24-2.763 2.294-4.163 3.418-.435.35-1.04.615-.278 1.406l2.81-1.847c-.888 5.963-.897 11.776-2.422 17.394-1.514 5.575-3.452 11.004-5.567 16.269-.851-.144-1.612-.344-2.383-.393-9.868-.628-19.74-1.216-29.607-1.858-3.297-.215-6.586-.558-9.993-.852.036-1.67-.717-3.022-1.745-4.313-.961-1.206-.845-2.547.005-3.822l1.663-.076.093-.315c-.22-.198-.413-.44-.663-.585-.654-.38-1.34-.705-2-1.074-1.175-.654-1.78-1.624-1.75-3.012.02-.991-.04-1.99-.154-2.975-.23-1.993-1.098-3.725-2.436-5.187-.995-1.087-2.416-1.468-3.769-1.867-3.241-.955-6.591-1.233-9.946-1.475-2.735-.198-5.485-.32-8.195-.709-5.762-.828-11.038-3.07-15.853-6.255-3.626-2.399-7.018-5.151-10.51-7.752-.146-.11-.256-.27-.501-.532 2.34-3.706 5.098-7.118 7.682-10.722 2.656 1.158 5.128 2.347 7.68 3.32 2.87 1.093 5.797 2.047 8.73 2.961 3.55 1.107 7.166 1.182 10.806.44 6.487-1.324 12.975-2.642 19.465-3.951.926-.188 1.89-.523 2.79-.41.998.123 1.243 1.316 1.843 2.013 1.454 1.684 2.812 3.448 4.228 5.164 3.326 4.033 7.302 7.115 12.4 8.62 2.887.853 5.722 1.06 8.641.098 2.438-.804 4.324-2.226 5.853-4.268 2.877-3.84 4.36-8.143 4.553-12.916.01-.237.017-.474.04-.71.009-.09.057-.178.155-.466.933-.212 1.973-.47 3.022-.683 4.263-.864 8.585-1.48 12.72-2.89 1.385-.471 2.724-1.076 4.075-1.642 3.064-1.284 4.528-3.721 4.944-6.91.178-1.361.371-2.72.565-4.08.039-.271.113-.538.197-.931 3.3-.138 6.521.254 9.762.407.063.392.142.623.134.85-.146 3.358-.214 6.723-.481 10.071m-74.453 57.83c.487 0 .998-.03 1.504.005 13.143.935 26.286 1.876 39.58 2.828l-.524 2.242c-.487.076-.952.24-1.4.204-6.643-.536-13.289-1.048-19.923-1.674-4.705-.445-9.396-1.044-14.09-1.596-1.451-.17-2.89-.437-4.34-.609-.813-.095-1.06-.478-.807-1.4m53.68 50.65c2.267 5.668 4.434 11.377 6.564 17.1 1.322 3.554 2.2 7.236 2.778 10.992.565 3.684-.008 7.176-1.706 10.471-1.878 3.645-4.336 6.89-7.104 9.897-7.466 8.11-15.815 15.24-24.541 21.933-8.6 6.599-17.277 13.099-25.923 19.638-.296.225-.619.414-1.05.7-1.19-1.553-2.316-2.954-3.363-4.41-1.437-1.999-2.816-4.038-4.215-6.064-.711-1.03-.712-1.037.003-1.964 7.498-9.708 15.2-19.25 23.293-28.47 2.896-3.3 5.898-6.509 8.857-9.765.698.351.963 1.491 2.105.934-.126-.265-.18-.555-.354-.715-.61-.56-.716-1.08-.037-1.658.09-.077.094-.254.135-.371-.41-.915-1.118-.068-1.725-.35-.16-.24-.395-.535-.57-.862-3.712-6.897-8.17-13.307-12.73-19.655-1.546-2.152-3.006-4.367-4.437-6.598-.793-1.237-.72-1.463.486-2.31 2.71-1.904 5.422-3.808 8.182-5.637.978-.648 2.095-1.085 3.15-1.616.294-.15.612-.266.873-.46.113-.083.185-.348.139-.484-.049-.14-.258-.302-.406-.313-.222-.016-.47.056-.675.155-1.234.594-2.52 1.107-3.677 1.83-8.88 5.557-16.88 12.177-23.904 19.968-3.551 3.939-7.007 7.97-10.697 11.775-3.919 4.043-8.052 7.879-12.12 11.775-.643.617-1.436 1.077-2.157 1.613-.948.705-2 .774-3.111.531-2.246-.49-4.21-1.525-5.635-3.333-1.432-1.817-2.892-3.656-4.01-5.67-3.493-6.29-6.85-12.656-10.221-19.014-3.194-6.022-6.33-12.075-9.505-18.107-3.705-7.037-7.387-14.086-11.16-21.086-1.324-2.455-2.869-4.791-4.362-7.152-.474-.75-1.107-1.4-1.797-2.258l13.172-10.506c.357.264.764.501 1.094.818 1.907 1.837 3.793 3.695 5.692 5.54 2.377 2.307 4.732 4.638 7.146 6.905 4.356 4.089 8.633 8.268 12.137 13.117 2.239 3.098 4.206 6.409 6.086 9.742.77 1.363 1.07 3.018 1.44 4.574.493 2.068.837 4.172 1.27 6.255.071.337.272.648.391.923.697-.042.743-.445.717-.825-.101-1.46-.157-2.928-.376-4.372-.16-1.046-.013-1.915.576-2.806 3.494-5.296 6.976-10.6 10.414-15.932 3.701-5.737 6.807-11.807 9.862-17.904.975-1.946 1.984-3.877 3.024-5.789 1.211-2.228 2.785-4.165 4.791-5.741.892-.702 1.746-1.454 2.615-2.185.707-.596 1.422-.645 2.277-.011-.45.591-.907 1.126-1.292 1.709-.573.867-1.11 1.757-1.627 2.658-.16.279-.256.622-.271.942-.009.172.181.403.345.512.075.05.36-.094.45-.22.16-.228.207-.534.365-.763.99-1.438 1.993-2.867 3.002-4.29.301-.426.721-.549 1.245-.485 1.127.137 2.258.253 3.39.332 2.83.197 5.667.325 8.495.564 3.152.267 6.296.625 9.596.958v4.907c.838.247.994-.2 1.033-.705.059-.755.062-1.514.092-2.271.022-.556.05-1.113.083-1.82 1.204.074 2.278.133 3.35.208.33.022.656.095.986.124 2.867.253 2.305-.043 3.023 2.576.262.955.411 1.942.607 2.916.113.563.108.563.94 1.088.357-2.153-.715-4.007-.898-6.068h6.313c.096.452.207.989.325 1.523 3.203 14.583 7.193 28.928 12.747 42.812m-57.58 92.555l-6.588-4.584c.274-1.185.535-2.374.83-3.554.076-.307.185-.666.403-.87 1.024-.966 2.09-1.886 3.268-2.935 2.455 2.881 4.086 6.202 6.642 9.097l-4.555 2.846m-.838 3.77c-3.548 3.806-5.259 8.44-6.163 13.472-.6 3.344-.426 6.685-.253 10.04.08 1.548.162 3.111.043 4.652-.173 2.244-1.61 3.507-3.653 4.206-1.242-1.555-2.203-3.218-2.995-4.99-2.507-5.614-5.041-11.215-7.547-16.83-.48-1.077-.887-2.188-1.312-3.29-.587-1.524-.566-2.947.658-4.202.659-.676 1.27-1.4 1.885-2.116.165-.193.258-.445.527-.926-.761.035-1.302.006-1.822.094-1.257.215-2.505.482-3.755.734-.725.146-1.279.008-1.618-.747-.851-1.893-1.772-3.753-2.601-5.655-.313-.72-.086-1.072.78-1.342 1.218-.378 2.452-.714 3.691-1.014 3.44-.834 6.872-1.715 10.337-2.434 2.967-.616 5.063-2.418 6.95-4.605.38-.44.8-.844 1.315-1.192-.11 2.78-.306 5.487-1.572 8.085 3.008 1.992 6.134 3.703 8.548 6.533-.543.573-.996 1.047-1.443 1.527m-11.815 32.893c-.39-.669-.66-1.405-.982-2.113l.252-.17 1.452 2.17c-.174.357-.507.481-.722.113m-5.51-11.826c.982 1.034 1.011 1.11 1.062 2.348l-1.062-2.348m-.763-1.869c-.611-1.193-1.228-2.385-1.832-3.581-1.34-2.655-2.68-5.311-4.006-7.973-.474-.951-.438-1.019.47-1.62 1.854 4.358 3.708 8.72 5.562 13.084l-.194.09m-9.74-18.412c-.285-.49-.565-.984-.823-1.488-.558-1.094-1.11-2.193-1.646-3.298-.18-.37-.302-.768-.48-1.226l1.033-.428 2.842 6.483c-.332.301-.653.432-.927-.043m-49.522-136.04l5.184-5.774c1.11.394 2.23.743 3.304 1.197.445.188.906.53 1.164.93.738 1.142 1.376 2.35 2.158 3.712l-8.1 6.366c-1.372-1.393-3.34-4.856-3.71-6.43m-1.6-.096c-.22.171-.46.319-.809.558-.48-.575-.876-1.036-1.26-1.506-3.257-4-7.591-6.285-12.403-7.812-3.27-1.038-6.647-1.346-10.051-1.52-1.41-.071-2.827-.213-4.219-.451-2.328-.397-3.604-1.881-4.039-4.234 1.53-.945 3.137-1.693 4.85-2.217 6.279-1.925 12.552-3.87 18.844-5.753 1.258-.377 2.577-.57 3.88-.764.89-.131 1.653.206 2.266.907.89 1.02 1.82 2.006 2.764 3.041.626-.287.537-.833.5-1.333-.092-1.274-.19-2.547-.318-3.818-.097-.953.13-1.65 1.157-1.95 1.9-.558 3.789-1.154 5.675-1.753.734-.233 1.09.097 1.21.764.2 1.116.408 2.234.538 3.36.36 3.1.673 6.205 1.02 9.306.127 1.127.285 2.25.453 3.371.201 1.34.743 2.537 1.59 3.594.737.923 1.484 1.838 2.225 2.758.23.285.453.574.615.98-2.681-.477-5.315-1.022-7.76-2.575-.342.358-.684.664-.963 1.02-1.724 2.2-3.546 4.304-5.765 6.027M1.246 102.215c-.257-.31-.339-.625.16-.806.645-.232 1.314-.396 1.973-.589l.102.24-2.235 1.155m13.347-5.03c-1.432.866-2.967 1.408-4.57 1.734l-.09-.285 4.66-1.448m2.517-.498l-1.347.483c.322-.61.815-.616 1.347-.483m.366-.367c3.451-1.255 6.904-2.506 10.369-3.725.899-.317.917-.266 1.4.798-1.415.357-2.828.68-4.222 1.074-2.22.627-4.425 1.306-6.64 1.95-.389.113-.794.17-1.191.25.092-.127.164-.303.284-.347m17.626-6.787c1.946-.716 3.904-1.394 6.027-2.145l.355 1.158-6.735 2.001c-.326-.417-.18-.817.353-1.014m25.37-26.014c-1.572-1.56-3.132-3.134-4.7-4.698-.134-.133-.299-.232-.446-.35-5.322-4.322-9.99-9.257-13.937-14.87-.052-.075-.072-.173-.203-.5.4.267.666.391.862.585.774.767 1.52 1.56 2.288 2.332.233.233.478.479.765.624.162.081.5.045.613-.075.114-.12.117-.44.043-.62-.103-.254-.325-.458-.492-.687-1.143-1.568-2.292-3.132-3.42-4.711-.26-.363-.445-.78-.664-1.173l.25-.214c.382.363.787.705 1.142 1.093.99 1.083 1.961 2.183 2.933 3.282.325.367.647.774 1.175.355.501-.397.268-.845-.013-1.252-1.183-1.713-2.373-3.422-3.56-5.133-.452-.651-.892-1.308-1.031-2.475.663.775 1.132 1.284 1.556 1.829.96 1.233 1.895 2.485 2.843 3.726.172.226.346.452.539.66.288.313.605.716 1.073.398.525-.356.266-.75.013-1.212-.95-1.74-1.858-3.504-2.728-5.286-.28-.574-.395-1.229-.381-1.99.198.13.456.22.589.4 1.8 2.44 3.707 4.786 5.857 6.935.557.557.894 1.33 1.355 1.988.186.265.41.518.665.709.097.072.384.013.493-.087.11-.1.18-.347.138-.492-.078-.266-.267-.497-.38-.756-.966-2.206-1.927-4.415-2.877-6.628-.044-.103.026-.257.071-.613.332.427.588.683.759.986 1.25 2.227 2.472 4.471 3.73 6.695.628 1.11 1.29 2.203 1.98 3.276 1.31 2.036 3.405 3.093 5.397 4.275 2.231 1.324 4.467 2.644 6.914 4.093l-7.86 10.817c-.468-.427-.926-.814-1.35-1.236M198.986 2.044c-.15-.178-.309-.355-.425-.555C197.9.335 197.447.141 196.167.387c-.331.064-.78.096-1.024-.074-.846-.593-1.517-.251-2.195.256-.375.28-.735.816-1.107.822-1.542.02-2.395 1.014-3.211 2.063-2.31 2.966-4.28 6.128-5.44 9.743-.061.191-.228.35-.407.616-.443-.48-.768-.887-1.147-1.233-.592-.539-1.178-1.102-1.844-1.536-.76-.494-1.57-.484-1.83-.075-.374.585.014 1.084.278 1.578.112.208.25.402.376.603 1.105 1.766 2.195 3.542 3.325 5.291.379.587.512 1.182.505 1.873-.024 1.989-.045 3.982.031 5.97.204 5.23-.413 10.393-1.072 15.568-.441 3.468-2.126 5.723-5.35 7.015-3.178 1.273-6.444 2.21-9.792 2.846-5.113.97-10.225 1.93-15.225 3.408-1.535.453-3.108.777-4.65 1.208-.235.064-.399.381-.7.69.976.359 1.73.369 2.534.126 2.218-.67 4.447-1.304 6.678-1.928.424-.118.88-.127 1.27-.179.101.25.157.333.167.422.02.187.032.377.024.565-.198 5.137-2.129 9.575-5.532 13.362-.737.819-1.736 1.49-2.74 1.96-2.795 1.308-5.691 1.5-8.714.677-5.081-1.384-9.14-4.243-12.46-8.249-1.6-1.932-3.166-3.894-4.738-5.851-.226-.282-.394-.61-.645-1.002 1.25-.426 2.408-.467 3.573-.313.841.112 1.671.312 2.51.44.775.119.972-.285.899-.886-3.383-1.054-6.665-.619-9.922.019-6.498 1.27-12.99 2.57-19.467 3.938-4.145.876-8.23 1.06-12.341-.207-5.615-1.73-11.131-3.654-16.15-6.805-2.202-1.382-4.514-2.583-6.733-3.938-3.129-1.908-5.648-4.43-7.4-7.68-.763-1.417-1.485-2.857-2.297-4.245-.788-1.346-1.636-2.66-2.519-3.947-.585-.853-1.46-1.172-2.05-.886-.54.262-.744.988-.537 2.037.14.706.322 1.403.486 2.105-.69-.476-1.142-1.068-1.605-1.65-.704-.89-1.39-1.795-2.135-2.65-.387-.442-.936-.704-1.535-.46-.683.28-.577.945-.51 1.483.096.782.318 1.549.548 2.599-.477-.508-.758-.818-1.05-1.116-.33-.338-.623-.76-1.024-.968-.373-.195-.922-.306-1.286-.168-.21.08-.325.744-.268 1.112.085.55.346 1.075.555 1.603.179.448.39.885.676 1.53-.419-.16-.559-.19-.67-.261-.448-.287-.905-.613-1.415-.175-.5.43-.265.952-.078 1.44.195.511.412 1.014.638 1.565-1.64-.131-2.01.38-1.344 1.77.305.636.669 1.26 1.093 1.822 1.824 2.42 3.639 4.85 5.542 7.205.918 1.135 1.98 2.165 3.057 3.155 2.685 2.465 5.404 4.894 8.133 7.31 2.184 1.934 4.126 4.127 6.506 5.849 2.838 2.053 5.547 4.29 8.443 6.254 6.83 4.633 14.29 7.504 22.648 7.754 2.456.074 4.917.277 7.355.58 1.917.239 3.827.632 5.698 1.119 2.531.657 4.111 2.421 4.994 4.83.482 1.318.552 2.703.304 4.068-.194 1.077.049 1.957.745 2.757.554.637 1.102 1.279 1.678 1.946l-.432 1.624c-.29 1.081-.149 2.128.606 2.936 1.249 1.338 1.394 2.95 1.361 4.629-.02.983-.102 1.964-.162 3.061-.816.69-1.701 1.473-2.621 2.213-1.827 1.468-3.417 3.148-4.564 5.201-1.177 2.108-2.298 4.246-3.428 6.38-2.393 4.517-4.56 9.172-7.21 13.532-4.254 6.998-8.822 13.803-13.262 20.686-.12.186-.299.334-.555.613-.355-1.12-.626-2.12-.985-3.085-1.588-4.269-4.071-8.025-6.918-11.52-3.08-3.781-6.335-7.418-9.505-11.125-1.424-1.665-2.974-3.201-4.878-4.297-1.674-.964-3.044-2.265-4.282-3.693-2.086-2.406-4.373-4.592-6.804-6.64-1.237-1.041-1.227-1.05-2.617-.103-.061.042-.178.005-.408.005l-1.688-2.636c1.575-.144 2.83 1.12 4.334.338-.114-.249-.155-.443-.27-.574-1.061-1.203-2.179-2.36-3.194-3.602-1.165-1.426-2.343-2.88-2.579-4.804-.413-3.38-.823-6.76-1.174-10.147-.291-2.812-.395-5.638-1.756-8.236-.545-1.041-.68-1.302-1.805-.939-2.115.683-4.21 1.427-6.294 2.202-.27.1-.591.527-.597.809-.032 1.648.025 3.297.048 4.945.006.443 0 .888 0 1.331l-.36.144c-1.152-1.292-2.35-2.545-3.432-3.89-.491-.61-.985-.828-1.699-.642-.273.071-.539.177-.805.273-3.112 1.115-6.2 2.302-9.341 3.33C12.433 97 6.834 98.729 1.247 100.492c-1.207.382-1.455.682-1.096 1.833.379 1.214.84 2.419 1.417 3.55.304.597.875 1.106 1.426 1.519 1.59 1.19 3.477 1.375 5.385 1.437 4.363.142 8.644.64 12.814 2.115 4.844 1.713 8.787 4.516 11.738 8.722.148.21.345.386.524.584l1.193-.788 3.396 6.627-1.81 1.624c-.003 1.031.269 1.833 1.049 2.435.253.196.446.491.618.772 1.602 2.626 3.318 5.193 4.767 7.902 5.646 10.563 11.209 21.171 16.797 31.765 4.064 7.706 8.099 15.427 12.187 23.12 1.624 3.056 3.408 6.017 5.736 8.612 1.326 1.477 2.918 2.514 4.784 3.203 2.45.903 4.641.6 6.599-1.157 1.97-1.77 3.967-3.515 5.896-5.33 5.694-5.362 10.97-11.12 16.133-16.991 4.413-5.017 9.073-9.801 14.388-13.893.287-.22.6-.406.94-.634.17.216.29.353.393.503 2.216 3.244 4.414 6.5 6.648 9.732 3.931 5.689 7.86 11.377 11.108 17.5.172.323.296.672.463 1.056-.555.65-1.068 1.265-1.598 1.867-5.567 6.326-11.253 12.552-16.673 19.004-4.84 5.762-9.39 11.77-14.06 17.676-.483.61-1.2 1.12-.977 2.084.03.134-.132.36-.264.475-.699.609-1.416 1.195-2.31 1.941-.171-1.628.737-3.066-.18-4.612-1.053 1.19-1.97 2.247-2.91 3.283-1.494 1.647-2.946 3.389-5.217 3.984-3.702.968-7.408 1.94-11.144 2.762-2.455.539-4.855 1.089-6.952 2.581-.907.647-1.089.832-.615 1.837.946 2.01 1.938 4.003 2.96 5.977.142.275.58.603.844.574 1.58-.17 3.15-.436 4.724-.673.572-.087 1.143-.357 1.96-.004-1.253 1.418-2.37 2.74-3.55 4.003-.731.783-.824.966-.4 2.004.143.35.32.687.486 1.027 2.017 4.118 4.072 8.218 6.042 12.359 1.95 4.099 3.815 8.238 5.713 12.362.444.965.753 1.163 1.768.764.918-.36 1.769-.892 2.655-1.336 1.714-.859 2.62-2.311 2.845-4.147.148-1.21.15-2.454.064-3.673-.308-4.35-.492-8.67.53-12.983.967-4.083 2.514-7.826 5.398-10.932.76-.819 1.55-1.612 2.384-2.475l-.987-1.058c1.17-.864 2.262-1.677 3.361-2.479.799-.583 1.085-.573 1.86.056.247.2.47.43.699.642.578-.451 1.091-.865 1.617-1.264 9.054-6.863 18.15-13.674 27.152-20.604 6.946-5.346 13.579-11.065 19.75-17.308 3.74-3.785 7.251-7.742 9.94-12.369 2.19-3.768 3.124-7.78 2.487-12.135-.515-3.525-1.269-6.999-2.491-10.337-2.115-5.777-4.275-11.54-6.568-17.25-5.485-13.656-9.508-27.748-12.764-42.078-.39-1.716-.53-3.276.332-5.038 1.37-2.794 2.353-5.785 3.383-8.734 1.608-4.602 3.203-9.212 4-14.05.62-3.767.72-7.596 1.519-11.353.443-2.083.752-4.079 2.645-5.387.27-.186.473-.467.733-.671 2.966-2.352 5.959-4.672 8.902-7.052 2.648-2.14 5.348-4.235 7.834-6.554 2.47-2.303 3.84-5.28 4.022-8.689.205-3.829.381-7.664.402-11.496.039-6.872.119-13.737 1.067-20.557.519-3.732 1.403-7.347 3.455-10.58.253-.398.47-.824.658-1.257.367-.844.338-1.656-.284-2.392" transform="matrix(-1 0 0 1 513.68 101)"></path>
      <path d="M97.759 251.94c.21.093.458.298.568.239.672-.355 1.42-.643 1.873-1.55-1.175-.075-1.43.07-2.441 1.31M101.55 249.78c1.172.078 1.567-.204 1.591-1.288-.626.298-1.46.324-1.59 1.288M104.63 247.447c.956.483 1.003.464 1.792-.754-1.023-.469-1.285.328-1.792.754M94.688 253.257l.06.46c.266.032.626.188.78.072.39-.298 1.02-.552.637-1.484l-1.477.952M83.08 165.503l-1.08.486c.242.538.476 1.077.7 1.616l1.093-.455c-.228-.549-.466-1.098-.713-1.647M81.522 162.273l-1.053.541c.27.526.532 1.052.786 1.578l1.066-.514c-.258-.536-.524-1.071-.799-1.605M79.817 159.123l-1.029.587c.293.513.578 1.028.858 1.543l1.04-.564c-.283-.523-.573-1.045-.869-1.566M77.988 156.047l-1.006.625c.312.501.617 1.006.918 1.51l1.017-.606c-.304-.51-.614-1.02-.929-1.53M83.35 169.24c.21.552.407 1.103.596 1.653l1.12-.382c-.192-.563-.395-1.127-.61-1.691l-1.106.42zM76.058 153.044l-.986.655c.326.492.65.986.968 1.48l.995-.641c-.322-.5-.647-.997-.977-1.494M73.063 150.779c.342.482.68.967 1.017 1.455l.974-.672c-.338-.492-.68-.981-1.024-1.468l-.967.685zM66.603 142.343c.373.454.745.913 1.118 1.376l.922-.743c-.375-.467-.75-.929-1.125-1.385l-.915.752zM64.327 139.625c.38.445.763.897 1.145 1.353l.908-.761c-.386-.46-.77-.914-1.154-1.363l-.9.77zM61.998 136.95c.388.438.778.881 1.171 1.332l.892-.778c-.395-.453-.787-.9-1.177-1.34l-.886.786zM68.823 145.106c.364.462.726.929 1.086 1.398l.94-.72c-.364-.474-.73-.945-1.095-1.41l-.93.732zM70.979 147.917c.353.471.703.946 1.052 1.424l.956-.697c-.35-.483-.705-.962-1.06-1.438l-.948.71zM104.654 132.69l1.015.608c.307-.513.612-1.02.915-1.523l-1.013-.613c-.304.504-.61 1.013-.917 1.527M102.837 135.753l1.02.6c.302-.513.603-1.023.904-1.528l-1.02-.606-.904 1.534M106.496 129.638l1.01.62c.312-.512.623-1.018.93-1.513l-1.005-.625c-.309.498-.62 1.004-.935 1.518M110.321 123.608l.984.658c.34-.507.671-.995.995-1.463l-.972-.676c-.328.474-.664.968-1.007 1.481M114.628 117.837l.877.795c.446-.493.852-.888 1.207-1.175l-.743-.922c-.403.326-.854.763-1.341 1.302M101.039 138.823L102.063 139.42 102.957 137.888 101.936 137.289zM108.379 126.608l1 .634c.322-.51.64-1.01.955-1.494l-.993-.644c-.316.488-.637.99-.962 1.504M112.368 120.666l.955.7c.367-.503.721-.97 1.062-1.401l-.928-.736c-.35.442-.713.922-1.09 1.437M92.059 154.176l1.014.61c.3-.499.605-1.01.915-1.529l-1.018-.606c-.308.518-.612 1.027-.911 1.525M90.207 157.205l1.004.627c.307-.491.619-1 .937-1.52l-1.01-.618c-.317.519-.627 1.023-.931 1.511M88.299 160.188l.986.654c.314-.474.64-.975.975-1.5l-.998-.638c-.332.519-.653 1.014-.963 1.484M93.876 151.122L94.896 151.724 95.798 150.189 94.776 149.59zM97.463 144.981L98.487 145.576 99.379 144.037 98.356 143.442zM99.248 141.903L100.272 142.498 101.167 140.957 100.144 140.361zM95.675 148.055L96.697 148.652 97.592 147.114 96.569 146.518z" transform="matrix(-1 0 0 1 513.68 101)"></path>
      <g>
        <path d="M34.004 15.49c-1.403.634-2.141.69-2.884.931-6.491 2.118-15.512-2.546-17.104 5.398.195-1.763 1.055-3.806 4.508-5.342 1.566-.696 3.855-.587 6.278-.47 3.092.148 6.289.3 8.62-1.11.915-.552 1.634-1.342 2.206-2.199-.035.205-.05.424-.042.659.004.103.017.202.03.303-.3.788-.903 1.508-1.612 1.83M11.208 33.77C2.268 36.633.032 43.4 2.497 49.128c-.439-.52-.9-1.209-1.384-2.067-3.85-6.836 4.81-12.225 9.463-15.12l.735-.458c1.978-1.243 2.731-2.642 2.956-4.02.308 2.351.15 5.279-3.06 6.307m25.215-22.427c-.014.01-.027.018-.039.029.019-.041.04-.081.058-.122l-.02.093m19.85 6.144c-1.228-1.823-1.386-3.816-1.283-5.99l.003-.04c.037-.324.071-.646.1-.97.28-2 .925-4.495-.118-6.723-.637-1.13-1.568-1.976-2.748-2.576-1.772-.902-5.742-2.015-9.397-.262-1.066.468-1.983 1.104-2.721 1.934-1.054 1.185-1.916 2.912-2.567 4.656l-.074-.01c0 .008-.027.174-.083.44-.306.866-.559 1.724-.757 2.513-.16.401-.348.816-.566 1.23-.124.157-.225.338-.302.54-.596.988-1.382 1.918-2.412 2.542-2.294 1.386-5.467 1.235-8.537 1.087-2.442-.117-4.747-.227-6.345.483-4.008 1.783-4.588 4.244-4.645 6.19-.005.177.005.364.02.556-.04.431-.068.881-.072 1.374-.002.43.236 1.336.415 2.428-.105 1.518-.762 3.093-2.95 4.468l-.734.459C5.802 34.736-2.936 40.174.985 47.134c.598 1.064 1.169 1.868 1.71 2.423 3.2 6.72 12.927 11.803 25.857 7.011 9.147-3.802 14.082-14.504 13.082-22.925-.695-5.855-2.425-7.558-2.974-9.956.296-1.99.549-3.987.727-5.996.13-1.46.114-1.504-1.288-2.23-1.08-.56-1.706-1.761-1.321-2.679.13-.313.452-.7.739-.75.254-.044.61.3.867.532.167.149.939.963 1.234 1.137.136-.272.35-.532.395-.819l.03-.204c.129-.365.256-.757.328-1.014.43-1.545.794-3.118 1.36-4.613.54-1.424 1.63-1.187 3.209-1.316 1.406-.116 4.533-.486 5.473-1.89.549 1.366 1.239 1.74 1.805 2.029 1.806.922 1.748 3.344 1.603 4.4-.573 4.169-1.262 8.32-3.434 12.038-.051.086-.092.173-.128.26-.57.338-1.275.332-2.288.02-1.317-.406-2.572-.944-3.635-1.86-.305-.262-.687-.702-1.07-.196-.348.462.098.799.43 1.042.567.419 1.148.838 1.775 1.156 1.489.754 3.039 1.304 4.722 1.077.032.13.072.261.126.396.55 1.407 1.013 2.85 1.524 4.273.029.08.066.16.098.238.265.933.531 1.865.807 2.795.16.54.122 1.252 1.244 1.534-.085-.649-.094-1.105-.21-1.531-.213-.774-.432-1.546-.65-2.318 1.778-1.15 3.073-2.59 3.794-4.653.347-.994 1.635-4.65-.656-7.058" transform="matrix(-1 0 0 1 513.68 101) translate(92.348 24.88)"></path>
      </g>
      <g>
        <path d="M5.79 3.237L6.695 6.818 5.375 6.95z" transform="matrix(-1 0 0 1 513.68 101) translate(136.746 31.395)"></path>
        <g>
          <path d="M5.793 2.88l-.41 3.67 1.304-.13-.894-3.54zm-.418 3.683s-.003 0-.004-.002l-.002-.005.415-3.713c0-.002.003-.005.006-.005s.006.002.006.004l.905 3.581v.005l-.006.003-1.318.132h-.002zM4.36.376s.19 1.081-.024 1.34c-.94-.142-3.021.117-4.33 1.317C.287 1.448 4.36.376 4.36.376" transform="matrix(-1 0 0 1 513.68 101) translate(136.746 31.395) translate(0 .394)"></path>
          <path d="M4.355.384c-.09.023-1.068.29-2.065.731-.611.27-1.11.553-1.482.839-.456.35-.723.708-.792 1.062.732-.665 1.65-.992 2.292-1.15.56-.138 1.387-.252 2.026-.157.196-.248.036-1.234.02-1.325M.007 3.04l-.003-.001C.001 3.037 0 3.036 0 3.033c.064-.364.333-.73.8-1.09.373-.286.873-.568 1.485-.84C3.327.644 4.348.373 4.358.37h.005c.002.001.003.002.003.004.008.045.188 1.088-.024 1.345l-.006.003c-.638-.096-1.464.018-2.025.156-.645.158-1.568.489-2.3 1.16l-.005.002M6.789.205s-.167 1.085.052 1.34c1.023-.009 2.626.429 3.717 1.051C10.216 1.506 6.79.205 6.79.205" transform="matrix(-1 0 0 1 513.68 101) translate(136.746 31.395) translate(0 .394)"></path>
          <path d="M6.869 1.538c1.05 0 2.621.446 3.678 1.045-.19-.557-1.192-1.17-2.005-1.586C7.697.563 6.88.247 6.794.214c-.014.097-.152 1.083.05 1.324h.025m3.689 1.065h-.003C9.5 2 7.922 1.55 6.87 1.55H6.84l-.004-.001c-.092-.107-.129-.366-.11-.77.015-.3.056-.572.057-.575 0-.002.001-.003.003-.004.002-.002.004-.002.005-.001.01.003.868.331 1.757.787.822.421 1.839 1.043 2.016 1.608.001.003 0 .006-.002.008h-.004M3.423 6.123c.65.966 1.177 1.503 2.057 1.595.88.093 1.495-.414 1.495-.414s-.704 1.881-1.554 2.23c-1.76.724-1.676-1.448-1.998-3.411M.886 4.583l-.189-.165c.03-.035.755-.848 1.992-.91 1.527-.077 2.2.632 2.227.662l-.184.17c-.006-.006-.63-.653-2.03-.582-1.127.058-1.81.818-1.816.825M10.168 4.333c-.006-.008-.61-.752-1.619-.794-.66-.028-1.123.138-1.396.282-.295.155-.438.32-.44.321l-.19-.162c.025-.03.648-.75 2.036-.693 1.128.048 1.779.856 1.806.89l-.197.156z" transform="matrix(-1 0 0 1 513.68 101) translate(136.746 31.395) translate(0 .394)"></path>
        </g>
      </g>
    </g>
  </g>
</svg>
