<?xml version="1.0" encoding="UTF-8"?>
<svg xmlns="http://www.w3.org/2000/svg" width="57" height="59" viewBox="0 0 57 59">
  <path fill="#17BD85" d="M14.13 15.153c.978-.831 2.262-1.212 3.533-1.043 2.22.336 3.881 2.217 3.94 4.467l.27 9.223c.78-.275 1.615-.338 2.428-.186 1.466.299 2.698 1.292 3.305 2.664 2.22-.677 4.597.406 5.55 2.531.485-.143.989-.211 1.495-.2 2.538.149 4.525 2.26 4.52 4.81V47.64c0 4.004-2.279 6.937-3.64 8.332-.25.256-.445.564-.564.902h.002l-.372 1.052c-.12.395-.391.723-.757.911-.365.186-.791.214-1.18.078-.387-.136-.7-.425-.869-.801-.166-.376-.176-.803-.019-1.184h-.002l.372-1.052c.265-.751.691-1.435 1.249-2.003.839-.86 2.787-3.186 2.787-6.251v-10.22c.024-.936-.684-1.727-1.611-1.804-.506-.008-.989.213-1.314.6-.41.475-1.07.644-1.658.423-.586-.218-.975-.782-.975-1.409v-.483c-.037-.807-.621-1.495-1.426-1.651-.571-.087-1.148.129-1.522.57-.41.475-1.073.644-1.659.425-.587-.22-.976-.782-.974-1.411v-.343c.024-.827-.536-1.555-1.337-1.75-.79-.15-1.574.28-1.872 1.029-.257.667-.948 1.06-1.65.94-.703-.123-1.223-.724-1.244-1.438l-.33-12.452c-.02-.758-.563-1.404-1.307-1.545-.434-.061-.872.063-1.207.348-.332.281-.531.692-.545 1.132l-.677 23.71c-.017.486-.267.934-.672 1.202-1.715 1.137-3.806.139-5.006-1.442-.035-.047-.067-.098-.096-.15l-1.798-3.053c-.853-1.442-2.48-2.234-4.139-2.008-.068.007-.129.05-.159.11-.033.061-.033.134-.002.195l6.668 12.903c.332.634.833 1.162 1.445 1.533l3.19 1.334c1.407.487 2.513 1.595 2.997 3.006l.378 1.006c.257.782-.16 1.625-.937 1.892-.778.268-1.626-.143-1.9-.92l-.346-1.01c-.188-.54-.616-.963-1.157-1.141l-.115-.043-3.333-1.388-.173-.084c-1.146-.658-2.08-1.628-2.694-2.797L.365 38.537c-.483-.925-.487-2.031-.01-2.961.478-.93 1.375-1.571 2.408-1.715 2.848-.37 5.642.99 7.113 3.462l-.002.002 1.733 2.976c.089.108.185.209.288.3l.637-22.12c.04-1.285.62-2.494 1.597-3.328zM33.533.001l.137.011c5.921.721 11.899.86 17.845.416 1.389-.113 2.754.397 3.736 1.388.978.99 1.477 2.365 1.36 3.757-.457 5.963-.33 11.954.377 17.894.056.457-.103.913-.429 1.24-.325.326-.782.486-1.239.43-1.787-.217-3.656-.379-5.58-.487.49.88.749 1.872.749 2.88 0 1.594-.633 3.123-1.757 4.25-1.124 1.127-2.649 1.762-4.24 1.762-.493 0-.988-.06-1.468-.174-1.796-.458-3.281-1.726-4.019-3.431-.74-1.705-.65-3.657.241-5.287-1.918.108-3.782.27-5.58.486-.83.099-1.58-.495-1.678-1.324-.098-.832.494-1.583 1.324-1.682 2.26-.27 4.651-.462 7.103-.57.204-.007.41.023.6.096.963.366 1.602 1.285 1.614 2.315v.217c-.003.551-.185 1.087-.523 1.526-.55.728-.735 1.672-.503 2.555.248 1.062 1.068 1.898 2.122 2.166.913.241 1.885.037 2.628-.548.723-.573 1.145-1.446 1.145-2.37.005-.65-.206-1.284-.6-1.803-.337-.44-.52-.975-.522-1.526v-.216c.005-1.04.649-1.969 1.618-2.335.193-.07.396-.103.6-.096 1.787.08 3.539.2 5.235.369-.546-5.521-.61-11.078-.185-16.607.025-.516-.169-1.019-.537-1.383-.37-.362-.873-.547-1.389-.512-6.14.472-12.31.343-18.425-.39-.826-.105-1.414-.862-1.309-1.693.103-.829.86-1.418 1.686-1.313zm-6.043.011c.46-.054.916.108 1.241.44.335.321.504.782.455 1.244-.216 1.792-.377 3.666-.485 5.597.878-.493 1.867-.752 2.871-.752 1.841 0 3.581.846 4.72 2.297 1.143 1.475 1.54 3.398 1.08 5.207-.46 1.8-1.722 3.29-3.422 4.03-1.7.742-3.647.652-5.272-.242.042.74.089 1.472.15 2.2.065.83-.553 1.557-1.38 1.623-.827.066-1.553-.552-1.618-1.383-.096-1.203-.17-2.405-.223-3.607-.01-.205.023-.41.096-.602.363-.972 1.29-1.618 2.326-1.622h.215c.565 0 1.11.187 1.555.535.726.552 1.666.74 2.549.505 1.051-.26 1.873-1.085 2.133-2.14.242-.906.047-1.871-.522-2.611-.571-.742-1.452-1.174-2.387-1.172-.648-.002-1.28.209-1.798.601-.436.336-.972.522-1.523.524h-.215c-1.038-.005-1.963-.65-2.326-1.623-.073-.192-.105-.397-.096-.601.077-1.792.197-3.553.365-5.249-5.506.55-11.05.61-16.565.186-.513-.031-1.014.162-1.377.526-.364.364-.556.866-.525 1.38.475 6.154.349 12.34-.377 18.47-.092.753-.731 1.321-1.487 1.321h-.18c-.397-.047-.757-.249-1.003-.56-.246-.316-.359-.715-.312-1.11.703-5.939.822-11.93.36-17.893-.097-1.392.41-2.76 1.394-3.746C6.895.8 8.258.29 9.646.39 15.593.848 21.57.722 27.491.012z"></path>
</svg>
