<?xml version="1.0" encoding="UTF-8"?>
<svg xmlns="http://www.w3.org/2000/svg" width="59" height="59" viewBox="0 0 59 59">
  <path fill="#E64949" d="M17.223 17.223c4.256-4.254 10.422-5.986 16.27-4.565 5.848 1.419 10.535 5.78 12.366 11.513 1.833 5.733.546 12.007-3.397 16.553l3.22 3.22.591-.592c.48-.48 1.258-.48 1.737 0l9.986 9.987c.635.615.997 1.458 1.004 2.34.007.884-.341 1.732-.965 2.356-.624.624-1.472.972-2.356.965-.882-.007-1.725-.369-2.34-1.004l-9.987-9.987c-.479-.479-.479-1.257 0-1.736l-.002-.002.592-.592-3.218-3.218c-4.546 3.943-10.82 5.23-16.553 3.397-5.732-1.831-10.094-6.518-11.513-12.365-1.42-5.848.311-12.014 4.565-16.27zm29.918 28.734l-1.183 1.184 9.118 9.118c.327.325.857.325 1.184 0 .325-.327.325-.855 0-1.182l-9.119-9.12zM29.481 14.74c-3.909 0-7.658 1.552-10.422 4.318-2.766 2.764-4.319 6.514-4.319 10.422.005 3.909 1.56 7.656 4.324 10.417 2.761 2.764 6.508 4.319 10.417 4.323 3.908 0 7.658-1.552 10.422-4.318 2.766-2.764 4.318-6.513 4.318-10.422 0-3.908-1.552-7.658-4.318-10.422-2.764-2.766-6.514-4.318-10.422-4.318zM25.796 0c.324 0 .638.129.868.36l2.817 2.816L32.297.359c.23-.23.544-.359.869-.359h17.198c1.554.007 2.939.99 3.459 2.457h1.454c2.036 0 3.685 1.65 3.685 3.686v31.935c0 2.036-1.65 3.685-3.685 3.685v.002h-8.598v-2.457h8.598c.324 0 .638-.131.868-.362.23-.23.36-.541.36-.868V6.143c0-.327-.13-.638-.36-.869-.23-.23-.544-.361-.868-.361h-1.228v28.252c0 2.036-1.651 3.685-3.685 3.685h-2.458v-2.457h2.458c.325 0 .638-.129.868-.36.23-.23.36-.543.36-.868V3.685c0-.325-.13-.638-.36-.868-.23-.23-.543-.36-.868-.36h-16.69l-2.966 2.965.003 4.406h-2.458V5.422l-2.966-2.964H8.597c-.676 0-1.227.548-1.227 1.227v29.48c0 .68.55 1.228 1.228 1.228h2.457v2.457H8.598c-2.034 0-3.685-1.649-3.685-3.685V4.913H3.685c-.68 0-1.227.55-1.227 1.23v31.935c0 .68.548 1.23 1.227 1.23h8.598v2.455H3.685C1.65 41.763 0 40.113 0 38.078V6.142c0-2.035 1.65-3.685 3.685-3.685h1.453C5.658.99 7.043.007 8.598 0zm3.685 18.425c2.932.005 5.742 1.17 7.812 3.243 2.073 2.07 3.239 4.88 3.243 7.812H38.08c-.003-2.28-.907-4.466-2.52-6.078-1.612-1.612-3.798-2.517-6.078-2.52zM14.74 14.74v2.458H9.827V14.74h4.912zm34.393 0v2.458H44.22V14.74h4.913zM25.796 8.598v2.457H9.828V8.598h15.968zm23.338 0v2.457H33.166V8.598h15.968z"></path>
</svg>
