<?xml version="1.0" encoding="UTF-8"?>
<svg xmlns="http://www.w3.org/2000/svg" width="123" height="22" viewBox="0 0 123 22" fill="none">
  <g clip-path="url(#clip0_543_8085)">
    <path fill-rule="evenodd" clip-rule="evenodd" d="M27.9763 7.13396H29.7441H30.2327V4.92639H27.9763V7.13396Z" fill="#FDCD48"></path>
    <path fill-rule="evenodd" clip-rule="evenodd" d="M105.342 17.4372H107.109H107.598V15.2296H105.342V17.4372Z" fill="#FDCD48"></path>
    <path fill-rule="evenodd" clip-rule="evenodd" d="M120.744 7.16533H122.509H123V4.95776H120.744V7.16533Z" fill="white"></path>
    <path d="M30.2327 8.64941H27.9763V17.4797H30.2327V8.64941Z" fill="white"></path>
    <path d="M123 8.68445H120.744V17.4538H123V8.68445Z" fill="white"></path>
    <path fill-rule="evenodd" clip-rule="evenodd" d="M36.549 8.43347C36.1905 8.43347 35.8698 8.47039 35.5868 8.54607C35.3039 8.62174 35.051 8.71772 34.8265 8.8377C34.602 8.95768 34.4077 9.08319 34.2492 9.22347C34.0266 9.42097 33.8946 9.67015 33.8361 9.8012V8.62174H31.6042V17.4372H33.8738V12.6622C33.8738 12.3373 33.9285 12.0328 34.0379 11.7504C34.1474 11.468 34.2983 11.2206 34.4907 11.0084C34.6832 10.7961 34.9133 10.63 35.1831 10.51C35.4529 10.3919 35.7415 10.3309 36.0491 10.3309C36.549 10.3309 36.9565 10.4841 37.2697 10.7924C37.5847 11.0988 37.7413 11.5344 37.7413 12.0992V17.4372H40.0109V12.0808C40.0109 10.9659 39.7147 10.0781 39.1261 9.42097C38.5356 8.76387 37.6772 8.43347 36.549 8.43347Z" fill="white"></path>
    <path fill-rule="evenodd" clip-rule="evenodd" d="M46.544 15.7113C46.3327 15.811 46.0478 15.8627 45.6912 15.8627C45.3082 15.8627 45.029 15.728 44.8573 15.4585C44.6857 15.189 44.5989 14.8032 44.5989 14.303V10.4508H47.0156V8.64749H44.5989V4.92822H42.335V8.64749H40.854V10.4508H42.335V14.4525C42.335 14.9416 42.3859 15.3883 42.4878 15.7962C42.5897 16.2042 42.7595 16.5512 42.9972 16.8391C43.233 17.1271 43.5443 17.3504 43.9273 17.5055C44.3121 17.6623 44.7781 17.7399 45.329 17.7399C45.8799 17.7399 46.3515 17.6605 46.7873 17.5055C47.2212 17.3486 47.6627 17.0901 48.1098 16.7247L47.1514 15.3533C46.959 15.4917 46.759 15.6098 46.5477 15.7095L46.544 15.7113Z" fill="white"></path>
    <path fill-rule="evenodd" clip-rule="evenodd" d="M55.8885 9.94698C55.5413 9.47077 55.0829 9.085 54.5132 8.78967C53.9415 8.49434 53.2454 8.34668 52.4247 8.34668C51.7436 8.34668 51.1267 8.46666 50.5683 8.70476C50.0099 8.94287 49.5288 9.26958 49.1251 9.68488C48.7213 10.1002 48.4063 10.5856 48.1818 11.1449C47.9573 11.7042 47.8459 12.3096 47.8459 12.963C47.8459 13.6792 47.9573 14.3326 48.1818 14.9214C48.4063 15.512 48.727 16.0178 49.1439 16.4368C49.5609 16.8576 50.0646 17.188 50.6551 17.4261C51.2456 17.6642 51.9002 17.7842 52.619 17.7842C53.3378 17.7842 53.9302 17.7085 54.4377 17.559C54.9452 17.4077 55.3621 17.2397 55.6885 17.0496C56.0168 16.8613 56.2658 16.6823 56.4394 16.5125C56.6129 16.3427 56.7186 16.2393 56.7563 16.2024L55.5244 14.8457C55.447 14.9214 55.3338 15.0174 55.1867 15.1374C55.0395 15.2573 54.8509 15.3699 54.6188 15.477C54.3886 15.584 54.1094 15.6782 53.7812 15.7594C53.4548 15.8406 53.0718 15.8831 52.636 15.8831C52.3398 15.8831 52.0417 15.8332 51.7418 15.7317C51.4399 15.632 51.1701 15.4862 50.9343 15.2979C50.6966 15.1097 50.5042 14.8845 50.357 14.6205C50.2098 14.3566 50.1363 14.0631 50.1363 13.7364H56.8733V13.4152C56.8733 12.7877 56.7959 12.173 56.6431 11.5694C56.4884 10.9677 56.2394 10.4269 55.8923 9.94883L55.8885 9.94698ZM50.1136 12.1324C50.1136 11.9072 50.1646 11.6802 50.2683 11.455C50.3702 11.2298 50.5174 11.0249 50.7117 10.8422C50.9041 10.6595 51.1437 10.5099 51.4324 10.39C51.721 10.27 52.0512 10.2109 52.4228 10.2109C52.7699 10.2109 53.0775 10.27 53.3472 10.39C53.617 10.5099 53.8378 10.6595 54.0113 10.8422C54.1849 11.0249 54.3151 11.228 54.4056 11.455C54.4943 11.682 54.5396 11.9072 54.5396 12.1324H50.1136Z" fill="white"></path>
    <path fill-rule="evenodd" clip-rule="evenodd" d="M87.9151 11.1264C88.1264 10.8754 88.3905 10.6724 88.7113 10.5155C89.0301 10.3586 89.4074 10.2811 89.8432 10.2811C90.279 10.2811 90.6865 10.3623 91.0318 10.5247C91.377 10.6871 91.677 10.9123 91.9335 11.2021L93.3711 9.77348C92.9485 9.33602 92.4373 8.98717 91.8373 8.7306C91.2355 8.47404 90.5714 8.34668 89.8432 8.34668C89.115 8.34668 88.4717 8.47219 87.8774 8.72322C87.2831 8.97425 86.7737 9.31203 86.353 9.73841C85.9304 10.1648 85.6022 10.6631 85.3644 11.2317C85.1286 11.802 85.0098 12.4056 85.0098 13.0442C85.0098 13.7456 85.1192 14.3843 85.3361 14.9602C85.5531 15.536 85.8663 16.0307 86.2757 16.4442C86.6851 16.8576 87.1907 17.177 87.7906 17.4021C88.3905 17.6273 89.0754 17.7399 89.8432 17.7399C90.6111 17.7399 91.2808 17.6089 91.8562 17.3449C92.4316 17.081 92.9297 16.7303 93.3523 16.2928L92.009 14.8642C91.7524 15.1521 91.4393 15.381 91.0695 15.5508C90.6978 15.7206 90.2884 15.8037 89.8413 15.8037C89.3942 15.8037 89.0301 15.7225 88.7094 15.56C88.3905 15.3976 88.1245 15.1835 87.9132 14.9214C87.7019 14.6574 87.5453 14.364 87.4435 14.0391C87.3416 13.7142 87.2907 13.382 87.2907 13.0424C87.2907 12.7028 87.3416 12.3484 87.4435 12.0087C87.5453 11.671 87.7019 11.3775 87.9132 11.1264H87.9151Z" fill="white"></path>
    <path fill-rule="evenodd" clip-rule="evenodd" d="M103.176 13.382C103.176 12.7563 103.098 12.1435 102.946 11.5417C102.793 10.9419 102.542 10.4029 102.197 9.92667C101.851 9.45046 101.393 9.06653 100.825 8.77305C100.255 8.47957 99.561 8.33191 98.7422 8.33191C98.0631 8.33191 97.4462 8.45189 96.8896 8.68815C96.3331 8.92625 95.8539 9.25111 95.4501 9.66457C95.0464 10.078 94.7332 10.5635 94.5106 11.1191C94.2861 11.6765 94.1748 12.2801 94.1748 12.9298C94.1748 13.6423 94.2861 14.2938 94.5106 14.8826C94.7351 15.4714 95.054 15.9753 95.4709 16.3943C95.8859 16.8133 96.3878 17.1419 96.9783 17.38C97.5669 17.6181 98.2197 17.7362 98.9366 17.7362C99.6535 17.7362 100.244 17.6605 100.75 17.511C101.255 17.3615 101.67 17.1917 101.997 17.0034C102.323 16.8152 102.572 16.638 102.746 16.4682C102.919 16.2983 103.025 16.1968 103.063 16.1581L101.834 14.8069C101.757 14.8826 101.646 14.9786 101.499 15.0967C101.351 15.2167 101.163 15.3293 100.933 15.4345C100.702 15.5416 100.423 15.6357 100.097 15.7151C99.7704 15.7963 99.3893 15.8369 98.9554 15.8369C98.6611 15.8369 98.363 15.7871 98.0631 15.6874C97.7631 15.5877 97.4933 15.4437 97.2575 15.2555C97.0198 15.0672 96.8292 14.842 96.6821 14.5799C96.5349 14.3178 96.4614 14.0243 96.4614 13.6976H103.179V13.3783L103.176 13.382ZM96.4387 12.1066C96.4387 11.8814 96.4897 11.6562 96.5934 11.431C96.6953 11.2058 96.8424 11.0028 97.0349 10.8219C97.2273 10.641 97.4669 10.4896 97.7537 10.3715C98.0423 10.2534 98.3706 10.1925 98.7422 10.1925C99.0875 10.1925 99.395 10.2515 99.6629 10.3715C99.9327 10.4915 100.152 10.641 100.325 10.8219C100.499 11.0028 100.629 11.2058 100.719 11.431C100.808 11.6562 100.853 11.8814 100.853 12.1066H96.4387Z" fill="white"></path>
    <path d="M60.4519 8.64941H58.2842V17.4797H60.4519V8.64941Z" fill="white"></path>
    <path fill-rule="evenodd" clip-rule="evenodd" d="M62.8649 8.64941C62.0462 8.64941 61.3821 9.29913 61.3821 10.1002C61.3821 10.9013 62.0462 11.551 62.8649 11.551C63.6837 11.551 64.3478 10.9013 64.3478 10.1002C64.3478 9.29913 63.6837 8.64941 62.8649 8.64941Z" fill="white"></path>
    <path d="M72.0886 9.16992H69.1248V10.988H72.0886V9.16992Z" fill="white"></path>
    <path fill-rule="evenodd" clip-rule="evenodd" d="M70.0643 4.10877C67.5589 4.21583 65.6289 6.31819 65.6289 8.76201V17.4372L67.8192 16.3667L67.8268 8.63096C67.8268 7.31676 68.9229 6.24805 70.2699 6.24805C71.0113 6.24805 71.6773 6.57291 72.1263 7.08419L73.6809 5.56695C72.7885 4.62375 71.4962 4.04602 70.0624 4.10693L70.0643 4.10877Z" fill="white"></path>
    <path fill-rule="evenodd" clip-rule="evenodd" d="M81.2592 9.81588C80.7422 8.93175 79.5744 8.37247 78.3538 8.37247C75.69 8.35401 73.5996 9.9617 73.5996 13.0294C73.5996 16.0971 75.5975 17.7768 78.2991 17.7602C79.316 17.7417 80.7422 17.236 81.2592 16.1894L81.3705 17.4575H83.4985V8.68441H81.3346L81.2611 9.81588H81.2592ZM78.5576 15.7372C77.0596 15.7372 75.856 14.7257 75.856 13.0294C75.856 11.3331 77.0596 10.3401 78.5576 10.3401C82.11 10.3401 82.11 15.739 78.5576 15.739V15.7372Z" fill="white"></path>
    <path fill-rule="evenodd" clip-rule="evenodd" d="M116.78 9.81588C116.263 8.93175 115.095 8.37247 113.875 8.37247C111.211 8.35401 109.12 9.9617 109.12 13.0294C109.12 16.0971 111.118 17.7768 113.82 17.7602C114.837 17.7417 116.263 17.236 116.78 16.1894L116.891 17.4575H119.019V8.68441H116.855L116.782 9.81588H116.78ZM114.078 15.7372C112.58 15.7372 111.377 14.7257 111.377 13.0294C111.377 11.3331 112.58 10.3401 114.078 10.3401C117.631 10.3401 117.631 15.739 114.078 15.739V15.7372Z" fill="white"></path>
    <path d="M8.14821 13.4725C9.54337 13.4725 10.6744 12.3659 10.6744 11.0009C10.6744 9.63595 9.54337 8.52942 8.14821 8.52942C6.75306 8.52942 5.62207 9.63595 5.62207 11.0009C5.62207 12.3659 6.75306 13.4725 8.14821 13.4725Z" fill="#FDCD48"></path>
    <path d="M20.6808 0H2.50539C1.12063 0 0 1.10194 0 2.45675V19.5451C0 20.8999 1.12063 22.0018 2.50539 22.0018H20.6808C22.0599 22.0018 23.1862 20.8999 23.1862 19.5451V2.45675C23.1862 1.10194 22.0599 0 20.6808 0ZM20.0809 18.9618H6.48232C4.61837 18.9618 3.10533 17.4815 3.10533 15.6523V6.34583C3.10533 4.52219 4.61837 3.03633 6.48232 3.03633H20.0809V8.666H13.0269V13.3303H20.0809V18.96V18.9618Z" fill="white"></path>
  </g>
  <defs>
    <clipPath id="clip0_543_8085">
      <rect width="123" height="22" fill="white"></rect>
    </clipPath>
  </defs>
</svg>
