<?xml version="1.0" encoding="UTF-8"?>
<svg xmlns="http://www.w3.org/2000/svg" width="96" height="84" viewBox="0 0 96 84">
  <path fill="#FFF" d="M35.527.281c-.47.052-.866.545-.815 1.017.051.473.541.84 1.011.788l9.522.328 5.64 13.519H40.42c-.054-.005-.109-.005-.163 0-.438.082-.771.54-.718.984l3.979 35.109c-4.271-2.772-9.838-4.463-15.978-4.463-6.607 0-12.582 1.927-16.957 5.086-4.374 3.16-7.174 7.619-7.174 12.6v.132C1.64 65.538.245 67.039.245 68.859c0 1.035.461 1.955 1.174 2.592-.715.637-1.174 1.554-1.174 2.592 0 1.819 1.396 3.32 3.163 3.478v.099c0 3.416 3.031 6.103 6.653 6.103h34.956c3.622 0 6.652-2.686 6.652-6.103v-.065h.033c1.368 0 2.537-.833 3.098-2.002H73.19c.43 0 .83-.358.88-.787l4.696-41.77c.315.026.624.032.946.032 8.857 0 16.043-7.244 16.043-16.143C95.756 7.985 88.57.74 79.713.74c-8.535 0-15.48 6.738-15.978 15.192h-8.25c-.497-.061-1.01.383-1.01.886 0 .504.513.948 1.01.886h23.25l-1.63 14.208c-.017.097-.017.198 0 .295l-1.403 12.436-7.598-2.067c-.191-.055-.402-.044-.586.033 0 0-1.267.514-2.87 1.05-1.603.535-3.562 1.05-4.696 1.05s-3.125-.515-4.728-1.05c-1.602-.536-2.87-1.05-2.87-1.05-.162-.074-.346-.097-.521-.065l-.033.032-7.337 2.002-3.065-26.874h10.24l7.597 18.211c.18.438.738.673 1.174.492.435-.18.668-.743.489-1.18L46.681 1.232c-.127-.315-.446-.542-.783-.557L35.789.282c-.054-.005-.109-.005-.163 0-.032-.002-.065-.002-.098 0zm43.305 2.264v11.748l-7.533-8.958c2.132-1.59 4.71-2.616 7.533-2.79zm1.76.033c2.814.172 5.394 1.149 7.533 2.723l-7.5 9.024-.032-11.747zM69.93 6.45l7.892 9.45H65.527c.255-3.717 1.885-7.039 4.403-9.45zm19.565 0c2.532 2.4 4.205 5.708 4.468 9.417l-12.36.066 7.892-9.483zm4.468 11.189c-.193 3.758-1.815 7.138-4.337 9.58l-7.957-9.515 12.294-.065zm-13.598 1.28l7.892 9.45c-2.384 1.79-5.332 2.854-8.544 2.854-.24 0-.477-.019-.717-.033l1.37-12.272zm-28.402 25.43c.223.093 1.195.512 2.706 1.016 1.673.56 3.68 1.149 5.283 1.149 1.604 0 3.577-.59 5.25-1.149 1.51-.504 2.483-.924 2.706-1.017l7.566 2.133-3.098 27.268h-17.25c-.079-.914-.495-1.722-1.141-2.297.713-.637 1.174-1.557 1.174-2.593 0-1.921-1.547-3.51-3.457-3.51h-.032v-.1c0-4.604-2.412-8.746-6.229-11.844l-.782-7.022 7.304-2.035zm-24.424 4.987c6.265 0 11.888 1.85 15.913 4.758 4.025 2.907 6.424 6.841 6.424 11.156v.099H5.202v-.1c0-4.314 2.398-8.248 6.423-11.155 4.026-2.908 9.648-4.758 15.914-4.758zm41.185 1.804l-4.37.165.196 4.396 4.37-.164-.196-4.397zm-45.62.591c-.764 0-1.37.64-1.37 1.411s.606 1.378 1.37 1.378c.765 0 1.403-.607 1.403-1.378 0-.77-.638-1.41-1.403-1.41zm8.87 0c-.765 0-1.402.64-1.402 1.411s.637 1.378 1.402 1.378c.764 0 1.37-.607 1.37-1.378 0-.77-.606-1.41-1.37-1.41zm22.565 2.1c-3.334 3.332-2.872 3.312.457 6.202l2.87-3.314-3.327-2.888zm-36.652.164c-.765 0-1.402.64-1.402 1.411s.637 1.378 1.402 1.378c.764 0 1.37-.607 1.37-1.378 0-.77-.606-1.41-1.37-1.41zm19.304 0c-.764 0-1.37.64-1.37 1.411s.606 1.378 1.37 1.378c.765 0 1.37-.607 1.37-1.378 0-.77-.605-1.41-1.37-1.41zm-24.293 4.463c-.764 0-1.37.64-1.37 1.41 0 .772.606 1.379 1.37 1.379.765 0 1.37-.607 1.37-1.378 0-.771-.605-1.411-1.37-1.411zm29.282 0c-.764 0-1.402.64-1.402 1.41 0 .772.638 1.379 1.402 1.379.765 0 1.37-.607 1.37-1.378 0-.771-.605-1.411-1.37-1.411zm-19.076.46c-.764 0-1.37.64-1.37 1.41 0 .77.606 1.411 1.37 1.411.765 0 1.403-.64 1.403-1.411 0-.77-.638-1.41-1.403-1.41zm8.87 0c-.765 0-1.402.64-1.402 1.41 0 .77.637 1.411 1.402 1.411.764 0 1.37-.64 1.37-1.411 0-.77-.606-1.41-1.37-1.41zm-14.38 1.246c-.631.13-1.109.704-1.109 1.378 0 .771.638 1.411 1.402 1.411.765 0 1.37-.64 1.37-1.41 0-.772-.605-1.379-1.37-1.379-.095 0-.203-.019-.293 0zm19.304 0c-.63.13-1.076.704-1.076 1.378 0 .771.605 1.411 1.37 1.411.764 0 1.37-.64 1.37-1.41 0-.772-.606-1.379-1.37-1.379-.096 0-.204-.019-.294 0zm27.032 3.183l-4.043 1.673 1.663 4.069 4.044-1.674-1.664-4.068zM3.701 67.12h48c.958 0 1.696.775 1.696 1.74 0 .963-.738 1.705-1.696 1.705h-48c-.958 0-1.696-.742-1.696-1.706s.738-1.739 1.696-1.739zm0 5.217h10.272l-.848 3.446H3.7c-.958 0-1.696-.775-1.696-1.74 0-.963.738-1.706 1.696-1.706zm12.13 0h11.543l-13.043 6.005 1.5-6.005zm15.881 0h19.989c.958 0 1.696.743 1.696 1.707 0 .964-.738 1.739-1.696 1.739h-.75c-.095-.028-.195-.039-.294-.033-.033.01-.065.02-.097.033H24.147l7.565-3.446zm-26.51 5.218h7.467l-.522 2.132c-.08.334.037.684.302.901.264.217.628.262.937.117l6.913-3.15c.108.02.219.02.326 0h29.25v.065c0 2.347-2.09 4.33-4.859 4.33H10.06c-2.769 0-4.859-1.982-4.859-4.33v-.065z"></path>
</svg>
