<?xml version="1.0" encoding="UTF-8"?>
<svg xmlns="http://www.w3.org/2000/svg" width="132" height="25" viewBox="0 0 132 25" fill="none">
  <g clip-path="url(#clip0_635_2)">
    <path fill-rule="evenodd" clip-rule="evenodd" d="M30.0254 7.82521H31.9204H32.4469V5.40375H30.0254V7.82521Z" fill="#FDCD48"></path>
    <path fill-rule="evenodd" clip-rule="evenodd" d="M113.05 19.1267H114.947H115.473V16.7053H113.05V19.1267Z" fill="#FDCD48"></path>
    <path fill-rule="evenodd" clip-rule="evenodd" d="M129.578 7.85963H131.473H132V5.43817H129.578V7.85963Z" fill="#093EB0"></path>
    <path d="M32.4469 9.48743H30.0254V19.1733H32.4469V9.48743Z" fill="#093EB0"></path>
    <path d="M132 9.52588H129.578V19.1449H132V9.52588Z" fill="#093EB0"></path>
    <path fill-rule="evenodd" clip-rule="evenodd" d="M39.2236 9.25055C38.8389 9.25055 38.4947 9.29104 38.191 9.37405C37.8873 9.45706 37.616 9.56234 37.3751 9.69394C37.1341 9.82555 36.9256 9.96322 36.7555 10.1171C36.5166 10.3337 36.3749 10.6071 36.3121 10.7508V9.45706H33.917V19.1267H36.3526V13.889C36.3526 13.5326 36.4113 13.1986 36.5288 12.8888C36.6462 12.579 36.8082 12.3077 37.0147 12.0749C37.2212 11.8421 37.4682 11.6599 37.7577 11.5283C38.0472 11.3987 38.357 11.3319 38.687 11.3319C39.2236 11.3319 39.6609 11.4999 39.997 11.838C40.3351 12.1741 40.5031 12.6519 40.5031 13.2715V19.1267H42.9388V13.2512C42.9388 12.0283 42.6209 11.0545 41.9892 10.3337C41.3555 9.61296 40.4343 9.25055 39.2236 9.25055Z" fill="#093EB0"></path>
    <path fill-rule="evenodd" clip-rule="evenodd" d="M49.952 17.2337C49.7252 17.343 49.4195 17.3997 49.0369 17.3997C48.6259 17.3997 48.3262 17.2519 48.142 16.9563C47.9577 16.6607 47.8646 16.2375 47.8646 15.6889V11.4635H50.4582V9.4854H47.8646V5.40576H45.435V9.4854H43.8457V11.4635H45.435V15.8529C45.435 16.3894 45.4897 16.8794 45.599 17.3268C45.7084 17.7742 45.8906 18.1549 46.1457 18.4707C46.3988 18.7866 46.7328 19.0315 47.1438 19.2016C47.5569 19.3737 48.0569 19.4587 48.6481 19.4587C49.2393 19.4587 49.7455 19.3717 50.2132 19.2016C50.6788 19.0295 51.1526 18.7461 51.6324 18.3452L50.6039 16.8409C50.3974 16.9927 50.1828 17.1223 49.956 17.2316L49.952 17.2337Z" fill="#093EB0"></path>
    <path fill-rule="evenodd" clip-rule="evenodd" d="M59.9777 10.9108C59.6052 10.3884 59.1132 9.96525 58.5017 9.64131C57.8883 9.31737 57.1412 9.1554 56.2605 9.1554C55.5296 9.1554 54.8675 9.287 54.2682 9.54817C53.6689 9.80935 53.1527 10.1677 52.7194 10.6233C52.2861 11.0788 51.948 11.6113 51.7071 12.2247C51.4661 12.8382 51.3467 13.5023 51.3467 14.219C51.3467 15.0046 51.4661 15.7213 51.7071 16.3671C51.948 17.015 52.2922 17.5698 52.7396 18.0294C53.1871 18.491 53.7276 18.8534 54.3614 19.1146C54.9951 19.3757 55.6976 19.5073 56.469 19.5073C57.2404 19.5073 57.8761 19.4243 58.4207 19.2603C58.9654 19.0943 59.4128 18.9101 59.7631 18.7015C60.1154 18.495 60.3826 18.2986 60.5689 18.1124C60.7552 17.9261 60.8685 17.8127 60.909 17.7722L59.5869 16.2841C59.5039 16.3671 59.3824 16.4724 59.2245 16.604C59.0666 16.7356 58.8641 16.8591 58.6151 16.9766C58.3681 17.094 58.0685 17.1972 57.7162 17.2863C57.3659 17.3754 56.9549 17.422 56.4872 17.422C56.1694 17.422 55.8495 17.3673 55.5275 17.256C55.2036 17.1466 54.9141 16.9867 54.661 16.7802C54.4059 16.5737 54.1994 16.3266 54.0415 16.0371C53.8835 15.7476 53.8046 15.4257 53.8046 15.0673H61.0345V14.715C61.0345 14.0267 60.9515 13.3525 60.7875 12.6904C60.6215 12.0304 60.3543 11.4372 59.9817 10.9128L59.9777 10.9108ZM53.7803 13.3079C53.7803 13.0609 53.835 12.8119 53.9463 12.5649C54.0556 12.3179 54.2136 12.0931 54.4221 11.8927C54.6286 11.6923 54.8857 11.5283 55.1955 11.3967C55.5053 11.2651 55.8596 11.2003 56.2584 11.2003C56.631 11.2003 56.961 11.2651 57.2505 11.3967C57.54 11.5283 57.7769 11.6923 57.9632 11.8927C58.1494 12.0931 58.2891 12.3158 58.3863 12.5649C58.4815 12.8139 58.5301 13.0609 58.5301 13.3079H53.7803Z" fill="#093EB0"></path>
    <path fill-rule="evenodd" clip-rule="evenodd" d="M94.3474 12.2045C94.5742 11.9291 94.8576 11.7064 95.2018 11.5343C95.544 11.3622 95.9489 11.2772 96.4166 11.2772C96.8843 11.2772 97.3216 11.3663 97.6921 11.5445C98.0626 11.7226 98.3845 11.9696 98.6599 12.2875L100.203 10.7204C99.7491 10.2406 99.2005 9.85794 98.5566 9.57652C97.9108 9.29509 97.1981 9.1554 96.4166 9.1554C95.6351 9.1554 94.9447 9.29307 94.3069 9.56842C93.6692 9.84377 93.1225 10.2143 92.671 10.682C92.2175 11.1497 91.8652 11.6963 91.6101 12.3199C91.357 12.9455 91.2295 13.6076 91.2295 14.3081C91.2295 15.0774 91.3469 15.778 91.5797 16.4097C91.8126 17.0413 92.1487 17.5839 92.588 18.0375C93.0274 18.491 93.57 18.8412 94.2138 19.0882C94.8576 19.3353 95.5926 19.4588 96.4166 19.4588C97.2406 19.4588 97.9594 19.315 98.5769 19.0255C99.1944 18.736 99.7289 18.3513 100.182 17.8714L98.7409 16.3044C98.4655 16.6202 98.1294 16.8713 97.7326 17.0575C97.3338 17.2438 96.8944 17.3349 96.4146 17.3349C95.9347 17.3349 95.544 17.2458 95.1998 17.0677C94.8576 16.8895 94.5722 16.6546 94.3454 16.3671C94.1186 16.0776 93.9506 15.7557 93.8413 15.3994C93.7319 15.043 93.6773 14.6786 93.6773 14.3061C93.6773 13.9335 93.7319 13.5448 93.8413 13.1723C93.9506 12.8018 94.1186 12.4798 94.3454 12.2045H94.3474Z" fill="#093EB0"></path>
    <path fill-rule="evenodd" clip-rule="evenodd" d="M110.725 14.6786C110.725 13.9923 110.642 13.3201 110.478 12.6621C110.314 12.0041 110.045 11.4129 109.674 10.8905C109.304 10.3682 108.812 9.94704 108.202 9.62512C107.591 9.30321 106.846 9.14124 105.967 9.14124C105.238 9.14124 104.576 9.27284 103.979 9.53199C103.382 9.79317 102.867 10.1495 102.434 10.603C102.001 11.0565 101.665 11.589 101.426 12.1984C101.185 12.8099 101.065 13.4719 101.065 14.1846C101.065 14.9661 101.185 15.6808 101.426 16.3267C101.667 16.9725 102.009 17.5252 102.456 17.9848C102.902 18.4444 103.44 18.8048 104.074 19.066C104.706 19.3272 105.406 19.4567 106.176 19.4567C106.945 19.4567 107.579 19.3737 108.121 19.2097C108.664 19.0457 109.109 18.8595 109.46 18.653C109.81 18.4464 110.077 18.2521 110.263 18.0658C110.45 17.8796 110.563 17.7682 110.603 17.7257L109.285 16.2436C109.202 16.3267 109.083 16.4319 108.925 16.5615C108.767 16.6931 108.565 16.8166 108.318 16.932C108.071 17.0495 107.771 17.1527 107.421 17.2398C107.07 17.3289 106.662 17.3734 106.196 17.3734C105.88 17.3734 105.56 17.3187 105.238 17.2094C104.916 17.1001 104.627 16.9421 104.374 16.7356C104.119 16.5291 103.914 16.2821 103.756 15.9946C103.598 15.7071 103.519 15.3852 103.519 15.0268H110.727V14.6766L110.725 14.6786ZM103.495 13.2796C103.495 13.0326 103.55 12.7856 103.661 12.5386C103.77 12.2916 103.928 12.0689 104.135 11.8704C104.341 11.672 104.598 11.506 104.906 11.3764C105.216 11.2469 105.568 11.18 105.967 11.18C106.338 11.18 106.668 11.2448 106.955 11.3764C107.245 11.508 107.479 11.672 107.666 11.8704C107.852 12.0689 107.992 12.2916 108.087 12.5386C108.182 12.7856 108.231 13.0326 108.231 13.2796H103.493H103.495Z" fill="#093EB0"></path>
    <path d="M64.8771 9.48743H62.5508V19.1733H64.8771V9.48743Z" fill="#093EB0"></path>
    <path fill-rule="evenodd" clip-rule="evenodd" d="M67.4644 9.48743C66.5857 9.48743 65.873 10.2001 65.873 11.0788C65.873 11.9575 66.5857 12.6702 67.4644 12.6702C68.3431 12.6702 69.0537 11.9575 69.0537 11.0788C69.0537 10.2001 68.3411 9.48743 67.4644 9.48743Z" fill="#093EB0"></path>
    <path d="M77.3653 10.0563H74.1846V12.0506H77.3653V10.0563Z" fill="#093EB0"></path>
    <path fill-rule="evenodd" clip-rule="evenodd" d="M75.1925 4.50684C72.5038 4.62427 70.4326 6.93032 70.4326 9.61094V19.1267L72.7832 17.9524L72.7913 9.46719C72.7913 8.02565 73.9676 6.85339 75.4132 6.85339C76.2089 6.85339 76.9236 7.20972 77.4055 7.77055L79.0737 6.1063C78.1161 5.07171 76.7292 4.438 75.1905 4.50481L75.1925 4.50684Z" fill="#093EB0"></path>
    <path fill-rule="evenodd" clip-rule="evenodd" d="M87.2073 10.767C86.6526 9.79723 85.4013 9.18377 84.0894 9.18377C81.2306 9.16352 78.9873 10.927 78.9873 14.2919C78.9873 17.6569 81.1314 19.4993 84.0307 19.4811C85.1219 19.4608 86.6526 18.9061 87.2073 17.7581L87.3268 19.149H89.6106V9.52593H87.2883L87.2093 10.767H87.2073ZM84.308 17.2621C82.7005 17.2621 81.4088 16.1526 81.4088 14.2919C81.4088 12.4313 82.7005 11.342 84.308 11.342C88.1204 11.342 88.1204 17.2641 84.308 17.2641V17.2621Z" fill="#093EB0"></path>
    <path fill-rule="evenodd" clip-rule="evenodd" d="M125.324 10.767C124.77 9.79723 123.519 9.18377 122.207 9.18377C119.348 9.16352 117.104 10.927 117.104 14.2919C117.104 17.6569 119.249 19.4993 122.148 19.4811C123.239 19.4608 124.77 18.9061 125.324 17.7581L125.444 19.149H127.728V9.52593H125.405L125.327 10.767H125.324ZM122.425 17.2621C120.818 17.2621 119.526 16.1526 119.526 14.2919C119.526 12.4313 120.818 11.342 122.425 11.342C126.238 11.342 126.238 17.2641 122.425 17.2641V17.2621Z" fill="#093EB0"></path>
    <path d="M8.74614 14.7778C10.2434 14.7778 11.4571 13.5641 11.4571 12.0668C11.4571 10.5696 10.2434 9.35583 8.74614 9.35583C7.24891 9.35583 6.03516 10.5696 6.03516 12.0668C6.03516 13.5641 7.24891 14.7778 8.74614 14.7778Z" fill="#FDCD48"></path>
    <path d="M22.194 0H2.68871C1.20871 0 0 1.20871 0 2.69479V21.4388C0 22.9249 1.20871 24.1336 2.68871 24.1336H22.194C23.6801 24.1336 24.8827 22.9249 24.8827 21.4388V2.69479C24.8827 1.20871 23.6801 0 22.194 0ZM21.5502 20.7991H6.95664C4.9563 20.7991 3.33255 19.1753 3.33255 17.1689V6.96069C3.33255 4.96035 4.9563 3.33052 6.95664 3.33052H21.5502V9.50565H13.9801V14.6219H21.5502V20.797V20.7991Z" fill="#093EB0"></path>
  </g>
  <defs>
    <clipPath id="clip0_635_2">
      <rect width="132" height="24.1316" fill="white"></rect>
    </clipPath>
  </defs>
</svg>
