<?xml version="1.0" encoding="UTF-8"?>
<svg xmlns="http://www.w3.org/2000/svg" width="50" height="42" viewBox="0 0 50 42">
  <path fill="#518DE2" d="M31.737 16.89c.897 0 1.633.74 1.633 1.633 0 .897-.738 1.633-1.633 1.633h-4.105c-2.052 0-3.685 1.632-3.685 3.684 0 2.052 1.633 3.684 3.685 3.684h15.053c3.79 0 6.894 3.158 6.896 6.95 0 3.79-3.107 6.895-6.896 6.895H15.79c-.896 0-1.632-.738-1.632-1.633 0-.896.738-1.632 1.632-1.632h26.843c2.051 0 3.684-1.632 3.684-3.684 0-2.052-1.633-3.684-3.684-3.684h-15c-3.79 0-6.896-3.158-6.896-6.947 0-3.792 3.107-6.896 6.896-6.896zm-23.632.425c4.473 0 8.106 3.577 8.106 8.104 0 3.158-4.106 10.736-6.474 14.842-.736 1.262-2.527 1.262-3.263 0C4.106 36.155 0 28.577 0 25.419c0-4.474 3.63-8.104 8.104-8.104zm0 4.264c-2.106 0-3.79 1.684-3.79 3.789 0 2.105 1.684 3.789 3.79 3.789 2.104 0 3.79-1.686 3.788-3.79 0-2.104-1.684-3.788-3.789-3.788zM41.894 0C46.37 0 50 3.63 50 8.104c0 3.158-4.106 10.736-6.474 14.842-.736 1.262-2.526 1.262-3.26 0-2.369-4.106-6.474-11.684-6.474-14.842 0-4.473 3.63-8.104 8.104-8.104zm-.002 4.315c-2.105 0-3.789 1.684-3.789 3.79 0 2.051 1.686 3.788 3.79 3.788 2.105 0 3.788-1.684 3.788-3.789C45.682 6 44 4.315 41.893 4.315z"></path>
</svg>
