<svg xmlns="http://www.w3.org/2000/svg" width="125" height="120" viewBox="0 0 125 120">
    <path fill="#518DE2" d="M22.024 50.284v4.12h-4.31V50.47c-3.357-.639-6.494-2.119-9.12-4.305l3.019-5.04-.006.006c2.436 1.89 5.4 2.988 8.48 3.14 2.285 0 3.48-.864 3.48-2.3 0-4.22-13.733-3.475-13.733-12.758 0-4.148 3.507-7.175 7.885-8.078l-.006-4.042h4.31v3.991-.005c2.925.532 5.613 1.928 7.718 4.02l-3.418 4.305c-1.807-1.61-4.13-2.517-6.55-2.557-2.099 0-3.26.864-3.26 2.327 0 3.57 13.733 3.145 13.733 12.327 0 4.003-3.407 7.691-8.222 8.784zm98.39-14.68c0-13.432-20.114-12.788-20.114-18.024 0-2.136 1.695-3.386 4.77-3.386 3.794 0 6.32 1.278 9.57 3.734l5.011-6.228.006-.006c-3.059-3.027-6.948-5.08-11.18-5.886V0h-6.32v5.925c-6.409 1.435-11.494 5.74-11.494 11.795 0 13.577 20.115 12.484 20.115 18.656 0 2.125-1.74 3.375-5.073 3.375-4.31 0-8.077-1.71-12.398-4.591l-4.423 7.36h-.005c3.839 3.196 8.435 5.354 13.346 6.273v5.74h6.252V48.52c6.954-1.62 11.938-7.002 11.938-12.916zM125 89.144v28.702c0 1.189-.965 2.153-2.155 2.153H2.155C.965 120 0 119.036 0 117.847V89.145c0-1.188.965-2.152 2.155-2.152h120.69c1.19 0 2.155.964 2.155 2.152zm-4.31 2.153h-7.072v12.473c0 1.188-.96 2.153-2.155 2.153-1.19 0-2.155-.965-2.155-2.153V91.298H97.813v12.473c0 1.188-.96 2.153-2.155 2.153-1.19 0-2.155-.965-2.155-2.153V91.298H82.009v12.473c0 1.188-.96 2.153-2.155 2.153-1.19 0-2.156-.965-2.156-2.153V91.298H66.204v12.473c0 1.188-.96 2.153-2.155 2.153-1.19 0-2.155-.965-2.155-2.153V91.298H50.4v12.473c0 1.188-.96 2.153-2.156 2.153-1.19 0-2.155-.965-2.155-2.153V91.298H34.595v12.473c0 1.188-.96 2.153-2.155 2.153-1.19 0-2.155-.965-2.155-2.153V91.298H18.79v12.473c0 1.188-.96 2.153-2.155 2.153-1.19 0-2.155-.965-2.155-2.153V91.298H4.31v24.397h116.38V91.298zM11.164 80.378c.864 0 1.644-.516 1.981-1.312.337-.79.168-1.71-.427-2.332l-4.394-4.563h108.36l-4.395 4.563h-.006c-.415.41-.646.964-.646 1.547s.242 1.138.663 1.542c.415.403.982.622 1.566.6.583-.017 1.133-.275 1.52-.707l9.34-9.67-9.34-9.715c-.83-.813-2.16-.818-3.002-.011-.836.807-.881 2.136-.101 2.994l4.394 4.58H8.318l4.395-4.58h.005c.78-.858.736-2.187-.1-2.994-.842-.807-2.173-.802-3.003.011l-9.34 9.715 9.34 9.704c.41.41.965.639 1.549.628z"/>
</svg>
