<svg xmlns="http://www.w3.org/2000/svg" width="24" height="24" viewBox="0 0 24 24">
    <g fill="none" fill-rule="evenodd">
        <g fill="#FFF" fill-rule="nonzero">
            <g>
                <g>
                    <path d="M10.214 0c-.383.038-.675.362-.675.747V2.67c-.84.223-1.64.554-2.392.991L5.784 2.303c-.292-.291-.765-.291-1.057 0L2.302 4.73c-.29.292-.29.765 0 1.057l1.363 1.361c-.436.75-.763 1.548-.986 2.386H.747c-.414.002-.749.34-.747.753v3.429c.002.411.336.745.747.746h1.826c.037.146.089.29.118.438.03.202.142.382.309.5.166.117.374.161.574.123.2-.038.376-.157.487-.327.11-.17.148-.38.102-.579-.075-.382-.174-.764-.293-1.135-.1-.31-.39-.52-.714-.52H1.5v-1.926h1.661c.357 0 .666-.253.735-.604.212-1.09.641-2.13 1.263-3.051.2-.296.163-.692-.088-.946L3.896 5.26l1.362-1.368 1.17 1.174c.254.254.654.292.952.09.922-.623 1.957-1.052 3.05-1.264.353-.067.61-.377.61-.737V1.5h1.926V3.16c-.001.358.252.668.602.737 1.09.212 2.13.641 3.052 1.263.298.198.694.158.946-.095l1.18-1.174 1.362 1.363-1.173 1.173c-.255.254-.293.655-.09.952.622.921 1.052 1.96 1.263 3.051.07.352.378.604.736.604H22.5v1.927l-1.661-.001c-.36 0-.67.256-.737.61-.212 1.09-.641 2.128-1.263 3.049-.198.298-.157.695.096.947l1.167 1.174-1.357 1.362-1.172-1.168c-.255-.256-.654-.296-.953-.094-.922.622-1.96 1.055-3.052 1.267-.35.07-.603.379-.602.737V22.5h-1.927v-1.66c0-.36-.256-.67-.61-.737-.322-.063-.639-.143-.952-.244-.19-.067-.4-.054-.581.036-.181.091-.318.25-.38.443s-.044.402.05.581c.096.178.259.311.453.369.171.055.346.088.52.133v1.826c-.002.414.333.752.747.753h3.428c.414-.001.749-.339.747-.753v-1.914c.84-.223 1.64-.561 2.392-.998l1.362 1.362h-.001c.292.291.765.291 1.057 0l2.425-2.424h.001c.142-.14.222-.332.222-.532s-.08-.39-.222-.531l-1.362-1.357c.437-.753.767-1.55.99-2.392h1.928c.411-.001.745-.335.747-.747v-3.428c.002-.413-.333-.75-.747-.753h-1.928c-.223-.837-.55-1.636-.984-2.386l1.356-1.361c.29-.292.29-.765 0-1.057l-2.426-2.426c-.292-.291-.765-.291-1.057 0l-1.36 1.363c-.753-.437-1.552-.767-2.393-.99V.747c-.002-.411-.336-.745-.747-.747h-3.5zm2.215 10.796c-.03.001-.06.004-.09.009l-3.138.103c-.21-.01-.414.067-.564.214-.149.147-.23.35-.223.56.007.21.101.406.26.543.16.137.368.201.576.177l1.328-.043-7.062 7.064c-.151.138-.24.333-.244.537-.004.206.076.403.22.548.146.145.343.225.548.22.205-.005.4-.092.538-.244l7.057-7.055-.042 1.32c-.011.202.06.4.195.55.137.148.327.236.529.243.202.007.398-.068.545-.208.145-.14.228-.332.231-.535l.102-3.127c.039-.222-.026-.45-.174-.62-.15-.17-.367-.264-.592-.256z" transform="translate(-244 -4117) translate(127 4063) translate(117 54)"/>
                </g>
            </g>
        </g>
    </g>
</svg>
