<svg xmlns="http://www.w3.org/2000/svg" width="20" height="20" viewBox="0 0 20 20">
    <g fill="none" fill-rule="evenodd">
        <g fill-rule="nonzero">
            <g>
                <g>
                    <g>
                        <path fill="#FDCD2D" d="M16.916 2.891C14.976.971 12.44 0 9.906 0s-5.07.97-7.01 2.891c-3.861 3.861-3.861 10.139 0 14 1.94 1.94 4.475 2.911 7.01 2.911s5.07-.97 7.01-2.891c3.861-3.881 3.861-10.139 0-14.02z" transform="translate(-145 -1955) translate(145 1733) translate(0 219) translate(0 3)"/>
                        <path fill="#000" d="M12.75 11.026c-.283-.282-.656-.282-.939 0-.223.223-.446.431-.655.654-.015.015-.03.03-.044.03l-.15.149c-.044.03-.089.03-.133 0-.134-.075-.298-.134-.432-.223-.64-.402-1.176-.907-1.638-1.486-.238-.283-.446-.595-.595-.937-.03-.059-.03-.104.015-.148l.149-.149.03-.03.193-.193c.149-.148.298-.297.447-.46.297-.297.297-.654 0-.966-.164-.178-.343-.342-.521-.52l-.536-.535c-.283-.283-.656-.283-.938 0-.224.223-.432.446-.656.654-.208.193-.312.43-.342.728-.03.46.075.891.238 1.307.328.877.82 1.65 1.415 2.363.804.966 1.771 1.724 2.903 2.274.506.252 1.042.43 1.608.46.387.015.744-.074 1.012-.386.194-.208.402-.401.596-.61.297-.296.297-.653 0-.95-.313-.327-.67-.684-1.028-1.026z" transform="translate(-145 -1955) translate(145 1733) translate(0 219) translate(0 3)"/>
                    </g>
                </g>
            </g>
        </g>
    </g>
</svg>
