<svg xmlns="http://www.w3.org/2000/svg" width="24" height="23" viewBox="0 0 24 23">
    <g fill="none" fill-rule="evenodd">
        <g fill="#000" fill-rule="nonzero">
            <g>
                <g>
                    <g>
                        <path d="M19.338 23.52c.586 0 1.123.087 1.62.263.294.098.48.186.606.274.137.078.645.37.81.498.645.488 1.173 1.123 1.534 1.845.117.235.02.528-.215.645-.234.117-.527.02-.644-.215-.293-.596-.733-1.113-1.25-1.504-.118-.088-.635-.39-.723-.44 0-.01-.01-.01-.01-.01-.058-.028-.302-.146-.42-.185-.41-.146-.86-.214-1.347-.214h-.137c.02.039.039.068.059.107.175.322.351.654.507.986.088.176.176.362.254.547l.04.088c.019.059.048.117.068.176.097.205.185.42.058.644-.01.02-.029.04-.039.059l-2.06 2.734c-.098.118-.235.196-.381.196l-.518.01-.01 3.798c0 .108.05.205.127.264.938.703 2.022 1.348 3.243 1.904.37.156.673.518.79.918l.577 2.031h2.002l.244-.937c.059-.215.254-.361.469-.361l5.146.02c.225 0 .41.146.469.36l.234.918h2.012l.898-3.105c.05-.215.176-.43.342-.606 1.387-1.396 2.032-3.505 1.67-5.517-.03-.176-.068-.352-.117-.527-.176-.645-.459-1.27-.85-1.856-.146-.215-.087-.517.137-.664.215-.146.518-.088.664.137.45.674.781 1.396.977 2.139.058.204.107.41.146.614.41 2.315-.332 4.756-1.933 6.358-.05.049-.078.117-.098.176l-1.006 3.476c-.058.205-.244.352-.459.352H30.07c-.224 0-.41-.147-.469-.362l-.234-.918-4.394-.019-.245.937c-.058.215-.253.362-.468.362h-2.745c-.214 0-.4-.147-.459-.352l-.683-2.373c-.03-.127-.137-.254-.254-.303-1.29-.595-2.441-1.27-3.428-2.021-.322-.244-.508-.625-.508-1.035l.02-4.287c0-.264.205-.479.469-.479l.761-.01 1.758-2.333c-.01-.04-.03-.088-.049-.127l-.039-.098c-.068-.166-.156-.332-.234-.508-.156-.322-.322-.635-.488-.947l-.03-.049c-.01-.01-.029-.03-.029-.039-.068-.117-.117-.205-.146-.303-.04-.107-.147-.351-.05-.605.108-.254.323-.43.577-.488.02 0 .039-.01.059-.01.029-.01.029-.01.058-.01l.186-.01c.097-.01.215-.01.332-.01zm1.65 5.039c.42 0 .772.36.772.771 0 .42-.352.771-.772.771-.42 0-.771-.351-.771-.771 0-.42.351-.771.771-.771zm8.301-9.004c.996-.44 2.11-.47 3.125-.069 1.016.4 1.816 1.172 2.256 2.168.44.996.469 2.11.068 3.125-.4 1.016-1.172 1.817-2.168 2.256-.527.235-1.084.352-1.64.352-.498 0-1.006-.098-1.485-.284-1.015-.4-1.816-1.162-2.256-2.167-.44-.997-.468-2.11-.068-3.125.4-1.016 1.172-1.817 2.168-2.256zm1.63.615c-.42 0-.849.088-1.25.263-.76.342-1.347.948-1.65 1.729-.302.781-.283 1.621.04 2.393.341.761.947 1.347 1.728 1.65.781.303 1.63.283 2.393-.049.761-.342 1.347-.947 1.65-1.728.303-.782.283-1.631-.049-2.393-.342-.762-.947-1.348-1.728-1.65-.362-.147-.752-.215-1.133-.215zm3.175-2.725c.996-.44 2.109-.468 3.125-.068 1.015.4 1.816 1.172 2.255 2.168.909 2.06-.038 4.482-2.08 5.4-.478.205-.976.323-1.484.342h-.02c-.253 0-.468-.205-.478-.469-.01-.263.195-.488.459-.498.39-.02.771-.107 1.133-.263 1.572-.694 2.295-2.54 1.601-4.121-.341-.762-.947-1.348-1.728-1.65-.781-.303-1.631-.284-2.393.048-.361.156-.683.38-.957.654-.185.186-.498.186-.683 0-.186-.185-.186-.498 0-.683.361-.362.78-.655 1.25-.86zm-8.643 5.469c.264-.04.508.137.547.4.039.264-.137.508-.4.547-.606.088-1.192.244-1.758.46-.05.019-.108.028-.166.028-.196 0-.381-.126-.46-.312-.087-.244.04-.518.284-.615.635-.235 1.289-.41 1.953-.508z" transform="translate(-496 -3063) translate(128 2974) translate(0 72) translate(352)"/>
                    </g>
                </g>
            </g>
        </g>
    </g>
</svg>
