<?xml version="1.0" encoding="UTF-8"?>
<svg xmlns="http://www.w3.org/2000/svg" width="72" height="71" viewBox="0 0 72 71">
  <path fill="#F2C42B" d="M71.985 28.72c0 5.1-4.433 6.864-4.433 6.99h-12.68c1.384-1.814 2.14-4.079 2.14-6.467h-4.265c0 3.342-2.351 6.454-5.347 6.454v.012l-9.048.003V22.668h-4.27l.004 13.042h-9.08c-2.984 0-5.32-2.623-5.32-5.974 0-3.259 2.489-6.401 5.546-6.401V19.07c-5.408 0-9.81 4.564-9.81 10.174 0 2.388.749 4.65 2.122 6.466H6.08v-.08C2.9 35.17.449 32.252.449 28.721c0-3.806 2.85-6.9 6.39-6.973C4.636 16.034 9.965 9.266 16.113 11.4c.425-5.684 6.912-9.306 11.711-5.797 1.911-6.884 11.526-7.45 14.103-.727 5.423-5.106 14.05-1.489 15.163 5.57C63.608 8.48 68.686 16.1 65.693 21.75c3.495.128 6.292 3.197 6.292 6.97zM24.732 56.26c0 1.176-.954 2.133-2.134 2.133l-9.595-.003C12.156 60.506 10.087 62 7.668 62c-3.17 0-5.741-2.571-5.741-5.744 0-3.17 2.57-5.741 5.74-5.741 2.42 0 4.49 1.494 5.336 3.61h7.464v-13.53h4.265v15.664zm17.227 8.03c0 3.17-2.571 5.741-5.742 5.741-3.17 0-5.74-2.57-5.74-5.741 0-2.42 1.494-4.49 3.61-5.336V40.592h4.265v18.364c2.113.847 3.607 2.916 3.607 5.334zm-3.61-47.489v-5.637h-4.265V16.8h4.265zm15.114 2.966c-1.755-1.508-3.977-2.34-6.258-2.34h-.003l.003 4.268c1.281 0 2.482.45 3.476 1.306zm17.045 36.489c0 3.173-2.57 5.744-5.741 5.744-2.42 0-4.49-1.496-5.336-3.614h-9.432c-1.177.003-2.131-.95-2.131-2.13V40.59h4.265v13.53h7.3c.847-2.113 2.916-3.606 5.334-3.606 3.17 0 5.741 2.57 5.741 5.74z"></path>
</svg>
