<?xml version="1.0" encoding="UTF-8"?>
<svg xmlns="http://www.w3.org/2000/svg" width="51" height="48" viewBox="0 0 51 48">
  <g fill="none" fill-rule="evenodd">
    <g>
      <g>
        <g>
          <g>
            <g>
              <path fill="#083EB1" d="M5.716 28.582V34.3H0v-5.717h5.716zm8.272-7.017c.956 2.463 2.894 4.414 5.348 5.388l-1.446 1.446c-1.806-.87-3.351-2.201-4.478-3.861v.002l-5.79 3.618v-.529c0-.252-.1-.495-.279-.674-.179-.178-.422-.278-.674-.278h-.274l6.08-3.802c-.092-.202-.18-.407-.261-.617zm3.978-.516c.498.831 1.2 1.522 2.042 2.005v2.115c-1.534-.619-2.823-1.72-3.675-3.139zM39.063 8.046v2.248l-5.603 3.502c.555 1.367.839 2.83.839 4.306 0 .072-.003.14-.005.21l5.721 1.429v1.962l-5.918-1.479c-.265 1.389-.782 2.718-1.525 3.92l-1.87-.623c1.358-1.963 1.93-4.366 1.601-6.729-.329-2.365-1.532-4.52-3.375-6.04l1.215-1.47c.964.796 1.79 1.746 2.45 2.808l6.47-4.044zm6.669 11.961v3.811H41.92v-3.81h3.81zM22.866 10.48c4.209 0 7.622 3.414 7.622 7.622 0 1.742-.596 3.43-1.691 4.783l-1.975-.657c1.386-1.33 2.013-3.266 1.667-5.154-.345-1.89-1.614-3.478-3.38-4.23-1.767-.756-3.794-.57-5.394.488-1.603 1.057-2.566 2.85-2.566 4.77 0 .274.02.548.058.817v.003l-1.887.269c-.05-.362-.076-.724-.076-1.089 0-4.208 3.413-7.622 7.622-7.622zm-10.48-4.206l3.096 3.096c.671-.566 1.405-1.055 2.186-1.452l.867 1.695c-1.567.796-2.882 2.01-3.799 3.509-.919 1.498-1.403 3.223-1.398 4.98 0 .291.012.582.04.867l-1.898.172c-.03-.343-.047-.693-.047-1.039 0-.319.014-.638.04-.952H8.574v-1.906h3.218c.427-1.667 1.227-3.215 2.34-4.528l-3.095-3.094h.396c.252 0 .495-.1.674-.278.178-.18.278-.422.278-.675v-.395zm-5.717 8.97v2.858H3.811v-2.858h2.858zM49.542 2.86v8.574h-8.574V2.859h8.574zm-24.77 1.905v2.062c1.145.193 2.257.56 3.291 1.091l-.867 1.696c-1.34-.688-2.825-1.043-4.33-1.038-.581 0-1.162.052-1.734.157h.002l-.345-1.875c.686-.126 1.379-.188 2.077-.188V4.764h1.905zM10.48 0v5.716H4.764V0h5.716zm15.244 0V2.86h-2.858V0h2.858z" transform="translate(-646 -65) translate(0 56) translate(409) translate(190) translate(47.229 9.152)"></path>
              <path fill="#FDCD2D" d="M34.895 30.331c-.231-.61-.706-.916-1.424-.916-.66 0-1.072.306-1.236.916 0-.551-.303-2.048-1.85-2.077-1.545-.03-1.617 2.118-1.624 1.51-.067-1.48-.657-2.22-1.772-2.22-1.67 0-1.69 2.712-1.69 2.378l-.05-2.663-.033-5.643c0-.667-.336-1.646-1.196-1.646-.936 0-1.378.923-1.478 1.553l-.333 12.02-1.12-1.04-.207-1.963c-.036-.285-.29-2.08-1.05-2.286-.405-.111-.955.103-1.26.494-.288.37-.254 2.46-.254 2.46l-.254 2.512c.375 1.833 1.265 3.373 1.265 3.373.456.982 1.383 2.417 1.836 3.263l.154.297c1.244 2.405 2.146 4.482 2.146 4.482l.06.073c.552.662.787.604 2.815.84l2.242.141 2.136-.35 1.517-.697c2.302-4.5 2.62-8.999 2.66-9.853V30.33z" transform="translate(-646 -65) translate(0 56) translate(409) translate(190) translate(47.229 9.152)"></path>
            </g>
          </g>
        </g>
      </g>
    </g>
  </g>
</svg>
