<?xml version="1.0" encoding="UTF-8"?>
<svg xmlns="http://www.w3.org/2000/svg" width="51" height="70" viewBox="0 0 51 70">
  <path fill="#E64949" d="M38.654 29.357l9.944 3.281c1.022.333 1.715 1.287 1.715 2.362v24.858c.003 1.069-.678 2.02-1.69 2.361L26.25 69.677c-.515.174-1.075.174-1.59 0L2.286 62.219c-1.013-.341-1.693-1.292-1.69-2.361V35c-.01-1.057.646-2.001 1.64-2.362l9.944-3.281c.805 1.57 1.883 2.983 3.182 4.176L10.938 35l14.517 4.971L39.897 35l-4.425-1.467c1.3-1.193 2.378-2.607 3.182-4.176zM5.568 38.455v19.613l17.4 5.792V44.247l-17.4-5.792zm13.8-23.754c3.001-2.321 7.062-2.735 10.468-1.063 3.408 1.671 5.565 5.14 5.562 8.933-.003 4.53-3.07 8.486-7.458 9.62v2.81c0 1.373-1.112 2.485-2.485 2.485-1.374 0-2.486-1.112-2.486-2.486v-2.809c-3.673-.948-6.488-3.906-7.252-7.622-.768-3.716.652-7.544 3.65-9.868zm25.973 5.384c1.373 0 2.486 1.113 2.486 2.486 0 1.373-1.113 2.486-2.486 2.486h-2.486c-1.373 0-2.486-1.113-2.486-2.486 0-1.373 1.113-2.486 2.486-2.486zm-37.287 0c1.373 0 2.486 1.113 2.486 2.486 0 1.373-1.113 2.486-2.486 2.486H5.568c-1.373 0-2.486-1.113-2.486-2.486 0-1.373 1.113-2.486 2.486-2.486zM37.759 6.761c.97-.963 2.536-.963 3.505 0 .963.97.963 2.536 0 3.505l-1.74 1.765c-.976.976-2.554.976-3.53 0-.975-.975-.975-2.554 0-3.53zm-27.984.13c.917-.919 2.39-.975 3.375-.13l1.765 1.74c.975.976.975 2.555 0 3.53-.976.976-2.555.976-3.53 0l-1.74-1.765c-.846-.985-.79-2.458.13-3.374zM25.455.2c.658 0 1.292.26 1.758.727.466.466.727 1.1.727 1.759V5.17c0 1.374-1.112 2.486-2.485 2.486-1.374 0-2.486-1.112-2.486-2.486V2.685c0-1.374 1.112-2.486 2.486-2.486z"></path>
</svg>
