<?xml version="1.0" encoding="UTF-8"?>
<svg xmlns="http://www.w3.org/2000/svg" width="78" height="88" viewBox="0 0 78 88">
  <path fill="#17BD85" d="M39 .5c3.262 0 5.963 2.403 6.429 5.536 8.507 1.429 16.224 5.68 21.996 11.995.789-.342 1.66-.531 2.575-.531 3.59 0 6.5 2.91 6.5 6.5 0 1.902-.817 3.613-2.119 4.801C76.43 33.557 77.5 38.703 77.5 44c0 5.57-1.186 10.973-3.438 15.927C75.548 61.116 76.5 62.947 76.5 65c0 3.59-2.91 6.5-6.5 6.5-1.17 0-2.267-.309-3.216-.85-5.702 5.942-13.165 9.935-21.355 11.313C44.964 85.096 42.263 87.5 39 87.5c-3.263 0-5.964-2.404-6.43-5.537-8.189-1.378-15.653-5.37-21.356-11.313-.947.541-2.045.85-3.214.85-3.59 0-6.5-2.91-6.5-6.5 0-2.053.952-3.884 2.438-5.075C1.685 54.973.499 49.57.499 44c0-5.298 1.071-10.445 3.12-15.2C2.316 27.612 1.5 25.902 1.5 24c0-3.59 2.91-6.5 6.5-6.5.915 0 1.786.189 2.575.53 5.772-6.315 13.49-10.565 21.997-11.995C33.037 2.903 35.738.5 39 .5zm0 77c-1.608 0-2.962 1.083-3.373 2.56l-.012.044.012-.044c-.083.3-.127.614-.127.94 0 1.934 1.566 3.5 3.5 3.5s3.5-1.566 3.5-3.5c0-.17-.012-.336-.035-.5l-.015-.091.015.092-.025-.15.01.058c-.01-.064-.023-.126-.037-.188l.027.13c-.014-.075-.03-.148-.049-.22l.022.09c-.012-.055-.026-.109-.04-.162l.018.072c-.016-.063-.033-.125-.053-.186l.034.114c-.017-.06-.035-.121-.055-.18l.021.066c-.015-.05-.032-.1-.05-.149l.029.083c-.04-.119-.086-.234-.138-.346l-.025-.053.025.053c-.025-.055-.052-.109-.08-.162l.055.109c-.026-.054-.053-.106-.082-.158l.027.05c-.034-.066-.07-.13-.109-.193l-.013-.021.013.02-.069-.108.056.088c-.105-.17-.224-.329-.355-.477l-.03-.034.03.034c-.112-.127-.234-.245-.363-.355l-.067-.056-.125-.095c-.079-.058-.16-.112-.244-.163-.07-.044-.143-.085-.217-.123-.093-.048-.187-.091-.284-.131l-.05-.02.05.02c-.408-.166-.854-.258-1.322-.258zm6.176-68.465l-.012.033-.057.162.069-.195c-.035.105-.072.208-.111.31l-.047.115c-.015.039-.03.077-.047.115l-.038.084c-.114.257-.245.504-.391.741l-.004.004c-.178.293-.384.573-.61.835l-.06.069-.093.102-.05.054c-.036.039-.073.077-.11.114l-.058.057-.09.087-.106.098-.06.054-.125.107c-.098.082-.199.162-.302.238-.225.168-.461.321-.708.46l-.077.04c-.127.07-.256.135-.388.195l-.026.01c-.367.168-.752.3-1.153.397-.007 0-.013.002-.02.004-.067.016-.135.031-.204.045l-.068.013c-.058.012-.116.022-.174.032l-.059.008c-.061.01-.123.02-.186.027l-.065.007c-.057.007-.114.013-.172.018l-.08.006c-.056.005-.113.008-.17.011l-.076.003c-.082.003-.165.005-.248.005-.083 0-.166-.002-.248-.005L39 13.5c-.105 0-.21-.003-.315-.008-.06-.002-.122-.006-.182-.01l-.07-.007-.126-.012-.078-.009-.043-.005c-.062-.007-.122-.016-.183-.025l-.058-.01-.179-.03c-.02-.005-.04-.01-.059-.013-.72-.145-1.397-.41-2.009-.771l-.06-.036c-.245-.148-.48-.313-.703-.492-.052-.041-.103-.084-.153-.127l-.085-.073-.04-.035c-.16-.145-.314-.297-.46-.457l-.067-.074-.046-.053c-.556-.64-.988-1.392-1.26-2.218-7.644 1.34-14.586 5.156-19.832 10.8l.175.22.142.193.08.116.059.089.059.092c.034.054.067.108.099.163l.035.06c.27.47.482.977.629 1.511l.012.048c.09.337.153.684.188 1.04l.008.1c.005.05.008.1.011.152l.006.121c.003.087.005.173.005.26 0 3.512-2.785 6.373-6.267 6.496L8 30.5c-.1 0-.199-.002-.297-.007L8 30.5c-.136 0-.27-.004-.405-.013-.101-.006-.202-.014-.301-.025l-.022-.003c-.102-.01-.203-.024-.304-.04l-.049-.01c-.17-.027-.338-.062-.503-.103l-.162-.044C4.445 34.57 3.5 39.215 3.5 44c0 5.12 1.086 10.086 3.148 14.64l.028-.005c.087-.018.175-.034.264-.049l-.292.055c.12-.026.242-.048.363-.066.193-.03.389-.05.587-.063l.118-.006c.094-.004.189-.006.284-.006 3.59 0 6.5 2.91 6.5 6.5 0 .186-.008.371-.023.553l-.007.074c-.083.87-.338 1.69-.73 2.426l-.048.089-.067.118-.069.116-.079.125c-.021.035-.044.07-.067.105 5.2 5.406 11.977 9.054 19.414 10.359.293-.892.774-1.697 1.395-2.37l.077-.08.07-.075.095-.093.07-.068.121-.11.045-.041.085-.074c.126-.108.256-.21.39-.308l.069-.05.057-.04c.105-.073.213-.143.322-.21l.13-.076.082-.047.072-.04.17-.089.032-.016c.348-.173.714-.316 1.094-.426l.043-.011.087-.024.113-.03.103-.024.157-.034.075-.014.124-.023.138-.022.131-.018.058-.007.078-.008.126-.013.072-.006.105-.006c.129-.008.259-.012.39-.012l.26.005.204.011.028.002.082.007c.058.005.115.01.172.017l.079.01.138.019.135.021.12.022.086.017.142.03c.037.01.075.018.112.027l.112.029c.03.007.058.015.087.024l.043.011c.22.064.435.138.645.224l.07.03c.04.015.078.032.116.049l.054.024.02.01.125.058.077.038.033.017.143.074.093.052c.032.017.063.035.095.054.032.018.063.037.093.056.112.067.222.138.33.213l.067.047.063.045c.12.088.238.18.353.276.041.035.083.07.124.107l.086.077.063.06c.151.14.295.29.433.445l.031.037c.415.477.76 1.015 1.022 1.6.007.02.016.038.024.057l.064.148.028.073c.045.112.086.226.124.342 7.437-1.305 14.215-4.954 19.414-10.36-.068-.101-.133-.205-.195-.31-.03-.051-.058-.102-.086-.153l-.035-.063c-.4-.742-.66-1.571-.744-2.452l-.007-.074c-.005-.065-.01-.131-.013-.198l-.004-.077c-.004-.093-.006-.185-.006-.278 0-3.59 2.91-6.5 6.5-6.5.095 0 .19.002.284.006L70 58.5c.135 0 .27.004.403.012.198.012.393.033.586.063l.07.01c.085.015.169.03.252.047l.04.009C73.415 54.086 74.5 49.12 74.5 44c0-4.785-.945-9.43-2.754-13.738l-.162.044c-.165.041-.333.076-.503.105-.016.001-.032.004-.048.007-.101.017-.203.03-.306.042-.007 0-.014 0-.021.002-.1.01-.2.02-.3.026l-.109.005-.064.003L70 30.5c-3.59 0-6.5-2.91-6.5-6.5v-.001l.004-.232c.004-.1.01-.2.018-.3.002-.034.005-.067.009-.1.005-.062.012-.123.02-.185l.01-.078c.024-.173.055-.343.092-.51l.013-.058c.016-.07.033-.14.051-.209.006-.017.01-.035.015-.052.02-.075.042-.15.065-.224l.012-.036c.17-.531.407-1.033.7-1.495l.024-.037c.038-.059.076-.117.116-.174l.028-.04c.03-.044.061-.087.093-.129.076-.104.155-.205.238-.304-5.246-5.645-12.188-9.461-19.832-10.801zM70 61.5c-1.418 0-2.638.842-3.189 2.054l-.07.167c-.156.396-.241.827-.241 1.278l.006.212.002.022c.004.065.01.128.018.191l-.018-.19c.005.077.012.155.023.231l-.005-.041c.008.07.019.14.032.21l-.027-.169c.01.077.023.153.038.229l-.011-.06c.053.293.143.575.267.84l.03.064-.03-.063c.031.066.064.132.1.196l-.07-.133c.029.06.06.117.091.174l-.021-.04c.178.327.41.626.688.886l.073.069c.617.543 1.427.873 2.314.873 1.934 0 3.5-1.566 3.5-3.5 0-1.595-1.066-2.94-2.525-3.363l-.056-.017.056.017c-.065-.018-.131-.035-.198-.05l.142.033c-.06-.016-.122-.031-.184-.044l.042.01c-.063-.014-.126-.026-.19-.037l.148.027c-.062-.014-.125-.025-.189-.035l.041.008c-.066-.011-.133-.02-.2-.028l.16.02c-.06-.01-.122-.017-.183-.023l.023.003c-.127-.014-.256-.021-.387-.021zm-62 0c-.125 0-.249.007-.37.02h-.015.014c-.059.006-.117.013-.175.022l.161-.022c-.068.007-.136.016-.203.028l.042-.006c-.065.01-.129.022-.192.036l.15-.03c-.061.01-.122.022-.183.035l.033-.005c-.208.045-.41.108-.603.188-.046.018-.092.039-.138.06l.138-.06C5.391 62.292 4.5 63.54 4.5 65c0 1.934 1.566 3.5 3.5 3.5.881 0 1.687-.326 2.302-.863l.084-.08c.707-.66 1.113-1.573 1.113-2.558 0-.788-.26-1.515-.699-2.1-.448-.596-1.082-1.044-1.816-1.259l-.114-.032c-.278-.07-.57-.108-.87-.108zm37.98-14.471c3.46 2.29 5.743 6.216 5.744 10.678h-25.6c0-4.46 2.282-8.387 5.743-10.678 1.896 1.636 4.361 2.63 7.056 2.63 2.694 0 5.16-.994 7.056-2.63zm-7.057-16.736c4.721 0 8.548 3.828 8.548 8.548 0 4.721-3.827 8.55-8.548 8.55s-8.548-3.829-8.548-8.55c0-4.72 3.827-8.548 8.548-8.548zM8 20.5c-1.934 0-3.5 1.566-3.5 3.5 0 1.403.825 2.612 2.016 3.17.02.012.042.022.063.031l-.063-.03c.062.03.126.057.19.082l-.127-.052c.057.025.114.05.172.071l-.044-.019c.137.055.28.102.425.139.048.013.095.024.143.034l-.143-.034c.074.019.149.035.225.05l-.082-.016c.07.014.141.027.212.037l-.13-.022c.072.013.145.025.218.034l-.088-.012c.069.01.137.018.206.024l-.118-.012c.072.008.145.015.218.019l-.1-.007c.102.009.204.013.306.013 1.934 0 3.5-1.566 3.5-3.5 0-.28-.033-.554-.096-.818-.003-.017-.007-.034-.012-.05l.012.05c-.015-.066-.033-.131-.053-.196l.041.145c-.015-.062-.033-.123-.052-.183l.011.038c-.081-.27-.195-.529-.338-.77l-.024-.04.024.04c-.033-.056-.068-.11-.104-.165l.08.126c-.04-.065-.08-.128-.124-.19l.044.064c-.036-.053-.073-.106-.112-.157l.068.093c-.038-.053-.076-.105-.116-.156l.048.063c-.036-.049-.074-.096-.114-.143l.066.08c-.04-.051-.083-.101-.126-.15l.06.07c-.043-.052-.088-.103-.135-.152l.075.082c-.043-.048-.087-.095-.132-.141l.057.059c-.15-.16-.317-.306-.497-.437-.576-.416-1.284-.662-2.05-.662zm31-17c-1.934 0-3.5 1.566-3.5 3.5 0 .302.038.596.11.876l.018.069-.018-.07c.105.408.281.786.514 1.121l.059.082-.059-.082c.108.155.227.3.357.435l.05.051-.05-.051.068.068-.017-.017c.084.084.173.164.266.24.1.08.204.155.312.225.046.029.091.057.138.084l.143.078.067.034c.466.228.99.357 1.541.357 1.065 0 2.022-.476 2.665-1.23.053-.062.104-.126.153-.191.232-.316.413-.672.53-1.056.009-.024.016-.049.023-.073l-.022.073c.076-.252.126-.516.144-.79l.003-.049c.003-.06.005-.122.005-.184 0-1.934-1.566-3.5-3.5-3.5z"></path>
</svg>
