<?xml version="1.0" encoding="UTF-8"?>
<svg xmlns="http://www.w3.org/2000/svg" width="51" height="84" viewBox="0 0 51 84">
  <path fill="#518DE2" d="M25.128.002l.04.002c.145.01.29.037.43.084l.082.029.008.003.138.06.06.031.063.037.05.03.067.046c.024.016.046.033.068.05l.045.037.063.056.046.044.059.061.037.042.051.064.04.053.054.08c.033.053.063.107.091.164L26.552.85l.04.07.028.055 6.79 13.765 15.157 2.201c.108.014.214.037.318.07.004.003.009.004.013.006.058.017.114.039.17.064l.096.047.009.005c.031.016.062.033.092.052l.034.023c.035.02.068.044.101.068l.015.013c.066.05.13.106.19.167l-.095-.088.022.019.073.07c.1.103.186.215.256.335l.014.026c.018.03.034.061.05.092l.022.05.03.07.039.108.008.025c.075.24.098.501.06.767-.023.157-.066.306-.126.445l-.022.047c-.014.031-.03.062-.046.092l-.024.042c-.02.035-.041.068-.063.101l-.02.029c-.029.041-.06.081-.092.12l-.004.004-.02.023c-.026.03-.053.059-.081.087l-.014.014-10.99 10.715 2.584 15.066c.07.338.043.697-.099 1.034l-.065.137c-.363.687-1.115 1.034-1.84.912l-.012-.004c-.175-.029-.348-.087-.513-.173L26.8 41.396V52.5h12.25c.92 0 1.673.708 1.746 1.606l.006.143-.001 8.75 5.25.001c.917 0 1.67.708 1.744 1.606l.006.143V82.25c0 .965-.785 1.749-1.75 1.749h-42c-.967 0-1.751-.784-1.751-1.749V64.75c0-.965.784-1.749 1.752-1.749H9.3v-8.751c0-.917.706-1.67 1.606-1.743l.144-.006h12.248V41.397L11.464 47.62c-.074.039-.149.072-.225.1-.008 0-.015.003-.023.006-.506.175-1.053.103-1.49-.169l-.03-.019-.053-.035c-.02-.016-.042-.03-.062-.047-.015-.01-.03-.022-.044-.034-.024-.02-.047-.04-.07-.062l-.023-.021c-.027-.026-.053-.052-.079-.08l-.018-.02c-.06-.067-.114-.137-.163-.211-.029-.046-.056-.094-.082-.143l.07.122c-.225-.353-.324-.787-.247-1.231l2.594-15.131L.528 19.934c-.14-.137-.252-.291-.336-.456l-.013-.03c-.017-.03-.031-.061-.044-.093l-.014-.037c-.095-.24-.134-.498-.117-.752l.007-.085.007-.051c.004-.031.01-.062.015-.092l.014-.063c.007-.031.016-.063.025-.095l.013-.04c.01-.034.022-.066.035-.099l.039-.09c.034-.076.074-.148.119-.218l.032-.05c.02-.028.04-.056.062-.083.04-.05.081-.098.126-.144l-.097.109c.027-.034.056-.066.086-.098l.011-.01.005-.006c.073-.074.151-.14.236-.2.023-.018.046-.033.069-.048l.048-.028c.032-.02.064-.039.097-.055.007-.002.014-.006.02-.01.036-.018.071-.034.107-.05.01-.001.018-.005.027-.009.14-.056.286-.093.433-.11l15.147-2.2L23.48.975c.055-.11.12-.213.193-.306l.043-.052.046-.052c.015-.017.032-.035.05-.052l.061-.06.043-.036c.027-.023.054-.045.082-.065l.028-.021c.032-.023.064-.045.098-.066.049-.03.1-.058.153-.084l-.127.068c.168-.1.353-.172.544-.212.083-.017.162-.028.24-.033l.042-.002h.152zm19.171 66.5H5.801v13.997h38.498V66.5zM25.05 5.704l-5.628 11.41c-.144.29-.358.523-.61.688l-.054.033-.05.03-.073.038c-.025.013-.052.025-.078.037l-.039.016c-.033.014-.067.027-.101.038l-.026.009c-.043.014-.085.026-.128.036-.052.012-.105.022-.16.03l.147-.027c-.065.015-.13.027-.197.035L5.509 19.9l9.067 8.838c.056.05.108.104.156.161l.011.016c.32.38.474.891.383 1.417l.013-.094-.003.027-.01.067-2.151 12.54 11.26-5.922.06-.03.057-.026.06-.024c.026-.01.052-.02.078-.028.022-.008.045-.016.068-.022l.063-.017c.028-.008.057-.014.086-.02l.052-.01.083-.012.064-.006.077-.005.068-.001.062.001c.034 0 .067.003.1.006l.027.003c.035.004.07.008.104.014l.053.01.087.02.048.014c.03.007.058.017.088.027l.055.02c.064.024.128.053.19.086l-.11-.053c.026.011.052.023.077.036l.034.017.02.011.015.008 11.227 5.903-2.15-12.54-.003-.017c-.008-.039-.013-.078-.016-.117l-.002-.04c-.004-.036-.006-.073-.006-.11l.001-.04c0-.037.002-.072.004-.108l.005-.047c.003-.034.008-.068.013-.102l.007-.033c.038-.214.117-.42.236-.61l.032-.047c.016-.027.035-.053.054-.078l.022-.028c.047-.06.098-.117.154-.171l-.089.094c.019-.022.038-.043.058-.063l.031-.031 9.115-8.884-12.548-1.822c-.051-.006-.102-.015-.153-.025l-.044-.01c-.003-.002-.006-.002-.01-.003-.04-.01-.08-.02-.12-.033l-.035-.012c-.034-.011-.068-.024-.101-.038l-.034-.015c-.035-.014-.069-.03-.102-.048l-.02-.01c-.036-.019-.07-.04-.104-.06l-.023-.015c-.033-.02-.065-.043-.096-.066l-.015-.012c-.033-.025-.066-.052-.097-.08l-.014-.013c-.099-.088-.188-.19-.266-.302l-.03-.046c-.037-.055-.07-.114-.1-.175l.06.11c-.018-.03-.035-.06-.05-.091l-.01-.019-5.632-11.41z"></path>
</svg>
