<?xml version="1.0" encoding="UTF-8"?>
<svg xmlns="http://www.w3.org/2000/svg" width="36" height="33" viewBox="0 0 36 33">
  <g fill="none" fill-rule="evenodd">
    <g>
      <g>
        <g>
          <g>
            <path fill="#083EB1" d="M4.8 23.7c.18-.48.9-.48 1.08 0l.961 2.28c.061.181.242.362.48.362l2.462.18c.541 0 .78.659.36 1.02l-1.86 1.62c-.18.18-.242.36-.18.6l.538 2.4c.12.54-.42.96-.9.66l-2.1-1.26c-.18-.12-.42-.12-.6 0l-2.1 1.26c-.48.24-1.02-.122-.9-.66l.54-2.4c.058-.24 0-.481-.181-.6l-1.863-1.62c-.359-.3-.178-.959.36-1.02l2.462-.18c.18 0 .42-.18.48-.361zM33.061 27c1.078 0 2.04.839 2.04 1.98 0 1.14-.9 2.04-2.04 2.04h-18.3c-1.141 0-2.041-.84-2.039-1.981 0-1.14.9-2.04 2.04-2.04zM4.8 12.178c.18-.48.9-.48 1.08 0l.961 2.28c.061.18.242.361.48.361l2.462.18c.541 0 .78.66.36 1.02l-1.86 1.62c-.18.18-.242.36-.18.6l.538 2.4c.12.541-.42.96-.9.66l-2.1-1.26c-.18-.12-.42-.12-.6 0l-2.1 1.26c-.48.24-1.02-.121-.9-.66l.54-2.4c.058-.24 0-.48-.181-.6l-1.861-1.62c-.359-.3-.178-.958.36-1.02l2.46-.18c.18 0 .42-.18.48-.36zm9.961 3.242l18.3.002c1.14 0 2.04.9 2.04 2.039 0 1.139-.9 2.039-2.04 2.039h-18.3c-1.141 0-2.041-.9-2.039-2.041 0-1.14.9-2.04 2.04-2.04z" transform="translate(-423 -71) translate(0 56) translate(409) translate(14 15)"></path>
            <path fill="#FDCD2D" d="M4.8.658c.18-.48.9-.48 1.08 0l.961 2.281c.061.18.242.36.48.36l2.462.181c.541 0 .78.659.36 1.02l-1.86 1.62c-.18.18-.242.36-.18.6l.538 2.4c.12.54-.42.96-.9.66l-2.1-1.26c-.18-.12-.42-.12-.6 0l-2.1 1.26c-.48.24-1.02-.122-.9-.66l.54-2.4c.058-.24 0-.481-.181-.6L.537 4.5c-.359-.3-.178-.959.36-1.02L3.36 3.3c.18 0 .42-.18.48-.361zM14.761 3.9l18.3.003c1.14 0 2.04.9 2.04 2.039 0 1.139-.9 2.039-2.04 2.039h-18.3c-1.141 0-2.041-.9-2.039-2.042 0-1.139.9-2.039 2.04-2.039z" transform="translate(-423 -71) translate(0 56) translate(409) translate(14 15)"></path>
          </g>
        </g>
      </g>
    </g>
  </g>
</svg>
