<?xml version="1.0" encoding="UTF-8"?>
<svg xmlns="http://www.w3.org/2000/svg" width="81" height="72" viewBox="0 0 81 72">
  <path fill="#518DE2" fill-rule="evenodd" d="M41.14 0c4.978.007 9.01 3.96 9.018 8.84v14.524h21.438c4.967.021 8.983 3.97 8.99 8.84v19.65c.005 1.749-.525 3.458-1.522 4.907-3.178 5.997-17.836 14.862-17.995 14.953-.313.183-.669.282-1.033.286-.662.006-1.283-.314-1.653-.852-.37-.538-.44-1.222-.187-1.822 1.063-2.81 1.887-5.701 2.462-8.645H39.472c-4.949-.035-8.944-3.975-8.95-8.826V37.317H19.927c.575 2.952 1.398 5.853 2.463 8.671.253.6.183 1.284-.187 1.822s-.991.858-1.653.852c-.364-.004-.72-.103-1.033-.286-.16-.09-14.817-8.956-17.995-14.953C.528 31.978-.002 30.273 0 28.53V8.84C.007 3.96 4.04.006 9.017 0zm30.456 27.258H39.472c-2.783.007-5.037 2.217-5.045 4.945v19.652c.008 2.726 2.264 4.932 5.045 4.932h23.596c.579.012 1.124.268 1.497.701.375.43.54 1 .45 1.558 0 .182-.437 2.998-1.324 6.347 4.489-3.05 10.354-7.476 11.917-10.384.053-.123.12-.24.199-.35.595-.818.91-1.8.9-2.804l-.066-19.652c-.008-2.728-2.262-4.938-5.045-4.945zM47.72 35c2.53 0 4.218 1.718 4.218 4.278.039 1.164-.435 2.289-1.304 3.097.262.126.505.283.726.468.478.287 1.027.443 1.59.452.505.01 1.004-.098 1.455-.318V37.96H52.49V35.11H66v2.85h-2.387V52h-3.109V37.96h-2.973V52h-3.109v-5.917c-.589.16-1.214.144-1.793-.05-.067 2.825-2.012 4.783-4.778 4.783-1.912.003-3.692-.937-4.72-2.491L43 48.134l2.172-2.373.211.374c.211.407 1.012 1.628 2.48 1.628 1.274 0 1.73-.928 1.73-1.799 0-1.062-.625-1.599-1.86-1.599h-1.468v-3.028h1.02c1.468 0 1.687-1.127 1.687-1.799 0-.928-.51-1.506-1.324-1.506-.693.004-1.316.41-1.577 1.03l-.207.383-2.058-2.218.118-.192c.8-1.281 2.245-2.056 3.796-2.035zM41.14 3.894H9.018c-1.35-.017-2.652.496-3.614 1.425-.963.928-1.507 2.196-1.51 3.52v19.626c-.01 1.005.305 1.986.9 2.804.08.114.146.236.199.363 1.615 2.934 7.468 7.347 11.917 10.384-.847-3.349-1.324-6.165-1.324-6.347-.09-.559.075-1.128.45-1.558.38-.429.93-.68 1.51-.688h8.845l4.065.065V32.19c0-.7.09-1.398.265-2.076-1.9-.262-3.725-.903-5.363-1.883-2.54 1.457-5.44 2.198-8.382 2.142l-.148-.005c-1.028-.075-1.838-.915-1.838-1.942 0-1.075.89-1.947 1.986-1.947l.439.002c1.605-.022 3.194-.334 4.686-.923-1.331-1.543-2.38-3.3-3.099-5.192-.395-1.004.115-2.131 1.14-2.519 1.023-.387 2.173.113 2.568 1.117.588 1.6 1.488 3.071 2.648 4.335 1.62-1.924 2.633-4.27 2.913-6.75H16.91c-1.098 0-1.987-.871-1.987-1.947 0-1.075.89-1.947 1.986-1.947h6.184V9.19c0-1.075.89-1.947 1.986-1.947 1.097 0 1.986.872 1.986 1.947v3.465h6.277c1.097 0 1.986.872 1.986 1.947 0 1.076-.89 1.947-1.986 1.947h-1.073c-.304 3.277-1.58 6.394-3.668 8.97 1.299.531 2.685.826 4.092.87 1.71-1.92 4.18-3.022 6.78-3.025h6.713V8.839c-.008-2.728-2.262-4.938-5.045-4.945z"></path>
</svg>
