<?xml version="1.0" encoding="UTF-8"?>
<svg xmlns="http://www.w3.org/2000/svg" width="80" height="80" viewBox="0 0 80 80">
  <path fill="#17BD85" d="M51.953 51.949c4.469-4.473 6.473-10.898 5.894-18.535-1.898-.266-3.847-.652-5.847-1.2l-.313-.077c.242 1.816.309 3.539.219 5.16l-6.187-6.188c-1.477-.101-2.868-.074-4.153.09l9.801 9.805c-.66 2.664-1.883 4.934-3.652 6.707-1.774 1.773-4.055 2.988-6.727 3.648L31.2 41.57c-.164 1.29-.187 2.684-.086 4.156l6.172 6.176c-3.023.172-6.406-.226-10.066-1.222C16.172 47.672 6.828 49.277.907 55.199l4.242 4.242c4.336-4.336 11.613-5.39 20.496-2.972 11.043 3.003 20.387 1.398 26.31-4.52h-.002zm-2.652-32.512c1.898.266 3.847.652 5.851 1.195.11.028.215.055.32.078-.292-2.234-.34-4.335-.132-6.27l7.351 7.356c1.403.024 2.723-.074 3.938-.308L56.05 10.914c.7-2.266 1.828-4.211 3.39-5.77L55.2.902c-4.472 4.469-6.48 10.898-5.898 18.535zM24.528 59.281c.297 2.242.343 4.355.133 6.293l-7.372-7.371c-1.402-.024-2.718.074-3.933.312l10.586 10.59c-.7 2.254-1.828 4.196-3.387 5.754l4.242 4.242c4.473-4.476 6.48-10.901 5.899-18.538-1.899-.266-3.848-.653-5.852-1.196-.101-.031-.207-.054-.316-.086zm29.836-35.754c-11.047-3.004-20.395-1.398-26.312 4.52-4.47 4.472-6.477 10.898-5.899 18.535 1.899.265 3.848.652 5.848 1.199.105.027.207.054.313.078-.793-5.965.23-10.945 2.98-14.438l13.133 13.14c.406-.3.797-.616 1.152-.972.356-.355.672-.742.973-1.152l-13.137-13.13c4.414-3.487 11.215-4.21 19.371-1.987 11.047 3.007 20.391 1.402 26.312-4.52l-4.242-4.242c-4.332 4.336-11.613 5.39-20.492 2.969z"></path>
</svg>
