<?xml version="1.0" encoding="UTF-8"?>
<svg xmlns="http://www.w3.org/2000/svg" width="34" height="40" viewBox="0 0 34 40">
  <g fill="none" fill-rule="evenodd">
    <g>
      <g>
        <g>
          <g>
            <g>
              <path fill="#083EB1" d="M16.44.092c.238-.122.52-.122.76 0 5.196 2.325 10.403 4.64 15.624 6.944.276.095.445.375.4.664-.024 1.924-.024 3.849-.008 5.77v4.615c.022 5.23-1.742 10.31-5 14.4-2.678 3.533-6.41 6.123-10.66 7.392-.496.158-1.03.158-1.527 0-4.6-1.385-8.232-4.12-11.072-7.949C2.735 28.952 1.269 25.48.685 21.813.502 20.66.408 19.496.4 18.329.36 14.765.4 11.2.364 7.64c-.033-.27.138-.524.4-.592C5.991 4.75 11.216 2.43 16.441.092zm.68 3.376c-.198-.1-.43-.1-.627 0-4.328 1.933-8.652 3.86-12.97 5.78-.213.061-.35.27-.323.492 0 2.957-.028 5.916 0 8.872-.003.969.066 1.938.208 2.896.486 3.046 1.705 5.93 3.552 8.4 2.253 3.156 5.489 5.476 9.2 6.6.412.13.856.13 1.268 0 3.528-1.055 6.63-3.206 8.852-6.144 2.701-3.397 4.164-7.612 4.144-11.952V14.58c.008-1.6 0-3.196.017-4.793.036-.244-.11-.478-.345-.551-4.33-1.914-8.655-3.838-12.975-5.768zM16.8 6.2c.086.002.169.019.248.052 3.604 1.6 7.204 3.2 10.8 4.8.186.054.305.236.283.428h.002v7.2c-.004.445-.022.886-.057 1.32H16.8z" transform="translate(-942 -68) translate(0 56) translate(406) translate(484) translate(52 12)"></path>
              <path fill="#FDCD2D" d="M5.676 21.248c.404 2.532 1.418 4.927 2.952 6.98 1.872 2.622 4.558 4.55 7.64 5.484.173.055.35.085.532.088V20H5.528c.031.4.072.836.148 1.248z" transform="translate(-942 -68) translate(0 56) translate(406) translate(484) translate(52 12)"></path>
            </g>
          </g>
        </g>
      </g>
    </g>
  </g>
</svg>
