<?xml version="1.0" encoding="UTF-8"?>
<svg xmlns="http://www.w3.org/2000/svg" width="88" height="82" viewBox="0 0 88 82">
  <path fill="#E64949" d="M61 0c1.106 0 2 .895 2 2 .023 1.23-1.05 1.973-2.219 1.969L59 6.344V17h1v4h2v2h4v1h13.281c.348-.598.98-1 1.719-1 1.105 0 2 .894 2 2 0 1.105-.895 2-2 2-.735 0-1.371-.41-1.719-1H66v1h-4v4h4v1.031h8.969c.18.016.355.082.5.188l3.875 2.78h4.937c.348-.597.98-1 1.72-1 1.105 0 2 .895 2 2 0 1.106-.895 2-2 2-.735 0-1.372-.41-1.72-1h-5.28c-.212.005-.423-.062-.595-.187l-3.875-2.781h-8.53V35h-4v4h4v1h13.28c.348-.598.98-1 1.719-1 1.105 0 2 .894 2 2 0 1.105-.895 2-2 2-.734 0-1.371-.41-1.719-1h-13.28v1h-4v4h4v1h13.187c.16.035.313.11.438.219l3.656 2.906c1.672-.598 2.687.812 2.719 1.875 0 1.105-.895 2-2 2-1.157.011-2.098-.82-1.97-2.313L78.658 50H66v1h-4v4h4v1h4.781l3.25-1.281c.137-.973.961-1.72 1.969-1.72 1.105 0 2 .895 2 2 0 1.106-.895 2-2 2-.473 0-.906-.163-1.25-.437l-3.375 1.344c-.117.055-.246.086-.375.094h-5v1h-4v2h-2v4h-1v10.625l1.781 2.406c1.418-.125 2.188 1 2.219 1.969 0 1.105-.895 2-2 2-1.219.023-2.254-1.211-1.844-2.781l-1.969-2.625c-.125-.172-.191-.383-.187-.594V65h-1v-4h-4v4h-1v4.719l.156.28c1.031.079 1.844.95 1.844 2 0 1.106-.895 2-2 2-1.106 0-2-.894-2-2 0-.398.11-.78.312-1.093l-.218-.469c-.063-.136-.098-.285-.094-.437v-5h-1v-4h-4v4h-1v4.562l4.875 4.875c.183.192.289.453.281.719l-.094 3.156c.563.356.938.973.938 1.688 0 1.105-.895 2-2 2-1.106 0-2-.895-2-2 0-.766.433-1.414 1.062-1.75l.094-2.688-4.875-4.875c-.176-.183-.277-.433-.281-.687v-5h-1v-4h-4v4h-1v4.562l4.5 4.5c1.601-.324 2.469.93 2.5 1.938 0 1.105-.895 2-2 2-1.219 0-2.13-.918-1.938-2.531l-4.78-4.782c-.177-.183-.278-.433-.282-.687v-5h-1v-4h-4v4h-1v5c-.004.254-.106.504-.281.687l-4.782 4.782c.38 1.543-.914 2.5-1.937 2.53-1.106 0-2-.894-2-2-.031-1.32.883-2.171 2.5-1.937l4.5-4.5V65h-1v-4h-2v-2h-4v-1H7.126L3.97 59.25C3.837 60.226 3.013 61 2 61c-1.105 0-2-.895-2-2 0-1.106.895-2 2-2 .466 0 .88.172 1.22.437l3.406-1.375c.121-.047.246-.066.375-.062h11v-1h4v-4h-4v-1H15.72c-.348.59-.985 1-1.72 1-1.105 0-2-.895-2-2 0-1.106.895-2 2-2 .74 0 1.372.402 1.72 1H18v-1h4v-4h-4v-1h-3.562l-4.062 4.75c-.192.222-.488.351-.781.344l-4.907-.063c-.351.566-.972.969-1.687.969-1.106 0-2-.895-2-2 0-1.106.894-2 2-2 .754 0 1.41.414 1.75 1.031l4.406.062 4.094-4.75c.187-.214.465-.343.75-.343h4v-1h4v-4h-4v-1h-7c-.27-.004-.535-.117-.719-.313L7.595 31H4.72c-.348.59-.985 1-1.72 1-1.105 0-2-.895-2-2 0-1.106.895-2 2-2 .74 0 1.372.402 1.72 1h3.469c.199.035.386.136.53.281L11.44 32H18v-1h4v-4h-4v-1h-11c-.215-.008-.426-.086-.594-.219l-2.593-1.937C3.567 23.953 3.286 24 3 24c-1.106 0-2-.895-2-2 0-1.106.895-2 2-2 1.148-.016 1.988.965 1.969 2.219l2.375 1.78H18v-1h4v-2h2v-4h1V3.72c-.598-.348-1-.98-1-1.72 0-1.105.894-2 2-2 1.105 0 2 .895 2 2 0 .74-.403 1.372-1 1.72v13.28h1v4h4v-4h1v-5c-.004-.128.02-.253.062-.374l1.375-3.438c-.261-.336-.437-.726-.437-1.187 0-1.106.894-2 2-2 1.105 0 2 .894 2 2 0 1.008-.746 1.832-1.719 1.969l-1.281 3.218V17h1v4h4v-4h1v-4.688l-.875-1.343c-1.32.043-2.098-.848-2.125-1.97 0-1.105.894-2 2-2 1.105 0 2 .895 2 2 0 .321-.086.61-.219.876l1.063 1.562c.105.168.16.364.156.563v5h1v4h4v-4h1v-4.594l-4.719-4.719c-.176-.183-.277-.433-.281-.687V3.718c-.598-.347-1-.98-1-1.718 0-1.106.894-2 2-2 1.105 0 2 .894 2 2 0 .738-.403 1.37-1 1.718v2.844l4.719 4.72c.183.19.289.452.28.718v5h1v4h4v-4h1V6c-.007-.223.06-.446.188-.625l1.97-2.594C59.055 2.543 59 2.277 59 2c0-1.106.894-2 2-2H61zM50 32c-.55 0-1 .45-1 1s.45 1 1 1 1-.45 1-1-.45-1-1-1zm-4 0c-.55 0-1 .45-1 1s.45 1 1 1 1-.45 1-1-.45-1-1-1zm-4 0c-.55 0-1 .45-1 1s.45 1 1 1 1-.45 1-1-.45-1-1-1zm-4 0c-.55 0-1 .45-1 1s.45 1 1 1 1-.45 1-1-.45-1-1-1zm-4 0c-.55 0-1 .45-1 1s.45 1 1 1 1-.45 1-1-.45-1-1-1zm16 4c-.55 0-1 .45-1 1s.45 1 1 1 1-.45 1-1-.45-1-1-1zm-4 0c-.55 0-1 .45-1 1s.45 1 1 1 1-.45 1-1-.45-1-1-1zm-4 0c-.55 0-1 .45-1 1s.45 1 1 1 1-.45 1-1-.45-1-1-1zm-4 0c-.55 0-1 .45-1 1s.45 1 1 1 1-.45 1-1-.45-1-1-1zm-4 0c-.55 0-1 .45-1 1s.45 1 1 1 1-.45 1-1-.45-1-1-1zm16 4c-.55 0-1 .45-1 1s.45 1 1 1 1-.45 1-1-.45-1-1-1zm-4 0c-.55 0-1 .45-1 1s.45 1 1 1 1-.45 1-1-.45-1-1-1zm-4 0c-.55 0-1 .45-1 1s.45 1 1 1 1-.45 1-1-.45-1-1-1zm-4 0c-.55 0-1 .45-1 1s.45 1 1 1 1-.45 1-1-.45-1-1-1zm-4 0c-.55 0-1 .45-1 1s.45 1 1 1 1-.45 1-1-.45-1-1-1zm16 4c-.55 0-1 .45-1 1s.45 1 1 1 1-.45 1-1-.45-1-1-1zm-4 0c-.55 0-1 .45-1 1s.45 1 1 1 1-.45 1-1-.45-1-1-1zm-4 0c-.55 0-1 .45-1 1s.45 1 1 1 1-.45 1-1-.45-1-1-1zm-4 0c-.55 0-1 .45-1 1s.45 1 1 1 1-.45 1-1-.45-1-1-1zm-4 0c-.55 0-1 .45-1 1s.45 1 1 1 1-.45 1-1-.45-1-1-1zm16 4c-.55 0-1 .45-1 1s.45 1 1 1 1-.45 1-1-.45-1-1-1zm-4 0c-.55 0-1 .45-1 1s.45 1 1 1 1-.45 1-1-.45-1-1-1zm-4 0c-.55 0-1 .45-1 1s.45 1 1 1 1-.45 1-1-.45-1-1-1zm-4 0c-.55 0-1 .45-1 1s.45 1 1 1 1-.45 1-1-.45-1-1-1zm-4 0c-.55 0-1 .45-1 1s.45 1 1 1 1-.45 1-1-.45-1-1-1z"></path>
</svg>
