<?xml version="1.0" encoding="UTF-8"?>
<svg xmlns="http://www.w3.org/2000/svg" width="41" height="37" viewBox="0 0 41 37">
  <g fill="none" fill-rule="evenodd">
    <g>
      <g>
        <g>
          <g>
            <g>
              <path fill="#083EB1" d="M19.42.01c-.148.018-.293.063-.426.133L.696 9.504C.27 9.722 0 10.161 0 10.641s.27.92.696 1.137l4.854 2.487-4.854 2.473C.27 16.956 0 17.395 0 17.875s.27.92.696 1.137L5.55 21.5.696 23.972C.27 24.19 0 24.63 0 25.11s.27.92.696 1.137l18.298 9.362c.368.19.803.19 1.17 0l18.298-9.362c.428-.217.697-.658.697-1.137 0-.48-.27-.919-.697-1.137L33.61 21.5l4.853-2.487c.428-.217.697-.656.697-1.137 0-.48-.27-.919-.697-1.137l-4.853-2.473 4.853-2.487c.428-.217.697-.656.697-1.137 0-.48-.27-.919-.697-1.137L20.165.143c-.23-.118-.49-.165-.745-.133zm.16 2.712l15.491 7.926L19.58 18.56 4.088 10.648l15.491-7.926zM8.342 15.688l10.651 5.452c.368.19.803.19 1.17 0l10.652-5.452 4.255 2.18-15.492 7.926L4.088 17.87l4.255-2.181zm0 7.234l10.651 5.452c.368.19.803.19 1.17 0l10.652-5.452 4.255 2.18-15.492 7.926-15.491-7.925 4.255-2.181z" transform="translate(-517 -70) translate(0 56) translate(409) translate(96) translate(12.42 14.423)"></path>
              <path fill="#FDCD2D" d="M19.579 2.722L35.071 10.648 19.579 18.56 4.088 10.648z" transform="translate(-517 -70) translate(0 56) translate(409) translate(96) translate(12.42 14.423)"></path>
            </g>
          </g>
        </g>
      </g>
    </g>
  </g>
</svg>
