<svg xmlns="http://www.w3.org/2000/svg" width="19" height="24" viewBox="0 0 19 24">
    <g fill="none" fill-rule="evenodd">
        <g fill="#000" fill-rule="nonzero">
            <g>
                <g>
                    <path d="M9.3 14.42c-.213.018-.397.16-.468.362-.072.202-.018.427.136.576l2.335 2.335-2.335 2.344c-.214.214-.214.561 0 .776.214.214.562.214.776 0l2.343-2.336 2.336 2.336c.214.214.561.214.775 0 .214-.215.214-.562 0-.776l-2.343-2.344 2.343-2.335c.163-.158.212-.398.124-.607-.09-.208-.297-.34-.524-.33-.14.003-.275.06-.375.161l-2.336 2.344-2.343-2.344c-.104-.105-.244-.163-.392-.162H9.3z" transform="translate(-465 -4938) translate(0 4392) translate(465 546)"/>
                    <path d="M10.373 0C9.2 0 8.251.992 8.251 2.173v.307c-.305-.174-.657-.273-1.031-.273-1.174 0-2.13.985-2.13 2.165v9.563l-.887-1.483c-.482-.803-1.252-1.19-1.986-1.194-.333-.003-.658.078-.946.23-.46.246-.83.689-.955 1.245-.124.556.006 1.193.392 1.832l5.49 9.085c.163.284.312.35.613.35h10.38c.897 0 1.628-.753 1.628-1.654V7.85c0-1.18-.947-2.165-2.122-2.165-.377 0-.733.104-1.04.282v-.972c0-1.181-.949-2.165-2.122-2.165-.374 0-.727.1-1.031.273v-.929C12.504.992 11.548 0 10.374 0zm0 1.09c.565 0 1.04.481 1.04 1.083v9.648c0 .792 1.09.756 1.09 0V4.994c0-.603.466-1.073 1.032-1.073.562 0 1.031.471 1.031 1.073v6.827c0 .77 1.091.779 1.091 0V7.85c0-.602.48-1.074 1.04-1.074.565 0 1.031.47 1.031 1.074v14.497c0 .321-.25.562-.537.562H7.024l-5.387-8.906c-.276-.457-.309-.792-.255-1.031.053-.24.196-.411.4-.52.408-.217 1.043-.184 1.492.562l1.858 3.103c.312.54 1.048.256 1.048-.299V4.372c0-.603.474-1.074 1.04-1.074.566 0 1.031.471 1.031 1.074v7.449c0 .774 1.091.773 1.091 0V2.173c0-.602.47-1.082 1.031-1.082z" transform="translate(-465 -4938) translate(0 4392) translate(465 546)"/>
                </g>
            </g>
        </g>
    </g>
</svg>
