<?xml version="1.0" encoding="UTF-8"?>
<svg xmlns="http://www.w3.org/2000/svg" width="12" height="12" viewBox="0 0 12 12">
  <g fill="none" fill-rule="evenodd">
    <g fill="#E64949" fill-rule="nonzero">
      <g>
        <g>
          <path d="M6.427 4H5.57c-.353 0-.644.292-.644.645 0 .245.173.374.279.474.105.101.145.173.145.166l.004.265c-.832.12-1.59.465-2.21.975L2.95 6.35c.013.012.002.007-.005-.035-.008-.041-.01-.108-.012-.183-.005-.151.013-.365-.17-.531-.26-.238-.67-.22-.908.04l-.576.635c-.238.26-.22.67.04.908.182.165.392.124.538.114.146-.011.227.01.221.004l.198.176c-.375.552-.628 1.19-.728 1.88h-.264c.018 0 .008.003-.025-.022-.034-.026-.08-.072-.133-.126-.106-.109-.237-.28-.484-.28-.353 0-.642.29-.642.643v.855c0 .353.29.644.642.644.245 0 .374-.172.474-.278.1-.106.174-.146.166-.146v.002h.002l.265-.004c.117.816.453 1.56.946 2.174l-.18.194c.013-.013.01-.003-.033.003-.041.006-.108.01-.183.01-.152.004-.366-.017-.535.164-.24.258-.225.67.033.91l.627.583c.258.24.669.226.91-.032.167-.18.128-.392.12-.537-.01-.146.01-.228.006-.222l.178-.195c.56.39 1.212.651 1.917.752v.266c0-.018.003-.009-.022.025-.026.033-.072.08-.126.133-.109.105-.28.236-.28.483 0 .353.291.644.643.644h.858c.352 0 .642-.291.642-.644 0-.245-.171-.374-.277-.474-.105-.101-.147-.173-.147-.166l-.003-.266c.832-.12 1.591-.466 2.211-.976l.194.177c-.013-.012-.002-.008.005.034.008.04.009.109.01.184.006.152-.013.365.17.532.26.237.672.219.91-.041l.577-.634c.237-.26.217-.67-.043-.908-.182-.166-.392-.124-.538-.114-.145.01-.227-.01-.22-.005l-.199-.176c.375-.552.628-1.19.727-1.88h.265c-.017 0-.008-.004.026.022.033.025.081.072.134.127.106.108.235.28.483.28.352 0 .643-.292.643-.644V9.57c0-.352-.292-.642-.644-.642-.246 0-.374.173-.475.279-.1.105-.174.145-.166.145l-.266.003c-.117-.816-.452-1.56-.947-2.174l.18-.193c-.012.013-.008.003.033-.004.042-.006.11-.009.185-.01.152-.003.364.016.533-.165.24-.257.226-.668-.031-.908l-.629-.583c-.257-.24-.667-.226-.908.032-.167.18-.129.392-.12.538.01.145-.01.227-.006.221l-.178.195c-.56-.39-1.214-.652-1.92-.753v-.264c0 .017-.003.008.023-.026.025-.033.073-.08.128-.133.108-.106.278-.237.278-.484 0-.353-.29-.644-.642-.644h.001zM4.283 8.285c.475 0 .855.382.855.858s-.38.857-.855.857c-.476 0-.858-.381-.858-.857s.382-.858.858-.858zm4.074 2.782c.12 0 .213.094.213.214 0 .121-.093.215-.213.215-.121 0-.216-.094-.216-.215 0-.12.095-.214.216-.214zm-1.722.43c.24 0 .428.189.428.428 0 .24-.189.428-.428.428-.24 0-.429-.189-.429-.428 0-.24.19-.429.429-.429z" transform="translate(-144 -436) translate(128 425) translate(16 7)"></path>
        </g>
      </g>
    </g>
  </g>
</svg>
