<?xml version="1.0" encoding="UTF-8"?>
<svg xmlns="http://www.w3.org/2000/svg" width="14" height="16" viewBox="0 0 14 16">
  <g fill="none" fill-rule="evenodd">
    <g fill="#17BD85" fill-rule="nonzero">
      <g>
        <g>
          <path d="M.355 12.182l.935.308v2.292c0 .599.485 1.084 1.083 1.084h2.332l.489 1.697c.044.153.146.283.286.361.14.078.304.097.457.053l6.237-1.782c.154-.043.283-.146.361-.286.078-.14.097-.304.053-.457l-.924-3.234c1.393-1.445 1.975-3.488 1.555-5.45-.42-1.962-1.79-3.587-3.652-4.334-1.862-.747-3.975-.52-5.635.608C2.272 4.17 1.282 6.05 1.29 8.056c0 .41-.086.815-.253 1.19l-.994 2.233c-.058.134-.057.287.002.42.06.133.172.236.31.282zm7.01.163c-.264 0-.501-.159-.602-.403-.1-.243-.046-.524.141-.71.187-.187.467-.242.71-.142.245.101.403.339.403.603-.003.355-.29.642-.646.645l-.006.007zm-1.99-6.312c.364-.764 1.133-1.25 1.979-1.254h.013c1.195.008 2.171.955 2.217 2.149.033.974-.578 1.855-1.503 2.165-.017 0-.06.028-.06.055v.515c0 .36-.292.652-.653.652-.36 0-.652-.291-.652-.652v-.515c.007-.587.386-1.105.944-1.288.381-.128.633-.491.62-.893-.027-.492-.429-.878-.921-.885-.35.002-.666.203-.815.518-.17.3-.542.417-.852.267-.31-.15-.45-.514-.32-.832l.002-.002z" transform="translate(-144 -492) translate(128 483) translate(16 7)"></path>
        </g>
      </g>
    </g>
  </g>
</svg>
