<svg xmlns="http://www.w3.org/2000/svg" width="143" height="71" viewBox="0 0 143 71">
    <g fill="none" fill-rule="evenodd">
        <rect width="143" height="71" fill="#FFF" rx="7"/>
        <g fill="#17BD85">
            <path d="M75.748 5.132c.478-.425.238-1.22-.398-1.274l-2.944-.238c-.266-.027-.504-.185-.61-.45L70.654.437c-.239-.583-1.088-.583-1.326 0L68.188 3.17c-.106.238-.345.424-.61.45l-2.917.265c-.636.053-.901.849-.398 1.274l2.228 1.91c.212.185.292.45.238.715l-.69 2.865c-.16.61.53 1.113 1.061.768l2.52-1.538c.238-.133.53-.133.743 0l2.52 1.538c.557.345 1.22-.16 1.06-.768l-.69-2.865c-.053-.265.027-.53.238-.716l2.257-1.936zM59.748 5.132c.478-.425.238-1.22-.398-1.274l-2.944-.238c-.266-.027-.504-.185-.61-.45L54.654.437c-.239-.583-1.088-.583-1.326 0L52.188 3.17c-.106.238-.345.424-.61.45l-2.917.265c-.636.053-.901.849-.398 1.274l2.228 1.91c.212.185.292.45.238.715l-.69 2.865c-.16.61.53 1.113 1.061.768l2.52-1.538c.238-.133.53-.133.743 0l2.52 1.538c.557.345 1.22-.16 1.06-.768l-.69-2.865c-.053-.265.027-.53.238-.716l2.257-1.936zM43.748 5.132c.478-.425.238-1.22-.398-1.274l-2.944-.238c-.266-.027-.504-.185-.61-.45L38.654.437c-.239-.583-1.088-.583-1.326 0L36.188 3.17c-.106.238-.345.424-.61.45l-2.917.265c-.636.053-.901.849-.398 1.274l2.228 1.91c.212.185.292.45.238.715l-.69 2.865c-.16.61.53 1.113 1.061.768l2.52-1.538c.238-.133.53-.133.743 0l2.52 1.538c.557.345 1.22-.16 1.06-.768l-.69-2.865c-.053-.265.027-.53.238-.716l2.257-1.936zM27.748 5.132c.478-.425.238-1.22-.398-1.274l-2.944-.238c-.266-.027-.504-.185-.61-.45L22.654.437c-.239-.583-1.088-.583-1.326 0L20.188 3.17c-.106.238-.345.424-.61.45l-2.917.265c-.636.053-.901.849-.398 1.274l2.228 1.91c.212.185.292.45.238.715l-.69 2.865c-.16.61.53 1.113 1.061.768l2.52-1.538c.238-.133.53-.133.743 0l2.52 1.538c.557.345 1.22-.16 1.06-.768l-.69-2.865c-.053-.265.027-.53.238-.716l2.257-1.936zM11.748 5.132c.478-.425.238-1.22-.398-1.274L8.406 3.62c-.266-.027-.504-.185-.61-.45L6.654.437c-.239-.583-1.088-.583-1.326 0L4.188 3.17c-.106.238-.345.424-.61.45L.66 3.885c-.636.053-.901.849-.398 1.274l2.228 1.91c.212.185.292.45.238.715l-.69 2.865c-.16.61.53 1.113 1.061.768L5.62 9.88c.238-.133.53-.133.743 0l2.52 1.538c.557.345 1.22-.16 1.06-.768l-.69-2.865c-.053-.265.027-.53.238-.716l2.257-1.936z" transform="translate(34 30)"/>
        </g>
    </g>
</svg>
