<svg xmlns="http://www.w3.org/2000/svg" width="40" height="51" viewBox="0 0 40 51">
    <g fill="none" fill-rule="evenodd">
        <g fill-rule="nonzero">
            <g>
                <path fill="#E64949" d="M20 0c11.047 0 20 9.03 20 20.174 0 9.613-6.715 17.625-15.668 19.664L20 50.253l-4.332-10.415C6.715 37.798 0 29.788 0 20.174 0 9.03 8.953 0 20 0z" transform="translate(-839 -1733) translate(839 1733)"/>
                <path fill="#FFF" d="M13.158 14.525l4.53 15.389-1.159.347L12 14.87l1.158-.346zm8.69-.403l.458 2.537h6.236l-5.276 4.327-.99-1.971-6.193 2.829-1.985-6.674 7.75-1.048z" transform="translate(-839 -1733) translate(839 1733)"/>
            </g>
        </g>
    </g>
</svg>
