<svg xmlns="http://www.w3.org/2000/svg" width="60" height="65" viewBox="0 0 60 65">
    <g fill="none" fill-rule="evenodd">
        <g fill="#FFF" fill-rule="nonzero">
            <g>
                <g>
                    <path d="M38.936 59.955c5.35 0 9.784 3.993 10.48 9.146H60v2.862H49.413c-.186 1.37-.638 2.689-1.333 3.878l-2.476-1.44c.682-1.173 1.045-2.512 1.045-3.868 0-4.25-3.457-7.705-7.713-7.705-1.073 0-2.112.215-3.085.635l-1.144-2.627c1.339-.586 2.761-.881 4.23-.881zM19.008 61.57c1.76 0 3.458.51 4.923 1.465l-1.574 2.39c-.996-.653-2.152-1.002-3.349-1.002-3.37 0-6.101 2.739-6.101 6.101 0 1.28.395 2.505 1.13 3.543l-2.326 1.669c-.808-1.131-1.335-2.416-1.552-3.772H0v-2.862h10.16c.687-4.265 4.393-7.532 8.848-7.532zm16.359 8.456l-2.759.77c-.33-1.168-1.545-1.855-2.713-1.523l-.773-2.753c2.69-.759 5.49.816 6.245 3.506zm-7.521-17.48v6.359h-2.862v-6.36h2.862zm7.167 0v4.049H32.15v-4.05h2.862zM29.998 11l9.296 8.529c1.208 1.11 1.903 2.684 1.903 4.327l-.001 7.709 7.877 3.961c1.179.595 1.917 1.789 1.917 3.114v9.727h-9.796v2.74H18.808l-.001-2.74h-9.8v-9.73c0-1.322.738-2.519 1.917-3.114l7.883-3.964v-7.703c0-1.637.693-3.22 1.904-4.327L29.998 11zm0 3.884l-7.356 6.754c-.62.572-.973 1.38-.973 2.218v6.264h.001v18.124h16.656V30.123l.005.002v-6.27c0-.844-.357-1.653-.973-2.217l-7.36-6.754zM18.806 34.759l-6.595 3.32c-.206.108-.344.314-.344.55v6.876h6.939V34.759zm22.389.012l-.001 10.734h6.933v-6.868c0-.235-.129-.452-.343-.55l-6.589-3.316zm-9.632-11.888c2.012 0 3.649 1.637 3.649 3.648H32.35c0-.435-.358-.787-.787-.787h-3.12c-.435 0-.787.358-.787.787h-2.862c0-2.009 1.637-3.648 3.65-3.648h3.119z" transform="translate(-158 -1205) translate(128 1170) translate(30 24)"/>
                </g>
            </g>
        </g>
    </g>
</svg>
