<svg xmlns="http://www.w3.org/2000/svg" width="120" height="120" viewBox="0 0 120 120">
    <path fill="#17BD85" d="M30.45 106.583c1.14-.855 2.734-.743 3.746.269 1.006 1.006 1.118 2.6.263 3.74l-8.59 8.59c-1.112 1.09-2.896 1.09-4.009 0-1.09-1.113-1.09-2.896 0-4.01zm-10.445-10.59c1.135-.856 2.734-.744 3.74.262 1.007 1.007 1.119 2.606.263 3.741L7.121 116.89c-.498.665-1.264 1.08-2.092 1.14-.827.057-1.638-.245-2.225-.833-.587-.587-.89-1.398-.833-2.225.061-.828.475-1.594 1.14-2.091zm50.818-81.459C78.266 7.091 96.3-4.076 116.486 1.51c.973.263 1.74 1.03 2.002 2.002 5.587 20.188-5.58 38.222-12.882 45.81L84.133 70.795l3.294 10.166c2.18 6.654.408 13.974-4.58 18.895l-6.297 6.297c-1.113 1.09-2.896 1.09-4.01 0l-13.738-13.74h-.146l-13.029 7.728c-1.14.61-2.55.375-3.433-.57L20.29 77.807c-.9-.917-1.074-2.32-.43-3.433l7.873-13.024-13.745-13.745c-1.09-1.113-1.09-2.897 0-4.01h.005L20.29 37.3c4.92-4.988 12.234-6.766 18.894-4.585l10.167 3.293zM113.34 6.66c-16.894-3.864-31.925 5.587-38.367 11.883l-22.904 22.62c-.75.75-1.851 1.023-2.863.716l-11.883-3.864c-4.591-1.471-9.613-.258-13.024 3.148h-.005l-4.295 4.295 13.315 13.314 27.774 27.769 13.314 13.315 4.295-4.295c3.4-3.411 4.619-8.438 3.148-13.03L77.98 70.65c-.313-1.012-.039-2.114.716-2.863l22.758-22.76c6.299-6.296 15.749-21.328 11.885-38.366zM11.499 84.4c.828-.056 1.639.246 2.226.833s.89 1.398.833 2.225c-.061.828-.475 1.594-1.14 2.092l-8.59 8.589c-.531.537-1.247.844-2.002.856-1.146-.017-2.175-.71-2.611-1.773-.436-1.057-.196-2.276.604-3.092l8.59-8.59c.497-.665 1.257-1.079 2.09-1.14zm20.387-18.901l-5.872 9.875 18.61 18.61L54.5 88.12l-22.614-22.62zm50.098-41.083c3.758-3.758 9.848-3.758 13.6 0 3.758 3.752 3.758 9.841 0 13.6-3.752 3.751-9.842 3.751-13.6 0-3.752-3.759-3.752-9.848 0-13.6zm7.65 3.058c-1.806-.374-3.624.582-4.34 2.282-.715 1.7-.128 3.674 1.399 4.703 1.526 1.034 3.573.844 4.887-.453l.162-.171c.625-.702.973-1.608.979-2.553.016-1.84-1.281-3.439-3.087-3.808z"/>
</svg>
