<?xml version="1.0" encoding="UTF-8"?>
<svg xmlns="http://www.w3.org/2000/svg" width="48" height="48" viewBox="0 0 48 48">
  <path fill="#E64949" d="M9.004 36.596l2.424 2.424-8.607 8.607-2.424-2.424 8.607-8.607zm5.8 1.525l2.424 2.424-5.333 5.332-2.424-2.424 5.332-5.332zM47.142.857v1.714c0 9.463-3.019 17.556-8.68 23.845l-.35.383c.727 1.58 1.115 3.292 1.144 5.029.156 2.951-.873 5.842-2.857 8.031-1.91 2.104-4.55 3.392-7.375 3.607l-.34.02-1.714.114-.4-8.457c-2.465 1.109-5.037 1.959-7.677 2.535l-.722.15h-.627c-1.828 0-3.828-1.714-4.571-2.458-.744-.743-3.143-3.428-2.63-6 .491-2.512 1.256-4.96 2.285-7.305l.287-.636-8.458-.4.114-1.714c.093-2.956 1.395-5.746 3.6-7.714 2.18-1.978 5.06-3.005 8-2.858 1.737.03 3.449.418 5.03 1.143C27.414 4.118 35.443.984 44.85.861l.578-.004h1.714zM7.516 30.8l2.424 2.424-4.848 4.849-2.425-2.425L7.516 30.8zM33.522 10c-1.186.007-2.325.472-3.179 1.298-.846.843-1.329 1.985-1.343 3.18.025 2.488 2.034 4.498 4.522 4.522 1.115-.013 2.184-.434 3.007-1.179l.173-.164c.825-.854 1.29-1.993 1.298-3.179.012-1.191-.455-2.339-1.298-3.18-.842-.843-1.99-1.31-3.18-1.298z"></path>
</svg>
