<?xml version="1.0" encoding="UTF-8"?>
<svg xmlns="http://www.w3.org/2000/svg" width="32" height="20" viewBox="0 0 32 20">
  <g fill="none" fill-rule="evenodd">
    <g fill="#000" fill-rule="nonzero">
      <g>
        <g>
          <g>
            <path d="M31.99 18.77l12.13 12.132h-5.538v5.933c1.846 0 3.296.132 3.296.396 0 .263-1.978.527-4.22.527-2.374 0-4.22-.264-4.22-.527 0-.264 1.319-.396 3.164-.396v-5.933h-.527L23.812 18.77h8.178zm-18.987 3.428l8.702 8.703H20.65v5.933c1.846 0 3.296.132 3.296.396s-1.979.527-4.22.527c-2.374 0-4.22-.263-4.22-.527s1.319-.396 3.164-.396v-5.933H13v-8.703h.002zm7.645-3.955v.527h.132L32.91 30.9h-8.042L13 19.034v-.264h5.67v-.527h1.978zm17.932 0v.527h5.67V28l-9.23-9.23h1.582v-.527h1.978z" transform="translate(-1117 -268) translate(508 250) translate(552) translate(44)"></path>
          </g>
        </g>
      </g>
    </g>
  </g>
</svg>
