<?xml version="1.0" encoding="UTF-8"?>
<svg xmlns="http://www.w3.org/2000/svg" width="28" height="24" viewBox="0 0 28 24">
  <g fill="none" fill-rule="evenodd">
    <g fill="#000" fill-rule="nonzero">
      <g>
        <g>
          <path d="M82.608 31.265l-2.06 8.271-18.326-.019s1.52-9.29 5.483-11.105c6.889-3.147 14.903 2.853 14.903 2.853zM66.18 28.33c-1.01.784-1.859 2-2.556 3.365h-2.26l.001 6.115c0 .93-.753 1.684-1.683 1.684S58 38.74 58 37.81v-7.797c0-.93.754-1.683 1.683-1.683zm15.567-6.81c1.517-1.41 3.314-1.14 3.39-1.127l-2.382 9.861c-.762-.518-2.569-1.661-4.921-2.535 1.32-2.67 2.718-5.089 3.913-6.199zm-7.275 2.465c1.01-2.23 3.955-3.057 5.315-1.656-.874 1.294-2.005 3.332-2.868 5.073-1.488-.477-3.143-.77-4.856-.816-2.387-.064-5.037 1.113-5.037 1.113s-.526-.362-.588-1.178c-.077-.995 1.627-1.997 4.113-2.316 2.485-.32 3.726.101 3.726.101zM80 16c1.417-.004 2.57 1.14 2.58 2.557.007 1.42-1.135 2.576-2.559 2.579-1.419.01-2.576-1.134-2.578-2.554-.007-1.418 1.138-2.573 2.557-2.582z" transform="translate(-934 -266) translate(508 250) translate(368)"></path>
        </g>
      </g>
    </g>
  </g>
</svg>
