<?xml version="1.0" encoding="UTF-8"?>
<svg xmlns="http://www.w3.org/2000/svg" width="24" height="24" viewBox="0 0 24 24">
  <g fill="none" fill-rule="evenodd">
    <g fill="#000" fill-rule="nonzero">
      <g>
        <g>
          <g>
            <path d="M36.376 27.897c1.834.002 3.32 1.512 3.322 3.375v4.103c0 1.332-1.062 2.411-2.373 2.411-.034 0-.069-.01-.104-.01v1.742c0 .267-.212.482-.474.482s-.475-.215-.475-.482v-1.977l-3.438-1.46-3.828 1.467v1.97c0 .267-.213.482-.475.482s-.474-.215-.474-.482v-1.741c-.035.001-.07.01-.104.01-.63 0-1.233-.255-1.679-.707-.445-.452-.695-1.066-.695-1.705v-4.103c.002-1.863 1.489-3.373 3.323-3.375zm0 .964h-7.474c-1.31.002-2.372 1.08-2.373 2.411v4.1c0 .474.228.918.612 1.188.384.27.873.333 1.31.167l3.107-1.191-2.63-1.116c-.083.143-.233.232-.397.234-.262 0-.474-.216-.474-.483V31.52c0-.266.212-.482.474-.482s.475.216.475.482v1.89l7.838 3.328c.436.16.921.093 1.3-.178.38-.271.605-.713.605-1.184v-4.103c-.001-1.33-1.063-2.41-2.373-2.41zm.375 2.178c.262 0 .475.216.475.482v2.108l.355.073c.255.055.42.309.367.568-.045.225-.24.386-.465.386-.031 0-.063-.003-.095-.01l-6.476-1.325c-.257-.053-.423-.308-.37-.57.052-.26.303-.43.56-.376l5.174 1.061v-1.915c0-.266.213-.482.475-.482zM30.04 18.92c.168.205.14.509-.062.679-.202.17-.501.142-.669-.063-2.066-2.538-5.58-3.296-8.483-1.832-2.903 1.464-4.433 4.766-3.692 7.972.74 3.206 3.555 5.472 6.797 5.472.262 0 .474.216.474.483 0 .265-.212.481-.474.481-3.683 0-6.88-2.574-7.722-6.216-.84-3.642.896-7.392 4.194-9.056 3.298-1.664 7.29-.802 9.637 2.08zm2.598.8c1.852 0 3.36 1.729 3.36 3.854 0 2.126-1.509 3.855-3.36 3.855-1.854 0-3.36-1.73-3.36-3.855s1.508-3.855 3.36-3.855zm-8.707-1.73c.262 0 .474.216.474.482v5.584c0 .131-.053.257-.146.348l-2.558 2.488c-.122.124-.3.171-.465.123-.166-.047-.293-.182-.333-.352-.04-.17.014-.35.142-.468l2.411-2.345v-5.378c0-.266.212-.482.475-.482zm8.707 2.694c-1.328 0-2.41 1.296-2.41 2.89s1.082 2.89 2.41 2.89c1.329 0 2.41-1.296 2.41-2.89s-1.08-2.89-2.41-2.89z" transform="translate(-675 -3062) translate(128 2974) translate(0 72) translate(531)"></path>
          </g>
        </g>
      </g>
    </g>
  </g>
</svg>
