<svg xmlns="http://www.w3.org/2000/svg" width="109" height="120" viewBox="0 0 109 120">
    <path fill="#FDCD2D" d="M54.66 0c4.209.005 7.81 3.025 8.53 7.157h18.783c3.982.004 7.21 3.219 7.216 7.185V61.67c8.124 2.966 14.582 9.26 17.733 17.284 3.155 8.02 2.7 17.006-1.245 24.675-3.944 7.67-11 13.285-19.384 15.426-8.378 2.142-17.282.6-24.445-4.23v.205H7.223c-3.99-.004-7.218-3.22-7.223-7.19V14.342c.005-3.966 3.234-7.18 7.223-7.185h18.782C26.72 3.02 30.32 0 34.535 0zm24.122 62.76c-7.232 0-14.17 2.863-19.286 7.956-5.115 5.093-7.992 12.001-7.992 19.207 0 7.2 2.877 14.108 7.992 19.2 5.116 5.094 12.054 7.957 19.286 7.957 7.238 0 14.176-2.858 19.292-7.956 5.115-5.093 7.992-12.001 7.992-19.201-.01-7.201-2.887-14.104-8.002-19.197-5.116-5.093-12.05-7.957-19.282-7.966zM26.005 10.084H7.223c-2.362 0-4.277 1.907-4.282 4.259v93.503c.005 2.351 1.92 4.254 4.282 4.259h51.171c-6.683-6.079-10.275-14.81-9.79-23.806.485-8.996 4.992-17.304 12.284-22.636 7.292-5.332 16.597-7.127 25.363-4.898V14.343c0-2.352-1.916-4.26-4.278-4.26l-.005.01H63.191c-.005.02-.01.044-.014.069-.035.195-.074.385-.123.575-.005 0-.005.005-.005.01-.044.185-.103.37-.162.551-.01.04-.024.083-.039.122-.063.18-.132.361-.206.537l-.034.078c-.068.161-.142.317-.22.473l-.054.103c-.088.166-.186.331-.284.497l-.064.103c-.093.146-.191.292-.294.434-.02.024-.034.044-.05.068-.112.156-.234.312-.362.459l-.088.102c-.132.147-.265.293-.407.434-1.107 1.108-2.494 1.893-4.008 2.274-.696.17-1.406.258-2.117.258v-.014H34.536c-.142 0-.28-.005-.421-.01-.044-.005-.093-.005-.137-.01-.094-.005-.187-.01-.28-.02-.054-.004-.108-.014-.161-.019-.089-.01-.172-.024-.255-.034-.054-.005-.113-.015-.167-.024l-.24-.044c-.054-.01-.113-.025-.167-.035-.078-.014-.156-.034-.235-.053-.054-.01-.108-.025-.161-.04-.084-.024-.162-.043-.24-.068l-.152-.043c-.084-.025-.167-.054-.25-.083-.044-.02-.089-.035-.133-.05-.098-.033-.19-.072-.289-.111-.03-.015-.054-.025-.083-.035-.123-.053-.245-.107-.368-.165-.024-.01-.044-.025-.068-.035-.098-.048-.196-.097-.29-.146-.038-.02-.078-.044-.117-.063-.078-.044-.157-.088-.23-.132-.044-.024-.083-.054-.128-.078-.073-.044-.142-.088-.21-.132-.044-.029-.084-.058-.128-.088-.068-.048-.137-.092-.2-.141-.045-.03-.089-.063-.128-.093-.064-.049-.127-.102-.191-.151-.04-.034-.078-.063-.118-.098-.063-.053-.127-.107-.19-.165-.04-.03-.074-.064-.109-.093-.068-.063-.137-.132-.205-.195-.03-.025-.06-.049-.084-.078-.186-.186-.362-.38-.534-.586-.024-.024-.044-.053-.068-.083-.06-.073-.118-.146-.177-.224-.03-.034-.054-.073-.083-.112l-.147-.205-.083-.127-.133-.205c-.029-.044-.054-.093-.083-.136l-.118-.21c-.029-.049-.053-.093-.078-.142-.04-.068-.078-.141-.113-.214l-.068-.142c-.04-.078-.074-.156-.108-.234l-.059-.132-.108-.278c-.014-.034-.029-.063-.039-.097-.044-.127-.088-.254-.127-.38-.01-.025-.015-.054-.025-.084-.03-.097-.063-.2-.088-.302-.01-.049-.024-.098-.034-.147l-.059-.248c-.015-.054-.024-.113-.034-.166l-.03-.156zM90.29 80.81c.392-.005.775.15 1.049.429.28.278.436.654.431 1.044 0 .39-.162.766-.446 1.039L75.991 98.587c-.275.278-.647.43-1.039.43-.392 0-.764-.152-1.039-.43v.005l-7.668-7.635c-.564-.576-.559-1.493.01-2.063.573-.566 1.494-.571 2.072-.005l6.625 6.595 14.294-14.23c.274-.283.651-.44 1.043-.444zm-46.555 8.874c.813 0 1.47.654 1.47 1.464 0 .81-.657 1.463-1.47 1.463H12.972c-.808 0-1.47-.653-1.47-1.463s.662-1.464 1.47-1.464zm.29-15.026c.813 0 1.47.654 1.47 1.463 0 .805-.657 1.464-1.47 1.464H12.971c-.808 0-1.47-.659-1.47-1.464 0-.81.662-1.463 1.47-1.463zM18.312 38.88c.809 0 1.47.654 1.47 1.464v1.614c3.116.693 5.331 3.44 5.336 6.62 0 .805-.657 1.464-1.47 1.464s-1.47-.659-1.47-1.464c0-1.56-.94-2.966-2.386-3.56-1.446-.596-3.112-.264-4.214.833-1.108 1.103-1.44 2.762-.843 4.2.603 1.44 2.009 2.376 3.577 2.376 3.474 0 6.39 2.605 6.767 6.04.377 3.439-1.906 6.61-5.297 7.356v1.859c0 .81-.662 1.463-1.47 1.463-.814 0-1.47-.653-1.47-1.463v-1.859c-3.117-.692-5.336-3.439-5.341-6.62 0-.805.661-1.463 1.47-1.463.813 0 1.47.658 1.47 1.463.005 2.113 1.71 3.83 3.832 3.85h.073c2.127-.02 3.837-1.752 3.827-3.87-.01-2.116-1.735-3.829-3.861-3.829-3.474 0-6.39-2.605-6.767-6.044-.377-3.434 1.906-6.605 5.297-7.352v-1.614c0-.81.657-1.464 1.47-1.464zm36.06 20.748c.813 0 1.47.659 1.47 1.463 0 .81-.657 1.464-1.47 1.464H33.095c-.808 0-1.47-.654-1.47-1.464 0-.804.662-1.463 1.47-1.463zM76.22 44.603c.813 0 1.47.654 1.47 1.463 0 .81-.657 1.464-1.47 1.464H33.095c-.808 0-1.47-.654-1.47-1.464 0-.81.662-1.463 1.47-1.463zm.001-15.026c.814 0 1.47.654 1.47 1.463 0 .805-.656 1.464-1.47 1.464H12.972c-.808 0-1.47-.659-1.47-1.464 0-.81.662-1.463 1.47-1.463zm-21.56-26.65H34.535c-1.519-.005-2.974.595-4.042 1.668-1.637 1.625-2.122 4.074-1.24 6.2.887 2.128 2.97 3.518 5.282 3.518H54.66c3.146-.024 5.68-2.566 5.68-5.693 0-3.132-2.534-5.673-5.68-5.693z"/>
</svg>
