<svg xmlns="http://www.w3.org/2000/svg" width="56" height="64" viewBox="0 0 56 64">
    <g fill="none" fill-rule="evenodd">
        <g fill="#FFF" fill-rule="nonzero">
            <g>
                <g>
                    <g>
                        <path d="M26.39 10.635c0 1.127-.912 2.036-2.035 2.036H13.038c-1.123 0-2.036-.91-2.036-2.036V2.036C11.002.91 11.915 0 13.038 0s2.036.91 2.036 2.036v6.567l9.281-.004c1.124 0 2.036.913 2.036 2.036zm18-2.036h-9.282V2.036C35.108.91 34.196 0 33.072 0c-1.126 0-2.036.91-2.036 2.036v8.603-.004c0 1.127.91 2.036 2.036 2.036H44.39c1.123 0 2.036-.91 2.036-2.036 0-1.123-.913-2.036-2.036-2.036zm8.717 4.072h11.317-.003c1.126 0 2.036-.91 2.036-2.036 0-1.123-.91-2.036-2.036-2.036h-9.282V2.036C55.14.91 54.227 0 53.103 0c-1.123 0-2.036.91-2.036 2.036v8.602-.003c0 1.127.913 2.036 2.036 2.036h.004zM24.354 25.71h-9.28v-6.566c0-1.124-.914-2.036-2.037-2.036-1.123 0-2.036.912-2.036 2.036v8.602c0 1.127.913 2.036 2.036 2.036h11.317c1.123 0 2.036-.91 2.036-2.036 0-1.123-.913-2.036-2.036-2.036zm20.035 0h-9.281v-6.566c0-1.124-.913-2.036-2.037-2.036-1.126 0-2.036.912-2.036 2.036v8.602c0 1.127.91 2.036 2.036 2.036h11.317c1.123 0 2.036-.91 2.036-2.036 0-1.123-.913-2.036-2.036-2.036zm20.034 0h-9.285v-6.566c0-1.124-.912-2.036-2.036-2.036-1.123 0-2.036.912-2.036 2.036v8.602c0 1.127.913 2.036 2.036 2.036H64.42c1.123 0 2.036-.91 2.036-2.036 0-1.123-.913-2.036-2.036-2.036h.004zm-40.07 17.113h-9.28v-6.566c0-1.127-.914-2.037-2.037-2.037-1.123 0-2.036.91-2.036 2.037v8.602c0 1.123.913 2.036 2.036 2.036h11.317c1.123 0 2.036-.913 2.036-2.036 0-1.127-.913-2.036-2.036-2.036zm20.035 0h-9.281v-6.566c0-1.127-.913-2.037-2.036-2.037-1.127 0-2.037.91-2.037 2.037v8.602c0 1.123.91 2.036 2.037 2.036h11.316c1.124 0 2.036-.913 2.036-2.036 0-1.127-.912-2.036-2.036-2.036h.001zm20.034 0h-9.284v-6.566c0-1.127-.913-2.037-2.037-2.037-1.123 0-2.036.91-2.036 2.037v8.602c0 1.123.913 2.036 2.036 2.036h11.317c1.124 0 2.036-.913 2.036-2.036 0-1.127-.912-2.036-2.036-2.036h.004zM44.385 59.928h-9.282l.004-6.563c0-1.127-.913-2.036-2.037-2.036-1.126 0-2.036.91-2.036 2.036v8.602-.003c0 1.127.91 2.036 2.036 2.036h11.317-.003c1.127 0 2.036-.91 2.036-2.036 0-1.123-.91-2.036-2.036-2.036z" transform="translate(-139 -1032) translate(128 911) translate(0 120) translate(0 1)"/>
                    </g>
                </g>
            </g>
        </g>
    </g>
</svg>
