<?xml version="1.0" encoding="UTF-8"?>
<svg xmlns="http://www.w3.org/2000/svg" xmlns:xlink="http://www.w3.org/1999/xlink" width="32" height="32" viewBox="0 0 32 32">
  <defs>
    <circle id="ic6yfllb7a" cx="16" cy="16" r="16"></circle>
  </defs>
  <g fill="none" fill-rule="evenodd">
    <g>
      <g>
        <g transform="translate(-508 -149) translate(508 148) translate(0 1)">
          <mask id="m4hyk21hjb" fill="#fff">
            <use xlink:href="#ic6yfllb7a"></use>
          </mask>
          <use fill="#17BE86" fill-rule="nonzero" opacity=".2" xlink:href="#ic6yfllb7a"></use>
          <path fill="#000" fill-rule="nonzero" d="M8.383 13.886c0-.029.057 0 .028.028-.571.943-1.857 3.743.8 6.829 0 0 2.886 3.171 6.4 1.543l-.743-1.229 3.286.543c-.028.086-.028.171-.057.229 0 .2.029.4.057.6l-.885 2.685-.715-1.228S12.326 25.657 9.47 23c0 0-2.886-2.114-2.372-6.029.026-.145.353-1.878 1.286-3.085zM21.954 18.6c1.829 0 3.286 1.457 3.257 3.257 0 1.8-1.457 3.257-3.257 3.257s-3.257-1.457-3.257-3.257 1.457-3.257 3.257-3.257zm0 .457c-1.514 0-2.771 1.257-2.771 2.8s1.228 2.772 2.771 2.772 2.8-1.229 2.8-2.772c0-1.542-1.257-2.8-2.8-2.8zm.029.514c1.257 0 2.286 1.029 2.286 2.286 0 1.257-1.029 2.286-2.286 2.286-1.257 0-2.286-1.029-2.286-2.286 0-1.257 1.029-2.286 2.286-2.286zm.143.515h-.286v.2c-.286.028-.514.114-.686.257-.171.143-.257.343-.257.6 0 .257.086.457.229.571.171.143.4.229.714.314v.829c-.257-.029-.514-.171-.743-.371l-.314.371c.314.257.657.429 1.057.457v.314h.286v-.314c.314-.028.543-.114.714-.257.172-.143.286-.343.229-.6 0-.257-.086-.429-.229-.571-.143-.143-.4-.229-.714-.315v-.8c.2.029.428.115.6.257l.286-.4c-.286-.2-.572-.285-.886-.314v-.228zm.028 2c.172.057.286.114.343.171.057.057.086.143.086.229 0 .114-.029.2-.114.257-.058.057-.172.114-.315.114zm-.285-1.315v.743c-.143-.057-.258-.114-.315-.171-.057-.057-.085-.143-.085-.229 0-.085.028-.171.085-.228.086-.057.2-.115.315-.115zm-.515-8.428c.257 0 .486.228.486.485v5.2c-1.057.03-2 .486-2.657 1.2H10.24c-.257 0-.486-.228-.486-.485v-5.915c0-.257.229-.485.486-.485zm-1.228.857h-8.657c0 .486-.372.857-.858.857v3.457c.486 0 .858.372.858.857h8.657c0-.485.371-.857.857-.857v-3.457c-.486 0-.857-.371-.857-.857zm-5.057-6.343l.742 1.229s4.229-1.743 7.086.885c0 0 2.886 2.143 2.343 6.029l-.014.075-.026.125c-.112.508-.469 1.88-1.246 2.886 0 .028-.028 0-.028-.029.571-.914 1.885-3.743-.772-6.829 0 0-2.885-3.171-6.4-1.542l.743 1.228-3.571-.571 1.143-3.486zm.714 7.114c1 0 1.828.8 1.828 1.829 0 1-.8 1.829-1.828 1.829-1 0-1.829-.829-1.829-1.829s.8-1.829 1.829-1.829zm.171.4h-.228v.172c-.229 0-.4.086-.543.2-.115.114-.2.286-.2.486s.057.342.171.457c.114.085.314.171.572.257v.657c-.2-.029-.4-.114-.6-.286l-.258.286c.258.229.543.343.858.371v.258h.228v-.258c.257 0 .429-.085.572-.2.114-.114.2-.285.2-.485s-.086-.343-.2-.457c-.115-.115-.315-.2-.572-.258v-.657c.172.029.343.086.486.2l.228-.314c-.228-.143-.457-.229-.714-.257v-.172zm-.028 1.572c.143.057.228.085.285.143.058.057.086.114.086.2 0 .085-.028.171-.114.2-.057.028-.143.085-.257.085zm3.543-.172c0 .953-1.429.953-1.429 0 0-.952 1.429-.952 1.429 0zm-5.915 0c0 .953-1.428.953-1.428 0 0-.952 1.428-.952 1.428 0zm2.143-.855v.57c-.114-.029-.2-.086-.257-.115-.029-.028-.057-.085-.057-.171 0-.086.028-.143.086-.2.085-.057.142-.086.257-.086l-.03.002z" mask="url(#m4hyk21hjb)"></path>
        </g>
      </g>
    </g>
  </g>
</svg>
