<svg xmlns="http://www.w3.org/2000/svg" width="57" height="56" viewBox="0 0 57 56">
    <path fill="#17BD85" d="M3.187 46.803c1.587-4.283 4.526-6.178 9.314-6.012l17.642.535c1.797.056 2.022 1.638 2.687 6.335l.112.786c2.833-.1 5.582-.966 7.958-2.51l1.446-.901 1.803 2.905-1.448.902c-3.388 2.072-7.302 3.125-11.272 3.03-.63-.033-1.188-.41-1.457-.981-.293-.89-.47-1.815-.527-2.75-.127-.884-.348-2.462-.547-3.44l-16.518-.494c-3.299-.112-4.922.896-5.968 3.727L3.76 55.92.514 54.841zM55.28.074c.456 0 .89.18 1.21.503.322.319.502.756.502 1.209v47.74h-3.42V3.494H23.03l-.16 7.825h-3.42l.16-9.533c0-.946.765-1.712 1.711-1.712zM43.073 39.15l.17.01c.393.041.763.215 1.045.5.322.322.5.762.497 1.217.003.447-.178.875-.503 1.186-.316.325-.75.508-1.206.502-.925-.014-1.673-.762-1.688-1.688-.006-.458.178-.895.503-1.215.307-.328.736-.51 1.185-.51l-.003-.002zm6.036 0l.17.01c.393.041.763.215 1.045.5.32.322.5.762.497 1.217.003.447-.178.875-.503 1.186-.316.325-.754.508-1.206.502-.925-.014-1.673-.762-1.688-1.688-.006-.458.174-.895.503-1.215.307-.328.736-.51 1.185-.51l-.003-.002zM13.441 24.006c1.901-7.907 7.473-10.32 12.153-9.196 4.68 1.126 8.552 5.8 6.651 13.713-1.611 6.705-5.859 9.457-9.965 9.457-.736-.003-1.469-.089-2.187-.263-4.68-1.124-8.553-5.8-6.652-13.71zm35.668 8.602l.17.01c.393.039.763.214 1.045.496.32.325.5.763.497 1.218.003.45-.178.875-.503 1.185-.316.326-.754.509-1.206.503-.925-.015-1.673-.763-1.688-1.688-.006-.455.174-.896.503-1.215.307-.328.736-.511 1.185-.508h-.003zm-6.036 0l.17.01c.393.039.763.214 1.045.496.322.325.5.763.497 1.218.003.45-.178.875-.503 1.185-.316.326-.75.509-1.206.503-.925-.015-1.673-.763-1.688-1.688-.006-.455.178-.896.503-1.215.307-.328.736-.511 1.185-.508h-.003zM23.33 17.784c-3.155 0-5.664 2.548-6.728 6.98-1.21 5.04.455 8.88 4.247 9.793 3.793.911 7.021-1.753 8.23-6.796 1.212-5.04-.458-8.88-4.248-9.79-.49-.122-.996-.184-1.501-.184zm25.78 8.28l.169.008c.393.04.763.215 1.045.497.32.325.5.763.497 1.22.003.447-.178.876-.503 1.183-.316.328-.754.509-1.206.503-.925-.015-1.673-.76-1.688-1.685-.006-.458.174-.899.503-1.218.307-.328.736-.511 1.185-.509h-.003zm-6.037 0l.17.008c.393.04.763.215 1.045.497.322.325.5.763.497 1.22.003.447-.178.876-.503 1.183-.316.328-.75.509-1.206.503-.925-.015-1.67-.76-1.688-1.685-.006-.458.178-.899.503-1.218.307-.328.736-.511 1.185-.509h-.003zm6.442-6.075v3.166H42.7v-3.166h6.814z"/>
</svg>
