<svg xmlns="http://www.w3.org/2000/svg" width="28" height="27" viewBox="0 0 28 27">
    <g fill="none" fill-rule="evenodd">
        <g fill="#FFF" fill-rule="nonzero">
            <g>
                <g>
                    <path d="M13.914 22.091c.488 0 .89.404.892.892v2.82c0 .49-.404.892-.892.892-.49 0-.893-.404-.893-.893v-2.819c0-.49.404-.892.893-.892zm6.212-2.56c.345-.344.892-.344 1.237 0l2.012 1.985c.345.345.345.892 0 1.237-.172.172-.402.259-.632.259-.23 0-.46-.086-.633-.259l-1.984-1.984c-.345-.345-.345-.892 0-1.237zm-14.412-.028c.115-.173.432-.087.432.143l.03.749c0 .115.086.2.172.23l.72.23c.23.058.23.373.058.461l-.72.259c-.115.029-.172.115-.172.23v.748c0 .23-.288.317-.432.144l-.46-.604c-.058-.087-.173-.116-.259-.087l-.72.23c-.23.058-.43-.173-.287-.374l.432-.632c.057-.087.057-.202 0-.288l-.461-.605c-.144-.173.028-.431.258-.374l.72.23c.085.029.2 0 .258-.086zm8.227-13.52c4.057 0 7.365 3.28 7.365 7.335 0 4.056-3.28 7.394-7.365 7.394-4.085 0-7.364-3.308-7.364-7.365 0-4.085 3.308-7.364 7.364-7.364zm0 1.755c-3.077 0-5.58 2.502-5.58 5.58 0 3.107 2.503 5.61 5.58 5.61zm-12.05 3.51c.057-.315.489-.344.632-.057l.461.978c.057.144.201.23.345.2l1.064-.114c.316-.028.489.374.258.605l-.805.719c-.116.115-.144.258-.087.402l.432.978c.114.287-.201.603-.401.402l-.95-.518c-.144-.057-.287-.03-.402.057l-.806.72c-.258.229-.632 0-.575-.317l.201-1.065c.028-.143-.058-.287-.173-.374l-.92-.546c-.288-.172-.173-.603.144-.632l1.064-.115c.144 0 .258-.115.287-.258zm24.476 1.207c.49 0 .893.403.893.892 0 .49-.404.892-.893.892h-2.819c-.49 0-.892-.403-.892-.892 0-.49.403-.892.892-.892zM22.11 3.941c.345-.345.892-.345 1.237 0 .345.345.345.893 0 1.238l-1.984 1.984c-.172.172-.402.258-.633.258-.2 0-.431-.085-.604-.258-.345-.345-.345-.892 0-1.237zm-16.973.144c.058-.23.374-.258.46-.057l.317.69c.03.086.116.144.23.144l.75-.087c.23-.029.373.259.2.402l-.546.518c-.086.087-.086.202-.057.288l.317.69c.086.23-.144.431-.345.317L5.8 6.616c-.087-.058-.201-.028-.288.029l-.575.518c-.172.144-.46 0-.402-.23l.144-.749c.029-.114-.028-.2-.115-.258l-.634-.345c-.2-.144-.144-.432.087-.46l.748-.087c.087-.028.172-.087.201-.201zM13.912 0c.49 0 .893.403.893.892v2.82c0 .49-.403.891-.891.891-.461 0-.863-.403-.894-.892V.892c0-.49.404-.892.892-.892z" transform="translate(-244 -4157) translate(127 4063) translate(117 94)"/>
                </g>
            </g>
        </g>
    </g>
</svg>
