<?xml version="1.0" encoding="UTF-8"?>
<svg xmlns="http://www.w3.org/2000/svg" width="48" height="48" viewBox="0 0 48 48">
  <path fill="#518DE2" d="M0 24.334v-2.905c0-1.28.919-2.374 2.18-2.596l3.427-.603c.393-1.494.976-2.93 1.74-4.276l-1.96-2.845c-.736-1.049-.612-2.474.295-3.379L7.74 5.673v-.002c.905-.905 2.33-1.03 3.378-.292l2.845 1.997h.002c1.339-.773 2.776-1.366 4.27-1.768l.603-3.429c.22-1.25 1.3-2.167 2.57-2.179h2.91-.001c1.289-.011 2.399.911 2.62 2.18l.603 3.428c1.494.402 2.931.995 4.27 1.768l2.826-1.988c1.048-.735 2.47-.61 3.375.295l2.056 2.057c.907.905 1.031 2.33.295 3.378l-1.998 2.851h-.001c.774 1.342 1.367 2.777 1.77 4.27l3.427.604c1.26.221 2.18 1.316 2.18 2.596v2.91c-.002 1.278-.92 2.37-2.18 2.59l-3.428.603c-.084.308-.176.618-.28.92-.041.13-.146.228-.28.26-.132.032-.272-.009-.366-.106l-2.59-2.59v-.003c-.55-.553-.828-1.318-.765-2.095.28-3.605-.955-7.163-3.41-9.817-2.454-2.654-5.905-4.163-9.52-4.163-.42 0-.847 0-1.262.059h-.002c-1.687.157-3.112 1.318-3.608 2.939-.459 1.555-.017 3.237 1.146 4.37l2.845 2.83-1.915 1.896-2.841-2.842c-.775-.8-1.825-1.274-2.939-1.331-2.22-.079-4.12 1.588-4.333 3.8-.36 3.64.834 7.262 3.289 9.975 2.454 2.713 5.938 4.263 9.596 4.269.333 0 .671 0 .98-.038h.216v-.002c.706-.006 1.385.271 1.884.769l2.59 2.59v.002c.1.094.14.234.11.366-.033.132-.13.24-.26.281-.305.104-.613.195-.92.28l-.56 3.432c-.221 1.26-1.316 2.18-2.596 2.18h-2.932c-1.28 0-2.375-.92-2.596-2.18l-.603-3.429c-1.494-.401-2.931-.995-4.27-1.768l-2.845 1.998h-.002c-1.046.737-2.473.614-3.378-.293l-2.057-2.057c-.907-.907-1.031-2.332-.295-3.38l1.984-2.855c-.773-1.341-1.368-2.778-1.767-4.273l-3.413-.597C.906 26.712-.006 25.612 0 24.334zm46.743 16.32c.841.848 1.295 2.007 1.255 3.201-.043 1.194-.574 2.32-1.472 3.107-1.777 1.493-4.405 1.36-6.024-.302L28.258 34.415c-1.209-1.204-2.883-1.818-4.584-1.682-2.888.226-5.73-.84-7.757-2.91-2.03-2.068-3.036-4.93-2.753-7.816.048-.404.321-.744.706-.878.384-.132.81-.033 1.096.256l3.155 3.165c1.096 1.094 2.871 1.094 3.967 0l2.424-2.424c1.095-1.097 1.095-2.872 0-3.969l-3.189-3.189c-.289-.285-.388-.712-.254-1.096.132-.385.472-.659.876-.706 2.885-.284 5.747.723 7.817 2.753 2.07 2.028 3.135 4.87 2.91 7.758-.136 1.701.48 3.376 1.683 4.585l12.388 12.392zm-2.518 1.74L31.574 29.74c-.52-.45-1.3-.421-1.785.065-.486.488-.515 1.266-.065 1.787l12.645 12.65c.237.278.58.442.945.456.364.013.718-.126.976-.385.258-.258.396-.61.382-.976-.013-.365-.176-.707-.453-.945h.006z"></path>
</svg>
