<?xml version="1.0" encoding="UTF-8"?>
<svg xmlns="http://www.w3.org/2000/svg" width="187" height="217" viewBox="0 0 187 217">
  <g fill="none" fill-rule="evenodd">
    <g fill-rule="nonzero">
      <g fill="#1A191E">
        <path d="M88.496 8.892c-.079.498-.133 1.007-.131 1.511.009 3.056.038 6.113.056 9.17 0 .087-.057.175-.114.341-2.677.1-5.332-.265-8.088-.493 0-.474-.025-.88.004-1.282.153-2.149.313-4.298.486-6.445.063-.775-.169-1.448-.556-2.103-.342-.58-.665-1.176-.93-1.794-.305-.716-.162-1.045.552-1.373 1.019-.468 2.048-.912 3.08-1.348.705-.299 1.423-.566 2.21-.876.42.452.374.912.065 1.268-.323.374-.73.73-1.174.933-.482.221-1.044.28-1.579.368-.7.116-.79.246-.75.936.05.83.027 1.665.063 2.496.008.193.081.503.204.549.324.123.453-.173.49-.43.063-.411.098-.83.1-1.245 0-.477-.05-.955-.079-1.477.412-.102.775-.203 1.143-.28.806-.17 1.524-.48 2.04-1.169.107-.143.306-.34.438-.323.798.107 1.044-.451 1.315-1.166.35.79.692 1.44 1.642 1.575-.169.908-.347 1.78-.487 2.657m-.038 23.361c-.022 2.129-.471 4.165-1.756 5.92-1.785 2.437-3.537 4.903-5.415 7.267-3.9 4.908-7.882 9.751-11.813 14.634-1.048 1.302-2.039 2.65-3.05 3.983-.113.15-.248.325-.265.499-.174 1.783-.381 3.566-.472 5.355-.195 3.825-.458 7.64-1.088 11.424-.14.837-.13.811-1 .984-2.73.543-5.502.418-8.255.49-3.881.101-7.768.157-11.648.055-2.945-.077-5.885-.426-8.825-.668-.895-.073-1.788-.177-2.678-.291-.8-.103-.918-.215-.976-1.035-.05-.705-.051-1.416-.032-2.123.038-1.38.103-2.76.163-4.14.013-.296-.069-.502-.434-.558l-12.943 26.115c-2.727-1.23-5.025-2.948-7.643-4.201.068-.263.112-.508.193-.739 2.526-7.188 5.032-14.384 7.595-21.56 1.881-5.268 3.816-10.516 5.775-15.755.618-1.655 1.394-3.25 2.089-4.875.4-.937 1.122-1.547 1.99-2.018 2.61-1.416 5.37-2.445 8.258-3.115 1.84-.426 3.69-.799 5.623-1.214.178.31.342.611.521.903 1.045 1.695 2.05 3.416 3.155 5.071.903 1.352 2.14 2.402 3.516 3.249.532.327 1.164.56 1.78.666 1.241.216 1.988-.283 2.29-1.501.318-1.279.6-2.57.805-3.87.165-1.046.24-2.112.26-3.17.013-.59.223-.949.7-1.246 1.2-.746 2.362-1.553 3.574-2.277 4.421-2.638 8.51-5.76 12.703-8.73 2.359-1.671 4.664-3.418 7.03-5.077.839-.588 1.256-1.318 1.334-2.313.18-2.275.383-4.55.573-6.825.035-.41.053-.822.085-1.339l8.244.574c.021.39.052.705.052 1.02.001 3.478.023 6.955-.015 10.431m-23.432 60.3c.596 4.4 1.268 8.789 1.87 13.187.518 3.792 1.012 7.588 1.467 11.388.737 6.165 1.437 12.334 2.142 18.503.106.926.157 1.86.228 2.79.265 3.454-.476 6.781-1.25 10.108-1.83 7.865-4.225 15.577-6.31 23.373-1.245 4.659-2.401 9.34-3.6 14.012-.07.277-.159.55-.255.878l-9.91.266c-.027-.566-.072-1.007-.066-1.447.04-2.736.153-5.471.125-8.206-.032-3.25-.178-6.5-.28-9.748-.073-2.284-.103-4.57-.25-6.85-.182-2.857-.4-5.714-.72-8.558-.363-3.215-.196-6.353.85-9.431.296-.866.663-1.68 1.308-2.334.447-.452.615-.953.489-1.575-.384-1.89-.76-3.781-1.135-5.674-.654-3.312-1.262-6.634-1.969-9.934-.566-2.64-1.25-5.255-1.884-7.88-.045-.187-.054-.417-.17-.547-.57-.642-.274-1.292-.072-1.953 1.689-5.542 4.924-9.986 9.544-13.54l.554.417c.79-.7.81-.782.424-1.922-.256.137-.516.24-.734.399-4.69 3.425-8.164 7.781-10.089 13.312-.335.965-.617 1.95-.89 2.935-1.413 5.08-2.861 10.15-4.209 15.247-1.998 7.56-4.39 14.995-6.835 22.416-2.213 6.718-4.475 13.42-6.767 20.112-1.353 3.953-2.803 7.872-4.212 11.805-.074.208-.178.405-.28.635-.148-.014-.279 0-.39-.04-3.08-1.095-6.163-2.188-9.236-3.302-.9-.327-.895-.356-.804-1.337.438-4.677.936-9.349 1.298-14.032.267-3.44.84-6.83 1.297-10.24.353-2.646.614-5.304 1.293-7.895.342-1.306.637-2.625 1.005-3.922.51-1.804 1.432-3.378 2.866-4.598.499-.425.623-.903.64-1.518.167-5.662.28-11.327.572-16.983.158-3.078.592-6.145.969-9.209s.806-6.122 1.27-9.174c.539-3.53 1.105-7.059 2.146-10.483.712-2.342 1.51-4.663 3.053-6.618.834-1.056 1.73-2.063 2.516-2.996 5.556.816 10.977 1.336 16.434 1.31 5.453-.026 10.91-.093 16.522-.539.11.25.361.595.409.967.361 2.806.646 5.623 1.026 8.426m-15.367 95.2l9.14-.223-.284 2.608c-.517.052-1.014.144-1.511.143-1.105-.001-1.897.451-2.384 1.458-.23.474-.515.92-.874 1.555-.21-.667-.336-1.118-.496-1.557-.441-1.218-.528-1.273-1.792-1.274H49.93l-.272-2.71m9.823 3.1c.187-.01.376.031.67.059-.021.41-.007.786-.063 1.15-.334 2.16-.756 4.309-1.003 6.479-.172 1.501.218 2.871 1.654 3.732 2.624 1.573 5.343 2.919 8.322 3.69 2.092.543 4.058 1.412 5.925 2.489 1.612.929 2.36 2.481 2.061 4.107-.027.152-.108.295-.172.462-.237.018-.458.05-.68.05-6.287-.005-12.576-.033-18.864 0-.994.004-1.738-.248-2.274-1.089-.362-.567-.728-1.133-1.126-1.675-.156-.21-.405-.35-.612-.523-.149.192-.345.364-.437.58-.261.622-.504 1.254-.707 1.896-.147.465-.388.666-.894.672-.953.012-1.906.095-2.958.155.308-1.456.626-2.766.858-4.09.41-2.342.754-4.696 1.15-7.04.236-1.403-.06-2.758-.325-4.111-.352-1.798-.773-3.581-1.15-5.374-.078-.367-.089-.748-.14-1.205h3.459c.493.675.606 1.512.807 2.315.078.312.111.638.22.937.057.151.23.348.364.358.14.01.355-.148.428-.289.266-.512.453-1.066.729-1.571 1.085-1.989.886-1.979 3.031-2.051.577-.02 1.151-.085 1.727-.113m16.332 23.267c-1.41-.028-2.823-.128-4.232-.091-3.013.08-6.024.248-9.036.342-1.795.055-3.592.05-5.388.046-.386 0-.835.047-1.068-.35.017-.102.015-.139.03-.164.013-.024.044-.047.07-.052.125-.023.25-.057.376-.057 6.703-.003 13.406-.002 20.11-.002l.032.278c-.298.018-.596.056-.894.05m-24.687.468c-.861.03-1.723.08-2.584.078-.175 0-.455-.149-.502-.291-.116-.346.214-.44.453-.465 1.038-.11 2.078-.186 3.146-.276.163.677-.011.936-.513.954M20.52 188.695c-1.975-.064-3.874.274-5.621 1.44-.536-1.839-1.775-3.034-3.076-4.193-.18-.161-.338-.504-.302-.73.163-1.008.4-2.003.635-3.125l9.526 3.41-1.162 3.198m1.49.74c-.24.736-.407 1.318-.62 1.882-1.063 2.827-2.132 5.652-3.213 8.472-.226.59-.523 1.153-.755 1.74-.06.15.004.348.012.524.171-.023.427.018.499-.078.301-.408.667-.555 1.268-.471l-1.435 1.762c.25.414.49.34.725.203.278-.161.532-.372.824-.493.303-.125.639-.168 1.043-.266.023 1.156-1.133 1.48-1.347 2.433.237.11.449.245.68.31.555.155 1.113.315 1.68.408 3.241.53 5.63 2.348 7.477 4.967.376.532.62 1.157 1.033 1.944-.729 0-1.231-.004-1.734 0-2.532.025-5.069.135-7.598.06-3.393-.102-6.489-1.108-9.064-3.443-1.047-.949-2.13-1.857-3.173-2.808-.763-.696-.746-.715-.377-1.633.204-.507.432-1.005.6-1.524.059-.18.044-.486-.07-.594-.122-.114-.43-.138-.604-.07-.834.331-1.649.71-2.473 1.066-.2.086-.41.15-.7.255-.843-1.107-1.675-2.201-2.51-3.295-.275-.362-.132-.676.134-.943 1.266-1.274 2.528-2.551 3.822-3.796.42-.403.928-.707.827-1.41-.014-.1.061-.286.139-.315.503-.189.454-.554.287-.94.254-.148.556-.224.644-.404.092-.188-.024-.477-.056-.782.205.029.385.075.564.075.39-.002.658-.255.594-.604-.23-1.26.31-2.397.513-3.584.128-.752.392-1.48.627-2.336 1.488.89 2.542 1.963 3.36 3.244.28.434.331 1.021.458 1.546.125.517.322.642.818.444.148-.06.289-.142.421-.231 1.495-1.007 3.16-1.365 4.936-1.318.537.014 1.075.003 1.744.003m8.054 24.65c.049.315.004.601-.311.727-.262.104-.553.18-.833.187-2.37.06-4.74.13-7.11.135-1.154.003-2.27-.275-3.392-.583-3.471-.952-6.504-2.66-9.18-5.05-.5-.447-1.073-.811-1.605-1.224-.35-.271-.688-.56-1.054-.86.1-.157.154-.27.235-.359.083-.09.193-.156.356-.282.277.217.564.411.815.644 1.918 1.776 4.11 3.167 6.31 4.548.323.203.672.382 1.03.51 1.72.612 3.464 1.143 5.271 1.431.156.025.32.014.478.009l7.974-.257c.16-.005.32-.008.48-.007.29.002.487.113.536.43m-26.056-9.203c-.525-.3-2.8-2.975-2.998-3.555-.038-.11.06-.267.095-.402l.222-.049c.936 1.255 1.873 2.508 2.8 3.77.023.032-.076.155-.119.236m11.325-99.643c-.598 1.21-1.199 2.419-1.805 3.625-1.358 2.704-2.04 5.612-2.466 8.58-.27 1.874-.39 3.77-.572 5.658-.042.439.008.906-.518 1.266-.276-.43-.33-.885-.37-1.347-.185-2.129-.047-4.24.326-6.34.073-.415.066-.843.101-1.324-.634.043-.668.424-.72.757-.205 1.3-.401 2.603-.585 3.907-.246 1.749-.476 3.5-.718 5.25-.026.181-.084.358-.148.621-.47-.489-.534-1.045-.536-1.566-.006-1.639.021-3.28.09-4.917.04-.93.19-1.855.278-2.783.022-.221.04-.459-.02-.666-.034-.12-.218-.256-.347-.27-.12-.013-.293.1-.372.209-.088.12-.114.298-.135.455-.338 2.45-.668 4.902-1.009 7.352-.032.23-.122.452-.259.663-.332-1.21-.402-2.424-.29-3.642.135-1.473.307-2.941.476-4.41.043-.376.04-.709-.494-.95-.142.292-.347.57-.414.876-.394 1.82-.752 3.649-1.133 5.472-.127.61-.06 1.274-.477 1.909-.375-.582-.356-1.157-.343-1.72.058-2.615.386-5.198 1.064-7.722.976-3.634 2.076-7.227 3.518-10.711.786-1.9 1.44-3.853 2.157-5.78.12-.322.256-.637.425-1.053 2.617 1.286 4.934 2.883 7.473 4.18-.762 1.548-1.467 2.986-2.177 4.421m-2.412 12.988c-1.065-1.707-.597-5.94 1.096-8.104-.004 2.732.045 5.47-1.096 8.104m67.087-115.6c.048-.289.225-.609.569-.514.175.048.357.341.399.55.13.66.197 1.333.303 2.113-.42.167-.802.317-1.276.504-.087-.288-.224-.521-.212-.746.037-.638.112-1.277.217-1.908m2.408-.788c.177-.242.442-.459.714-.58.635-.288 1.133.004 1.266.686.018.093.016.19.016.286.002.412.001.824.001 1.362l-2.338.94c-.052-1.028-.234-1.91.34-2.694M86.224.93c.132-.108.36-.204.502-.162.139.042.33.281.314.41-.166 1.255-.074 2.558-.644 3.741-.02.04-.112.043-.139.053-.222-.456-.448-.902-.657-1.356-.27-.583.113-2.271.624-2.686m1.918.013l.357-.075c.144.29.396.574.413.87.065 1.157.185 2.327-.182 3.489-.45-.046-.545-.337-.576-.61-.14-1.228-.27-2.46-.012-3.674m1.4.293c-.316-.794-.647-1.11-1.482-1.03-.268.025-.555.018-.812-.051-.76-.204-1.208-.068-1.666.57-.159.222-.312.448-.521.748-.168-.215-.256-.337-.353-.45-.7-.825-1.625-.891-2.44-.17-.144.127-.245.33-.408.403-.211.094-.488.173-.698.116-.9-.242-1.254-.097-1.68.717-.646 1.235-.568 2.52-.283 3.936l-.273.175c-.696.45-.756 1.054-.433 1.76.294.644.508 1.334.878 1.93.673 1.082.707 2.234.572 3.433-.018.16-.04.32-.052.48-.149 2.085-.341 4.17-.432 6.258-.119 2.733-.237 5.462-.607 8.178-.114.837-.446 1.412-1.125 1.898-4.39 3.138-8.726 6.355-13.152 9.441-3.08 2.147-6.28 4.123-9.423 6.182-.401.263-.771.576-1.174.837-.362.236-.503.562-.503.976 0 .225-.02.45-.015.675.043 2.28-.56 4.46-1.023 6.66-.167.793-.608 1.095-1.41.954-.553-.098-1.118-.31-1.598-.601-1.33-.808-2.499-1.834-3.365-3.13-1.052-1.573-2.006-3.214-2.997-4.829-.28-.457-.545-.926-.817-1.389-.24.027-.433.033-.619.072-1.755.376-3.509.757-5.263 1.137-2.996.648-5.84 1.712-8.556 3.134-1.15.601-2.01 1.444-2.537 2.659-1.56 3.6-3.066 7.216-4.352 10.93-2.42 6.988-4.937 13.941-7.449 20.896-2.073 5.741-4.19 11.467-6.3 17.194-.623 1.69-1.362 3.338-1.923 5.047-.682 2.074-1.248 4.188-1.833 6.294-.831 2.99-1.297 6.039-1.253 9.148.008.526.164 1.082.39 1.558.123.256.539.51.821.508.216-.002.49-.373.627-.638.174-.337.232-.732.341-1.102.202.463.226.912.323 1.344.091.4.194.826.41 1.164.349.548.754.495 1.095-.076.106-.178.2-.365.355-.65.174.578.295 1.042.455 1.492.148.413.399.775.895.732.505-.044.637-.489.755-.89.062-.211.039-.447.066-.67.046-.377.102-.752.185-1.357.199.4.28.598.39.776.46.75 1.135.767 1.554-.013.219-.407.335-.903.376-1.369.102-1.184.088-2.38.217-3.561.061-.565-.01-1.202.444-1.782.071.203.11.32.152.436.143.397.27.825.804.824.551 0 .744-.376.89-.847.515-1.666.927-3.342.957-5.103.027-1.512.087-3.025.207-4.532.05-.628.198-1.285.467-1.85.95-2.004 1.964-3.98 2.97-5.956 1.328-2.607 2.702-5.191 4.005-7.811 2.574-5.182 5.112-10.382 7.67-15.571.087-.176.23-.325.346-.487.142 1.462.154 2.87.13 4.278-.004.195-.148.414-.283.576-.288.344-.613.657-.922.985-1.74 1.843-3.083 3.92-3.995 6.309-1.33 3.48-2.073 7.097-2.656 10.75-.618 3.875-1.17 7.762-1.676 11.653-.393 3.03-.813 6.066-.97 9.113-.294 5.656-.408 11.323-.581 16.985-.015.508-.105.901-.515 1.267-1.528 1.364-2.524 3.081-3.034 5.056-.547 2.116-1.107 4.235-1.502 6.382-.425 2.306-.662 4.648-.986 6.973-.258 1.847-.572 3.688-.774 5.542-.287 2.622-.493 5.254-.733 7.882-.224 2.435-.438 4.87-.675 7.304-.1 1.023-.25 2.042-.375 3.063-.012.092-.002.186-.002.28l.706.515-.7 3.172c-.922-.124-1.242.393-1.4 1.14-.212 1.006-.47 2.002-.708 3.002-.153.652-.303 1.305-.463 1.993-.7-.028-1.313.022-1.223.931.01.096-.142.199-.189.31-.32.768-1.227 1.368-.571 2.44-.23.186-.444.331-.623.513-1.241 1.259-2.47 2.529-3.712 3.787-.334.339-.68.671-1.05.967-.809.647-.906.923-.295 1.761.852 1.168 1.765 2.292 2.68 3.412.417.51.792.514 1.328.091.176-.138.32-.315.486-.467.52-.48 1.828-1.018 2.466-1.014-.26 1.015-.767 1.894-1.404 2.713-.594.764-.587.835.197 1.457 1.484 1.177 3.01 2.304 4.477 3.501 2.612 2.13 5.724 3.112 8.888 3.985.338.093.695.122 1.046.157 2.822.282 5.639-.036 8.458-.086.31-.006.65-.09.92-.24.265-.146.558-.38.664-.646.277-.694.393-1.405.01-2.14-.898-1.723-1.903-3.367-3.39-4.642-1.594-1.368-3.3-2.544-5.454-2.865-.561-.084-1.11-.254-1.748-.405.2-.291.35-.493.48-.706.135-.217.281-.434.373-.671.256-.665.05-1.086-.627-1.347-.114-.044-.232-.082-.342-.12.195-1.378.159-1.111-1.377-1.275.166-.466.32-.915.485-1.36 1.123-3.011 2.27-6.014 3.364-9.037.444-1.225.31-1.372-.952-1.512-.052-.006-.1-.069-.206-.146.09-.28.163-.591.285-.881.507-1.211 1.082-2.395 1.534-3.626 1.286-3.5 2.562-7.004 3.77-10.532 2.303-6.721 4.597-13.446 6.82-20.195 2.724-8.274 5.392-16.567 7.568-25.012 1.075-4.169 2.3-8.299 3.46-12.445.038-.135.108-.26.223-.532.13.348.229.546.279.756.59 2.47 1.218 4.932 1.745 7.415.747 3.523 1.413 7.063 2.123 10.594.297 1.482.623 2.958.92 4.44.123.613.131 1.178-.404 1.683-.363.342-.646.815-.84 1.282-1.014 2.43-1.589 4.972-1.534 7.607.037 1.83.269 3.657.413 5.485.21 2.662.484 5.322.616 7.988.185 3.728.319 7.46.375 11.193.05 3.41-.04 6.824-.051 10.235-.005 1.376-.099 2.753.269 4.117.188.7.159 1.458.239 2.303-.824.05-1.143.47-1.147 1.14-.002.285.048.576.108.856.308 1.447.633 2.89.94 4.336.422 1.982.882 3.961.457 6.013-.15.723-.234 1.46-.37 2.187-.542 2.872-.873 5.79-1.818 8.579-.107.315-.073.7-.025 1.043.105.734.264.875 1.007.865.898-.012 1.796-.068 2.694-.113 1.098-.055 1.233-.182 1.441-1.261.191-.999.433-1.981 1.012-2.941.669.991 1.556 1.721 1.777 2.907.125.672.609 1.028 1.311 1.053.385.014.77.082 1.152.071 3.336-.085 6.672-.209 10.009-.268 2.501-.043 5.004-.006 7.506-.007.544 0 1.09.006 1.632-.026.487-.03.75-.308.772-.812.016-.352.023-.711.1-1.052.488-2.143-.658-4.238-2.346-5.16-1.865-1.018-3.77-1.944-5.832-2.474-2.983-.766-5.72-2.078-8.34-3.662-1.308-.791-1.665-1.735-1.41-3.25.37-2.189.707-4.382 1.025-6.578.187-1.302.032-1.483-1.246-1.773-.059-.013-.112-.056-.3-.153.08-.702-.065-1.607.305-2.177.539-.83.572-1.736.863-2.595.061-.182.083-.377.133-.563 1.534-5.814 3.017-11.64 4.618-17.436 1.84-6.663 3.777-13.3 5.333-20.04.817-3.538 1.208-7.092.763-10.723-.373-3.033-.652-6.077-.996-9.113-.471-4.156-.944-8.312-1.453-12.463-.385-3.129-.811-6.252-1.246-9.373-.736-5.29-1.5-10.574-2.24-15.863-.217-1.561-.42-3.126-.565-4.695-.087-.94-.315-1.927.376-2.776.054-.067.054-.184.065-.28.288-2.393.62-4.783.847-7.183.238-2.53.363-5.07.564-7.603.052-.67.276-1.332.276-1.998 0-.326.063-.54.241-.771 1.08-1.401 2.128-2.826 3.237-4.202 3.27-4.055 6.59-8.067 9.833-12.144 2.24-2.817 4.385-5.71 6.568-8.573 1.73-2.267 2.442-4.852 2.384-7.681-.026-1.255-.019-2.511-.022-3.767-.013-5.505 0-11.01-.055-16.515-.012-1.265.137-2.485.346-3.724.359-2.139.935-4.284.07-6.46" transform="translate(1) matrix(-1 0 0 1 123.008 0)"></path>
        <g>
          <path d="M.222 77.01L.622 77.03.665 76.227.264 76.204zM.417 73.79l.4.029.06-.802-.4-.031c-.021.267-.041.535-.06.804M.148 78.616L.55 78.632.584 77.831.183 77.813zM.311 75.4L.711 75.424.762 74.621.362 74.594zM.09 80.224l.402.012c.008-.268.017-.535.027-.802l-.402-.015c-.01.268-.018.536-.026.805M1.47 64.17l.397.061c.042-.266.083-.53.126-.794l-.396-.064c-.043.264-.085.53-.126.797M.542 72.182l.4.033c.022-.268.044-.535.068-.801l-.4-.036-.068.804M1.24 65.768l.396.054.113-.796-.398-.058-.112.8M.018 83.442L.419 83.449.432 82.645.031 82.637zM1.031 67.367l.399.05c.032-.268.066-.533.1-.798l-.398-.052c-.034.265-.068.532-.1.8M.684 70.575l.4.039c.026-.268.051-.535.078-.8l-.399-.041c-.027.266-.054.534-.079.802M.847 68.97l.4.044c.028-.268.058-.534.089-.8l-.4-.046-.089.802M.047 81.832L.449 81.841.468 81.038.067 81.027zM10.407 5.476l.393.082c.055-.263.111-.525.169-.784l-.392-.088c-.058.261-.115.524-.17.79M9.804 8.648l.396.068c.045-.265.091-.53.139-.792l-.395-.071c-.048.263-.094.529-.14.795M10.758 3.898l.39.093c.062-.263.125-.523.189-.78l-.39-.098c-.064.26-.127.521-.19.785M10.09 7.059l.395.075c.05-.265.101-.528.153-.789l-.393-.079c-.052.263-.104.527-.154.793M11.586.774l.385.115c.076-.259.155-.514.236-.766L11.824 0c-.081.255-.16.513-.238.774M11.148 2.33l.388.103c.069-.26.139-.519.21-.774l-.386-.109c-.072.257-.143.517-.212.78M8.893 15.036l.399.048c.031-.267.064-.533.096-.798l-.398-.05-.097.8M0 86.122L.401 86.124.402 85.86 0 85.86zM.002 85.054L.404 85.056.41 84.252.009 84.248zM8.71 16.64L9.109 16.684 9.199 15.884 8.8 15.838zM9.308 11.838l.398.056c.037-.266.076-.532.114-.796l-.396-.059c-.04.265-.078.531-.116.799M9.545 10.242l.396.06.127-.793-.397-.065c-.043.265-.085.53-.126.798M9.091 13.436l.398.052.106-.798-.398-.054-.106.8M7.38 32.705L7.781 32.733 7.838 31.93 7.437 31.901zM7.725 27.883L8.126 27.913 8.185 27.109 7.784 27.08zM7.609 29.49L8.009 29.519 8.067 28.715 7.667 28.686zM7.495 31.098L7.895 31.125 7.952 30.323 7.552 30.294zM7.024 37.524L7.424 37.555 7.486 36.752 7.086 36.721zM6.894 39.128L7.294 39.162 7.36 38.359 6.96 38.326zM7.265 34.311L7.666 34.341 7.724 33.537 7.323 33.508zM7.147 35.918L7.547 35.948 7.607 35.144 7.206 35.115zM8.238 21.447L8.638 21.483 8.71 20.681 8.31 20.645zM8.385 19.842L8.784 19.88 8.862 19.08 8.462 19.041zM7.845 26.276L8.246 26.306 8.307 25.504 7.907 25.472zM8.542 18.24L8.94 18.281 9.023 17.483 8.624 17.442zM7.969 24.666L8.369 24.698 8.434 23.893 8.034 23.86zM8.1 23.055L8.5 23.088 8.568 22.285 8.168 22.25zM6.755 40.733L7.155 40.768 7.226 39.966 6.826 39.93zM3.525 54.708l.385.115c.076-.258.155-.514.235-.767l-.383-.122c-.08.255-.16.513-.237.774M4.013 53.166l.38.128c.086-.255.173-.507.262-.757l-.378-.136c-.09.252-.178.506-.264.765M3.087 56.263l.388.104c.069-.26.139-.518.211-.774l-.386-.11c-.072.258-.144.518-.213.78M2.018 60.988l.394.076c.05-.265.102-.527.155-.788l-.394-.08c-.053.262-.105.526-.155.792M4.558 51.642l.375.143c.096-.252.193-.5.292-.745l-.371-.151c-.101.247-.2.498-.296.753M2.692 57.83l.39.093c.063-.262.126-.521.191-.779l-.389-.098c-.065.259-.13.52-.192.784M1.73 62.577l.395.068c.046-.266.092-.53.14-.791l-.395-.072c-.048.263-.095.528-.14.795M2.337 59.405l.393.084c.055-.263.113-.524.171-.784l-.39-.089c-.06.261-.117.525-.174.789M6.434 43.934l.4.045.086-.802-.4-.042c-.027.269-.057.536-.086.8M6.244 45.531l.398.05c.033-.263.066-.53.098-.8l-.398-.048c-.032.27-.065.535-.098.798M6.602 42.334l.4.04c.027-.265.052-.533.078-.803l-.4-.037-.078.8M5.77 48.708l.396.07c.046-.26.09-.526.134-.797l-.397-.064c-.042.269-.087.532-.132.791M5.167 50.143l.368.16c.107-.248.217-.49.328-.729l-.364-.17c-.113.242-.223.488-.332.739M6.026 47.124l.397.058c.039-.262.077-.529.113-.8l-.397-.054c-.037.269-.074.534-.113.796" transform="translate(1) matrix(-1 0 0 1 123.008 0) translate(15.253 93.002)"></path>
        </g>
      </g>
      <path fill="#000" d="M37.947 28.986c-.315.702-.596 1.427-.806 2.166-.307 1.081-.53 2.187-.804 3.278-.123.492-.302 3.128-2.713 3.714-3.109.755-5.196 2.461-6.072 4.193.105-.538.336-1.143.764-1.834 1.946-3.135 4.97-3.43 6.423-3.57l.322-.034c.73-.081 1.083-1.929 1.49-4.068.377-1.972.803-4.207 1.597-5.305.999-1.38 3.163-3.16 5.977-3.63.74-.124 1.399-.069 1.97.07-.7-.04-1.434.11-2.179.312-2.645.713-4.801 2.1-5.97 4.708M27.619 46.797c-.042.407-.19.806-.397 1.216-.154.306-.265.662-.32 1.02-.016-1.035.248-1.621.717-2.236m21.027-20.24c-.003.034-.008.054-.019.057-.727.175-1.38.49-2.007.858-.34.156-.658.349-.943.588l-.37.241c-.098.064-.232.07-.364.106-.335-.363-.285-.706.083-.893 1.023-.518 2.065-1 3.12-1.444.156-.066.382.18.5.487m3.901-.1c-.943-.101-1.908.005-2.862-.018-.293-.007-.89-.83-1.131-1.105l-.002.009c-.019-.033-.034-.066-.058-.096l.037-.034c-.004-.005-.142-.153-.392-.352-.432-.418-.894-.666-1.377-.792-.708-.275-1.603-.448-2.653-.272-2.843.475-5.031 2.274-6.04 3.67-.808 1.116-1.236 3.363-1.615 5.345-.384 2.013-.746 3.914-1.404 3.987l-.32.033c-1.47.143-4.526.44-6.497 3.618-.52.836-.752 1.56-.822 2.187-.333.785-.418 1.564-.226 2.252.079.278.163.557.273.823.13.312.181.61.175.902-.582.734-.915 1.401-.822 2.765.01.16.04.31.083.456.295 2.419 2.117 4.445 4.65 4.924 4.36.825 7.901-.615 10.897-3.933 1.11-1.23 3.654-4.2 2.176-9.966-.267-.978-.47-1.973-.67-2.968.025-.258.059-.514.082-.77.087-.993.077-1.023-.874-1.517-.732-.38-1.156-1.197-.896-1.821.09-.213.306-.475.5-.509.353-.057.789.427 1.096.783.052.067.1.124.14.163.082.093.148.163.19.188.093-.185.237-.362.268-.557.062-.396.115-.794.167-1.193.047-.114.093-.229.15-.339.448-.876.964-1.73 1.55-2.52.343-.461.881-.724 1.537-.574 1.276.292 2.506.265 3.764-.262 1.142-.478 1.918.039 2.238 1.236.045.17.097.339.15.508-.01.368-.029.737-.063 1.103-.24 2.63-.584 5.243-1.768 7.657-.545 1.111-1.116 1.359-2.33.984-.891-.276-1.743-.642-2.464-1.264-.206-.178-.465-.478-.725-.134-.237.315.066.543.29.709.386.284.78.57 1.205.785 1.065.541 2.174.934 3.388.709.111.325.204.564.275.81.424 1.482.834 2.969 1.27 4.448.109.367.084.851.845 1.042-.058-.44-.064-.75-.143-1.04-.442-1.612-.91-3.215-1.346-4.828-.095-.351-.3-.694-.044-1.1 1.01-1.605 1.49-3.402 1.834-5.245.38-2.038.62-4.09.506-6.164.19-1.583-.556-2.548-2.192-2.723" transform="translate(1) matrix(-1 0 0 1 123.008 0)"></path>
      <g fill="#000">
        <path d="M3.863 2.194L4.477 4.628 3.582 4.718z" transform="translate(1) matrix(-1 0 0 1 123.008 0) translate(46.964 29.39)"></path>
        <g>
          <path d="M3.896 1.955L3.588 4.45l.98-.088-.672-2.407zM3.582 4.46s-.002 0-.003-.002l-.001-.003.311-2.524c0-.002.002-.003.004-.003.003 0 .005 0 .005.002l.68 2.434v.004l-.004.002-.99.09h-.002zM3.156.144s.037.746-.128.902c-.69-.077-2.244.18-3.024.526C.311.858 3.156.144 3.156.144" transform="translate(1) matrix(-1 0 0 1 123.008 0) translate(46.964 29.39) translate(0 .263)"></path>
          <path d="M3.152.15c-.065.016-.747.192-1.456.444-.968.346-1.55.68-1.683.969.76-.333 2.303-.6 3.014-.521.153-.15.128-.826.125-.893M.004 1.576c-.001 0-.002 0-.003-.002V1.57C.127 1.273.697.942 1.693.586 2.435.322 3.148.142 3.154.14l.004.001c.002 0 .002.002.002.003.002.03.036.75-.129.905 0 0-.002.002-.003.001-.713-.08-2.266.19-3.022.526H.004M1.967 3.48c-.223.014-.444-.028-.65-.096.075.022.157.035.242.035.422 0 .766-.303.766-.675 0-.15-.116-.328-.225-.452.541.05 1.017.332 1.193.449-.157.187-.646.697-1.326.739M.812 2.56c-.012.063-.02.133-.02.184 0 .27.181.503.442.61-.399-.147-.729-.386-.87-.497.082-.07.235-.187.448-.298m2.655.095c-.028-.021-.708-.53-1.507-.541C.863 2.1.201 2.773.173 2.8c-.016.017-.025.04-.024.063.001.023.011.045.029.06.035.031.832.73 1.701.73.033 0 .066-.002.098-.004.912-.056 1.484-.844 1.508-.878.027-.038.02-.09-.018-.118M5.708 3.308c-.195.014-.39-.034-.57-.109.032.006.063.01.094.01.341 0 .618-.278.618-.619 0-.15-.053-.29-.147-.4.038-.003.077-.004.115-.004.43 0 .824.304.961.424-.122.17-.52.658-1.07.698m-1.286-.58c.044-.038.111-.092.198-.15.016.143.078.287.175.404.026.032.054.06.083.085-.206-.122-.37-.261-.456-.339m2.528-.192c-.021-.022-.53-.52-1.132-.52-.933 0-1.556.624-1.582.65-.033.034-.033.087 0 .12.007.008.184.189.453.365.335.22.654.33.948.33.028 0 .055 0 .082-.002.754-.055 1.224-.806 1.244-.838.02-.034.016-.078-.013-.105M4.34.144s-.038.746.127.902c.69-.077 1.802.107 2.581.452C6.741.784 4.34.144 4.34.144" transform="translate(1) matrix(-1 0 0 1 123.008 0) translate(46.964 29.39) translate(0 .263)"></path>
          <path d="M4.812 1.024c.688 0 1.581.181 2.228.465-.133-.288-.638-.61-1.463-.932C4.977.323 4.403.166 4.343.15c-.002.067-.027.742.126.892.106-.012.221-.018.343-.018m2.236.478h-.002c-.76-.336-1.869-.53-2.578-.452h-.004C4.395.982 4.352.81 4.337.536 4.326.333 4.335.146 4.335.144L4.337.14h.004c.005 0 .608.162 1.24.408.583.228 1.312.577 1.47.947.002.002.001.004 0 .005l-.003.001M2.398 5.36c.424.402.769.626 1.344.664.575.04.977-.172.977-.172s-.46.783-1.016.929c-1.15.301-1.095-.604-1.305-1.421" transform="translate(1) matrix(-1 0 0 1 123.008 0) translate(46.964 29.39) translate(0 .263)"></path>
          <path d="M2.406 5.373c.033.129.059.26.084.387.083.416.162.808.438.98.18.114.434.126.774.037.51-.134.944-.814 1.006-.915-.074.036-.454.2-.967.167-.578-.04-.917-.26-1.335-.656M3.3 6.844c-.15 0-.276-.032-.378-.096-.279-.175-.358-.569-.442-.986-.026-.132-.053-.268-.087-.401 0-.002 0-.004.002-.005l.005.001c.422.4.76.624 1.341.663.567.038.971-.17.975-.171.002-.002.004-.001.005 0 .002.002.002.004 0 .005-.004.008-.466.786-1.017.931-.151.04-.285.06-.404.06" transform="translate(1) matrix(-1 0 0 1 123.008 0) translate(46.964 29.39) translate(0 .263)"></path>
        </g>
      </g>
    </g>
    <g>
      <path fill="#000" fill-rule="nonzero" d="M17.747 86.544c1.284.061 2.826-1.398 2.848-2.643-1.283.516-2.105 1.466-2.848 2.643m5.982-83.98c.251-.59.454-1.14.717-1.659.19-.376.478-.686.906-.829.252-.083.492-.143.701.07.206.209.182.476.087.712-.158.39-.352.765-.543 1.14-.143.28-.306.548-.47.839.08.068.134.133.203.171 2.315 1.266 3.522 3.268 3.854 5.866.228 1.788-.064 3.537-.358 5.282-.666 3.947-2.096 7.624-3.884 11.18-1.467 2.918-2.93 5.837-4.749 8.554-1.863 2.785-3.877 5.45-6.186 7.879-1.418 1.492-2.817 3.003-4.244 4.485-.432.45-.881.904-1.533 1.047-.267.058-.333.306-.385.53-.221.943-.463 1.883-.637 2.836-.738 4.023-.953 8.085-.837 12.168.137 4.769.768 9.458 2.237 14.01.656 2.035 1.443 4.007 2.703 5.752.92 1.274 1.974 2.414 3.346 3.196.523.299 1.093.523 1.661.725.477.17.548.119.81-.32.546-.915 1.22-1.72 2.097-2.32.392-.27.832-.49 1.28-.647.544-.19.906.14.83.723-.082.616-.325 1.179-.682 1.683-.707 1.001-1.685 1.583-2.883 1.712-.464.05-.65.275-.808.643-.68 1.589-1.01 3.253-1.103 4.975-.156 2.936.385 5.763 1.352 8.508.902 2.564 1.876 5.102 2.837 7.644 1.628 4.305 2.953 8.695 3.807 13.228.927 4.913 1.385 9.858 1.142 14.86-.064 1.328-.144 2.655-.22 3.983-.015.272-.074.543.25.708.071.037.125.236.092.322-.036.092-.18.176-.288.196-.429.08-.717-.147-.75-.63-.029-.441-.013-.888.014-1.33.232-3.647.403-7.3.053-10.945-.51-5.307-1.464-10.534-3.192-15.583-1.146-3.348-2.422-6.65-3.64-9.973-.763-2.08-1.468-4.178-1.848-6.368-.493-2.843-.481-5.672.34-8.463.09-.303.204-.598.313-.895.1-.272.207-.541.317-.831-.527-.205-1.021-.364-1.487-.583-1.754-.826-3.068-2.169-4.19-3.723-1.435-1.99-2.306-4.247-3.002-6.58-.7-2.346-1.267-4.725-1.555-7.162-.062-.527-.364-.879-.69-1.234-1.066-1.16-2.138-2.317-3.198-3.483-.283-.31-.534-.65-.799-.977C.19 62.016-.235 60.144.12 58.074c.064-.374.102-.755.2-1.12.174-.64.664-.792 1.12-.318.375.39.69.846.998 1.295 1.158 1.687 2.165 3.46 2.94 5.363.054.133.134.257.248.472.14-.326.076-.59.079-.84.02-1.878-.017-3.758.063-5.633.125-2.936.536-5.838 1.218-8.698.107-.449.278-.883.399-1.33.04-.148.08-.353.012-.467-.924-1.551-1.078-3.265-1.033-5.01.057-2.22.324-4.424.779-6.591.652-3.113 1.343-6.22 2.115-9.305 1.304-5.214 2.668-10.412 4.048-15.606.28-1.053.701-2.075 1.129-3.081.795-1.872 2.242-3.047 4.086-3.795 1.504-.61 3.071-.777 4.667-.81.166-.004.333-.008.5-.019.037-.002.073-.033.04-.017" transform="translate(1) matrix(-1 0 0 1 30.055 73.56)"></path>
      <path fill="#618133" d="M1.048 57.121l-.13.035c-.058.365-.12.73-.173 1.096C.476 60.072.789 61.76 2 63.177c1.214 1.42 2.49 2.789 3.741 4.176.033.036.112.03.212.054-.04-.506-.074-.985-.12-1.464-.007-.078-.06-.153-.095-.228-.216-.456-.458-.901-.645-1.369-.934-2.339-2.132-4.531-3.559-6.598-.15-.218-.324-.418-.486-.627M8.747 45.881l.12.083c.258-.241.53-.47.77-.727 1.495-1.592 3.003-3.172 4.468-4.79 3.027-3.348 5.65-6.995 7.794-10.981.838-1.556 1.612-3.147 2.42-4.72 1.712-3.332 3.003-6.816 3.687-10.515.304-1.64.556-3.285.444-4.967-.141-2.13-1.078-3.824-2.718-5.136-.254-.204-.561-.342-.846-.512-.073.11-.118.157-.14.213-.76 2.054-1.54 4.1-2.273 6.164-1.077 3.035-2.114 6.084-3.181 9.123-.775 2.205-1.593 4.395-2.351 6.607-.942 2.75-1.906 5.49-3.056 8.16-1.498 3.48-2.993 6.96-4.488 10.442-.222.517-.434 1.037-.65 1.556M23.608 3.269c-1.927.076-3.69.265-5.354 1.073-1.377.669-2.405 1.644-3.088 3.02-.565 1.139-.974 2.333-1.289 3.56-.91 3.552-1.79 7.112-2.707 10.663-1.138 4.408-2.314 8.808-3.161 13.286-.479 2.53-.857 5.075-.836 7.663.007.957.14 1.892.408 2.807.033.111.105.21.19.372.1-.183.18-.304.238-.434.928-2.076 1.891-4.137 2.771-6.234 1.33-3.165 2.702-6.317 3.872-9.543 1.883-5.188 3.623-10.43 5.41-15.653 1.113-3.25 2.206-6.507 3.305-9.761.08-.235.14-.476.241-.82" transform="translate(1) matrix(-1 0 0 1 30.055 73.56)"></path>
    </g>
    <g>
      <path fill="#000" fill-rule="nonzero" d="M5.391 28.947c.66-.381 1.17-.69 1.692-.974 1.407-.764 2.878-1.26 4.516-1.135 1.537.117 2.738.813 3.663 2.018.604.787 1.007 1.683 1.283 2.627.853 2.923 1.713 5.845 2.52 8.782 1.683 6.127 3.983 12.02 6.513 17.84 2.086 4.799 4.704 9.259 7.934 13.363.622.79 1.295 1.54 1.95 2.304.066.078.16.134.36.297.053-.368.128-.642.128-.916.003-2.776.021-5.553-.022-8.329-.028-1.795-.153-3.588-.231-5.383-.492-11.171-2.538-22.03-6.441-32.527-1.423-3.828-2.956-7.602-4.721-11.285-.478-.997-.877-2.063-1.109-3.14-.447-2.079.13-3.924 1.59-5.49.904-.968 1.978-1.698 3.124-2.332.853-.471 1.723-.912 2.667-1.41-.255-.476-.498-.92-.733-1.37-.137-.265-.298-.528-.372-.811-.036-.137.103-.319.163-.48.135.06.325.082.397.186.373.536.714 1.093 1.067 1.641.087.134.181.263.31.449.335-.153.65-.298.966-.44 1.438-.642 2.865-1.31 4.319-1.915.57-.237 1.192-.362 1.8-.487.563-.116.99.11 1.3.616 3.276 5.338 5.638 11.029 6.691 17.234.892 5.255 1.174 10.544.94 15.862-.354 8.027-1.723 15.887-3.89 23.62-1.477 5.266-3.2 10.452-4.956 15.63-.27.797-.53 1.601-.758 2.412-.412 1.462-.999 1.807-2.469 1.843-1.122.027-2.278-.18-3.377-.45-3.943-.974-7.755-2.313-11.26-4.41-2.823-1.69-5.243-3.863-7.46-6.284-5.176-5.649-8.733-12.22-11.236-19.425C1.18 43.598.674 40.417.102 37.23c-.39-2.18.367-3.846 1.762-5.333.703-.749 1.513-1.406 2.326-2.038.43-.335.584-.655.417-1.172-.107-.334-.17-.689-.201-1.04-.026-.268-.197-.67.237-.74.373-.06.363.346.43.583.123.437.197.886.318 1.456" transform="translate(1) translate(136.391 138.427)"></path>
      <path fill="#618133" d="M4.868 30.405c-.058.011-.15.004-.21.045-1.38.951-2.58 2.081-3.432 3.545-.39.672-.636 1.385-.502 2.181.359 2.145.612 4.314 1.102 6.428.864 3.724 2.341 7.24 3.962 10.69 2.647 5.632 6.284 10.559 10.809 14.805 4.897 4.595 10.927 6.877 17.372 8.24.237.05.493.006.919.006C19.022 64.719 9.61 49.099 4.868 30.405" transform="translate(1) translate(136.391 138.427)"></path>
      <path fill="#618133" d="M36.547 76.386c-.021-.186-.01-.247-.035-.278-.138-.167-.28-.332-.43-.487-3.24-3.3-5.876-7.051-8.19-11.036-1.588-2.732-2.788-5.653-4.047-8.544-1.597-3.666-3.05-7.388-4.21-11.215-.961-3.172-1.805-6.38-2.738-9.562-.466-1.588-.901-3.202-1.55-4.718-1.069-2.504-3.184-3.433-5.802-2.754-1.255.325-2.345.982-3.442 1.639-.42.252-.53.527-.393 1.003.588 2.063 1.036 4.173 1.735 6.196 1.733 5.014 3.674 9.94 6.283 14.584 5.52 9.826 12.75 18.111 21.964 24.626.253.18.523.335.855.546M31.977 3.54c.202.386.333.65.476.908 1.451 2.618 2.798 5.285 3.778 8.124 1.635 4.741 2.864 9.582 3.502 14.56.314 2.454.555 4.916.831 7.374.38 3.381.621 6.772.592 10.175-.039 4.382-.363 8.748-.738 13.112-.319 3.714-.702 7.418-1.338 11.092-.019.112.015.232.025.348.176-.185.26-.379.323-.58 1.065-3.397 2.166-6.784 3.183-10.196 2.152-7.215 3.568-14.574 4.117-22.09.36-4.92.281-9.833-.24-14.749-.778-7.354-3.125-14.144-7.01-20.417-.34-.55-.375-.601-.975-.414-.853.265-1.703.558-2.523.911-1.317.569-2.609 1.196-4.003 1.842" transform="translate(1) translate(136.391 138.427)"></path>
      <path fill="#618133" d="M31.244 3.895c-.946.487-1.846.924-2.718 1.408-1.072.595-2.085 1.277-2.932 2.182-1.365 1.461-1.883 3.177-1.394 5.115.252.993.628 1.972 1.078 2.893 1.831 3.743 3.401 7.59 4.8 11.513 2.694 7.554 4.732 15.262 5.606 23.257.606 5.548.97 11.11 1.077 16.689.047 2.446.008 4.893.008 7.396l.387.11c.07-.222.14-.395.179-.576.864-3.962 1.497-7.963 1.905-11.996.29-2.868.526-5.742.736-8.617.33-4.533.606-9.07.246-13.615-.215-2.711-.51-5.415-.751-8.124-.367-4.124-1.032-8.196-2.02-12.218-1.266-5.151-3.064-10.09-5.758-14.677-.133-.227-.274-.451-.45-.74" transform="translate(1) translate(136.391 138.427)"></path>
    </g>
  </g>
</svg>
