<?xml version="1.0" encoding="UTF-8"?>
<svg xmlns="http://www.w3.org/2000/svg" width="182" height="198" viewBox="0 0 182 198">
  <defs>
    <linearGradient id="gnx9c5ipza" x1="0%" x2="69.489%" y1="50%" y2="50%">
      <stop offset="0%" stop-color="#FFC82A"></stop>
      <stop offset="100%" stop-color="#F85C15"></stop>
    </linearGradient>
  </defs>
  <g fill="none" fill-rule="evenodd">
    <g>
      <g>
        <g fill="#000" fill-rule="nonzero">
          <path d="M1.15 2.935c0 2.266.019 4.465-.007 6.663-.013 1.055-.116 2.109-.163 3.164-.056 1.263-.097 2.527-.143 3.79-.062 1.73-.153 3.46-.171 5.191-.01.932.096 1.865.168 2.797.038.505.331.859.761 1.118.499.3 1.051.386 1.616.392 1.458.014 2.915.01 4.372.017.134 0 .269.025.404.038.165 1.685-.308 3.273-.558 4.98.928-.446 1.689-.937 2.382-1.516 1.042-.87 1.713-2.007 2.224-3.236.119-.286.269-.388.578-.4 2.14-.08 4.279-.215 6.42-.263 3.44-.077 6.882-.105 10.323-.144 2.915-.033 5.83-.013 8.74.16.304.018.612-.033.927-.053.043-.33.105-.603.11-.877.015-.814.029-1.629.005-2.442-.043-1.418-.147-2.835-.167-4.254-.03-2.079-.04-4.159-.001-6.237.035-1.958.058-3.912-.203-5.86-.062-.462-.06-.936-.159-1.39-.19-.872-.507-1.697-1.193-2.326-1.176-1.08-2.596-1.561-4.177-1.573-.876-.006-1.755.054-2.63.125-1.783.147-3.564.334-5.348.48-1.959.161-3.921.292-5.881.44-1.698.128-3.395.266-5.092.39-1.576.116-3.156.193-4.73.335-2.64.237-5.284.403-7.935.461-.154.004-.309.02-.471.03m11.362 23.692c-.185.767-.61 1.383-.993 2.022-.735 1.227-1.9 1.967-3.095 2.674-.21.124-.428.238-.65.341-.157.074-.321.15-.49.177-.399.067-.597-.131-.532-.53.094-.581.213-1.159.31-1.739.137-.819.264-1.64.391-2.46.015-.098.002-.201.002-.347-.183-.01-.353-.029-.522-.029-1.054 0-2.108.028-3.16 0-.576-.016-1.158-.077-1.72-.196-.994-.212-1.85-.91-1.939-2.214-.139-2.025-.156-4.045-.03-6.07.126-2.057.159-4.12.306-6.175.133-1.852.081-3.703.097-5.555.01-1.16.045-2.32.068-3.48.006-.298.24-.576.566-.651.118-.028.244-.034.366-.036 3.126-.061 6.236-.36 9.35-.613 2.011-.163 4.024-.309 6.036-.462C19.446 1.09 22.02.902 24.59.696c2.431-.194 4.861-.41 7.292-.611 1.489-.124 2.932-.003 4.323.619 1.78.796 2.847 2.13 3.11 4.016.285 2.039.448 4.09.398 6.158-.056 2.354-.046 4.71-.021 7.065.015 1.419.13 2.836.168 4.255.026.917.014 1.836-.018 2.752-.01.299-.095.614-.224.884-.199.415-.575.546-1.043.527-1.509-.058-3.018-.126-4.527-.127-4.424 0-8.848-.102-13.272.079-2.56.104-5.123.175-7.685.263-.19.007-.378.033-.578.05" transform="translate(59.837) matrix(-1 0 0 1 41.397 0)"></path>
          <path d="M20.541 18.827c.137-.18.216-.27.279-.37.858-1.373 1.708-2.75 2.57-4.119.604-.959 1.248-1.893 1.824-2.867.337-.57.632-1.178.838-1.803.119-.36.058-.79.014-1.181-.043-.392-.335-.61-.731-.597-.429.013-.879.021-1.278.151-1.496.488-2.786 1.273-3.642 2.621-.204.32-.427.347-.703.098-.075-.068-.13-.157-.201-.229-.687-.692-1.346-1.414-2.072-2.066-.89-.801-1.963-1.25-3.189-1.267-1.367-.017-2.344.912-2.201 2.116.053.45.176.92.39 1.318.334.618.712 1.234 1.181 1.758.838.936 1.725 1.837 2.653 2.689 1.377 1.264 2.809 2.472 4.268 3.748" transform="translate(59.837) matrix(-1 0 0 1 41.397 0)"></path>
        </g>
        <path fill="url(#gnx9c5ipza)" d="M21.956 8.195c.824-.595 1.774-.931 2.792-1.052.299-.035.614 0 .914.048.567.092.898.46 1.062.976.247.78.199 1.565-.145 2.296-.386.819-.815 1.623-1.292 2.394-1.34 2.165-2.714 4.31-4.075 6.463-.064.102-.122.21-.2.302-.265.312-.472.32-.777.051-1.206-1.062-2.432-2.103-3.616-3.188-1.349-1.236-2.732-2.445-3.823-3.922-.494-.67-.958-1.358-1.218-2.152-.217-.662-.285-1.344-.094-2.019.287-1.01 1.02-1.572 2.043-1.792 1.143-.247 2.209.026 3.217.535.889.448 1.608 1.112 2.275 1.83.289.312.575.627.835.91.74-.594 1.396-1.17 2.102-1.68z" transform="translate(59.837) matrix(-1 0 0 1 41.397 0)"></path>
      </g>
      <g fill="#000" fill-rule="nonzero">
        <g>
          <path d="M28.345 164.812c-.354-.225-.627-.181-.984-.064.32.517.6.367.984.064zm.662-.147c.867.797 1.435.749 2.038 0h-2.038zm8.895-14.574l-.003.226 1.834.252-.116-.8-1.715.322zm2.219 2.291l-.289-1.02c-.965-.172-1.863-.253-2.71-.504-1.162-.347-2.16-.01-3.15.45v2.276l6.149-1.202zm-.35-3.413c-.367-.601-.539-1.23-.945-1.484-1.698-1.06-3.504-.97-5.304-.216-.482.201-.58.624-.474 1.08.114.492.119 1.091.792 1.216 1.057.196 2.094.39 3.18.012.83-.289 1.727-.39 2.751-.608zm4.949 4.65c-.283-1.082-.658-2.072-.775-3.09-.119-1.043.015-2.114.039-3.157-1.037.187-2.036.356-3.03.55-.51.1-.528.167-.366.883.391-.039.788-.11 1.183-.104.18.002.357.153.536.237-.1.176-.163.405-.313.51-.146.102-.38.086-.576.101-.319.023-.639.029-1.015.045l.094 1.018c.446.108.822.29 1.081-.23.03-.06.318.01.57.026l-.514 1.019c-.186.01-.338.016-.49.028-.143.011-.287.03-.436.045.259 1.227.26 1.222 1.37 1.437.362.07.718.174 1.076.267.525.137 1.049.277 1.566.414zM71.523 24.164l.062.143c.75-.117 1.495-.283 2.248-.337.829-.06 1.545-.357 2.26-.746 2.2-1.192 4.412-2.362 6.627-3.523.376-.197.81-.277 1.198-.456.458-.211 1.008-.276 1.392-.805-.211-.272-.38-.574-.63-.78-.153-.126-.46-.196-.644-.133-.694.239-1.378.516-2.044.825-3.476 1.614-6.878 3.368-10.092 5.467-.14.091-.252.229-.377.345zM28.736 145.153c0 .61.002 1.19 0 1.767-.003.475.246.645.7.646.68 0 1.36.022 2.039.065.49.031.895-.012 1.168-.52.119-.22.407-.393.656-.49 2.086-.814 4.134-.983 6.075.42.192.14.439.323.643.303 1.004-.1 2.013-.213 3.02-.542v-2.336l-14.301.687zm-1.271 2.988c.32 1.162.603 2.234.916 3.298.443 1.508.601 3.025.24 4.573-.033.142-.005.298-.005.469.124-.014.226.003.296-.037 1.266-.705 2.53-1.413 3.788-2.133.146-.084.323-.228.357-.375.174-.746.29-1.503.037-2.38-.348.13-.645.283-.96.342-.163.031-.358-.102-.539-.16.102-.162.166-.386.311-.473.334-.199.707-.331 1.03-.476.031-.483-.136-.72-.567-.733-.152-.004-.312.014-.454-.027-.153-.046-.29-.15-.434-.227.11-.13.197-.3.336-.382.197-.115.432-.165.696-.258-.223-.38-.208-.857-.769-.874-1.382-.041-2.764-.094-4.28-.147zm3.028-90.035c3.85-.533 7.267-4.715 6.725-8.59-.33.098-.655.182-.97.29-1.52.519-3.025 1.08-4.559 1.55-.575.176-.814.488-.853 1.033-.06.833-.117 1.667-.166 2.5-.063 1.07-.118 2.14-.177 3.217zm43.64-2.117l-2.527-7.865-6.254 1.52c1.123 3.443 5.685 6.75 8.78 6.345zm36.656 107.39c-11.555-.25-22.881.222-34.2-.254-.307-.014-.617.014-.925.026-.028.001-.058.024-.08.043-.022.02-.035.048-.06.085 0 .077-.014.17.004.258.018.089.059.176.102.257.447.844.855.932 1.592.352.188-.148.39-.28.572-.41.164.084.286.123.38.197 1.035.806 2.095 1.025 3.22.174.28-.213.573-.164.874-.022.335.157.673.312 1.022.435.744.264 1.445.21 2.11-.272.644-.468.659-.449 1.344.057.98.725 1.874.787 2.915.116.403-.26.722-.266 1.102-.02.82.533 1.613.407 2.29-.227.531-.497.965-.461 1.553-.088.962.612 2.049.832 3.079.235.686-.397 1.213-.352 1.875.006 1.419.768 2.892.88 4.334.044.516-.298.888-.242 1.311.167.66.637 1.47.78 2.323.453.488-.187.942-.235 1.438-.056.448.163.885.072 1.166-.324.24-.336.397-.731.659-1.232zM22.036 31.668c-2.571-5.371-4.263-11.048-7.907-15.817l-3.92 3.372c3.27 4.51 5.578 9.444 8.283 14.25l3.544-1.805zm52.682 106.337c.58-.097 1.001-.165 1.42-.238 2.25-.388 4.488-.878 6.753-1.142 3.279-.383 6.571-.7 9.884-.608.32.009.643-.073 1-.118l-.181-5.221c-.83.073-1.566.121-2.298.204-2.33.264-4.661.533-6.99.815-3.062.37-6.123.76-9.187 1.126-.463.055-.667.276-.655.716.022.896.044 1.791.09 2.686.028.547.099 1.092.164 1.78zM23.427 31.337v.497l-4.914 2.42c1.156 1.28 2.286 2.545 3.431 3.795 1.15 1.254 2.244 2.571 3.493 3.719 1.23 1.13 2.293 2.398 3.265 3.673.187-1.465.247-2.898.57-4.27.968-4.13 1.187-8.318 1.172-12.533 0-.138-.041-.276-.079-.512l-6.938 3.21zm.626 107.105c-.225 1.831-.37 3.664-.283 5.589.326.068.617.164.914.185 1.016.073 2.037.197 3.05.16 4.693-.168 9.387-.339 14.075-.604 2.185-.123 4.36-.452 6.536-.713.567-.067 1.121-.224 1.671-.338l-.644-7.185c-.444-.027-.807-.077-1.167-.067-1.205.036-2.409.109-3.613.14-3.102.082-6.15.479-9.126 1.406-2.542.793-5.134 1.365-7.812 1.423-1.14.025-2.28.004-3.601.004zm27.879 25.35c.342-1.228.204-2.45-.36-3.569-.875-1.732-2.113-3.199-3.702-4.329-1.536-1.092-3.297-1.64-5.105-2.112-1.989-.519-3.96-.557-5.958-.14-2.642.551-5.01 1.727-7.255 3.182-.667.431-1.162 1.048-1.422 1.79-.386 1.105-.728 2.231-1.01 3.368-.152.606-.14 1.254-.216 2.024 8.315-.299 16.5-.487 24.683-.147.089.003.178-.033.345-.067zM25.434 61.642c.4.229.73.457 1.091.607.167.068.451.053.59-.05 1.064-.789 1.959-1.688 2.082-3.13.196-2.283.408-4.563.672-6.838.237-2.056-.166-3.915-1.325-5.649-.864-1.293-1.811-2.5-2.889-3.62-1.565-1.629-3.075-3.31-4.633-4.946-1.215-1.276-2.458-2.524-3.706-3.767-.282-.282-.659-.467-.942-.748-.112-.112-.09-.362-.128-.549.168 0 .36-.054.497.009.258.118.485.303.833.532-.651-2.024-6.025-11.442-6.978-12.284-.2.129-.41.257-.612.396-2.383 1.645-4.388 3.717-6.412 5.762-.563.569-1.077 1.197-1.545 1.847-1.456 2.024-1.702 4.223-.733 6.51 1.347 3.176 3.595 5.573 6.695 7.044 3.545 1.682 7.157 3.223 10.76 4.777 2.553 1.1 5.143 2.118 7.712 3.184.252.105.48.277.701.443.421.315.874.61.514 1.273-.084.156.046.42.054.635.053 1.452.105 2.903.146 4.355.018.61-.28 1.036-.779 1.384-1.066.742-2.107 1.52-3.156 2.286-.209.152-.503.267-.327.714.263-.15.503-.267.722-.414 1.23-.83 2.452-1.673 3.691-2.49.147-.098.381-.063.575-.089-.027.186-.001.404-.091.55-.307.5-.654.976-.987 1.46-.249.362-.57.597-1.02.415-.417-.17-.712-.038-1.072.39zM92.22 152.26c.065-.432.062-.73.158-.993.972-2.673.967-5.396.454-8.15-.141-.758-.284-.86-1.066-.795-.153.014-.305.052-.459.069-2.766.288-5.53.609-8.302.851-2.064.18-4.137.253-6.205.386-.32.021-.635.111-.992.176.08.448.13.782.198 1.114.418 2.002.7 4.021.804 6.067.177 3.489-.162 6.926-.96 10.323-.08.341-.096.697-.154 1.132 11.617.472 23.114.008 34.623.229.213-.778.423-1.423.564-2.083.633-2.96-.442-5.408-3.031-6.936-2.296-1.356-4.869-1.932-7.405-2.607-.05-.013-.114.03-.2.057-.39.651-.303 1.538-.966 2.237-.671-.965.352-1.734.116-2.642l-1.995-.555c-.06.25-.097.398-.128.546-.095.454-.159.917-.297 1.357-.049.152-.282.247-.43.367-.081-.175-.221-.347-.23-.526-.009-.206.115-.414.151-.627.072-.418.125-.84.189-1.282l-2.903-1.322c-.168.704-.27 1.347-.482 1.95-.194.557-.121 1.303-1.052 1.657zM81.785 23.413c-.501.336-.532.312-1.642.452-3.034.385-6.089.668-9.09 1.231-4.978.934-9.937 1.987-14.868 3.141-1.52.356-2.795.24-4.17-.426-1.3-.63-2.702-1.05-4.063-1.552-.292-.107-.604-.219-1.024-.005 1.521 1.295 3.554 1.5 4.965 2.904-.376.454-.845.602-1.321.675-1.431.218-2.813-.055-4.007-.825-1.61-1.036-3.127-2.216-4.685-3.332-.236-.17-.48-.328-.834-.57-.01.615.291.888.546 1.176 1.363 1.54 2.934 2.836 4.682 3.913.422.261.647.54.44 1.087-.519.114-.962-.054-1.39-.322-1.548-.964-3.095-1.93-4.649-2.884-.353-.217-.735-.39-1.103-.582l-.14.17c.174.231.318.497.53.687.69.618 1.38 1.242 2.117 1.8 1.059.804 2.163 1.549 3.241 2.327.242.175.457.39.677.581-.468.657-.506.687-1.137.355-1.176-.619-2.334-1.27-3.503-1.902-.187-.101-.392-.17-.588-.253.59.835 1.365 1.386 2.174 1.898.81.512 1.613 1.034 2.414 1.562.246.162.468.408.247.682-.116.143-.424.16-.648.174-.141.01-.293-.086-.434-.147-.906-.395-1.81-.796-2.716-1.19-.201-.087-.412-.153-.751-.278.633.793 1.26 1.308 2.352 1.69 1.572.55 3.158 1.086 4.776 1.47 2.05.489 4.15.636 6.263.58 3.71-.096 7.422-.119 11.129-.272 3.799-.158 7.591-.464 11.389-.652 2.502-.124 5.008-.161 7.512-.226 1.43-.037 2.734-.442 3.928-1.227.615-.404 1.036-.948 1.32-1.629.556-1.336.615-2.673.258-4.082-.69-2.723-2.015-5.117-3.68-7.33-.624-.83-1.414-1.533-2.147-2.313-2.117 1.148-4.32 1.882-6.39 3.362.381 0 .55.013.716-.002.862-.078 1.724-.15 2.583-.25.33-.038.618-.075.721.334zm1.175-6.34c-.319-.392-.533-.687-.779-.951-1.936-2.089-3.877-4.173-5.82-6.255-1.941-2.082-3.846-4.202-5.85-6.222-.817-.822-1.815-1.49-2.802-2.114C66.464.745 65.053.466 63.606.794c-2.469.56-4.922 1.19-7.38 1.8-.321.08-.63.213-.972.33.019.34.033.647.054.952.098 1.427.115 2.85-.212 4.253-.264 1.135-.706 2.175-1.6 2.976-.529.475-1.12.717-1.842.746-1.628.065-2.838-.726-3.908-1.823-1.643-1.686-2.78-3.702-3.736-5.833-.095-.212-.218-.413-.325-.615-5.015 1.472-9.972 2.871-14.667 5.078-4.681 2.2-9.11 4.826-13.449 7.463-.012.206-.043.284-.016.326 2.711 4.319 4.502 9.08 6.572 13.705.112.251.252.49.407.787l7.428-3.426c.085-.039.172-.071.26-.1.612-.199.848-.04.9.622.017.215.007.433.002.65-.031 1.33-.079 2.66-.094 3.991-.023 1.987-.213 3.953-.582 5.907-.317 1.672-.673 3.344-.847 5.033-.119 1.155-.182 2.408.145 3.492.354 1.173.894 2.288.909 3.55.152.008.25.038.333.013 1.444-.438 2.885-.885 4.328-1.325 1.236-.376 2.463-.795 3.714-1.109 1.952-.489 3.936-.804 5.952-.89 2.582-.113 5.115.237 7.655.654 2.5.41 5.012.8 7.534.998 4.07.32 7.999-.478 11.807-1.903l1.382-.517c-.037-.317-.05-.562-.098-.8-.16-.788-.301-1.582-.507-2.358-.412-1.553-.798-3.118-1.317-4.636-.412-1.208-.372-1.01-1.45-.966-.402.015-.805.02-1.205.059-3.915.376-7.838.551-11.771.516-.371-.003-.742.014-1.113.034-1.919.105-3.833.072-5.728-.275-1.094-.2-2.186-.425-3.264-.7-1.077-.274-2.169-.54-3.19-.964-.96-.4-1.85-.98-2.746-1.524-.28-.17-.548-.438-.693-.726-.122-.24-.141-.606-.051-.862.116-.33.463-.358.795-.276.152.038.312.049.64.097-.413-.363-.703-.59-.96-.85-.392-.396-.797-.788-1.12-1.236-.129-.179-.143-.54-.054-.753.119-.282.432-.308.726-.186.218.09.44.168.66.252-.168-.378-.452-.592-.687-.851-.497-.545-.99-1.098-1.441-1.681-.223-.287-.213-.653.039-.948.26-.305.612-.273.943-.157.26.092.499.245.751.362.208.096.42.18.63.269-.058-.238-.187-.37-.288-.52-.293-.432-.606-.857-.852-1.316-.193-.361-.098-.727.222-1.005.307-.267.646-.358 1.023-.139.24.14.487.272.714.431 1.04.727 2.053 1.494 3.116 2.185.877.57 1.784 1.113 2.73 1.554.617.287 1.326.424 2.188.119-.34-.178-.543-.29-.752-.391-.64-.31-1.298-.586-1.916-.933-.343-.192-.673-.462-.906-.772-.162-.215-.242-.58-.19-.844.068-.348.442-.422.757-.38.578.079 1.175.135 1.718.33 1.337.478 2.655 1.015 3.968 1.559 1.062.44 2.12.545 3.256.287 3.917-.891 7.845-1.735 11.767-2.598.528-.115 1.055-.238 1.624-.367-.091-.381-.146-.652-.22-.919-.46-1.673-.975-3.326-1.85-4.841-.172-.3-.35-.613.214-.864 1.458 1.779 1.76 4.062 2.584 6.211 4.06-2.901 8.452-4.955 12.906-7.133zM49.172 65.588c-.488-.104-.818-.177-1.149-.246-1.482-.308-2.966-.605-4.442-.935-.155-.035-.268-.263-.4-.402.156-.11.303-.289.473-.313.2-.03.419.079.631.119 1.88.358 3.75.793 5.645 1.04 1.151.152 2.341.026 3.513.004 1.354-.027 2.366.455 3.019 1.72 1.389 2.694 2.884 5.334 4.251 8.04 1.702 3.369 3.272 6.805 4.986 10.168 1.25 2.452 2.645 4.83 3.964 7.248.748 1.371 1.214 2.829 1.399 4.392.556 4.701 1.132 9.4 1.737 14.095.775 6.013 1.581 12.022 2.384 18.032.15 1.124.345 2.242.523 3.38l16.531-1.837-.048-.744c-.152-2.255-.32-4.51-.453-6.766-.163-2.782-.28-5.567-.447-8.35-.206-3.399-.454-6.796-.661-10.195-.153-2.503-.286-5.008-.4-7.513-.091-1.996-.437-3.93-1.185-5.792-1.337-3.33-2.622-6.682-3.994-9.998-2.14-5.175-4.296-10.344-6.524-15.482-1.144-2.64-2.457-5.204-3.694-7.803l-.318-.671c-2.349.211-4.24-.9-6.078-2.035-1.895-1.172-3.048-3.02-3.907-4.987-.187-.02-.279-.043-.37-.038-3.67.247-7.285-.194-10.882-.867-3.385-.635-6.78-1.094-10.23-.612-1.65.23-3.294.488-4.87.99-.291 5.875-3.44 8.537-7.93 9.92-.02.16-.05.34-.06.521-.228 3.553-.46 7.105-.675 10.658-.162 2.689-.291 5.38-.452 8.068-.352 5.87-.716 11.742-1.071 17.612-.312 5.16-.62 10.321-.928 15.482-.31 5.191-.617 10.383-.93 15.574-.161 2.658-.347 5.314-.494 7.972-.048.856-.008 1.717-.008 2.635.188.017.396.044.605.053 2.148.088 4.262-.179 6.345-.675 1.352-.323 2.692-.7 4.028-1.084 2.82-.813 5.716-.999 8.627-1.083.792-.023 1.584-.086 2.44-.134l1.499-69.161zm.52 99.103c.39.175.765.405 1.174.51.4.102.761-.03.888-.65-.751.06-1.417.11-2.084.163-.284-.082-.565-.216-.854-.235-.678-.045-1.36-.05-2.04-.045-4.822.037-9.644.08-14.466.126-.19.002-.378.063-.744.128.495.36.81.67 1.186.847.757.358 1.299-.397 1.906-.494.353.268.634.649.93.661.292.013.605-.34.9-.545.255-.179.523-.252.751-.005.668.723 1.39.556 2.094.118.507-.314.918-.301 1.451-.011.695.378 1.428.328 2.063-.245.154-.14.35-.234.554-.368 1.077.856 2.173.753 3.296.134.162-.09.453-.128.595-.042.82.498 1.604.284 2.4-.047zm43.3-34.769c1.472.035 1.415.034 1.378 1.527-.034 1.359.075 2.721.116 4.082.01.306.002.613.002 1.042l-3.101.183c-.021.23-.05.465-.063.7-.062 1.082-.118 2.164-.18 3.246-.015.244-.008.549-.367.514-.323-.032-.34-.31-.324-.57.057-.896.122-1.792.17-2.689.019-.365.003-.733.003-1.08-1.655-.434-12.072.79-14.481 1.689-.176 1.397.034 2.806.14 4.338.316 0 .613.02.907-.004 4.008-.312 8.017-.622 12.023-.954.954-.08 1.9-.259 2.852-.355 1.085-.11 1.164-.045 1.358.998.318 1.706.502 3.425.41 5.272l2.533 1.282c0-.35-.033-.559.011-.748.03-.122.164-.293.266-.305.113-.012.342.121.352.211.168 1.423 1.354 1.377 2.326 1.64.028.007.062-.003.227-.015l-.253-1.748c.727.086.727.086 1.066 2.058.418.138.876.3 1.342.44 1.094.33 2.217.582 3.281.99 1.207.463 2.393 1.004 3.533 1.614 2.883 1.541 3.518 4.737 3.14 7.074-.08.486-.282.954-.346 1.441-.079.598-.15 1.216-.086 1.81.122 1.126-.934 2.28-2.048 2.057-.6-.12-1.132-.1-1.713.065-.845.243-1.654.067-2.387-.428-.177-.12-.352-.245-.561-.391-.917.478-1.89.855-2.923.675-.992-.174-1.956-.506-3.119-.82-1.425.93-3.033.65-4.588-.269-.328.224-.595.438-.89.6-.726.403-1.48.391-2.231.068-.29-.124-.529-.227-.862-.035-1.198.69-2.368.533-3.491-.216-.102-.068-.213-.124-.377-.219-1.18.926-2.435.791-3.721.173-.193-.093-.517-.12-.687-.02-1.242.73-2.428.521-3.607-.134-.051-.029-.115-.034-.186-.054-.073.04-.163.071-.234.127-.59.454-1.229.656-1.873.174-.674-.506-1.087-1.171-.915-2.076.337-1.763.72-3.518.992-5.29.588-3.83.426-7.654-.272-11.46-.118-.639-.25-1.275-.37-1.914-.083-.439-.328-.914.3-1.193.08-.036.104-.274.097-.416-.066-1.293-.145-2.585-.222-3.93-.172-.015-.318-.025-.462-.041-.653-.076-.864-.207-.907-.826-.107-1.544-.178-3.09-.211-4.637-.015-.704.12-.799.827-.999.116-.033.231-.07.429-.13-.145-1.01-.294-2.01-.43-3.011-.407-3.037-.814-6.073-1.214-9.111-.405-3.067-.808-6.134-1.2-9.203-.548-4.267-1.158-8.527-1.597-12.805-.249-2.423-.875-4.658-2.114-6.751-3.253-5.494-5.957-11.269-8.713-17.02-1.189-2.48-2.606-4.85-3.89-7.287-.477-.904-1.204-1.298-2.184-1.274-1.199.031-2.397.09-3.67.14-.051.447-.126.838-.135 1.23-.071 2.848-.13 5.697-.192 8.546l-.561 26.198c-.182 8.485-.364 16.97-.549 25.455-.045 2.075-.104 4.15-.153 6.224-.01.427-.002.854-.002 1.216.112.08.134.108.16.112 1.385.205 1.417.201 1.567 1.592.145 1.352.206 2.713.325 4.069.058.677.182 1.349.236 2.027.026.326-.042.66-.072 1.037l-6.772.934-.1 1.741c.165.098.299.166.42.25.603.418.861.38.62 1.482-.451 2.06-.258 4.062 1.093 5.83.292.382.597.69 1.026.895 2.295 1.1 3.896 2.917 5.135 5.077.717 1.248.896 2.62.661 4.042-.03.182-.078.364-.082.546-.024 1.184-.964 1.972-2.09 1.61-.673-.215-1.286-.322-1.964-.127-.198.057-.46.064-.64-.02-.674-.313-1.273-.126-1.932.095-.87.291-1.772.226-2.611-.24-1.014.681-2.054.82-3.165.271-.15-.074-.42-.003-.592.084-.94.473-1.869.641-2.8-.057-.794.667-1.59.96-2.354.022-1.138.686-2.127.56-3.036-.39-.918.457-1.854.751-2.758.034-.541.217-1.051.553-1.584.084-.582-.512-1-1.11-.905-1.934.186-1.633.54-3.221 1.066-4.788.837-2.492 1.244-5.029.372-7.628-.353-1.054-.603-2.143-.89-3.219-.225-.846-.107-1.034.719-1.212.146-.031.291-.065.516-.115-.031-.51-.06-.993-.1-1.61-.431 0-.823.02-1.212-.004-.833-.052-1.667-.1-2.496-.198-.943-.111-1.124-.305-1.101-1.246.042-1.732.128-3.464.2-5.196.004-.122.036-.244.062-.365.147-.696.151-.696.844-.569.176.032.355.049.586.08.042-.258.095-.46.107-.666.267-4.513.525-9.026.793-13.539.438-7.357.88-14.714 1.321-22.07.244-4.08.487-8.16.735-12.24.354-5.81.71-11.62 1.068-17.43.106-1.731.237-3.46.322-5.192.039-.802-.007-1.608-.011-2.412-.003-.672 0-1.344 0-2.036-.474-.21-.69.116-.932.388-.811.913-1.133.972-2.219.395-.434-.23-.86-.478-1.275-.71-.35.157-.647.333-.968.427-.677.197-1.14-.209-.949-.891.127-.45.452-.843.729-1.334-.373-1.324-.373-1.324.289-1.753.183-.397.24-.8.463-.94.38-.24.676.135.942.387.245.233.472.484.71.73 1.007-.377 1.494-1.039 1.396-2.13-.108-1.201-.149-2.409-.234-3.613-.063-.876-.47-1.471-1.332-1.812-2.07-.82-4.121-1.683-6.166-2.562-3.861-1.66-7.74-3.285-11.56-5.037-3.103-1.425-5.457-3.713-7.006-6.784C-.589 33.64-.296 30.679 2 28.044c2.322-2.664 4.851-5.127 7.765-7.158.149-.104.288-.22.474-.364-.154-.229-.283-.428-.42-.623-.496-.702-.507-.785.154-1.391.73-.67 1.493-1.302 2.243-1.949.351-.304.715-.593 1.054-.91.791-.742.786-.747 1.736-.052.442-.268.905-.565 1.381-.837 3.17-1.81 6.278-3.74 9.53-5.386 3.857-1.954 7.79-3.772 12.027-4.819 1.676-.413 3.31-1.004 4.956-1.533.398-.128.772-.334 1.154-.503.437.982.767 1.953 1.279 2.817.772 1.299 1.598 2.58 2.543 3.756.544.677 1.304 1.247 2.076 1.663 1.598.865 3.05.38 3.912-1.225.833-1.552.938-3.25.838-4.97-.029-.493-.113-.983-.177-1.474-.082-.632-.023-.767.579-.94.592-.173 1.202-.282 1.8-.431 1.919-.478 3.838-.95 5.752-1.446 2.605-.677 4.935-.055 6.936 1.639 1.508 1.276 2.923 2.676 4.28 4.115 2.845 3.017 5.625 6.096 8.43 9.151.231.251.46.505.665.776.37.488.736.846 1.463.675.532-.125 1.804.976 1.78 1.515-.013.324-.257.675-.482.943-.187.223-.497.34-.853.57.322.352.603.664.889.971 2.702 2.909 4.538 6.284 5.093 10.227.297 2.113-.44 3.973-2.347 5.19-1.257.802-2.64 1.184-4.128 1.22-2.104.05-4.207.115-6.31.185-1.856.061-3.71.137-5.566.212-.204.009-.407.061-.589.09-.02.12-.056.19-.037.236.995 2.484 1.491 5.1 2.082 7.694.08.347.268.67.425 1.05-.445.588-1.266.543-1.898 1.071.087.537.12 1.155.291 1.734 1.338 4.557 3.142 8.92 5.287 13.16 1.353 2.676 2.508 5.456 3.664 8.225 2.444 5.855 4.86 11.722 7.221 17.61.678 1.686 1.18 3.45 1.667 5.205.22.794.24 1.652.29 2.485.22 3.647.414 7.295.624 10.943.307 5.348.614 10.696.933 16.043.115 1.916.259 3.83.396 5.746.022.307.08.611.13.972z" transform="translate(59.837) matrix(-1 0 0 1 121.636 7.888) translate(0 21.307)"></path>
          <path d="M50.207 60.526c-.182-.543.07-.668.424-.7.524-.048 1.048-.084 1.573-.125.216-.017.432-.03.647-.052 1.178-.124 1.337-.31 1.157-1.465-.31-1.987-.64-3.97-.962-5.955-.089-.548-.193-1.095-.259-1.647-.014-.123.1-.374.157-.374.155 0 .383.057.45.17.121.203.168.46.206.702.362 2.29.718 4.583 1.071 6.876.043.274.07.554.077.832.025.871-.132 1.181-.912 1.386-1.195.313-2.427.314-3.63.352M92.72 148.141c-.178.126-.322.288-.388.26-.136-.056-.232-.212-.345-.328.099-.096.221-.287.292-.27.141.035.254.185.441.338M91.926 146.124l-.313-.363c.135-.095.262-.22.412-.266.043-.013.225.204.217.305-.008.1-.175.188-.316.324" transform="translate(59.837) matrix(-1 0 0 1 121.636 7.888) translate(0 21.307)"></path>
        </g>
        <path d="M61.022 5.846c-.49 1.045-1.466 1.828-2.822 2.262-.467.149-1.184.125-2.022-.003V7.86c.672.114 1.208.157 1.517.088 2.544-.566 3.53-2.208 3.279-4.849-.054-.562-.222-1.066-.503-1.491.21.129.36.301.45.526.558 1.379.593 2.662.1 3.713m-11.487.336c1.855.503 4.18 1.177 5.923 1.54 0 .085.002.17.001.254-2.015-.408-4.469-1.256-5.924-1.794M61.1 2.06c-.147-.366-.433-.626-.847-.773l-.038-.01c-.287-.316-.651-.573-1.103-.753C58.105.122 57.04-.157 55.93.098c-1.886.433-3.754 1.45-4.98 2.489-.586.497-1.096 1.088-1.625 1.651-.672.715-1.269 1.496-2.316 1.743-.612.145-.928.697-1.174 1.242-.453 1.004-.55 2.033-.41 3.073-.058-.009-.103-.017-.146-.031-1.124-.373-1.98.26-1.937 1.446.032.881.454 1.562 1.235 1.929.456.215.56.465.521.928-.251 2.932-.727 5.827-1.326 8.706-.069.331-.01.689-.01 1.06.61-.022.586-.4.655-.72.645-2.995 1.138-6.014 1.41-9.068.084-.955.074-.984-.843-1.46-.705-.365-1.114-1.151-.863-1.751.086-.205.295-.458.483-.49.166-.03.399.196.567.347.075.068.34.342.56.544.067.18.18.326.424.355.511.06.673-.416.79-.776.382-1.174.73-2.36 1.047-3.553.15-.561.208-1.15.322-1.838.694.277 4.323 1.692 7.14 2.252-.008.422-.028.842-.066 1.26-.233 2.53-.564 5.045-1.705 7.368-.525 1.07-1.075 1.308-2.246.946-.86-.265-1.68-.617-2.376-1.215-.199-.172-.448-.46-.699-.129-.228.303.064.522.28.682.372.274.751.548 1.162.756 1.026.52 2.095.898 3.266.681.107.313.197.543.265.78.408 1.426.804 2.857 1.225 4.28.104.353.08.819.814 1.003-.056-.424-.062-.722-.139-1.002-.425-1.55-.876-3.093-1.297-4.645-.091-.338-.288-.668-.042-1.059.973-1.544 1.437-3.273 1.768-5.047.281-1.502.483-3.012.513-4.533.435.065.838.102 1.194.102.345 0 .646-.035.887-.112 1.41-.451 2.426-1.268 2.94-2.364.515-1.1.481-2.438-.097-3.867" transform="translate(59.837) matrix(-1 0 0 1 121.636 7.888)"></path>
        <g>
          <path d="M3.829 2.241L4.419 4.583 3.558 4.669z" transform="translate(59.837) matrix(-1 0 0 1 121.636 7.888) translate(48.758 7.36)"></path>
          <g>
            <path d="M3.935 1.993l-.37 2.4 1.176-.085-.806-2.315zm-.376 2.41L3.555 4.4l-.002-.003.374-2.43s.002-.002.005-.002.005.001.006.003l.815 2.341-.001.004-.004.001-1.188.087zM3.297.122s.063.716-.09.872C2.602.85.923.9.004 1.61.274.59 3.297.122 3.297.122" transform="translate(59.837) matrix(-1 0 0 1 121.636 7.888) translate(48.758 7.36) translate(0 .271)"></path>
            <path d="M3.293.127c-.062.01-.79.129-1.54.36C1.296.63.92.786.636.95c-.349.203-.558.421-.623.648C.91.913 2.565.838 3.206.99c.142-.15.092-.803.087-.863M.004 1.613l-.002-.001C0 1.611 0 1.609 0 1.607c.062-.233.274-.456.63-.664C.916.778 1.293.62 1.752.48 2.531.238 3.289.12 3.297.119H3.3s.002.001.002.003c.002.03.061.719-.092.875h-.004C2.566.846.903.922.006 1.613H.005M4.34.12s-.151.69-.025.846C4.998.764 6.07.918 6.78 1.267 6.561.251 4.34.12 4.34.12" transform="translate(59.837) matrix(-1 0 0 1 121.636 7.888) translate(48.758 7.36) translate(0 .271)"></path>
            <path d="M5.028.901c.163 0 .334.012.51.035.447.06.885.191 1.235.368-.051-.236-.21-.445-.47-.62-.21-.142-.489-.263-.827-.36C4.926.169 4.391.129 4.343.126c-.011.055-.142.713-.026.869C4.519.932 4.762.9 5.028.9m1.751.415h-.002c-.35-.18-.79-.31-1.24-.371-.463-.062-.897-.041-1.22.058-.002 0-.004 0-.005-.002C4.26.933 4.247.764 4.277.498c.02-.197.059-.377.06-.378 0-.002.001-.004.003-.004.006 0 .563.036 1.139.2.338.097.617.218.83.36.264.18.424.393.474.635 0 .002 0 .003-.002.004l-.002.001M3.33 5.424c-.129 0-.252-.021-.37-.063-.498-.177-.714-.66-.723-.681-.018-.042.002-.09.043-.108.041-.018.09 0 .108.042.001.005.197.441.628.593.287.1.615.056.977-.133.04-.021.09-.006.11.035.022.04.006.09-.034.11-.26.136-.508.205-.74.205M1.896 3.104c-.212.012-.423-.026-.62-.09.07.02.147.03.226.03.408 0 .74-.29.74-.648 0-.144-.112-.317-.218-.436.522.048.981.32 1.15.432-.152.18-.623.671-1.278.712M.783 2.218c-.012.061-.02.129-.02.178 0 .257.172.48.42.584C.8 2.838.485 2.61.35 2.504c.08-.067.227-.18.432-.286m2.56.091c-.028-.02-.684-.51-1.454-.52C.831 1.775.193 2.422.167 2.45c-.016.015-.024.037-.023.06 0 .022.01.043.027.058.034.03.802.702 1.64.702.032 0 .063-.001.095-.003.879-.055 1.43-.813 1.454-.845.026-.037.018-.087-.018-.114M5.503 2.938c-.188.014-.376-.033-.548-.105.03.006.059.01.09.01.327 0 .594-.267.594-.596 0-.143-.05-.278-.141-.385l.111-.003c.415 0 .793.292.926.407-.118.164-.5.634-1.032.672m-1.24-.558c.044-.037.108-.088.191-.144.016.138.075.276.17.389.024.03.051.057.08.08-.2-.116-.358-.25-.44-.325M6.7 2.195c-.02-.02-.51-.5-1.092-.5-.899 0-1.5.601-1.525.626-.03.032-.03.083 0 .115.007.008.178.182.437.35.323.212.63.319.914.319.027 0 .053 0 .08-.003.726-.052 1.18-.775 1.198-.806.02-.032.016-.074-.012-.101" transform="translate(59.837) matrix(-1 0 0 1 121.636 7.888) translate(48.758 7.36) translate(0 .271)"></path>
          </g>
        </g>
      </g>
    </g>
    <g>
      <g fill-rule="nonzero">
        <path fill="#000" d="M29.087 40.596c-.88-.066-1.62.046-2.263.541-.479.368-.766.872-.86 1.462-.09.562.212.81.749.63.215-.071.428-.182.612-.315.788-.57 1.324-1.336 1.762-2.318m8.375-22.188c-.648.69-1.279 1.323-1.863 1.996-1.612 1.858-3.001 3.866-3.978 6.131-.826 1.914-1.46 3.885-1.608 5.981-.04.568-.117 1.139-.084 1.703.032.577.191 1.145.27 1.72.17 1.238.178 2.473-.12 3.698-.018.072-.01.151-.017.257.089.038.171.089.26.108 1.955.424 3.46 1.539 4.701 3.05 1.044 1.269 1.846 2.69 2.507 4.182 1.689 3.81 2.842 7.789 3.637 11.87.607 3.118 1.173 6.246 1.711 9.378.393 2.291.714 4.595 1.057 6.894.06.402.082.81.1 1.216.009.17-.012.352-.071.51-.03.083-.168.173-.26.176-.09.002-.224-.082-.268-.165-.07-.132-.094-.292-.116-.444-.382-2.627-.719-5.26-1.15-7.879-.511-3.115-1.074-6.223-1.669-9.323-.776-4.046-1.923-7.988-3.57-11.772-.688-1.585-1.53-3.096-2.675-4.414-1.124-1.293-2.46-2.255-4.175-2.611-.075-.016-.151-.021-.287-.039-.08.164-.165.332-.248.5-.38.775-.87 1.47-1.507 2.056-.376.346-.793.628-1.3.752-.852.207-1.47-.298-1.441-1.175.044-1.348 1.24-2.61 2.679-2.813.44-.062.886-.09 1.364-.136.185-.468.254-.962.283-1.464.093-1.583-.135-3.131-.534-4.659-.689-2.633-1.673-5.161-2.788-7.64-1.409-3.135-2.996-6.177-4.892-9.053-.868-1.316-1.849-2.544-2.943-3.681-.402-.417-.403-.41-.95-.165-3.308 1.486-6.711 2.696-10.277 3.41-1.47.295-2.957.519-4.464.312-.459-.063-.925-.157-1.358-.317-1.184-.436-1.65-1.39-1.31-2.602.22-.782.67-1.439 1.167-2.065.978-1.234 2.206-2.182 3.524-3.024C6.869 7.542 9.102 6.53 11.326 5.5c4.35-2.017 8.883-3.54 13.454-4.961.685-.213 1.394-.376 2.105-.475 1.159-.16 2.292-.044 3.305.617.472.308.956.606 1.386.965.83.695.909 1.6.26 2.47-.85 1.138-1.936 2.03-3.135 2.758-2.426 1.471-4.888 2.883-7.344 4.305-.757.438-1.54.83-2.311 1.244-.1.055-.193.122-.325.206.31.33.601.638.888.95 1.468 1.596 2.66 3.39 3.747 5.254 2.068 3.542 3.863 7.215 5.265 11.072.237.653.45 1.315.73 1.984.457-2.678 1.322-5.206 2.657-7.565 1.328-2.349 3.031-4.41 4.965-6.333-.116-.131-.208-.25-.315-.354-.973-.952-1.945-1.904-2.923-2.85-.593-.574-1.07-1.24-1.43-1.97-.19-.39-.318-.845-.335-1.275-.061-1.525 1.024-2.478 2.543-2.287.82.103 1.588.373 2.33.725 2.304 1.09 4.23 2.678 5.974 4.502 1.037 1.084 1.974 2.253 2.713 3.56.293.517.54 1.078.7 1.65.31 1.114-.196 1.816-1.35 1.947-.884.1-1.749-.02-2.593-.292-1.64-.528-3.044-1.458-4.352-2.549-.133-.111-.267-.22-.473-.39" transform="matrix(-1 0 0 1 88.98 85.082) matrix(-1 0 0 1 87.905 28.803)"></path>
        <path fill="#EEB200" d="M44.188 20.994c.102 0 .2.002.297 0 .95-.024 1.257-.378 1.012-1.288-.13-.48-.36-.944-.612-1.376-1.094-1.881-2.524-3.488-4.144-4.933-1.341-1.197-2.797-2.227-4.438-2.985-.639-.296-1.3-.526-2.005-.596-.907-.09-1.532.35-1.674 1.24-.06.369-.082.812.069 1.134.285.606.652 1.196 1.089 1.705.553.645 1.209 1.203 1.822 1.796 1.466 1.42 2.894 2.884 4.661 3.95 1.21.729 2.478 1.306 3.923 1.353M3.807 16.4c.983-.123 1.898-.19 2.794-.358 3.713-.694 7.269-1.902 10.669-3.517 2.175-1.033 4.28-2.222 6.38-3.405 1.76-.992 3.484-2.051 5.192-3.131.972-.614 1.828-1.381 2.538-2.3.31-.402.387-.823.11-1.236-.446-.665-1.086-1.168-1.85-1.33-.752-.158-1.551-.133-2.327-.113-1.253.032-2.46.365-3.666.675-1.906.49-3.734 1.21-5.582 1.875-2.505.902-4.995 1.84-7.425 2.925-1.33.594-2.632 1.26-3.915 1.95-1.598.86-3.113 1.847-4.38 3.166-.677.706-1.273 1.473-1.612 2.4-.358.982.01 1.768 1.012 2.047.687.19 1.41.245 2.062.352" transform="matrix(-1 0 0 1 88.98 85.082) matrix(-1 0 0 1 87.905 28.803)"></path>
      </g>
      <g>
        <path fill="#000" fill-rule="nonzero" d="M3.061 3.857C2.8 2.807 2.541 1.812 2.303.81 2.193.356 2.216.333 2.566 0c.082.216.17.397.221.588.244.9.478 1.803.718 2.703.02.072.067.136.128.256.523-.209 1.033-.42 1.55-.616.964-.363 1.95-.64 2.98-.748 1.385-.145 2.473.332 3.23 1.514.808 1.26 1.264 2.666 1.623 4.104.406 1.626.613 3.284.74 4.955.234 3.055.08 6.104-.093 9.155-.13 2.272-.227 4.547-.28 6.823-.093 4.026-.187 8.053-.19 12.08-.002 2.04.185 4.08.306 6.118.017.3.138.594.206.893.02.092.042.192.03.284-.167 1.296.07 2.564.313 3.82.505 2.615 1.063 5.22 1.597 7.828.14.685.272 1.372.411 2.057.022.108.059.212.175.327.034-.113.083-.224.1-.34.228-1.6.484-3.19 1.105-4.699.478-1.16 1.102-2.225 1.892-3.2.538-.663 1.186-.928 2.003-.633.836.301 1.693.57 2.486.963.905.45 1.096 1.18.57 2.04-.383.626-.855 1.201-1.324 1.768-1.25 1.513-2.57 2.97-3.767 4.523-.864 1.118-1.584 2.35-2.352 3.542-.094.146-.134.365-.115.54.336 2.98.495 5.97.514 8.968.017 2.569-.07 5.134-.309 7.693-.126 1.355-.2 2.716-.365 4.067-.27 2.217-.59 4.427-.894 6.64-.328 2.388-.678 4.772-.99 7.162-.206 1.58-.378 3.166-.53 4.753-.046.475.017.963.048 1.443.013.186.04.376-.171.44-.225.066-.385-.075-.434-.283-.058-.243-.095-.499-.091-.748.008-.564.023-1.13.075-1.691.338-3.581.792-7.148 1.311-10.708.426-2.924.791-5.857 1.12-8.794.488-4.338.58-8.694.424-13.054-.143-4.01-.597-7.984-1.445-11.911-.562-2.603-1.108-5.21-1.595-7.829-.23-1.237-.302-2.505-.453-3.758-.023-.186-.054-.389-.145-.546-2.052-3.526-3.502-7.324-4.935-11.123-.918-2.436-1.8-4.89-2.558-7.38-.929-3.046-1.702-6.14-2.562-9.208-.587-2.095-1.174-4.192-1.823-6.268C.37 12.43.075 10.302.022 8.135c-.01-.423.073-.85.137-1.272.034-.224.155-.414-.083-.632-.174-.158-.015-.37.142-.493.397-.31.794-.625 1.215-.901.518-.339 1.06-.64 1.628-.98" transform="matrix(-1 0 0 1 88.98 85.082) rotate(-17 24.687 3.628)"></path>
        <path fill="#618133" d="M16.707 65.329c.137-.205.214-.313.283-.425 1.043-1.691 2.206-3.292 3.526-4.777.787-.886 1.573-1.772 2.338-2.677.375-.443.734-.907 1.042-1.399.37-.591.258-1.046-.382-1.33-.847-.375-1.732-.666-2.61-.966-.359-.121-.696.006-.954.282-.225.24-.443.49-.637.757-1.08 1.487-1.757 3.152-2.088 4.952-.218 1.185-.39 2.379-.532 3.575-.074.627-.209 1.268.014 2.008M3.23 4.53c-.755.34-1.4.767-2.037 1.201-.06.041-.123.11-.141.177-.13.484-.243.972-.37 1.456-.186.7-.004 1.394.022 2.09.04 1.092.168 2.174.471 3.225.448 1.55.945 3.085 1.375 4.64.618 2.228 1.2 4.466 1.788 6.703 1.118 4.251 2.47 8.426 4.018 12.54 1.108 2.947 2.244 5.881 3.604 8.723.04.085.107.157.186.272.025-.103.047-.142.04-.175-.387-1.963-.764-3.929-1.172-5.888-.46-2.207-.975-4.402-1.419-6.613-.616-3.067-1.16-6.149-1.783-9.214-1.144-5.62-2.52-11.184-3.945-16.737-.202-.786-.416-1.569-.637-2.4M12.453 43.27c.039-.008.078-.018.116-.027-.029-1.068-.094-2.137-.08-3.205.052-3.618.096-7.237.212-10.854.108-3.401.315-6.799.456-10.2.14-3.388.1-6.77-.55-10.114-.31-1.591-.747-3.145-1.544-4.566-.702-1.253-1.657-1.723-3.064-1.45-.966.188-1.911.492-2.853.783-.457.14-.886.37-1.34.566.027.205.033.36.07.506.976 3.902 1.99 7.796 2.925 11.708.737 3.08 1.406 6.18 2.054 9.28.53 2.53.96 5.081 1.478 7.614.585 2.856 1.222 5.703 1.834 8.554.1.468.191.937.286 1.406" transform="matrix(-1 0 0 1 88.98 85.082) rotate(-17 24.687 3.628)"></path>
      </g>
    </g>
  </g>
</svg>
