<?xml version="1.0" encoding="UTF-8"?>
<svg xmlns="http://www.w3.org/2000/svg" width="185" height="253" viewBox="0 0 185 253">
  <g fill="none" fill-rule="evenodd">
    <g>
      <path fill="#000" fill-rule="nonzero" d="M8.882 66.433c-1.391.718-2.355 1.759-2.639 3.314 1.25-.813 1.975-2.04 2.639-3.314m7.8 39.235c1.119.655 2.158.437 2.8-.52.364-.542.35-.876-.05-1.264-.436-.422-.823-.452-1.355-.045-.613.468-1.047 1.082-1.395 1.829M38.055 2.801c.774.076 1.529.189 2.287.214 1.218.04 2.11.619 2.849 1.524 1.202 1.475 1.694 3.193 1.64 5.045-.062 2.088-.182 4.177-.378 6.256-.228 2.426-.539 4.845-.863 7.26-.383 2.854-.84 5.699-1.226 8.553-.383 2.822-.747 5.648-1.066 8.478-.32 2.831-.63 5.666-.839 8.507-.188 2.556-.362 5.124-.312 7.683.083 4.241.319 8.48.548 12.717.223 4.11.466 8.22.796 12.323.43 5.365.944 10.724 1.442 16.084.614 6.594 1.138 13.192.972 19.823-.104 4.18-.352 8.352-.865 12.505-.466 3.77-.88 7.548-1.402 11.31-.37 2.665-.83 5.32-1.35 7.959-.784 3.974-1.633 7.936-2.5 11.892-.36 1.638-.857 3.244-1.259 4.873-.262 1.06.002 1.387 1.137 1.528.493.062.606.239.416.686-.073.173-.176.338-.282.496-.394.58-.537.6-1.134.178-.076-.054-.158-.101-.228-.146l-.576.235c-.08-.042-.127-.051-.134-.073-.257-.824-1.203-1.37-1.048-2.338.09-.562-.056-.996-.377-1.41-1.79-2.312-3.578-4.623-5.378-6.927-2.562-3.28-5.23-6.486-7.68-9.846-3.472-4.763-6.004-10.003-7.44-15.73-1.15-4.588-1.466-9.24-1.132-13.95.237-3.33.758-6.603 1.762-9.792.247-.784.535-1.56.863-2.313.167-.385.097-.627-.158-.933-2.215-2.652-3.281-5.75-3.586-9.145-.304-3.382-.007-6.712.987-9.957.405-1.323 1.022-2.582 1.596-4.004-.024-.035-.13-.224-.267-.387-.884-1.045-1.019-2.233-.616-3.485.34-1.055.756-2.085 1.134-3.128.073-.202.205-.425.172-.615-.102-.582.232-.682.663-.62.599.086 1.188.236 1.782.354.153.03.31.037.479.057l.904-1.558c.423.383.423.383-.136 1.995.349.283.725.568 1.08.879.634.556.887 1.258.588 2.055-.478 1.274-1.013 2.527-1.526 3.787-.036.088-.09.168-.14.25-.869 1.414-1.685 1.697-3.37 1.104-.218.386-.47.779-.67 1.196-.905 1.875-1.397 3.874-1.672 5.92-.368 2.745-.422 5.494.137 8.227.424 2.073 1.218 3.994 2.425 5.742.144.21.302.41.464.605.079.095.184.17.34.31.203-.273.373-.528.57-.76.31-.362.604-.746.964-1.053.9-.765 1.661-.746 2.466.001.788.734.861 1.55.222 2.461-.75 1.07-2.043 1.493-3.29 1.074-.179-.06-.355-.128-.623-.225-.15.326-.309.627-.43.942-1.002 2.587-1.543 5.286-1.933 8.017-.372 2.609-.473 5.234-.403 7.868.184 6.977 2.09 13.478 5.493 19.569 1.817 3.252 3.979 6.27 6.312 9.173 2.808 3.493 5.627 6.977 8.444 10.465.096.119.205.228.466.288-.096-.368-.181-.739-.29-1.102-1.757-5.855-3.511-11.711-5.278-17.564-1.389-4.6-2.24-9.284-2.514-14.085-.213-3.749.026-7.47.37-11.193.516-5.58 1.328-11.138 1.312-16.757-.02-6.904-.764-13.717-2.796-20.35-1.36-4.435-3.313-8.58-6.412-12.105-.897-1.02-1.914-1.954-2.97-2.814-1.17-.952-2.583-1.343-4.106-1.35-.712-.003-1.14.27-1.526.897-.73 1.183-1.569 2.305-2.428 3.402-.278.354-.729.63-1.157.805-.719.292-1.217-.095-1.152-.853.03-.34.136-.687.279-.998.748-1.623 1.956-2.818 3.606-3.515.555-.234.87-.564 1.107-1.078 1.152-2.504 1.797-5.14 2.104-7.861.384-3.395.284-6.769-.552-10.098-.277-1.103-.627-2.184-1.318-3.155-.162.045-.287.06-.393.113-1.557.77-2.997.48-4.292-.555-.717-.573-1.352-1.254-1.988-1.919-1.122-1.172-2.217-2.367-3.323-3.554-.563-.605-.616-.75-.05-1.355.824-.879 1.683-1.734 2.606-2.507 1.13-.948 2.1-.99 3.29-.036 1.237.99 2.39 2.097 3.489 3.237.654.68 1.203 1.484 1.678 2.302.715 1.229 1.074 2.5-.278 3.513 0 .153-.024.23.004.275 1.417 2.383 1.867 5.02 2.09 7.724.301 3.636-.025 7.212-.999 10.725-.253.913-.624 1.794-.945 2.688-.106.293-.224.58-.375.97.312.026.549.066.785.061 1.774-.03 3.316.592 4.693 1.65 1.968 1.513 3.5 3.415 4.883 5.447 2.738 4.024 4.369 8.508 5.474 13.188 1.383 5.855 1.968 11.806 1.897 17.814-.043 3.676-.397 7.333-.786 10.988-.473 4.44-.989 8.881-.963 13.357.032 5.706.913 11.285 2.585 16.746 1.679 5.482 3.332 10.971 4.997 16.457.09.293.189.584.435.857.053-.678.127-1.354.157-2.033.427-9.94.887-19.878.6-29.83-.175-6.049-.448-12.093-1.075-18.114-.568-5.447-1.106-10.9-1.818-16.33-.6-4.58-1.406-9.135-2.164-13.694-1.148-6.902-2.44-13.781-3.468-20.7-.72-4.85-1.135-9.747-1.629-14.63-.473-4.671-.515-9.36-.326-14.05.238-5.912 1.284-11.702 2.934-17.379.768-2.643 1.706-5.238 2.564-7.856.141-.432.387-.755.743-1.065.645-.56 1.248-1.182 1.785-1.845.512-.634 1.172-.844 1.922-.902.478-.037.959-.037 1.438-.031.387.004.58-.165.647-.542.106-.592.246-1.177.367-1.766.052-.253.089-.558.43-.515.41.052.343.407.3.677-.083.531-.212 1.055-.307 1.584-.027.149-.004.306-.004.536" transform="matrix(-1 0 0 1 185 0) translate(6 83)"></path>
      <path fill="#618133" d="M35.778 164.127l.14.011c.054-.109.132-.212.16-.327.792-3.23 1.678-6.439 2.343-9.693 1.13-5.522 2.146-11.068 2.827-16.665.447-3.676.862-7.357 1.223-11.043.22-2.236.335-4.483.449-6.728.226-4.467.143-8.934-.153-13.393-.218-3.285-.565-6.562-.852-9.843-.284-3.249-.596-6.496-.838-9.748-.508-6.821-.992-13.644-1.456-20.467-.164-2.402-.264-4.808-.348-7.214-.116-3.263-.046-6.526.247-9.778.26-2.901.55-5.8.862-8.694.262-2.424.54-4.846.873-7.26.445-3.23.985-6.448 1.42-9.68.404-3.011.773-6.03 1.06-9.054.175-1.857.222-3.73.227-5.596.004-1.65-.637-3.096-1.838-4.25-.331-.32-.77-.643-1.204-.72-.997-.18-2.02-.208-3.119-.305-.175.803-.343 1.504-.478 2.211-.666 3.483-1.427 6.951-1.958 10.454-.773 5.106-1.067 10.264-1.398 15.414-.364 5.663-.54 11.331-.375 17.002.148 5.066.368 10.13.629 15.19.092 1.797.39 3.584.618 5.372.035.272.118.531-.215.615-.334.083-.443-.204-.503-.449-.12-.49-.258-.986-.294-1.486-.198-2.715-.386-5.43-.539-8.148-.122-2.182-.221-4.366-.274-6.55-.093-3.862-.256-7.726-.182-11.586.09-4.589.353-9.177.628-13.76.192-3.19.474-6.378.82-9.556.442-4.064 1.308-8.06 2.132-12.06.171-.83.337-1.662.51-2.52-.74-.222-1.488-.296-2.038-.004-.886.469-1.806 1.035-2.268 1.981-.493 1.008-1.22 1.921-1.364 3.09-.027.219-.19.523-.372.599-.396.166-.467.487-.575.813-2.724 8.207-4.325 16.604-4.34 25.266-.008 5.643.35 11.27 1.054 16.869.616 4.898 1.276 9.795 2.055 14.67.913 5.719 2.037 11.405 2.956 17.122.869 5.407 1.67 10.826 2.352 16.259.597 4.743 1.067 9.504 1.444 14.269.338 4.261.512 8.537.69 12.808.381 9.22.094 18.435-.359 27.646-.146 2.97-.253 5.944-.379 8.916" transform="matrix(-1 0 0 1 185 0) translate(6 83)"></path>
      <path fill="#EEB200" fill-rule="nonzero" d="M15.46 75.034c-.075.112-.145.181-.174.265-.389 1.102-.805 2.197-1.148 3.314-.542 1.768.206 2.814 1.607 3.75.39.26.806.222 1.15-.082.233-.207.47-.453.592-.731.56-1.27 1.08-2.559 1.616-3.84.184-.439.065-.81-.265-1.117-.953-.89-2.053-1.463-3.379-1.559M.927 36.436c.495.495.952.93 1.386 1.387C3.429 39 4.495 40.226 5.66 41.353c.56.54 1.265.962 1.966 1.32.753.384 1.556.333 2.272-.179 1.417-1.015 1.609-1.808.73-3.31-1.22-2.086-2.907-3.762-4.84-5.204-.202-.15-.438-.258-.662-.38-.404-.218-.823-.19-1.184.055-1.132.77-2.157 1.656-3.016 2.781" transform="matrix(-1 0 0 1 185 0) translate(6 83)"></path>
    </g>
    <path fill="#000" fill-rule="nonzero" d="M39.096 36.543c-3.47-2.012-5.969-4.497-8.05-7.436-.362-.51-.34-.875-.052-1.37 1.722-2.95 3.912-5.482 6.725-7.453 2.881-2.018 6.072-3.231 9.65-3.286 3.579-.056 6.65 1.176 9.053 3.897 3.735 4.228 3.739 10.335.01 14.326-1.953 2.089-4.446 3.146-7.277 3.458-3.708.408-7.154-.482-10.06-2.136M21.6 4.382c.268 1.151.514 2.308.809 3.453.957 3.711 1.87 7.434 2.922 11.12.923 3.23 2.292 6.298 4.099 9.16.252.4.144.683-.02 1.037-1.712 3.676-2.55 7.54-2.353 11.626.248 5.09 2.083 9.6 5.21 13.643 2.751 3.554 6.136 6.38 10.108 8.484 7.532 3.99 15.536 5.86 24.022 5.364 4.726-.276 9.321-1.258 13.845-2.572 4.314-1.253 8.442-2.96 12.488-4.868.266-.125.524-.278.755-.456.07-.053.073-.246.039-.354-.022-.067-.185-.145-.263-.129-.209.043-.412.121-.605.21-4.068 1.86-8.191 3.579-12.504 4.835-4.888 1.424-9.856 2.43-14.975 2.649-4.202.178-8.328-.402-12.404-1.446-2.692-.69-5.31-1.595-7.828-2.778-6.153-2.892-11.166-7.066-14.413-13.085-2.94-5.45-3.452-11.183-1.815-17.067.322-1.157.804-2.268 1.219-3.398.044-.119.138-.219.267-.416.22.282.402.505.572.737 2.234 3.044 4.949 5.556 8.337 7.287 4.004 2.045 8.194 2.767 12.537 1.517 4.249-1.222 7.058-3.99 8.032-8.296.986-4.36-.343-8.164-3.686-11.205-2.899-2.637-6.4-3.481-10.219-3.024-4.293.515-7.898 2.428-10.997 5.326-1.614 1.51-2.996 3.207-4.115 5.114-.133.227-.283.443-.504.785-.259-.386-.484-.674-.659-.99-1.253-2.256-2.268-4.612-3.094-7.05-1.208-3.565-2.04-7.222-2.926-10.867-.331-1.363-.668-2.725-1-4.088-.067-.278-.118-.56-.214-1.016.949.471 1.69.944 2.431 1.426.661.43 1.342.832 2.027 1.222.247.141.593.371.797.046.214-.34-.154-.51-.404-.666-1.453-.91-2.907-1.819-4.363-2.724-.185-.115-.378-.218-.578-.305-.495-.216-.675-.18-.915.3-.465.933-.9 1.882-1.331 2.832-.53 1.166-1.043 2.34-1.57 3.509-.12.264-.21.533.117.692.342.166.495-.107.605-.355.491-1.1.972-2.203 1.453-3.306.285-.653.562-1.308.843-1.962l.221.049" transform="matrix(-1 0 0 1 185 0)"></path>
    <g fill="#000" fill-rule="nonzero">
      <g>
        <path d="M15.875 180.857c.367.628.373.628.955 0h-.955zm1.778-.026c.919.88 1.541.827 2.204 0h-2.204zm11.835-15.582c-.037-.386-.06-.604-.09-.907l-1.966.383.02.208 2.036.316zm18.44-145.622c2.873 0 5.748.002 8.622-.008.102 0 .204-.112.36-.203-.7-.85-1.539-1.213-2.552-1.223-2.255-.023-4.364.634-6.43 1.434zM29.921 167.25c-.19-1.158-.191-1.148-1.353-1.324-.61-.093-1.233-.166-1.82-.348-1.309-.408-2.492-.11-3.652.503v2.494l6.825-1.325zm13.04 13.541c-7.505-.385-14.876-.339-22.293.048.356.402.72.77 1.162.971.81.371 1.379-.438 2.293-.606.04.076.094.258.21.38.556.588.686.594 1.265.114.106-.088.196-.193.298-.284.301-.268.629-.312.912-.008.716.768 1.496.562 2.245.123.552-.323 1.003-.41 1.61-.062.808.462 1.647.382 2.379-.28.169-.152.394-.242.595-.362 1.153.892 2.323.852 3.5.188.374-.21.67-.154 1.058-.022.468.158 1.048.307 1.482.165.653-.213 1.156-.165 1.75.143.661.342.968.207 1.535-.508zm-13.39-17.353c-.398-.645-.591-1.347-1.046-1.627-1.9-1.17-3.915-1.071-5.922-.217-.501.213-.57.662-.49 1.126.09.529.084 1.187.732 1.351.762.193 1.581.423 2.334.323 1.42-.187 2.809-.597 4.391-.956zm1.065 2.798c.278 1.387.283 1.369 1.46 1.61.702.145 1.39.365 2.087.543.306.078.617.135 1.166.252-1.408-2.338-1.28-4.647-1.005-6.962-1.193.212-2.304.403-3.41.611-.565.107-.587.172-.482.947.647.186 1.394-.449 2.09.263l-.716.748c-.527-.221-1.015-.323-1.563.042l.148.954c.684.36 1.066.072 1.384-.425.63.62-.145.913-.103 1.36l-1.056.057zM.85 35.663c.34.077.705.263 1.032.212.732-.113 1.45-.323 2.164-.531 4.784-1.392 9.359-3.331 13.92-5.306.186-.08.374-.18.525-.311.253-.22.35-.487.032-.863-.784.392-1.597.75-2.362 1.192-1.196.691-2.457 1.187-3.786 1.566-3.174.906-6.406 1.123-9.682.97-1.138-.053-1.637.411-1.722 1.537-.035.471-.074.942-.121 1.534zM74.46 14.027c-1.688.522-9.31 4.527-9.96 5.209.467 0 .905.026 1.338-.004 2.497-.174 4.994-.362 7.491-.547.204-.015.446.018.603-.078.567-.348 1.106-.742 1.744-1.179l-1.216-3.4zM33.29 158.467l-16.091.775.184 2.631c1.133.039 2.123.063 3.114.11.477.024.835-.059 1.123-.522.182-.293.554-.53.892-.655 2.295-.846 4.546-1.014 6.659.537.231.17.562.346.822.315 1.048-.125 2.086-.332 3.16-.513.047-.944.09-1.784.137-2.678zm-16.064 13.322c1.584-.847 3.09-1.645 4.586-2.465.157-.086.321-.288.349-.458.132-.804.232-1.616-.021-2.536-.354.128-.666.236-.974.356-.28.11-.585.166-.669-.186-.032-.137.182-.405.348-.502.35-.203.743-.333 1.106-.486.135-.554-.08-.816-.6-.847-.204-.012-.417.027-.608-.023-.135-.036-.283-.163-.344-.29-.032-.066.084-.267.181-.32.262-.141.55-.237.82-.349-.272-.948-.271-.956-1.049-.984-.652-.023-1.306-.01-1.958-.039-.779-.035-1.557-.1-2.393-.155.016.233.002.402.043.555.267.992.523 1.987.824 2.968.508 1.661.759 3.333.366 5.059-.048.21-.007.441-.007.702zM19.012 63.01c4.83-.946 8.128-5.216 7.799-9.694l-7.388 2.512-.411 7.182zm45.96-11.176l-6.932 1.673c.998 3.69 6.786 7.825 9.726 6.96l-2.795-8.633zm6.843 127.95c.216.107.352.15.457.232 1.145.898 2.32 1.146 3.573.205.308-.23.632-.199.97-.036.37.178.747.347 1.133.484.825.292 1.604.243 2.346-.287.738-.528.752-.507 1.494.04 1.098.812 2.085.885 3.235.153.437-.279.796-.328 1.224-.046.904.595 1.783.471 2.546-.223.579-.527 1.054-.558 1.723-.128 1.097.706 2.341.948 3.508.24.747-.454 1.302-.337 1.99.03 1.616.862 3.273.98 4.909.033.482-.28.875-.288 1.288.12.82.81 1.78.923 2.857.567.37-.123.81-.162 1.192-.093 1.325.24 1.934-.223 2.04-1.638-.061-.026-.123-.074-.184-.075-12.576-.172-25.154.266-37.727-.237-.274-.01-.55.01-.823.018-.034.001-.068.013-.1.024-.032.01-.07.02-.094.04-.023.02-.033.055-.096.169.075.186.139.45.275.67.468.757.884.822 1.585.28.214-.166.423-.338.679-.542zm17.698-36.478c-2.63-.126-19.891 1.95-21.326 2.57-.01 1.757-.098 3.554.323 5.426.535-.083 1.003-.15 1.467-.23 2.501-.433 4.988-.984 7.506-1.275 3.646-.422 7.307-.782 10.992-.673.359.01.72-.064 1.038-.096v-5.722zm-77.385 8.512c-.342 1.907-.323 3.789-.335 5.67-.003.43.214.63.61.669.787.078 1.576.208 2.363.2 2.337-.02 4.674-.1 7.011-.154 5.228-.121 10.444-.417 15.636-1.058 1.183-.146 2.357-.361 3.61-.556-.16-1.452-.338-2.768-.44-4.09-.104-1.314-.023-2.648-.468-3.99-.422 0-.762-.012-1.102.001-1.787.07-3.575.131-5.361.225-1.098.058-2.215.061-3.286.276-2.287.458-4.563.988-6.819 1.582-2.502.658-5.022 1.157-7.613 1.22-1.232.03-2.466.005-3.806.005zm30.944 28.166c.09-.383.192-.64.204-.901.051-1.11-.054-2.21-.586-3.201-1.035-1.928-2.409-3.58-4.223-4.838-1.725-1.195-3.693-1.781-5.7-2.294-2.038-.52-4.071-.582-6.126-.19-2.632.502-5.003 1.623-7.341 2.9-1.78.971-2.764 2.4-3.264 4.27-.124.463-.275.92-.368 1.39-.184.927-.406 1.855-.31 2.772.144.07.204.125.264.124 9.109-.135 18.215-.533 27.45-.032zm.796-147.098c-1.066-.474-2.073-.89-3.156-1.08-3.11-.544-6.213-1.143-9.339-1.585-2.653-.375-5.335-.579-8.021-.414-1.853.114-3.676.352-5.414 1.11-4.753 2.07-9.541 4.056-14.557 5.427-.465.127-.699.396-.77.838-.129.812-.263 1.623-.366 2.438-.37 2.927-.69 5.862-.306 8.81.109.836.34 1.68.658 2.462.524 1.285 1.522 2.096 2.902 2.376 1.916.39 3.83.293 5.726-.128 3.789-.84 7.18-2.543 10.232-4.894 3.918-3.019 7.905-5.94 12.063-8.623 3.316-2.14 6.64-4.269 9.959-6.405.112-.072.204-.172.39-.332zm25.535 145.387c.325.046.458.078.592.08 4.469.099 8.938.257 13.408.276 7.843.033 15.687-.02 23.53-.039.37 0 .738-.031 1.187-.051.238-1.21.596-2.34.659-3.487.141-2.567-.726-4.719-3.032-6.11-.646-.39-1.288-.83-1.993-1.07-2.207-.754-4.442-1.424-6.67-2.117-.08-.025-.19.036-.282.056-.397.765-.347 1.692-.92 2.36-.608-.116-.51-.48-.399-.867.176-.61.336-1.224.521-1.902l-2.35-.647c-.173.783-.308 1.484-.495 2.17-.04.144-.273.234-.417.348-.11-.148-.3-.291-.311-.447-.017-.227.108-.46.15-.695.096-.522.179-1.046.265-1.557l-3.26-1.46c-.115.483-.199.883-.308 1.277-.202.724-.408 1.449-.633 2.166-.099.316-.283.551-.787.31.084-.338.143-.697.26-1.036 1.025-2.935 1.02-5.917.417-8.925-.155-.775-.264-.851-1.022-.81-.239.012-.475.072-.714.096-3.043.315-6.083.663-9.13.926-2.295.198-4.6.28-6.9.427-.359.023-.714.118-1.176.198 1.65 6.898 1.628 13.684-.19 20.53zM22.158 28.99c.218.013.35.032.48.026 6.165-.27 12.208.618 18.19 1.987 4.35.996 8.665 2.156 13.027 3.1 3.12.674 6.288 1.13 9.44 1.641 1.286.208 2.589.412 3.885.426 2.327.026 4.576-.456 6.694-1.45.307-.144.602-.346.848-.578 1.854-1.761 2.702-3.925 2.527-6.473-.143-2.078-.808-4.023-1.566-5.94-.299-.756-.628-1.5-.905-2.159-1.519 0-2.894-.062-4.261.015-1.886.106-3.765.353-5.65.472-1.41.088-2.826.052-4.066.885-.378.253-.732.203-.957-.211-.202-.37-.515-.403-.876-.386-.722.032-1.443.059-2.165.077-6.499.16-12.998.28-19.494.495-2.298.077-4.595.325-6.878.612-2.724.343-5.048 1.502-6.804 3.68-.886 1.098-1.376 2.325-1.47 3.78zm44.019 7.94c-.41-.07-.745-.13-1.08-.185-3.694-.605-7.403-1.135-11.078-1.84-2.492-.48-4.936-1.205-7.403-1.818-.603-.15-1.142-.195-1.763.16-5.166 2.956-9.972 6.456-14.95 9.698-4.2 2.737-7.845 6.262-12.303 8.635-.18.097-.393.345-.397.526-.023 1.09.19 2.148.493 3.333 1.486-.458 2.866-.855 4.229-1.308 2.242-.747 4.434-1.64 6.748-2.17 2.859-.653 5.738-1.06 8.682-1.012 3.045.049 6 .714 8.983 1.184 4.192.66 8.377 1.072 12.617.308 2.757-.497 5.39-1.35 8-2.309.088-.032.15-.131.28-.25-.286-4.26-.143-8.59-1.058-12.952zm5.186-22.453c-.154-.251-.23-.405-.334-.54-2.468-3.207-4.927-6.422-7.42-9.61-.483-.618-1.075-1.157-1.659-1.687C60.74 1.54 59.301.884 57.661.867c-3.16-.033-6.326-.08-9.44.621-.46.103-.93.158-1.423.24 0 .288-.007.489 0 .689.04 1.026.155 2.054.107 3.075-.07 1.478-.329 2.936-1.126 4.228-1.179 1.91-2.785 2.5-5.047 1.553-.857-.36-1.638-1.01-2.312-1.672-1.863-1.831-3.087-4.096-4.153-6.45-.106-.236-.246-.455-.395-.727-4.525 1.55-8.98 3.052-13.416 4.614-1.224.432-2.402 1.01-3.568 1.586-.48.239-.963.583-1.289 1-1.476 1.894-2.972 3.78-4.322 5.762-3.369 4.95-5.888 10.366-8.484 15.735-.085.175-.128.37-.197.576.152.06.24.123.33.126 2.098.071 4.182.006 6.272-.28 3.522-.481 6.558-2.139 9.666-3.747.09-.983.17-2.006.282-3.026.053-.475.144-.948.266-1.41.033-.124.298-.312.357-.281.15.078.324.254.34.408.03.264-.06.54-.086.812-.157 1.661-.31 3.323-.482 5.158l1.749-.38c.115-.505.172-.987.339-1.427.313-.828.556-1.729 1.066-2.428 1.248-1.714 2.794-3.144 4.892-3.767 1.279-.38 2.59-.762 3.909-.877 3.457-.303 6.93-.431 10.39-.69 1.226-.091 2.455-.285 3.651-.563 1.402-.327 2.768-.804 4.153-1.204 1.558-.45 3.135-.762 4.77-.72 1.01.025 1.879.362 2.62 1.037.253.232.525.45.744.71.361.43.766.533 1.34.251-.387-.846-.784-1.675-1.144-2.519-.117-.273-.498-.662.006-.86.446-.174.53.322.67.607.467.947.915 1.902 1.347 2.806 1.562.144 1.697.13 2.866-.484 1.46-.765 2.909-1.551 4.365-2.323 1.332-.705 2.668-1.403 4.09-2.15zM40.033 71.17c-.484-.111-.817-.194-1.153-.263-1.681-.348-3.365-.681-5.04-1.05-.176-.04-.424-.274-.433-.43-.022-.364.286-.411.583-.367.204.03.401.095.604.133 2.192.408 4.375.89 6.583 1.19 1.142.156 2.329.012 3.495-.031 1.591-.059 2.76.512 3.519 1.984 1.525 2.955 3.173 5.846 4.676 8.812 1.906 3.76 3.672 7.593 5.587 11.35 1.23 2.411 2.622 4.74 3.932 7.112 1.019 1.843 1.835 3.744 1.987 5.892.126 1.775.354 3.545.585 5.31.505 3.874 1.048 7.74 1.561 11.612.856 6.45 1.696 12.902 2.553 19.352.125.94.31 1.873.469 2.82l18.356-2.03c-.04-.755-.065-1.366-.106-1.976-.184-2.736-.391-5.47-.555-8.208-.175-2.943-.291-5.889-.467-8.832-.374-6.262-.78-12.522-1.149-18.783-.1-1.69-.35-3.34-.974-4.92-1.663-4.206-3.291-8.426-5.02-12.606-2.277-5.51-4.588-11.009-6.978-16.472-1.36-3.107-2.903-6.132-4.368-9.193-.025-.054-.102-.083-.003-.006-5.37-.607-9.143-3.143-11.22-8.011-4.879.412-9.56-.367-14.23-1.222-3.687-.676-7.375-.828-11.075-.164-1.34.24-2.702.414-3.996.943-.19 5.843-3.286 9.341-8.82 10.912-.58 9.665-1.158 19.308-1.74 28.951-.585 9.682-1.192 19.362-1.757 29.044-.562 9.63-1.173 19.256-1.716 28.938.492.026.83.052 1.17.06 2.845.07 5.604-.455 8.346-1.155 2.294-.585 4.587-1.213 6.917-1.604 1.821-.305 3.698-.277 5.551-.393.85-.053 1.7-.096 2.66-.15l1.667-76.55zM18.65 56.102c-.274 0-.47-.008-.667.002-.972.049-.996.035-1.168-.964-.156-.91-.303-1.82-.476-2.868-.337.118-.644.214-.941.332-2.74 1.09-5.547 1.788-8.536 1.636-3.042-.156-4.866-1.593-5.53-4.565-.484-2.162-.441-4.364-.25-6.553.182-2.079.45-4.15.69-6.296-.333-.138-.717-.27-1.074-.453-.708-.363-.802-.606-.61-1.394.033-.133.098-.268.09-.399-.08-1.201.361-2.112 1.389-2.79.275-.18.382-.63.541-.967 2.237-4.745 4.49-9.492 7.312-13.921 1.693-2.656 3.645-5.15 5.554-7.663.458-.603 1.144-1.119 1.835-1.445 1.61-.76 3.26-1.454 4.941-2.045 3.37-1.184 6.771-2.273 10.154-3.419.808-.273 1.592-.614 2.458-.95.068.135.17.297.235.473 1.01 2.773 2.468 5.278 4.548 7.39.962.976 2.088 1.664 3.543 1.648.621-.007 1.133-.202 1.6-.595.766-.645 1.212-1.48 1.483-2.42.505-1.742.516-3.517.314-5.301-.027-.239-.098-.472-.115-.71-.046-.636.035-.798.691-.906 1.762-.29 3.525-.611 5.3-.768 1.811-.16 3.64-.228 5.457-.17 1.628.05 3.225.458 4.488 1.573.998.883 1.99 1.807 2.815 2.846 2.347 2.955 4.607 5.978 6.901 8.975.164.214.323.432.515.688.494-.23.955-.447 1.417-.661.87-.404 1.315-.262 1.702.617.262.595.445 1.223.664 1.836.104.29.216.578.316.87.38 1.101.357 1.161-.66 1.829-.065.957.43 1.762.762 2.609.791 2.015 1.492 4.052 1.677 6.23.22 2.568-.584 4.79-2.259 6.724-.864.999-1.994 1.603-3.233 1.92-1.46.372-2.96.587-4.444.86-.297.055-.604.061-.95.094.21 2.258.462 4.457.61 6.662.147 2.22.192 4.447.286 6.738l-1.957.914c-.214.879.099 1.68.341 2.491 1.501 5.043 3.674 9.8 5.935 14.545 2.549 5.35 4.797 10.844 7.083 16.314 1.996 4.775 3.867 9.601 5.783 14.409.755 1.896 1.096 3.87 1.21 5.912.339 6.057.761 12.11 1.13 18.165.172 2.84.275 5.683.445 8.523.206 3.455.448 6.908.679 10.362.006.1.049.196.093.364h1.44c.047.252.109.443.114.635.053 1.95.09 3.903.144 5.854.02.752-.015.816-.764.862-.92.057-1.84.104-2.767.157-.066 1.385-.118 2.714-.202 4.04-.022.342.087.908-.437.877-.54-.031-.335-.572-.322-.92.038-.96.102-1.918.147-2.876.015-.336.002-.673.002-.988-1.773-.45-12.154.726-16.062 1.805-.317 1.593.064 3.196.1 4.868.407 0 .713.015 1.015-.003 5.32-.313 10.639-.63 15.922-1.38 1.836-.261 2.014-.325 2.222 1.642.18 1.699.337 3.4.524 5.305l2.677 1.355c-.02-.412-.074-.666-.028-.901.024-.123.212-.254.352-.297.084-.026.235.094.323.181.067.067.102.182.116.281.126.883.714 1.243 1.524 1.38.367.061.726.17 1.11.263.293-.488.008-.893-.086-1.3-.06-.265-.246-.575.1-.707.395-.152.546.214.629.5.16.558.268 1.13.425 1.814.434.141.945.319 1.462.473 1.217.364 2.46.654 3.65 1.093 1.219.45 2.405 1.003 3.57 1.58 3.644 1.804 4.481 5.781 3.637 8.956-.097.364-.254.717-.305 1.086-.066.468-.136.961-.057 1.419.259 1.496-.93 2.743-2.404 2.422-.485-.105-.91-.122-1.4.033-1.244.395-2.05.18-3.61-.833-2.164 1.241-4.318.905-6.466-.3-1.768 1.123-3.523.896-5.318-.18-1.175 1.036-2.488 1.399-3.98.508-1.604.998-3.182.918-4.666-.272-.328.175-.59.33-.864.46-1.056.499-2.085.295-3.081-.17-.468-.217-.846-.257-1.34.012-1.318.72-2.592.34-3.88-.355-.112.065-.26.136-.394.23-.609.428-1.244.588-1.92.173-.763-.469-1.258-1.476-1.104-2.275.325-1.682.712-3.353.999-5.04.805-4.751.647-9.489-.299-14.207-.087-.437-.222-.868-.263-1.308-.05-.53-.436-1.155.333-1.53.067-.032.067-.247.062-.376-.059-1.435-.125-2.87-.187-4.276-.083-.068-.13-.14-.184-.145-1.254-.123-1.304-.117-1.41-1.4-.119-1.432-.171-2.873-.185-4.311-.011-1.239.03-1.24 1.33-1.607-.015-.275-.01-.574-.052-.865-.347-2.373-.73-4.74-1.05-7.116-.49-3.633-.929-7.273-1.406-10.908-.588-4.483-1.207-8.963-1.784-13.448-.315-2.447-.586-4.9-.843-7.353-.137-1.318-.522-2.556-1.14-3.711-1.162-2.178-2.434-4.3-3.551-6.5-2.406-4.737-4.71-9.527-7.119-14.262-1.383-2.72-2.904-5.368-4.337-8.062-.469-.882-1.173-1.344-2.148-1.338-1.403.01-2.806.077-4.313.124-.07.512-.18.974-.19 1.438-.17 7.952-.325 15.906-.493 23.859-.206 9.7-.417 19.4-.634 29.1-.155 6.89-.324 13.78-.485 20.669-.01.406-.002.812-.002 1.239.192.052.317.107.445.118 1.294.106 1.305.104 1.484 1.337.079.542.109 1.092.161 1.637.16 1.67.33 3.338.473 5.01.042.5.006 1.006.006 1.606l-7.596 1.05-.143 1.775c.08.124.103.2.155.233 1.212.753 1.175.745.938 2.136-.405 2.367-.046 4.579 1.545 6.477.211.252.508.461.807.605 2.443 1.175 4.195 3.065 5.59 5.323.96 1.554 1.258 3.237.886 5.031-.028.134-.047.27-.053.405-.065 1.4-1.092 2.183-2.425 1.763-.634-.2-1.21-.391-1.879-.138-.269.101-.65.101-.912-.01-.718-.308-1.347-.165-2.05.088-.999.36-2.03.275-2.996-.243-1.096.744-2.237.924-3.418.314-.399-.205-.65.037-.951.17-1.167.514-1.753.498-2.911-.131-.797.62-1.679 1.095-2.496.126-.68.125-1.29.372-1.864.307-.574-.066-1.112-.445-1.845-.764-.082.033-.357.16-.64.259-.568.199-1.164.288-1.692-.045-.408-.259-.743-.24-1.142-.027-.454.243-.872.099-1.228-.23-.666-.613-1.016-1.32-.893-2.28.25-1.948.828-3.796 1.37-5.677.706-2.452 1.191-4.996.29-7.568-.43-1.226-.71-2.504-1.052-3.76-.29-1.065-.186-1.226.912-1.448.098-.02.194-.053.351-.097v-1.7c-.31-.028-.604-.058-.899-.08-1.13-.084-2.265-.128-3.39-.26-.886-.104-1.071-.323-1.049-1.199.053-2.053.139-4.107.241-6.159.015-.309.188-.61.287-.912l1.293.227c.046-.298.106-.555.122-.814.2-3.215.392-6.43.59-9.645.31-5.03.624-10.058.934-15.087.152-2.463.3-4.926.45-7.39.337-5.54.68-11.082 1.012-16.624.228-3.797.44-7.597.665-11.394.346-5.817.696-11.633 1.049-17.45.315-5.2.636-10.4.952-15.6.015-.228.002-.46.002-.766z" transform="matrix(-1 0 0 1 185 0) translate(74.952 47.048) translate(0 21.87)"></path>
        <path d="M44.078 54.086c.64-.015.767.313.824.71.146 1.014.28 2.03.44 3.043.268 1.722.554 3.44.828 5.16.044.27.09.543.095.815.009.648-.263 1.12-.913 1.324-.196.062-.39.157-.59.175-1.025.092-2.052.169-3.078.24-.271.018-.637.039-.595-.341.017-.163.361-.383.58-.414.712-.102 1.435-.123 2.153-.184 1.715-.144 1.798-.251 1.53-1.944-.4-2.53-.801-5.061-1.195-7.593-.05-.314-.053-.636-.08-.99M87.628 159.496l.348.41c-.151.104-.292.243-.459.291-.051.015-.253-.227-.242-.337.01-.115.196-.212.353-.364M87.997 162.026c.148.238.29.383.316.547.012.073-.273.283-.32.256-.139-.083-.281-.24-.315-.39-.02-.089.164-.223.32-.413" transform="matrix(-1 0 0 1 185 0) translate(74.952 47.048) translate(0 21.87)"></path>
      </g>
      <path d="M45.526 7.065l-.022-.102c-.028-.118-.17-.457-.398-.844.417.24.66.639.8 1.145.073.264.177.52.246.783.13.502.345.915.612 1.273l-.07.551c-.45-.554-.877-1.428-1.168-2.806M42.46 4.762c-1.477.843-2.54.24-3.065-.222.683.382 1.323.38 2.082-.063.69-.402 1.267-.335 1.732.103-.253-.013-.503.042-.749.182m6.84 6.187c.31.1.703-.053 1.058-.09-.847-.867-.86-.925-.34-1.851.1-.18.213-.354.295-.54.293-.66.258-1.032-.349-1.41-.579-.36-.65-.837-.591-1.404.043-.407.118-.811.184-1.216.193-1.171-.144-2.16-1.008-2.978C47.587.55 46.459.11 45.124.016c-2.357-.165-4.194.942-5.982 2.232-.197.806-.976.91-1.555 1.182-.982.463-1.457 1.263-1.633 2.226-.163.884-.047 1.732.183 2.6-.012.108-.025.218-.042.332-.198-.035-.296-.04-.386-.07-1.25-.412-2.202.289-2.154 1.6.036.976.506 1.729 1.373 2.136.507.238.624.515.58 1.027-.28 3.245-.809 6.45-1.474 9.637-.077.366-.01.763-.01 1.173.676-.024.65-.442.726-.796.717-3.316 1.266-6.658 1.567-10.039.095-1.056.083-1.088-.936-1.614-.784-.405-1.24-1.275-.96-1.94.095-.226.328-.506.537-.542.185-.032.444.217.63.385.121.107.683.697.897.823.082-.162.198-.32.256-.487.195-.26.343-.417.42-.599.394-.947.779-1.899 1.14-2.859.24-.64.444-1.299.677-1.999.392.435 1.692 1.607 3.588.524.282-.161.573-.197.866-.119.067.088.132.184.193.289.243.415.549.706 1.002.815.048.011.09.028.135.041.31.467.504.92.533 1.039l.02.096c.324 1.535.82 2.473 1.337 3.045-.277 1.926-.72 3.816-1.6 5.603-.584 1.183-1.197 1.447-2.497 1.047-.957-.294-1.869-.683-2.642-1.346-.221-.19-.499-.509-.777-.142-.253.334.071.578.312.754.412.304.835.607 1.29.837 1.141.576 2.33.994 3.631.755.12.347.219.6.295.862.454 1.579.894 3.163 1.362 4.738.116.392.089.907.905 1.11-.063-.469-.07-.8-.154-1.108-.473-1.716-.974-3.424-1.442-5.142-.102-.374-.32-.739-.047-1.172 1.082-1.71 1.597-3.623 1.966-5.587.039-.211.076-.423.112-.634.15.082.294.143.431.185 1.186.362 2.396.367 2.447.367v-.215c-.012 0-1.229-.004-2.383-.357-.144-.044-.298-.11-.455-.203.026-.155.049-.31.073-.464.521.4 1.142.688 1.82.907" transform="matrix(-1 0 0 1 185 0) translate(74.952 47.048)"></path>
      <g>
        <path d="M4.657 1.952L5.314 4.544 4.356 4.64z" transform="matrix(-1 0 0 1 185 0) translate(74.952 47.048) translate(39.146 5.575)"></path>
        <g>
          <path d="M4.693 1.962l-.33 2.657 1.053-.094-.723-2.563zM4.356 4.63l-.003-.001-.002-.004.335-2.688c0-.001.002-.003.005-.004.002 0 .004.002.005.004l.73 2.592v.004l-.004.002-1.066.095zM2.484 3.62c-.17.011-.336-.02-.492-.079.018.002.036.003.055.003.212 0 .418-.105.58-.296.135-.157.221-.356.238-.544l1.003-.012c-.197.278-.7.884-1.384.928M.95 2.725l.28-.004c.02.172.097.35.213.498-.218-.175-.39-.368-.493-.494m3.165-.171c-.016-.028-.045-.045-.08-.045l-3.269.035c-.034 0-.064.02-.08.05-.015.03-.013.065.006.093.008.012.204.297.52.577.401.355.815.54 1.204.54.026 0 .053 0 .079-.002.409-.027.82-.237 1.187-.606.274-.275.427-.54.433-.55.017-.03.017-.064 0-.092M6.499 3.425c-.844.018-1.235-.499-1.372-.743h.179c.02.16.09.305.203.415.134.131.316.203.513.203.36 0 .662-.262.721-.606l.853.006c-.166.239-.564.714-1.097.725m1.342-.86c-.017-.028-.046-.045-.079-.045l-2.779-.021c-.03 0-.058.014-.076.039-.017.024-.02.055-.01.083.003.01.098.259.343.505.221.22.61.481 1.218.481h.044c.816-.017 1.319-.915 1.34-.953.016-.028.015-.062-.001-.09M4.016.767s.12.776-.057.942c-.866 0-1.78-.738-2.73-.655-.492.043-1.121.662-1.224.883C.005 1.491.52.701 1.127.522 2.255.187 4.016.767 4.016.767" transform="matrix(-1 0 0 1 185 0) translate(74.952 47.048) translate(39.146 5.575) translate(0 .015)"></path>
          <path d="M1.952.423c-.285 0-.57.028-.823.103-.274.081-.56.302-.787.606-.2.268-.325.566-.333.785.132-.247.75-.826 1.22-.867.51-.045 1.013.148 1.499.335.426.164.83.319 1.23.32.165-.161.06-.884.054-.934C3.974.758 3.544.62 2.993.523c-.299-.053-.67-.1-1.041-.1M.005 1.942H.004C.002 1.942 0 1.939 0 1.937c0-.222.128-.532.335-.81C.562.82.85.599 1.126.517c.322-.095.908-.173 1.87-.002.574.101 1.016.246 1.02.248.003 0 .004.002.004.004.005.031.119.78-.058.946H3.96c-.402 0-.806-.155-1.235-.32-.484-.186-.985-.379-1.493-.335-.48.042-1.114.647-1.223.88 0 .003-.002.004-.003.004M4.876.716s-.028.562.004.868c.01.082.084.14.165.13.773-.09 2.127-.268 2.881-.056-.328-.76-3.05-.942-3.05-.942" transform="matrix(-1 0 0 1 185 0) translate(74.952 47.048) translate(39.146 5.575) translate(0 .015)"></path>
          <path d="M4.88.721c-.003.059-.026.615.005.921.004.04.023.077.053.102.03.026.068.037.106.033l.141-.018c.806-.101 2.02-.254 2.733-.045-.177-.411-.989-.659-1.641-.794C5.595.778 4.94.726 4.88.72m.148 1.066c-.035 0-.068-.012-.096-.036-.032-.027-.052-.065-.056-.108-.033-.323-.005-.92-.005-.927 0-.001 0-.003.002-.004h.003c.007 0 .689.05 1.402.198.42.087.768.19 1.035.308.334.146.542.315.618.501l-.001.005c-.001.002-.003.002-.005.002-.71-.213-1.93-.06-2.738.042l-.141.018-.018.001M3.112 5.28c.454.429.824.667 1.44.708.616.041 1.047-.184 1.047-.184s-.492.834-1.088.99c-1.232.32-1.174-.643-1.4-1.514" transform="matrix(-1 0 0 1 185 0) translate(74.952 47.048) translate(39.146 5.575) translate(0 .015)"></path>
          <path d="M3.12 5.294c.035.137.063.277.09.412.09.443.174.861.47 1.045.193.12.465.133.83.038.546-.142 1.011-.867 1.078-.974-.08.038-.487.214-1.036.178-.62-.042-.984-.278-1.432-.699m.96 1.567c-.161 0-.296-.034-.405-.102-.299-.187-.384-.606-.473-1.051-.028-.14-.058-.285-.095-.427 0-.002 0-.004.002-.005l.006.001c.452.426.815.665 1.437.706.608.041 1.041-.18 1.046-.182.001-.002.003-.001.005 0v.006c-.005.008-.5.837-1.09.991-.162.042-.306.063-.433.063" transform="matrix(-1 0 0 1 185 0) translate(74.952 47.048) translate(39.146 5.575) translate(0 .015)"></path>
        </g>
      </g>
    </g>
  </g>
</svg>
