<?xml version="1.0" encoding="UTF-8"?>
<svg xmlns="http://www.w3.org/2000/svg" width="237" height="241" viewBox="0 0 237 241">
  <defs>
    <linearGradient id="lpr51oqipa" x1="22.995%" x2="100%" y1="35.078%" y2="97.859%">
      <stop offset="0%" stop-color="#DDA400"></stop>
      <stop offset="100%" stop-color="#FFED00"></stop>
    </linearGradient>
  </defs>
  <g fill="none" fill-rule="evenodd">
    <g fill="#000" fill-rule="nonzero">
      <path d="M21.09.723c-.03-.127-.115-.194-.211-.214-.098-.039-.212-.027-.306.077C16.121 5.474 10.077 7.07 3.708 5.582c-.012-.003-.023-.003-.034-.005-.12-.039-.25-.006-.315.147C2.29 8.21 1.384 10.76.316 13.245c-.033.076-.034.15-.015.217.02.1.082.193.2.239 7.16 2.803 14.57 2.408 21.05-1.884.086-.057.128-.136.138-.217.005-.016.013-.03.015-.05.328-3.612.243-7.29-.614-10.827zm.01 10.646C14.87 15.434 7.857 15.818.989 13.225c.98-2.313 1.838-4.676 2.822-6.987 6.296 1.391 12.312-.14 16.81-4.797.709 3.253.768 6.618.479 9.928z" transform="scale(-1 1) rotate(50 -163.17 57.132)"></path>
      <path d="M15.304 11.11c.001-.007.005-.013.005-.02.091-4.18-6.167-3.911-7.342-.53-.668 1.922.747 3.8 2.648 3.977 1.961.182 4.34-1.373 4.689-3.416v-.011zm-3.821 3.138c-2.547.422-4.47-2.318-2.788-4.502 1.673-2.17 6.453-2.246 6.386 1.332-.3 1.69-2.018 2.91-3.598 3.17zM4.885 11.66c.654.199 1.434.016 1.812-.47.443-.572-.078-1.183-.823-1.314-.006-.002-.012 0-.018 0l-.012-.003c-.627-.054-1.466.128-1.725.638-.257.506.183.97.766 1.148zM4.5 10.37c.314-.267.888-.348 1.324-.314.816.15 1.067.866.382 1.284-.424.259-.973.286-1.436.071-.475-.22-.685-.688-.27-1.04zM19.966 8.616c.114-.64-.003-1.34-.686-1.522-.615-.164-1.325.165-1.743.635-.585.658-.421 1.64.377 2.013.849.398 1.82-.234 2.052-1.126zm-2.207.713c-.599-.532-.282-1.306.276-1.693.331-.229.781-.388 1.178-.284.539.14.595.698.507 1.192-.22.846-1.257 1.41-1.961.785zM6.753 14.339c-1.521-.043-3-.283-4.45-.72-.137-.04-.196.164-.06.205 1.473.444 2.967.684 4.51.727.143.004.143-.209 0-.212zM3.153 12.605c.555.216 1.135.314 1.74.288.119-.006.12-.169 0-.164-.571.025-1.122-.062-1.647-.266-.108-.042-.202.1-.093.142zM19.825 11.755c-1.386.748-2.859 1.296-4.43 1.649-.15.033-.086.24.064.206 1.591-.357 3.086-.913 4.488-1.67.132-.071.011-.257-.122-.185zM18.893 10.822c-.49.337-1.027.57-1.62.7-.15.033-.086.246.063.213.61-.134 1.174-.375 1.678-.721.122-.084.003-.276-.12-.192zM16.418 6.101c1.31-.651 2.495-1.52 3.55-2.593.106-.107-.051-.28-.156-.173-1.043 1.06-2.214 1.912-3.506 2.556-.13.063-.017.275.112.21zM7.647 6.934c-1.162.194-2.306.16-3.452-.1-.152-.034-.217.175-.065.209 1.187.268 2.379.3 3.582.1.153-.026.088-.235-.065-.21z" transform="scale(-1 1) rotate(50 -163.17 57.132)"></path>
    </g>
    <g fill="#000" fill-rule="nonzero">
      <path d="M20.802.427c-.03-.127-.115-.194-.212-.215-.097-.038-.211-.026-.305.077C15.833 5.177 9.788 6.774 3.42 5.285l-.035-.004c-.119-.039-.249-.006-.315.147-1.068 2.485-1.974 5.036-3.043 7.52-.033.077-.033.151-.015.218.02.1.083.192.2.238 7.161 2.804 14.57 2.409 21.05-1.883.086-.057.129-.136.139-.217.005-.017.013-.03.015-.05.328-3.612.243-7.291-.614-10.828zm.01 10.646C14.582 15.137 7.569 15.522.7 12.928c.98-2.312 1.838-4.675 2.822-6.986 6.296 1.391 12.312-.141 16.81-4.797.71 3.253.768 6.618.48 9.928z" transform="rotate(60 -75.519 108.364)"></path>
      <path d="M15.016 10.813c0-.006.004-.012.004-.02.092-4.18-6.167-3.91-7.341-.53-.668 1.923.746 3.801 2.648 3.978 1.96.182 4.34-1.373 4.689-3.416v-.012zm-3.821 3.14c-2.548.421-4.471-2.32-2.789-4.503 1.673-2.17 6.454-2.246 6.386 1.331-.3 1.691-2.018 2.91-3.597 3.171zM4.597 11.363c.654.2 1.433.017 1.811-.47.444-.571-.077-1.182-.822-1.313-.007-.002-.012 0-.019 0-.004-.001-.007-.003-.012-.003-.626-.054-1.465.127-1.725.638-.257.506.183.97.767 1.148zm-.385-1.288c.313-.267.887-.348 1.324-.315.815.15 1.067.867.382 1.284-.424.26-.973.287-1.437.072-.474-.22-.684-.688-.27-1.04zM19.677 8.32c.114-.64-.003-1.341-.685-1.523-.615-.163-1.325.166-1.743.636-.585.657-.422 1.64.377 2.013.848.398 1.819-.235 2.051-1.126zm-2.206.713c-.6-.532-.282-1.306.276-1.693.33-.23.78-.388 1.177-.284.54.14.596.698.508 1.192-.22.846-1.258 1.41-1.961.785zM6.465 14.043c-1.522-.043-3-.283-4.45-.72-.137-.041-.197.164-.06.205 1.472.443 2.967.683 4.509.727.144.003.144-.209 0-.212zM2.865 12.309c.555.215 1.135.314 1.74.287.118-.005.12-.168 0-.163-.572.025-1.123-.062-1.647-.266-.108-.042-.202.1-.093.142zM19.536 11.459c-1.385.748-2.858 1.296-4.43 1.648-.149.034-.086.24.065.207 1.59-.357 3.085-.913 4.487-1.67.132-.071.012-.257-.122-.185zM18.605 10.526c-.49.337-1.027.57-1.621.7-.15.033-.086.245.064.213.61-.134 1.173-.375 1.677-.722.122-.084.004-.276-.12-.19zM16.13 5.805c1.31-.651 2.495-1.52 3.55-2.594.106-.106-.051-.28-.156-.173C18.48 4.1 17.31 4.951 16.018 5.595c-.13.063-.017.275.111.21zM7.359 6.638c-1.162.193-2.306.16-3.452-.1-.152-.034-.217.175-.065.209 1.186.268 2.378.3 3.581.1.153-.026.089-.235-.064-.21z" transform="rotate(60 -75.519 108.364)"></path>
    </g>
    <g fill="#000" fill-rule="nonzero">
      <path d="M20.802.427c-.03-.127-.115-.194-.212-.215-.097-.038-.211-.026-.305.077C15.833 5.177 9.788 6.774 3.42 5.285l-.035-.004c-.119-.039-.249-.006-.315.147-1.068 2.485-1.974 5.036-3.043 7.52-.033.077-.033.151-.015.218.02.1.083.192.2.238 7.161 2.804 14.57 2.409 21.05-1.883.086-.057.129-.136.139-.217.005-.017.013-.03.015-.05.328-3.612.243-7.291-.614-10.828zm.01 10.646C14.582 15.137 7.569 15.522.7 12.928c.98-2.312 1.838-4.675 2.822-6.986 6.296 1.391 12.312-.141 16.81-4.797.71 3.253.768 6.618.48 9.928z" transform="rotate(60 60.113 163.204)"></path>
      <path d="M15.016 10.813c0-.006.004-.012.004-.02.092-4.18-6.167-3.91-7.341-.53-.668 1.923.746 3.801 2.648 3.978 1.96.182 4.34-1.373 4.689-3.416v-.012zm-3.821 3.14c-2.548.421-4.471-2.32-2.789-4.503 1.673-2.17 6.454-2.246 6.386 1.331-.3 1.691-2.018 2.91-3.597 3.171zM4.597 11.363c.654.2 1.433.017 1.811-.47.444-.571-.077-1.182-.822-1.313-.007-.002-.012 0-.019 0-.004-.001-.007-.003-.012-.003-.626-.054-1.465.127-1.725.638-.257.506.183.97.767 1.148zm-.385-1.288c.313-.267.887-.348 1.324-.315.815.15 1.067.867.382 1.284-.424.26-.973.287-1.437.072-.474-.22-.684-.688-.27-1.04zM19.677 8.32c.114-.64-.003-1.341-.685-1.523-.615-.163-1.325.166-1.743.636-.585.657-.422 1.64.377 2.013.848.398 1.819-.235 2.051-1.126zm-2.206.713c-.6-.532-.282-1.306.276-1.693.33-.23.78-.388 1.177-.284.54.14.596.698.508 1.192-.22.846-1.258 1.41-1.961.785zM6.465 14.043c-1.522-.043-3-.283-4.45-.72-.137-.041-.197.164-.06.205 1.472.443 2.967.683 4.509.727.144.003.144-.209 0-.212zM2.865 12.309c.555.215 1.135.314 1.74.287.118-.005.12-.168 0-.163-.572.025-1.123-.062-1.647-.266-.108-.042-.202.1-.093.142zM19.536 11.459c-1.385.748-2.858 1.296-4.43 1.648-.149.034-.086.24.065.207 1.59-.357 3.085-.913 4.487-1.67.132-.071.012-.257-.122-.185zM18.605 10.526c-.49.337-1.027.57-1.621.7-.15.033-.086.245.064.213.61-.134 1.173-.375 1.677-.722.122-.084.004-.276-.12-.19zM16.13 5.805c1.31-.651 2.495-1.52 3.55-2.594.106-.106-.051-.28-.156-.173C18.48 4.1 17.31 4.951 16.018 5.595c-.13.063-.017.275.111.21zM7.359 6.638c-1.162.193-2.306.16-3.452-.1-.152-.034-.217.175-.065.209 1.186.268 2.378.3 3.581.1.153-.026.089-.235-.064-.21z" transform="rotate(60 60.113 163.204)"></path>
    </g>
    <g fill="#000" fill-rule="nonzero">
      <path d="M21.28.241c-.033-.13-.119-.2-.218-.22-.1-.04-.216-.027-.312.079C16.196 5.128 10.013 6.77 3.498 5.24c-.012-.003-.024-.003-.035-.005-.122-.04-.255-.006-.322.151-1.093 2.556-2.02 5.18-3.113 7.737-.034.078-.035.155-.015.223.02.103.084.198.205.246 7.324 2.884 14.903 2.477 21.532-1.938.088-.059.13-.14.141-.223.005-.017.014-.032.016-.052.335-3.715.248-7.5-.628-11.138zm.009 10.953C14.917 15.374 7.743 15.77.716 13.102c1.002-2.379 1.88-4.81 2.887-7.187 6.44 1.43 12.594-.145 17.195-4.935.726 3.346.786 6.808.49 10.214z" transform="matrix(-1 0 0 1 84.47 90.682)"></path>
      <path d="M15.36 10.926c0-.007.005-.012.005-.02.093-4.3-6.309-4.024-7.51-.545-.684 1.977.764 3.91 2.709 4.09 2.005.188 4.44-1.411 4.796-3.513v-.012zm-3.909 3.23c-2.605.433-4.573-2.386-2.852-4.632 1.711-2.233 6.602-2.311 6.532 1.37-.306 1.739-2.064 2.993-3.68 3.261zM4.702 11.492c.67.205 1.467.017 1.853-.483.454-.589-.079-1.217-.841-1.352-.007-.002-.013 0-.02 0-.004 0-.007-.003-.012-.003-.64-.055-1.498.131-1.764.657-.263.52.187.998.784 1.18zm-.394-1.325c.32-.275.908-.359 1.354-.324.835.155 1.092.891.392 1.321-.434.267-.996.294-1.47.074-.485-.227-.7-.708-.276-1.071zM20.128 8.36c.117-.658-.003-1.378-.7-1.565-.63-.168-1.356.17-1.784.654-.598.676-.43 1.687.386 2.07.868.41 1.86-.24 2.098-1.158zm-2.257.735c-.613-.547-.288-1.344.283-1.742.338-.236.798-.4 1.204-.292.552.144.61.718.52 1.226-.226.87-1.287 1.45-2.007.808zM6.613 14.248c-1.556-.044-3.069-.29-4.552-.74-.14-.042-.2.168-.06.21 1.505.457 3.033.704 4.61.749.148.003.148-.215.002-.219zM2.93 12.464c.568.222 1.161.324 1.78.297.122-.006.123-.174 0-.169-.584.026-1.148-.063-1.684-.273-.11-.043-.207.102-.095.145zM19.984 11.59c-1.417.77-2.924 1.333-4.53 1.696-.154.035-.09.247.065.213 1.627-.368 3.156-.94 4.59-1.719.135-.073.012-.264-.125-.19zM19.031 10.63c-.5.347-1.05.587-1.658.72-.152.034-.087.253.065.22.625-.138 1.2-.386 1.716-.743.126-.086.004-.284-.123-.196zM16.5 5.774c1.34-.67 2.552-1.563 3.632-2.668.108-.11-.053-.288-.16-.178-1.068 1.091-2.265 1.967-3.587 2.63-.133.065-.018.282.114.216zM7.528 6.63c-1.189.2-2.36.165-3.532-.102-.155-.035-.221.18-.066.215 1.214.276 2.433.308 3.664.102.156-.026.09-.24-.067-.214z" transform="matrix(-1 0 0 1 84.47 90.682)"></path>
    </g>
    <g fill="#000" fill-rule="nonzero">
      <path d="M21.28.241c-.033-.13-.119-.2-.218-.22-.1-.04-.216-.027-.312.079C16.196 5.128 10.013 6.77 3.498 5.24c-.012-.003-.024-.003-.035-.005-.122-.04-.255-.006-.322.151-1.093 2.556-2.02 5.18-3.113 7.737-.034.078-.035.155-.015.223.02.103.084.198.205.246 7.324 2.884 14.903 2.477 21.532-1.938.088-.059.13-.14.141-.223.005-.017.014-.032.016-.052.335-3.715.248-7.5-.628-11.138zm.009 10.953C14.917 15.374 7.743 15.77.716 13.102c1.002-2.379 1.88-4.81 2.887-7.187 6.44 1.43 12.594-.145 17.195-4.935.726 3.346.786 6.808.49 10.214z" transform="matrix(-1 0 0 1 199.698 0)"></path>
      <path d="M15.36 10.926c0-.007.005-.012.005-.02.093-4.3-6.309-4.024-7.51-.545-.684 1.977.764 3.91 2.709 4.09 2.005.188 4.44-1.411 4.796-3.513v-.012zm-3.909 3.23c-2.605.433-4.573-2.386-2.852-4.632 1.711-2.233 6.602-2.311 6.532 1.37-.306 1.739-2.064 2.993-3.68 3.261zM4.702 11.492c.67.205 1.467.017 1.853-.483.454-.589-.079-1.217-.841-1.352-.007-.002-.013 0-.02 0-.004 0-.007-.003-.012-.003-.64-.055-1.498.131-1.764.657-.263.52.187.998.784 1.18zm-.394-1.325c.32-.275.908-.359 1.354-.324.835.155 1.092.891.392 1.321-.434.267-.996.294-1.47.074-.485-.227-.7-.708-.276-1.071zM20.128 8.36c.117-.658-.003-1.378-.7-1.565-.63-.168-1.356.17-1.784.654-.598.676-.43 1.687.386 2.07.868.41 1.86-.24 2.098-1.158zm-2.257.735c-.613-.547-.288-1.344.283-1.742.338-.236.798-.4 1.204-.292.552.144.61.718.52 1.226-.226.87-1.287 1.45-2.007.808zM6.613 14.248c-1.556-.044-3.069-.29-4.552-.74-.14-.042-.2.168-.06.21 1.505.457 3.033.704 4.61.749.148.003.148-.215.002-.219zM2.93 12.464c.568.222 1.161.324 1.78.297.122-.006.123-.174 0-.169-.584.026-1.148-.063-1.684-.273-.11-.043-.207.102-.095.145zM19.984 11.59c-1.417.77-2.924 1.333-4.53 1.696-.154.035-.09.247.065.213 1.627-.368 3.156-.94 4.59-1.719.135-.073.012-.264-.125-.19zM19.031 10.63c-.5.347-1.05.587-1.658.72-.152.034-.087.253.065.22.625-.138 1.2-.386 1.716-.743.126-.086.004-.284-.123-.196zM16.5 5.774c1.34-.67 2.552-1.563 3.632-2.668.108-.11-.053-.288-.16-.178-1.068 1.091-2.265 1.967-3.587 2.63-.133.065-.018.282.114.216zM7.528 6.63c-1.189.2-2.36.165-3.532-.102-.155-.035-.221.18-.066.215 1.214.276 2.433.308 3.664.102.156-.026.09-.24-.067-.214z" transform="matrix(-1 0 0 1 199.698 0)"></path>
    </g>
    <g fill="#000" fill-rule="nonzero">
      <path d="M20.922.48c-.031-.126-.116-.193-.212-.213-.098-.039-.212-.027-.306.077C15.953 5.232 9.908 6.829 3.54 5.34c-.013-.003-.024-.003-.035-.005-.12-.039-.25-.006-.315.147-1.068 2.485-1.975 5.036-3.043 7.521-.033.076-.034.15-.015.217.02.1.082.193.2.239 7.16 2.803 14.57 2.408 21.05-1.884.086-.057.128-.136.138-.216.005-.017.014-.031.015-.051.328-3.612.243-7.29-.613-10.827zm.01 10.648C14.701 15.192 7.688 15.576.82 12.983c.98-2.313 1.838-4.676 2.822-6.987 6.296 1.391 12.312-.14 16.81-4.797.709 3.253.768 6.618.48 9.928z" transform="scale(-1 1) rotate(-20 324.447 411.702)"></path>
      <path d="M15.135 10.868c.001-.007.005-.013.005-.02.091-4.18-6.167-3.911-7.342-.53-.668 1.922.747 3.8 2.648 3.977 1.961.182 4.341-1.373 4.69-3.416 0-.004-.002-.008 0-.011zm-3.82 3.138c-2.548.422-4.472-2.318-2.79-4.502 1.674-2.17 6.455-2.246 6.387 1.332-.3 1.69-2.018 2.91-3.598 3.17zM4.716 11.417c.654.2 1.434.017 1.812-.47.444-.571-.077-1.182-.823-1.313-.006-.002-.012 0-.018 0-.005 0-.008-.003-.012-.003-.626-.054-1.466.128-1.725.638-.257.506.183.97.766 1.148zm-.385-1.288c.314-.266.888-.348 1.324-.314.816.15 1.067.866.383 1.284-.425.26-.974.286-1.437.071-.474-.22-.685-.688-.27-1.04zM19.797 8.374c.114-.64-.003-1.34-.685-1.522-.616-.164-1.326.165-1.744.635-.584.658-.421 1.64.377 2.013.849.398 1.82-.234 2.052-1.126zm-2.207.713c-.599-.532-.281-1.306.276-1.693.331-.229.781-.388 1.178-.284.54.14.596.698.507 1.192-.22.846-1.257 1.41-1.96.785zM6.584 14.097c-1.521-.043-3-.283-4.45-.72-.137-.04-.196.164-.06.205 1.473.444 2.967.684 4.51.727.143.004.143-.209 0-.212zM2.984 12.363c.555.216 1.135.314 1.74.288.12-.006.12-.169 0-.164-.571.025-1.122-.061-1.646-.265-.108-.043-.202.099-.094.14zM19.656 11.513c-1.385.748-2.859 1.296-4.43 1.649-.15.033-.086.24.065.206 1.59-.357 3.085-.913 4.487-1.67.132-.071.011-.257-.122-.185zM18.724 10.58c-.49.337-1.027.57-1.62.7-.15.033-.086.246.063.213.611-.134 1.174-.375 1.678-.721.122-.084.004-.276-.12-.192zM16.25 5.86c1.31-.652 2.494-1.52 3.55-2.594.106-.107-.052-.28-.157-.173-1.043 1.06-2.214 1.912-3.506 2.556-.13.063-.017.275.112.21zM7.478 6.692c-1.161.194-2.306.16-3.452-.1-.152-.034-.216.175-.065.209 1.187.268 2.379.3 3.582.1.153-.026.088-.234-.065-.21z" transform="scale(-1 1) rotate(-20 324.447 411.702)"></path>
    </g>
    <g fill="#000" fill-rule="nonzero">
      <path d="M20.922.48c-.031-.126-.116-.193-.212-.213-.098-.039-.212-.027-.306.077C15.953 5.232 9.908 6.829 3.54 5.34c-.013-.003-.024-.003-.035-.005-.12-.039-.25-.006-.315.147-1.068 2.485-1.975 5.036-3.043 7.521-.033.076-.034.15-.015.217.02.1.082.193.2.239 7.16 2.803 14.57 2.408 21.05-1.884.086-.057.128-.136.138-.216.005-.017.014-.031.015-.051.328-3.612.243-7.29-.613-10.827zm.01 10.648C14.701 15.192 7.688 15.576.82 12.983c.98-2.313 1.838-4.676 2.822-6.987 6.296 1.391 12.312-.14 16.81-4.797.709 3.253.768 6.618.48 9.928z" transform="scale(-1 1) rotate(-20 11.472 693.655)"></path>
      <path d="M15.135 10.868c.001-.007.005-.013.005-.02.091-4.18-6.167-3.911-7.342-.53-.668 1.922.747 3.8 2.648 3.977 1.961.182 4.341-1.373 4.69-3.416 0-.004-.002-.008 0-.011zm-3.82 3.138c-2.548.422-4.472-2.318-2.79-4.502 1.674-2.17 6.455-2.246 6.387 1.332-.3 1.69-2.018 2.91-3.598 3.17zM4.716 11.417c.654.2 1.434.017 1.812-.47.444-.571-.077-1.182-.823-1.313-.006-.002-.012 0-.018 0-.005 0-.008-.003-.012-.003-.626-.054-1.466.128-1.725.638-.257.506.183.97.766 1.148zm-.385-1.288c.314-.266.888-.348 1.324-.314.816.15 1.067.866.383 1.284-.425.26-.974.286-1.437.071-.474-.22-.685-.688-.27-1.04zM19.797 8.374c.114-.64-.003-1.34-.685-1.522-.616-.164-1.326.165-1.744.635-.584.658-.421 1.64.377 2.013.849.398 1.82-.234 2.052-1.126zm-2.207.713c-.599-.532-.281-1.306.276-1.693.331-.229.781-.388 1.178-.284.54.14.596.698.507 1.192-.22.846-1.257 1.41-1.96.785zM6.584 14.097c-1.521-.043-3-.283-4.45-.72-.137-.04-.196.164-.06.205 1.473.444 2.967.684 4.51.727.143.004.143-.209 0-.212zM2.984 12.363c.555.216 1.135.314 1.74.288.12-.006.12-.169 0-.164-.571.025-1.122-.061-1.646-.265-.108-.043-.202.099-.094.14zM19.656 11.513c-1.385.748-2.859 1.296-4.43 1.649-.15.033-.086.24.065.206 1.59-.357 3.085-.913 4.487-1.67.132-.071.011-.257-.122-.185zM18.724 10.58c-.49.337-1.027.57-1.62.7-.15.033-.086.246.063.213.611-.134 1.174-.375 1.678-.721.122-.084.004-.276-.12-.192zM16.25 5.86c1.31-.652 2.494-1.52 3.55-2.594.106-.107-.052-.28-.157-.173-1.043 1.06-2.214 1.912-3.506 2.556-.13.063-.017.275.112.21zM7.478 6.692c-1.161.194-2.306.16-3.452-.1-.152-.034-.216.175-.065.209 1.187.268 2.379.3 3.582.1.153-.026.088-.234-.065-.21z" transform="scale(-1 1) rotate(-20 11.472 693.655)"></path>
    </g>
    <g fill="#000" fill-rule="nonzero">
      <path d="M21.28.241c-.033-.13-.119-.2-.218-.22-.1-.04-.216-.027-.312.079C16.196 5.128 10.013 6.77 3.498 5.24c-.012-.003-.024-.003-.035-.005-.122-.04-.255-.006-.322.151-1.093 2.556-2.02 5.18-3.113 7.737-.034.078-.035.155-.015.223.02.103.084.198.205.246 7.324 2.884 14.903 2.477 21.532-1.938.088-.059.13-.14.141-.223.005-.017.014-.032.016-.052.335-3.715.248-7.5-.628-11.138zm.009 10.953C14.917 15.374 7.743 15.77.716 13.102c1.002-2.379 1.88-4.81 2.887-7.187 6.44 1.43 12.594-.145 17.195-4.935.726 3.346.786 6.808.49 10.214z" transform="translate(9.47 221.59)"></path>
      <path d="M15.36 10.926c0-.007.005-.012.005-.02.093-4.3-6.309-4.024-7.51-.545-.684 1.977.764 3.91 2.709 4.09 2.005.188 4.44-1.411 4.796-3.513v-.012zm-3.909 3.23c-2.605.433-4.573-2.386-2.852-4.632 1.711-2.233 6.602-2.311 6.532 1.37-.306 1.739-2.064 2.993-3.68 3.261zM4.702 11.492c.67.205 1.467.017 1.853-.483.454-.589-.079-1.217-.841-1.352-.007-.002-.013 0-.02 0-.004 0-.007-.003-.012-.003-.64-.055-1.498.131-1.764.657-.263.52.187.998.784 1.18zm-.394-1.325c.32-.275.908-.359 1.354-.324.835.155 1.092.891.392 1.321-.434.267-.996.294-1.47.074-.485-.227-.7-.708-.276-1.071zM20.128 8.36c.117-.658-.003-1.378-.7-1.565-.63-.168-1.356.17-1.784.654-.598.676-.43 1.687.386 2.07.868.41 1.86-.24 2.098-1.158zm-2.257.735c-.613-.547-.288-1.344.283-1.742.338-.236.798-.4 1.204-.292.552.144.61.718.52 1.226-.226.87-1.287 1.45-2.007.808zM61.158 14.248c-1.556-.044-3.068-.29-4.552-.74-.14-.042-.2.168-.06.21 1.505.457 3.034.704 4.611.749.148.003.148-.215.001-.219zM57.476 12.464c.567.222 1.16.324 1.78.297.121-.006.122-.174 0-.169-.585.026-1.149-.063-1.685-.273-.11-.043-.206.102-.095.145zM74.53 11.59c-1.417.77-2.924 1.333-4.531 1.696-.154.035-.089.247.065.213 1.627-.368 3.156-.94 4.59-1.719.136-.073.012-.264-.124-.19zM73.577 10.63c-.501.347-1.051.587-1.658.72-.153.034-.088.253.065.22.625-.138 1.2-.386 1.716-.743.125-.086.004-.284-.123-.196zM16.5 5.774c1.34-.67 2.552-1.563 3.632-2.668.108-.11-.053-.288-.16-.178-1.068 1.091-2.265 1.967-3.587 2.63-.133.065-.018.282.114.216zM7.528 6.63c-1.189.2-2.36.165-3.532-.102-.155-.035-.221.18-.066.215 1.214.276 2.433.308 3.664.102.156-.026.09-.24-.067-.214z" transform="translate(9.47 221.59)"></path>
    </g>
    <g fill="#000" fill-rule="nonzero">
      <path d="M21.049.354c-.031-.127-.116-.194-.212-.214-.098-.039-.212-.027-.306.077C16.08 5.105 10.035 6.702 3.667 5.213c-.013-.003-.024-.003-.035-.005-.12-.039-.25-.006-.315.147C2.249 7.84 1.342 10.391.274 12.876c-.033.076-.034.15-.015.217.02.1.082.193.2.239 7.16 2.804 14.57 2.408 21.05-1.883.086-.058.128-.137.138-.217.005-.017.014-.031.015-.051.328-3.612.243-7.29-.613-10.827zM21.059 11c-6.23 4.064-13.243 4.448-20.112 1.855.98-2.313 1.838-4.676 2.822-6.987 6.296 1.391 12.312-.14 16.81-4.797.709 3.253.768 6.618.48 9.929z" transform="scale(-1 1) rotate(-70 84.396 160.047)"></path>
      <path d="M15.262 10.74c.001-.006.005-.012.005-.02.091-4.179-6.167-3.91-7.342-.529-.668 1.922.747 3.8 2.648 3.977 1.961.182 4.341-1.373 4.69-3.416 0-.004-.002-.008 0-.011zm-3.82 3.14c-2.548.421-4.472-2.32-2.79-4.503 1.674-2.17 6.454-2.246 6.387 1.332-.3 1.69-2.018 2.91-3.598 3.17zM4.843 11.29c.654.2 1.434.017 1.812-.47.444-.571-.077-1.182-.823-1.313-.006-.002-.012 0-.018 0-.005 0-.008-.003-.012-.003-.626-.054-1.466.128-1.725.638-.257.506.183.97.766 1.148zm-.385-1.288c.314-.266.888-.348 1.324-.314.816.15 1.067.866.382 1.284-.424.26-.973.286-1.436.072-.474-.221-.685-.689-.27-1.042zM19.924 8.247c.114-.64-.003-1.34-.685-1.522-.616-.164-1.326.165-1.744.635-.584.658-.421 1.64.377 2.013.849.398 1.82-.234 2.052-1.126zm-2.207.713c-.599-.532-.281-1.306.276-1.693.331-.229.781-.388 1.178-.284.54.14.596.698.507 1.192-.22.846-1.257 1.41-1.96.785zM6.711 13.97c-1.521-.043-3-.283-4.45-.72-.137-.04-.196.164-.06.205 1.473.444 2.967.684 4.51.727.143.004.143-.209 0-.212zM3.111 12.236c.555.216 1.135.314 1.74.288.119-.006.12-.169 0-.164-.571.025-1.122-.061-1.646-.265-.108-.043-.202.099-.094.14zM19.783 11.386c-1.386.748-2.859 1.296-4.43 1.649-.15.033-.086.24.065.206 1.59-.357 3.085-.913 4.487-1.67.132-.07.011-.257-.122-.185zM18.851 10.453c-.49.337-1.027.57-1.62.7-.15.033-.086.246.063.214.611-.134 1.174-.376 1.678-.722.122-.084.004-.276-.12-.192zM16.376 5.733c1.31-.652 2.495-1.52 3.551-2.594.106-.107-.052-.28-.157-.173-1.043 1.06-2.214 1.912-3.506 2.556-.13.063-.017.275.112.21zM7.605 6.565c-1.161.194-2.306.16-3.452-.1-.152-.034-.216.175-.065.21 1.187.267 2.379.299 3.582.099.153-.026.088-.234-.065-.21z" transform="scale(-1 1) rotate(-70 84.396 160.047)"></path>
    </g>
    <g fill="#000" fill-rule="nonzero">
      <path d="M74.46.241c-.03-.13-.117-.2-.216-.22-.1-.04-.216-.027-.312.079C69.378 5.128 63.194 6.77 56.68 5.24c-.012-.003-.024-.003-.035-.005-.122-.04-.255-.006-.322.151-1.093 2.556-2.02 5.18-3.113 7.737-.034.078-.035.155-.016.223.02.103.085.198.206.246 7.324 2.884 14.903 2.477 21.531-1.938.089-.059.132-.14.142-.223.005-.017.014-.032.016-.052.335-3.715.248-7.5-.628-11.138zm.01 10.953c-6.37 4.18-13.546 4.576-20.572 1.908 1.002-2.379 1.88-4.81 2.887-7.187C63.225 7.345 69.379 5.77 73.98.98c.725 3.346.786 6.808.49 10.214z" transform="matrix(-1 0 0 1 129.47 221.59)"></path>
      <path d="M68.542 10.926c0-.007.004-.012.004-.02.094-4.3-6.308-4.024-7.51-.545-.683 1.977.764 3.91 2.71 4.09 2.005.188 4.44-1.411 4.796-3.513v-.012zm-3.909 3.23c-2.606.433-4.573-2.386-2.852-4.632 1.711-2.233 6.601-2.311 6.532 1.37-.306 1.739-2.064 2.993-3.68 3.261zM57.884 11.492c.669.205 1.467.017 1.853-.483.454-.589-.079-1.217-.841-1.352-.007-.002-.013 0-.02 0-.004 0-.007-.003-.012-.003-.64-.055-1.499.131-1.764.657-.263.52.187.998.784 1.18zm-.394-1.325c.32-.275.908-.359 1.354-.324.835.155 1.092.891.391 1.321-.434.267-.995.294-1.469.074-.485-.227-.7-.708-.276-1.071zM73.31 8.36c.117-.658-.003-1.378-.7-1.565-.63-.168-1.356.17-1.784.654-.598.676-.431 1.687.386 2.07.868.41 1.86-.24 2.098-1.158zm-2.257.735c-.613-.547-.288-1.344.283-1.742.338-.236.798-.4 1.204-.292.552.144.61.718.519 1.226-.225.87-1.286 1.45-2.006.808zM5.25 14.248c-1.557-.044-3.07-.29-4.553-.74-.14-.042-.2.168-.06.21 1.505.457 3.034.704 4.611.749.148.003.148-.215.001-.219zM1.567 12.464c.567.222 1.16.324 1.78.297.121-.006.122-.174 0-.169-.585.026-1.149-.063-1.685-.273-.11-.043-.206.102-.095.145zM18.62 11.59c-1.417.77-2.923 1.333-4.53 1.696-.154.035-.09.247.065.213 1.627-.368 3.156-.94 4.59-1.719.136-.073.012-.264-.124-.19zM17.668 10.63c-.501.347-1.051.587-1.658.72-.153.034-.088.253.065.22.625-.138 1.2-.386 1.716-.743.125-.086.004-.284-.123-.196zM69.681 5.774c1.34-.67 2.552-1.563 3.632-2.668.108-.11-.053-.288-.16-.178-1.067 1.091-2.264 1.967-3.586 2.63-.133.065-.018.282.114.216zM60.71 6.63c-1.19.2-2.36.165-3.532-.102-.155-.035-.222.18-.066.215 1.213.276 2.433.308 3.663.102.157-.026.09-.24-.066-.214z" transform="matrix(-1 0 0 1 129.47 221.59)"></path>
    </g>
    <g fill="#000" fill-rule="nonzero">
      <path d="M21.29.523c-.03-.127-.115-.194-.211-.214-.098-.039-.212-.027-.306.077C16.322 5.274 10.277 6.87 3.91 5.382c-.013-.003-.024-.003-.035-.005-.12-.039-.25-.006-.315.147C2.49 8.01 1.584 10.56.516 13.045c-.033.076-.034.15-.015.217.02.1.082.193.2.239 7.16 2.803 14.57 2.408 21.05-1.884.086-.057.128-.136.138-.217.005-.017.013-.03.015-.05.328-3.612.243-7.291-.614-10.827zm.01 10.646c-6.229 4.065-13.242 4.449-20.111 1.855.98-2.312 1.838-4.675 2.822-6.986 6.296 1.391 12.312-.14 16.81-4.797.709 3.253.768 6.618.479 9.928z" transform="rotate(40 -216.527 136.53)"></path>
      <path d="M15.504 10.91c.001-.007.005-.013.005-.02.091-4.18-6.167-3.911-7.342-.53-.668 1.922.747 3.8 2.648 3.977 1.961.182 4.34-1.373 4.689-3.416v-.012zm-3.82 3.138c-2.548.422-4.472-2.318-2.79-4.502 1.674-2.17 6.454-2.246 6.387 1.332-.3 1.69-2.018 2.91-3.598 3.17zM5.085 11.459c.654.2 1.434.017 1.812-.47.443-.571-.078-1.182-.823-1.313-.006-.002-.012 0-.018 0l-.012-.003c-.627-.054-1.466.128-1.725.638-.257.506.183.97.766 1.148zM4.7 10.171c.314-.267.888-.348 1.324-.314.816.15 1.067.866.382 1.284-.424.259-.973.286-1.436.071-.475-.22-.685-.688-.27-1.04zM20.166 8.416c.114-.64-.003-1.34-.686-1.523-.615-.163-1.325.166-1.743.636-.584.657-.421 1.64.377 2.013.849.398 1.82-.234 2.052-1.126zm-2.207.713c-.599-.532-.281-1.306.276-1.693.331-.229.781-.388 1.178-.284.539.14.596.698.507 1.192-.22.846-1.257 1.41-1.96.785h-.001zM6.953 14.139c-1.521-.043-3-.283-4.45-.72-.137-.041-.196.164-.06.205 1.473.444 2.967.683 4.51.727.143.004.143-.209 0-.212zM3.353 12.405c.555.216 1.135.314 1.74.288.119-.006.12-.169 0-.164-.571.025-1.122-.062-1.646-.266-.109-.042-.202.1-.094.142zM20.025 11.555c-1.386.748-2.859 1.296-4.43 1.648-.15.034-.086.24.064.207 1.591-.357 3.086-.913 4.488-1.67.132-.071.011-.257-.122-.185zM19.093 10.622c-.49.337-1.027.57-1.62.7-.15.033-.086.246.063.213.611-.134 1.174-.375 1.678-.722.122-.083.003-.276-.12-.19zM16.618 5.901c1.31-.651 2.495-1.52 3.55-2.593.107-.107-.051-.28-.156-.173-1.043 1.06-2.214 1.912-3.506 2.556-.13.063-.017.275.112.21zM7.847 6.734c-1.162.194-2.306.16-3.452-.1-.152-.034-.216.175-.065.209 1.187.268 2.379.3 3.582.1.153-.026.088-.235-.065-.21z" transform="rotate(40 -216.527 136.53)"></path>
    </g>
    <g fill="#000" fill-rule="nonzero">
      <path d="M21.292.234C21.26.107 21.176.041 21.08.02c-.098-.038-.212-.026-.306.077C16.323 4.985 10.278 6.582 3.91 5.093c-.013-.003-.024-.003-.035-.005-.12-.038-.25-.005-.315.148C2.492 7.72 1.585 10.27.517 12.756c-.033.077-.034.15-.015.218.02.1.082.192.2.238 7.16 2.804 14.57 2.409 21.05-1.883.086-.057.128-.136.138-.217.005-.017.013-.031.015-.05.328-3.612.243-7.291-.614-10.828zm.009 10.647c-6.229 4.064-13.242 4.448-20.111 1.855.98-2.312 1.838-4.676 2.822-6.986 6.296 1.39 12.312-.141 16.81-4.797.709 3.252.768 6.618.479 9.928z" transform="rotate(-30 429.7 -80.12)"></path>
      <path d="M15.505 10.621c.001-.007.005-.012.005-.02.091-4.18-6.167-3.91-7.342-.53-.668 1.923.747 3.8 2.648 3.977 1.961.183 4.341-1.372 4.69-3.416 0-.003-.002-.007 0-.01zm-3.82 3.139c-2.548.422-4.472-2.319-2.79-4.502 1.674-2.17 6.454-2.246 6.387 1.331-.3 1.691-2.018 2.91-3.598 3.171zM5.086 11.17c.654.2 1.434.018 1.812-.469.444-.572-.077-1.182-.823-1.314h-.018c-.005 0-.008-.003-.012-.003-.627-.054-1.466.128-1.725.639-.257.506.183.97.766 1.148zm-.385-1.287c.314-.267.888-.348 1.324-.315.816.15 1.067.866.382 1.284-.424.26-.973.286-1.436.072-.475-.22-.685-.688-.27-1.041zM20.167 8.127c.114-.64-.003-1.34-.685-1.522-.616-.163-1.326.165-1.744.636-.584.657-.421 1.64.377 2.013.849.398 1.82-.235 2.052-1.127zm-2.207.714c-.599-.532-.281-1.306.276-1.693.331-.23.781-.388 1.178-.285.54.141.596.699.507 1.193-.22.845-1.257 1.41-1.96.785zM6.954 13.85c-1.521-.043-3-.282-4.45-.72-.137-.04-.196.164-.06.205 1.473.444 2.967.684 4.51.728.143.003.143-.21 0-.213zM3.354 12.116c.555.216 1.135.315 1.74.288.119-.005.12-.168 0-.164-.571.025-1.122-.061-1.646-.265-.109-.042-.202.099-.094.141zM20.026 11.266c-1.386.749-2.859 1.297-4.43 1.65-.15.033-.086.24.065.206 1.59-.357 3.085-.914 4.487-1.67.132-.072.011-.257-.122-.186zM19.094 10.334c-.49.337-1.027.57-1.62.7-.15.032-.086.245.063.213.611-.134 1.174-.375 1.678-.722.122-.084.003-.276-.12-.191zM16.619 5.613c1.31-.652 2.495-1.52 3.55-2.594.107-.107-.051-.28-.156-.173C18.97 3.907 17.8 4.76 16.507 5.402c-.13.064-.017.275.112.211zM7.848 6.445c-1.161.194-2.306.16-3.452-.1-.152-.033-.216.175-.065.21 1.187.268 2.379.299 3.582.099.153-.025.088-.234-.065-.209z" transform="rotate(-30 429.7 -80.12)"></path>
    </g>
    <g fill="#000" fill-rule="nonzero">
      <path d="M20.802.724c-.03-.127-.115-.194-.212-.214-.097-.039-.211-.027-.305.077C15.833 5.475 9.788 7.072 3.42 5.583c-.012-.003-.023-.003-.035-.005-.119-.039-.249-.006-.315.147C2.002 8.21 1.096 10.761.027 13.246c-.033.076-.033.15-.015.217.02.1.083.193.2.239 7.161 2.803 14.57 2.408 21.05-1.884.086-.057.129-.136.139-.217.005-.016.013-.03.015-.05.328-3.612.243-7.29-.614-10.827zm.01 10.646C14.582 15.435 7.569 15.82.7 13.226c.98-2.313 1.838-4.676 2.822-6.987 6.296 1.391 12.312-.14 16.81-4.797.71 3.253.768 6.618.48 9.928z" transform="rotate(-60 125.913 -67.447)"></path>
      <path d="M15.016 11.11c0-.006.004-.012.004-.02.092-4.179-6.167-3.91-7.341-.529-.668 1.922.746 3.8 2.648 3.977 1.96.182 4.34-1.373 4.689-3.416v-.011zm-3.821 3.14c-2.548.421-4.471-2.32-2.789-4.503 1.673-2.17 6.454-2.246 6.386 1.332-.3 1.69-2.018 2.91-3.597 3.17zM4.597 11.66c.654.2 1.433.017 1.811-.47.444-.571-.077-1.182-.822-1.313-.007-.002-.012 0-.019 0-.004-.001-.007-.003-.012-.003-.626-.054-1.465.128-1.725.638-.257.506.183.97.767 1.148zm-.385-1.288c.313-.267.887-.348 1.324-.314.815.15 1.067.866.382 1.284-.424.26-.973.286-1.437.071-.474-.22-.684-.688-.27-1.04zM19.677 8.617c.114-.64-.003-1.34-.685-1.522-.615-.164-1.325.165-1.743.635-.585.658-.422 1.64.377 2.013.848.398 1.819-.234 2.051-1.126zm-2.206.713c-.6-.532-.282-1.306.276-1.693.33-.229.78-.388 1.177-.284.54.14.596.698.508 1.192-.22.846-1.258 1.41-1.961.785zM6.465 14.34c-1.522-.043-3-.283-4.45-.72-.137-.04-.197.164-.06.205 1.472.444 2.967.684 4.509.727.144.004.144-.209 0-.212zM2.865 12.606c.555.216 1.135.314 1.74.288.118-.006.12-.169 0-.164-.572.025-1.123-.061-1.647-.266-.108-.042-.202.1-.093.142zM19.536 11.756c-1.385.748-2.858 1.296-4.43 1.649-.149.033-.086.24.065.206 1.59-.357 3.085-.913 4.487-1.67.132-.071.012-.257-.122-.185zM18.605 10.823c-.49.337-1.027.57-1.621.7-.15.033-.086.246.064.213.61-.134 1.173-.375 1.677-.721.122-.084.004-.276-.12-.192zM16.13 6.103c1.31-.652 2.495-1.52 3.55-2.594.106-.107-.051-.28-.156-.173-1.044 1.06-2.214 1.912-3.506 2.556-.13.063-.017.275.111.21zM7.359 6.935c-1.162.194-2.306.16-3.452-.1-.152-.034-.217.175-.065.209 1.186.268 2.378.3 3.581.1.153-.026.089-.234-.064-.21z" transform="rotate(-60 125.913 -67.447)"></path>
    </g>
    <g>
      <path fill="#000" fill-rule="nonzero" d="M49.437 39.604c-2.882-4.124-8.18-5.787-10.561-6.35 1-1.719 1.653-3.638 1.892-5.603.099-.779.135-1.487.11-2.167-.082-3.885-1.653-7.53-4.423-10.263-4.956-4.884-12.58-5.752-18.499-2.243-.55-2.268-2.233-7.574-6.386-10.438C9.07.814 6.088.25 2.719.858c-.696.12-1.31.533-1.683 1.13-.38.604-.485 1.344-.281 2.025.314 1.056 1.317 1.796 2.445 1.796.096 0 .187-.005.286-.016l.132-.013c-.6.694-.89 1.57-.828 2.488.094 1.33.971 2.477 2.176 2.972-.605.692-.853 1.596-.68 2.494.127.661.485 1.268 1.018 1.72.528.43 1.191.673 1.865.69l.107.002c-.283.55-.344 1.181-.162 1.794.355 1.173 1.43 2.03 2.676 2.134l1.895.147c-2.25 5.532-.973 11.91 3.334 16.154 1.103 1.089 2.349 1.985 3.688 2.679 2.12 1.238 4.53 1.892 6.964 1.892 1.986 0 3.977-.433 5.823-1.307.003 0 .003 0 .006-.003l.129 1.666c.104 1.225.973 2.287 2.167 2.638.616.18 1.257.117 1.815-.163l.003.1c.017.676.267 1.334.71 1.852.44.517 1.056.87 1.733.999.913.171 1.829-.071 2.53-.67.498 1.203 1.645 2.055 3.014 2.148.916.06 1.827-.234 2.523-.82-.006.05-.009.096-.014.142-.008.087-.017.177-.017.272 0 1.11.748 2.102 1.821 2.412.231.065.47.098.707.098.47 0 .938-.128 1.345-.378.602-.37 1.023-.975 1.15-1.658.602-3.297.04-6.215-1.678-8.67zM8.464 17.55c-.094-.321-.033-.659.165-.923.2-.264.508-.417.844-.417.385 0 .699-.304.704-.686.006-.38-.3-.696-.685-.707l-2.288-.063c-.369-.008-.718-.136-.996-.365-.286-.24-.473-.555-.539-.914-.093-.488.044-.98.382-1.348.308-.337.732-.523 1.183-.523.047 0 .094.003.143.006h.008c.385.038.73-.248.765-.632.036-.383-.25-.721-.638-.756l-1.397-.126c-1.024-.092-1.846-.92-1.918-1.93-.04-.577.157-1.13.553-1.551.383-.406.894-.632 1.45-.654 2.712.654 4.92 2.679 6.557 6.036.12.25.374.394.635.394.102 0 .207-.022.306-.07.349-.17.497-.583.327-.932-2.302-4.723-5.402-6.31-7.594-6.813h-.008C5.416 4.349 4.379 4.292 3.35 4.4c-.05.005-.096.01-.148.01-.506 0-.955-.326-1.092-.792-.088-.302-.044-.631.126-.898.166-.267.427-.441.738-.496 2.992-.539 5.616-.049 7.797 1.454 4.11 2.834 5.578 8.42 5.938 10.11-.157.115-.305.24-.456.36-.102.082-.207.158-.308.242-.317.264-.625.537-.916.828-.29.286-.564.582-.828.887-.085.098-.162.202-.245.302-.173.21-.344.422-.503.64-.094.128-.18.259-.267.39-.138.2-.272.402-.399.61-.088.143-.17.29-.253.437-.072.128-.151.25-.22.382L9.91 18.68c-.68-.049-1.257-.509-1.447-1.132zm4.893 2.357c.662-1.372 1.556-2.613 2.654-3.697.575-.566 1.202-1.083 1.867-1.535 2.38-1.639 5.124-2.439 7.855-2.439 3.543 0 7.06 1.35 9.726 3.974 2.51 2.478 3.935 5.782 4.01 9.307v.011c.022.605-.011 1.242-.102 1.95-.055.462-.14.92-.245 1.372.366-3.885-.995-7.868-3.9-10.737-5.286-5.216-13.89-5.216-19.176 0-2.5 2.467-3.892 5.725-3.96 9.204-.281-2.48.12-5.05 1.27-7.41zM49.723 48.03c-.055.303-.234.558-.504.725-.275.168-.61.215-.918.125-.473-.136-.806-.58-.806-1.076 0-.051.005-.098.008-.136.11-1.026.052-2.047-.176-3.04v-.011c-.509-2.165-2.12-5.222-6.906-7.492-.35-.169-.77-.022-.94.327-.169.348-.02.762.33.93 3.399 1.615 5.453 3.79 6.116 6.466-.022.542-.247 1.045-.654 1.421-.432.397-.993.593-1.585.553-1.034-.071-1.859-.866-1.958-1.884l-.118-1.375v-.008c-.033-.381-.372-.678-.762-.634-.388.032-.674.37-.641.754.044.495-.146.972-.523 1.306-.376.338-.874.474-1.375.382-.357-.069-.685-.256-.918-.529-.24-.277-.369-.62-.377-.985l-.055-2.257c-.009-.378-.322-.68-.704-.68h-.009c-.385.005-.696.315-.696.697 0 .326-.15.628-.418.827-.272.202-.618.264-.943.172-.638-.191-1.106-.76-1.16-1.416l-.171-2.183c.13-.068.25-.147.377-.218.143-.082.288-.16.429-.248.2-.122.396-.253.591-.384.132-.09.267-.174.393-.266.21-.153.413-.313.617-.474.104-.084.214-.163.316-.25.302-.256.594-.52.877-.8.107-.11.217-.216.292-.3.272-.283.528-.577.773-.877.077-.095.148-.19.222-.286.105-.136.218-.27.317-.405 1.727.37 7.39 1.86 10.212 5.896 1.502 2.14 1.986 4.71 1.447 7.633z" transform="rotate(-90 65.204 -1.248)"></path>
      <path fill="url(#lpr51oqipa)" d="M28.624 39.054c-3.264.697-6.592.196-9.436-1.328-.767-.471-1.49-1.027-2.145-1.674-2.294-2.265-3.56-5.273-3.56-8.475 0-3.2 1.266-6.212 3.56-8.477 2.37-2.338 5.481-3.506 8.595-3.506 3.11 0 6.224 1.168 8.592 3.506 3.774 3.724 4.64 9.544 2.101 14.161-.486.901-1.08 1.718-1.804 2.475-.088.109-.195.212-.294.313-.845.833-1.796 1.53-2.825 2.072-.003 0-.003.002-.005.002-.174.093-.35.172-.526.253-.737.294-1.488.523-2.252.678z" transform="rotate(-90 65.204 -1.248)"></path>
      <path fill="#000" fill-rule="nonzero" d="M46.76 19.151h.098c1.047 0 1.962-.364 2.656-1.057.832-.832 1.963-2.758.181-6.324-.745-1.491-1.949-3.163-3.385-4.708-1.636-1.76-4.815-4.72-7.747-4.785-1.09-.03-2.038.342-2.753 1.058-.729.73-1.11 1.657-1.128 2.757-.057 3.2 3.012 6.854 4.335 8.275 1.633 1.762 4.812 4.722 7.744 4.784zM36.764 4.378c.445-.446 1.058-.669 1.768-.657 2.6.056 5.849 3.34 6.783 4.344 1.347 1.45 2.467 3.003 3.153 4.373 1.01 2.021 1.042 3.66.089 4.612-.446.446-1.053.683-1.768.657-2.6-.056-5.85-3.34-6.784-4.344-2.502-2.693-3.976-5.402-3.943-7.246.01-.71.24-1.28.702-1.74zM31.226 22.571l1.078-1.078c.278-.278.275-.725-.009-.998-.283-.273-.738-.27-1.016.01l-1.075 1.079c-.736-.527-1.592-.846-2.48-.89-1.156-.07-2.206.328-2.972 1.094-.764.764-1.14 1.809-1.059 2.94.062.87.402 1.703.955 2.415l-3.92 3.92c-.842-1.2-.839-2.732.093-3.667.278-.278.275-.725-.011-.998-.284-.273-.738-.27-1.016.011-1.483 1.484-1.477 3.907-.087 5.674l-1.073 1.073c-.278.278-.275.725.009.998.14.135.322.201.502.201.185 0 .373-.071.514-.212l1.07-1.07c.783.571 1.7.91 2.647.96.081.005.16.005.241.005 1.118 0 2.137-.408 2.886-1.158 1.483-1.483 1.477-3.904.088-5.674l3.61-3.612c.747 1.103.741 2.493-.11 3.347-.278.279-.275.725.012.998.283.273.738.27 1.016-.01 1.404-1.404 1.398-3.681.107-5.358zm-6.1 2.051c-.051-.722.179-1.378.65-1.85.472-.471 1.146-.717 1.87-.672.54.027 1.061.206 1.533.501l-3.515 3.519c-.306-.455-.5-.968-.539-1.498zm.358 7.268c-.51.513-1.224.778-2.027.731-.6-.03-1.184-.231-1.704-.57l3.824-3.828c.84 1.2.84 2.733-.093 3.667z" transform="rotate(-90 65.204 -1.248)"></path>
    </g>
    <g fill="#000" fill-rule="nonzero">
      <g>
        <path d="M.615 1.386C.036.31.036.31.215.131l.474.477L.452.37.75.216l.457.85-.592.32zm.961 1.785l-.48-.892.59-.32.481.891-.591.321zm.963 1.782l-.481-.89.59-.322.48.891-.59.321zm.963 1.781l-.482-.89.59-.321.482.89-.59.321zm.964 1.78l-.483-.89.59-.321.483.89-.59.322zm.966 1.78l-.483-.89.59-.323.482.89-.59.323zm.967 1.778l-.484-.89.59-.322.483.888-.59.324zm.969 1.776l-.485-.888.59-.324.483.888-.588.324zm.97 1.777l-.485-.888.588-.325.486.888-.59.325zm.972 1.774l-.487-.886.589-.326.486.887-.588.325zm.974 1.774l-.487-.886.587-.326.488.886-.588.326zm.977 1.775l-.49-.888.588-.327.49.888-.588.327zm.98 1.772l-.49-.885.587-.328.49.885-.587.328zm.98 1.768l-.491-.885.587-.328.49.884-.586.329zm.985 1.768l-.493-.884.586-.329.493.883-.586.33zm.988 1.766l-.494-.883.586-.33.494.882-.586.331zM28.011 8.577l-.57-.357c.19-.306.366-.593.524-.858l.576.347c-.16.269-.338.558-.53.868zm-1.084 1.712l-.566-.364.543-.852.567.362-.544.854zm-1.093 1.703l-.565-.365.546-.851.565.365-.546.851zm-1.083 1.705l-.567-.362c.182-.29.363-.575.541-.855l.566.363c-.177.28-.358.564-.54.854zm-1.068 1.712l-.571-.354c.178-.29.357-.578.533-.862l.57.359c-.176.282-.354.568-.532.857zm-1.048 1.726l-.576-.347c.175-.292.349-.582.524-.869l.573.351c-.173.286-.347.575-.52.865zm-1.017 1.739l-.583-.337c.169-.294.338-.586.508-.876l.58.341c-.17.289-.338.58-.505.872zm-.983 1.759l-.59-.324c.162-.297.326-.594.49-.889l.587.33c-.164.293-.326.587-.487.883zm-.94 1.783l-.598-.307c.154-.302.31-.603.469-.904l.593.316c-.157.298-.312.596-.464.895zm-.784 1.597l-.606-.29c.11-.234.224-.469.339-.705l.602.297c-.113.233-.225.466-.335.698z" transform="matrix(-1 0 0 1 234.47 63.41) translate(36.945 72.659)"></path>
      </g>
      <path d="M128.055 14.751c0 .797-.163 1.56-.554 2.252-.663 1.17-1.293 2.367-2.05 3.475-1.973 2.89-4.008 5.736-6.019 8.6-2.573 3.664-5.145 7.192-7.72 10.855-.04.06-.385.406-.426.465l-.001.002c-.03.024-.06.046-.091.072-1.035-2.49-3.475-8.112-3.865-8.938 3.775-4.234 5.65-6.347 9.517-10.665 1.381-1.541 2.814-3.035 4.2-4.572.558-.618 1.073-1.277 1.576-1.941.515-.68.733-1.488.889-2.316.214-1.135.399-2.278.672-3.399.332-1.359.707-2.708 1.134-4.04.236-.735.612-1.426.935-2.133.038-.083.139-.137.311-.299-.293 2.117-.698 4.09-.805 6.079-.109 2.009.077 4.034.139 6.204.654-.296.905-.657.984-1.127.192-1.141.365-2.285.541-3.429.11-.718.207-1.438.322-2.155.018-.117.096-.224.26-.31.02.256.055.512.055.767.002 2.185-.002 4.369-.004 6.553m-17.699 28.305c-.946.54-1.385.359-1.695-.714-.105-.362-.187-.73-.275-1.097-.655-2.713-1.745-5.258-2.957-7.757-.177-.363-.361-.723-.52-1.094-.28-.655-.187-.852.488-1.063.177-.056.363-.085.4-.093.569-.037.793.245.96.554.333.615.668 1.232.939 1.874.973 2.306 1.926 4.62 2.872 6.938.151.37.243.767.335 1.158.184.787.125.91-.547 1.294m-2.693.216c-1.634 1.473-3.22 3.002-5.15 4.296-.07-.295-.15-.512-.172-.735-.15-1.543-.602-3.007-1.12-4.455-.093-.26-.103-.256-.451-.48-.275.165-.2.406-.125.638.14.435.283.87.44 1.3.44 1.205.426 2.484.628 3.728.764 4.71.196 9.358-.69 13.975-.624 3.24-.936 6.501-1.11 9.789-.152 2.896.063 5.763.453 8.625.112.815.056.92-.714 1.183-1.065.366-2.12.769-3.206 1.054-.85.223-1.735.38-2.61.41-2.637.095-5.276-.014-7.812-.816-1.504-.476-2.965-1.107-4.41-1.75-1.642-.732-3.252-1.541-4.863-2.343-.889-.442-1.791-.878-2.617-1.426-2.176-1.443-4.563-2.246-7.132-2.571-.755-.096-.795-.138-1.289-.651.092-.25.209-.52.292-.8.386-1.289.795-2.572 1.13-3.874.181-.71.106-1.444-.108-2.158-.225-.748-.438-1.487-.069-2.28.118-.254.03-.644-.058-.944-.187-.646-.429-1.275-.66-1.907-.464-1.274-.29-1.96.84-2.71 1.167-.775 1.48-.769 1.346-2.743-.09-1.335.343-2.707.55-4.061.023-.154.092-.301.145-.466-.393-.4-.879-.385-1.356-.403-1.61-.058-3.219-.116-4.828-.18-.18-.008-.36-.055-.61-.094.615-4.074.569-8.133.303-12.211.256-.09.423-.161.596-.21 1.68-.468 3.338-1.04 5.044-1.375 2.71-.531 5.453-.9 8.182-1.344.662-.108 1.33-.204 1.976-.374.458-.12.776-.005 1.073.326.449.501.903.998 1.369 1.483.615.64 1.24 1.269 1.867 1.897.68.68 1.508 1.118 2.4 1.443 1.53.555 2.962.018 3.61-1.497.396-.93.604-1.95.818-2.945.087-.404.204-.615.619-.692 1.765-.333 3.522-.716 5.291-1.03 2.272-.402 4.551-.76 6.829-1.127.608-.098 1.223-.154 1.893-.236.082.12.202.26.283.42 1.477 2.912 2.738 5.907 3.494 9.101.117.496.089.86-.311 1.22m-13.14 40.022l2.977-.789.222 3.958c-1.492-.754-2.41-1.842-3.198-3.17m4.72 8.951c1.112 3.207 2.331 6.375 3.496 9.563 1.527 4.177 2.922 8.396 4.028 12.707.432 1.68.606 3.4.678 5.122.087 2.073.155 4.15.108 6.224-.08 3.512-1.748 6.218-4.475 8.308-2.352 1.804-4.855 3.385-7.43 4.841-6.32 3.573-12.538 7.316-18.737 11.094-.18.11-.37.205-.585.323l-9.084-16.03c6.86-4.3 13.203-9.33 19.95-13.837.179.201.324.39.499.546.062.055.246.078.281.036.073-.087.135-.24.108-.342-.039-.149-.15-.282-.245-.412-3.772-5.176-6.465-10.925-8.893-16.817-.666-1.618-1.358-3.225-2.102-4.99.212-.154.45-.288.644-.47 2.329-2.18 4.866-4.074 7.64-5.646.21-.12.424-.236.618-.379.199-.146.564-.258.338-.6-.188-.284-.43-.062-.63.06-1.056.643-2.122 1.27-3.161 1.94-2.614 1.684-4.878 3.8-7.123 5.931-4.063 3.86-7.823 8.007-11.476 12.256-1.947 2.267-3.902 4.533-6.14 6.524-1.707 1.518-3.716 2.338-6.003 2.421-1.01.037-1.88-.296-2.624-1.018-.915-.889-1.682-1.887-2.374-2.952-2.525-3.886-4.898-7.865-7.079-11.957-3.437-6.446-7.18-12.708-11.096-18.87-1.14-1.795-2.144-3.676-3.207-5.52-.066-.114-.107-.242-.197-.451 5.032-2.78 9.424-6.5 14.344-9.635.176.291.37.569.52.867 1.047 2.067 2.117 4.123 3.118 6.211 1.878 3.915 4.006 7.693 6.137 11.47 1.92 3.4 3.855 6.793 5.788 10.187.124.218.198.534.623.417.147-.644-.353-1.071-.576-1.581-.224-.515-.519-1-.754-1.441 2.823-6.281 6.356-12.071 9.973-17.893 3.276 1.112 5.98.375 8.003-2.597.302.165.583.309.853.47 3.494 2.083 7.184 3.77 10.9 5.392 2.57 1.12 5.318 1.535 8.106 1.472 1.203-.028 2.07.168 2.67 1.35.449.883 1.256 1.54 2.116 2.068.287.176.614.287.948.44.483 1.69.906 3.475 1.504 5.198m-24.487 60.522C70.888 147.032 67.32 141.195 64.1 135l1.967-1.107c2.096 2.79 3.477 5.903 5.192 8.82 1.703 2.896 3.313 5.847 5.004 8.845l-1.506 1.21m-4.262-2.18c-.47.246-.962.446-1.481.683-2.63-3.274-4.863-6.82-7.2-10.394.287-.214.55-.43.833-.617.65-.43 1.31-.84 1.96-1.267.54-.354.79-.318 1.109.213 2.044 3.415 4.085 6.83 6.125 10.248.038.066.048.148.095.298-.475.279-.947.579-1.44.837m-2.039 3.176c-1.71 1.405-3.604 2.424-5.793 2.847-.273.052-.535.164-.787.244.049.454.285.46.539.4.548-.13 1.094-.269 1.639-.411.31-.081.616-.176 1.034-.297l.278 2.784c-.415.156-.784.3-1.158.432-.15.053-.347.035-.458.128-.118.097-.159.287-.233.436.139.04.29.139.413.11.39-.09.77-.23 1.154-.348.127-.039.256-.072.48-.134l.472 1.85c-.493.136-.898.25-1.305.36-.155.041-.343.033-.461.121-.1.075-.158.255-.162.39 0 .05.212.165.313.15.344-.049.681-.143 1.022-.217.207-.045.416-.084.736-.149.147.56.297 1.09.425 1.626.356 1.492.794 2.969.825 4.52.007.349-.008.7.009 1.048.118 2.511-1.858 4.323-3.616 4.922-.632.215-1.285.369-2 .571-.16-.246-.33-.48-.472-.728-2.453-4.272-4.91-8.542-7.348-12.822-2.04-3.577-4.06-7.164-6.08-10.752-.341-.607-.635-1.242-1-1.964.29-.115.542-.235.807-.317 2.625-.814 5.144-1.865 7.488-3.323 1.762-1.095 3.432-2.309 4.962-3.713.234-.215.482-.413.833-.712.777 1.165 1.5 2.2 2.171 3.267 1.694 2.691 3.547 5.268 5.488 7.782.803 1.04.8 1.065-.215 1.899m-7.82 22.119c-.695.036-.997-.154-1.18-.833-.111-.415-.315-.718-.638-.988-.606-.502-.886-1.157-.693-1.941.133-.537-.052-.85-.505-1.126-1.145-.696-1.716-1.751-1.757-3.085-.02-.681-.16-1.2-.842-1.588-.887-.506-1.182-1.448-1.171-2.431.006-.595-.124-.947-.742-1.13-.772-.229-1.202-.776-1.131-1.638.033-.399-.165-.623-.52-.81-.986-.524-1.314-1.227-1.163-2.333.089-.647.098-.67-.473-.92-.773-.338-1.152-.925-1.218-1.75-.019-.241-.07-.48-.09-.721-.028-.327-.181-.57-.475-.698-.989-.432-1.288-1.24-1.189-2.238.045-.45-.085-.689-.522-.848-.842-.31-.924-.61-.453-1.378.068-.11.17-.2.343-.4.199.301.385.542.529.806 1.166 2.154 2.284 4.335 3.494 6.462 2.263 3.976 4.584 7.919 6.87 11.881 1.373 2.378 2.726 4.768 4.085 7.153.063.111.104.235.187.422-.29.053-.516.12-.746.132M23.43 79.68l-1.114-2.172 15.607-9.988c.65.482.75 1.32 1.318 1.945-.284.22-.447.358-.62.48-2.946 2.068-5.878 4.156-8.845 6.193-1.483 1.017-3.022 1.953-4.55 2.901-.519.322-1.06.636-1.796.641m-.083-6.295c3.828-2.427 7.743-4.408 11.66-6.336l.919.927c-.144.113-.278.239-.43.337-3.221 2.087-6.443 4.17-9.666 6.254-.158.102-.33.183-.48.295-.264.197-.512.16-.72-.059-.417-.44-.815-.899-1.283-1.418m-1.439-.859c-1.301-1.946-2.222-4.037-2.407-6.41-.025-.326-.126-.646-.205-1.034-.466.245-.45.554-.4.882.123.793.241 1.586.37 2.444h-2.745c-.088-.31-.183-.61-.255-.917-.055-.235-.045-.492-.133-.712-.057-.142-.239-.234-.365-.349-.073.149-.222.306-.206.444.06.526.172 1.046.276 1.635-.5.088-.94.161-1.38.245-.39.075-.547-.143-.594-.478-.044-.32-.06-.642-.095-.963-.034-.304-.118-.569-.55-.593-.132.703.026 1.352.111 2.034-.157.07-.295.179-.442.193-1.836.176-3.671.404-5.513.478-1.004.04-2.042-.09-2.972-.572-1.523-.791-2.415-2.082-2.816-3.722-.159-.649-.22-1.32-.325-1.969.85-.67 26.455-11.671 27.657-11.88.444 1.729.857 3.472 1.342 5.194.498 1.765 1.255 3.437 2.135 5.037.863 1.57 1.854 3.07 2.832 4.672-.842.449-1.663.886-2.482 1.325-2.645 1.415-5.292 2.826-7.932 4.253-.587.316-1.136.703-1.718 1.029-.65.363-.79.33-1.188-.266M.782 62.54c-.332-1.211-.087-1.6 1.01-1.867.32-.076.648-.261.887-.487.617-.583 1.305-.727 2.07-.43.428.166.716.059.976-.282.885-1.163 2.064-1.653 3.508-1.526.58.05 1.045-.028 1.45-.585.64-.88 1.638-1.061 2.67-.976.715.06.825.068 1.084-.506.374-.83.98-1.173 1.863-1.036.37.057.588-.099.794-.401.668-.98 1.224-1.175 2.406-.904.633.144.682.12 1.025-.427.398-.638.958-.998 1.727-.986.215.004.431-.01.644.009.44.039.762-.093 1.008-.497.496-.812 1.268-1.003 2.158-.87.235.034.472.054.732.084.78-1.393 1.15-1.463 2.031-.364-.416.204-.803.418-1.209.588-3.43 1.438-6.873 2.843-10.292 4.307-3.417 1.462-6.808 2.987-10.214 4.475-1.787.781-3.582 1.544-5.376 2.31-.31.133-.63.247-.952.371M66.76 74.596c.092-.127.321-.25.463-.228 1.398.227 2.804.435 4.092 1.083.04.02.06.084.088.126-1.033 2.405-4.898 3.668-6.856 2.163.733-1.048 1.462-2.104 2.213-3.144m-5.039-24.383c-.02.13-.063.256-.119.472l-1.374.103c-.145-.884 1.006-12.271 1.302-13.035.552.008.51.436.53.79.048.832.08 1.665.11 2.498.114 3.07.027 6.131-.449 9.172m-2.046-1.07c-.798-.088-1.487-.139-2.168-.246-.795-.124-1.58-.308-2.372-.448-2.374-.418-4.386-1.534-6.164-3.14-2.177-1.965-4.35-3.937-6.572-5.85-2.692-2.316-5.427-4.581-8.158-6.85-.573-.477-1.04-1.089-1.761-1.387-.33-.136-.624-.232-1-.153-.867.18-1.743.318-2.621.434-2.188.288-4.2 1.081-6.145 2.091-.391.204-.776.467-1.241.462l-.098-.158c.115-.132.22-.277.348-.395 1.021-.938 2.234-1.584 3.44-2.235.778-.42 1.585-.79 2.379-1.185.12-.06.263-.107.341-.204.07-.085.123-.264.08-.343-.048-.086-.213-.114-.333-.148-.04-.011-.098.036-.147.058-2.214 1.04-4.43 2.075-6.298 3.707-.101.089-.236.169-.285.282-.34.796-1.163.836-1.766 1.281-.265-.492-.004-.788.234-1 .538-.481 1.087-.975 1.704-1.338 1.76-1.035 3.556-2.006 5.334-3.01.233-.13.683-.195.461-.59-.166-.295-.485-.058-.709.067-1.9 1.058-3.816 2.093-5.687 3.201-.918.544-1.806 1.178-2.177 2.27-.374-.075-.457-.282-.259-.523.323-.393.658-.793 1.052-1.107.63-.502 1.294-.966 1.976-1.391 1.46-.91 2.942-1.784 4.414-2.674.115-.07.255-.12.333-.22.07-.091.137-.3.093-.343-.091-.09-.292-.184-.385-.141-.412.192-.81.42-1.2.656-1.56.951-3.115 1.91-4.675 2.865-.06.037-.137.045-.286-.024.3-.276.565-.607.903-.82 1.84-1.16 3.69-2.303 5.556-3.423.735-.442 1.52-.802 2.276-1.211.643-.349 1.3-.63 2.043-.698.18-.016.46-.15.495-.284.078-.297-.211-.432-.444-.457-1.065-.118-2.132-.218-3.2-.293-.453-.032-.911.019-1.367.021-.603.003-1.159-.122-1.604-.7.149-.087.281-.213.434-.246 1.496-.323 2.99-.652 4.493-.935.858-.162 1.707-.075 2.523.289 1.055.47 2.12.916 3.185 1.365 1.103.465 2.01 1.21 2.903 1.987.378.329.858.538 1.27.831 3.862 2.736 7.712 5.489 11.582 8.213 1.582 1.115 3.21 2.164 4.808 3.258 1.288.883 2.701 1.123 4.221.915.343-.047.693-.038 1.147-.06.042 3.363-.767 6.589-.906 9.977M125.46 1.22l.164.05c-.233.722-.112 1.553-.8 2.14l.636-2.19m3.168 5.878c-.002-.237-.05-.49-.147-.704-.19-.42-.618-.464-.892-.091-.14.19-.259.424-.3.654-.184 1.031-.343 2.068-.5 3.104-.082.537-.142 1.078-.212 1.617l-.197-.015c-.012-1.153-.109-2.313-.015-3.457.119-1.446.402-2.878.596-4.319.1-.745.174-1.494.228-2.244.014-.2-.024-.48-.152-.593-.148-.132-.422-.121-.65-.175-.022-.098-.052-.202-.067-.307-.045-.302-.207-.471-.508-.548-.35-.09-.493.143-.631.371-.138.229-.28.467-.35.72-.283 1.01-.609 2.016-.79 3.046-.416 2.36-.772 4.732-1.12 7.103-.218 1.498-.696 2.832-1.773 3.966-1.722 1.814-3.366 3.705-5.028 5.575-3.2 3.6-5.958 6.728-9.135 10.303-.863-.764-2.33-.588-2.897.492-.184.35-.43.437-.76.476-.72.086-1.442.158-2.157.275-2.754.451-5.51.899-8.257 1.388-1.135.202-2.253.502-3.377.762-.374.087-.564.258-.575.72-.027 1.056-.283 2.08-.744 3.038-.627 1.302-1.73 1.699-3.082 1.192-1.226-.46-2.144-1.317-3.02-2.236-.742-.78-1.454-1.588-2.185-2.379-.456-.494-1.01-.64-1.674-.51-1 .195-2.01.351-3.016.519-2.568.429-5.146.808-7.702 1.301-1.232.238-2.42.705-3.636 1.037-.601.164-1.163.365-1.844.008-.713-.374-1.134-.03-1.27.786-.03.181-.066.36-.103.561-.703.059-1.366.121-2.032.17-1.11.08-2.12-.195-3.046-.83-1.662-1.14-3.35-2.246-5.007-3.394-2.52-1.745-5.028-3.506-7.53-5.276-1.494-1.056-3.015-2.08-4.431-3.235-1.218-.992-2.468-1.901-3.901-2.539-1.153-.512-2.312-1.015-3.49-1.467-.44-.169-.945-.267-1.413-.244-.772.036-1.542.17-2.305.31-1.109.203-2.21.446-3.314.676-.42.088-.763.273-.828.756-.057.431.198.904.639 1.115.214.103.456.188.689.2.802.044 1.607.08 2.41.065.636-.013.728-.033 1.278.234-.201.117-.382.225-.567.328-2.04 1.14-4.088 2.267-6.12 3.424-1.126.64-2.15 1.426-3.031 2.387-.295.322-.554.643-.51 1.138.016.177-.137.383-.246.554-.144.226-.348.416-.478.648-.338.608-.104 1.1.575 1.276.17.045.372.08.489.192.329.316.664.302 1.033.113l1.309-.67c.406.352.835.275 1.273.063.484-.234.99-.426 1.457-.688 2.45-1.373 5.155-1.782 7.876-2.14.402-.052.737.044 1.046.3.6.498 1.213.98 1.811 1.478 2.418 2.016 4.857 4.007 7.24 6.063 2.363 2.038 4.678 4.134 6.995 6.224 1.86 1.677 3.96 2.86 6.442 3.292 1.322.229 2.648.438 3.971.66.2.033.397.089.603.137 0 .309-.01.55.002.79.037.692.202.832.911.783.16-.01.32-.046.48-.061.82-.078 1.641-.218 2.462-.217 1.476.002 2.951.086 4.427.143.148.005.295.062.413.089-.163 1.304-.323 2.557-.474 3.812-.026.213-.078.449-.016.64.316.98-.109 1.507-.935 2.012-1.488.908-1.758 1.973-1.128 3.598.224.577.422 1.165.605 1.756.062.199.123.46.046.63-.422.918-.103 1.785.075 2.684.122.62.198 1.306.064 1.91-.271 1.233-.655 2.445-1.073 3.637-.484 1.376-.522 1.364.748 2.187-.118.195-.206.36-.31.514-.543.802-1.117 1.585-1.63 2.407-3.625 5.804-7.231 11.619-10.135 17.836-.082.176-.214.33-.361.552-.17-.264-.294-.437-.4-.621-1.052-1.818-2.133-3.62-3.144-5.46-2.035-3.707-4.047-7.425-6.034-11.156-.785-1.473-1.516-2.978-2.199-4.501-.675-1.507-1.706-2.833-2.129-4.476-.16-.625-.651-1.168-1.006-1.739-.569-.913-.71-.94-1.634-.373-.557.34-.832.305-1.253-.176-.087-.1-.147-.221-.247-.374.423-.307.265-.636.045-.964-.482-.71-1.011-1.395-1.438-2.138-.747-1.3-1.501-2.605-2.123-3.969-.621-1.364-1.17-2.776-1.593-4.213-.476-1.62-.776-3.29-1.152-4.94-.18-.794-.775-1.128-1.482-1.297-.618-.148-1.009.22-1.323.698-.07.108-.144.215-.224.334-1.33-.155-2.47.132-3.21 1.348h-.75c-.963.007-1.795.29-2.35 1.14-.201.311-.46.266-.774.214-1.028-.169-1.916.115-2.559.968-.245.326-.56.34-.91.402-.434.078-.911.182-1.257.432-.37.27-.61.722-.952 1.15-.187-.012-.452-.04-.717-.044-1.005-.012-1.945.256-2.593 1.035-.392.472-.784.539-1.322.524-1.47-.043-2.742.414-3.683 1.615-.079.1-.199.17-.31.261-.937-.355-1.831-.277-2.58.365-.41.35-.84.518-1.344.64-.892.216-1.41 1.545-.886 2.294.371.53.542 1.102.596 1.721.077.896.303 1.75.737 2.532.872 1.574 2.086 2.704 3.931 3.025 1.655.289 3.305.27 4.961.034 1.002-.142 2.006-.272 2.874-.39.673.46.716 1.43 1.635 1.432.108-.677-.735-.855-.607-1.53l1.783-.25c.235.258.412.501.638.682.112.09.315.064.476.09-.008-.164-.002-.33-.029-.49-.018-.112-.08-.216-.172-.448.805.065 1.499.085 2.177.2.203.034.447.302.526.518.459 1.246 1.176 2.343 1.856 3.467.311.515.639.844 1.225.614l1.482 1.733c-.738.44-1.384.817-2.021 1.208-.494.303-.626.694-.394 1.229.203.47.443.923.675 1.379.54 1.065.541 1.063 1.707.894.047-.006.1.032.177.058.139.236.291.49.439.745.899 1.564 1.745 3.163 2.705 4.688 3.805 6.04 7.523 12.13 10.877 18.438 2.38 4.475 4.925 8.853 7.735 13.07.652.978 1.453 1.865 2.236 2.747.907 1.022 2.116 1.337 3.433 1.266.506-.027 1.015-.116 1.51-.225 2.137-.47 3.968-1.52 5.45-3.115 2.4-2.582 4.77-5.195 7.11-7.832 3.164-3.566 6.394-7.067 9.864-10.337.186-.175.387-.332.634-.542.665 1.56 1.3 3.012 1.905 4.477 2.308 5.587 4.813 11.07 8.288 16.05.06.083.09.186.15.315-.204.16-.385.311-.577.447-2.306 1.63-4.61 3.263-6.922 4.885-3.456 2.425-6.913 4.85-10.378 7.26-.633.44-1.312.813-1.97 1.216l-.615-.709c-1.038.6-2.075 1.086-3.015 1.782l1.69 2.98c-1.059.98-2.245 1.614-3.398 2.297-.045.026-.108.073-.144.06-.702-.276-1.028.308-1.417.66-2.655 2.4-5.57 4.404-8.872 5.785-1.631.682-3.331 1.2-4.998 1.8-.667.239-1.154.95-1.155 1.69 0 .667.419 1.011.987 1.23.07.027.129.088.214.148l.032.472c.066.997.418 1.846 1.325 2.35.321.177.377.44.404.73.107 1.18.554 2.135 1.711 2.617 0 .181.003.314 0 .446-.034 1.136.341 2.067 1.356 2.654.305.176.357.423.38.735.063.832.513 1.445 1.262 1.73.514.194.611.488.627.965.026.772.27 1.492.789 2.074.35.393.89.664 1.113 1.108.227.452.124 1.06.244 1.58.281 1.217 1.02 2.112 2.065 2.714 0 .319.008.587 0 .854-.024.717.225 1.347.74 1.812.38.341.589.724.753 1.193.336.957 1.722 1.304 2.468.631.437-.395.96-.554 1.497-.72.613-.187 1.257-.339 1.81-.644 2.021-1.115 3.282-2.734 3.235-5.177-.023-1.162-.031-2.316-.333-3.451-.25-.936-.401-1.9-.689-2.824-.242-.781-.243-1.397.567-1.821.155-.082.29-.256.367-.42.069-.146.046-.337.064-.509l-.137-.098-1.271 1.023-.47-1.93c.248-.293.46-.505.619-.751.067-.105.02-.284.026-.43-.148 0-.305-.032-.44.008-.129.039-.235.154-.453.308-.054-.913-.1-1.708-.147-2.48.267-.157.46-.252.634-.376 1.113-.794 2.236-1.576 3.325-2.403.5-.378.486-.557.15-1.092-.106-.169-.21-.34-.315-.51l-.035-.197c.491.257.761.128.901-.28.028-.08.164-.13.256-.183.555-.32 1.112-.635 1.702-.971.1.122.231.256.333.41.475.72.937 1.446 1.413 2.165.417.631.704.678 1.311.221.344-.258.667-.546 1.022-.787.312-.211.412-.474.338-.83-.032-.154-.042-.312-.064-.48.202-.137.371-.266.554-.375 4.426-2.653 8.849-5.314 13.284-7.953 2.956-1.76 5.957-3.447 8.887-5.248 1.578-.969 3.105-2.039 4.554-3.192 1.937-1.543 3.38-3.489 3.875-5.98.24-1.21.374-2.456.396-3.689.03-1.615-.075-3.235-.163-4.85-.119-2.185-.395-4.35-.998-6.46-1.149-4.016-2.428-7.99-3.869-11.912-1.318-3.589-2.607-7.19-3.878-10.797-.934-2.646-1.214-5.393-1.103-8.264.546-.17 1.137-.332 1.711-.54 1.022-.37 1.168-.622 1.028-1.685-.381-2.891-.665-5.789-.437-8.709.18-2.31.29-4.634.633-6.92.53-3.517 1.349-6.99 1.403-10.57.024-1.588.061-3.18-.003-4.765-.02-.507.1-.786.47-1.081 1.24-.99 2.46-2.003 3.677-3.02.572-.48 1.119-.99 1.706-1.511.666.775 1.382.613 2.113.175.162-.097.326-.19.484-.291.51-.329.782-.836.582-1.384-.12-.327-.104-.577-.014-.791 1.853-2.64 4.193-5.878 6.044-8.52 2.519-3.593 5.035-7.189 7.55-10.785.43-.616.86-1.234 1.268-1.864.306-.473.577-.97.868-1.452.611-1.017 1.306-2.022 1.321-3.256.034-2.723.005-5.446-.01-8.168" transform="matrix(-1 0 0 1 234.47 63.41)"></path>
      <path d="M75.17 25.958c-.39.587.079.776-.208 1.613-.058.17-.151.303-.266.416.006-.119-.001-.255-.01-.404-.025-.475-.056-1.067.261-1.658.192-.356.577-.56 1.14-.622-.356.103-.68.298-.916.655zM71.877 29.4c-.365.412-.557.897-.568 1.372-.055-.464-.032-1.112.373-1.636.48-.623 1.38-.642 2.045-.65-.638.203-1.368.37-1.85.914zm-.136 3.14c-.495-.287-.365-.912-.317-1.09.134.357.382.682.755.93.223.148.46.275.69.413.176.106.266.232.294.407-.184-.137-.456-.245-.74-.356-.237-.093-.482-.189-.682-.305zM88.96 19.643c-.248-1.061-.98-1.778-2.065-1.668-.586.06-1.34-.07-1.914-.118-1.692-.144-2.934.711-4.081 1.934-.472.503-.765 1.08-.883 1.774-.104.61-.172 1.149-.153 1.702-.152-.027-.229-.03-.299-.054-.975-.324-1.718.227-1.68 1.259.012.363.104.684.266.959l-.118-.026c-.23-.052-.445-.093-.65-.126-.224-.049-.453-.08-.694-.071-.934-.046-1.547.176-1.816.676-.33.612-.296 1.242-.27 1.703.01.193.018.358 0 .485-.17.138-.384.237-.616.323l-.241.004c-.684.01-1.621.022-2.132.684-.698.905-.31 2.157-.26 2.303-.037.115-.25.883.343 1.225.205.12.454.217.694.31.312.123.61.24.777.392.001.047.003.091-.004.145-.112.914.391 1.55 1.3 1.701.288.049.587.049.88.045.75-.012 1.498-.057 2.248-.053.247.002.46-.046.64-.138.006.146.018.295.018.448.528-.019.508-.348.567-.626.56-2.608.988-5.237 1.224-7.895.074-.831.064-.856-.731-1.27-.613-.319-.968-1.003-.75-1.526.074-.178.257-.398.42-.426.144-.025.346.17.492.302.083.075.436.447.632.6.074.199.156.361.266.715.229-.354 2.07-3.766 3.949-4.938.631-.395 1.082-.812 1.702-1.259.433.394.438.65 1.197 1.621.325.387.757.71 1.165 1.1-.01.211-.024.422-.043.632-.203 2.203-.49 4.393-1.48 6.415-.456.93-.934 1.138-1.95.824-.746-.232-1.458-.538-2.062-1.059-.172-.15-.39-.4-.606-.112-.198.263.055.455.243.594.322.238.652.477 1.007.658.891.453 1.82.782 2.836.593.092.273.17.473.23.678.354 1.242.698 2.488 1.063 3.727.09.308.07.713.706.873-.049-.37-.053-.629-.12-.872-.369-1.35-.76-2.693-1.126-4.043-.08-.295-.25-.582-.036-.923.844-1.344 1.246-2.849 1.534-4.393.18-.97.322-1.942.395-2.92l.001.004c.143-.985.172-2.089-.015-2.892z" transform="matrix(-1 0 0 1 234.47 63.41)"></path>
      <g>
        <path d="M3.636 1.535L4.149 3.574 3.401 3.649z" transform="matrix(-1 0 0 1 234.47 63.41) translate(82.286 20.91)"></path>
        <g>
          <path d="M3.715 1.543l-.308 2.09.98-.074-.672-2.016zm-.313 2.098l-.003-.001-.002-.003.311-2.114c0-.002.003-.003.005-.003s.004.001.005.003l.679 2.038v.003l-.004.002-.99.075h-.001zM1.94 2.847c-.134.009-.263-.016-.385-.062.014.002.029.002.043.002.166 0 .327-.082.454-.232.105-.124.172-.28.185-.429l.783-.009c-.154.219-.547.695-1.08.73M.741 2.143l.22-.003c.015.135.075.276.166.392-.17-.138-.305-.29-.386-.39m2.471-.133c-.012-.023-.035-.036-.062-.036L.6 2.001c-.026 0-.05.015-.062.039-.012.023-.011.051.004.073.006.01.16.234.407.454.312.28.636.425.94.425.02 0 .04 0 .06-.002.32-.021.64-.186.927-.476.214-.217.334-.425.339-.434.013-.022.013-.05 0-.071" transform="matrix(-1 0 0 1 234.47 63.41) translate(82.286 20.91) translate(0 .012)"></path>
          <path d="M5.074 2.8c-.66.018-.964-.45-1.07-.67l.138.001c.016.144.07.275.159.374.104.118.247.183.4.183.282 0 .517-.237.564-.547l.666.006c-.13.215-.44.644-.857.654m1.048-.777c-.013-.024-.036-.04-.061-.04l-2.17-.019c-.024 0-.046.013-.06.035-.013.022-.016.05-.008.076.003.009.077.233.268.455.173.2.477.434.95.434h.036c.637-.015 1.03-.825 1.046-.86.012-.025.011-.056-.001-.08M3.135.603s.094.61-.044.741c-.676 0-1.39-.58-2.13-.515-.386.034-.877.52-.957.694 0-.35.403-.971.876-1.113.88-.263 2.255.193 2.255.193" transform="matrix(-1 0 0 1 234.47 63.41) translate(82.286 20.91) translate(0 .012)"></path>
          <path d="M1.524.333c-.223 0-.445.022-.643.08C.668.478.444.652.267.89c-.156.211-.254.446-.26.618C.11 1.313.592.858.96.825c.398-.035.79.117 1.17.264.333.13.647.251.96.251.13-.126.048-.694.042-.734-.03-.01-.365-.117-.795-.194-.234-.042-.523-.08-.813-.08M.004 1.528H.003C0 1.527 0 1.525 0 1.523c0-.174.1-.418.262-.637.177-.24.402-.415.617-.48.252-.074.709-.136 1.46-.001.448.08.794.194.797.195l.003.003c.004.025.093.613-.046.744h-.002c-.314 0-.63-.122-.964-.251C1.749.949 1.357.797.96.832c-.375.033-.87.509-.954.693l-.003.002M3.807.563s-.022.442.003.683c.007.064.065.11.129.102.603-.07 1.66-.211 2.25-.044-.257-.598-2.382-.74-2.382-.74" transform="matrix(-1 0 0 1 234.47 63.41) translate(82.286 20.91) translate(0 .012)"></path>
          <path d="M3.81.569c-.002.054-.02.57.004.856.003.037.018.071.041.094.024.025.053.035.083.031l.11-.017c.63-.094 1.578-.236 2.134-.041-.138-.383-.772-.613-1.281-.739C4.368.621 3.858.573 3.81.569m.114.99c-.027 0-.053-.01-.074-.032-.025-.025-.04-.062-.044-.101-.025-.3-.004-.856-.004-.862L3.804.56h.003c.005 0 .538.046 1.095.184.327.081.6.178.807.286.262.137.424.294.483.467v.005h-.004c-.554-.197-1.508-.054-2.138.04l-.11.017h-.015M2.43 4.153c.355.337.643.524 1.124.556.481.033.818-.144.818-.144s-.385.656-.85.778c-.962.252-.917-.505-1.092-1.19" transform="matrix(-1 0 0 1 234.47 63.41) translate(82.286 20.91) translate(0 .012)"></path>
          <path d="M2.436 4.164c.027.108.05.218.07.324.07.348.136.677.367.821.151.096.363.105.648.03.427-.112.79-.681.842-.765-.063.03-.38.167-.81.14-.483-.034-.767-.22-1.117-.55m.75 1.232c-.127 0-.231-.027-.317-.08-.233-.147-.3-.477-.37-.827-.021-.11-.044-.224-.073-.335 0-.002 0-.003.002-.004h.004c.353.335.637.523 1.122.556.475.032.813-.142.816-.144h.004c.002.002.002.003.001.005-.004.007-.39.658-.852.78-.126.032-.238.05-.338.05" transform="matrix(-1 0 0 1 234.47 63.41) translate(82.286 20.91) translate(0 .012)"></path>
        </g>
      </g>
    </g>
  </g>
</svg>
