<svg width="1729" height="887" viewBox="0 0 1729 887" fill="none" xmlns="http://www.w3.org/2000/svg"><g opacity="0.8"><mask id="mask0_543_8173" style="mask-type:alpha" maskUnits="userSpaceOnUse" x="0" y="0" width="1729" height="887"><rect width="1729" height="887" fill="#1A3DAA"/></mask><g mask="url(#mask0_543_8173)"><path d="M3 1023.8V889.353C814.597 819.503 1609.47 978.687 1729.46 42L1805.36 999.985L3 1023.8Z" fill="#193AA2"/><path d="M35.7431 1062.5C35.7431 1044.97 5.97656 955.336 5.97656 889.849C817.574 819.999 1678.85 1135.42 1762.2 80.6964L1838.11 1038.68L35.7431 1062.5Z" fill="#173697"/><path d="M81.3849 1135.92C81.3849 1118.39 9.94531 959.305 9.94531 893.818C827.036 928.546 1724.5 1208.85 1807.84 154.12L1883.75 1112.11L81.3849 1135.92Z" fill="#142F83"/><path d="M116.113 1229.19C116.113 1211.66 13.9146 965.754 13.9146 900.268C861.764 1027.77 1842.57 1260.94 1842.57 247.389L1918.47 1205.37L116.113 1229.19Z" fill="#153188"/></g></g></svg>