<?xml version="1.0" encoding="UTF-8"?>
<svg xmlns="http://www.w3.org/2000/svg" width="41" height="48" viewBox="0 0 41 48">
  <g fill="none">
    <path fill="#083EB1" d="M37.4 22.15c-.199-.35-.3-.75-.35-1.15-.65-7.199-6.3-12.949-13.5-13.65.151 1.5-.448 3-1.599 4l-2.55 2.15.8 3.25c.35 1.4 0 2.85-.9 4-.9 1.1-2.25 1.8-3.7 1.8-.849 0-1.699-.198-2.449-.65l-2.85-1.75-2.8 1.75c-.1.1-.25.15-.4.2v.25c0 4.949 1.772 7.436 4.05 9.9.45.4.7.9.7 1.5v8.6c0 .699.55 1.25 1.199 1.3L28 47.75c.8.05 1.45-.55 1.45-1.3v-6.1c0-.4.349-.7.698-.7h4.5c1.4 0 2.5-1.15 2.5-2.5l.002-6.099c0-.25.2-.5.5-.5h1.352c1.35.049 2.229-1.336 1.479-2.435L37.4 22.15z"></path>
    <path fill="#FDCD2D" d="M11.15 16.75l3.801 2.3c1.051.651 2.4-.3 2.1-1.5L16 13.25c-.1-.5.05-1.05.448-1.4l3.4-2.9c.95-.802.45-2.35-.8-2.45l-4.45-.35c-.5-.05-1-.35-1.198-.85l-1.7-4.099c-.5-1.15-2.1-1.15-2.6 0l-1.698 4.1c-.2.5-.65.8-1.2.85L1.754 6.5C.5 6.55 0 8.1.95 8.9l3.4 2.9c.401.35.552.901.45 1.401l-1.05 4.35c-.302 1.199 1.05 2.15 2.099 1.5l3.8-2.301c.503-.25 1.051-.25 1.503 0z"></path>
  </g>
</svg>
