<?xml version="1.0" encoding="UTF-8"?>
<svg xmlns="http://www.w3.org/2000/svg" width="50" height="33" viewBox="0 0 50 33">
  <g fill="none" fill-rule="evenodd">
    <g>
      <g>
        <g>
          <g>
            <g>
              <path fill="#083EB1" d="M49.922 23.363V6.197c.031-1.346-1.03-2.465-2.376-2.502h-2.639c-.9.005-1.718.52-2.112 1.33-3.695-.607-8.034-2.74-8.097-2.771-2.555-1.22-4.191-1.826-4.26-1.853-.06-.024-.121-.04-.185-.053C29.08.13 27.89.013 26.696 0c-2.745 0-3.917.765-4.223 1.014l-7.675 5.653c-.832.393-1.42 1.164-1.584 2.07-.063.749.203 1.488.734 2.021 1.045.971 2.444 1.47 3.87 1.383.71.003 1.42-.08 2.11-.237.988-.243 3.279-1.954 4.751-3.104L38.6 24.583c.386.417.927.654 1.494.654.132 0 .267-.013.396-.042l2.381-.528c.41.74 1.182 1.204 2.027 1.214h2.64c.651-.016 1.269-.29 1.718-.762.446-.473.689-1.104.667-1.756zm-2.112 0c0 .227-.137.391-.264.391h-2.64c-.126 0-.263-.169-.263-.39V6.196c0-.222.137-.39.264-.39h2.64c.126 0 .263.168.263.39v17.166z" transform="translate(-1168 -87) translate(0 56) translate(179 16) translate(944) translate(45 15)"></path>
              <path fill="#FDCD2D" d="M37.839 26.81c-.175-.129-.333-.276-.476-.437l-1.013-1.151c-.069.16-.172.306-.3.422-.17.185-.405.296-.655.306-.447-.058-.864-.24-1.21-.528l-4.945-5.278c-.399-.428-1.067-.452-1.494-.053-.428.398-.452 1.066-.053 1.494l4.017 4.307c.385.298.586.779.528 1.262-.027.311-.164.604-.385.823-.507.428-1.26.394-1.721-.084l-.729-.802c-.042-.088-.097-.167-.163-.238l-4.894-5.21c-.398-.425-1.069-.446-1.494-.048-.425.399-.446 1.07-.047 1.494l4.587 4.888c.092.412-.042.84-.354 1.125-.501.433-1.253.404-1.72-.069L19.051 22.7c-.415-.412-1.082-.41-1.494.005-.412.414-.41 1.082.005 1.494l4.91 4.872.063.048c.126.43-.008.894-.343 1.193-.172.184-.412.295-.666.306-.438-.058-.847-.24-1.182-.528l-11.249-8.79c-.184-.145-.414-.226-.649-.226H7.391V7.39h3.996c.351-.847.93-1.578 1.674-2.111H7.354C7.2 4.096 6.21 3.202 5.016 3.167h-2.64C1.02 3.215-.04 4.35.002 5.707v17.092c-.042 1.356 1.024 2.494 2.38 2.539h2.64c1.204-.037 2.201-.95 2.339-2.149h.723l10.969 8.6c.7.567 1.56.897 2.46.94.773-.009 1.515-.312 2.074-.845.306-.272.557-.6.74-.966 1.269.879 2.974.776 4.127-.254.277-.248.51-.54.686-.865 1.265.881 2.967.784 4.123-.238.504-.449.858-1.042 1.014-1.7.359.135.741.204 1.124.206.768-.01 1.504-.314 2.059-.844.137-.127.264-.264.38-.412z" transform="translate(-1168 -87) translate(0 56) translate(179 16) translate(944) translate(45 15)"></path>
            </g>
          </g>
        </g>
      </g>
    </g>
  </g>
</svg>
