<svg xmlns="http://www.w3.org/2000/svg" width="23" height="24" viewBox="0 0 23 24">
    <g fill="none" fill-rule="evenodd">
        <g fill="#000" fill-rule="nonzero">
            <g>
                <path d="M2.672 18.631l2.288.593-.89.71c.929 1.02 2.037 1.836 3.302 2.426 4.22 1.966 9.16.591 11.75-3.269l.621.417c-2.795 4.169-8.131 5.653-12.687 3.53-1.371-.64-2.57-1.527-3.572-2.636l-.74.592-.072-2.363zm2.421-8.647c1.929-4.134 6.862-5.93 10.996-4.002 2.233 1.04 3.91 2.892 4.729 5.144.183.503.321 1.025.416 1.564l1.118-.09-1.286 2.069-1.496-1.845.915-.074c-.493-2.677-2.225-4.931-4.711-6.09-3.761-1.753-8.248-.12-10.002 3.64-.76 1.63-.84 3.459-.226 5.149.615 1.69 1.852 3.04 3.482 3.8 3.011 1.402 6.603.095 8.008-2.915.607-1.304.671-2.765.18-4.116-.492-1.351-1.48-2.43-2.784-3.037l.316-.678c1.485.692 2.61 1.92 3.17 3.459.56 1.539.488 3.204-.204 4.688-1.58 3.384-5.617 4.854-9.002 3.276-1.812-.844-3.186-2.343-3.87-4.221-.683-1.878-.594-3.91.251-5.721zm14.975 5.899c.777-.283 1.636.118 1.918.894.283.777-.118 1.636-.894 1.919-.777.282-1.636-.118-1.918-.895-.283-.777.117-1.635.894-1.918zM.985 14.866c.777-.283 1.636.118 1.918.894.283.777-.118 1.636-.894 1.918-.777.283-1.636-.117-1.918-.894-.283-.777.117-1.636.894-1.918zm11.203-1.604l-.13 2.708c-.015.167-.173.313-.365.347l-.085.007h-.424c-.207 0-.383-.12-.435-.277l-.014-.07-.155-2.701h.326l.147 2.68c0 .042.033.075.076.089l.047.007h.424c.05 0 .093-.027.113-.063l.01-.039.146-2.688h.319zM12.94 0l1.852 1.463-1.937 1.24.03-.972c-4.524.004-8.652 2.617-10.571 6.73-.811 1.74-1.13 3.66-.921 5.555l-.744.081c-.224-2.031.118-4.09.986-5.952C3.681 3.76 8.085.977 12.91.983l.03-.983zm-.567 11.578c.217 0 .393.16.43.36l.007.077v.698h.68v.243h-1.016v-.94c0-.043-.024-.086-.06-.104l-.04-.01h-1.972c-.044 0-.084.032-.1.072l-.01.041v.94h-1.09v-.242h.755v-.698c0-.208.16-.392.365-.43l.08-.007h1.971zm-1.027-1.685c.382 0 .689.308.689.69 0 .381-.307.689-.69.689-.381 0-.697-.308-.688-.69 0-.381.307-.689.689-.689zm0 .324c-.208 0-.366.166-.366.365 0 .2.166.366.366.366.199 0 .365-.166.365-.366 0-.199-.166-.365-.365-.365zM17.335.554c.777-.283 1.635.118 1.918.894.283.777-.118 1.636-.894 1.918-.777.283-1.636-.117-1.919-.894-.282-.777.118-1.635.895-1.918z" transform="translate(-465 -5635) translate(465 5635)"/>
            </g>
        </g>
    </g>
</svg>
