<?xml version="1.0" encoding="UTF-8"?>
<svg xmlns="http://www.w3.org/2000/svg" xmlns:xlink="http://www.w3.org/1999/xlink" width="211px" height="57px" viewBox="0 0 211 57" version="1.1">
  <title>Group 7</title>
  <g id="Page-1" stroke="none" stroke-width="1" fill="none" fill-rule="evenodd">
    <g id="Group-7" transform="translate(0.700000, 0.000000)" fill="#0033A0" fill-rule="nonzero">
      <g id="Group-5">
        <path d="M38,23.6 L19.9,23.6 C20.2,22.9 21.4,21 24,21 L44.3,21 L53.2,12.3 L54.9,21 L78.7,21 C78.4,21.7 77.2,23.6 74.6,23.6 L57.7,23.6 L55.6,24.5 L57.7,35.3 L46.6,29.6 L31.3,33.8 L40.2,25.1 L38,23.6 L38,23.6 Z M79.8,21.1 L83.8,21.1 C86.1,21.1 88.9,19.3 90,17 L98.6,0 L97.4,0 C97.4,0 96.4,2.9 93.2,2.8 L33.5,2.8 C31.2,2.8 28.4,4.6 27.3,6.9 L18.8,23.6 L14.8,23.6 C12.5,23.6 9.7,25.4 8.6,27.7 L0,44.6 L1.2,44.6 C1.2,44.6 2.2,41.7 5.4,41.8 L65.1,41.9 C67.4,41.9 70.2,40.1 71.3,37.8 L79.8,21.1 L79.8,21.1 Z" id="Shape"></path>
        <g id="Group-2" transform="translate(99.300000, 1.000000)">
          <g id="Group">
            <path d="M11.5628571,6.35526316 L11.7257143,5.85789474 C12.16,4.69736842 12.0514286,3.70263158 11.1285714,3.70263158 C10.0971429,3.70263158 9.33714286,4.58684211 9.01142857,5.47105263 C7.6,9.39473684 16.1228571,7.46052632 13.4628571,14.7552632 C11.8885714,19.0105263 8.90285714,20.8894737 4.72285714,20.8894737 C0.76,20.8894737 -0.922857143,19.3973684 0.597142857,15.2526316 L0.868571429,14.5342105 L5.42857143,14.5342105 L5.26571429,15.0315789 C4.61428571,16.7447368 5.04857143,17.3526316 5.97142857,17.3526316 C6.94857143,17.3526316 7.81714286,16.5236842 8.19714286,15.4184211 C9.66285714,11.4947368 1.41142857,13.4289474 4.01714286,6.35526316 C5.48285714,2.32105263 8.30571429,0.110526316 12.3228571,0.110526316 C16.5028571,0.110526316 17.5885714,1.98947368 16.0142857,6.24473684 L11.5628571,6.24473684 L11.5628571,6.35526316 Z" id="Path"></path>
            <polygon id="Path" points="20.4657143 0.552631579 31.3771429 0.552631579 29.8028571 4.80789474 23.7228571 4.80789474 22.4742857 8.23421053 28.1742857 8.23421053 26.6542857 12.3236842 20.9542857 12.3236842 19.4885714 16.3026316 25.84 16.3026316 24.2657143 20.5578947 13.1371429 20.5578947"></polygon>
            <path d="M38.5971429,6.63157895 C39.4114286,4.36578947 39.3028571,3.70263158 38.38,3.70263158 C36.9142857,3.70263158 36.2085714,5.13947368 34.2542857,10.5552632 C32.3,15.9710526 31.92,17.4078947 33.3857143,17.4078947 C34.58,17.4078947 35.2314286,16.3026316 36.6428571,12.4894737 L41.2571429,12.4894737 L40.7142857,13.9815789 C38.5971429,19.5631579 35.1228571,20.9447368 32.0285714,20.9447368 C26.6542857,20.9447368 26.5457143,18.0157895 29.26,10.5552632 C32.0828571,2.92894737 34.6342857,0.165789474 39.6285714,0.165789474 C43.9714286,0.165789474 44.6771429,2.65263158 43.2657143,6.46578947 L42.8314286,7.73684211 L38.2171429,7.73684211 L38.5971429,6.63157895 Z" id="Path"></path>
            <path d="M52.0057143,0.552631579 L46.74,14.9210526 C46.0342857,16.8552632 46.4142857,17.3526316 47.2828571,17.3526316 C48.2057143,17.3526316 48.9114286,16.8552632 49.6171429,14.9210526 L54.8828571,0.552631579 L59.66,0.552631579 L54.8828571,13.65 C52.82,19.2315789 49.9971429,20.8894737 45.98,20.8894737 C41.9628571,20.8894737 40.3885714,19.2315789 42.3971429,13.65 L47.2285714,0.552631579 L52.0057143,0.552631579 Z" id="Path"></path>
            <path d="M61.8857143,0.552631579 L69.3771429,0.552631579 C73.0142857,0.552631579 73.6114286,2.76315789 72.4714286,5.85789474 C71.4942857,8.51052632 69.92,10.2236842 67.5857143,10.6105263 L67.5857143,10.6657895 C69.8114286,10.8868421 69.92,12.4894737 68.9428571,15.1421053 L68.2914286,16.8552632 C67.9114286,17.9052632 67.4228571,19.2315789 67.5314286,19.6184211 C67.5857143,19.8394737 67.5857143,20.0605263 67.8571429,20.2263158 L67.7485714,20.5026316 L62.6457143,20.5026316 C62.5914286,19.4526316 63.2428571,17.5184211 63.5685714,16.6894737 L64.0571429,15.3631579 C64.8714286,13.0973684 64.7085714,12.4894737 63.5142857,12.4894737 L62.2657143,12.4894737 L59.3342857,20.5026316 L54.5571429,20.5026316 L61.8857143,0.552631579 Z M63.5685714,9.00789474 L64.5457143,9.00789474 C65.9028571,9.00789474 66.88,8.06842105 67.4228571,6.63157895 C68.02,5.02894737 67.6942857,4.31052632 66.2285714,4.31052632 L65.3057143,4.31052632 L63.5685714,9.00789474 Z" id="Shape"></path>
            <polygon id="Path" points="76.5971429 0.552631579 81.3742857 0.552631579 74.0457143 20.5026316 69.2685714 20.5026316"></polygon>
            <polygon id="Path" points="84.4142857 4.97368421 80.8314286 4.97368421 82.46 0.552631579 94.4571429 0.552631579 92.8285714 4.97368421 89.2457143 4.97368421 83.5457143 20.5026316 78.7142857 20.5026316"></polygon>
          </g>
          <polygon id="Path" points="95.9158576 13.0994475 95.6407767 1 100.977346 1 100.20712 7.96132597 100.262136 7.96132597 104.66343 1 110 1 100.757282 13.0994475 97.8414239 21 93 21"></polygon>
        </g>
        <g id="Group-3" transform="translate(86.300000, 23.000000)">
          <g id="Group" transform="translate(0.000000, 1.000000)">
            <path d="M11.8779661,5.84210526 L12.040678,5.36842105 C12.4745763,4.26315789 12.3661017,3.31578947 11.4440678,3.31578947 C10.4135593,3.31578947 9.65423729,4.15789474 9.32881356,5 C7.86440678,8.73684211 16.4338983,6.89473684 13.7220339,13.8421053 C12.1491525,17.8947368 9.16610169,19.6842105 4.98983051,19.6842105 C1.03050847,19.6842105 -0.650847458,18.2631579 0.86779661,14.3157895 L1.13898305,13.6315789 L5.74915254,13.6315789 L5.58644068,14.1052632 C4.93559322,15.7368421 5.36949153,16.3157895 6.29152542,16.3157895 C7.26779661,16.3157895 8.13559322,15.5263158 8.51525424,14.4736842 C9.97966102,10.7368421 1.73559322,12.5789474 4.33898305,5.84210526 C5.80338983,2.10526316 8.62372881,0 12.6372881,0 C16.8135593,0 17.8983051,1.78947368 16.3254237,5.84210526 L11.8779661,5.84210526 Z" id="Path"></path>
            <polygon id="Path" points="20.6101695 0.368421053 31.5118644 0.368421053 29.9389831 4.42105263 23.8644068 4.42105263 22.6169492 7.68421053 28.3118644 7.68421053 26.7932203 11.5789474 21.0983051 11.5789474 19.6338983 15.3684211 25.979661 15.3684211 24.4067797 19.4210526 13.3423729 19.4210526"></polygon>
          </g>
          <g id="Group" transform="translate(26.000000, 1.000000)">
            <path d="M7.596875,0.378378378 L14.928125,0.378378378 C18.4875,0.378378378 19.071875,2.54054054 17.95625,5.56756757 C17,8.16216216 15.459375,9.83783784 13.175,10.2162162 L13.175,10.2702703 C15.353125,10.4864865 15.459375,12.0540541 14.503125,14.6486486 L13.865625,16.3243243 C13.49375,17.3513514 13.015625,18.6486486 13.121875,19.027027 C13.175,19.2432432 13.175,19.4594595 13.440625,19.6216216 L13.334375,19.8918919 L8.340625,19.8918919 C8.2875,18.8648649 8.925,16.972973 9.24375,16.1621622 L9.721875,14.8648649 C10.51875,12.6486486 10.359375,12.0540541 9.190625,12.0540541 L7.96875,12.0540541 L5.1,19.8918919 L0.425,19.8918919 L7.596875,0.378378378 Z M9.24375,8.64864865 L10.2,8.64864865 C11.528125,8.64864865 12.484375,7.72972973 13.015625,6.32432432 C13.6,4.75675676 13.28125,4.05405405 11.846875,4.05405405 L10.94375,4.05405405 L9.24375,8.64864865 Z" id="Shape"></path>
            <polygon id="Path" points="20.08125 0.378378378 25.075 0.378378378 21.56875 15.0810811 21.621875 15.0810811 28.9 0.378378378 33.89375 0.378378378 22.84375 19.8918919 16.7875 19.8918919"></polygon>
          </g>
          <g id="Group" transform="translate(53.000000, 0.000000)">
            <polygon id="Path" points="7.475 0.915384615 12.2416667 0.915384615 4.92916667 20.3538462 0.1625 20.3538462"></polygon>
            <path d="M19.4458333,6.83846154 C20.2583333,4.63076923 20.15,3.98461538 19.2291667,3.98461538 C17.7666667,3.98461538 17.0625,5.38461538 15.1125,10.6615385 C13.1625,15.9384615 12.7833333,17.3384615 14.2458333,17.3384615 C15.4375,17.3384615 16.0875,16.2615385 17.4958333,12.5461538 L22.1,12.5461538 L21.5583333,14 C19.5,19.4384615 16.0333333,20.7307692 12.9458333,20.7307692 C7.58333333,20.7307692 7.475,17.8769231 10.1833333,10.6076923 C13,3.17692308 15.5458333,0.484615385 20.5291667,0.484615385 C24.8625,0.484615385 25.5666667,2.90769231 24.1583333,6.62307692 L23.725,7.86153846 L19.1208333,7.86153846 L19.4458333,6.83846154 Z" id="Path"></path>
            <polygon id="Path" points="28.1125 0.915384615 39 0.915384615 37.4291667 5.06153846 31.3625 5.06153846 30.1166667 8.4 35.8041667 8.4 34.2875 12.3846154 28.6 12.3846154 27.1375 16.2615385 33.475 16.2615385 31.9041667 20.4076923 20.8 20.4076923"></polygon>
          </g>
        </g>
      </g>
      <g id="Group-6" transform="translate(0.300000, 49.000000)">
        <polygon id="Path" points="2.63157895 0.154798762 6.71826625 0.154798762 6.28482972 1.3003096 3.68421053 1.3003096 3.06501548 2.94117647 5.51083591 2.94117647 5.07739938 4.08668731 2.63157895 4.08668731 1.48606811 7.12074303 0 7.12074303"></polygon>
        <polygon id="Path" points="16.8111455 0.154798762 16.377709 1.3003096 13.74613 1.3003096 13.126935 2.94117647 15.6037152 2.94117647 15.1702786 4.08668731 12.6934985 4.08668731 12.0123839 5.9752322 14.7058824 5.9752322 14.2724458 7.12074303 10.0928793 7.12074303 12.7244582 0.154798762"></polygon>
        <polygon id="Path" points="38.2972136 0.154798762 37.8637771 1.3003096 35.2631579 1.3003096 34.6439628 2.94117647 37.0897833 2.94117647 36.6563467 4.08668731 34.2105263 4.08668731 33.498452 5.9752322 36.2229102 5.9752322 35.7894737 7.12074303 31.5789474 7.12074303 34.2105263 0.154798762"></polygon>
        <path d="M55.5108359,4.48916409 L56.9349845,4.48916409 L57.3993808,1.3622291 L57.3684211,1.3622291 L55.5108359,4.48916409 Z M56.9349845,0.154798762 L58.7616099,0.154798762 L58.0804954,7.12074303 L56.5325077,7.12074303 L56.749226,5.63467492 L54.7987616,5.63467492 L53.9009288,7.12074303 L52.3529412,7.12074303 L56.9349845,0.154798762 Z" id="Shape"></path>
        <polygon id="Path" points="63.9318885 7.12074303 66.5634675 0.154798762 68.0495356 0.154798762 65.8513932 5.9752322 68.4520124 5.9752322 68.0185759 7.12074303"></polygon>
        <polygon id="Path" points="110.402477 0.154798762 109.96904 1.3003096 107.368421 1.3003096 106.749226 2.94117647 109.226006 2.94117647 108.79257 4.08668731 106.315789 4.08668731 105.603715 5.9752322 108.328173 5.9752322 107.894737 7.12074303 103.71517 7.12074303 106.315789 0.154798762"></polygon>
        <polygon id="Path" points="125.263158 7.12074303 127.894737 0.154798762 129.380805 0.154798762 126.749226 7.12074303"></polygon>
        <polygon id="Path" points="140.092879 0.154798762 139.659443 1.3003096 138.049536 1.3003096 135.882353 7.12074303 134.396285 7.12074303 136.594427 1.3003096 134.98452 1.3003096 135.417957 0.154798762"></polygon>
        <polygon id="Path" points="166.408669 0.154798762 166.408669 4.92260062 166.439628 4.92260062 168.235294 0.154798762 169.566563 0.154798762 166.965944 7.12074303 165.263158 7.12074303 165.294118 2.22910217 165.294118 2.22910217 163.436533 7.12074303 162.105263 7.12074303 164.705882 0.154798762"></polygon>
        <polygon id="Path" points="173.405573 7.12074303 176.006192 0.154798762 177.49226 0.154798762 174.860681 7.12074303"></polygon>
        <polygon id="Path" points="196.656347 0.154798762 196.656347 4.92260062 196.687307 4.92260062 198.482972 0.154798762 199.814241 0.154798762 197.213622 7.12074303 195.510836 7.12074303 195.541796 2.22910217 195.541796 2.22910217 193.684211 7.12074303 192.352941 7.12074303 194.95356 0.154798762"></polygon>
        <path d="M22.2910217,6.06811146 L22.9411765,6.06811146 C23.9628483,6.06811146 24.3962848,5.44891641 25.1083591,3.56037152 C25.6965944,1.98142415 25.8823529,1.17647059 24.7368421,1.17647059 L24.1176471,1.17647059 L22.2910217,6.06811146 Z M23.0650155,0.154798762 L25.4798762,0.154798762 C27.5232198,0.154798762 27.3993808,1.48606811 26.625387,3.52941176 C25.6965944,6.00619195 24.7368421,7.12074303 22.755418,7.12074303 L20.4334365,7.12074303 L23.0650155,0.154798762 Z" id="Shape"></path>
        <path d="M44.7987616,3.18885449 L45.4179567,3.18885449 C46.130031,3.18885449 46.625387,2.91021672 46.9040248,2.13622291 C47.1517028,1.48606811 46.9040248,1.17647059 46.25387,1.17647059 L45.5417957,1.17647059 L44.7987616,3.18885449 Z M44.4891641,0.154798762 L47.2136223,0.154798762 C48.4210526,0.154798762 48.9473684,0.773993808 48.4829721,1.9504644 C48.1424149,2.87925697 47.5232198,3.49845201 46.625387,3.65325077 L46.625387,3.68421053 C47.5851393,3.80804954 47.5232198,4.33436533 46.996904,5.82043344 C46.7182663,6.56346749 46.625387,6.93498452 46.8421053,7.05882353 L46.8111455,7.12074303 L45.2012384,7.12074303 C45.1393189,6.93498452 45.2012384,6.65634675 45.2941176,6.37770898 L45.7585139,5.04643963 C45.9442724,4.48916409 45.8204334,4.17956656 45.2321981,4.17956656 L44.4582043,4.17956656 L43.3436533,7.12074303 L41.8575851,7.12074303 L44.4891641,0.154798762 Z" id="Shape"></path>
        <path d="M86.6873065,2.50773994 C87.0588235,1.48606811 87.0278638,1.05263158 86.3467492,1.05263158 C85.6037152,1.05263158 85.1702786,1.76470588 84.4272446,3.74613003 C83.622291,5.85139319 83.8080495,6.22291022 84.4272446,6.22291022 C84.9535604,6.22291022 85.4489164,5.94427245 86.006192,4.45820433 L87.4922601,4.45820433 C86.9349845,5.9752322 86.0371517,7.24458204 84.1176471,7.24458204 C81.8885449,7.24458204 82.1981424,5.72755418 83.003096,3.62229102 C83.8080495,1.51702786 84.6439628,0 86.8421053,0 C88.9473684,0 88.5448916,1.48606811 88.1733746,2.47678019 L86.6873065,2.50773994 L86.6873065,2.50773994 Z" id="Path"></path>
        <path d="M95.6037152,3.18885449 L96.2229102,3.18885449 C96.9349845,3.18885449 97.4303406,2.91021672 97.7089783,2.13622291 C97.9566563,1.48606811 97.7089783,1.17647059 97.0588235,1.17647059 L96.3467492,1.17647059 L95.6037152,3.18885449 Z M95.2941176,0.154798762 L98.0185759,0.154798762 C99.2260062,0.154798762 99.752322,0.773993808 99.2879257,1.9504644 C98.9473684,2.87925697 98.3281734,3.49845201 97.4303406,3.65325077 L97.4303406,3.68421053 C98.3900929,3.80804954 98.3281734,4.33436533 97.8018576,5.82043344 C97.5232198,6.56346749 97.4303406,6.93498452 97.6470588,7.05882353 L97.6160991,7.12074303 L96.006192,7.12074303 C95.9442724,6.93498452 96.006192,6.65634675 96.0990712,6.37770898 L96.5634675,5.04643963 C96.749226,4.48916409 96.625387,4.17956656 96.0371517,4.17956656 L95.2321981,4.17956656 L94.1176471,7.12074303 L92.6315789,7.12074303 L95.2941176,0.154798762 Z" id="Shape"></path>
        <path d="M115.913313,6.06811146 L116.563467,6.06811146 C117.585139,6.06811146 118.018576,5.44891641 118.73065,3.56037152 C119.318885,1.98142415 119.504644,1.17647059 118.359133,1.17647059 L117.739938,1.17647059 L115.913313,6.06811146 Z M116.656347,0.154798762 L119.071207,0.154798762 C121.114551,0.154798762 120.990712,1.48606811 120.216718,3.52941176 C119.287926,6.00619195 118.328173,7.12074303 116.346749,7.12074303 L114.024768,7.12074303 L116.656347,0.154798762 Z" id="Shape"></path>
        <path d="M155.263158,0.154798762 L153.436533,5.01547988 C153.188854,5.69659443 153.157895,6.22291022 153.839009,6.22291022 C154.520124,6.22291022 154.891641,5.69659443 155.170279,5.01547988 L156.996904,0.154798762 L158.482972,0.154798762 L156.656347,5.01547988 C155.975232,6.78018576 154.674923,7.24458204 153.467492,7.24458204 C152.260062,7.24458204 151.26935,6.87306502 151.981424,5.01547988 L153.80805,0.154798762 L155.263158,0.154798762 Z" id="Path"></path>
        <path d="M183.993808,6.22291022 C184.860681,6.22291022 185.263158,5.51083591 185.975232,3.62229102 C186.687307,1.76470588 186.811146,1.05263158 185.944272,1.05263158 C185.077399,1.05263158 184.643963,1.76470588 183.962848,3.62229102 C183.219814,5.51083591 183.095975,6.22291022 183.993808,6.22291022 M186.315789,0 C188.544892,0 188.235294,1.51702786 187.430341,3.62229102 C186.625387,5.72755418 185.789474,7.24458204 183.591331,7.24458204 C181.362229,7.24458204 181.671827,5.72755418 182.47678,3.62229102 C183.250774,1.51702786 184.117647,0 186.315789,0" id="Shape"></path>
      </g>
    </g>
  </g>
</svg>
