<svg xmlns="http://www.w3.org/2000/svg" width="69" height="72" viewBox="0 0 69 72">
    <g fill="none" fill-rule="evenodd">
        <g fill="#FFF" fill-rule="nonzero" stroke="#FFF">
            <g>
                <g>
                    <g>
                        <path d="M56.414 9.295c6.252 5.906 10.249 14.175 10.543 23.369l.013.521.004.57c-.016.632-.274 1.215-.684 1.652-.37.394-.862.668-1.409.756l-.207.024-8.122.006c-.598 5.83-3.345 11.028-7.433 14.789-4.162 3.829-9.714 6.168-15.803 6.168-6.671 0-12.701-2.817-16.965-7.322-4.24-4.48-6.732-10.63-6.373-17.339.316-5.904 2.855-11.251 6.791-15.209 3.935-3.956 9.267-6.522 15.17-6.868 6.585-.385 12.63 1.97 17.098 6.033 4.299 3.909 7.137 9.396 7.593 15.542l.03.462 6.798.36c-.155-8.388-3.74-15.784-9.335-21.076-5.566-5.263-13.121-8.446-21.41-8.288-7.995.16-15.267 3.463-20.612 8.725-5.347 5.262-8.767 12.484-9.057 20.48-.271 7.767 2.39 14.915 6.959 20.423 4.581 5.522 11.081 9.394 18.466 10.582.313-.507.733-.943 1.229-1.273.518-.346 1.12-.576 1.771-.651l.246-.021 6.572-.006c1.122 0 2.144.46 2.886 1.201.741.742 1.201 1.764 1.201 2.886 0 1.083-.428 2.073-1.125 2.807-.653.688-1.54 1.151-2.53 1.257l-.23.018-6.55.005c-.964 0-1.855-.338-2.557-.904-.624-.503-1.098-1.187-1.343-1.974-8.234-1.313-15.484-5.62-20.593-11.766-5.085-6.118-8.05-14.057-7.754-22.677.312-8.756 4.003-16.685 9.805-22.515C15.301 4.211 23.217.481 31.976.122c9.455-.369 18.104 3.19 24.438 9.173zm-23.097 4.467c-5.522 0-10.526 2.244-14.15 5.868-3.624 3.624-5.868 8.628-5.868 14.15 0 5.52 2.244 10.525 5.868 14.149 3.624 3.624 8.628 5.868 14.15 5.868 5.52 0 10.525-2.244 14.15-5.868 3.623-3.624 5.867-8.629 5.867-14.15 0-5.521-2.244-10.525-5.868-14.15-3.624-3.623-8.628-5.867-14.15-5.867zM46.19 34.487c.483 0 .924.21 1.232.54.309.332.483.785.442 1.268-.33 3.682-2.026 6.972-4.576 9.359-2.536 2.372-5.914 3.852-9.632 3.937-3.946.002-7.47-1.433-10.104-3.786-2.684-2.398-4.447-5.75-4.784-9.512-.042-.488.129-.942.437-1.273.302-.325.737-.533 1.237-.533.436 0 .83.164 1.126.431.303.273.504.653.547 1.083.255 2.88 1.601 5.45 3.618 7.294 2.003 1.832 4.667 2.95 7.583 2.95 2.916 0 5.58-1.118 7.583-2.95 2.017-1.844 3.363-4.413 3.619-7.3.042-.423.244-.803.547-1.076.297-.268.691-.432 1.125-.432z" transform="translate(-1063 -1030) translate(128 911) translate(0 120) translate(936)"/>
                    </g>
                </g>
            </g>
        </g>
    </g>
</svg>
