<?xml version="1.0" encoding="UTF-8"?>
<svg xmlns="http://www.w3.org/2000/svg" width="46" height="48" viewBox="0 0 46 48">
  <path fill="#E64949" d="M16.774.126c1.673-.45 3.429.34 4.197 1.883.437-.063.874-.13 1.307-.13h1.491c.477.027.891.005 1.415.067.994.092 1.983.25 2.954.469l.002.002 1.388.34c.453.144.892.307 1.332.457 7.08 2.555 12.44 8.424 14.317 15.683l.34 1.38c.09.438.131.855.194 1.237l.153 1.044c.053.324.053.626.053.893L46 25.089v.057l-.095 1.534c-.026.255-.02.516-.066.85l-.172 1.098c-.07.392-.121.825-.221 1.264l-.367 1.368c-.653 2.31-1.67 4.503-3.012 6.49-3.81 5.704-9.98 9.419-16.824 10.13-.482.09-.97.058-1.464.09l-.74.03h-.787c-.98-.03-1.96-.124-2.933-.281-2.07-.314-4.083-.916-5.984-1.787-1.945-.895-3.76-2.047-5.394-3.424-1.644-1.433-3.088-3.079-4.295-4.893-1.186-1.861-2.113-3.877-2.751-5.987C.3 29.485 0 27.27 0 25.048l.095-1.565.215-1.69c.125-.539.182-1.11.335-1.63.152-.522.284-1.044.45-1.567.693-2.062 1.688-4.014 2.948-5.79 1.856-2.612 4.208-4.84 6.925-6.552l-.452-.068c-.273-.053-.49-.255-.562-.522-.07-.268.017-.551.227-.731C11.929 3.398 15.363.5 16.774.126zm6.152 4.598h-1.77c-.38 1.162-1.326 2.051-2.512 2.366-1.148.302-4.3-.187-6.668-.632-2.955 1.621-5.447 3.967-7.24 6.813-1.107 1.76-1.947 3.671-2.492 5.673-.142.497-.242.987-.367 1.51l-.255 1.53-.138 1.525v1.602c.053 2.05.38 4.081.964 6.046.638 1.938 1.539 3.78 2.678 5.478 1.152 1.64 2.516 3.122 4.058 4.404 1.523 1.22 3.201 2.236 4.995 3.013 1.721.735 3.536 1.23 5.394 1.47.923.132 1.856.198 2.79.201h.629l.666-.043c.44-.035.887-.026 1.318-.1 3.263-.418 6.38-1.586 9.11-3.412 2.286-1.568 4.233-3.574 5.73-5.9 1.15-1.766 2.009-3.706 2.546-5.744l.3-1.204c.077-.372.107-.72.16-1.045l.133-.897c.041-.278.03-.58.056-.833l.065-1.471-.091-1.42c-.015-.256-.01-.496-.057-.777l-.164-.93c-.063-.333-.099-.699-.188-1.074l-.335-1.192c-.565-2.015-1.453-3.926-2.622-5.664-1.529-2.264-3.478-4.22-5.74-5.758-1.302-.837-2.687-1.537-4.135-2.088h.002l-1.139-.428-1.195-.326c-.799-.218-1.605-.39-2.422-.522-.403-.077-.905-.077-1.362-.118l-.702-.053zm-7.79 19.667v12.008h-4.54V24.39h4.54zm6.811 4.503v7.505h-4.54v-7.505h4.54zm6.811-17.261v24.766h-4.54V11.633h4.54zm6.811 8.255v16.51h-4.54v-16.51h4.54zM18.146 2.128c-.106-.402-.813-.6-1.574-.402-.944.388-1.854.854-2.719 1.394-.189.105-.145.268.063.272.933.026 1.867-.002 2.798-.084.356-.156.717-.314 1.08-.454.246-.154.385-.438.352-.725z"></path>
</svg>
