<svg xmlns="http://www.w3.org/2000/svg" width="75" height="74" viewBox="0 0 75 74">
    <g fill="none">
        <g transform="rotate(-110 35.8 29.85)">
            <path fill="#213E65" d="M47.143 10.963c-3.615-3.617-8.137-6.165-13.077-7.372L33.624 5.4c4.609 1.125 8.827 3.505 12.202 6.879 7.985 7.99 10.58 19.863 6.741 30.444l-2.245-.898 1.249 5.585 4.996-3.087-2.271-.908c4.118-11.274 1.359-23.937-7.153-32.452z"/>
            <path fill="#FDCD2D" d="M26.74 12.028c-4.973 0-9.647 1.938-13.163 5.454-6.568 6.571-6.568 17.262 0 23.834 2.881 2.882 6.712 4.469 10.786 4.469 4.075 0 7.905-1.587 10.786-4.47L33.833 40c-2.53 2.53-5.893 3.923-9.47 3.923-3.577 0-6.94-1.393-9.47-3.923-5.841-5.845-5.841-15.356 0-21.2 3.165-3.166 7.371-4.909 11.847-4.909 4.474 0 8.68 1.744 11.845 4.908 7.298 7.301 7.298 19.182 0 26.482-4.825 4.828-11.57 6.96-18.249 5.832l.605-2.2-5.585 1.926 3.745 4.768.74-2.69c1.339.236 2.68.357 4.01.357 5.963 0 11.719-2.342 16.05-6.677 8.025-8.027 8.025-21.088 0-29.115-3.515-3.516-8.19-5.454-13.161-5.454z"/>
            <path fill="#17BD85" d="M6.672 42.53C-.15 33.194.841 20.47 9.028 12.28c2.457-2.457 5.308-4.352 8.48-5.657l.904 2.687 3.333-4.846L16.16 2.62l.753 2.235c-3.445 1.4-6.54 3.446-9.2 6.108C-1.13 19.808-2.2 33.546 5.167 43.629l1.504-1.098z"/>
            <circle cx="28.261" cy="3.723" r="3.723" fill="#17BD85"/>
            <circle cx="47.809" cy="54.128" r="3.723" fill="#213E65"/>
            <circle cx="9.644" cy="47.473" r="3.723" fill="#FDCD2D"/>
        </g>
        <path fill="#518DE2" d="M40.429 38.381l-.325 6.739c-.04.474-.549.88-1.117.88H37.93c-.589 0-1.076-.39-1.117-.863l-.385-6.722h.812l.365 6.67c0 .136.142.238.305.238h1.056c.162 0 .304-.119.304-.254l.366-6.688h.792zm.461-4.19c.606 0 1.086.504 1.086 1.089v1.734h1.69v.605h-2.525v-2.34c0-.14-.104-.282-.25-.282h-4.906c-.146 0-.271.141-.271.283v2.339H33v-.605h1.879V35.28c0-.585.5-1.09 1.106-1.09zM38.334 30c.95 0 1.714.764 1.714 1.714s-.764 1.715-1.714 1.715-1.735-.765-1.715-1.715c0-.95.765-1.714 1.715-1.714zm0 .806c-.517 0-.91.413-.91.908 0 .496.414.91.91.91.495 0 .908-.414.908-.91 0-.495-.413-.908-.908-.908z"/>
    </g>
</svg>
