<svg xmlns="http://www.w3.org/2000/svg" width="117" height="120" viewBox="0 0 117 120">
    <path fill="#17BD85" d="M110.862 24.677c1.5-.036 2.932.536 3.968 1.568.967.963 1.526 2.245 1.573 3.604L117 48.224c0 .073-.01.146-.01.219v.052l-.006.031c-.005.443-.052.875-.136 1.286l-1.207 11.396c-.424 4.042-2.259 7.865-5.16 10.756L99.115 83.287c-1.772 1.765-2.901 4-3.272 6.474l-.047.338c1.092.406 2.096 1.037 2.938 1.896 1.49 1.516 2.295 3.516 2.274 5.625l-.157 14.541c-.02 2.11-.873 4.089-2.394 5.573-1.5 1.464-3.472 2.266-5.557 2.266h-.09l-24.226-.25c-2.117-.02-4.104-.87-5.594-2.385-1.49-1.521-2.295-3.516-2.274-5.626l.157-14.546c.037-3.469 2.326-6.396 5.463-7.433l.251-11.109c.063-2.786 1.192-5.406 3.173-7.38l6.729-6.703c1.568-1.568 3.638-2.63 5.824-3l3.382-.584 9.766-9.74c1.37-1.364 3.168-2.036 4.966-2.025l1.485-5.98-.288-8.75c-.157-5.24 3.984-9.64 9.238-9.812zM6.112 24.66c5.274.177 9.415 4.578 9.258 9.813l-.288 8.755 1.485 5.985c1.798-.006 3.597.666 4.967 2.026l9.77 9.74 3.388.582c2.18.365 4.25 1.433 5.819 2.995l6.728 6.703c1.981 1.974 3.11 4.594 3.173 7.38l.252 11.11c3.136 1.036 5.42 3.963 5.458 7.432l.156 14.547c.027 2.11-.784 4.11-2.274 5.625-1.49 1.516-3.476 2.365-5.594 2.386l-24.22.255h-.09c-2.085 0-4.056-.802-5.557-2.266-1.521-1.484-2.373-3.463-2.394-5.573l-.157-14.541c-.02-2.11.784-4.11 2.274-5.625.842-.86 1.846-1.495 2.938-1.896l-.052-.344c-.366-2.469-1.5-4.703-3.267-6.469L6.519 71.957c-2.901-2.89-4.736-6.708-5.16-10.755L.152 49.812c-.09-.422-.136-.86-.142-1.308v-.036L0 48.233l.59-18.39c.048-1.37.607-2.651 1.574-3.615C3.2 25.197 4.647 24.63 6.111 24.66zm62.76 68.694h-.043c-2.148 0-3.915 1.73-3.936 3.88l-.157 14.547c-.01 1.042.392 2.031 1.129 2.781s1.72 1.172 2.766 1.183l24.22.255c1.02 0 2.04-.39 2.798-1.13.752-.735 1.176-1.714 1.186-2.756l.157-14.541c.01-1.042-.392-2.031-1.134-2.776-.737-.75-1.72-1.172-2.766-1.182l-24.22-.26zm-20.707-.006h-.042l-24.221.26c-1.046.01-2.028.433-2.766 1.183-.742.75-1.14 1.74-1.129 2.78l.162 14.547c.01 1.042.434 2.021 1.187 2.756.753.734 1.746 1.125 2.792 1.125l24.22-.26c1.046-.011 2.03-.433 2.766-1.183.743-.75 1.14-1.74 1.124-2.781l-.157-14.547c-.02-2.146-1.782-3.88-3.936-3.88zm47.457 6.058c0 4.563-6.87 4.563-6.87 0 0-4.562 6.87-4.562 6.87 0zm-67.376 0c0 4.563-6.87 4.563-6.87 0 0-4.562 6.87-4.562 6.87 0zm82.731-70.74c-3.022.105-5.426 2.657-5.332 5.694l.292 9.026c0 .026-.005.047-.005.067 0 .073-.01.141-.016.209-.01.067-.015.135-.03.203-.006.026-.006.047-.011.068L104.27 50.4c.366.245.716.521 1.04.844 2.713 2.708 2.713 7.11 0 9.813L93.574 72.75c-.393.391-.91.584-1.422.584-.513 0-1.025-.193-1.417-.594-.784-.781-.784-2.047 0-2.828l11.736-11.693c1.15-1.146 1.15-3.01 0-4.156-1.145-1.146-3.016-1.146-4.166 0L88.09 64.25c-.006 0-.006 0-.01.006-.184.177-.398.322-.639.421l-.026.016c-.13.052-.266.089-.408.115l-4.015.692c-1.38.235-2.682.907-3.664 1.886l-6.729 6.703c-1.244 1.245-1.955 2.896-1.997 4.646l-.24 10.63 21.444.23.063-.412c.496-3.334 2.018-6.344 4.402-8.72l11.365-11.322c2.254-2.25 3.68-5.213 4.015-8.354l1.182-11.156c0-.047.01-.094.016-.14l.136-1.282-.586-18.23c-.016-.437-.23-.74-.402-.911-.267-.266-.612-.411-1.02-.402zm-104.97 0c-.387 0-.727.135-.993.4-.178.172-.387.474-.403.917l-.585 18.224.136 1.281c.005.047.015.094.015.141L5.36 60.785c.33 3.141 1.751 6.104 4.004 8.35L20.73 80.456c2.379 2.375 3.905 5.386 4.413 8.714l.062.422 21.444-.23-.24-10.63c-.037-1.75-.748-3.396-1.997-4.64l-6.728-6.704c-.988-.979-2.285-1.645-3.66-1.88l-4.02-.693c-.147-.026-.277-.062-.408-.114l-.026-.016c-.24-.099-.46-.245-.638-.422-.005 0-.005 0-.01-.005L18.7 54.072c-1.146-1.146-3.017-1.146-4.167 0s-1.15 3.01 0 4.156L26.27 69.921c.784.78.784 2.047 0 2.828-.392.39-.91.583-1.422.583-.512 0-1.03-.193-1.417-.583L11.695 61.056c-2.713-2.708-2.713-7.11 0-9.812.324-.323.674-.605 1.04-.85l-1.605-6.468c-.005-.026-.005-.047-.01-.068-.016-.062-.026-.135-.031-.203-.011-.073-.016-.14-.016-.208 0-.026-.005-.047-.005-.068l.292-9.026c.094-3.037-2.31-5.589-5.353-5.688zM61.144 0c2.332 0 4.23 1.89 4.23 4.214l-.006 3.77c1.637.474 3.205 1.125 4.69 1.933l2.671-2.662c1.595-1.588 4.386-1.588 5.98 0l3.75 3.735c1.646 1.64 1.646 4.312 0 5.953l-2.672 2.661c.81 1.48 1.458 3.042 1.94 4.672H85.5c2.331 0 4.229 1.89 4.229 4.214v5.265c0 2.323-1.898 4.214-4.23 4.214h-3.774c-.48 1.63-1.129 3.193-1.94 4.672l2.672 2.661c1.647 1.64 1.647 4.313 0 5.953L78.71 54.99c-.826.823-1.909 1.234-2.99 1.234-1.083 0-2.165-.411-2.991-1.234l-2.671-2.662c-1.485.808-3.053 1.453-4.69 1.933v3.76c0 2.323-1.898 4.214-4.23 4.214h-5.285c-2.331 0-4.229-1.891-4.229-4.214v-3.76c-1.636-.48-3.205-1.125-4.69-1.933l-2.67 2.662c-.827.823-1.909 1.234-2.991 1.234s-2.165-.411-2.99-1.234l-3.749-3.735c-1.647-1.64-1.647-4.312 0-5.953l2.672-2.661c-.81-1.48-1.459-3.042-1.94-4.672h-3.775c-2.331 0-4.229-1.89-4.224-4.23v-5.265c0-2.323 1.898-4.214 4.23-4.214h3.774c.481-1.63 1.13-3.192 1.94-4.671l-2.672-2.662c-1.646-1.64-1.646-4.312 0-5.953l3.749-3.734c1.594-1.589 4.386-1.589 5.98 0L46.94 9.9c1.485-.807 3.053-1.453 4.69-1.932V4.214C51.63 1.89 53.526 0 55.858 0zm-.005 4h-5.286c-.12 0-.214.094-.209.214v5.312c0 .042-.005.078-.01.12-.005.083-.01.177-.026.26-.01.058-.032.115-.047.172-.021.068-.037.136-.063.198-.026.063-.063.12-.094.177-.032.057-.058.11-.09.162-.036.052-.078.099-.12.15-.036.047-.078.1-.12.146-.041.042-.094.079-.14.12-.053.047-.1.094-.158.13-.052.037-.115.068-.172.1-.058.025-.11.062-.167.088-.074.031-.152.052-.23.073-.048.015-.09.036-.136.047-2.285.5-4.434 1.385-6.378 2.63-.074.042-.152.062-.225.099-.058.031-.12.062-.183.083-.22.078-.444.13-.67.13-.23 0-.454-.052-.668-.13-.053-.02-.1-.036-.147-.057-.214-.094-.408-.219-.58-.385-.01-.006-.016-.006-.026-.016l-3.764-3.75c-.068-.068-.225-.068-.298 0l-3.749 3.734c-.078.084-.078.224 0 .302l3.738 3.724.021.021c.005 0 .005.005.01.01.184.183.325.402.424.636l.016.047c.083.224.136.458.136.703 0 .01-.006.026-.006.042-.005.24-.047.479-.14.708-.006.01-.016.02-.022.037-.041.104-.088.203-.151.302-1.244 1.937-2.133 4.073-2.64 6.354-.006.01-.01.015-.01.02-.053.209-.137.402-.241.579-.01.02-.021.041-.032.057-.11.167-.245.313-.397.438-.026.026-.052.046-.078.067-.157.12-.325.214-.507.281-.032.016-.068.021-.1.032-.188.057-.381.099-.59.099 0 0-.006.005-.011.005h-5.311c-.12 0-.215.088-.215.213h-.005l.01 5.25c0 .12.09.214.215.214h5.311c.042 0 .079.005.12.01.094.006.183.01.272.026.052.01.1.026.152.042.073.02.146.037.22.068.057.026.11.057.161.083.058.031.12.063.178.1.052.036.1.077.147.114.052.041.11.083.156.13.047.042.084.088.12.135.048.052.095.1.131.157.042.057.074.12.105.182.026.052.057.104.084.156.036.083.057.172.083.26.01.032.026.068.037.105.507 2.276 1.396 4.416 2.64 6.354.063.099.11.198.151.302.006.01.016.02.021.036.095.23.136.47.142.709 0 .01.005.026.005.041 0 .24-.047.48-.136.704l-.016.046c-.094.235-.24.448-.423.636-.006 0-.006.005-.01.01l-.016.016-.006.005-3.743 3.73c-.078.077-.078.218 0 .296l3.749 3.735c.078.078.22.078.298 0l3.738-3.724.026-.027c.005 0 .005 0 .01-.005.183-.187.403-.328.643-.427.01-.005.021-.005.032-.01.23-.089.475-.14.721-.14.01 0 .02.004.031.004.24 0 .487.047.722.141l.031.016c.105.047.21.093.309.156 1.944 1.24 4.093 2.125 6.378 2.63.036.01.067.026.104.037.089.026.183.052.267.088.052.021.099.052.146.078.063.037.13.068.194.11.047.036.094.078.14.12.053.041.105.083.152.13.042.041.079.093.115.14.042.058.09.104.126.162.031.052.057.104.083.156.032.062.068.12.094.187.027.063.037.125.058.188.016.057.042.12.052.182.016.078.021.157.026.24.006.047.016.094.016.14V58c0 .12.089.214.214.214h5.286c.12 0 .214-.089.214-.214v-5.292c0-.046.01-.093.016-.14.005-.078.01-.162.026-.24.01-.062.031-.12.052-.182.021-.063.032-.125.058-.188.026-.067.062-.125.094-.187.026-.052.052-.11.083-.156.037-.058.084-.11.126-.162.037-.047.073-.099.115-.14.047-.047.1-.089.152-.13.047-.042.088-.084.14-.12.058-.042.126-.073.194-.11.052-.026.094-.057.147-.078.083-.036.177-.062.266-.088l.105-.037c2.284-.505 4.433-1.39 6.378-2.63.094-.063.198-.11.298-.151l.041-.021c.23-.089.466-.13.706-.135.021 0 .037-.006.053-.006.24 0 .48.047.705.136l.047.015c.236.094.455.24.643.422 0 0 .006 0 .01.006l.011.01.01.01 3.739 3.724c.078.078.22.078.298 0l3.748-3.734c.078-.078.078-.219 0-.297l-3.743-3.73-.005-.004-.016-.016c-.005 0-.005-.005-.01-.01-.183-.183-.325-.401-.424-.636l-.016-.047c-.083-.224-.136-.458-.136-.703 0-.01.006-.026.006-.041.005-.24.047-.48.14-.709.006-.01.017-.02.022-.036.042-.104.089-.203.151-.302 1.245-1.938 2.133-4.073 2.64-6.354.006-.032.021-.063.032-.1.026-.093.052-.182.089-.27.02-.042.047-.084.068-.125.036-.073.073-.146.12-.214.026-.041.063-.078.094-.114.052-.058.1-.125.157-.177.031-.032.073-.058.11-.089.062-.052.125-.11.193-.151.042-.026.084-.047.126-.068.068-.036.14-.078.214-.11.052-.02.115-.036.172-.051.063-.021.126-.042.194-.058.083-.015.172-.02.256-.026.047-.005.089-.015.13-.015h5.312c.12 0 .215-.089.215-.214v-5.265c0-.12-.09-.214-.215-.214h-5.311s-.005-.005-.01-.005c-.21 0-.403-.037-.591-.1l-.1-.03c-.183-.068-.35-.162-.502-.276-.031-.021-.057-.047-.083-.068-.152-.13-.283-.27-.392-.438-.01-.02-.021-.036-.032-.057-.11-.177-.193-.37-.24-.578-.005-.01-.01-.016-.01-.02-.508-2.277-1.397-4.417-2.64-6.355-.064-.099-.11-.198-.152-.302-.006-.01-.016-.02-.021-.036-.094-.23-.136-.47-.142-.709 0-.01-.005-.026-.005-.041 0-.24.047-.48.136-.704l.016-.046c.094-.235.24-.448.423-.636.006 0 .006-.005.01-.01l.016-.016.006-.005 3.743-3.73c.078-.078.078-.218 0-.296l-3.749-3.735c-.067-.067-.224-.067-.298 0l-3.764 3.75c-.01.006-.015.006-.026.016-.172.167-.37.292-.58.385-.052.021-.1.042-.146.058-.215.078-.434.13-.664.13-.23 0-.455-.052-.675-.13-.062-.021-.12-.052-.183-.084-.073-.03-.151-.052-.224-.099-1.945-1.244-4.094-2.125-6.378-2.63-.047-.01-.09-.031-.136-.047-.079-.02-.157-.041-.23-.073-.058-.026-.115-.057-.168-.088-.057-.031-.12-.063-.172-.1-.058-.04-.105-.088-.157-.13-.047-.036-.1-.078-.141-.12l-.12-.145c-.042-.047-.084-.099-.12-.151-.037-.052-.058-.11-.09-.162-.03-.057-.067-.114-.094-.177-.026-.062-.041-.13-.062-.198-.016-.057-.037-.109-.047-.171-.016-.084-.021-.172-.027-.26 0-.042-.01-.079-.01-.12V4.213c0-.12-.089-.214-.214-.214zm-2.64 12.4c8.145 0 14.774 6.605 14.774 14.72 0 8.114-6.629 14.718-14.774 14.718S43.725 39.234 43.725 31.12c0-8.115 6.63-14.72 14.774-14.72zm0 4c-5.934 0-10.759 4.808-10.759 10.72 0 5.911 4.825 10.718 10.759 10.718s10.759-4.807 10.759-10.718c0-5.912-4.825-10.72-10.759-10.72z"/>
</svg>
