<svg xmlns="http://www.w3.org/2000/svg" width="25" height="26" viewBox="0 0 25 26">
    <g fill="none" fill-rule="evenodd">
        <g fill="#000" fill-rule="nonzero">
            <g>
                <g>
                    <g>
                        <path d="M28.1 17.497c2.1 0 4.123.6 5.865 1.73.232.151.298.46.147.692-.15.232-.46.298-.691.147-1.58-1.026-3.414-1.569-5.32-1.569-2.62 0-5.08 1.019-6.932 2.87-3.822 3.822-3.822 10.041 0 13.862 1.852 1.852 4.31 2.87 6.93 2.87 2.618 0 5.079-1.018 6.93-2.87 1.852-1.85 2.87-4.31 2.87-6.93 0-1.907-.542-3.74-1.568-5.32-.15-.232-.084-.542.148-.692.231-.15.54-.085.691.147 1.131 1.742 1.73 3.764 1.73 5.865 0 2.885-1.124 5.599-3.163 7.637-2.04 2.04-4.754 3.164-7.638 3.164-2.884 0-5.598-1.124-7.638-3.164-4.212-4.211-4.211-11.063.001-15.276 2.04-2.039 4.755-3.163 7.638-3.163zm-.001 3.915c1.024 0 2.023.223 2.935.654.25.118.357.416.239.665-.118.25-.416.357-.666.239-.779-.368-1.631-.558-2.508-.558-1.573 0-3.05.611-4.163 1.724-1.113 1.113-1.725 2.59-1.725 4.163 0 1.573.612 3.05 1.724 4.163 1.114 1.113 2.59 1.725 4.164 1.725 1.573 0 3.049-.612 4.162-1.725 1.765-1.765 2.21-4.441 1.163-6.669-.117-.25-.01-.548.24-.665.25-.117.548-.01.666.24 1.223 2.606.704 5.736-1.362 7.802-1.3 1.3-3.03 2.017-4.87 2.017-1.838 0-3.568-.717-4.87-2.018-1.3-1.3-2.017-3.032-2.017-4.87 0-1.839.717-3.57 2.018-4.87 1.301-1.3 3.031-2.017 4.87-2.017zm9.955-6.812l.04.009c.038.016.063.055.062.096l-.06 3.052.545.546 3.052-.06c.04-.003.08.024.097.062.016.039.007.084-.023.113l-3.006 3.005c-.018.019-.043.03-.07.03l-2.485.05-6.15 6.15c.067.202.103.42.103.646 0 1.137-.922 2.06-2.06 2.06-1.137 0-2.06-.923-2.06-2.06 0-1.139.923-2.06 2.06-2.06.225 0 .442.036.646.103l6.15-6.15.05-2.485c0-.028.011-.053.03-.071l3.005-3.006c.03-.029.075-.038.114-.021z" transform="translate(-321 -3060) translate(128 2974) translate(0 72) translate(176)"/>
                    </g>
                </g>
            </g>
        </g>
    </g>
</svg>
