<svg xmlns="http://www.w3.org/2000/svg" width="143" height="71" viewBox="0 0 143 71">
    <g fill="none" fill-rule="evenodd">
        <rect width="143" height="71" fill="#FFF" rx="7"/>
        <g>
            <path fill="#17BD85" d="M18.745 33.709c3.564 0 6.984-1.424 9.504-3.961 2.523-2.535 3.938-5.975 3.938-9.56 0-3.585-1.415-7.025-3.938-9.56-2.52-2.538-5.94-3.961-9.504-3.961-3.564 0-6.985 1.423-9.505 3.96-2.522 2.536-3.938 5.976-3.938 9.56.004 3.586 1.422 7.022 3.942 9.557 2.52 2.535 5.936 3.96 9.5 3.965z" transform="translate(52 11)"/>
            <path fill="#000" fill-rule="nonzero" d="M12.098 17.577L13.443 17.577 13.443 22.31 12.098 22.31zM15.459 17.577L16.803 17.577 16.803 22.31 15.459 22.31zM18.82 17.577L20.164 17.577 20.164 18.93 18.82 18.93zM18.82 20.958L20.164 20.958 20.164 22.31 18.82 22.31zM21.508 17.577L22.852 17.577 22.852 22.31 21.508 22.31zM24.869 17.577L26.213 17.577 26.213 22.31 24.869 22.31z" transform="translate(52 11)"/>
            <path fill="#000" fill-rule="nonzero" d="M18.82 48c10.768 0 18.812-13.094 18.812-24.8.102-4.142-.944-8.228-3.018-11.79l2.789-2.844c.147-.15.23-.354.23-.566 0-.212-.083-.416-.23-.566l-3.92-4c-.146-.15-.346-.234-.554-.234-.208 0-.408.084-.555.234L29.64 6.226c-2.095-1.368-4.445-2.286-6.9-2.692V.8c0-.212-.082-.416-.23-.566-.146-.15-.346-.234-.554-.234h-6.27c-.209 0-.409.084-.556.234-.147.15-.229.354-.229.566v2.734c-2.455.406-4.805 1.324-6.9 2.692L5.265 3.434c-.147-.15-.347-.234-.555-.234-.208 0-.408.084-.555.234l-3.919 4c-.147.15-.23.354-.23.566 0 .212.083.416.23.566l2.787 2.844h.002C.95 14.972-.095 19.058.007 23.2.007 34.906 8.05 48 18.819 48zM32.93 5.132L35.74 8l-2.031 2.072c-.807-1.078-1.742-2.05-2.783-2.896l2.003-2.044zM16.467 1.6h4.703v1.72c-.764-.076-1.546-.12-2.351-.12-.806 0-1.587.044-2.352.12V1.6zM1.9 8l2.81-2.868 2.003 2.044c-1.04.846-1.975 1.818-2.783 2.896L1.9 8zm16.92-3.2c10.637 0 17.245 7.05 17.245 18.4 0 13.278-9.104 23.2-17.245 23.2-8.14 0-17.245-9.922-17.245-23.2 0-11.35 6.608-18.4 17.245-18.4z" transform="translate(52 11)"/>
            <path fill="#000" fill-rule="nonzero" d="M20.533 42.604c-.512.094-1.029.14-1.546.14-.464 0-.84.42-.84.938s.376.938.84.938c.61 0 1.217-.057 1.815-.167.458-.082.769-.564.695-1.075-.075-.511-.506-.858-.964-.774zM23.289 41.773c-.396.2-.55.677-.347 1.064.204.388.688.542 1.085.344 6.227-3.136 10.924-11.768 10.924-20.08 0-.437-.361-.791-.807-.791-.446 0-.807.354-.807.79 0 7.634-4.414 15.837-10.048 18.674zM19.156 35.155c-1.223 0-2.327.741-2.794 1.879-.47 1.137-.21 2.445.656 3.314.864.87 2.164 1.13 3.295.66 1.13-.47 1.867-1.58 1.867-2.81-.002-1.68-1.355-3.041-3.024-3.043zm0 4.563c-.613 0-1.163-.37-1.397-.94-.235-.568-.104-1.222.327-1.657.433-.434 1.083-.565 1.648-.329.565.236.934.79.934 1.405-.002.84-.677 1.52-1.512 1.521z" transform="translate(52 11)"/>
        </g>
    </g>
</svg>
