<?xml version="1.0" encoding="UTF-8"?>
<svg xmlns="http://www.w3.org/2000/svg" width="14" height="14" viewBox="0 0 14 14">
  <g fill="none" fill-rule="evenodd">
    <g fill="#E64949" fill-rule="nonzero">
      <g>
        <g>
          <path d="M2.573 5.144v.858c0 .472.386.858.858.858s.858-.386.858-.858v-.858h5.146v.858c0 .472.386.858.858.858s.858-.386.858-.858v-.858h2.574v11.58H0V5.145h2.573zm9.437 2.574H1.715v7.292H12.01V7.718zM8.835 8.833l1.202 1.2-4.033 4.033-2.316-2.316 1.202-1.202 1.114 1.116 2.831-2.83zM3.431 3c.472 0 .858.386.857.858v1.287H2.573V3.858c0-.472.386-.858.858-.858zm6.863 0c.471 0 .857.386.857.858v1.287H9.436V3.858c0-.472.386-.858.858-.858z" transform="translate(-1072 -429) translate(892 426) translate(180)"></path>
        </g>
      </g>
    </g>
  </g>
</svg>
