<svg xmlns="http://www.w3.org/2000/svg" width="143" height="71" viewBox="0 0 143 71">
    <g fill="none" fill-rule="evenodd">
        <rect width="143" height="71" fill="#FFF" rx="7"/>
        <path fill="#E64949" fill-rule="nonzero" d="M82.241 29.539c-.362-.54-.24-1.261.301-1.68.541-.362 1.266-.24 1.687.3.24.36.483.78.723 1.138.301.6.061 1.32-.541 1.62-.182.06-.363.12-.542.12-.42 0-.842-.24-1.084-.662-.182-.295-.363-.536-.544-.836zM63.025 42.8l8.071 6.42c.24.18.483.238.723.238s.541-.06.722-.239l8.071-6.48c2.711-2.4 5.24-5.161 5.24-9.239 0-.661-.54-1.2-1.204-1.2-.664 0-1.205.54-1.205 1.2 0 3-1.687 5.039-4.398 7.439l-7.29 5.82-7.29-5.762c-2.712-2.4-4.399-4.439-4.399-7.438 0-3.78 3.074-6.84 6.867-6.84 1.506 0 2.892.481 4.096 1.381.422.3 1.024.3 1.445 0 1.205-.9 2.591-1.38 4.097-1.38 1.144 0 2.29.3 3.252.839.603.3 1.325.12 1.626-.48.301-.6.12-1.32-.482-1.62-1.325-.72-2.892-1.08-4.398-1.08-1.746 0-3.375.48-4.82 1.38-1.444-.9-3.132-1.38-4.819-1.38-5.12 0-9.276 4.138-9.276 9.238.068 3.963 2.598 6.722 5.37 9.183h.001zm32.229-8.161h-4.82c-.663 0-1.204.539-1.204 1.2 0 .66.54 1.2 1.204 1.2h4.82c.663 0 1.204-.54 1.204-1.2 0-.659-.543-1.2-1.204-1.2zm-9.4-9.6c.363 0 .664-.12.904-.42l3.194-3.6c.42-.48.362-1.26-.12-1.68-.483-.42-1.266-.361-1.688.12l-3.193 3.54c-.421.481-.362 1.262.12 1.681.181.24.483.359.784.359zm-14.094-3.6c.663 0 1.204-.54 1.204-1.2v-4.8c0-.661-.54-1.2-1.204-1.2-.664 0-1.205.539-1.205 1.2v4.8c0 .66.541 1.2 1.205 1.2zm-23.494 15.6h4.819c.664 0 1.205-.54 1.205-1.2 0-.661-.541-1.2-1.205-1.2h-4.82c-.663 0-1.204.539-1.204 1.2 0 .66.541 1.2 1.205 1.2zm8.553-12.42c.24.24.542.42.904.42.301 0 .541-.12.784-.3.482-.42.54-1.2.12-1.68l-3.194-3.66c-.421-.48-1.205-.538-1.687-.119-.482.42-.541 1.2-.12 1.68l3.193 3.66z"/>
    </g>
</svg>
