<?xml version="1.0" encoding="UTF-8"?>
<svg xmlns="http://www.w3.org/2000/svg" width="60" height="42" viewBox="0 0 60 42">
  <g fill="none" fill-rule="evenodd">
    <g fill="#FFF" fill-rule="nonzero">
      <g>
        <g>
          <path d="M33.513 11.662v-.232l.234-.938v.002c.199-.812.893-1.41 1.727-1.49.577-.076 1.108-.176 1.64-.297.533-.121.744-.188 1.108-.298.388-.151.83-.046 1.108.263.077.082.147.165.21.254.267.398.393.87.367 1.347.003.482.323.908.786 1.047 3.933 1.203 14.725 4.899 17.261 7.459.432.432 1.134.435 1.568.004.435-.428.437-1.128.007-1.561-3.08-3.067-14.492-6.83-17.483-7.724v.003c.005-.058.005-.119 0-.177-.035-.158-.08-.312-.133-.463-.052-.138-.11-.27-.178-.398-.028-.068-.063-.135-.1-.198-.073-.142-.155-.277-.243-.407l-.101-.154-.276-.4-.133-.154c-.855-.888-2.148-1.212-3.323-.826-.344.11-.69.203-1.043.275-.387.088-.808.154-1.252.21-.624.085-1.222.309-1.75.651-.837.558-1.445 1.396-1.718 2.36v.144l-.222.914h.002c-.012.105-.012.207 0 .31l-1.916.64h-.003c-1.652.474-3.108 1.466-4.153 2.825l-1.24 1.654c-.599.78-1.043 1.669-1.31 2.614l-1.34 4.665.002.002c-.18.603-.732 1.017-1.363 1.027-.78-.012-1.402-.65-1.397-1.424v-.729c.11-.772 1.262-8.352 5.02-12.312v.002c1.322-1.473 2.834-2.762 4.498-3.84 1.536-1.02 2.994-2.152 4.364-3.387 1.068-.782 2.484-.903 3.669-.308l8.486 4.226v-.002c1.661.817 3.517 1.159 5.363.982l8.574-.861v.002c.613-.063 1.06-.605.998-1.214-.063-.61-.607-1.055-1.22-.994l-8.574.86c-1.426.138-2.863-.125-4.144-.76L37.426.63c-1.937-.994-4.272-.8-6.016.498l-.367.319c-.846.642-1.94.86-2.968.596-1.682-.429-3.468-.063-4.842.993-1.769 1.338-3.683 2.479-5.707 3.398-.9.423-1.736.972-2.482 1.633-1.963-.004-3.837.817-5.162 2.26-1.926.123-3.835.449-5.693.972-.645.205-1.218.587-1.652 1.104l-.122.165c-.157.19-.29.398-.4.616 0 .11-.1.21-.144.32l.002.002c-.03.044-.052.093-.068.142v.232c0 .077-.056.254-.077.375-.021.12 0 .233 0 .354-.021.218-.021.442 0 .66.014.087.033.173.056.254.042.172.094.342.154.507.028.077.063.152.1.221.104.235.237.454.398.652.175.226.381.426.61.596.077.058.159.111.245.153.15.114.314.207.487.277l.31.11c.164.058.33.107.498.144.115.005.23.005.344 0 .095.005.191.005.287 0 .138.012.274.012.411 0h.21c-.016.256-.016.514 0 .772l.11 2.79c.04 1.22.73 2.325 1.807 2.902.255.138.526.242.809.31.096.005.191.005.287 0 .173.032.346.053.521.065.199-.002.395-.028.587-.077.086.007.17.007.255 0 .285-.077.556-.193.81-.342.223-.132.445-.286.655-.442l.199 1.61c.035.284.105.563.21.829l.11.22c.082.18.173.352.278.52l.1.11h-.002c.138.185.29.357.456.518.077.065.177.11.255.177.137.114.285.219.441.307.517.275 1.09.419 1.674.421.273 0 .544-.035.808-.1.073-.018.143-.044.21-.077.192-.05.377-.116.554-.2h.09c.775-.428 1.357-1.133 1.628-1.973.498.256 1.047.39 1.608.398 1.62-.007 3.04-1.078 3.49-2.627l1.34-4.666c.185-.703.5-1.364.93-1.952L27.3 16.02c.715-.952 1.703-1.661 2.834-2.04l1.241-.408v-.002c.04.195.094.386.157.575.521 1.517 1.648 2.752 3.113 3.418.362.177.731.363 1.108.563l.388.233c.278.165.553.33.82.507l.199.133-5.707 3.088c-.81.437-1.466 1.112-1.882 1.931l-2.327 4.645c-.737-.419-1.426-.91-2.062-1.468-.208-.21-.49-.326-.785-.326-.297 0-.58.116-.787.326-.43.43-.43 1.126 0 1.554 1.068.97 2.273 1.778 3.578 2.394 2.442 1.413 5.083 2.449 7.833 3.08 1.087.248 2.127.67 3.08 1.246.22.126.43.266.632.42.112.08.22.17.322.265l.21.176v-.002c.115.1.222.207.32.321l.122.133c.091.098.178.2.255.307.523.652.745 1.494.61 2.318-.021.116-.094.219-.199.277-.1.07-.227.09-.343.053-2.22-.488-4.485-.747-6.76-.772 0 0-3.322-.089-11.81-3.244v.002c-4.013-1.496-7.857-3.414-11.466-5.715-2.161-1.39-4.569-2.36-7.09-2.858l-1.552-.31c-.295-.057-.599.003-.849.168-.25.166-.423.424-.481.717-.122.607.273 1.2.886 1.322l1.56.31h.003c2.258.444 4.412 1.31 6.347 2.547 3.735 2.386 7.713 4.368 11.865 5.913 8.953 3.31 12.43 3.386 12.576 3.386v.002c2.103.026 4.197.268 6.249.717.208.047.418.072.631.077.512-.002 1.012-.151 1.442-.43.61-.394 1.03-1.02 1.161-1.732.138-.654.138-1.33 0-1.985h.4c.1 0 9.972 1.103 15.41 2.206h.223c.612.06 1.156-.384 1.22-.993.06-.61-.386-1.152-.998-1.213-5.54-1.103-15.2-2.206-15.644-2.206l-1.774-.132-.121-.133c-.047-.065-.099-.128-.155-.189l-.287-.274-.243-.221-.255-.233-.367-.242-.222-.165c-.199-.144-.409-.298-.643-.442-1.152-.696-2.409-1.206-3.722-1.51-2.218-.533-4.364-1.325-6.392-2.362l2.381-4.755c.208-.416.542-.76.954-.982l6.58-3.53c1.396 1.257 3.324 3.31 3.324 3.398.198.219.474.351.771.365.295.014.584-.088.802-.288.455-.405.495-1.101.088-1.555-1.308-1.454-2.699-2.832-4.164-4.126-.708-.56-1.449-1.08-2.216-1.556l-.222-.133c-.287-.177-.577-.354-.864-.507-.288-.154-.732-.375-1.108-.552-.23-.105-.449-.23-.654-.375-.601-.43-1.054-1.035-1.297-1.73-.09-.275-.14-.562-.155-.85 0-.307.042-.61.122-.905zm-14.74-3.37c2.207-.974 4.294-2.181 6.221-3.6.857-.628 1.964-.843 3.006-.585l-.44.293c-1.82 1.15-3.48 2.52-4.94 4.076-2.3 2.634-3.929 5.75-4.76 9.098-.078.272-.147.53-.213.791v.055c-.067.272-.136.53-.193.78-.18.76-.304 1.4-.382 1.844v.727c-.007.046-.007.094 0 .14v2.863c.012.108.012.217 0 .325-.002.03-.002.057 0 .087-.1.29-.309.535-.586.684l-.112.075-.157.055h-.752l-.226-.087h-.066l-.003-.002c-.19-.094-.35-.231-.472-.4-.126-.174-.204-.376-.226-.586l-.406-3.133-.066-.64V19.275c0-.64.057-1.313.135-2.061l.292-2.84c.048-.41.13-.817.247-1.215.005-.058.005-.115 0-.172.4-1.24 1.118-2.36 2.094-3.255.591-.571 1.266-1.056 2.004-1.44zM13 11c0 .076-.079.164-.124.24-.135.253-.26.517-.371.781-.112.264-.102.264-.148.396-.045.132-.169.493-.247.757v-.002c-.038.115-.067.234-.09.352-.089.36-.158.727-.203 1.097l-.293 2.876c0 .384-.066.745-.09 1.097v1.098l-.003.351v.813c-.004.072-.004.146 0 .22v.428l-.057.065h.003c-.195.241-.41.466-.645.67l-.112.099c-.224.19-.462.361-.712.516-.347.195-.778.195-1.128 0-.398-.206-.652-.604-.664-1.044l-.112-2.776h-.002c-.015-.551.069-1.102.247-1.625.062-.195.133-.385.217-.57l.283-.516 2.335-3.612h-.002c.466-.732 1.13-1.324 1.918-1.711zm-5 2l-1.303 2.056c-.166.264-.315.538-.445.82l-.94.12c-.425.034-.838-.152-1.092-.489-.083-.114-.147-.238-.192-.37v-.08c-.083-.384.021-.784.284-1.08.153-.157.345-.273.556-.339C5.896 13.358 6.942 13.143 8 13z" transform="translate(-440 -519) translate(128 490) translate(312 29)"></path>
        </g>
      </g>
    </g>
  </g>
</svg>
