<?xml version="1.0" encoding="UTF-8"?>
<svg xmlns="http://www.w3.org/2000/svg" width="70" height="56" viewBox="0 0 70 56">
  <g fill="none" fill-rule="evenodd">
    <g fill="#FFF" fill-rule="nonzero">
      <g>
        <g>
          <path d="M52.617 13.39c.227-.652.938-1 1.59-.773 9.097 3.14 14.976 10.101 14.98 17.726 0 5.09-2.527 9.863-7.129 13.5V54.23c0 .48-.273.918-.707 1.125-.43.211-.945.152-1.32-.144l-8.156-6.457c-2.684.695-5.446 1.047-8.22 1.047-6.007.074-11.91-1.63-16.952-4.899-.57-.387-.719-1.16-.332-1.734.386-.57 1.16-.719 1.73-.336 4.633 2.992 10.044 4.547 15.555 4.469 2.762 0 5.508-.375 8.16-1.122.387-.109.801-.023 1.118.223l6.625 5.246V43.23c0-.394.183-.765.5-1 4.273-3.2 6.625-7.422 6.625-11.887 0-6.542-5.22-12.574-13.293-15.363-.653-.226-.996-.937-.774-1.59zM26.34.52c14.078 0 25.527 8.727 25.527 19.457 0 10.727-11.453 19.457-25.527 19.457-2.77 0-5.53-.351-8.214-1.047l-8.157 6.457c-.375.297-.89.352-1.32.145-.434-.21-.707-.648-.707-1.125V33.477C3.34 29.841.816 25.067.812 19.977.812 9.251 12.265.52 26.34.52zm.001 2.5l-.39.002c-12.518.155-22.634 7.7-22.634 16.95 0 4.47 2.351 8.689 6.625 11.888.316.238.5.61.5 1.004v8.418l6.624-5.246c.317-.25.731-.332 1.114-.223 2.656.742 5.402 1.121 8.16 1.121 12.699 0 23.027-7.605 23.027-16.957 0-9.351-10.332-16.957-23.027-16.957h.001z" transform="translate(-128 -498) translate(128 490) translate(0 8)"></path>
        </g>
      </g>
    </g>
  </g>
</svg>
