<?xml version="1.0" encoding="UTF-8"?>
<svg xmlns="http://www.w3.org/2000/svg" width="72" height="57" viewBox="0 0 72 57">
  <g fill="none" fill-rule="evenodd">
    <g fill="#FFF" fill-rule="nonzero">
      <g>
        <g>
          <path d="M50.916.5l-.003.012c7.058 0 12.836 5.8 12.856 12.876v5.78h7.785V56.5H31.11V44.055h6.221v6.221H65.33V25.39H37.33v6.22h-6.22V19.17l26.437-.001V13.4c-.01-3.662-2.827-6.548-6.395-6.669l-.234-.004c-3.669.012-6.594 2.957-6.591 6.696h-6.22C38.1 6.348 43.857.5 50.915.5zm-29.6 40.443c-1.353 4.477-5.534 7.773-10.429 7.773C4.911 48.716 0 43.804 0 37.828s4.911-10.887 10.887-10.887c4.899 0 9.082 3.3 10.431 7.781h31.567v9.333h-6.22v-3.112zm-10.429-7.781c-2.613 0-4.666 2.053-4.666 4.666 0 2.614 2.053 4.667 4.666 4.667 2.614 0 4.667-2.053 4.667-4.667 0-2.613-2.053-4.666-4.667-4.666z" transform="translate(-752 -502) translate(128 490) translate(624 12)"></path>
        </g>
      </g>
    </g>
  </g>
</svg>
