<?xml version="1.0" encoding="UTF-8"?>
<svg xmlns="http://www.w3.org/2000/svg" width="64" height="72" viewBox="0 0 64 72">
  <g fill="none" fill-rule="evenodd">
    <g fill="#FFF" fill-rule="nonzero">
      <g>
        <g>
          <path d="M49.644 33.795c9.472 0 13.791 6.216 13.942 6.518.53.835.53 1.895.003 2.807l-4.245 5.985c-.456.607-1.213.986-1.971.986-.53 0-.983-.154-1.439-.456-.15-.074-.302-.225-.379-.302v1.666l1.516 18.036c.074 1.516-.986 2.804-2.501 2.954h-.228c-1.442 0-2.579-1.062-2.73-2.5l-1.438-17.353-.909-.003-1.438 17.352c-.151 1.516-1.439 2.653-2.955 2.502-1.515-.151-2.652-1.439-2.5-2.955l1.515-18.036V49.33c-.151.074-.228.225-.38.302-.452.305-.982.456-1.438.456-.758 0-1.515-.305-1.971-.986l-4.245-5.985c-.607-.832-.607-1.969-.077-2.804.15-.302 4.396-6.515 13.868-6.518zm-20.7-5.231l.163.004c1.288.077 2.35 1.214 2.277 2.575-.077.835-.38 5.154-3.032 7.427-1.136.986-2.652 1.439-4.244 1.288-1.593-.228-2.88-.38-4.017-.607l.228 30.01c.077 1.515-1.137 2.729-2.653 2.729-1.515 0-2.729-1.137-2.729-2.652l-.228-17.201h-1.06l-4.09 17.73c-.302 1.288-1.439 2.123-2.653 2.123-.227 0-.378 0-.606-.077-1.442-.302-2.35-1.818-1.969-3.256L8.5 50.77v-1.515c-.151.074-.228.225-.379.302-.453.305-.983.456-1.439.456-.757 0-1.515-.305-1.971-.986L.465 43.043c-.607-.832-.607-1.969-.077-2.804.029-.029.123-.155.286-.354l.135-.163c1.304-1.549 5.617-6 13.521-6 2.501 0 4.245.301 6.293.68 1.21.228 2.424.456 4.091.607.302 0 .379-.074.53-.151.758-.68 1.21-2.726 1.287-3.94.074-1.365 1.211-2.427 2.576-2.35zm15.017 11.294c-1.365.606-2.35 1.364-3.031 1.971l2.954 4.168zm-35.466 0c-1.287.606-2.273 1.364-2.954 1.971l2.954 4.094zm46.983.002v6.063l2.955-4.091c-.604-.607-1.59-1.365-2.955-1.972zM14.33 21.52c2.972 0 5.382 2.41 5.382 5.381 0 2.972-2.41 5.382-5.382 5.382-2.972 0-5.378-2.41-5.378-5.382 0-2.972 2.406-5.381 5.378-5.381zm35.314 0c2.972 0 5.378 2.41 5.378 5.381 0 2.972-2.406 5.382-5.378 5.382s-5.382-2.41-5.382-5.382c0-2.972 2.41-5.381 5.382-5.381zM35.096 0c7.272 0 13.183 4.926 13.183 11.065.002 6.136-5.91 11.139-13.18 10.985-1.063 0-2.122-.074-3.108-.302-1.442 1.365-4.094 3.26-8.185 3.487-.684.077-1.063-.758-.607-1.287 1.288-1.365 2.274-3.488 2.803-4.926-2.498-1.972-4.09-4.849-4.09-7.957C21.912 4.925 27.82 0 35.096 0zm-.832 7.504c-1.442-1.515-4.017-1.29-5.154.681-.758 1.21-.453 2.88.607 3.94l4.849 4.848c.305.302.683.302.985 0l4.982-4.982c1.367-1.46 1.093-3.917-.89-5.017-1.211-.757-2.88-.453-3.94.607l-.681.68z" transform="translate(-1064 -490) translate(128 490) translate(936)"></path>
        </g>
      </g>
    </g>
  </g>
</svg>
