<?xml version="1.0" encoding="UTF-8"?>
<svg xmlns="http://www.w3.org/2000/svg" width="149" height="59" viewBox="0 0 149 59">
  <g fill="none">
    <path fill="#B8BF34" d="M44.009 56.58c-.037-.68.219-1.344.707-1.833.488-.49 1.163-.76 1.865-.746.486-.012.967.106 1.389.342 0 .366-.077.728-.226 1.064-.333-.324-.785-.505-1.256-.503-.42.007-.818.184-1.096.49-.278.306-.411.71-.366 1.116-.035.422.118.838.42 1.142.303.305.726.47 1.161.451.505-.007.993-.175 1.39-.477.014.289-.017.578-.094.858-.453.343-1.013.525-1.588.516-.647.006-1.266-.254-1.705-.714-.44-.46-.658-1.08-.601-1.705M52.76 55.311c-.924-.367-1.596.538-1.596 2.157v1.508c-.336.032-.675.032-1.011 0V56.039c0-.596-.05-1.19-.153-1.777.276-.111.564-.19.858-.236.14.464.229.94.266 1.423.232-.838.994-1.427 1.876-1.449.006.45-.08.895-.253 1.311M57.877 57.592c.027.284.012.57-.044.85-.457.365-1.022.562-1.603.558-.627.012-1.228-.25-1.652-.72-.425-.47-.63-1.104-.566-1.74-.049-.655.172-1.3.61-1.781.437-.482 1.052-.755 1.695-.755.468-.034.927.148 1.25.495.324.347.478.824.421 1.3.007.301-.031.602-.111.893l-2.909.044c.067.806.75 1.41 1.542 1.363.508-.004 1-.183 1.398-.507m-2.915-1.56l2.026-.07c.024-.105.037-.214.037-.322.017-.22-.064-.434-.219-.586-.155-.152-.369-.226-.582-.2-.64.032-1.165.53-1.243 1.179M64.072 58.947c-.175-.383-.287-.79-.33-1.206-.252.75-.973 1.258-1.787 1.259-1.176 0-1.952-.986-1.952-2.331-.035-.788.277-1.553.86-2.104.583-.55 1.38-.834 2.192-.78.23-.004.46.011.687.046v-2.545c.336-.12.68-.216 1.031-.286v5.995c-.017.596.06 1.191.227 1.765-.273.129-.57.201-.873.213m-.385-2.79V54.85c-.269-.096-.552-.145-.839-.146-.499-.013-.98.18-1.325.53-.344.35-.52.825-.482 1.308 0 .866.46 1.505 1.161 1.505.701 0 1.485-.759 1.485-1.885M67.003 52.542c.026-.308.24-.542.497-.542.256 0 .47.234.497.542.02.23-.07.453-.232.576-.162.122-.368.122-.53 0-.162-.123-.252-.346-.232-.576m.92 6.434c-.269.032-.54.032-.809 0V54.337c.26-.114.527-.204.798-.27v4.884M71.9 58.64c-.289.233-.638.359-.997.358-.34.02-.671-.126-.904-.397-.232-.272-.343-.641-.301-1.01v-2.613H69c.043-.253.072-.509.086-.766l.658-.113.11-.885c.23-.092.467-.163.708-.214v1.212H71.9c-.014.257-.043.513-.087.766h-1.24v2.381c0 .578.266.766.624.766.29-.007.57-.115.801-.308.01.278-.019.556-.087.823M81.05 58.968c-.197-.385-.322-.797-.369-1.218-.27.752-1.065 1.258-1.956 1.244-1.073 0-1.725-.61-1.725-1.738V54.27c.354-.114.717-.204 1.087-.269v3.058c0 .64.37 1.025.956 1.025.856 0 1.624-.73 1.624-1.8v-.674-1.474c.363-.035.73-.035 1.094 0V57.096c-.019.574.062 1.147.239 1.699-.288.123-.601.193-.92.205M87.953 57.442c-.008.496.008.991.047 1.485-.296.054-.596.078-.896.072v-3.042c0-.654-.299-1.047-.773-1.047-.691 0-1.306.753-1.306 1.839v2.198c-.296.032-.594.032-.89 0v-2.931c0-.594-.045-1.187-.135-1.773.243-.111.496-.19.755-.236.103.407.171.823.205 1.243.228-.765.878-1.273 1.6-1.25.872 0 1.393.655 1.393 1.774v1.668zM91 52.594c-.004-.16.047-.313.14-.426.095-.112.224-.173.357-.168.134-.003.262.058.357.17.095.112.147.265.146.424.001.16-.051.313-.146.426-.094.113-.223.176-.357.174-.133.002-.26-.061-.355-.174-.093-.113-.145-.267-.142-.426m.92 6.382c-.269.032-.539.032-.807 0v-4.601c.26-.114.529-.204.801-.268V58.95M93.007 56.654c-.039-.681.22-1.348.718-1.848.499-.5 1.194-.791 1.926-.806.654-.007 1.28.242 1.727.688.445.445.668 1.045.614 1.652.041.682-.217 1.35-.716 1.852-.498.502-1.194.793-1.928.808-.654.004-1.279-.248-1.724-.694-.445-.446-.669-1.045-.617-1.652m3.932-.186c.046-.385-.081-.77-.351-1.066-.27-.295-.659-.473-1.075-.492-.426.026-.823.213-1.098.518-.274.306-.402.702-.354 1.098-.046.384.08.768.348 1.063.269.295.656.474 1.07.494.428-.024.827-.21 1.103-.515.275-.306.405-.703.357-1.1M103.953 57.448c-.008.494.007.988.047 1.48-.297.053-.597.077-.897.071V55.969c0-.652-.3-1.043-.775-1.043-.692 0-1.307.75-1.307 1.831v2.19c-.295.032-.592.032-.886 0v-2.92c0-.591-.045-1.182-.135-1.766.243-.11.497-.188.757-.234.107.398.181.806.222 1.218.228-.762.88-1.268 1.602-1.244.874 0 1.396.651 1.396 1.766l-.024 1.681z"></path>
    <path fill="#0A3254" d="M67 8H69V10H67z"></path>
    <path fill="#0A3254" d="M80.217 6v9.43c0 4.191-2.94 5.526-5.526 5.526-2.587 0-5.526-1.341-5.526-5.526v-2.556h-2.401v-2.501h-2.382v2.501H62v2.837h2.395v-1.22h1.165v1.22h-1.172C64.536 22.545 69.94 25 74.691 25 79.442 25 85 22.478 85 15.43V6h-4.783zM64 6H66V8H64z"></path>
    <path fill="#B8BF34" d="M62 8H64V10H62z"></path>
    <path fill="#EF4129" d="M59 11H61V13H59z"></path>
    <path fill="#0A3254" d="M60 7H61V8H60z"></path>
    <path fill="#B8BF34" d="M59 6H60V7H59z"></path>
    <path fill="#0A3254" d="M65 2H66V3H65zM63 0H64V1H63zM57 13H58V14H57z"></path>
    <path fill="#B8BF34" d="M67 3H69V5H67z"></path>
    <path fill="#0A3254" d="M11.52 32H15v9.578C15 46.308 11.006 48 7.5 48S0 46.307 0 41.578V32h3.48v9.578c0 2.813 2.142 3.71 4.02 3.71 1.878 0 4.02-.897 4.02-3.71V32zM37 34H40V47H37zM61 47L61 34 74 34 74 36.775 64.448 36.775 64.448 39.232 72.211 39.232 72.211 41.768 64.448 41.768 64.448 44.232 74 44.232 74 47zM111 34H114V47H111zM122.333 47L122.333 37.033 117 37.033 117 34 131 34 131 37.033 125.686 37.033 125.686 47zM138.75 47L138.75 42.603 132 34 136.261 34 140.497 39.649 144.739 34 149 34 142.243 42.603 142.243 47zM88.785 42.858c1.734-.707 2.858-2.38 2.838-4.227 0-1.84-1.21-4.631-5.38-4.631H77v12.993h3.552v-3.678h4.654l1.655 2.401c1.856 2.646 3.363 2.68 5.139 1.674l-3.215-4.532zm-8.233-5.828h4.863c2.105 0 2.394.953 2.394 1.6 0 .65-.289 1.628-2.394 1.628h-4.863V37.03zM52.172 47L60 34 56.19 34 50.963 42.854 45.816 34 42 34 49.76 47zM21.503 47L21.503 39.391 30.778 47 33 47 33 34 32.741 34 29.497 34 29.497 41.609 20.136 34 18 34 18 47 19.108 47zM97.387 37.97c0-.875 1.9-1.124 4.201-1.124 1.694-.02 3.385.147 5.042.498l.148-2.82c-1.919-.348-3.866-.523-5.817-.524-3.038 0-6.961.498-6.961 4.097 0 5.929 10.613 2.7 10.613 4.876 0 .976-2.107 1.174-4.764 1.174-1.814.007-3.626-.115-5.422-.363v2.84c1.966.244 3.945.37 5.927.376 3.8 0 7.646-.53 7.646-4.13 0-5.947-10.607-2.845-10.607-4.9"></path>
  </g>
</svg>
