<svg xmlns="http://www.w3.org/2000/svg" width="72" height="86" viewBox="0 0 72 86">
    <g fill="none" fill-rule="evenodd">
        <g fill="#FFF" fill-rule="nonzero">
            <g>
                <g>
                    <path d="M64.354 43.898c1.263-4.32 7.112-3.24 7.018 1.438-.18 4.592-1.8 19.98-6.3 25.2-2.071 2.338-5.759 5.58-9.63 8.28-.632.45-.991 1.17-.991 1.891v3.15c0 .988-.809 1.709-1.709 1.709H41.763c-.988 0-1.708-.717-1.708-1.709 0-1.891.091-5.041.27-7.741.271-5.58 1.98-10.8 3.33-13.05 1.258-2.071 3.33-4.588 5.4-6.93l.451-.516.906-1.035c1.355-1.551 2.672-3.104 3.684-4.657.988-1.442 2.7-1.442 3.959-.72 1.533.808 2.612 2.878.991 6.028-.808 1.709-2.791 3.868-4.95 6.209-.088.18-.267.27-.358.45-.45.541-.359 1.35.27 1.8.45.27 1.171.18 1.53-.27.179-.089.267-.268.358-.36 1.62-1.8 3.15-3.42 4.23-4.95.45-.629.808-1.258 1.079-1.8 1.258-2.429 1.258-4.5.63-6.208 1.078-2.43 2.07-4.767 2.52-6.208zM.01 45.161c-.27-4.592 5.58-5.671 6.93-1.35.45 1.529 1.44 3.779 2.52 6.208-.63 1.617-.63 3.78.63 6.209.27.629.629 1.17 1.079 1.8 1.079 1.529 2.608 3.15 4.229 4.95l.359.358c.358.45 1.079.63 1.529.271.63-.359.72-1.259.27-1.8-.087-.18-.267-.27-.358-.45-2.07-2.338-4.05-4.5-4.95-6.209-1.617-3.058-.538-5.129.991-6.029 1.259-.72 3.059-.72 3.959.72 1.35 1.98 3.241 4.139 5.041 6.21 2.159 2.429 4.23 4.95 5.4 6.929 1.35 2.158 3.059 7.47 3.509 12.962l.032.994.032 1.002c.069 2.17.136 4.299.206 5.745 0 .9-.717 1.709-1.708 1.709h-10.98c-.987 0-1.708-.809-1.708-1.709v-3.15c0-.812-.362-1.441-.991-1.891-3.87-2.7-7.559-5.938-9.63-8.28C1.9 65.14.28 49.753.01 45.16zM35.105.069c.362-.092.812-.092 1.17 0l21.78 7.2c.808.179 1.35.991 1.35 1.8v28.617c0 .9-.538 1.62-1.262 1.803l-21.78 7.2c-.179.092-.45.092-.629.092h-.152c-.19-.004-.334-.018-.477-.092l-21.78-7.2c-.808-.179-1.35-.991-1.35-1.8V9.07c0-.809.542-1.53 1.35-1.8zm-19.35 11.7h-.088V36.43l17.909 5.85V17.71l-7.021-2.342.003 14.671c0 .992-.812 1.892-1.891 1.892-.992 0-1.892-.813-1.892-1.892V14.11l-7.02-2.341zm39.87 0l-17.909 5.85-.003 24.662 7.02-2.341V28.598c0-.992.813-1.892 1.892-1.892.992 0 1.892.812 1.892 1.892v10.079l7.108-2.337V11.77zM35.647 3.936L19.988 9.065l4.859 1.62 8.012-3.058c1.079-.358 2.162.18 2.52 1.17.359 1.08-.179 2.163-1.17 2.522l-3.421 1.258 4.859 1.62 15.658-5.132-15.658-5.13z" transform="translate(-1041 -1492) translate(128 1388) translate(913 104)"/>
                </g>
            </g>
        </g>
    </g>
</svg>
