<svg width="146" height="196" viewBox="0 0 146 196" fill="none" xmlns="http://www.w3.org/2000/svg">
<path d="M79.5 85L79.305 84.5396L79.5 85ZM4.00006 196L6.10165 190.623L0.393874 191.491L4.00006 196ZM4.3433 194.932C4.30276 194.659 4.04847 194.47 3.77532 194.511C3.50217 194.552 3.31359 194.806 3.35413 195.079L4.3433 194.932ZM3.07509 193.097C3.11153 193.371 3.36296 193.563 3.63669 193.527C3.91042 193.49 4.10279 193.239 4.06635 192.965L3.07509 193.097ZM3.82216 191.017C3.78992 190.743 3.54146 190.547 3.26721 190.579C2.99295 190.611 2.79676 190.86 2.829 191.134L3.82216 191.017ZM2.61024 189.135C2.63806 189.41 2.88334 189.61 3.15808 189.582C3.43281 189.554 3.63297 189.309 3.60514 189.034L2.61024 189.135ZM3.42219 187.068C3.39888 186.793 3.15692 186.589 2.88177 186.612C2.60661 186.635 2.40245 186.877 2.42576 187.152L3.42219 187.068ZM2.2742 185.164C2.29284 185.44 2.5313 185.648 2.80681 185.629C3.08233 185.611 3.29056 185.372 3.27192 185.097L2.2742 185.164ZM3.15525 183.116C3.14145 182.84 2.90668 182.627 2.63089 182.641C2.35509 182.655 2.1427 182.89 2.1565 183.166L3.15525 183.116ZM2.07512 181.186C2.08398 181.462 2.3149 181.678 2.5909 181.669C2.8669 181.661 3.08346 181.43 3.07461 181.154L2.07512 181.186ZM3.02927 179.162C3.02559 178.886 2.79877 178.665 2.52265 178.668C2.24653 178.672 2.02568 178.899 2.02936 179.175L3.02927 179.162ZM2.02171 177.186C2.02013 177.462 2.24269 177.687 2.51883 177.689C2.79497 177.69 3.02011 177.468 3.02169 177.191L2.02171 177.186ZM3.05254 175.21C3.05958 174.934 2.8415 174.704 2.56545 174.697C2.2894 174.69 2.05991 174.908 2.05287 175.184L3.05254 175.21ZM2.12388 173.188C2.11126 173.464 2.32465 173.698 2.6005 173.711C2.87635 173.723 3.11021 173.51 3.12284 173.234L2.12388 173.188ZM3.23344 171.264C3.25179 170.988 3.0433 170.75 2.76777 170.732C2.49224 170.713 2.254 170.922 2.23565 171.197L3.23344 171.264ZM2.39003 169.2C2.36579 169.475 2.56914 169.718 2.84421 169.742C3.11929 169.767 3.36193 169.563 3.38617 169.288L2.39003 169.2ZM3.58015 167.33C3.61037 167.055 3.41236 166.808 3.13788 166.778C2.86339 166.748 2.61638 166.946 2.58616 167.221L3.58015 167.33ZM2.82814 165.228C2.79175 165.502 2.98417 165.753 3.2579 165.79C3.53164 165.826 3.78304 165.634 3.81942 165.36L2.82814 165.228ZM4.1007 163.413C4.14331 163.14 3.95667 162.884 3.68383 162.842C3.411 162.799 3.15528 162.986 3.11267 163.259L4.1007 163.413ZM3.44543 161.28C3.39644 161.551 3.57704 161.811 3.84881 161.86C4.12057 161.909 4.38059 161.729 4.42957 161.457L3.44543 161.28ZM4.802 159.522C4.85741 159.252 4.68303 158.987 4.41251 158.932C4.14198 158.877 3.87775 159.051 3.82234 159.322L4.802 159.522ZM4.24799 157.364C4.18604 157.633 4.35397 157.902 4.62308 157.964C4.89218 158.025 5.16055 157.858 5.2225 157.588L4.24799 157.364ZM5.68851 155.672C5.75704 155.404 5.59573 155.132 5.32823 155.063C5.06072 154.995 4.78832 155.156 4.71979 155.423L5.68851 155.672ZM5.24033 153.491C5.16518 153.757 5.31966 154.033 5.58538 154.109C5.85109 154.184 6.12743 154.029 6.20258 153.764L5.24033 153.491ZM6.76363 151.871C6.84544 151.607 6.69795 151.327 6.4342 151.245C6.17045 151.163 5.89033 151.311 5.80852 151.575L6.76363 151.871ZM6.42505 149.672C6.33659 149.934 6.47693 150.218 6.73852 150.306C7.00011 150.395 7.28388 150.254 7.37235 149.993L6.42505 149.672ZM8.0288 148.13C8.12391 147.871 7.99085 147.584 7.73161 147.489C7.47236 147.394 7.1851 147.527 7.08999 147.786L8.0288 148.13ZM7.80255 145.918C7.70083 146.175 7.82648 146.465 8.0832 146.567C8.33992 146.669 8.6305 146.543 8.73223 146.286L7.80255 145.918ZM9.4833 144.46C9.59159 144.206 9.47345 143.912 9.21942 143.804C8.9654 143.695 8.67169 143.814 8.5634 144.068L9.4833 144.46ZM9.37092 142.239C9.25614 142.49 9.36671 142.787 9.61787 142.901C9.86903 143.016 10.1657 142.906 10.2804 142.654L9.37092 142.239ZM11.1242 140.869C11.2454 140.621 11.1425 140.321 10.8944 140.2C10.6462 140.079 10.3468 140.182 10.2257 140.43L11.1242 140.869ZM11.1259 138.645C10.9985 138.89 11.0937 139.191 11.3387 139.319C11.5837 139.446 11.8856 139.351 12.013 139.106L11.1259 138.645ZM12.9465 137.366C13.0802 137.125 12.9926 136.82 12.7509 136.687C12.5093 136.553 12.205 136.641 12.0714 136.882L12.9465 137.366ZM13.0612 135.144C12.9216 135.382 13.0015 135.689 13.2397 135.828C13.478 135.968 13.7843 135.888 13.9239 135.65L13.0612 135.144ZM14.9432 133.96C15.0887 133.725 15.0164 133.417 14.7817 133.271C14.5471 133.126 14.2388 133.198 14.0933 133.433L14.9432 133.96ZM15.1687 131.745C15.0175 131.976 15.0822 132.286 15.3132 132.437C15.5443 132.588 15.8542 132.524 16.0054 132.293L15.1687 131.745ZM17.1057 130.655C17.2624 130.428 17.2052 130.116 16.9778 129.96C16.7505 129.803 16.4391 129.86 16.2824 130.087L17.1057 130.655ZM17.4387 128.452C17.2766 128.676 17.3264 128.989 17.5499 129.151C17.7735 129.313 18.0861 129.263 18.2482 129.039L17.4387 128.452ZM19.4241 127.457C19.5914 127.237 19.5488 126.923 19.3291 126.756C19.1093 126.589 18.7956 126.631 18.6284 126.851L19.4241 127.457ZM19.8603 125.271C19.6881 125.486 19.7235 125.801 19.9393 125.973C20.1552 126.145 20.4698 126.11 20.642 125.894L19.8603 125.271ZM21.888 124.368C22.0649 124.156 22.0366 123.841 21.8246 123.664C21.6126 123.487 21.2973 123.515 21.1203 123.727L21.888 124.368ZM22.4209 122.203C22.2393 122.411 22.2608 122.727 22.4689 122.909C22.677 123.09 22.9928 123.069 23.1744 122.861L22.4209 122.203ZM24.4863 121.389C24.6723 121.185 24.6575 120.869 24.4533 120.683C24.2491 120.497 23.9329 120.512 23.7469 120.716L24.4863 121.389ZM25.1098 119.25C24.9197 119.45 24.9279 119.767 25.1282 119.957C25.3285 120.147 25.645 120.139 25.8351 119.939L25.1098 119.25ZM27.2083 118.521C27.4024 118.324 27.4005 118.008 27.2041 117.814C27.0077 117.62 26.6911 117.621 26.497 117.818L27.2083 118.521ZM27.9157 116.41C27.7178 116.603 27.7135 116.919 27.9061 117.117C28.0987 117.315 28.4153 117.319 28.6132 117.127L27.9157 116.41ZM30.0435 115.761C30.245 115.572 30.2553 115.256 30.0665 115.054C29.8777 114.853 29.5613 114.842 29.3598 115.031L30.0435 115.761ZM30.8281 113.681C30.6232 113.866 30.607 114.182 30.7921 114.387C30.9772 114.592 31.2933 114.608 31.4983 114.423L30.8281 113.681ZM32.9818 113.107C33.19 112.926 33.2118 112.61 33.0304 112.402C32.849 112.194 32.5332 112.172 32.325 112.353L32.9818 113.107ZM33.837 111.059C33.6257 111.237 33.5985 111.552 33.7762 111.764C33.954 111.975 34.2694 112.002 34.4807 111.825L33.837 111.059ZM36.014 110.557C36.2283 110.383 36.2608 110.068 36.0866 109.853C35.9125 109.639 35.5976 109.607 35.3833 109.781L36.014 110.557ZM36.9335 108.542C36.7164 108.712 36.6788 109.027 36.8495 109.244C37.0202 109.461 37.3345 109.498 37.5516 109.328L36.9335 108.542ZM39.1222 108.113C39.3419 107.945 39.3844 107.632 39.2172 107.412C39.0499 107.192 38.7362 107.15 38.5165 107.317L39.1222 108.113ZM40.1093 106.124C39.8871 106.287 39.8398 106.6 40.0037 106.823C40.1676 107.045 40.4806 107.092 40.7029 106.928L40.1093 106.124ZM42.3054 105.765C42.53 105.604 42.5818 105.292 42.4212 105.067C42.2606 104.842 41.9483 104.791 41.7237 104.951L42.3054 105.765ZM43.3574 103.8C43.1305 103.958 43.0742 104.269 43.2316 104.496C43.389 104.723 43.7006 104.779 43.9275 104.622L43.3574 103.8ZM45.5572 103.508C45.7862 103.353 45.8467 103.043 45.6924 102.814C45.5381 102.585 45.2274 102.524 44.9984 102.678L45.5572 103.508ZM46.6689 101.569C46.4379 101.72 46.3732 102.03 46.5244 102.261C46.6757 102.492 46.9856 102.557 47.2166 102.405L46.6689 101.569ZM48.8718 101.337C49.1048 101.189 49.1734 100.88 49.0251 100.647C48.8768 100.414 48.5677 100.345 48.3348 100.493L48.8718 101.337ZM50.0263 99.4314C49.7915 99.5768 49.719 99.8849 49.8644 100.12C50.0098 100.354 50.318 100.427 50.5528 100.282L50.0263 99.4314ZM52.2443 99.248C52.4807 99.1054 52.5569 98.7981 52.4143 98.5616C52.2717 98.3251 51.9644 98.249 51.7279 98.3916L52.2443 99.248ZM53.4366 97.3749C53.1985 97.5147 53.1188 97.8211 53.2586 98.0592C53.3985 98.2974 53.7049 98.377 53.943 98.2372L53.4366 97.3749ZM55.6684 97.2369C55.9081 97.0998 55.9912 96.7943 55.854 96.5546C55.7168 96.3149 55.4114 96.2318 55.1717 96.369L55.6684 97.2369ZM56.896 95.3945C56.6549 95.5291 56.5685 95.8337 56.7031 96.0748C56.8377 96.3159 57.1423 96.4023 57.3834 96.2677L56.896 95.3945ZM59.1219 95.3093C59.3644 95.1773 59.454 94.8736 59.3219 94.6311C59.1899 94.3886 58.8862 94.299 58.6437 94.4311L59.1219 95.3093ZM60.4013 93.4856C60.1574 93.6152 60.0648 93.9179 60.1944 94.1618C60.324 94.4056 60.6268 94.4982 60.8706 94.3686L60.4013 93.4856ZM62.6194 93.4501C62.8645 93.3229 62.96 93.0211 62.8328 92.776C62.7056 92.5309 62.4038 92.4353 62.1587 92.5626L62.6194 93.4501ZM63.9398 91.6488C63.6935 91.7736 63.5951 92.0745 63.72 92.3208C63.8449 92.5671 64.1458 92.6655 64.3921 92.5406L63.9398 91.6488ZM66.1585 91.655C66.4059 91.5323 66.507 91.2323 66.3844 90.9849C66.2617 90.7375 65.9618 90.6364 65.7143 90.759L66.1585 91.655ZM67.5015 89.8829C67.253 90.0033 67.1493 90.3024 67.2697 90.5509C67.3902 90.7994 67.6893 90.9032 67.9378 90.7827L67.5015 89.8829ZM69.7371 89.92C69.9866 89.8016 70.0929 89.5034 69.9746 89.2539C69.8563 89.0044 69.5581 88.8981 69.3086 89.0164L69.7371 89.92ZM71.0998 88.176C70.8493 88.2923 70.7406 88.5896 70.8568 88.84C70.9731 89.0905 71.2704 89.1993 71.5209 89.083L71.0998 88.176ZM73.3261 88.2538C73.5775 88.1395 73.6886 87.8431 73.5744 87.5917C73.4601 87.3403 73.1637 87.2292 72.9123 87.3434L73.3261 88.2538ZM74.7333 86.5243C74.481 86.6366 74.3675 86.9322 74.4799 87.1844C74.5922 87.4367 74.8877 87.5502 75.14 87.4378L74.7333 86.5243ZM76.9468 86.6415C77.1999 86.5311 77.3156 86.2364 77.2052 85.9833C77.0947 85.7302 76.8001 85.6145 76.547 85.725L76.9468 86.6415ZM78.3807 84.9329C78.1268 85.0415 78.009 85.3353 78.1176 85.5892C78.2261 85.8431 78.52 85.9609 78.7739 85.8524L78.3807 84.9329ZM80.6113 85.07C80.8651 84.9612 80.9826 84.6672 80.8738 84.4134C80.765 84.1596 80.471 84.0421 80.2172 84.1509L80.6113 85.07ZM82.0233 83.3667C81.7705 83.4779 81.6557 83.7729 81.7669 84.0257C81.878 84.2785 82.173 84.3933 82.4258 84.2821L82.0233 83.3667ZM84.225 83.4809C84.4767 83.3674 84.5888 83.0713 84.4752 82.8196C84.3617 82.5678 84.0656 82.4558 83.8139 82.5694L84.225 83.4809ZM85.6088 81.7492C85.3582 81.8652 85.2491 82.1624 85.3651 82.413C85.4811 82.6636 85.7783 82.7727 86.0289 82.6567L85.6088 81.7492ZM87.8077 81.8223C88.0571 81.7038 88.1632 81.4055 88.0446 81.1561C87.9261 80.9067 87.6278 80.8006 87.3784 80.9192L87.8077 81.8223ZM89.1597 80.0612C88.9115 80.1823 88.8086 80.4817 88.9297 80.7298C89.0509 80.978 89.3503 81.0809 89.5984 80.9598L89.1597 80.0612ZM91.3624 80.0868C91.6092 79.963 91.7089 79.6625 91.5851 79.4157C91.4613 79.1688 91.1608 79.0691 90.914 79.1929L91.3624 80.0868ZM92.6726 78.2983C92.4272 78.4249 92.3309 78.7265 92.4575 78.9719C92.5841 79.2173 92.8857 79.3136 93.1311 79.187L92.6726 78.2983ZM94.8779 78.2731C95.1218 78.1437 95.2146 77.841 95.0852 77.5971C94.9557 77.3532 94.6531 77.2604 94.4091 77.3898L94.8779 78.2731ZM96.1435 76.4561C95.9011 76.5885 95.812 76.8923 95.9444 77.1346C96.0767 77.377 96.3805 77.4661 96.6228 77.3337L96.1435 76.4561ZM98.3493 76.3769C98.5899 76.2415 98.6753 75.9366 98.5399 75.696C98.4046 75.4553 98.0997 75.3699 97.859 75.5053L98.3493 76.3769ZM99.5675 74.5298C99.3286 74.6683 99.2472 74.9742 99.3857 75.2131C99.5241 75.452 99.8301 75.5335 100.069 75.395L99.5675 74.5298ZM101.772 74.393C102.009 74.2514 102.086 73.9444 101.944 73.7073C101.803 73.4703 101.496 73.393 101.259 73.5346L101.772 74.393ZM102.939 72.5145C102.704 72.6594 102.631 72.9675 102.776 73.2025C102.921 73.4376 103.229 73.5106 103.464 73.3657L102.939 72.5145ZM105.139 72.3164C105.372 72.1682 105.44 71.8591 105.292 71.6262C105.144 71.3932 104.835 71.3246 104.602 71.4729L105.139 72.3164ZM106.252 70.4051C106.021 70.5569 105.957 70.8669 106.109 71.0976C106.261 71.3283 106.571 71.3923 106.802 71.2406L106.252 70.4051ZM108.444 70.1419C108.673 69.9866 108.732 69.6756 108.577 69.4473C108.421 69.2189 108.11 69.1597 107.882 69.315L108.444 70.1419ZM109.498 68.1966C109.273 68.3556 109.218 68.6675 109.377 68.8933C109.536 69.1191 109.848 69.1733 110.074 69.0144L109.498 68.1966ZM111.68 67.8641C111.903 67.7015 111.952 67.3887 111.79 67.1656C111.627 66.9424 111.314 66.8934 111.091 67.056L111.68 67.8641ZM112.67 65.8841C112.45 66.0506 112.406 66.3641 112.573 66.5844C112.739 66.8048 113.053 66.8484 113.273 66.6819L112.67 65.8841ZM114.837 65.478C115.055 65.3076 115.093 64.9933 114.922 64.776C114.752 64.5587 114.438 64.5206 114.22 64.691L114.837 65.478ZM115.758 63.4627C115.544 63.637 115.512 63.952 115.686 64.1661C115.86 64.3802 116.175 64.4124 116.389 64.2381L115.758 63.4627ZM117.907 62.9781C118.118 62.7997 118.144 62.4842 117.965 62.2735C117.787 62.0627 117.471 62.0365 117.261 62.2149L117.907 62.9781ZM118.751 60.9279C118.544 61.1105 118.524 61.4265 118.706 61.6336C118.889 61.8408 119.205 61.8607 119.412 61.6781L118.751 60.9279ZM120.881 60.3561C121.085 60.1693 121.098 59.8531 120.911 59.6497C120.725 59.4463 120.408 59.4328 120.205 59.6196L120.881 60.3561ZM121.637 58.276C121.438 58.4671 121.431 58.7836 121.622 58.9829C121.813 59.1823 122.13 59.189 122.329 58.9979L121.637 58.276ZM123.744 57.6118C123.939 57.4164 123.939 57.0998 123.744 56.9047C123.548 56.7096 123.232 56.7098 123.037 56.9052L123.744 57.6118ZM124.405 55.5037C124.214 55.7035 124.222 56.02 124.421 56.2106C124.621 56.4013 124.938 56.3939 125.128 56.1941L124.405 55.5037ZM126.482 54.7423C126.668 54.5381 126.653 54.2219 126.449 54.036C126.245 53.8501 125.928 53.8649 125.742 54.0691L126.482 54.7423ZM127.04 52.609C126.859 52.8176 126.882 53.1333 127.09 53.3143C127.299 53.4953 127.615 53.4729 127.796 53.2643L127.04 52.609ZM129.08 51.7462C129.256 51.5332 129.226 51.2181 129.013 51.0423C128.8 50.8666 128.484 50.8969 128.309 51.1099L129.08 51.7462ZM129.534 49.5855C129.364 49.803 129.402 50.1172 129.619 50.2875C129.837 50.4577 130.151 50.4195 130.321 50.202L129.534 49.5855ZM131.525 48.6234C131.689 48.4016 131.643 48.0885 131.421 47.924C131.199 47.7595 130.886 47.8059 130.721 48.0277L131.525 48.6234ZM131.867 46.4396C131.708 46.6657 131.763 46.9775 131.989 47.136C132.215 47.2945 132.527 47.2397 132.686 47.0136L131.867 46.4396ZM133.801 45.3756C133.953 45.1452 133.89 44.835 133.66 44.6828C133.429 44.5305 133.119 44.5938 132.967 44.8241L133.801 45.3756ZM134.025 43.1745C133.879 43.409 133.951 43.7173 134.185 43.8631C134.42 44.0089 134.728 43.9369 134.874 43.7024L134.025 43.1745ZM135.897 42.003C136.036 41.7644 135.956 41.4583 135.717 41.3192C135.479 41.1801 135.172 41.2608 135.033 41.4993L135.897 42.003ZM135.995 39.7949C135.862 40.0374 135.952 40.341 136.194 40.4732C136.437 40.6053 136.74 40.5159 136.873 40.2734L135.995 39.7949ZM137.797 38.5163C137.922 38.27 137.824 37.9691 137.578 37.8441C137.332 37.7191 137.031 37.8173 136.906 38.0635L137.797 38.5163ZM137.765 36.3073C137.648 36.557 137.755 36.855 138.004 36.9727C138.254 37.0904 138.552 36.9833 138.67 36.7335L137.765 36.3073ZM139.49 34.9245C139.6 34.6714 139.484 34.3767 139.231 34.2665C138.978 34.1562 138.683 34.2721 138.573 34.5253L139.49 34.9245ZM139.327 32.7209C139.224 32.9772 139.349 33.2682 139.605 33.3709C139.862 33.4736 140.153 33.349 140.255 33.0926L139.327 32.7209ZM140.966 31.2379C141.061 30.9786 140.928 30.6914 140.669 30.5965C140.409 30.5015 140.122 30.6347 140.027 30.894L140.966 31.2379ZM140.672 29.0485C140.585 29.3105 140.727 29.5936 140.989 29.6808C141.251 29.768 141.534 29.6263 141.621 29.3643L140.672 29.0485ZM142.22 27.47C142.299 27.2055 142.149 26.9268 141.885 26.8474C141.62 26.768 141.342 26.9181 141.262 27.1826L142.22 27.47ZM141.797 25.3018C141.725 25.5685 141.883 25.8427 142.15 25.9143C142.417 25.9858 142.691 25.8276 142.762 25.5609L141.797 25.3018ZM143.249 23.6365C143.312 23.3678 143.146 23.0983 142.878 23.0346C142.609 22.9709 142.339 23.137 142.276 23.4057L143.249 23.6365ZM142.7 21.4933C142.644 21.7637 142.818 22.0283 143.088 22.0842C143.359 22.1402 143.623 21.9663 143.679 21.6959L142.7 21.4933ZM144.053 19.7497C144.101 19.4778 143.92 19.2183 143.648 19.1701C143.376 19.1218 143.117 19.3031 143.068 19.575L144.053 19.7497ZM143.384 17.6412C143.343 17.9143 143.531 18.1687 143.805 18.2093C144.078 18.2499 144.332 18.0614 144.373 17.7882L143.384 17.6412ZM144.637 15.8231C144.67 15.549 144.475 15.2999 144.201 15.2668C143.927 15.2337 143.678 15.4291 143.644 15.7032L144.637 15.8231ZM143.853 13.7576C143.827 14.0326 144.029 14.2763 144.304 14.302C144.579 14.3278 144.823 14.1258 144.849 13.8508L143.853 13.7576ZM145.008 11.8698C145.026 11.5943 144.818 11.3559 144.542 11.3374C144.267 11.3189 144.028 11.5273 144.01 11.8028L145.008 11.8698ZM144.116 9.85218C144.104 10.1281 144.319 10.361 144.595 10.3725C144.87 10.384 145.103 10.1696 145.115 9.8937L144.116 9.85218ZM145.173 7.90487C145.177 7.62876 144.957 7.40123 144.681 7.39666C144.405 7.39209 144.177 7.61222 144.173 7.88832L145.173 7.90487ZM144.181 5.93577C144.183 6.21191 144.409 6.43406 144.685 6.43196C144.961 6.42987 145.183 6.20432 145.181 5.92818L144.181 5.93577ZM145.143 3.94279C145.134 3.66678 144.903 3.45 144.627 3.45859C144.351 3.46719 144.135 3.69791 144.143 3.97392L145.143 3.94279ZM144.06 2.01816C144.075 2.2939 144.31 2.50537 144.586 2.49049C144.862 2.47561 145.073 2.24002 145.058 1.96428L144.06 2.01816ZM4.06635 192.965C3.9795 192.313 3.89811 191.663 3.82216 191.017L2.829 191.134C2.90555 191.785 2.98758 192.439 3.07509 193.097L4.06635 192.965ZM3.60514 189.034C3.53842 188.376 3.47744 187.72 3.42219 187.068L2.42576 187.152C2.48148 187.81 2.54296 188.471 2.61024 189.135L3.60514 189.034ZM3.27192 185.097C3.227 184.433 3.18812 183.773 3.15525 183.116L2.1565 183.166C2.18966 183.828 2.22889 184.495 2.2742 185.164L3.27192 185.097ZM3.07461 181.154C3.05319 180.486 3.03808 179.822 3.02927 179.162L2.02936 179.175C2.03826 179.842 2.0535 180.512 2.07512 181.186L3.07461 181.154ZM3.02169 177.191C3.0255 176.527 3.0358 175.867 3.05254 175.21L2.05287 175.184C2.03595 175.848 2.02556 176.515 2.02171 177.186L3.02169 177.191ZM3.12284 173.234C3.15307 172.574 3.18995 171.917 3.23344 171.264L2.23565 171.197C2.19169 171.857 2.15443 172.521 2.12388 173.188L3.12284 173.234ZM3.38617 169.288C3.44403 168.632 3.50869 167.979 3.58015 167.33L2.58616 167.221C2.5139 167.877 2.44852 168.537 2.39003 169.2L3.38617 169.288ZM3.81942 165.36C3.90619 164.707 3.99996 164.058 4.1007 163.413L3.11267 163.259C3.01075 163.911 2.9159 164.568 2.82814 165.228L3.81942 165.36ZM4.42957 161.457C4.54653 160.808 4.67068 160.163 4.802 159.522L3.82234 159.322C3.68943 159.97 3.56378 160.623 3.44543 161.28L4.42957 161.457ZM5.2225 157.588C5.3705 156.946 5.52585 156.307 5.68851 155.672L4.71979 155.423C4.55509 156.066 4.39781 156.713 4.24799 157.364L5.2225 157.588ZM6.20258 153.764C6.38214 153.129 6.56917 152.498 6.76363 151.871L5.80852 151.575C5.61157 152.21 5.42216 152.849 5.24033 153.491L6.20258 153.764ZM7.37235 149.993C7.58363 149.368 7.80246 148.747 8.0288 148.13L7.08999 147.786C6.86072 148.411 6.63906 149.04 6.42505 149.672L7.37235 149.993ZM8.73223 146.286C8.97503 145.674 9.2254 145.065 9.4833 144.46L8.5634 144.068C8.30214 144.68 8.04851 145.297 7.80255 145.918L8.73223 146.286ZM10.2804 142.654C10.5542 142.055 10.8355 141.46 11.1242 140.869L10.2257 140.43C9.93313 141.029 9.64821 141.632 9.37092 142.239L10.2804 142.654ZM12.013 139.106C12.3167 138.522 12.6279 137.943 12.9465 137.366L12.0714 136.882C11.7487 137.466 11.4335 138.053 11.1259 138.645L12.013 139.106ZM13.9239 135.65C14.2563 135.083 14.5961 134.52 14.9432 133.96L14.0933 133.433C13.7419 134 13.3978 134.57 13.0612 135.144L13.9239 135.65ZM16.0054 132.293C16.365 131.743 16.7317 131.197 17.1057 130.655L16.2824 130.087C15.9039 130.636 15.5327 131.189 15.1687 131.745L16.0054 132.293ZM18.2482 129.039C18.6332 128.509 19.0251 127.981 19.4241 127.457L18.6284 126.851C18.2248 127.381 17.8282 127.915 17.4387 128.452L18.2482 129.039ZM20.642 125.894C21.0505 125.382 21.4658 124.873 21.888 124.368L21.1203 123.727C20.6935 124.238 20.2735 124.753 19.8603 125.271L20.642 125.894ZM23.1744 122.861C23.6051 122.367 24.0424 121.877 24.4863 121.389L23.7469 120.716C23.2983 121.209 22.8563 121.704 22.4209 122.203L23.1744 122.861ZM25.8351 119.939C26.2864 119.463 26.7442 118.99 27.2083 118.521L26.497 117.818C26.0282 118.292 25.5658 118.77 25.1098 119.25L25.8351 119.939ZM28.6132 117.127C29.0838 116.669 29.5605 116.213 30.0435 115.761L29.3598 115.031C28.8723 115.488 28.3909 115.948 27.9157 116.41L28.6132 117.127ZM31.4983 114.423C31.9868 113.982 32.4813 113.543 32.9818 113.107L32.325 112.353C31.8201 112.793 31.3211 113.236 30.8281 113.681L31.4983 114.423ZM34.4807 111.825C34.9861 111.399 35.4972 110.977 36.014 110.557L35.3833 109.781C34.8621 110.204 34.3467 110.631 33.837 111.059L34.4807 111.825ZM37.5516 109.328C38.0696 108.92 38.5932 108.515 39.1222 108.113L38.5165 107.317C37.9834 107.723 37.4557 108.131 36.9335 108.542L37.5516 109.328ZM40.7029 106.928C41.2318 106.538 41.766 106.15 42.3054 105.765L41.7237 104.951C41.1803 105.34 40.6422 105.73 40.1093 106.124L40.7029 106.928ZM43.9275 104.622C44.4657 104.248 45.009 103.877 45.5572 103.508L44.9984 102.678C44.4464 103.05 43.8994 103.424 43.3574 103.8L43.9275 104.622ZM47.2166 102.405C47.7636 102.047 48.3154 101.691 48.8718 101.337L48.3348 100.493C47.7748 100.85 47.2195 101.208 46.6689 101.569L47.2166 102.405ZM50.5528 100.282C51.112 99.9352 51.6759 99.5907 52.2443 99.248L51.7279 98.3916C51.1562 98.7363 50.5889 99.0829 50.0263 99.4314L50.5528 100.282ZM53.943 98.2372C54.5137 97.902 55.0888 97.5686 55.6684 97.2369L55.1717 96.369C54.5889 96.7025 54.0105 97.0378 53.4366 97.3749L53.943 98.2372ZM57.3834 96.2677C57.9587 95.9466 58.5382 95.6272 59.1219 95.3093L58.6437 94.4311C58.057 94.7506 57.4744 95.0717 56.896 95.3945L57.3834 96.2677ZM60.8706 94.3686C61.4496 94.0609 62.0325 93.7548 62.6194 93.4501L62.1587 92.5626C61.5689 92.8687 60.9831 93.1764 60.4013 93.4856L60.8706 94.3686ZM64.3921 92.5406C64.9771 92.244 65.5659 91.9488 66.1585 91.655L65.7143 90.759C65.119 91.0541 64.5275 91.3507 63.9398 91.6488L64.3921 92.5406ZM67.9378 90.7827C68.5338 90.4938 69.1336 90.2062 69.7371 89.92L69.3086 89.0164C68.7025 89.3038 68.1002 89.5927 67.5015 89.8829L67.9378 90.7827ZM71.5209 89.083C72.1191 88.8053 72.7208 88.5289 73.3261 88.2538L72.9123 87.3434C72.3046 87.6196 71.7004 87.8971 71.0998 88.176L71.5209 89.083ZM75.14 87.4378C75.7389 87.1712 76.3412 86.9058 76.9468 86.6415L76.547 85.725C75.939 85.9902 75.3345 86.2566 74.7333 86.5243L75.14 87.4378ZM78.7739 85.8524C79.0801 85.7214 79.3871 85.5908 79.695 85.4604L79.305 84.5396C78.9961 84.6704 78.688 84.8015 78.3807 84.9329L78.7739 85.8524ZM79.695 85.4604C80.0014 85.3307 80.3069 85.2005 80.6113 85.07L80.2172 84.1509C79.9142 84.2808 79.6101 84.4104 79.305 84.5396L79.695 85.4604ZM82.4258 84.2821C83.0296 84.0166 83.6294 83.7496 84.225 83.4809L83.8139 82.5694C83.2211 82.8367 82.6243 83.1025 82.0233 83.3667L82.4258 84.2821ZM86.0289 82.6567C86.6261 82.3802 87.219 82.1021 87.8077 81.8223L87.3784 80.9192C86.7928 81.1975 86.2029 81.4741 85.6088 81.7492L86.0289 82.6567ZM89.5984 80.9598C90.1909 80.6705 90.7789 80.3795 91.3624 80.0868L90.914 79.1929C90.3337 79.4841 89.7489 79.7735 89.1597 80.0612L89.5984 80.9598ZM93.1311 79.187C93.718 78.8842 94.3003 78.5796 94.8779 78.2731L94.4091 77.3898C93.835 77.6944 93.2562 77.9973 92.6726 78.2983L93.1311 79.187ZM96.6228 77.3337C97.2032 77.0167 97.7787 76.6978 98.3493 76.3769L97.859 75.5053C97.2921 75.8241 96.7203 76.1411 96.1435 76.4561L96.6228 77.3337ZM100.069 75.395C100.642 75.0631 101.209 74.7291 101.772 74.393L101.259 73.5346C100.7 73.8684 100.136 74.2001 99.5675 74.5298L100.069 75.395ZM103.464 73.3657C104.028 73.0181 104.586 72.6684 105.139 72.3164L104.602 71.4729C104.053 71.8222 103.499 72.1694 102.939 72.5145L103.464 73.3657ZM106.802 71.2406C107.355 70.8767 107.902 70.5104 108.444 70.1419L107.882 69.315C107.344 69.6806 106.801 70.044 106.252 70.4051L106.802 71.2406ZM110.074 69.0144C110.615 68.6334 111.151 68.25 111.68 67.8641L111.091 67.056C110.566 67.4386 110.035 67.8188 109.498 68.1966L110.074 69.0144ZM113.273 66.6819C113.801 66.2832 114.322 65.8819 114.837 65.478L114.22 64.691C113.71 65.0912 113.193 65.4889 112.67 65.8841L113.273 66.6819ZM116.389 64.2381C116.902 63.8208 117.408 63.4008 117.907 62.9781L117.261 62.2149C116.766 62.6334 116.265 63.0493 115.758 63.4627L116.389 64.2381ZM119.412 61.6781C119.909 61.2403 120.398 60.7997 120.881 60.3561L120.205 59.6196C119.727 60.0585 119.242 60.4946 118.751 60.9279L119.412 61.6781ZM122.329 58.9979C122.808 58.5389 123.28 58.0769 123.744 57.6118L123.037 56.9052C122.577 57.365 122.111 57.822 121.637 58.276L122.329 58.9979ZM125.128 56.1941C125.587 55.7134 126.038 55.2295 126.482 54.7423L125.742 54.0691C125.304 54.5504 124.858 55.0286 124.405 55.5037L125.128 56.1941ZM127.796 53.2643C128.232 52.7616 128.66 52.2556 129.08 51.7462L128.309 51.1099C127.894 51.6128 127.471 52.1125 127.04 52.609L127.796 53.2643ZM130.321 50.202C130.731 49.6793 131.132 49.1531 131.525 48.6234L130.721 48.0277C130.334 48.5503 129.938 49.0696 129.534 49.5855L130.321 50.202ZM132.686 47.0136C133.066 46.4712 133.438 45.9252 133.801 45.3756L132.967 44.8241C132.609 45.3661 132.242 45.9046 131.867 46.4396L132.686 47.0136ZM134.874 43.7024C135.224 43.1396 135.565 42.5732 135.897 42.003L135.033 41.4993C134.706 42.0613 134.37 42.6197 134.025 43.1745L134.874 43.7024ZM136.873 40.2734C137.19 39.6915 137.498 39.1058 137.797 38.5163L136.906 38.0635C136.611 38.6444 136.307 39.2215 135.995 39.7949L136.873 40.2734ZM138.67 36.7335C138.952 36.1344 139.226 35.5314 139.49 34.9245L138.573 34.5253C138.313 35.1231 138.043 35.717 137.765 36.3073L138.67 36.7335ZM140.255 33.0926C140.501 32.4783 140.738 31.8601 140.966 31.2379L140.027 30.894C139.803 31.5068 139.569 32.1158 139.327 32.7209L140.255 33.0926ZM141.621 29.3643C141.83 28.7368 142.029 28.1054 142.22 27.47L141.262 27.1826C141.074 27.8084 140.878 28.4304 140.672 29.0485L141.621 29.3643ZM142.762 25.5609C142.934 24.9233 143.096 24.2818 143.249 23.6365L142.276 23.4057C142.125 24.0416 141.965 24.6736 141.797 25.3018L142.762 25.5609ZM143.679 21.6959C143.813 21.051 143.937 20.4022 144.053 19.7497L143.068 19.575C142.954 20.2183 142.832 20.8577 142.7 21.4933L143.679 21.6959ZM144.373 17.7882C144.47 17.1369 144.558 16.4819 144.637 15.8231L143.644 15.7032C143.566 16.353 143.479 16.999 143.384 17.6412L144.373 17.7882ZM144.849 13.8508C144.91 13.1941 144.963 12.5338 145.008 11.8698L144.01 11.8028C143.966 12.4581 143.914 13.1097 143.853 13.7576L144.849 13.8508ZM145.115 9.8937C145.142 9.23433 145.162 8.57139 145.173 7.90487L144.173 7.88832C144.162 8.54659 144.143 9.2012 144.116 9.85218L145.115 9.8937ZM145.181 5.92818C145.176 5.26983 145.163 4.60803 145.143 3.94279L144.143 3.97392C144.164 4.6314 144.176 5.28534 144.181 5.93577L145.181 5.92818ZM145.058 1.96428C145.041 1.63285 145.021 1.30058 144.999 0.96746L144.001 1.03254C144.023 1.36195 144.042 1.69048 144.06 2.01816L145.058 1.96428Z" fill="#1B3DAA" fill-opacity="0.3"/>
</svg>
