<?xml version="1.0" encoding="UTF-8"?>
<svg xmlns="http://www.w3.org/2000/svg" width="696" height="464" viewBox="0 0 696 464" fill="none">
  <path d="M543.483 188.041H647.79H675.714L654.175 203.585V234.162C654.175 237.689 651.317 240.547 647.79 240.547H543.483C539.957 240.547 537.099 237.689 537.099 234.162V194.425C537.099 190.899 539.957 188.041 543.483 188.041Z" fill="#F5F5F5"></path>
  <path d="M548.995 209.654C548.995 209.784 568.938 209.886 593.539 209.886C618.141 209.886 638.083 209.784 638.083 209.654C638.083 209.524 618.141 209.422 593.539 209.422C568.938 209.422 548.995 209.524 548.995 209.654Z" fill="#E0E0E0"></path>
  <path d="M548.995 221.393C548.995 221.523 568.938 221.625 593.539 221.625C618.141 221.625 638.083 221.523 638.083 221.393C638.083 221.263 618.141 221.161 593.539 221.161C568.938 221.161 548.995 221.272 548.995 221.393Z" fill="#E0E0E0"></path>
  <path d="M342.655 75.1958H336.465V95.9274H342.655V75.1958Z" fill="#E0E0E0"></path>
  <path d="M290.965 72.1984H284.775V95.9274H290.965V72.1984Z" fill="#E0E0E0"></path>
  <path d="M303.892 67.2522H297.702V95.9274H303.892V67.2522Z" fill="#E0E0E0"></path>
  <path d="M316.81 68.8205H310.62V95.9274H316.81V68.8205Z" fill="#E0E0E0"></path>
  <path d="M329.728 59.6518H323.538V95.9274H329.728V59.6518Z" fill="#E0E0E0"></path>
  <path d="M355.573 59.8282H349.383V95.9274H355.573V59.8282Z" fill="#E0E0E0"></path>
  <path d="M368.5 71.688H362.31V95.9274H368.5V71.688Z" fill="#E0E0E0"></path>
  <path d="M381.417 61.415H375.228V95.9274H381.417V61.415Z" fill="#E0E0E0"></path>
  <path d="M394.344 53.6477H388.155V95.9274H394.344V53.6477Z" fill="#E0E0E0"></path>
  <path d="M407.262 61.2387H401.072V95.9274H407.262V61.2387Z" fill="#E0E0E0"></path>
  <path d="M570.312 94.0064L621.491 86.1834C625.778 114.255 606.207 140.889 578.135 145.176C550.063 149.464 523.429 129.892 519.142 101.82C514.854 73.7482 534.426 47.1146 562.498 42.8272C566.971 42.1405 571.509 42.0477 576 42.5488L570.312 94.0064Z" fill="#EBEBEB"></path>
  <path d="M586.914 42.7158L580.696 82.3878L619.635 75.0752C619.644 75.0659 613.918 52.8403 586.914 42.7158Z" fill="#E0E0E0"></path>
  <path d="M79.7152 119.044C79.3254 94.3869 98.9712 74.008 123.507 73.609C148.053 73.2099 168.339 92.9485 168.738 117.605C169.128 142.262 149.482 162.641 124.946 163.04C100.391 163.439 80.1049 143.701 79.7152 119.044ZM145.51 117.986C145.325 106.2 135.618 96.7626 123.888 96.9482C112.149 97.1338 102.757 106.887 102.943 118.673C103.129 130.458 112.835 139.896 124.565 139.71C136.305 139.516 145.696 129.772 145.51 117.986Z" fill="#F5F5F5"></path>
  <path d="M79.7152 119.044C79.3254 94.3869 98.9712 74.008 123.507 73.609L123.879 96.9482C112.139 97.1338 102.748 106.887 102.934 118.673C103.119 130.458 112.826 139.896 124.556 139.71L124.927 163.05C100.391 163.439 80.1049 143.701 79.7152 119.044Z" fill="#E0E0E0"></path>
  <path d="M119.508 70.0176C148.22 69.5536 171.132 91.8349 171.587 120.686L144.415 121.123C144.193 107.332 133.697 98.6464 119.972 98.8691L119.508 70.0176Z" fill="#EBEBEB"></path>
  <path d="M212.623 279.736H180.366V318.081H212.623V279.736Z" fill="#F5F5F5"></path>
  <path d="M181.489 277.231H35.728V320.485H181.489V277.231Z" fill="#E0E0E0"></path>
  <path d="M213.598 280.868H177.573V277.231H213.598C214.6 277.231 215.417 278.047 215.417 279.05C215.417 280.061 214.6 280.868 213.598 280.868Z" fill="#E0E0E0"></path>
  <path d="M213.598 320.485H177.573V316.847H213.598C214.6 316.847 215.417 317.664 215.417 318.666C215.417 319.677 214.6 320.485 213.598 320.485Z" fill="#E0E0E0"></path>
  <path d="M170.028 277.231H152.805V320.485H170.028V277.231Z" fill="#EBEBEB"></path>
  <path d="M66.8067 277.713H49.583V320.967H66.8067V277.713Z" fill="#EBEBEB"></path>
  <path d="M212.623 286.075C212.623 286.177 205.645 286.269 197.033 286.269C188.421 286.269 181.443 286.186 181.443 286.075C181.443 285.972 188.421 285.88 197.033 285.88C205.645 285.88 212.623 285.972 212.623 286.075Z" fill="#E0E0E0"></path>
  <path d="M212.623 291.828C212.623 291.93 205.645 292.023 197.033 292.023C188.421 292.023 181.443 291.94 181.443 291.828C181.443 291.726 188.421 291.633 197.033 291.633C205.645 291.633 212.623 291.717 212.623 291.828Z" fill="#E0E0E0"></path>
  <path d="M212.623 298.909C212.623 299.011 205.645 299.104 197.033 299.104C188.421 299.104 181.443 299.02 181.443 298.909C181.443 298.807 188.421 298.714 197.033 298.714C205.645 298.714 212.623 298.797 212.623 298.909Z" fill="#E0E0E0"></path>
  <path d="M212.623 305.98C212.623 306.082 205.645 306.175 197.033 306.175C188.421 306.175 181.443 306.092 181.443 305.98C181.443 305.878 188.421 305.785 197.033 305.785C205.645 305.795 212.623 305.878 212.623 305.98Z" fill="#E0E0E0"></path>
  <path d="M212.623 313.061C212.623 313.163 205.645 313.256 197.033 313.256C188.421 313.256 181.443 313.172 181.443 313.061C181.443 312.959 188.421 312.866 197.033 312.866C205.645 312.875 212.623 312.959 212.623 313.061Z" fill="#E0E0E0"></path>
  <path d="M143.543 295.011H77.9706V302.797H143.543V295.011Z" fill="#EBEBEB"></path>
  <path d="M212.299 321.339H179.549V344.706H212.299V321.339Z" fill="#FAFAFA"></path>
  <path d="M179.921 320.485H40.5536V345.541H179.921V320.485Z" fill="#F5F5F5"></path>
  <path d="M178.9 322.183H214.099C214.563 322.183 214.943 321.803 214.943 321.339C214.943 320.875 214.563 320.494 214.099 320.494H178.9V322.183Z" fill="#F5F5F5"></path>
  <path d="M178.9 345.55H214.554C214.767 345.55 214.943 345.374 214.943 345.16V344.242C214.943 344.028 214.767 343.852 214.554 343.852H178.9V345.55Z" fill="#F5F5F5"></path>
  <path d="M212.299 325.774C212.299 325.876 205.051 325.969 196.105 325.969C187.159 325.969 179.911 325.886 179.911 325.774C179.911 325.672 187.159 325.579 196.105 325.579C205.042 325.579 212.299 325.672 212.299 325.774Z" fill="#E0E0E0"></path>
  <path d="M212.299 330.192C212.299 330.294 205.051 330.387 196.105 330.387C187.159 330.387 179.911 330.303 179.911 330.192C179.911 330.09 187.159 329.997 196.105 329.997C205.042 330.006 212.299 330.09 212.299 330.192Z" fill="#E0E0E0"></path>
  <path d="M212.299 334.618C212.299 334.72 205.051 334.813 196.105 334.813C187.159 334.813 179.911 334.73 179.911 334.618C179.911 334.516 187.159 334.423 196.105 334.423C205.042 334.423 212.299 334.507 212.299 334.618Z" fill="#E0E0E0"></path>
  <path d="M212.299 339.036C212.299 339.138 205.051 339.23 196.105 339.23C187.159 339.23 179.911 339.147 179.911 339.036C179.911 338.933 187.159 338.841 196.105 338.841C205.042 338.841 212.299 338.924 212.299 339.036Z" fill="#E0E0E0"></path>
  <path d="M217.263 347.777H183.837V411.113H217.263V347.777Z" fill="#EBEBEB"></path>
  <path d="M183.837 345.55H26.9398V414.222H183.837V345.55Z" fill="#E0E0E0"></path>
  <path d="M219.88 414.213H179.549V409.758H219.88C221.115 409.758 222.108 410.751 222.108 411.986C222.108 413.22 221.105 414.213 219.88 414.213Z" fill="#E0E0E0"></path>
  <path d="M221.087 349.995H179.549V345.541H221.087C221.653 345.541 222.108 345.996 222.108 346.562V348.974C222.108 349.54 221.644 349.995 221.087 349.995Z" fill="#E0E0E0"></path>
  <path d="M217.263 356.259C217.263 356.361 209.784 356.454 200.55 356.454C191.316 356.454 183.837 356.371 183.837 356.259C183.837 356.157 191.316 356.064 200.55 356.064C209.784 356.074 217.263 356.157 217.263 356.259Z" fill="#E0E0E0"></path>
  <path d="M217.263 364.388C217.263 364.491 209.784 364.583 200.55 364.583C191.316 364.583 183.837 364.5 183.837 364.388C183.837 364.286 191.316 364.194 200.55 364.194C209.784 364.194 217.263 364.277 217.263 364.388Z" fill="#E0E0E0"></path>
  <path d="M217.263 372.508C217.263 372.611 209.784 372.703 200.55 372.703C191.316 372.703 183.837 372.62 183.837 372.508C183.837 372.406 191.316 372.314 200.55 372.314C209.784 372.314 217.263 372.406 217.263 372.508Z" fill="#E0E0E0"></path>
  <path d="M217.263 380.628C217.263 380.731 209.784 380.823 200.55 380.823C191.316 380.823 183.837 380.74 183.837 380.628C183.837 380.526 191.316 380.434 200.55 380.434C209.784 380.443 217.263 380.526 217.263 380.628Z" fill="#E0E0E0"></path>
  <path d="M217.263 388.758C217.263 388.86 209.784 388.953 200.55 388.953C191.316 388.953 183.837 388.869 183.837 388.758C183.837 388.656 191.316 388.563 200.55 388.563C209.784 388.563 217.263 388.646 217.263 388.758Z" fill="#E0E0E0"></path>
  <path d="M217.263 396.878C217.263 396.98 209.784 397.073 200.55 397.073C191.316 397.073 183.837 396.989 183.837 396.878C183.837 396.776 191.316 396.683 200.55 396.683C209.784 396.683 217.263 396.776 217.263 396.878Z" fill="#E0E0E0"></path>
  <path d="M217.263 404.998C217.263 405.1 209.784 405.193 200.55 405.193C191.316 405.193 183.837 405.109 183.837 404.998C183.837 404.896 191.316 404.803 200.55 404.803C209.784 404.812 217.263 404.896 217.263 404.998Z" fill="#E0E0E0"></path>
  <path d="M80.6246 383.635V387.459C80.6246 392.061 78.3231 394.688 73.8873 394.688C69.4515 394.688 67.15 392.061 67.15 387.459V372.499C67.15 367.896 69.4515 365.27 73.8873 365.27C78.3231 365.27 80.6246 367.896 80.6246 372.499V375.292H76.3558V372.212C76.3558 370.161 75.4556 369.381 74.0172 369.381C72.5788 369.381 71.6787 370.161 71.6787 372.212V387.746C71.6787 389.797 72.5788 390.54 74.0172 390.54C75.4556 390.54 76.3558 389.797 76.3558 387.746V383.635H80.6246Z" fill="#EBEBEB"></path>
  <path d="M83.0095 372.508C83.0095 367.906 85.4316 365.279 89.8674 365.279C94.3033 365.279 96.7254 367.906 96.7254 372.508V387.468C96.7254 392.071 94.3033 394.697 89.8674 394.697C85.4316 394.697 83.0095 392.071 83.0095 387.468V372.508ZM87.5289 387.746C87.5289 389.797 88.429 390.577 89.8674 390.577C91.3058 390.577 92.206 389.797 92.206 387.746V372.221C92.206 370.17 91.3058 369.39 89.8674 369.39C88.429 369.39 87.5289 370.17 87.5289 372.221V387.746Z" fill="#EBEBEB"></path>
  <path d="M99.6393 365.604H104.159V390.252H111.592V394.363H99.6393V365.604Z" fill="#EBEBEB"></path>
  <path d="M113.197 372.508C113.197 367.906 115.619 365.279 120.055 365.279C124.491 365.279 126.913 367.906 126.913 372.508V387.468C126.913 392.071 124.491 394.697 120.055 394.697C115.619 394.697 113.197 392.071 113.197 387.468V372.508ZM117.717 387.746C117.717 389.797 118.617 390.577 120.055 390.577C121.494 390.577 122.394 389.797 122.394 387.746V372.221C122.394 370.17 121.494 369.39 120.055 369.39C118.617 369.39 117.717 370.17 117.717 372.221V387.746Z" fill="#EBEBEB"></path>
  <path d="M134.152 365.604V387.793C134.152 389.844 135.052 390.586 136.49 390.586C137.929 390.586 138.829 389.844 138.829 387.793V365.604H143.097V387.505C143.097 392.108 140.796 394.734 136.36 394.734C131.924 394.734 129.623 392.108 129.623 387.505V365.604H134.152Z" fill="#EBEBEB"></path>
  <path d="M155.635 394.363C155.384 393.62 155.226 393.175 155.226 390.827V386.308C155.226 383.635 154.326 382.652 152.266 382.652H150.707V394.363H146.188V365.604H153.009C157.695 365.604 159.709 367.785 159.709 372.221V374.476C159.709 377.436 158.762 379.366 156.748 380.313C159.013 381.26 159.746 383.431 159.746 386.438V390.874C159.746 392.275 159.783 393.296 160.238 394.363H155.635ZM150.707 369.715V378.55H152.47C154.159 378.55 155.18 377.807 155.18 375.506V372.676C155.18 370.625 154.484 369.715 152.879 369.715H150.707Z" fill="#EBEBEB"></path>
  <path d="M79.6502 330.359H76.3558L76.5322 329.505H84.0954L83.9098 330.359H80.6246L78.9264 338.841H77.952L79.6502 330.359Z" fill="#E0E0E0"></path>
  <path d="M90.4429 331.825L85.3203 339.75C84.4573 341.086 83.7984 341.495 82.7869 341.495C82.1373 341.495 81.4691 341.272 81.1165 340.864L81.6269 340.168C81.9331 340.483 82.3321 340.678 82.8704 340.678C83.4736 340.678 83.9376 340.4 84.4851 339.546L84.9769 338.804L83.2323 331.825H84.1881L85.6451 337.801L89.4777 331.825H90.4429Z" fill="#E0E0E0"></path>
  <path d="M98.2381 334.73C98.2381 337.142 96.5584 338.906 94.2663 338.906C92.93 338.906 92.002 338.358 91.5936 337.374L90.7956 341.43H89.849L91.7607 331.825H92.6701L92.4474 332.948C93.1156 332.205 94.0528 331.779 95.185 331.779C96.976 331.769 98.2381 332.892 98.2381 334.73ZM97.2823 334.785C97.2823 333.412 96.4378 332.595 94.9716 332.595C93.2269 332.595 91.9463 333.969 91.9463 335.89C91.9463 337.263 92.7908 338.061 94.257 338.061C96.0016 338.07 97.2823 336.697 97.2823 334.785Z" fill="#E0E0E0"></path>
  <path d="M99.3424 335.936C99.3424 333.551 101.041 331.779 103.398 331.779C105.347 331.779 106.59 332.929 106.59 334.739C106.59 337.142 104.892 338.915 102.535 338.915C100.586 338.906 99.3424 337.736 99.3424 335.936ZM105.644 334.785C105.644 333.412 104.799 332.595 103.333 332.595C101.588 332.595 100.289 333.978 100.289 335.89C100.289 337.263 101.133 338.061 102.6 338.061C104.344 338.07 105.644 336.697 105.644 334.785Z" fill="#E0E0E0"></path>
  <path d="M115.666 331.825L114.441 337.987C113.949 340.465 112.641 341.495 110.358 341.495C109.04 341.495 107.954 341.124 107.24 340.437L107.796 339.713C108.353 340.288 109.3 340.65 110.423 340.65C112.195 340.65 113.132 339.834 113.467 338.145L113.624 337.365C112.956 338.117 112.01 338.572 110.822 338.572C108.966 338.572 107.722 337.495 107.722 335.741C107.722 333.486 109.393 331.769 111.722 331.769C113.012 331.769 114.06 332.298 114.459 333.365L114.756 331.816H115.666V331.825ZM114.07 334.637C114.07 333.356 113.207 332.595 111.75 332.595C109.977 332.595 108.697 333.904 108.697 335.685C108.697 336.966 109.55 337.727 111.017 337.727C112.78 337.736 114.07 336.428 114.07 334.637Z" fill="#E0E0E0"></path>
  <path d="M121.856 331.769L121.679 332.688C121.587 332.688 121.522 332.669 121.41 332.669C119.916 332.669 118.914 333.523 118.571 335.268L117.865 338.831H116.919L118.311 331.816H119.22L118.979 333.096C119.601 332.187 120.519 331.769 121.856 331.769Z" fill="#E0E0E0"></path>
  <path d="M129.901 331.825L128.5 338.841H127.591L127.813 337.736C127.145 338.469 126.217 338.906 125.076 338.906C123.275 338.906 122.023 337.783 122.023 335.936C122.023 333.532 123.702 331.779 125.985 331.779C127.322 331.779 128.25 332.326 128.649 333.3L128.946 331.834H129.901V331.825ZM128.324 334.785C128.324 333.412 127.479 332.595 126.013 332.595C124.268 332.595 122.969 333.978 122.969 335.89C122.969 337.263 123.814 338.061 125.28 338.061C127.034 338.07 128.324 336.697 128.324 334.785Z" fill="#E0E0E0"></path>
  <path d="M139.005 334.73C139.005 337.142 137.325 338.906 135.033 338.906C133.697 338.906 132.769 338.358 132.361 337.374L131.563 341.43H130.616L132.528 331.825H133.437L133.214 332.948C133.883 332.205 134.82 331.779 135.952 331.779C137.734 331.769 139.005 332.892 139.005 334.73ZM138.049 334.785C138.049 333.412 137.205 332.595 135.739 332.595C133.994 332.595 132.713 333.969 132.713 335.89C132.713 337.263 133.558 338.061 135.024 338.061C136.769 338.07 138.049 336.697 138.049 334.785Z" fill="#E0E0E0"></path>
  <path d="M147.496 334.052C147.496 334.303 147.469 334.572 147.413 334.85L146.615 338.841H145.668L146.466 334.841C146.503 334.618 146.531 334.405 146.531 334.201C146.531 333.198 145.928 332.623 144.722 332.623C143.228 332.623 142.197 333.44 141.863 335.073L141.121 338.831H140.174L142.151 328.93H143.098L142.309 332.864C142.977 332.103 143.914 331.76 144.991 331.76C146.578 331.769 147.496 332.623 147.496 334.052Z" fill="#E0E0E0"></path>
  <path d="M156.368 331.825L151.245 339.75C150.382 341.086 149.724 341.495 148.712 341.495C148.062 341.495 147.394 341.272 147.042 340.864L147.552 340.168C147.858 340.483 148.257 340.678 148.796 340.678C149.399 340.678 149.863 340.4 150.41 339.546L150.902 338.804L149.157 331.825H150.113L151.57 337.801L155.403 331.825H156.368Z" fill="#E0E0E0"></path>
  <path d="M671.195 414.213C671.195 414.343 525.656 414.454 346.162 414.454C166.604 414.454 21.1027 414.343 21.1027 414.213C21.1027 414.083 166.613 413.972 346.162 413.972C525.647 413.972 671.195 414.083 671.195 414.213Z" fill="#263238"></path>
  <path d="M610.113 366.848C610.113 366.848 585.512 338.534 576.232 310.221C566.952 281.908 571.36 285.156 571.36 285.156C571.36 285.156 583.888 312.662 593.409 325.941C602.921 339.23 619.867 358.718 619.867 358.718L610.113 366.848Z" fill="#455A64"></path>
  <path d="M615.013 289.573C614.215 288.19 612.109 288.905 612.341 290.483C613.844 300.431 617.083 323.761 616.953 338.906C616.786 358.57 616.962 366.17 616.962 366.17H627.198C627.198 366.17 625.379 325.524 623.068 313.126C621.454 304.44 618.011 294.788 615.013 289.573Z" fill="#455A64"></path>
  <path d="M620.6 362.867C620.6 362.867 627.04 349.318 629.026 332.298C629.871 325.06 628.367 315.279 626.131 302.222C625.045 295.902 624.804 291.086 624.841 287.754C624.869 285.23 628.191 284.413 629.425 286.613C630.659 288.821 634.241 296.348 635.142 301.071C637.619 313.961 640.431 320.401 638.278 332.632C636.135 344.863 628.2 363.693 628.2 363.693L620.6 362.867Z" fill="#455A64"></path>
  <path d="M629.815 363.692C629.815 363.692 656.82 305.646 658.694 297.044C660.569 288.432 666.935 268.591 667.677 269.714C668.429 270.837 669.552 281.323 664.68 293.304C659.817 305.284 639.03 365.465 639.03 365.465H629.806" fill="#455A64"></path>
  <path d="M617.64 361.094C617.63 361.113 617.37 360.927 616.879 360.574C616.396 360.212 615.672 359.702 614.791 358.978C612.99 357.568 610.466 355.415 607.534 352.575C601.641 346.914 594.3 338.182 587.944 327.426C581.568 316.671 577.281 306.156 574.571 298.454C573.216 294.603 572.223 291.448 571.583 289.248C571.249 288.153 571.026 287.3 570.868 286.715C570.711 286.13 570.636 285.824 570.655 285.824C570.673 285.815 570.785 286.112 570.98 286.687C571.184 287.309 571.453 288.144 571.796 289.183C572.502 291.355 573.55 294.482 574.961 298.315C577.763 305.962 582.097 316.42 588.445 327.129C594.783 337.838 602.031 346.571 607.831 352.278C610.717 355.155 613.194 357.336 614.948 358.802C615.811 359.554 616.517 360.092 616.971 360.482C617.417 360.871 617.649 361.076 617.64 361.094Z" fill="#263238"></path>
  <path d="M620.591 333.245C620.553 333.245 620.47 332.642 620.349 331.537C620.219 330.331 620.052 328.772 619.848 326.888C619.421 322.963 618.753 317.543 617.797 311.595C616.841 305.646 615.774 300.292 614.948 296.431C614.549 294.575 614.215 293.035 613.965 291.856C613.733 290.78 613.621 290.176 613.658 290.167C613.696 290.158 613.881 290.742 614.178 291.81C614.484 292.877 614.883 294.427 615.347 296.348C616.275 300.189 617.408 305.544 618.363 311.511C619.319 317.478 619.922 322.907 620.247 326.851C620.414 328.818 620.516 330.424 620.563 331.528C620.628 332.632 620.637 333.245 620.591 333.245Z" fill="#263238"></path>
  <path d="M626.92 286.149C626.938 286.14 627.05 286.399 627.235 286.882C627.439 287.429 627.708 288.144 628.043 289.035C628.404 289.972 628.813 291.123 629.203 292.487C629.602 293.851 630.121 295.382 630.511 297.136C630.724 298.009 630.947 298.918 631.179 299.865C631.402 300.811 631.569 301.823 631.773 302.853C632.218 304.913 632.488 307.149 632.812 309.497C633.341 314.202 633.629 319.408 633.462 324.884C633.239 330.349 632.58 335.528 631.717 340.186C631.226 342.506 630.789 344.715 630.205 346.738C629.926 347.749 629.694 348.742 629.397 349.68C629.1 350.608 628.813 351.499 628.534 352.352C628.015 354.069 627.393 355.563 626.892 356.89C626.4 358.227 625.908 359.349 625.491 360.25C625.091 361.113 624.776 361.809 624.525 362.338C624.303 362.811 624.173 363.061 624.154 363.052C624.136 363.043 624.228 362.783 624.423 362.291C624.646 361.753 624.924 361.038 625.286 360.157C625.676 359.238 626.14 358.106 626.595 356.77C627.059 355.433 627.662 353.93 628.154 352.213C628.414 351.359 628.692 350.469 628.98 349.541C629.258 348.613 629.481 347.62 629.75 346.608C630.316 344.585 630.724 342.386 631.207 340.075C632.033 335.435 632.682 330.285 632.896 324.856C633.063 319.418 632.794 314.239 632.302 309.553C631.986 307.214 631.736 304.997 631.318 302.936C631.123 301.906 630.975 300.904 630.762 299.957C630.539 299.011 630.335 298.101 630.131 297.229C629.769 295.485 629.277 293.944 628.906 292.58C628.544 291.206 628.163 290.046 627.848 289.1C627.551 288.19 627.319 287.467 627.142 286.91C626.975 286.427 626.901 286.158 626.92 286.149Z" fill="#263238"></path>
  <path d="M667.371 270.874C667.38 270.874 667.371 270.967 667.353 271.134C667.325 271.338 667.278 271.588 667.232 271.885C667.111 272.544 666.963 273.528 666.703 274.772C666.183 277.268 665.311 280.859 663.965 285.221C662.62 289.582 660.773 294.696 658.583 300.31C656.402 305.934 653.869 312.049 651.475 318.564C649.043 325.069 647.169 331.417 645.405 337.18C643.661 342.942 642 348.121 640.403 352.399C638.817 356.677 637.295 360.045 636.135 362.328C635.578 363.479 635.086 364.333 634.761 364.927C634.613 365.196 634.483 365.409 634.381 365.595C634.297 365.743 634.242 365.818 634.232 365.808C634.223 365.799 634.26 365.725 634.325 365.567C634.418 365.381 634.52 365.149 634.65 364.88C634.938 364.277 635.402 363.405 635.921 362.236C637.007 359.934 638.473 356.556 640.004 352.269C641.554 347.991 643.169 342.812 644.886 337.04C646.621 331.277 648.486 324.902 650.927 318.378C653.33 311.845 655.882 305.73 658.082 300.124C660.29 294.529 662.174 289.443 663.566 285.109C664.968 280.776 665.886 277.212 666.48 274.734C666.777 273.5 666.963 272.526 667.121 271.876C667.195 271.579 667.25 271.338 667.297 271.134C667.334 270.957 667.362 270.874 667.371 270.874Z" fill="#263238"></path>
  <path d="M584.092 258.049C582.394 256.36 579.564 258.123 580.269 260.425C580.984 262.754 582.069 265.761 583.666 269.148C587.378 277.036 598.282 305.349 603.395 320.902C608.499 336.446 615.691 365.456 615.691 365.456L626.595 363.683C626.595 363.683 616.619 316.021 606.875 298.844C599.033 285.054 591.201 265.12 584.092 258.049Z" fill="#455A64"></path>
  <path d="M606.364 330.628C606.401 330.619 606.596 331.083 606.93 331.936C607.255 332.79 607.691 334.043 608.183 335.593C609.185 338.701 610.42 343.044 611.654 347.87C612.888 352.696 613.918 357.085 614.633 360.277C614.958 361.781 615.236 363.052 615.449 364.054C615.635 364.945 615.709 365.446 615.672 365.456C615.635 365.465 615.477 364.982 615.227 364.101C614.958 363.108 614.624 361.855 614.224 360.37C613.389 357.094 612.294 352.779 611.079 348.009C609.844 343.193 608.675 338.841 607.775 335.704C607.348 334.228 606.986 332.985 606.698 331.992C606.457 331.129 606.327 330.637 606.364 330.628Z" fill="#263238"></path>
  <path d="M621.157 364.574C621.147 364.574 621.129 364.472 621.092 364.286C621.055 364.064 621.017 363.776 620.971 363.423C620.86 362.672 620.758 361.549 620.526 360.12C620.127 357.252 619.412 353.132 618.243 348.093C617.083 343.054 615.385 337.133 613.139 330.674C610.902 324.215 608.1 317.237 604.917 310.017C598.504 295.587 592.092 282.789 587.888 273.324C585.763 268.6 584.111 264.749 583.025 262.067C582.468 260.731 582.079 259.673 581.8 258.968C581.68 258.634 581.577 258.374 581.494 258.151C581.429 257.965 581.401 257.873 581.41 257.863C581.42 257.863 581.466 257.947 581.55 258.123C581.642 258.337 581.763 258.596 581.902 258.912C582.227 259.654 582.663 260.675 583.229 261.965C584.38 264.619 586.078 268.443 588.25 273.138C592.556 282.548 599.015 295.317 605.436 309.766C608.619 316.995 611.413 324.002 613.631 330.489C615.848 336.975 617.51 342.924 618.632 347.991C619.755 353.048 620.414 357.196 620.739 360.083C620.934 361.521 620.999 362.644 621.082 363.405C621.11 363.757 621.129 364.045 621.147 364.268C621.166 364.472 621.166 364.574 621.157 364.574Z" fill="#263238"></path>
  <path d="M626.585 363.692C626.548 363.702 626.418 363.043 626.214 361.864C626.001 360.584 625.713 358.895 625.37 356.853C624.618 352.631 623.467 346.812 621.825 340.483C620.192 334.145 618.354 328.503 616.934 324.457C616.238 322.508 615.663 320.893 615.227 319.668C614.818 318.536 614.614 317.905 614.651 317.896C614.689 317.877 614.967 318.48 615.44 319.594C615.913 320.698 616.563 322.313 617.324 324.327C618.837 328.345 620.748 333.987 622.391 340.344C624.043 346.701 625.129 352.547 625.787 356.797C626.094 358.923 626.335 360.649 626.456 361.846C626.567 363.024 626.623 363.683 626.585 363.692Z" fill="#263238"></path>
  <path d="M648.969 362.124H606.411V413.972H648.969V362.124Z" fill="#FDCD48"></path>
  <g opacity="0.3">
    <path d="M648.969 362.124H606.411V413.972H648.969V362.124Z" fill="black"></path>
  </g>
  <path d="M635.383 362.124H597.632V413.972H635.383V362.124Z" fill="#FDCD48"></path>
  <path d="M82.1558 344.102C74.9081 339.462 64.8578 339.37 57.805 344.307C51.1049 348.993 47.7084 357.512 48.0054 365.678C48.3023 373.845 52.2556 383.821 59.661 388.117L81.3762 388.034C88.3084 382.93 93.0041 374.717 93.3289 366.115C93.6444 357.503 89.4034 348.742 82.1558 344.102Z" fill="#455A64"></path>
  <path d="M71.456 388.897C71.4096 388.897 71.3632 388.229 71.3168 387.032C71.2797 385.695 71.2333 383.988 71.1683 381.937C71.057 377.64 70.8899 371.701 70.6022 365.14C70.3146 358.579 69.9619 352.649 69.6928 348.362C69.5722 346.32 69.4701 344.613 69.3866 343.276C69.3216 342.07 69.3123 341.411 69.3587 341.402C69.4051 341.402 69.5072 342.061 69.6557 343.249C69.8042 344.446 69.9805 346.181 70.1754 348.325C70.5651 352.612 71.0013 358.551 71.289 365.112C71.5766 371.673 71.6694 377.622 71.6509 381.928C71.6416 384.081 71.6138 385.825 71.5766 387.022C71.5488 388.229 71.5024 388.897 71.456 388.897Z" fill="#263238"></path>
  <path d="M50.1862 363.822C50.1676 364.017 48.989 364.073 47.5506 363.952C46.1122 363.832 44.9522 363.581 44.9708 363.396C44.9894 363.201 46.1679 363.145 47.6063 363.266C49.0447 363.377 50.2047 363.627 50.1862 363.822Z" fill="#263238"></path>
  <path d="M50.5945 356.491C50.5203 356.668 49.4995 356.38 48.3209 355.86C47.1424 355.34 46.2515 354.774 46.3257 354.598C46.4 354.422 47.4208 354.7 48.5993 355.229C49.7779 355.749 50.6688 356.315 50.5945 356.491Z" fill="#263238"></path>
  <path d="M54.3622 351.053C54.2602 351.211 53.1187 350.673 51.9309 349.689C50.743 348.705 49.9913 347.684 50.1305 347.555C50.2697 347.425 51.2163 348.204 52.367 349.151C53.5177 350.107 54.4643 350.886 54.3622 351.053Z" fill="#263238"></path>
  <path d="M58.1577 345.921C57.9814 345.996 57.4338 345.142 56.9327 344.01C56.4316 342.877 56.1625 341.894 56.3388 341.819C56.5151 341.745 57.0626 342.599 57.5638 343.731C58.0649 344.863 58.3247 345.847 58.1577 345.921Z" fill="#263238"></path>
  <path d="M64.1062 342.283C63.9392 342.367 63.3453 341.448 62.9555 340.186C62.5565 338.924 62.5286 337.838 62.7142 337.801C62.9091 337.764 63.2339 338.757 63.6144 339.973C63.9856 341.198 64.2825 342.2 64.1062 342.283Z" fill="#263238"></path>
  <path d="M74.0265 338.172C74.2028 338.237 74.1007 339.017 73.7759 339.908C73.4604 340.808 73.0521 341.476 72.8758 341.42C72.6994 341.356 72.8015 340.576 73.1263 339.685C73.4419 338.785 73.8502 338.108 74.0265 338.172Z" fill="#263238"></path>
  <path d="M81.3948 341.337C81.5247 341.476 81.0514 342.126 80.3368 342.785C79.6223 343.444 78.9448 343.861 78.8149 343.722C78.685 343.583 79.1583 342.933 79.8728 342.274C80.5781 341.615 81.2648 341.198 81.3948 341.337Z" fill="#263238"></path>
  <path d="M87.8723 345.522C87.9837 345.68 87.4083 346.255 86.5824 346.812C85.7657 347.369 85.0141 347.684 84.9027 347.527C84.7913 347.369 85.3667 346.794 86.1926 346.237C87.0185 345.68 87.7702 345.364 87.8723 345.522Z" fill="#263238"></path>
  <path d="M92.4751 351.758C92.5493 351.935 91.6399 352.492 90.452 353.002C89.2549 353.512 88.2248 353.781 88.1506 353.605C88.0764 353.429 88.9858 352.872 90.1829 352.362C91.3708 351.86 92.4008 351.582 92.4751 351.758Z" fill="#263238"></path>
  <path d="M94.294 358.57C94.3219 358.756 93.3939 359.034 92.2339 359.173C91.0739 359.322 90.1088 359.275 90.0902 359.09C90.0624 358.904 90.9904 358.626 92.1504 358.486C93.3104 358.338 94.2662 358.375 94.294 358.57Z" fill="#263238"></path>
  <path d="M95.2313 366.95C95.157 367.126 94.1733 366.866 93.0319 366.374C91.8905 365.883 91.0367 365.335 91.1109 365.159C91.1852 364.982 92.1689 365.242 93.3103 365.734C94.4517 366.226 95.3148 366.773 95.2313 366.95Z" fill="#263238"></path>
  <path d="M94.4054 374.142C94.3404 374.318 93.0969 374.021 91.7977 373.167C90.4892 372.323 89.719 371.302 89.8582 371.172C89.9974 371.033 90.944 371.785 92.1782 372.583C93.4032 373.39 94.4704 373.956 94.4054 374.142Z" fill="#263238"></path>
  <path d="M90.6562 380.684C90.5449 380.833 89.5519 380.248 88.6054 379.227C87.6495 378.206 87.1484 377.176 87.2969 377.074C87.4546 376.963 88.197 377.78 89.1065 378.763C90.0252 379.738 90.7862 380.536 90.6562 380.684Z" fill="#263238"></path>
  <path d="M55.1138 381.454C55.2066 381.621 54.158 382.336 52.7938 383.051C51.4204 383.765 50.2418 384.201 50.149 384.034C50.0562 383.867 51.1049 383.153 52.469 382.438C53.8425 381.724 55.021 381.287 55.1138 381.454Z" fill="#263238"></path>
  <path d="M51.8659 375.534C51.9494 375.71 51.1142 376.258 50.0006 376.759C48.8963 377.26 47.9312 377.529 47.8477 377.353C47.7642 377.176 48.5994 376.629 49.713 376.128C50.8266 375.627 51.7824 375.357 51.8659 375.534Z" fill="#263238"></path>
  <path d="M49.4809 370.291C49.5087 370.476 48.4787 370.782 47.1887 370.968C45.8988 371.154 44.8223 371.144 44.7945 370.959C44.7667 370.773 45.7967 370.467 47.0867 370.281C48.3766 370.096 49.4531 370.096 49.4809 370.291Z" fill="#263238"></path>
  <path d="M57.3039 367.395C57.3596 367.571 56.3573 368.045 55.021 368.193C53.6847 368.351 52.6082 368.11 52.6175 367.924C52.6268 367.729 53.6754 367.646 54.9375 367.497C56.2089 367.367 57.2482 367.21 57.3039 367.395Z" fill="#263238"></path>
  <path d="M63.8092 360.927C63.8649 361.103 63.0668 361.512 61.9904 361.614C60.9139 361.725 60.0601 361.484 60.0787 361.298C60.0972 361.103 60.9232 361.029 61.9254 360.927C62.9276 360.825 63.7536 360.741 63.8092 360.927Z" fill="#263238"></path>
  <path d="M65.0528 355.74C64.9878 355.925 64.1248 355.786 63.1225 355.443C62.1203 355.099 61.3593 354.672 61.4243 354.487C61.4892 354.31 62.3523 354.44 63.3545 354.784C64.3568 355.136 65.1177 355.563 65.0528 355.74Z" fill="#263238"></path>
  <path d="M67.4378 350.496C67.3078 350.626 66.7139 350.236 66.287 349.503C65.8602 348.77 65.823 348.065 65.9994 348.009C66.185 347.954 66.5098 348.501 66.881 349.151C67.2614 349.819 67.577 350.366 67.4378 350.496Z" fill="#263238"></path>
  <path d="M64.5609 371.961C64.6073 372.147 63.8556 372.49 62.8905 372.722C62.3337 372.861 61.8233 372.926 61.4892 372.926L61.35 372.518C61.6005 372.471 61.7583 372.481 61.7954 372.555C61.8233 372.629 61.7305 372.759 61.5263 372.907L61.3871 372.499C61.6841 372.341 62.1666 372.174 62.7234 372.035C63.6978 371.822 64.5145 371.775 64.5609 371.961Z" fill="#263238"></path>
  <path d="M65.9065 381.157C65.9807 381.334 65.0249 381.881 63.7813 382.364C62.5378 382.856 61.4706 383.106 61.3964 382.93C61.3221 382.754 62.278 382.215 63.5215 381.723C64.765 381.232 65.8322 380.981 65.9065 381.157Z" fill="#263238"></path>
  <path d="M58.5567 377.074C58.6216 377.26 57.9813 377.64 57.1368 377.919C56.2924 378.206 55.5592 378.29 55.4943 378.114C55.4293 377.928 56.0696 377.557 56.9141 377.269C57.7586 376.981 58.4917 376.889 58.5567 377.074Z" fill="#263238"></path>
  <path d="M59.1136 358.366C59.0672 358.551 57.9629 358.44 56.6822 357.985C55.4016 357.531 54.4736 356.927 54.5571 356.751C54.6406 356.575 55.6707 356.89 56.9142 357.326C58.1577 357.772 59.16 358.171 59.1136 358.366Z" fill="#263238"></path>
  <path d="M76.894 356.333C76.996 356.491 76.3743 357.094 75.502 357.67C74.6296 358.245 73.8316 358.579 73.7295 358.421C73.6274 358.264 74.2492 357.66 75.1215 357.085C75.9938 356.51 76.7919 356.166 76.894 356.333Z" fill="#263238"></path>
  <path d="M77.8684 365.558C77.9055 365.743 77.2559 366.04 76.4021 366.217C75.5576 366.393 74.8431 366.384 74.7967 366.198C74.7596 366.012 75.4092 365.716 76.2629 365.539C77.1074 365.363 77.822 365.372 77.8684 365.558Z" fill="#263238"></path>
  <path d="M78.9913 375.942C78.9078 376.118 77.9705 375.849 76.8847 375.348C75.799 374.847 74.9916 374.3 75.0752 374.123C75.1587 373.947 76.0959 374.216 77.1817 374.717C78.2582 375.218 79.0656 375.766 78.9913 375.942Z" fill="#263238"></path>
  <path d="M76.6064 386.039C76.4579 386.159 75.8454 385.658 75.2422 384.925C74.639 384.183 74.2678 383.487 74.407 383.366C74.5555 383.245 75.168 383.747 75.7712 384.48C76.3837 385.222 76.7549 385.918 76.6064 386.039Z" fill="#263238"></path>
  <path d="M76.1237 349.531C76.2444 349.68 75.8361 350.19 75.1401 350.533C74.4441 350.886 73.7945 350.905 73.7481 350.719C73.6924 350.533 74.2028 350.227 74.8245 349.912C75.4556 349.605 76.0031 349.383 76.1237 349.531Z" fill="#263238"></path>
  <path d="M84.8377 358.839C84.9027 359.015 84.0953 359.461 82.991 359.609C81.8867 359.767 80.9958 359.554 81.0051 359.368C81.0144 359.173 81.8681 359.062 82.8982 358.923C83.919 358.793 84.7728 358.663 84.8377 358.839Z" fill="#263238"></path>
  <path d="M83.1024 350.487C83.1859 350.654 82.3878 351.229 81.2464 351.591C80.1049 351.953 79.1213 351.953 79.0934 351.768C79.0656 351.573 79.9472 351.276 81.0329 350.932C82.1187 350.58 83.0189 350.311 83.1024 350.487Z" fill="#263238"></path>
  <path d="M86.7401 371.785C86.7401 371.97 85.3666 372.091 83.7148 371.794C82.0629 371.497 80.8194 370.903 80.8844 370.727C80.9494 370.541 82.2393 370.829 83.8354 371.107C85.4316 371.404 86.7401 371.59 86.7401 371.785Z" fill="#263238"></path>
  <path d="M83.5013 383.923C83.39 384.071 82.3784 383.477 81.3762 382.466C80.3647 381.454 79.78 380.443 79.9285 380.331C80.0863 380.211 80.8936 381 81.868 381.974C82.8332 382.958 83.622 383.774 83.5013 383.923Z" fill="#263238"></path>
  <path d="M69.2658 340.604C69.3679 340.752 66.5004 341.912 63.1874 345.411C59.8745 348.826 56.4594 354.858 55.6149 362.143C55.2159 365.762 55.5593 369.27 56.0697 372.397C56.6079 375.524 57.3317 378.308 57.9906 380.628C58.6588 382.948 59.2713 384.804 59.6796 386.085C60.0879 387.375 60.3106 388.09 60.2642 388.108C60.2178 388.127 59.9209 387.44 59.429 386.178C58.9372 384.916 58.2597 383.078 57.5266 380.768C56.8028 378.457 56.0325 375.673 55.4479 372.508C54.8911 369.353 54.5199 365.79 54.9282 362.068C55.7913 354.617 59.3641 348.473 62.8348 345.077C64.5609 343.351 66.1849 342.2 67.3727 341.532C67.9481 341.17 68.4399 340.975 68.7647 340.808C69.0802 340.659 69.2565 340.585 69.2658 340.604Z" fill="#263238"></path>
  <path d="M78.7222 388.554C78.5737 388.479 80.2812 385.844 81.8403 381.111C83.4457 376.425 84.7727 369.492 83.7055 361.966C83.2044 358.208 82.1187 354.728 80.7545 351.758C79.3347 348.826 77.5065 346.422 75.7247 344.743C73.878 343.109 72.0591 342.172 70.7878 341.625C69.5071 341.086 68.7369 340.966 68.7462 340.91C68.7462 340.891 68.9411 340.901 69.3123 340.956C69.6742 341.021 70.2124 341.142 70.8806 341.383C72.2076 341.866 74.0822 342.748 76.0403 344.381C77.9427 346.079 79.8265 348.473 81.3299 351.489C82.759 354.515 83.8819 358.05 84.3923 361.874C85.478 369.548 84.0489 376.582 82.3043 381.278C81.9145 382.475 81.4041 383.505 81.0329 384.424C80.5875 385.315 80.2163 386.094 79.8822 386.707C79.1676 387.913 78.7593 388.572 78.7222 388.554Z" fill="#263238"></path>
  <path d="M51.8658 386.911H90.0809L90.3129 394.558H51.8658V386.911Z" fill="#FDCD48"></path>
  <path d="M55.1139 390.734L57.304 414.083H85.2461L87.4918 390.994L55.1139 390.734Z" fill="#FDCD48"></path>
  <path d="M90.3129 394.651C90.3129 394.845 81.7103 394.994 71.094 394.994C60.4777 394.994 51.8751 394.836 51.8751 394.651C51.8751 394.465 60.4777 394.307 71.094 394.307C81.7103 394.307 90.3129 394.456 90.3129 394.651Z" fill="#263238"></path>
  <path d="M86.4339 401.759C86.471 401.778 86.2112 402.316 85.6173 403.216C85.0141 404.107 84.0675 405.369 82.6569 406.715L82.4806 406.882L82.3043 406.696C80.4669 404.766 77.9334 402.399 74.8153 400.144L75.2422 400.126C74.175 401.063 73.0614 402.037 71.92 403.04C70.5651 404.218 69.2473 405.369 67.9945 406.455L67.7811 406.64L67.5677 406.455C65.192 404.45 63.0205 402.631 61.183 401.091L61.5542 401.054C60.2365 402.659 59.1321 404.014 58.2505 405.081C57.4525 406.028 56.9977 406.529 56.9513 406.501C56.9142 406.473 57.2947 405.898 58.0185 404.905C58.8445 403.801 59.8931 402.399 61.1366 400.738L61.2944 400.525L61.5078 400.701C63.3731 402.214 65.5725 403.996 67.9853 405.954L67.5491 405.963C68.8019 404.868 70.1104 403.717 71.456 402.529C72.5974 401.527 73.7203 400.562 74.7875 399.625L74.9917 399.448L75.2051 399.606C78.351 401.917 80.8659 404.367 82.6569 406.371L82.3043 406.362C85.1533 403.791 86.3225 401.685 86.4339 401.759Z" fill="#263238"></path>
  <path d="M545.618 407.68H141.084C133.613 407.68 127.563 401.629 127.563 394.159V135.804C127.563 128.333 133.613 122.283 141.084 122.283H545.618C553.088 122.283 559.139 128.333 559.139 135.804V394.159C559.139 401.62 553.088 407.68 545.618 407.68Z" fill="#455A64"></path>
  <path d="M564.493 414.213H129.957C120.835 414.213 113.439 406.817 113.439 397.694V389.24H581.012V397.694C581.012 406.826 573.615 414.213 564.493 414.213Z" fill="#455A64"></path>
  <path d="M300.811 386.568L306.611 395.801H388.257L393.639 386.568H300.811Z" fill="#263238"></path>
  <path d="M555.427 386.568C555.427 386.725 459.638 386.846 341.504 386.846C223.332 386.846 127.563 386.725 127.563 386.568C127.563 386.41 223.332 386.289 341.504 386.289C459.638 386.289 555.427 386.41 555.427 386.568Z" fill="#263238"></path>
  <path d="M542.054 379.023H142.968C141.288 379.023 139.933 377.659 139.933 375.988V141.733C139.933 140.054 141.297 138.699 142.968 138.699H542.063C543.743 138.699 545.098 140.063 545.098 141.733V375.988C545.089 377.659 543.734 379.023 542.054 379.023Z" fill="#EBEBEB"></path>
  <path d="M544.662 379.376H139.488L139.924 156.656H544.662V379.376Z" fill="white"></path>
  <path d="M173.156 147.979C173.156 149.77 171.708 151.218 169.917 151.218C168.126 151.218 166.678 149.77 166.678 147.979C166.678 146.188 168.126 144.74 169.917 144.74C171.708 144.74 173.156 146.188 173.156 147.979Z" fill="#263238"></path>
  <path d="M153.547 147.979C153.547 149.77 152.099 151.218 150.308 151.218C148.517 151.218 147.069 149.77 147.069 147.979C147.069 146.188 148.517 144.74 150.308 144.74C152.099 144.74 153.547 146.188 153.547 147.979Z" fill="#263238"></path>
  <path d="M162.957 147.979C162.957 149.77 161.509 151.218 159.718 151.218C157.927 151.218 156.479 149.77 156.479 147.979C156.479 146.188 157.927 144.74 159.718 144.74C161.509 144.74 162.957 146.188 162.957 147.979Z" fill="#263238"></path>
  <path d="M545.089 357.865H139.488V379.376H545.089V357.865Z" fill="#263238"></path>
  <path d="M154.818 371.107V371.794H151.589V371.246L153.333 369.595C153.76 369.186 153.835 368.936 153.835 368.685C153.835 368.286 153.556 368.054 153.018 368.054C152.591 368.054 152.238 368.203 151.988 368.509L151.422 368.073C151.756 367.618 152.368 367.349 153.083 367.349C154.039 367.349 154.651 367.831 154.651 368.611C154.651 369.038 154.531 369.428 153.927 369.994L152.758 371.107H154.818Z" fill="white"></path>
  <path d="M155.254 368.936C155.254 368.62 155.486 368.416 155.765 368.416C156.043 368.416 156.275 368.62 156.275 368.936C156.275 369.233 156.043 369.455 155.765 369.455C155.486 369.455 155.254 369.242 155.254 368.936ZM155.254 371.321C155.254 371.005 155.486 370.801 155.765 370.801C156.043 370.801 156.275 371.005 156.275 371.321C156.275 371.618 156.043 371.84 155.765 371.84C155.486 371.84 155.254 371.627 155.254 371.321Z" fill="white"></path>
  <path d="M158.317 367.414V371.794H157.5V368.091H156.572V367.404H158.317V367.414Z" fill="white"></path>
  <path d="M163.096 370.801H162.316V371.794H161.528V370.801H159.124V370.235L161.286 367.414H162.159L160.126 370.114H161.565V369.233H162.326V370.114H163.105V370.801H163.096Z" fill="white"></path>
  <path d="M502.698 369.047H170.251V370.56H502.698V369.047Z" fill="white"></path>
  <path d="M273.89 367.423H170V371.469H273.89V367.423Z" fill="#093EB0"></path>
  <path d="M277.249 369.808C277.249 372.601 274.985 374.866 272.192 374.866C269.398 374.866 267.134 372.601 267.134 369.808C267.134 367.015 269.398 364.75 272.192 364.75C274.985 364.75 277.249 367.015 277.249 369.808Z" fill="#093EB0"></path>
  <path d="M511.068 369.762C511.068 370.634 510.363 371.181 509.463 371.181C508.266 371.181 507.57 370.411 507.57 369.001C507.57 367.497 508.442 366.671 509.713 366.671C510.149 366.671 510.567 366.764 510.864 366.95L510.567 367.562C510.326 367.404 510.038 367.349 509.732 367.349C508.906 367.349 508.386 367.859 508.386 368.861V368.871C508.646 368.564 509.073 368.416 509.556 368.416C510.428 368.416 511.068 368.945 511.068 369.762ZM510.279 369.799C510.279 369.344 509.936 369.056 509.407 369.056C508.878 369.056 508.516 369.372 508.516 369.808C508.516 370.216 508.841 370.55 509.426 370.55C509.936 370.541 510.279 370.253 510.279 369.799Z" fill="white"></path>
  <path d="M511.467 368.258C511.467 367.943 511.699 367.739 511.978 367.739C512.256 367.739 512.488 367.943 512.488 368.258C512.488 368.555 512.256 368.778 511.978 368.778C511.699 368.778 511.467 368.555 511.467 368.258ZM511.467 370.643C511.467 370.328 511.699 370.124 511.978 370.124C512.256 370.124 512.488 370.328 512.488 370.643C512.488 370.94 512.256 371.163 511.978 371.163C511.699 371.163 511.467 370.94 511.467 370.643Z" fill="white"></path>
  <path d="M513.017 368.926C513.017 367.488 513.806 366.671 514.845 366.671C515.894 366.671 516.683 367.488 516.683 368.926C516.683 370.365 515.894 371.181 514.845 371.181C513.806 371.181 513.017 370.365 513.017 368.926ZM515.857 368.926C515.857 367.868 515.448 367.377 514.845 367.377C514.251 367.377 513.834 367.868 513.834 368.926C513.834 369.984 514.251 370.476 514.845 370.476C515.448 370.476 515.857 369.984 515.857 368.926Z" fill="white"></path>
  <path d="M517.221 368.926C517.221 367.488 518.01 366.671 519.049 366.671C520.098 366.671 520.886 367.488 520.886 368.926C520.886 370.365 520.098 371.181 519.049 371.181C518.01 371.181 517.221 370.365 517.221 368.926ZM520.07 368.926C520.07 367.868 519.661 367.377 519.058 367.377C518.464 367.377 518.047 367.868 518.047 368.926C518.047 369.984 518.464 370.476 519.058 370.476C519.652 370.476 520.07 369.984 520.07 368.926Z" fill="white"></path>
  <path d="M527.967 368.657H526.454V364.286H530.807V365.799H527.967V368.657Z" fill="white"></path>
  <path d="M530.816 374.355H526.445V370.003H527.958V372.843H530.816V374.355Z" fill="white"></path>
  <path d="M537.776 374.355H533.414V372.843H536.254V369.984H537.776V374.355Z" fill="white"></path>
  <path d="M537.776 368.648H536.263V365.799H533.405V364.286H537.776V368.648Z" fill="white"></path>
  <path d="M195.056 169.898H171.17L159.235 190.574L171.17 211.259H195.056L206.99 190.574L195.056 169.898Z" fill="#EBEBEB"></path>
  <path d="M173.118 194.629C172.051 193.451 170.975 192.254 170.195 190.862C169.416 189.47 168.952 187.855 169.211 186.277C169.36 185.359 169.75 184.486 169.815 183.558C169.898 182.278 169.36 180.941 169.815 179.744C170.52 177.87 173.044 177.582 174.575 176.292C175.763 175.281 176.348 173.647 177.656 172.803C178.798 172.06 180.273 172.079 181.619 172.274C182.964 172.469 184.329 172.803 185.674 172.627C186.639 172.497 187.539 172.107 188.486 171.875C189.433 171.643 190.481 171.578 191.316 172.07C192.152 172.562 192.625 173.749 192.077 174.548C193.646 173.824 195.632 175.049 196.058 176.71C196.485 178.38 195.632 180.18 194.305 181.285C192.978 182.389 191.261 182.9 189.572 183.215C184.783 184.115 179.577 183.605 175.448 181.016" fill="#263238"></path>
  <path d="M195.26 199.733C195.103 196.773 194.268 190.704 193.46 185.22C192.588 179.317 187.326 175.086 181.378 175.485L180.784 175.522C174.436 176.32 171.569 182.157 172.543 188.486L174.408 211.268H189.906C189.906 211.268 189.544 207.269 189.535 207.232C189.535 207.222 195.595 205.858 195.26 199.733Z" fill="#FFBE9D"></path>
  <path d="M189.535 207.139C189.535 207.139 185.683 207.714 181.396 205.404C181.396 205.404 183.577 209.682 189.655 208.726L189.535 207.139Z" fill="#EB996E"></path>
  <path d="M191.483 190.472C191.53 190.936 191.177 191.354 190.695 191.409C190.212 191.465 189.785 191.14 189.739 190.676C189.692 190.212 190.045 189.795 190.518 189.739C191.01 189.683 191.437 190.008 191.483 190.472Z" fill="#263238"></path>
  <path d="M192.347 188.3C192.244 188.421 191.548 187.976 190.611 188.041C189.674 188.096 189.015 188.625 188.904 188.514C188.848 188.468 188.95 188.254 189.228 188.013C189.507 187.772 189.999 187.53 190.583 187.493C191.168 187.456 191.678 187.642 191.975 187.846C192.282 188.041 192.393 188.245 192.347 188.3Z" fill="#263238"></path>
  <path d="M182.593 191.112C182.64 191.576 182.287 191.994 181.805 192.05C181.322 192.105 180.895 191.78 180.849 191.316C180.802 190.852 181.155 190.435 181.628 190.379C182.12 190.324 182.547 190.648 182.593 191.112Z" fill="#263238"></path>
  <path d="M183.104 189.099C183.002 189.219 182.306 188.774 181.368 188.839C180.431 188.894 179.772 189.423 179.661 189.312C179.605 189.266 179.707 189.052 179.995 188.811C180.273 188.57 180.765 188.328 181.35 188.291C181.934 188.254 182.445 188.44 182.742 188.644C183.039 188.839 183.15 189.043 183.104 189.099Z" fill="#263238"></path>
  <path d="M186.983 195.845C186.973 195.789 187.549 195.65 188.495 195.465C188.737 195.428 188.959 195.363 188.987 195.196C189.034 195.019 188.913 194.769 188.783 194.49C188.514 193.924 188.245 193.33 187.948 192.708C186.788 190.166 185.925 188.078 186.027 188.031C186.129 187.985 187.159 190.008 188.319 192.551C188.597 193.182 188.867 193.776 189.126 194.351C189.238 194.62 189.414 194.917 189.312 195.288C189.256 195.474 189.089 195.613 188.941 195.669C188.792 195.724 188.653 195.734 188.532 195.752C187.586 195.854 186.992 195.901 186.983 195.845Z" fill="#263238"></path>
  <path d="M183.094 185.387C183.02 185.646 182.074 185.591 180.979 185.795C179.874 185.98 179.011 186.361 178.844 186.148C178.77 186.045 178.909 185.795 179.252 185.516C179.596 185.247 180.143 184.969 180.802 184.858C181.461 184.737 182.074 184.802 182.491 184.941C182.909 185.08 183.131 185.266 183.094 185.387Z" fill="#263238"></path>
  <path d="M191.818 185.6C191.669 185.823 191.001 185.646 190.221 185.684C189.442 185.702 188.792 185.925 188.625 185.711C188.551 185.609 188.644 185.387 188.913 185.164C189.182 184.941 189.646 184.746 190.184 184.728C190.723 184.709 191.196 184.876 191.483 185.071C191.771 185.275 191.883 185.489 191.818 185.6Z" fill="#263238"></path>
  <path d="M173.35 192.978C173.239 192.94 169.054 192.012 169.471 196.198C169.889 200.374 174.418 199.019 174.408 198.898C174.408 198.768 173.35 192.978 173.35 192.978Z" fill="#FFBE9D"></path>
  <path d="M172.552 197.525C172.534 197.516 172.487 197.58 172.367 197.655C172.255 197.72 172.051 197.775 171.819 197.72C171.364 197.599 170.919 196.94 170.826 196.188C170.78 195.808 170.826 195.437 170.928 195.131C171.021 194.815 171.207 194.583 171.42 194.518C171.633 194.444 171.81 194.564 171.865 194.676C171.93 194.787 171.912 194.871 171.94 194.88C171.949 194.889 172.023 194.806 171.968 194.629C171.94 194.546 171.884 194.453 171.773 194.388C171.661 194.314 171.513 194.286 171.355 194.323C171.04 194.379 170.77 194.704 170.659 195.047C170.529 195.39 170.464 195.808 170.52 196.235C170.631 197.07 171.142 197.822 171.763 197.933C172.06 197.98 172.302 197.868 172.422 197.757C172.562 197.627 172.571 197.525 172.552 197.525Z" fill="#EB996E"></path>
  <path d="M193.154 179.494C192.866 181.155 189.498 182.677 186.695 182.603C184.115 182.528 182.844 181.248 180.969 180.338C179.781 179.763 179.781 179.763 178.176 180.023C176.877 180.236 176.199 181.767 175.466 182.862C176.858 185.897 176.292 189.423 175.707 192.708C175.643 193.07 175.559 193.46 175.281 193.711C174.807 194.128 174.046 193.878 173.592 193.451C172.849 192.773 172.515 191.771 172.274 190.797C171.717 188.579 171.513 186.259 171.856 184.004C172.209 181.749 173.137 179.549 174.687 177.87C176.617 175.763 179.429 174.548 182.287 174.399C185.136 174.251 188.004 175.132 190.388 176.7C191.484 177.434 192.523 178.324 193.154 179.494Z" fill="#263238"></path>
  <path d="M187.604 197.961C186.89 197.627 186.185 197.302 185.47 196.968C185.349 196.912 185.219 196.857 185.08 196.866C184.932 196.884 184.811 196.996 184.709 197.116C184.217 197.71 184.087 198.62 184.477 199.297C184.858 199.975 185.758 200.327 186.472 200.03C187.224 199.715 187.595 198.843 187.651 198.026L187.604 197.961Z" fill="#EB996E"></path>
  <path d="M186.547 200.188C186.584 200.225 186.101 200.532 185.294 200.3C184.904 200.179 184.459 199.882 184.189 199.399C183.911 198.926 183.809 198.258 184.05 197.655C184.162 197.358 184.347 197.089 184.57 196.884C184.681 196.782 184.793 196.69 184.932 196.615C185.071 196.513 185.359 196.504 185.489 196.578C185.971 196.847 186.305 197.079 186.63 197.293C187.252 197.71 187.623 197.989 187.586 198.054C187.549 198.109 187.122 197.933 186.454 197.59C186.064 197.386 185.693 197.191 185.312 196.996C185.219 196.968 185.229 196.968 185.145 197.014C185.062 197.07 184.96 197.144 184.885 197.228C184.718 197.395 184.579 197.599 184.496 197.831C184.31 198.295 184.375 198.805 184.579 199.195C184.783 199.585 185.099 199.845 185.414 199.984C186.055 200.253 186.528 200.105 186.547 200.188Z" fill="#263238"></path>
  <path d="M185.869 190.574C185.823 190.574 185.832 190.184 185.637 189.535C185.451 188.894 185.006 187.957 184.041 187.243C183.104 186.528 181.572 186.129 180.097 186.686C178.631 187.196 177.369 188.755 177.387 190.574C177.369 192.393 178.631 193.952 180.097 194.462C181.572 195.019 183.104 194.62 184.041 193.906C185.006 193.191 185.461 192.254 185.637 191.613C185.832 190.964 185.823 190.574 185.869 190.574C185.888 190.574 185.897 190.667 185.906 190.852C185.915 191.038 185.897 191.316 185.823 191.66C185.683 192.347 185.266 193.367 184.245 194.175C183.261 194.982 181.582 195.465 179.939 194.88C178.306 194.342 176.877 192.606 176.895 190.574C176.877 188.542 178.306 186.806 179.939 186.268C181.591 185.674 183.261 186.157 184.245 186.973C185.266 187.781 185.683 188.811 185.823 189.488C185.897 189.832 185.915 190.11 185.906 190.296C185.897 190.481 185.888 190.574 185.869 190.574Z" fill="#263238"></path>
  <path d="M196.291 190.166C196.244 190.166 196.244 189.785 196.068 189.154C195.891 188.532 195.455 187.623 194.509 186.927C193.599 186.231 192.105 185.851 190.667 186.389C189.238 186.881 188.013 188.403 188.031 190.175C188.013 191.948 189.247 193.46 190.667 193.961C192.105 194.5 193.599 194.119 194.509 193.423C195.455 192.727 195.891 191.818 196.068 191.196C196.253 190.546 196.244 190.166 196.291 190.166C196.309 190.166 196.318 190.259 196.328 190.444C196.337 190.62 196.318 190.89 196.253 191.233C196.123 191.901 195.715 192.894 194.722 193.692C193.766 194.481 192.133 194.954 190.518 194.379C188.922 193.85 187.53 192.161 187.549 190.175C187.53 188.189 188.922 186.5 190.518 185.971C192.124 185.396 193.757 185.869 194.722 186.658C195.715 187.447 196.123 188.449 196.253 189.117C196.328 189.451 196.337 189.72 196.328 189.906C196.318 190.073 196.309 190.166 196.291 190.166Z" fill="#263238"></path>
  <path d="M187.79 189.21C187.697 189.303 187.28 189.034 186.723 189.052C186.166 189.052 185.767 189.34 185.665 189.247C185.535 189.182 185.925 188.579 186.713 188.56C187.502 188.551 187.911 189.136 187.79 189.21Z" fill="#263238"></path>
  <path d="M177.406 189.962C177.489 190.073 176.673 190.806 175.596 191.613C174.52 192.421 173.573 192.987 173.499 192.876C173.415 192.764 174.232 192.031 175.308 191.224C176.385 190.416 177.322 189.85 177.406 189.962Z" fill="#263238"></path>
  <path d="M263.543 190.37C263.543 190.5 252.806 190.611 239.563 190.611C226.321 190.611 215.584 190.5 215.584 190.37C215.584 190.24 226.321 190.129 239.563 190.129C252.806 190.129 263.543 190.231 263.543 190.37Z" fill="#263238"></path>
  <path d="M241.363 195.39C241.363 195.52 235.666 195.632 228.631 195.632C221.597 195.632 215.899 195.52 215.899 195.39C215.899 195.26 221.597 195.149 228.631 195.149C235.666 195.14 241.363 195.251 241.363 195.39Z" fill="#263238"></path>
  <path d="M407.197 227.444C407.197 227.444 419.939 233.652 424.421 249.688C428.903 265.724 442.6 307.484 442.6 307.484C442.6 307.484 450.433 316.699 451.277 323.519C452.112 330.34 450.442 346.849 447.918 349.93C445.403 353.011 441.811 352.501 441.811 352.501L408.84 349.373L395.857 262.438L407.197 227.444Z" fill="#093EB0"></path>
  <path d="M298.176 225.931C298.176 225.931 274.604 233.327 268.73 239.758L288.033 329.561L287.726 357.892H399.495C399.495 356.491 400.497 263.821 400.497 263.821L407.216 227.453L367.488 220.456L359.656 214.303L315.455 216.54L308.736 223.258L298.176 225.931Z" fill="#093EB0"></path>
  <g opacity="0.3">
    <path d="M307.131 303.836C306.788 303.076 306.296 302.25 305.479 302.083C304.133 301.804 303.233 303.4 302.779 304.69C299.15 314.972 294.343 324.429 288.098 333.356L287.81 347.146C294.324 341.662 300.746 335.788 304.904 328.354C309.043 320.921 310.639 311.595 307.131 303.836Z" fill="black"></path>
  </g>
  <path d="M268.721 239.758C268.721 239.758 260.954 250.347 257.724 257.26C254.495 264.174 227.768 322.229 226.163 328.224C224.548 334.219 220.4 353.104 232.612 357.484H257.724L282.929 306.509L284.219 247.349L268.721 239.758Z" fill="#093EB0"></path>
  <path d="M259.339 320.661C259.302 320.698 258.782 320.169 257.622 319.51C256.471 318.861 254.671 318.109 252.351 317.599C251.191 317.348 249.901 317.144 248.509 317.06C247.117 316.977 245.623 316.996 244.101 317.348C241.057 318.026 238.032 319.956 235.647 322.656C233.225 325.357 231.74 328.549 230.859 331.556C229.968 334.572 229.587 337.402 229.346 339.769C229.114 342.144 229.021 344.075 228.938 345.411C228.9 346.033 228.863 346.543 228.845 346.951C228.817 347.304 228.798 347.49 228.78 347.49C228.761 347.49 228.752 347.304 228.752 346.951C228.752 346.543 228.752 346.033 228.761 345.411C228.789 344.075 228.826 342.135 229.012 339.741C229.207 337.356 229.559 334.498 230.432 331.426C231.295 328.373 232.807 325.097 235.285 322.332C237.726 319.566 240.844 317.589 244.008 316.912C245.586 316.559 247.126 316.55 248.537 316.661C249.947 316.764 251.256 316.986 252.425 317.265C254.773 317.821 256.573 318.629 257.715 319.343C258.281 319.705 258.699 320.03 258.958 320.271C259.218 320.513 259.348 320.652 259.339 320.661Z" fill="#263238"></path>
  <path d="M247.433 310.509C247.433 310.472 247.73 310.425 248.277 310.37C248.825 310.305 249.623 310.286 250.606 310.342C251.59 310.388 252.759 310.555 254.031 310.852C255.293 311.168 256.666 311.632 258.03 312.272C259.385 312.931 260.61 313.701 261.65 314.49C262.68 315.297 263.543 316.095 264.202 316.838C264.86 317.571 265.352 318.202 265.64 318.666C265.937 319.13 266.095 319.39 266.067 319.408C265.993 319.464 265.315 318.452 263.951 317.07C263.274 316.374 262.401 315.613 261.38 314.852C260.341 314.1 259.144 313.358 257.817 312.717C256.481 312.086 255.154 311.632 253.919 311.298C252.676 310.982 251.544 310.787 250.579 310.704C248.648 310.5 247.433 310.602 247.433 310.509Z" fill="#263238"></path>
  <path d="M270.132 307.716C270.122 307.753 269.714 307.716 268.972 307.623C268.229 307.53 267.153 307.419 265.826 307.316C263.172 307.112 259.478 307.066 255.432 307.548C251.395 308.04 247.813 308.959 245.28 309.776C244.008 310.184 242.988 310.546 242.292 310.815C241.596 311.075 241.196 311.205 241.187 311.177C241.178 311.149 241.54 310.954 242.227 310.639C242.904 310.314 243.906 309.906 245.178 309.451C247.702 308.541 251.302 307.558 255.386 307.066C259.46 306.583 263.199 306.685 265.863 306.973C267.199 307.112 268.276 307.279 269.009 307.428C269.742 307.595 270.141 307.688 270.132 307.716Z" fill="#263238"></path>
  <path d="M341.671 258.114C341.662 258.123 341.578 258.021 341.411 257.808C341.235 257.566 341.003 257.26 340.724 256.889C340.112 256.035 339.258 254.857 338.2 253.39C336.029 250.328 333.013 246.068 329.449 241.048L329.839 240.992C328.484 244.964 326.99 249.354 325.422 253.966L325.32 254.253L325.069 254.086C324.902 253.984 324.726 253.864 324.549 253.752C322.471 252.435 320.633 250.848 319.083 249.131C317.534 247.405 316.244 245.567 315.177 243.73C313.042 240.046 311.752 236.417 310.88 233.346C310.008 230.265 309.553 227.703 309.256 225.949C309.107 225.105 308.996 224.437 308.903 223.926C308.857 223.694 308.81 223.527 308.783 223.407C308.736 223.305 308.718 223.24 308.727 223.24C308.829 223.193 309.098 224.168 309.442 225.922C309.803 227.666 310.305 230.209 311.214 233.262C312.123 236.306 313.432 239.897 315.566 243.516C316.633 245.326 317.905 247.126 319.436 248.825C320.977 250.504 322.777 252.063 324.809 253.353C324.986 253.465 325.162 253.576 325.32 253.678L324.967 253.808C326.554 249.196 328.057 244.816 329.421 240.853L329.561 240.436L329.811 240.797C333.31 245.855 336.279 250.152 338.414 253.242C339.434 254.736 340.242 255.942 340.836 256.815C341.096 257.204 341.3 257.52 341.467 257.771C341.606 257.993 341.68 258.105 341.671 258.114Z" fill="#263238"></path>
  <g opacity="0.3">
    <path d="M370.764 300.978C369.724 311.363 372.017 322.053 377.223 331.092C382.42 340.14 390.048 348.195 399.541 352.529C399.847 343.314 399.402 332.456 399.708 323.241L370.764 300.978Z" fill="black"></path>
  </g>
  <path d="M369.715 288.849C369.715 288.849 365.66 289.972 368.704 298.296C371.747 306.611 372.759 306.11 374.791 313.896C376.824 321.673 379.19 328.781 382.744 333.18C386.299 337.579 399.495 346.543 399.495 346.543L411.336 335.379C411.336 335.379 409.387 327.055 409.851 321.404C410.315 315.752 411.503 301.878 411.336 299.512C411.169 297.146 408.626 291.392 408.626 291.392V287.457L402.538 268.721C402.538 268.721 399.151 267.199 397.973 272.609L395.94 266.865C395.94 266.865 392.73 266.355 391.885 272.953C391.041 279.551 392.562 288.682 392.562 288.682L390.874 300.189L388.34 307.966L386.141 308.3C386.141 308.3 382.828 307.4 381.018 301.164C379.19 294.937 374.281 287.494 369.715 288.849Z" fill="#FFBE9D"></path>
  <path d="M407.364 318.267C407.355 318.267 407.336 318.118 407.308 317.84C407.29 317.515 407.262 317.107 407.225 316.596C407.16 315.464 407.076 313.896 406.974 311.938C406.789 307.901 406.538 302.277 406.241 295.716L406.297 295.856C405.749 295.206 404.784 295.011 403.903 295.234C403.003 295.447 402.204 296.004 401.703 296.839C400.673 298.5 400.608 300.672 400.293 302.769C399.652 307.511 399.04 312.021 398.483 316.142C398.205 318.193 397.908 320.151 397.499 321.96C397.11 323.77 396.562 325.422 396.033 326.897C395.514 328.373 395.05 329.709 394.762 330.916C394.474 332.122 394.354 333.18 394.381 334.052C394.419 335.797 394.929 336.688 394.845 336.706C394.827 336.715 394.734 336.493 394.558 336.057C394.419 335.611 394.224 334.943 394.187 334.061C394.131 333.18 394.224 332.085 394.493 330.86C394.762 329.635 395.207 328.28 395.708 326.795C396.219 325.31 396.739 323.686 397.11 321.886C397.49 320.095 397.769 318.146 398.038 316.095C398.585 311.975 399.179 307.465 399.81 302.723C399.959 301.665 400.07 300.626 400.256 299.577C400.441 298.538 400.729 297.498 401.304 296.607C401.843 295.698 402.789 295.03 403.791 294.798C404.784 294.547 405.963 294.77 406.64 295.587L406.687 295.652V295.726C406.909 302.287 407.104 307.91 407.243 311.956C407.29 313.915 407.336 315.483 407.364 316.624C407.373 317.135 407.373 317.543 407.373 317.868C407.383 318.128 407.373 318.267 407.364 318.267Z" fill="#EB996E"></path>
  <path d="M400.887 296.951C400.859 296.96 400.673 296.589 400.386 295.893C400.107 295.197 399.736 294.167 399.393 292.858C399.049 291.559 398.724 289.972 398.539 288.2C398.446 287.309 398.381 286.362 398.492 285.379C398.595 284.395 398.882 283.356 399.513 282.483C400.051 281.722 400.812 281.11 401.675 280.859L401.861 280.804L401.954 280.971C403.671 283.996 405.155 286.669 406.204 288.589C406.687 289.49 407.086 290.241 407.42 290.863C407.698 291.401 407.837 291.698 407.81 291.717C407.782 291.735 407.596 291.457 407.271 290.947C406.909 290.353 406.464 289.62 405.935 288.747C404.812 286.863 403.272 284.228 401.536 281.212L401.815 281.323C401.072 281.546 400.395 282.075 399.912 282.771C399.346 283.569 399.068 284.516 398.966 285.444C398.864 286.381 398.91 287.3 398.984 288.172C399.142 289.926 399.42 291.494 399.727 292.793C400.024 294.092 400.339 295.132 400.562 295.846C400.794 296.542 400.924 296.941 400.887 296.951Z" fill="#EB996E"></path>
  <path d="M398.056 298.482C398.019 298.482 397.982 298.101 397.945 297.405C397.917 296.607 397.871 295.624 397.824 294.464C397.741 291.977 397.667 288.543 397.611 284.748C397.583 280.952 397.435 277.509 397.759 275.013C397.917 273.769 398.168 272.776 398.39 272.117C398.613 271.449 398.799 271.115 398.827 271.124C398.91 271.152 398.307 272.591 398.093 275.059C397.861 277.518 398.056 280.952 398.084 284.748C398.14 288.543 398.158 291.977 398.158 294.464C398.149 295.624 398.131 296.607 398.121 297.415C398.112 298.092 398.093 298.473 398.056 298.482Z" fill="#EB996E"></path>
  <path d="M388.043 329.672C387.978 329.616 388.711 328.744 389.63 327.157C390.094 326.368 390.567 325.385 391.004 324.271C391.421 323.139 391.802 321.868 392.061 320.503C392.303 319.13 392.386 317.812 392.386 316.606C392.368 315.399 392.266 314.314 392.108 313.423C391.802 311.622 391.412 310.546 391.495 310.518C391.523 310.509 391.644 310.769 391.829 311.251C392.024 311.734 392.238 312.458 392.442 313.358C392.646 314.267 392.785 315.372 392.832 316.597C392.86 317.831 392.776 319.186 392.535 320.587C392.275 321.988 391.876 323.287 391.421 324.429C390.948 325.561 390.428 326.554 389.918 327.333C389.417 328.113 388.962 328.716 388.609 329.097C388.275 329.486 388.071 329.691 388.043 329.672Z" fill="#EB996E"></path>
  <path d="M408.83 323.853L419.103 327.417C419.103 327.417 428.912 322.341 435.677 327.417C442.442 332.493 448.317 345.866 446.461 351.276C446.461 351.276 441.793 357.039 438.239 357.883C434.684 358.728 420.876 355.387 415.131 354.171C409.369 352.956 399.476 346.524 399.476 346.524L408.83 323.853Z" fill="#FFBE9D"></path>
  <path d="M410.092 338.989C410.055 338.989 410.018 338.664 409.981 338.08C409.944 337.384 409.888 336.558 409.833 335.602C409.721 333.505 409.582 330.609 409.536 327.398C409.489 324.188 409.582 321.283 409.777 319.186C409.87 318.137 409.981 317.292 410.083 316.708C410.185 316.123 410.259 315.808 410.297 315.817C410.371 315.826 410.213 317.116 410.111 319.204C410.009 321.292 409.972 324.188 410.018 327.389C410.074 330.526 410.129 333.365 410.167 335.593C410.176 336.641 410.176 337.495 410.157 338.08C410.157 338.664 410.13 338.989 410.092 338.989Z" fill="#EB996E"></path>
  <path d="M443.974 327.009C443.899 327.083 442.842 325.617 440.559 323.928C438.304 322.239 434.647 320.438 430.323 320.197C425.989 319.965 422.156 321.348 419.734 322.777C417.275 324.206 416.069 325.542 416.004 325.468C415.985 325.45 416.273 325.106 416.848 324.549C417.424 323.993 418.333 323.25 419.558 322.489C421.98 320.958 425.896 319.473 430.351 319.724C434.805 319.974 438.536 321.877 440.772 323.659C441.904 324.549 442.73 325.394 443.241 326.006C443.751 326.628 444.002 326.999 443.974 327.009Z" fill="#263238"></path>
  <path d="M442.656 318.443C442.591 318.545 441.218 317.153 438.378 316.086C435.585 314.991 431.251 314.49 426.806 315.743C424.588 316.364 422.555 317.246 420.82 318.23C419.085 319.223 417.637 320.308 416.486 321.292C415.336 322.276 414.454 323.139 413.851 323.733C413.248 324.336 412.914 324.661 412.886 324.642C412.867 324.624 413.155 324.252 413.721 323.603C414.287 322.963 415.131 322.062 416.273 321.032C417.405 320.002 418.853 318.87 420.607 317.84C422.361 316.819 424.421 315.9 426.685 315.269C431.242 313.989 435.687 314.564 438.508 315.761C439.937 316.346 440.995 317.023 441.672 317.543C442.025 317.794 442.257 318.035 442.424 318.183C442.582 318.35 442.665 318.434 442.656 318.443Z" fill="#263238"></path>
  <path d="M442.74 311.019C442.712 311.112 440.921 310.564 437.932 310.165C436.438 309.952 434.647 309.831 432.661 309.831C430.676 309.859 428.495 310.026 426.23 310.407C423.975 310.815 421.869 311.409 419.985 312.059C418.12 312.736 416.477 313.46 415.15 314.174C412.487 315.576 410.983 316.699 410.928 316.624C410.909 316.596 411.271 316.309 411.958 315.798C412.292 315.539 412.719 315.242 413.229 314.926C413.74 314.611 414.315 314.221 414.983 313.877C416.301 313.126 417.953 312.365 419.827 311.65C421.72 310.973 423.855 310.36 426.138 309.943C428.43 309.553 430.638 309.395 432.652 309.395C434.666 309.423 436.476 309.581 437.97 309.841C438.721 309.933 439.389 310.11 439.983 310.23C440.577 310.351 441.078 310.49 441.477 310.611C442.303 310.843 442.749 310.991 442.74 311.019Z" fill="#263238"></path>
  <path d="M364.017 220.149C364.017 220.149 364.491 221.04 364.732 222.878C364.982 224.706 364.945 227.453 364.342 230.849C364.036 232.548 363.628 234.413 363.015 236.408C362.375 238.403 361.41 240.445 360.315 242.579C358.106 246.848 355.313 251.497 352.092 256.462L351.712 257.047V256.351C351.703 253.075 351.703 249.632 351.693 246.05L352.055 246.226C349.29 248.453 346.385 250.801 343.388 253.223L343.462 253.112C341.458 259.478 340.131 266.568 339.611 273.946C338.766 285.239 339.444 296.041 339.982 305.841C340.437 315.65 340.734 324.494 341.04 331.908C341.337 339.332 341.606 345.327 341.829 349.476C341.949 351.526 342.042 353.132 342.107 354.245C342.144 354.774 342.172 355.183 342.191 355.489C342.209 355.767 342.2 355.916 342.2 355.916C342.2 355.916 342.172 355.777 342.135 355.498C342.107 355.201 342.061 354.784 342.005 354.264C341.903 353.178 341.773 351.564 341.634 349.494C341.356 345.346 341.031 339.351 340.697 331.927C340.363 324.503 339.973 315.668 339.527 305.869C338.971 296.078 338.275 285.249 339.119 273.918C339.648 266.512 340.975 259.385 343.007 252.982L343.026 252.917L343.082 252.871C346.079 250.458 348.993 248.119 351.758 245.892L352.12 245.604V246.068C352.111 249.641 352.111 253.084 352.102 256.369L351.721 256.258C358.097 246.375 363.284 237.781 364.082 230.831C364.723 227.462 364.797 224.743 364.583 222.915C364.491 221.996 364.314 221.319 364.203 220.855C364.073 220.381 364.017 220.149 364.017 220.149Z" fill="#263238"></path>
  <path d="M347.369 339.852L347.035 339.843C345.689 339.88 344.492 341.105 344.492 342.451C344.492 343.796 345.68 345.03 347.016 345.077C348.362 345.123 349.633 343.973 349.717 342.636C349.819 341.291 348.705 339.982 347.369 339.852Z" fill="white"></path>
  <path d="M347.369 304.087L347.035 304.078C345.689 304.115 344.492 305.34 344.492 306.685C344.492 308.031 345.68 309.265 347.016 309.312C348.362 309.358 349.633 308.207 349.717 306.871C349.819 305.525 348.705 304.217 347.369 304.087Z" fill="white"></path>
  <path d="M347.026 272.09C348.371 272.136 349.642 270.985 349.726 269.649C349.819 268.313 348.705 267.004 347.369 266.874L347.035 266.865C345.689 266.902 344.492 268.127 344.492 269.473C344.492 270.809 345.68 272.043 347.026 272.09Z" fill="white"></path>
  <path d="M306.954 178.241C303.697 174.64 300.421 170.993 298.046 166.762C295.67 162.53 294.259 157.584 295.048 152.795C295.503 149.993 296.7 147.329 296.886 144.499C297.146 140.601 295.512 136.527 296.886 132.88C299.048 127.173 306.732 126.292 311.39 122.348C315.019 119.276 316.782 114.292 320.782 111.703C324.271 109.448 328.753 109.495 332.864 110.079C336.975 110.664 341.114 111.703 345.234 111.147C348.167 110.748 350.932 109.569 353.809 108.854C356.686 108.14 359.888 107.954 362.449 109.439C365.01 110.924 366.449 114.562 364.769 117.002C369.539 114.803 375.599 118.524 376.907 123.61C378.216 128.695 375.599 134.198 371.553 137.548C367.507 140.908 362.282 142.467 357.122 143.441C342.506 146.197 326.656 144.638 314.063 136.732" fill="#263238"></path>
  <path d="M358.338 227.369C357.623 221.838 357.039 217.226 357.002 216.651C357.002 216.651 375.487 212.493 374.466 193.804C373.975 184.774 371.441 166.242 368.963 149.51C366.3 131.544 350.255 118.645 332.131 119.851L330.331 119.972C310.973 122.403 302.231 140.202 305.201 159.486L315.641 224.14C315.641 224.14 320.095 238.44 329.635 240.918L341.662 258.105L343.648 250.708L352.612 242.904C352.612 242.904 354.672 240.677 357.029 236.324C358.978 232.77 358.57 229.105 358.338 227.369Z" fill="#FFBE9D"></path>
  <path d="M357.011 216.382C357.011 216.382 345.272 218.136 332.196 211.092C332.196 211.092 338.85 224.149 357.373 221.217L357.011 216.382Z" fill="#EB996E"></path>
  <path d="M362.959 165.574C363.108 166.975 362.031 168.256 360.565 168.441C359.099 168.618 357.8 167.625 357.651 166.223C357.512 164.822 358.579 163.532 360.036 163.356C361.512 163.17 362.811 164.172 362.959 165.574Z" fill="#263238"></path>
  <path d="M365.567 158.948C365.261 159.319 363.136 157.955 360.268 158.159C357.401 158.317 355.387 159.932 355.053 159.607C354.886 159.458 355.183 158.809 356.055 158.085C356.918 157.361 358.412 156.609 360.203 156.498C361.994 156.387 363.544 156.943 364.453 157.565C365.381 158.168 365.715 158.781 365.567 158.948Z" fill="#263238"></path>
  <path d="M335.843 167.513C335.992 168.915 334.915 170.195 333.449 170.381C331.983 170.557 330.684 169.564 330.535 168.163C330.396 166.762 331.463 165.472 332.929 165.295C334.396 165.11 335.704 166.112 335.843 167.513Z" fill="#263238"></path>
  <path d="M337.393 161.37C337.087 161.741 334.962 160.377 332.094 160.581C329.227 160.739 327.213 162.354 326.879 162.029C326.712 161.88 327.009 161.231 327.881 160.507C328.735 159.783 330.238 159.031 332.02 158.92C333.811 158.809 335.361 159.365 336.27 159.987C337.198 160.59 337.541 161.203 337.393 161.37Z" fill="#263238"></path>
  <path d="M349.225 181.962C349.197 181.804 350.96 181.368 353.828 180.812C354.552 180.691 355.238 180.496 355.331 179.986C355.47 179.447 355.109 178.677 354.7 177.842C353.893 176.116 353.048 174.306 352.157 172.404C348.613 164.655 345.996 158.27 346.311 158.131C346.627 157.992 349.745 164.154 353.29 171.903C354.143 173.814 354.96 175.633 355.74 177.378C356.074 178.195 356.612 179.104 356.315 180.227C356.157 180.784 355.647 181.22 355.183 181.378C354.719 181.554 354.31 181.591 353.949 181.637C351.053 181.99 349.253 182.12 349.225 181.962Z" fill="#263238"></path>
  <path d="M337.374 150.067C337.142 150.865 334.256 150.689 330.915 151.32C327.565 151.886 324.911 153.055 324.419 152.378C324.197 152.053 324.624 151.292 325.672 150.457C326.712 149.631 328.401 148.796 330.405 148.434C332.41 148.081 334.284 148.276 335.546 148.693C336.808 149.12 337.476 149.696 337.374 150.067Z" fill="#263238"></path>
  <path d="M363.952 150.707C363.488 151.394 361.465 150.846 359.09 150.976C356.705 151.023 354.728 151.709 354.218 151.06C353.995 150.744 354.264 150.067 355.108 149.389C355.934 148.721 357.354 148.118 358.987 148.053C360.621 147.997 362.078 148.489 362.95 149.102C363.841 149.724 364.156 150.373 363.952 150.707Z" fill="#263238"></path>
  <path d="M307.65 173.22C307.326 173.1 294.566 170.279 295.828 183.029C297.09 195.771 310.898 191.623 310.889 191.252C310.871 190.88 307.65 173.22 307.65 173.22Z" fill="#FFBE9D"></path>
  <path d="M305.238 187.066C305.182 187.029 305.034 187.243 304.672 187.456C304.319 187.66 303.707 187.836 303.02 187.651C301.628 187.289 300.282 185.266 299.995 182.974C299.846 181.814 299.985 180.691 300.301 179.735C300.598 178.761 301.136 178.055 301.804 177.87C302.463 177.647 302.983 178.009 303.178 178.352C303.382 178.696 303.326 178.956 303.4 178.965C303.437 178.993 303.651 178.724 303.502 178.204C303.428 177.953 303.243 177.675 302.918 177.452C302.584 177.229 302.129 177.155 301.656 177.248C300.681 177.415 299.883 178.408 299.531 179.457C299.122 180.515 298.946 181.786 299.113 183.085C299.447 185.646 300.997 187.92 302.899 188.263C303.818 188.412 304.542 188.068 304.894 187.725C305.247 187.372 305.284 187.085 305.238 187.066Z" fill="#EB996E"></path>
  <path d="M368.026 132.101C367.154 137.177 356.862 141.817 348.334 141.576C340.474 141.344 336.586 137.446 330.869 134.671C327.25 132.917 327.25 132.917 322.35 133.716C318.378 134.365 316.327 139.042 314.1 142.392C318.341 151.644 316.624 162.4 314.833 172.422C314.638 173.527 314.388 174.724 313.543 175.466C312.114 176.728 309.785 175.977 308.384 174.687C306.129 172.627 305.098 169.555 304.365 166.595C302.686 159.839 302.036 152.758 303.103 145.872C304.17 138.987 307.019 132.305 311.724 127.164C317.599 120.742 326.192 117.039 334.887 116.594C343.583 116.148 352.315 118.84 359.591 123.61C362.959 125.809 366.114 128.547 368.026 132.101Z" fill="#263238"></path>
  <path d="M351.109 188.412C348.946 187.4 346.775 186.389 344.613 185.387C344.241 185.21 343.842 185.034 343.434 185.09C342.97 185.155 342.608 185.498 342.311 185.851C340.808 187.679 340.427 190.426 341.587 192.486C342.757 194.546 345.494 195.632 347.684 194.722C349.986 193.766 351.109 191.094 351.285 188.607L351.109 188.412Z" fill="#EB996E"></path>
  <path d="M347.889 195.186C347.907 195.242 347.592 195.428 346.942 195.567C346.302 195.687 345.299 195.743 344.149 195.363C343.007 195.001 341.717 194.11 340.919 192.681C340.112 191.289 339.815 189.331 340.52 187.558C340.854 186.676 341.383 185.897 342.024 185.284C342.348 184.978 342.692 184.718 343.081 184.486C343.286 184.375 343.536 184.264 343.833 184.245C344.121 184.227 344.381 184.301 344.585 184.394C345.012 184.579 345.281 184.783 345.596 184.969C345.903 185.155 346.19 185.34 346.478 185.516C347.035 185.869 347.564 186.194 348.056 186.509C349.986 187.734 351.137 188.542 351.072 188.662C351.007 188.774 349.726 188.171 347.712 187.103C347.202 186.825 346.654 186.528 346.07 186.212C345.773 186.045 345.466 185.878 345.16 185.711C344.854 185.544 344.511 185.331 344.241 185.229C343.945 185.127 343.815 185.136 343.527 185.294C343.239 185.47 342.933 185.711 342.673 185.971C342.135 186.5 341.699 187.159 341.411 187.911C340.817 189.405 341.031 191.029 341.689 192.263C342.339 193.507 343.388 194.323 344.371 194.732C345.364 195.149 346.274 195.205 346.886 195.205C347.517 195.177 347.861 195.121 347.889 195.186Z" fill="#263238"></path>
  <path d="M345.838 165.899C345.763 165.908 345.847 164.711 345.327 162.669C344.817 160.674 343.481 157.732 340.474 155.449C338.98 154.336 337.105 153.398 334.943 153.018C332.799 152.656 330.368 152.721 328.066 153.603C326.906 154.011 325.784 154.614 324.763 155.384C323.723 156.136 322.777 157.073 321.997 158.159C320.392 160.303 319.482 163.05 319.455 165.88C319.482 168.71 320.383 171.467 321.997 173.61C322.777 174.696 323.723 175.633 324.763 176.394C325.793 177.164 326.906 177.777 328.066 178.176C330.368 179.058 332.799 179.123 334.943 178.761C337.105 178.38 338.98 177.443 340.474 176.329C343.481 174.056 344.817 171.114 345.327 169.109C345.847 167.077 345.763 165.889 345.838 165.899C345.847 165.899 345.847 165.973 345.847 166.112C345.847 166.288 345.838 166.492 345.838 166.743C345.838 167.021 345.828 167.365 345.754 167.773C345.698 168.181 345.652 168.645 345.504 169.165C345.29 170.204 344.817 171.439 344.065 172.756C343.304 174.065 342.2 175.438 340.678 176.608C339.165 177.768 337.244 178.751 335.017 179.16C332.809 179.549 330.303 179.494 327.918 178.603C326.712 178.195 325.552 177.564 324.484 176.775C323.408 175.995 322.424 175.03 321.617 173.907C319.946 171.689 319 168.84 318.972 165.899C319 162.957 319.946 160.108 321.617 157.89C322.424 156.767 323.408 155.802 324.484 155.022C325.552 154.234 326.712 153.603 327.918 153.194C330.312 152.294 332.809 152.238 335.017 152.637C337.244 153.046 339.165 154.039 340.678 155.189C342.2 156.359 343.304 157.732 344.065 159.041C344.817 160.358 345.29 161.593 345.504 162.632C345.652 163.142 345.698 163.616 345.754 164.024C345.819 164.432 345.838 164.776 345.838 165.054C345.838 165.305 345.847 165.518 345.847 165.685C345.847 165.824 345.847 165.899 345.838 165.899Z" fill="#263238"></path>
  <path d="M377.612 164.646C377.538 164.655 377.622 163.486 377.111 161.5C376.61 159.551 375.311 156.684 372.378 154.475C370.931 153.389 369.103 152.47 366.996 152.108C364.908 151.756 362.542 151.821 360.296 152.684C359.164 153.074 358.078 153.668 357.076 154.419C356.064 155.152 355.145 156.071 354.385 157.129C352.816 159.217 351.935 161.89 351.907 164.655C351.935 167.42 352.816 170.093 354.375 172.181C355.136 173.239 356.055 174.148 357.066 174.891C358.069 175.643 359.154 176.236 360.287 176.626C362.532 177.48 364.889 177.554 366.987 177.202C369.093 176.83 370.921 175.912 372.369 174.835C375.302 172.617 376.601 169.759 377.093 167.81C377.622 165.806 377.538 164.636 377.612 164.646C377.631 164.646 377.631 164.933 377.622 165.472C377.622 165.741 377.612 166.084 377.547 166.474C377.492 166.873 377.445 167.328 377.306 167.829C376.851 169.815 375.58 172.775 372.601 175.086C371.126 176.218 369.251 177.183 367.08 177.573C364.927 177.953 362.486 177.898 360.157 177.025C358.987 176.626 357.855 176.014 356.816 175.234C355.767 174.473 354.811 173.536 354.023 172.441C352.389 170.279 351.471 167.504 351.452 164.636C351.48 161.769 352.399 158.994 354.032 156.832C354.821 155.737 355.777 154.79 356.825 154.039C357.865 153.268 358.997 152.656 360.166 152.257C362.495 151.385 364.936 151.329 367.089 151.709C369.26 152.108 371.135 153.074 372.61 154.196C375.589 156.507 376.861 159.458 377.315 161.453C377.455 161.955 377.51 162.409 377.557 162.808C377.622 163.198 377.64 163.541 377.631 163.811C377.631 164.358 377.631 164.646 377.612 164.646Z" fill="#263238"></path>
  <path d="M351.684 161.713C351.628 161.769 351.322 161.509 350.765 161.24C350.209 160.971 349.373 160.711 348.427 160.73C347.489 160.739 346.654 161.036 346.107 161.324C345.55 161.611 345.262 161.88 345.207 161.834C345.16 161.797 345.374 161.426 345.93 161.036C346.478 160.646 347.369 160.266 348.417 160.247C349.457 160.228 350.366 160.572 350.932 160.943C351.489 161.314 351.721 161.676 351.684 161.713Z" fill="#263238"></path>
  <path d="M320.021 164.005C320.104 164.117 317.497 166.196 314.202 168.645C310.908 171.105 308.179 173.007 308.096 172.905C308.012 172.794 310.62 170.715 313.914 168.265C317.209 165.806 319.947 163.894 320.021 164.005Z" fill="#263238"></path>
  <g opacity="0.3">
    <path d="M309.043 224.4C307.753 236.993 312.541 250.291 322.638 257.919C323.427 258.522 324.429 259.107 325.357 258.773C326.006 258.541 326.424 257.919 326.767 257.316C329.644 252.332 330.609 246.829 329.783 241.132C328.187 245.345 326.814 249.474 325.199 253.882C316.392 248.546 310.908 237.188 309.043 224.4Z" fill="black"></path>
  </g>
  <path opacity="0.3" d="M343.239 253.038L350.654 250.328L351.879 262.865C351.879 262.865 359.878 248.286 363.191 241.633C366.504 234.979 364.797 223.24 364.797 223.24C364.797 223.24 365.985 233.466 357.967 246.505L351.916 256.341V246.041L343.239 253.038Z" fill="black"></path>
  <g opacity="0.3">
    <path d="M257.01 316.754C253.706 315.195 249.901 314.982 246.273 315.409C242.44 315.854 238.589 317.033 235.582 319.455C232.575 321.877 230.543 325.7 230.914 329.542L231.285 329.598C233.874 322.601 239.016 317.506 245.651 316.884C252.286 316.272 258.754 319.223 263.311 324.085C262.865 320.448 260.322 318.313 257.01 316.754Z" fill="black"></path>
  </g>
  <g opacity="0.3">
    <path d="M444.456 323.909C441.969 321.227 438.48 319.603 434.879 318.972C428.56 317.868 421.776 319.835 417.015 324.141L418.426 322.99C422.017 320.884 426.156 319.64 430.323 319.761C434.48 319.882 438.647 321.422 441.663 324.29C444.438 326.925 446.099 330.498 447.686 333.978C448.317 330.387 446.943 326.591 444.456 323.909Z" fill="black"></path>
  </g>
  <path d="M396.674 265.686C396.646 265.677 396.766 265.315 397.008 264.675C397.295 263.942 397.648 263.042 398.066 261.974C398.966 259.701 400.191 256.555 401.499 253.066C402.798 249.567 403.921 246.384 404.729 244.073C405.109 242.997 405.434 242.087 405.694 241.345C405.926 240.705 406.074 240.352 406.102 240.361C406.13 240.371 406.046 240.742 405.87 241.401C405.694 242.06 405.415 243.015 405.053 244.185C404.33 246.523 403.253 249.734 401.954 253.233C400.655 256.731 399.365 259.859 398.39 262.104C397.899 263.227 397.49 264.127 397.193 264.749C396.887 265.362 396.701 265.705 396.674 265.686Z" fill="#263238"></path>
  <path d="M279.681 266.596C279.551 266.624 278.539 262.206 277.426 256.731C276.312 251.256 275.514 246.802 275.644 246.774C275.774 246.746 276.785 251.163 277.899 256.638C279.012 262.114 279.81 266.568 279.681 266.596Z" fill="#263238"></path>
  <path d="M277.927 321.803C278.224 321.951 274.53 292.886 274.53 292.886C274.53 292.886 276.86 270.828 278.168 269.807L278.205 262.021C278.205 262.021 281.815 259.831 282.78 263.366C282.78 263.366 285.982 260.592 286.539 267.199C287.095 273.806 287.216 280.572 287.216 280.572L294.334 298.371L295.503 298.964C295.503 298.964 297.034 285.017 297.925 282.966C298.816 280.915 299.429 275.922 302.797 276.674C306.175 277.426 306.453 280.219 305.85 284.766C305.247 289.313 304.486 294.009 304.774 296.951C305.052 299.892 306.389 306.361 305.98 311.492C305.572 316.634 302.76 322.053 299.8 325.858C296.849 329.663 291.206 337.532 288.135 339.908C287.058 340.743 277.927 321.803 277.927 321.803Z" fill="#FFBE9D"></path>
  <path d="M281.527 298.148C281.49 298.148 281.5 297.702 281.546 296.904C281.611 296.013 281.685 294.881 281.778 293.526C281.991 290.677 282.325 286.743 282.724 282.4C282.929 280.237 283.124 278.168 283.3 276.284C283.393 275.347 283.448 274.465 283.328 273.658C283.216 272.851 282.901 272.155 282.437 271.653C281.5 270.633 280.284 270.373 279.532 270.382C278.743 270.373 278.335 270.586 278.316 270.54C278.307 270.521 278.409 270.475 278.604 270.391C278.808 270.317 279.115 270.224 279.523 270.197C280.321 270.141 281.62 270.345 282.687 271.431C283.216 271.969 283.588 272.748 283.717 273.602C283.866 274.465 283.81 275.384 283.736 276.331C283.569 278.224 283.383 280.284 283.198 282.455C282.799 286.798 282.409 290.724 282.112 293.564C281.954 294.909 281.824 296.041 281.722 296.923C281.629 297.712 281.555 298.148 281.527 298.148Z" fill="#EB996E"></path>
  <path d="M285.351 286.26C285.425 286.316 284.627 287.012 284.089 288.552C283.513 290.065 283.309 292.348 282.901 294.826C282.52 297.313 282.14 299.558 281.852 301.173C281.555 302.797 281.342 303.79 281.277 303.781C281.212 303.772 281.305 302.751 281.518 301.117C281.722 299.484 282.047 297.229 282.427 294.742C282.826 292.274 283.086 289.981 283.773 288.413C284.098 287.634 284.488 287.067 284.803 286.715C285.109 286.381 285.332 286.242 285.351 286.26Z" fill="#EB996E"></path>
  <path d="M282.734 262.986C282.771 262.977 282.854 263.301 282.984 263.905C283.114 264.499 283.272 265.362 283.448 266.438C283.801 268.582 284.191 271.561 284.441 274.874C284.683 278.187 284.738 281.193 284.701 283.365C284.683 284.451 284.655 285.332 284.608 285.935C284.571 286.539 284.534 286.873 284.497 286.873C284.423 286.873 284.413 285.527 284.358 283.365C284.302 281.193 284.2 278.205 283.959 274.911C283.717 271.616 283.383 268.637 283.114 266.484C282.845 264.322 282.669 262.995 282.734 262.986Z" fill="#EB996E"></path>
  <path d="M303.27 290.232C303.345 290.343 302.231 290.854 300.876 290.436C299.512 290.028 298.881 288.979 299.002 288.933C299.113 288.84 299.818 289.629 301.015 289.981C302.203 290.353 303.233 290.093 303.27 290.232Z" fill="#EB996E"></path>
  <path d="M278.326 318.183L259.515 326.09H248.305C248.305 326.09 237.225 329.551 235.517 339.936C233.81 350.329 233.568 355.675 238.44 356.955C243.312 358.236 257.075 358.384 263.895 356.12C270.716 353.856 288.589 339.435 288.589 339.435L290.315 329.004L278.326 318.183Z" fill="#FFBE9D"></path>
  <path d="M282.734 329.672C282.706 329.691 282.52 329.524 282.195 329.18C281.861 328.855 281.453 328.317 280.971 327.63C280.043 326.238 279.022 324.132 278.344 321.682C277.639 319.232 277.342 316.94 277.184 315.288C277.045 313.636 277.045 312.606 277.11 312.597C277.184 312.588 277.296 313.608 277.518 315.242C277.76 316.875 278.112 319.13 278.799 321.543C279.467 323.965 280.414 326.034 281.249 327.445C282.112 328.846 282.799 329.607 282.734 329.672Z" fill="#EB996E"></path>
  <path d="M290.928 332.966C290.826 332.929 291.67 331.5 291.995 328.93C292.153 327.658 292.134 326.108 291.772 324.447C291.411 322.786 290.622 321.079 289.471 319.483C288.33 317.877 287.04 316.485 285.963 315.14C284.868 313.794 283.996 312.485 283.42 311.298C282.845 310.11 282.576 309.061 282.474 308.328C282.381 307.595 282.418 307.187 282.446 307.187C282.539 307.168 282.511 308.848 283.727 311.14C284.321 312.281 285.211 313.543 286.307 314.852C287.402 316.17 288.701 317.562 289.87 319.195C291.049 320.819 291.875 322.619 292.218 324.336C292.571 326.053 292.543 327.658 292.339 328.957C292.134 330.266 291.772 331.277 291.475 331.946C291.336 332.28 291.197 332.53 291.095 332.697C290.993 332.892 290.937 332.976 290.928 332.966Z" fill="#EB996E"></path>
  <path d="M261.928 287.68C261.807 287.745 259.756 284.005 257.344 279.337C254.931 274.669 253.075 270.837 253.186 270.772C253.307 270.707 255.358 274.447 257.77 279.115C260.183 283.782 262.049 287.615 261.928 287.68Z" fill="white"></path>
  <path d="M292.348 253.817C292.227 253.762 293.498 250.653 295.178 246.867C296.867 243.08 298.333 240.055 298.454 240.111C298.575 240.166 297.303 243.275 295.624 247.061C293.935 250.848 292.468 253.873 292.348 253.817Z" fill="white"></path>
  <path d="M322.137 275.792C322.035 275.876 320.123 273.741 317.877 271.022C315.622 268.303 313.887 266.03 313.989 265.946C314.091 265.863 316.003 267.997 318.248 270.716C320.494 273.435 322.239 275.709 322.137 275.792Z" fill="white"></path>
  <path d="M315.279 306.017C315.167 305.943 316.606 303.772 318.49 301.173C320.373 298.575 321.988 296.533 322.09 296.617C322.202 296.691 320.763 298.862 318.879 301.461C317.005 304.059 315.39 306.101 315.279 306.017Z" fill="white"></path>
  <path d="M306.054 348.715C305.999 348.742 305.572 348.037 304.969 346.849C304.356 345.661 303.567 344 302.779 342.135C301.98 340.26 301.34 338.544 300.904 337.282C300.477 336.02 300.254 335.221 300.319 335.203C300.384 335.184 300.718 335.936 301.229 337.161C301.813 338.553 302.482 340.168 303.224 341.949C303.985 343.722 304.681 345.318 305.284 346.71C305.804 347.916 306.119 348.677 306.054 348.715Z" fill="white"></path>
  <path d="M332.261 330.563C332.233 330.693 329.709 330.312 326.628 329.718C323.538 329.124 321.06 328.531 321.088 328.401C321.116 328.271 323.64 328.651 326.721 329.245C329.811 329.839 332.289 330.433 332.261 330.563Z" fill="white"></path>
  <path d="M352.594 290.668C352.491 290.575 354.904 287.828 357.967 284.516C361.029 281.212 363.6 278.604 363.692 278.697C363.795 278.79 361.382 281.537 358.319 284.85C355.248 288.153 352.686 290.761 352.594 290.668Z" fill="white"></path>
  <path d="M373.037 343.87C372.935 343.954 369.938 340.483 366.337 336.112C362.737 331.741 359.906 328.132 360.008 328.048C360.11 327.964 363.108 331.435 366.708 335.806C370.309 340.177 373.139 343.787 373.037 343.87Z" fill="white"></path>
  <path d="M246.106 321.199C246.171 321.329 243.433 322.721 240.445 325.013C237.447 327.287 235.378 329.57 235.267 329.468C235.22 329.431 235.675 328.809 236.529 327.89C237.373 326.981 238.635 325.793 240.148 324.633C241.66 323.482 243.145 322.582 244.25 321.997C245.354 321.422 246.078 321.144 246.106 321.199Z" fill="white"></path>
  <path d="M253.752 300.691C253.864 300.765 252.889 302.426 251.572 304.403C250.254 306.379 249.103 307.92 248.992 307.845C248.88 307.771 249.855 306.11 251.173 304.133C252.481 302.157 253.641 300.616 253.752 300.691Z" fill="white"></path>
  <path d="M270.976 320.828C270.874 320.893 269.899 319.269 269.398 317.014C268.879 314.768 269.055 312.884 269.176 312.894C269.324 312.894 269.37 314.722 269.872 316.903C270.354 319.093 271.106 320.763 270.976 320.828Z" fill="white"></path>
  <path d="M273.528 256.87C273.547 257 271.95 257.344 269.955 257.622C267.96 257.91 266.327 258.03 266.308 257.9C266.29 257.771 267.886 257.427 269.881 257.149C271.876 256.861 273.509 256.74 273.528 256.87Z" fill="white"></path>
  <path d="M286.464 233.921C286.529 234.042 285.128 234.942 283.337 235.935C281.546 236.928 280.033 237.642 279.978 237.522C279.913 237.401 281.314 236.501 283.105 235.508C284.896 234.515 286.399 233.81 286.464 233.921Z" fill="white"></path>
  <path d="M322.851 243.619C322.749 243.702 321.144 241.772 319.269 239.313C317.395 236.853 315.965 234.803 316.077 234.719C316.179 234.636 317.784 236.566 319.659 239.025C321.524 241.475 322.963 243.535 322.851 243.619Z" fill="white"></path>
  <path d="M369.038 266.689C368.945 266.772 367.256 265.037 365.697 262.513C364.119 259.988 363.312 257.715 363.423 257.668C363.553 257.613 364.556 259.775 366.105 262.262C367.655 264.749 369.149 266.596 369.038 266.689Z" fill="white"></path>
  <path d="M386.67 272.498C386.79 272.554 385.937 274.707 384.758 277.296C383.58 279.894 382.531 281.954 382.401 281.899C382.28 281.843 383.134 279.69 384.313 277.101C385.491 274.502 386.549 272.442 386.67 272.498Z" fill="white"></path>
  <path d="M389.138 248.435C389.036 248.518 386.939 246.171 384.452 243.182C381.965 240.194 380.034 237.698 380.137 237.614C380.239 237.531 382.336 239.879 384.823 242.867C387.301 245.864 389.24 248.351 389.138 248.435Z" fill="white"></path>
  <path d="M362.208 228.891C362.078 228.9 361.883 226.887 361.79 224.39C361.688 221.903 361.725 219.88 361.855 219.871C361.985 219.862 362.18 221.876 362.273 224.372C362.375 226.868 362.347 228.891 362.208 228.891Z" fill="white"></path>
  <path d="M384.164 227.676C384.183 227.805 381.612 228.26 378.438 228.687C375.255 229.114 372.666 229.346 372.648 229.216C372.629 229.086 375.19 228.631 378.373 228.204C381.547 227.778 384.146 227.546 384.164 227.676Z" fill="white"></path>
  <path d="M418.741 253.075C418.621 253.131 417.08 250.189 415.289 246.505C413.507 242.821 412.153 239.777 412.273 239.721C412.394 239.665 413.934 242.607 415.725 246.291C417.507 249.975 418.862 253.019 418.741 253.075Z" fill="white"></path>
  <path d="M412.914 275.022C412.784 274.994 413.146 272.628 413.721 269.742C414.296 266.846 414.872 264.526 415.002 264.554C415.132 264.582 414.77 266.948 414.194 269.835C413.619 272.721 413.053 275.05 412.914 275.022Z" fill="white"></path>
  <path d="M428.959 292.32C428.829 292.366 427.604 289.174 426.203 285.193C424.811 281.212 423.78 277.945 423.91 277.899C424.04 277.852 425.265 281.045 426.667 285.026C428.059 289.016 429.079 292.274 428.959 292.32Z" fill="white"></path>
  <path d="M426.722 302.444C426.694 302.565 424.476 302.101 422.036 300.765C419.586 299.447 417.98 297.842 418.073 297.758C418.166 297.647 419.874 299.057 422.268 300.347C424.644 301.637 426.769 302.305 426.722 302.444Z" fill="white"></path>
  <path d="M447.268 325.515C447.147 325.57 446.405 324.16 445.607 322.369C444.809 320.578 444.261 319.084 444.382 319.028C444.503 318.972 445.245 320.383 446.043 322.174C446.841 323.965 447.389 325.459 447.268 325.515Z" fill="white"></path>
  <path d="M325.923 357.698C325.793 357.716 325.468 355.869 325.199 353.587C324.93 351.304 324.828 349.438 324.958 349.42C325.088 349.401 325.412 351.248 325.682 353.531C325.951 355.814 326.053 357.679 325.923 357.698Z" fill="white"></path>
  <path d="M388.962 356.101C388.832 356.074 389.101 354.273 389.565 352.083C390.029 349.893 390.512 348.139 390.642 348.167C390.771 348.195 390.502 349.995 390.038 352.185C389.574 354.375 389.092 356.129 388.962 356.101Z" fill="white"></path>
  <path d="M401.044 172.088L409.192 157.723C405.582 151.867 403.504 144.981 403.504 137.604C403.504 116.38 420.709 99.1754 441.932 99.1754C463.155 99.1754 480.361 116.38 480.361 137.604C480.361 158.827 463.155 176.032 441.932 176.032C433.07 176.032 424.913 173.026 418.417 167.987L418.426 168.005L401.044 172.088Z" fill="#FAFAFA"></path>
  <path d="M401.044 172.088C401.87 171.903 407.373 170.641 418.454 168.107L418.63 168.07L418.519 167.922L418.509 167.903L418.342 168.07C420.532 169.768 423.159 171.439 426.249 172.84C429.339 174.213 432.884 175.327 436.791 175.847C438.74 176.097 440.781 176.255 442.879 176.153C443.927 176.097 444.995 176.069 446.071 175.977C447.138 175.819 448.224 175.652 449.319 175.485C453.671 174.622 458.116 172.97 462.274 170.399C466.422 167.829 470.264 164.349 473.345 160.071C476.417 155.793 478.746 150.726 479.841 145.223C480.917 139.72 480.834 133.827 479.386 128.12C477.929 122.431 475.21 116.882 471.146 112.316L469.577 110.59C469.058 110.005 468.445 109.532 467.888 108.994C467.304 108.492 466.775 107.917 466.144 107.472L464.297 106.089C463.703 105.606 463.044 105.217 462.385 104.827C461.736 104.428 461.086 104.038 460.436 103.639C459.75 103.305 459.072 102.98 458.395 102.646C457.708 102.331 457.049 101.959 456.335 101.727C450.748 99.5094 444.8 98.665 439.102 99.0826C433.404 99.4909 427.956 101.124 423.289 103.76C418.602 106.367 414.649 109.857 411.596 113.745C408.533 117.643 406.38 121.93 405.044 126.208C403.717 130.505 403.355 134.764 403.374 138.708C403.485 142.661 404.209 146.308 405.258 149.501C406.306 152.702 407.689 155.459 409.109 157.769V157.658C403.958 166.882 401.443 171.383 401.044 172.088C401.453 171.383 404.023 166.919 409.294 157.779L409.331 157.723L409.294 157.667C407.893 155.356 406.538 152.61 405.508 149.427C404.487 146.244 403.782 142.634 403.689 138.708C403.689 134.792 404.06 130.579 405.387 126.329C406.724 122.097 408.867 117.856 411.902 114.005C414.927 110.163 418.843 106.72 423.483 104.149C428.105 101.551 433.497 99.9456 439.12 99.5466C444.744 99.1475 450.627 99.9827 456.14 102.173C456.845 102.396 457.495 102.767 458.172 103.082C458.84 103.407 459.518 103.732 460.186 104.066C460.826 104.456 461.467 104.845 462.116 105.235C462.766 105.625 463.415 106.005 464 106.488L465.819 107.852C466.441 108.288 466.96 108.854 467.536 109.356C468.083 109.884 468.696 110.358 469.206 110.933L470.756 112.641C474.774 117.151 477.456 122.635 478.894 128.25C480.323 133.883 480.416 139.71 479.358 145.148C478.282 150.587 475.99 155.607 472.955 159.829C469.921 164.07 466.125 167.523 462.023 170.065C457.922 172.627 453.523 174.269 449.217 175.132C448.131 175.299 447.055 175.466 446.006 175.624C444.939 175.717 443.881 175.745 442.851 175.81C440.772 175.921 438.749 175.763 436.819 175.522C432.94 175.021 429.423 173.926 426.351 172.58C423.279 171.207 420.662 169.564 418.472 167.894L417.758 167.346L418.305 168.061L418.314 168.079L418.379 167.894C407.355 170.557 401.87 171.893 401.044 172.088Z" fill="#263238"></path>
  <path d="M452.307 135.998C452.307 138.068 453.987 139.757 456.066 139.757C458.144 139.757 459.824 138.077 459.824 135.998C459.824 133.929 458.144 132.24 456.066 132.24C453.987 132.24 452.307 133.929 452.307 135.998Z" fill="#263238"></path>
  <path d="M437.283 135.998C437.283 138.068 438.963 139.757 441.041 139.757C443.12 139.757 444.8 138.077 444.8 135.998C444.8 133.929 443.12 132.24 441.041 132.24C438.963 132.24 437.283 133.929 437.283 135.998Z" fill="#263238"></path>
  <path d="M422.296 134.124C421.256 135.924 421.878 138.216 423.669 139.256C425.469 140.295 427.762 139.673 428.801 137.882C429.84 136.082 429.218 133.79 427.427 132.751C425.627 131.711 423.326 132.324 422.296 134.124Z" fill="#263238"></path>
</svg>
