<svg xmlns="http://www.w3.org/2000/svg" width="20" height="20" viewBox="0 0 20 20">
    <g fill="none" fill-rule="evenodd">
        <g fill="#FFF" fill-rule="nonzero">
            <g>
                <g>
                    <g>
                        <path d="M14.706 0c.673 0 1.225.551 1.225 1.226v1.837h3.676l.001 16.544H0V3.063h3.675V1.226C3.675.55 4.227 0 4.901 0c.675 0 1.226.551 1.225 1.226v1.838h-2.45V4.29c0 .674.55 1.226 1.225 1.226s1.226-.552 1.226-1.226V3.063h7.352v1.226c0 .674.551 1.226 1.226 1.226.674 0 1.226-.552 1.226-1.226V3.064H13.48V1.226C13.48.55 14.031 0 14.706 0zm2.45 6.74H2.451v10.416h14.705V6.74zm-4.534 1.593l1.716 1.715-5.76 5.76-3.31-3.308 1.717-1.716 1.593 1.593 4.044-4.044z" transform="translate(-787 -4157) translate(671 4063) translate(116) translate(0 94)"/>
                    </g>
                </g>
            </g>
        </g>
    </g>
</svg>
