<?xml version="1.0" encoding="UTF-8"?>
<svg xmlns="http://www.w3.org/2000/svg" width="84" height="84" viewBox="0 0 84 84">
  <g fill="#FFF">
    <path d="M29.322 21.642c0-1.156-.938-2.094-2.095-2.094-1.156 0-2.094.938-2.094 2.094 0 1.157.938 2.095 2.094 2.095 1.157-.002 2.094-.939 2.095-2.095zM39.794 23.737c1.157 0 2.094-.938 2.094-2.095 0-1.156-.937-2.094-2.094-2.094-1.157 0-2.095.938-2.095 2.094.002 1.156.939 2.093 2.095 2.095zM33.51 32.114c2.313-.002 4.187-1.876 4.19-4.188h-2.793c0 .77-.625 1.396-1.396 1.396-.772 0-1.397-.625-1.397-1.396h-2.792c.003 2.312 1.876 4.186 4.189 4.188zM20.698 65.625c-1.115-.013-2.183.45-2.934 1.274-.752.823-1.117 1.928-1.003 3.037.213 2.292 2.128 4.05 4.43 4.067 1.114.013 2.182-.45 2.934-1.274.752-.823 1.116-1.928 1.003-3.037-.214-2.292-2.129-4.05-4.43-4.067zm1.361 5.225c-.226.237-.541.368-.87.36-.85-.027-1.55-.673-1.647-1.518-.038-.331.066-.663.286-.913.225-.238.541-.37.869-.36.85.026 1.552.673 1.648 1.518.038.33-.065.662-.285.913z"></path>
    <path d="M83.777 74.003c0-5.398-4.376-9.774-9.774-9.774h-1.34c-.772.011-1.414-.59-1.453-1.362-.01-.376.132-.741.395-1.01.263-.27.625-.422 1.001-.42H76.7c2.343 0 4.323-1.918 4.284-4.261-.042-2.284-1.904-4.115-4.189-4.117h-4.189c-.487 0-.973.036-1.455.108.202-1.784-.119-3.59-.923-5.195l-.414-.828v-5.256c.004-.762-.607-1.385-1.37-1.396-2.822-.013-5.391 1.625-6.571 4.189h-3.666c-1.18-2.564-3.75-4.202-6.572-4.189-.762.011-1.373.634-1.369 1.396v3.27c-.897-.317-1.841-.478-2.793-.477h-6.981v-6.06c3.472-1.987 5.915-5.377 6.702-9.3h.166c3.072 0 5.652-2.43 5.697-5.501.029-2.024-1.04-3.905-2.792-4.917v-2.626c3.144-1.109 5.332-3.977 5.57-7.303.238-3.326-1.52-6.476-4.475-8.02-2.954-1.546-6.544-1.191-9.14.902C39.976.636 37.462-.003 34.907 0h-2.793c-8.482 0-15.359 6.876-15.359 15.359v3.544c-1.752 1.012-2.82 2.893-2.792 4.917.045 3.07 2.627 5.502 5.698 5.502h.165c.788 3.922 3.231 7.313 6.703 9.3v6.059h-7.714c-4.27-.004-7.858 3.208-8.325 7.452l-.414 3.718H3.883c-1.196 0-2.325.55-3.06 1.493-.737.943-.997 2.172-.707 3.332l4.96 20.951c.299 1.26 1.423 2.15 2.718 2.15h66.209c.545 0 1.089-.046 1.626-.136l.015-.003.012-.003c4.7-.79 8.136-4.867 8.12-9.632zm-4.837-4.936c1.632 1.633 2.351 3.967 1.922 6.235-.429 2.269-1.951 4.179-4.067 5.103v-3.281c.058-.052.116-.105.172-.16 1.028-1.03 1.448-2.52 1.11-3.936-.34-1.416-1.39-2.554-2.772-3.006-.591-1.11-1.349-2.121-2.246-3h.944c1.853-.006 3.63.73 4.937 2.045zm-8.7-12.803c.758-.274 1.56-.414 2.366-.413h4.19c.77 0 1.395.625 1.395 1.396 0 .771-.625 1.397-1.396 1.397h-4.189c-1.873-.002-3.519 1.24-4.03 3.043l-.785-2.354c1.024-.839 1.858-1.884 2.448-3.069zm-17.181-8.79V43.51c1.319.44 2.354 1.475 2.792 2.794l.072.215c.19.57.723.954 1.324.954h5.585c.602 0 1.135-.384 1.325-.955l.072-.214c.438-1.32 1.473-2.355 2.792-2.794v3.963c0 .217.05.43.148.625l.561 1.123c1.01 2.018.902 4.415-.284 6.335s-3.282 3.088-5.539 3.088h-3.733c-2.256 0-4.352-1.169-5.538-3.088-1.187-1.92-1.295-4.317-.286-6.335l.562-1.123c.097-.194.147-.408.147-.625zm-9.146 33.51c.184-.629.205-1.293.062-1.932l-.19-.86h8.885c-.546.838-.882 1.796-.98 2.792h-7.777zm5.924-32.982c-2.088 4.21-.706 9.316 3.222 11.897v15.5h-5.227c3.054-4.379 2.908-10.234-.359-14.456v-13.47c.818 0 1.626.18 2.365.529zm-5.156-.529v13.963c0 .33.116.648.328.9 2.966 3.513 2.965 8.653-.001 12.165-.211.252-.327.57-.327.898h-1.518L39.61 59.405c-.283-1.295-1.12-2.4-2.29-3.022.526-.254 1.025-.559 1.491-.91 1.531-1.148 2.642-2.767 3.162-4.608l.97-3.392h1.739zm-15.36-2.792v-4.828c2.728.852 5.65.852 8.378 0v4.828c.003 1.37.997 2.535 2.35 2.754l-.762 2.663c-.737 2.578-3.094 4.356-5.776 4.357-2.68-.008-5.033-1.784-5.777-4.358l-.761-2.662c1.352-.219 2.346-1.385 2.349-2.754zm18.152-18.152v-5.585c1.543 0 2.793 1.25 2.793 2.793 0 1.542-1.25 2.792-2.793 2.792zm0-23.736c2.558 0 4.789 1.737 5.415 4.217.627 2.48-.511 5.067-2.762 6.282-.52-3.82-2.46-7.305-5.432-9.761.845-.487 1.804-.742 2.78-.738zM19.548 15.359c.008-6.937 5.63-12.559 12.566-12.566h2.793c6.937.007 12.559 5.629 12.566 12.566v2.793h-.533l-5.2-10.399c-.188-.377-.537-.649-.949-.74-.412-.09-.842.01-1.172.274-.11.088-11.033 8.773-18.982 10.557-.376.084-.74.152-1.09.201V15.36zm-2.793 8.378c.002-1.542 1.251-2.791 2.793-2.793v5.585c-1.542-.002-2.79-1.25-2.793-2.792zm5.585 2.792v-6.24c6.7-1.892 14.543-7.432 17.66-9.771l4.68 9.36v6.651c0 6.17-5 11.17-11.17 11.17-6.168 0-11.17-5-11.17-11.17zm1.74 20.944l.969 3.391c.592 2.06 1.916 3.833 3.722 4.987h-6.43v-8.378h1.739zm-10.815 4.968c.311-2.83 2.703-4.97 5.55-4.968h.733v8.378h-6.662l.379-3.41zm-3.83 28.543c-.802 0-1.5-.545-1.694-1.322L2.825 59.997c-.022-.086-.032-.174-.032-.263 0-.602.488-1.09 1.09-1.09h31.296c.82-.004 1.53.566 1.704 1.366l4.366 19.648c.072.322-.007.66-.214.918s-.52.408-.85.408H9.434zm57.586-.003V69.814H64.23v11.168h-4.137c.117-.683.444-1.313.935-1.803.262-.262.41-.617.41-.988v-8.377h-2.793v7.84c-.78.948-1.258 2.108-1.37 3.33h-2.768c.12-.683.447-1.313.936-1.805.262-.262.41-.617.41-.988V61.143c.758.195 1.538.294 2.321.293h3.734c1.173 0 2.335-.222 3.424-.656l1.763 5.287c.13.39.425.702.806.855 1.803.718 3.347 1.962 4.434 3.569.286.424.539.87.756 1.334.604 1.286.915 2.69.913 4.112v5.042l-6.982.002z"></path>
    <path d="M54.455 50.266H57.248V53.059H54.455zM62.832 50.266H65.625V53.059H62.832z"></path>
  </g>
</svg>
