<svg xmlns="http://www.w3.org/2000/svg" width="48" height="48" viewBox="0 0 48 48">
    <g fill="none" fill-rule="evenodd">
        <g fill="#000" fill-rule="nonzero">
            <g>
                <path d="M63.992 46.734H49.044c-3.669.004-6.641 2.977-6.646 6.646v8.077c0 1.259.5 2.466 1.39 3.356.89.89 2.098 1.39 3.357 1.39.07 0 .139-.014.208-.017v3.428c0 .524.425.95.95.95.524 0 .949-.426.949-.95v-3.878l7.657-2.89 6.875 2.876v3.892c0 .524.425.95.95.95.524 0 .949-.426.949-.95v-3.43c.069 0 .138.02.207.02 2.621 0 4.746-2.125 4.746-4.747V53.38c-.004-3.668-2.976-6.641-6.644-6.646zm4.747 14.723c0 .927-.451 1.797-1.21 2.33-.759.534-1.73.665-2.602.351l-15.675-6.55v-3.722c0-.524-.425-.95-.95-.95-.524 0-.949.426-.949.95v5.221c0 .525.425.95.95.95.326-.004.627-.179.793-.46l5.26 2.196-6.213 2.345c-.875.327-1.854.205-2.621-.327-.767-.533-1.225-1.407-1.225-2.34V53.38c.003-2.62 2.127-4.744 4.747-4.747h14.948c2.62.003 4.743 2.126 4.747 4.747v8.077zm-1.603-2.175c-.09.442-.479.76-.93.76-.063 0-.127-.006-.19-.019l-12.951-2.61c-.515-.105-.846-.607-.741-1.121.104-.514.606-.846 1.12-.741l10.348 2.089v-3.77c0-.525.425-.95.95-.95.524 0 .95.425.95.95v4.15l.71.144c.51.108.838.607.734 1.118zM56.518 45.815c3.703 0 6.718-3.404 6.718-7.59 0-4.184-3.013-7.588-6.718-7.588-3.704 0-6.718 3.404-6.718 7.589 0 4.185 3.01 7.59 6.718 7.59zm0-13.28c2.659 0 4.82 2.553 4.82 5.69 0 3.139-2.162 5.691-4.82 5.691-2.657 0-4.82-2.552-4.82-5.69 0-3.138 2.163-5.69 4.82-5.69zM40.053 54.086c0 .524-.426.95-.95.95-7.364 0-13.76-5.069-15.442-12.239-1.682-7.17 1.792-14.554 8.388-17.829 6.596-3.275 14.579-1.58 19.273 4.095.335.403.28 1.002-.124 1.337-.404.335-1.003.279-1.338-.125-4.132-4.995-11.16-6.488-16.966-3.606-5.807 2.883-8.865 9.384-7.385 15.695 1.48 6.312 7.111 10.774 13.594 10.774.524 0 .95.425.95.949zm0-25.905v10.993c0 .26-.107.507-.294.686l-5.115 4.898c-.243.244-.6.337-.93.243-.332-.094-.587-.36-.666-.695-.08-.335.029-.687.283-.92l4.823-4.617V28.182c0-.525.425-.95.95-.95.523 0 .949.425.949.95v-.001z" transform="translate(-423 -2026) translate(400 2003)"/>
            </g>
        </g>
    </g>
</svg>
