<?xml version="1.0" encoding="UTF-8"?>
<svg width="495px" height="423px" viewBox="0 0 495 423" version="1.1" xmlns="http://www.w3.org/2000/svg" xmlns:xlink="http://www.w3.org/1999/xlink">
    <title>Group 2</title>
    <g id="Page-1" stroke="none" stroke-width="1" fill="none" fill-rule="evenodd">
        <g id="Intelligent-Banking" transform="translate(-348.000000, -126.000000)">
            <g id="Group-2" transform="translate(348.000000, 126.000000)">
                <path d="M233.871498,39.1002715 C234.759539,34.3299428 233.114295,32.1999174 235.777269,28.1436605 C241.805177,18.9619193 264.011725,10.408064 270.994715,21.3717145 C281.052991,37.1637219 268.047909,56.4499898 265.618107,71.0044261 C264.43189,78.1098307 267.813156,80.5626175 269.129161,87.6451324 C269.658066,90.4916052 271.059978,92.6781833 271.673428,95.5076402 C273.690559,104.811388 270.196499,121.910487 258.825681,122.548648 C253.883767,122.826001 246.848486,120.470566 243.038598,117.011534 C218.848772,95.0493708 231.794143,105.310484 231.789145,63.0660272 C231.787861,52.2052663 219.146738,52.3476367 221.244098,41.0437339 C222.284805,35.4347514 228.901952,34.3454725 232.11226,37.5546513 C232.693058,41.7652839 233.279471,42.2804907 233.871498,39.1002715 Z" id="Path-2" fill="#FFFFFF"></path>
                <g id="big-shoes(32)" fill="#000000" fill-rule="nonzero">
                    <g id="Sitting-Body" transform="translate(0.000000, 88.698441)">
                        <g id="Group-8" transform="translate(0.000000, 0.905139)">
                            <path d="M467.734151,198.74614 C466.693649,198.617301 465.651516,198.490092 464.154368,198.307433 C464.601229,199.630078 464.889895,200.481397 465.26989,201.595289 C466.338117,200.753754 467.116047,200.140543 467.893977,199.527332 C467.841789,199.268022 467.78797,199.007081 467.734151,198.74614 Z M469.591724,187.670829 C467.319907,187.497956 465.062768,186.532474 462.717562,187.491432 C465.10354,188.525411 467.466687,189.499046 470.545789,189.073387 C470.092405,188.380262 469.867343,187.693661 469.591724,187.670829 Z M22.3846537,168.773814 C29.0304927,170.572675 29.3387291,170.54332 30.4526207,167.963266 C23.7024053,166.410668 23.2457587,166.457963 22.3846537,168.773814 Z M26.3949894,176.590625 C26.9136095,175.5436 27.3963502,174.569964 28.0454407,173.26526 C25.0902848,172.991272 22.6325475,171.360391 19.6953313,173.071185 C21.4746222,175.37725 23.8230905,175.871407 26.3949894,176.590625 Z M465.207917,195.117431 C466.471849,195.337599 467.765138,195.54146 469.038856,195.510473 C469.65859,195.494164 470.265278,194.926618 470.878489,194.606965 C470.433259,193.969291 470.10219,192.93205 469.518335,192.76407 C467.688486,192.230772 465.762416,192.025281 463.554204,191.637131 C463.573774,194.7831 463.56562,194.830396 465.207917,195.117431 Z M23.11855,187.489801 C23.3909071,187.478385 23.6632642,187.465338 23.9356212,187.455553 C24.2683209,185.012494 24.6010206,182.571065 24.9630761,179.899682 C23.5344246,179.389217 22.2672302,178.939094 20.3183277,178.244338 C21.394709,181.799658 22.2558141,184.645545 23.11855,187.489801 Z M17.1218015,181.157091 C15.3359871,177.202206 15.7355529,173.663194 17.5425687,169.974142 C18.2895121,168.449269 19.3610008,166.991261 19.4882095,164.569403 C16.3879052,168.204637 15.1060329,171.998065 14.1584912,175.904025 C13.9366914,176.814056 14.1079339,178.055156 14.5808893,178.862442 C17.0369957,183.050544 18.428137,187.5795 19.2908729,192.325363 C19.9301781,188.336228 18.6809235,184.614559 17.1218015,181.157091 Z M283.297848,274.989815 C283.82136,273.399706 284.367705,271.81449 284.860231,270.212965 C285.336449,268.657105 285.758847,267.083305 286.295407,265.204531 C284.312256,264.860415 282.759657,264.589689 280.647667,264.219479 C281.32122,268.291788 281.885505,271.700329 282.44979,275.1105 C282.733563,275.069728 283.015705,275.030587 283.297848,274.989815 Z M29.832886,164.344342 C33.7404763,164.818928 35.1153087,163.630016 35.6616538,159.344061 C28.6912695,158.456862 26.633098,159.223376 24.9190423,163.675681 C26.7717229,163.928467 28.2998581,164.158421 29.832886,164.344342 Z M469.410696,184.529753 C468.924694,178.159533 468.192429,177.546321 460.921962,177.363663 C461.189427,179.258746 461.448737,181.085333 461.756973,183.269082 C464.622431,183.740407 466.964375,184.126925 469.410696,184.529753 Z M281.477785,299.221441 C280.453592,304.275541 278.912409,309.228525 278.649838,314.801245 C281.2462,314.411464 283.361452,314.096704 285.713182,313.746065 C284.550364,308.762093 283.465828,304.102667 282.379662,299.444872 C282.077949,299.369851 281.777867,299.296462 281.477785,299.221441 Z M276.911319,302.548438 C280.734103,292.23801 281.205428,281.800373 278.163835,271.232266 C277.08093,281.64707 276.152959,292.065136 276.911319,302.548438 Z M476.496873,202.283521 C478.318567,200.350927 478.788261,197.982888 477.80484,195.41262 C476.739875,192.630337 475.735252,189.823592 474.636038,187.054356 C474.402822,186.465608 473.880941,185.992653 472.987218,184.789063 C473.388415,187.964388 473.577597,190.2835 473.995102,192.56184 C474.665394,196.219906 473.804289,199.206049 470.703985,201.459926 C469.446576,202.373219 468.376718,203.542561 467.117678,204.450961 C465.754262,205.434382 465.379159,206.605355 465.892887,208.162846 C466.21417,209.131589 466.45391,210.124795 466.944805,211.864945 C470.495232,208.324303 473.579228,205.383825 476.496873,202.283521 Z M293.311455,265.618774 C289.739827,265.467102 289.619141,265.429592 288.82001,268.053679 C287.419083,272.656025 286.062191,277.277941 284.923836,281.948783 C284.344873,284.323346 283.712091,286.918077 284.095348,289.250236 C285.359281,296.939839 287.110847,304.549529 288.594948,312.208144 C288.948849,314.041254 289.93064,314.522364 291.807783,314.205973 C285.819189,297.613393 285.744169,281.510076 293.311455,265.618774 Z M242.078968,247.136003 C241.739745,244.603245 241.393998,242.068856 241.058036,239.59481 C235.685915,239.735066 223.82452,242.085165 220.870995,243.598622 C228.182233,247.530676 235.336907,251.377924 243.204276,255.606797 C242.759045,252.26023 242.423084,249.698116 242.078968,247.136003 Z M328.54011,316.574012 C328.655903,312.173896 328.33625,307.733008 328.849978,303.386711 C329.241389,300.085808 329.611599,296.995289 328.173162,293.878676 C327.811107,293.092591 327.70673,292.047197 327.863295,291.192615 C328.3917,288.304325 328.192733,285.538352 327.210943,282.7577 C326.884766,281.829729 327.134291,280.701159 327.088627,279.668812 C327.008713,277.858534 326.708631,276.03684 326.845625,274.246133 C327.191372,269.718808 326.850518,265.305645 325.607787,260.921838 C325.310967,259.873181 325.783922,258.61088 325.880144,257.4448 C325.950272,256.577171 325.979628,255.706281 326.046494,254.505953 C324.477587,254.399946 323.146788,254.308616 321.331618,254.1863 C324.611319,279.474737 325.273456,304.344038 322.70645,329.601488 C324.741789,329.259003 326.247092,329.007847 328.050846,328.704503 C328.230243,324.340266 328.437365,320.457139 328.54011,316.574012 Z M344.979388,117.21515 C353.895413,112.978122 362.343376,107.729948 370.867989,102.705204 C375.246904,100.125151 375.377375,99.2901398 374.224342,94.3909741 C374.075932,93.7581924 373.839454,93.1466121 373.635594,92.5285083 C372.792429,89.9598711 371.119145,88.8231472 368.698918,89.5554127 C367.677987,89.8636491 366.789157,90.8144526 365.994918,91.6233695 C358.929942,98.8171844 351.197937,105.149894 342.521651,110.336095 C335.867658,114.313813 328.683628,116.915068 320.775487,118.966716 C320.995656,121.04772 321.20604,123.025978 321.491444,125.731609 C329.857862,122.761776 337.736647,120.65957 344.979388,117.21515 Z M120.911052,101.778864 C119.79716,105.040625 118.872451,108.121359 117.68517,111.096086 C116.776769,113.369533 117.358994,114.988998 118.976827,116.683483 C123.337803,121.25158 128.305465,125.041747 133.834151,128.003426 C142.890432,132.850404 152.000532,137.610945 161.249256,142.074665 C165.874434,144.308972 170.855144,145.80612 176.049499,147.777855 C177.40313,143.871896 178.574103,140.489449 179.831512,136.855847 C157.284585,129.348903 139.168762,115.820747 120.911052,101.778864 Z M165.763534,163.649587 C162.818164,169.907276 159.375374,175.873038 154.841526,181.166877 C150.668102,186.038317 145.473747,187.52405 139.375884,186.085613 C136.593601,185.426737 133.834151,184.619451 131.143198,183.660493 C120.602816,179.891528 110.096682,176.029602 99.5693466,172.224758 C98.7490136,171.927937 97.8667071,171.805621 97.0137565,171.601761 C97.4687722,172.648787 98.073829,173.120111 98.7049798,173.555556 C105.668841,178.371547 112.624547,183.202216 119.609609,187.988851 C126.271757,192.553686 132.945321,197.103843 139.669442,201.577349 C140.68385,202.250903 142.009756,202.85596 143.179098,202.831497 C147.853202,202.735275 152.522413,202.410729 157.189994,202.104124 C160.924711,201.859492 164.652904,201.518638 168.521354,201.20877 C169.300915,184.291644 168.715428,167.542499 174.033731,151.497894 C173.493909,151.135839 173.210136,150.865112 172.870913,150.739535 C172.525166,150.610695 172.1256,150.623742 171.42269,150.530782 C169.478681,155.061369 167.756471,159.419082 165.763534,163.649587 Z M395.438839,171.680043 C394.81258,171.644164 394.184691,171.554466 393.561695,171.587083 C386.530968,171.967078 379.506765,172.606384 372.472776,172.697713 C364.143868,172.80372 355.792128,172.702606 347.479529,172.188878 C342.446631,171.879011 337.7236,170.197573 335.200627,165.117379 C332.008994,158.691709 329.096241,152.168186 327.263131,145.186386 C326.173702,141.034163 324.753205,136.965116 323.443608,132.871605 C323.184298,132.057796 322.739068,131.302698 322.378643,130.519875 C321.892641,132.238824 321.763801,133.868073 321.912211,135.471229 C322.933142,146.522077 323.53983,157.568032 322.443878,168.659652 C322.032896,172.808613 321.858392,176.990191 321.786633,181.158722 C321.752385,183.218525 321.709982,185.50665 322.528684,187.30225 C323.963859,190.44985 324.751574,193.6529 325.138093,197.033715 C325.20659,197.637141 325.606156,198.203057 325.764351,198.576529 C349.125087,189.72737 372.33252,180.938553 395.539953,172.148106 L395.438839,171.680043 Z M302.599321,263.342065 C297.191321,266.297221 294.068184,270.791928 292.667258,276.687562 C291.049424,283.483442 290.788483,290.385329 291.344613,297.282324 C292.497646,311.606349 298.254655,323.497101 319.001089,327.955929 C321.798049,304.040694 321.219087,280.282023 318.167709,256.159666 C312.438425,258.154233 307.493594,260.665789 302.599321,263.342065 Z M248.834076,257.994407 C248.23065,263.676395 247.529371,269.356753 247.21298,275.058312 C246.787321,282.726713 246.873757,290.42447 246.387755,298.087979 C245.903383,305.743333 244.686746,313.307358 241.429877,320.188044 C241.689187,320.541945 241.743006,320.703402 241.84249,320.737651 C250.817227,323.914606 260.092046,324.720262 269.516905,324.048339 C270.263849,323.99452 271.155941,322.993159 271.578339,322.215229 C271.984428,321.469916 271.93224,320.442461 271.964857,319.535692 C272.292664,310.817003 272.490001,302.093422 272.933601,293.381257 C273.535396,281.575311 273.139092,269.642157 276.917842,258.188482 C277.067883,257.733466 276.937413,257.18549 276.937413,256.22327 C268.008341,255.484481 259.129826,254.747323 249.87947,253.984071 C249.408146,255.747053 248.954761,256.85279 248.834076,257.994407 Z M366.065045,187.530573 C364.046015,187.923616 362.108529,188.541719 360.174304,189.17287 C346.331388,193.709981 333.160396,200.089986 319.082633,204.015516 C310.442227,206.425958 302.008942,209.997587 292.797728,209.006011 C286.729221,208.353659 280.642774,207.46646 274.70963,206.070426 C265.147776,203.818179 255.651157,203.209861 246.115398,205.767082 C232.425785,209.441456 218.858488,208.824983 205.172137,205.517557 C198.75299,203.964959 192.10552,203.275096 185.528178,202.46781 C181.222653,201.937774 176.943222,202.343863 173.030739,204.59774 C172.380017,204.974474 171.456939,205.462107 170.86656,205.268032 C166.844808,203.945388 162.847519,205.30065 158.8486,205.26314 C155.420489,205.230522 151.989115,205.74588 148.557742,206.018237 C149.459619,207.344144 150.474027,208.079671 151.579764,208.640694 C156.805106,211.292506 162.027186,213.952472 167.303086,216.50317 C179.839666,222.568415 192.410495,228.570056 204.95686,234.615731 C205.891355,235.064224 207.016663,235.468682 207.590733,236.240089 C209.342299,238.598342 212.043037,239.319191 214.453479,240.506473 C215.25098,240.897884 216.410536,240.7984 217.349923,240.625527 C224.517644,239.314299 231.65764,237.848137 238.836777,236.595621 C242.747629,235.913912 243.054234,236.202578 244.704686,239.412152 C286.639522,225.013106 326.587946,206.840201 366.065045,187.530573 Z M29.3941791,183.252773 C32.869586,181.442496 35.6159891,178.658582 38.3835937,175.962736 C44.1699586,170.319889 49.8568398,164.572665 55.5404592,158.827072 C57.730732,156.612336 60.09714,155.589774 63.2724648,156.556886 C67.3773916,157.807772 71.6437756,158.559608 75.6932525,159.957273 C86.4032464,163.65611 97.0170183,167.632197 107.699287,171.41421 C117.88903,175.021718 128.093451,178.5803 138.335382,182.041029 C144.149472,184.00624 149.117135,182.603683 152.957859,177.694732 C159.611852,169.186427 163.949995,159.492472 167.577074,149.744697 C159.856484,146.314955 152.356064,143.033623 144.901308,139.659331 C137.301404,136.219803 130.251106,131.86209 123.996678,126.379069 C119.519911,131.128194 119.519911,131.129825 112.921367,130.552493 C112.272277,130.495412 111.628079,130.368203 110.977357,130.338847 C103.81616,130.017564 96.6435466,129.295084 89.4953963,129.476112 C70.3602725,129.963745 51.7731247,133.934939 33.3784207,138.998824 C29.4431055,140.081729 26.1894984,141.989859 23.5295319,144.980895 C16.8429209,152.495993 10.8624812,160.557437 5.52460852,169.073896 C3.00326689,173.097279 3.22017403,177.285381 6.02039627,181.181555 C8.1519574,184.141603 10.3911567,187.028262 12.6352486,189.905136 C13.1587613,190.577059 13.9040738,191.074477 14.8597699,191.933951 C15.1092947,188.354168 14.1633838,185.408798 12.5047781,183.04239 C9.88395275,179.304411 10.3079817,175.724628 11.8654729,171.949139 C12.8081219,169.665906 13.7148916,167.341901 14.9429448,165.21197 C16.7793165,162.02686 19.0038379,159.034194 22.5428491,157.584341 C27.6214117,155.504968 32.964177,155.350035 38.3167276,156.158951 C40.5347255,156.493282 41.0761779,157.760476 40.1889787,159.865943 C39.7877821,160.820009 39.1566312,161.67459 38.6608435,162.589514 C35.7986478,167.852366 32.9022036,173.097279 30.1182901,178.400903 C29.4219041,179.730071 29.0924662,181.253313 28.5950475,182.688488 C28.8608811,182.87604 29.1283455,183.063591 29.3941791,183.252773 Z M471.371015,219.91008 C476.757814,215.394171 482.092425,210.814658 487.500426,206.323212 C489.687437,204.508042 490.02666,202.425407 489.371046,199.744239 C487.449868,191.902965 485.574356,184.04375 483.977723,176.130717 C482.930698,170.944516 481.254152,166.245949 477.883122,162.008921 C472.401732,155.124973 465.95486,149.348393 457.771101,146.344311 C441.176889,140.24971 424.822417,133.32499 407.23663,130.273612 C397.376325,128.561187 387.563315,126.568251 377.747044,124.611194 C376.996839,124.462784 376.181399,123.73378 375.754108,123.052072 C374.930513,121.735952 374.304255,120.282837 373.697567,118.8444 C372.23956,115.385302 370.835372,111.90011 369.378995,108.343159 C368.669562,108.639979 368.170513,108.781866 367.73996,109.042807 C355.676335,116.34426 343.400696,123.169496 329.592029,126.719923 C328.425949,127.020005 327.396863,127.8436 326.263401,128.443764 C328.735816,140.130655 333.636613,150.524258 337.457766,161.281548 C339.095171,165.885524 342.655383,168.013824 347.246313,168.506349 C351.385488,168.949949 355.567066,169.426166 359.711134,169.295696 C374.560303,168.826002 389.402949,168.10026 404.248856,167.480526 C407.875935,167.327223 411.511168,167.252202 415.136616,167.058127 C420.466334,166.771092 425.789529,166.208439 431.119247,166.130156 C436.577805,166.051874 440.685994,168.778707 442.948026,173.671349 C447.755862,184.068214 452.309281,194.584133 456.9736,205.047863 C457.502005,206.231883 457.924403,207.512124 458.686025,208.529794 C459.142671,209.13322 460.300597,209.738276 460.904022,209.555618 C461.530281,209.366436 462.254392,208.231343 462.262546,207.50397 C462.285378,205.299019 462.146754,203.063082 461.773282,200.890748 C460.341369,192.566733 458.7692,184.268812 457.320978,175.948058 C457.154628,174.992362 457.431877,173.961646 457.526468,172.665095 C460.768659,173.257105 463.717292,173.713752 466.631676,174.341641 C470.847502,175.250041 473.983686,177.652329 475.740145,181.621892 C477.525959,185.669738 479.189457,189.773034 480.86111,193.869807 C482.695851,198.369407 481.606423,202.309615 478.334876,205.705108 C476.167435,207.955724 473.95433,210.178614 471.612385,212.246571 C468.976882,214.572207 469.058426,217.310456 469.758074,220.560801 C470.475662,220.28192 471.017114,220.208531 471.371015,219.91008 Z M348.758139,293.547607 C364.913644,288.951785 381.000651,284.098284 397.074612,279.221951 C405.555192,276.650052 413.593803,272.977308 421.616105,269.206712 C433.283426,263.718798 443.968957,256.88867 453.250299,247.930242 C462.081518,239.403997 464.371275,228.52113 464.217972,216.814668 C464.198402,215.33709 463.865702,213.805693 461.939632,213.782861 C459.015463,213.748612 457.433508,211.936704 456.291892,209.632269 C453.056224,203.098961 449.675409,196.624364 446.793642,189.934492 C444.688175,185.045111 443.070342,180.038307 439.731929,175.683856 C437.814013,173.182085 435.873265,171.727339 432.800686,171.407686 C424.132554,170.505809 415.64382,170.885804 407.481262,174.34001 C403.764485,175.912179 399.936808,177.231561 396.260802,178.89506 C377.401298,187.422935 358.580934,196.038878 339.732845,204.596109 C332.860314,207.715984 325.976366,210.813027 319.056539,213.825264 C305.805633,219.590427 292.520478,225.269154 279.269572,231.031055 C277.604443,231.756797 275.792535,232.479278 274.530233,233.700807 C272.242107,235.913912 269.477764,236.794588 266.569904,237.546424 C264.9325,237.970453 263.301619,238.423838 261.672369,238.875592 C256.173039,240.402096 250.67534,241.936755 244.905284,243.543173 C245.280387,246.499959 245.61961,249.169711 245.913168,251.488824 C248.436141,251.281702 250.742206,250.803854 253.002607,250.962049 C260.411698,251.475776 267.804481,252.20478 275.202156,252.883227 C281.022769,253.416525 281.035816,253.458927 280.5808,259.281172 C280.562861,259.496448 280.779768,259.732926 280.957534,260.108028 C288.226369,263.041983 295.537608,261.76011 302.56018,259.189842 C308.525942,257.004462 314.154111,253.909051 319.977987,251.320843 C322.675463,250.122145 325.41045,250.596732 327.775227,252.191733 C329.994856,253.687251 329.605076,256.03735 329.040791,258.242301 C328.466721,260.489654 328.655903,262.560873 329.701298,264.681018 C330.254166,265.803064 330.529785,267.205621 330.467811,268.459769 C330.164468,274.557632 329.699667,280.634293 331.619213,286.604948 C331.914403,287.519872 331.713804,288.708784 331.425138,289.675896 C330.634161,292.327708 331.549085,294.47884 332.961428,296.618555 C338.33518,295.599255 343.666529,294.99746 348.758139,293.547607 Z M241.865322,259.131131 C231.977292,253.866648 222.167545,248.442338 212.165353,243.402917 C189.474909,231.975335 166.660519,220.790755 143.96192,209.379483 C139.682489,207.228351 135.300313,204.961427 131.658556,201.916572 C120.822984,192.85703 109.202959,184.935842 97.4280002,177.202206 C86.8941415,170.282379 75.427419,165.383213 63.5627616,161.278286 C61.0756684,160.417181 59.3779216,160.929278 57.6720203,162.741186 C54.543991,166.061659 51.3360486,169.312005 48.103643,172.531363 C42.2895531,178.319359 36.4151207,184.04375 30.6173396,189.848055 C29.9323697,190.533025 29.3012189,191.493614 29.1136676,192.421585 C27.4925721,200.429209 27.3539473,208.3928 29.3289439,216.42978 C32.3509659,228.739668 38.7505419,239.231124 46.2362845,249.194174 C50.2352041,254.519 55.2664712,258.588047 61.4018446,261.189302 C67.3953313,263.728583 73.457315,266.104777 79.4720032,268.593501 C80.6625462,269.084396 81.8009009,269.720439 82.9278395,270.35159 C85.0757095,271.550288 87.091478,273.065376 89.3551405,273.965622 C94.3179106,275.938988 99.3817953,277.662829 104.444049,279.375253 C106.40926,280.040653 108.50168,280.877295 110.499509,280.789227 C114.325556,280.622877 117.644398,282.01728 121.057831,283.25838 C123.875993,284.284204 126.643598,285.443761 129.479699,286.409242 C130.942599,286.908292 132.495198,287.167602 134.021702,287.448113 C136.432144,287.890082 138.956747,287.947163 141.256289,288.705522 C167.484113,297.355714 193.928845,305.265485 220.619839,312.363078 C226.494271,313.927093 232.318147,315.690075 238.279016,317.392714 C240.741646,313.432936 241.627214,309.031189 241.93545,304.670214 C242.969429,290.12765 243.665815,275.560623 244.504087,260.77832 C243.403243,260.085196 242.662823,259.55516 241.865322,259.131131 Z M184.882349,92.5806965 C184.903551,99.4891073 184.696429,106.405673 184.949215,113.305929 C185.414016,125.979503 183.719531,138.191538 178.833413,150.004007 C175.685813,157.608804 173.864119,165.635999 173.461291,173.919243 C173.076404,181.846954 172.676838,189.776296 172.326198,197.707269 C172.287057,198.565112 172.520273,199.436003 172.613233,200.191101 C175.896196,199.747501 178.949205,199.124505 182.025046,198.958155 C190.172926,198.521079 198.136517,199.990502 205.998993,201.895371 C219.005267,205.044602 231.957722,205.767082 245.042278,202.254165 C255.466868,199.453942 265.868625,200.055737 276.342141,202.626006 C282.252453,204.07912 288.392719,204.832587 294.475904,205.299019 C304.086685,206.037808 312.717305,201.877431 321.592558,199.452312 C321.701827,198.723308 321.83556,198.336789 321.801311,197.964948 C321.701827,196.93097 321.572988,195.89373 321.385437,194.872798 C319.774126,186.119862 318.927699,177.329414 319.744771,168.419913 C320.030175,165.308192 320.296008,162.165485 320.183478,159.053765 C319.857301,150.202975 319.457736,141.352185 318.857571,132.516073 C317.471323,112.084399 314.914102,91.8060281 310.315018,71.8179537 C310.054077,70.6877534 309.905667,69.4955795 309.954593,68.3425468 C309.975795,67.8565444 310.587375,67.1063392 311.042391,67.0101173 C311.510454,66.9122644 312.325894,67.3265081 312.611298,67.7652151 C313.017388,68.3882115 313.11524,69.2281151 313.279959,69.9881055 C314.52269,75.7141278 315.812717,81.4303648 316.962488,87.1759577 C317.753465,91.1308435 318.337321,95.1265013 319.023921,99.1025886 C319.480568,101.749508 320.059531,104.380119 320.398754,107.041716 C320.734715,109.680481 320.839092,112.348602 321.078831,115.435859 C325.291396,113.871845 329.257698,112.625852 333.034818,110.950937 C343.53769,106.298034 352.448822,99.3211266 360.681508,91.4260329 C364.158546,88.0892509 364.163439,88.0289083 362.287926,83.7739404 C356.609199,70.9046605 351.002231,58.001132 345.149,45.2085035 C341.138664,36.4392577 336.679836,27.9097514 330.981539,20.0440136 C325.744781,12.8192119 318.823323,8.35875308 310.270984,6.3413536 C298.336199,3.52482255 286.332917,4.6387141 273.811014,5.78033062 C273.811014,8.00648284 273.928438,10.069547 273.788182,12.1130405 C273.396771,17.8667878 272.514464,23.4933264 269.427207,28.5637346 C267.042859,32.4794793 263.549513,34.3745627 259.089054,34.5686375 C254.975973,34.7480344 251.068382,33.8363721 247.367914,32.0244636 C241.756053,29.2731677 237.189587,25.1959659 233.242856,20.4664117 C229.508139,15.991275 226.063719,11.2715061 222.359989,6.49465639 C207.479833,9.99941911 192.508348,13.8760226 177.719521,18.5126166 C166.944292,21.8901706 159.041044,28.4609891 153.416136,38.1272193 C142.358765,57.1253491 134.25818,77.4493849 126.288066,97.8402869 C125.532968,99.7745114 125.922749,100.987887 127.558522,102.157228 C132.752877,105.869113 137.802084,109.78975 143.058413,113.403782 C153.494418,120.578026 164.277802,127.152106 176.232158,131.560377 C177.536862,132.041487 178.888862,132.387234 180.408843,132.852035 C180.684462,131.726727 180.991068,130.999354 181.023685,130.260565 C181.297673,123.888714 181.599386,117.516863 181.739642,111.14175 C181.875005,105.016162 181.806508,98.8873123 181.878267,92.7600933 C181.897837,91.2450051 181.804877,89.5537818 184.655657,88.8655501 C184.750248,90.3659604 184.877457,91.4733284 184.882349,92.5806965 Z M466.571333,230.140595 C465.163883,239.170781 460.620249,246.442878 454.044538,252.571728 C446.747978,259.374132 438.464734,264.778871 429.788449,269.620956 C425.934678,271.772087 422.133095,274.009656 418.284216,276.160787 C417.496501,276.601125 416.60604,276.873482 415.740042,277.157256 C400.758772,282.07273 385.836213,287.182279 370.765244,291.817243 C360.193875,295.067588 349.436585,297.732447 338.718437,300.490266 C337.138114,300.896356 335.318051,300.374474 333.162026,300.25705 C332.214485,301.899347 331.855691,304.141808 331.829597,306.452766 C331.769254,312.038533 331.746422,317.622669 331.704019,323.208435 C331.694234,324.381038 331.653462,325.553642 331.661616,326.727876 C331.692603,330.854004 331.102224,331.829271 326.972834,332.422911 C324.453123,332.786598 321.734445,332.838786 319.268553,332.29081 C310.756987,330.400619 303.00378,327.024696 296.636821,320.678939 C294.98637,319.03175 291.998596,318.157597 289.557168,318.004295 C285.714813,317.759663 281.808854,318.38429 277.937143,318.730037 C276.446518,318.863769 275.76644,319.845559 275.536486,321.352493 C275.246189,323.249207 274.711261,325.108411 274.297017,326.908904 C262.526951,328.684933 251.358679,327.631384 240.425255,324.043446 C239.153168,323.62431 238.112666,322.534881 236.905814,321.864589 C235.687546,321.187774 234.451339,320.419629 233.125433,320.077144 C216.984606,315.916767 200.868242,311.658538 184.66218,307.763994 C165.51401,303.164911 146.449014,298.14506 128.377224,290.344557 C111.442158,283.033319 93.6410951,278.515779 76.3488666,272.403238 C69.4763351,269.973226 62.7261197,267.192574 55.9595955,264.478789 C54.3140369,263.819913 52.7875325,263.072969 52.0617905,260.991966 C51.6165601,259.711724 50.0019882,258.746243 48.7559953,257.855782 C35.9437962,248.693494 28.1335083,236.277599 25.0544054,220.944058 C24.1623137,216.506432 24.020427,211.899193 23.7937346,207.357191 C23.5931363,203.33707 23.7513317,199.297378 23.7513317,194.54173 C22.5868829,195.474593 22.0535849,195.939394 21.4827766,196.353638 C18.6776617,198.387346 14.5759966,198.092157 12.3579988,195.415882 C9.032633,191.403915 5.7382539,187.344653 2.74069509,183.088054 C-0.835826381,178.007861 -0.881491042,172.627585 2.43245863,167.320699 C7.83067389,158.678662 13.887765,150.525889 20.6135172,142.868904 C23.6224921,139.444055 27.2544636,137.134728 31.6953518,135.927876 C47.050094,131.752821 62.4782259,127.820768 78.408669,126.790051 C87.3605734,126.211088 96.3760821,126.51117 105.362235,126.556835 C108.744682,126.574775 112.141806,126.856917 115.501421,127.272792 C118.192374,127.605491 119.699308,126.58456 120.48213,123.901761 C119.818362,123.332584 119.190473,122.69654 118.471254,122.187705 C113.709083,118.816675 112.619654,115.501094 114.48212,109.877818 C115.587857,106.539405 116.915394,103.256442 117.753667,99.8527937 C118.510396,96.7753217 119.935785,94.9177486 123.468273,95.2064145 C125.263873,90.6269013 126.995868,86.1419793 128.77679,81.6766278 C134.825727,66.535531 141.496029,51.6863618 149.648802,37.543364 C152.528937,32.5479763 155.939109,27.9603087 160.290298,24.1097993 C164.95951,19.9804093 170.289228,16.9877431 176.250097,15.3046742 C189.657568,11.5194 203.115596,7.91841528 216.557315,4.25056448 C218.43609,3.73683705 220.349113,3.3340095 222.211579,2.76972477 C223.985977,2.23479588 225.08356,2.65393223 226.000115,4.39408199 C230.059377,12.1097788 235.826171,18.479999 242.294244,24.2174374 C245.95394,27.4612592 250.233372,29.6711026 255.103181,30.5778723 C261.140702,31.7048109 265.069494,29.9972788 267.519077,24.4115122 C268.906956,21.2492345 269.606604,17.713485 270.157842,14.2723267 C270.671569,11.0725386 270.606334,7.77652865 270.738435,4.51965981 C270.798778,3.04045097 271.372848,2.29840023 272.874889,1.7422699 C275.476144,0.773526737 277.986069,0.620223947 280.745519,0.778419379 C286.85806,1.12742786 293.008112,0.814298755 299.122284,1.14862931 C303.391929,1.38510702 307.70724,1.90372709 311.857831,2.89693347 C321.483289,5.19647531 329.097872,10.5180392 334.812478,18.7197384 C340.357472,26.6751747 344.901106,35.163909 348.891871,43.9494636 C354.714115,56.7584009 360.384688,69.6358353 365.937837,82.562196 C367.020742,85.0835377 368.304245,86.1843822 371.10936,86.1778587 C375.400207,86.1697043 375.882948,86.7095258 377.153404,90.7981438 C377.694856,92.5366627 378.161288,94.3110609 378.487464,96.1001371 C379.092521,99.4434426 378.436907,102.325209 375.215917,104.174628 C374.327087,104.686724 373.541003,105.379849 372.523333,106.126792 C374.018851,109.916959 375.550248,113.601118 376.923449,117.345621 C377.673655,119.397269 378.999561,120.628583 381.101766,120.984115 C384.159667,121.499474 387.23877,121.897409 390.296672,122.41766 C394.913695,123.202113 399.563336,123.860989 404.120017,124.911276 C413.892254,127.161892 423.718311,129.272251 433.317675,132.129554 C439.890124,134.086611 446.209787,137.000995 452.469107,139.866453 C457.895048,142.350284 463.41721,144.881411 468.273973,148.280167 C473.468328,151.9154 477.987498,156.529161 482.67465,160.854257 C483.76734,161.862141 484.69368,163.338088 485.096507,164.768371 C487.914669,174.796657 490.579529,184.870607 493.288421,194.93151 C493.423785,195.433821 493.541208,195.942656 493.640692,196.453122 C494.682824,201.730652 494.213131,206.24493 489.274824,209.863854 C483.406915,214.164487 478.073935,219.192492 472.408255,223.775267 C471.06604,224.859803 469.312844,225.432242 467.396559,226.422186 C467.184544,227.363205 466.789871,228.738037 466.571333,230.140595 Z" id="Fill-5-Lotus-Color"></path>
                        </g>
                    </g>
                    <g id="Head/Ponytail" transform="translate(162.457194, 0.000000)">
                        <path d="M45.538976,21.8262962 C44.2619964,24.6705522 43.1203799,27.6061375 42.2641675,30.6004346 C41.0165437,34.9809802 40.109774,39.4577479 38.9991442,43.8774347 C38.5000947,45.8736327 37.7727219,56.5493781 27.9776521,58.9223096 C15.3448499,61.9818418 6.86263915,68.8935144 3.30568825,75.9079325 C3.73297901,73.7307067 4.67073543,71.2778621 6.41088519,68.4809016 C14.3141333,55.7796024 26.5995579,54.5874285 32.5049771,54.0149894 C32.9779325,53.9676939 33.4150085,53.9269218 33.8129434,53.8812572 C36.7827773,53.5518193 38.2146906,46.0677075 39.8716654,37.4028381 C41.4014316,29.4147843 43.131796,20.3601344 46.3576781,15.9127226 C50.4153094,10.3188016 59.2090184,3.11193962 70.6398615,1.20870179 C73.6455747,0.706390522 76.3251118,0.928778883 78.647486,1.49084416 C75.7999682,1.33264873 72.8170873,1.93933636 69.7918035,2.75314586 C59.0442994,5.64143565 50.284839,11.2647125 45.538976,21.8262962 M3.57315269,93.9764603 C3.40191022,95.6252807 2.80500786,97.2398526 1.96021164,98.9017201 C1.33395343,100.139559 0.882199467,101.584519 0.658768805,103.029479 C0.593533575,98.8397466 1.6666531,96.4668152 3.57315269,93.9764603 M89.0052096,11.9871926 C88.9954243,12.1241866 88.972592,12.2073615 88.9285582,12.2187777 C85.976664,12.9249491 83.3232211,14.2051904 80.7741545,15.6925537 C79.3944294,16.3237045 78.0995101,17.1065273 76.9432156,18.0752704 C76.4409043,18.3998157 75.9418548,18.7276227 75.4395436,19.052168 C75.0432395,19.3098472 74.4968945,19.3326795 73.9619656,19.4794588 C72.6001802,18.0084043 72.8007785,16.6205248 74.2995579,15.8621653 C78.4534112,13.7664835 82.6871776,11.8159502 86.9763939,10.0138269 C87.6075448,9.74799337 88.5273615,10.7444615 89.0052096,11.9871926 M104.85574,11.5811033 C101.02317,11.1717523 97.1041634,11.6006739 93.225929,11.5077137 C92.0370169,11.4799887 89.6118972,8.14809936 88.630107,7.03257693 C88.6268453,7.04073133 88.6252144,7.05704014 88.6219526,7.0684563 C88.5469321,6.93635496 88.4865895,6.80099186 88.3887367,6.67867581 L88.5404086,6.54331271 C88.520838,6.52211126 87.959815,5.92194714 86.9470381,5.11629205 C85.1889486,3.42343784 83.3134358,2.42044618 81.3498554,1.90998051 C78.4762435,0.792827202 74.8377486,0.0948102434 70.5729954,0.805874248 C59.0198362,2.73194441 50.1299053,10.0170887 46.0298711,15.6729831 C42.748539,20.1954154 41.0083893,29.29573 39.4704688,37.3261867 C37.9113468,45.4789596 36.4386614,53.1799785 33.7672788,53.4767988 C33.3726056,53.5208325 32.9355296,53.5632354 32.4642051,53.6089001 C26.4951816,54.1878628 14.0743938,55.3947145 6.06676935,68.2656253 C3.95804055,71.6529646 3.01212972,74.5820265 2.72672559,77.1229387 C1.37472545,80.3031561 1.02897873,83.4605412 1.81180149,86.2460855 C2.12982324,87.3713933 2.47067731,88.5015936 2.91916952,89.5812367 C3.44757488,90.8451692 3.65632761,92.052021 3.6318644,93.2360404 C1.26382556,96.2075051 -0.088174576,98.9098745 0.291820637,104.433668 C0.334223537,105.079496 0.454908712,105.692708 0.627782071,106.283086 C1.8281103,116.079787 9.22741623,124.28801 19.5215355,126.228758 C37.2345312,129.568802 51.6237921,123.738403 63.7934242,110.296684 C68.3028094,105.314343 78.6425933,93.2849668 72.6360596,69.9242311 C71.5531547,65.9644526 70.72956,61.9345463 69.9108578,57.9013782 C70.0168651,56.8592454 70.1522282,55.8220053 70.2451884,54.7798725 C70.6023513,50.7597514 70.5599484,50.6390663 66.694761,48.6379756 C63.7200345,47.0984242 61.9978245,43.7893671 63.0562661,41.261502 C63.4183216,40.400397 64.3006281,39.3370627 65.0899744,39.2000687 C66.5218877,38.9684837 68.2913933,40.9288023 69.5406479,42.3737627 C69.7494006,42.6444889 69.9451063,42.8728122 70.1114562,43.0310076 C70.442525,43.407741 70.7099894,43.6931452 70.8812319,43.7942598 C71.2579653,43.0440546 71.8450824,42.328098 71.9690293,41.5387517 C72.2234467,39.9323342 72.4354612,38.3193931 72.6474757,36.7064521 C72.8382888,36.2416511 73.0258401,35.7784809 73.2541634,35.3332505 C75.0791189,31.7828231 77.1748007,28.3253559 79.5558866,25.1255679 C80.9486587,23.2549477 83.1356698,22.1899826 85.8005289,22.7983011 C90.9834679,23.9823205 95.9804865,23.8714206 101.091667,21.7382286 C105.731522,19.8007423 108.887277,21.8931623 110.185458,26.7434016 C110.369747,27.4332642 110.580131,28.1166032 110.797038,28.7999422 C110.751373,30.293829 110.677984,31.7860849 110.54099,33.2685555 C109.562461,43.9198376 108.164797,54.5091463 103.35696,64.2862763 C101.143855,68.7891381 98.8231117,69.7921297 93.8929592,68.2721489 C90.2675113,67.1533647 86.8084132,65.672525 83.8777205,63.1511833 C83.0394478,62.430334 81.9875297,61.2169588 80.9323499,62.6113618 C79.9701303,63.8850797 81.2014452,64.8081582 82.1131076,65.4817119 C83.6787531,66.6331137 85.2786471,67.7877773 87.0057498,68.6619294 C91.3324764,70.8538331 95.8402308,72.4455727 100.772014,71.5339104 C101.223768,72.851662 101.602132,73.8187743 101.887537,74.8119806 C103.611378,80.8185144 105.279769,86.841357 107.052536,92.8332129 C107.491243,94.3205761 107.390128,96.2808948 110.480647,97.0539322 C110.2458,95.2713796 110.222968,94.0139705 109.900054,92.8397364 C108.107716,86.3129517 106.206109,79.8171537 104.431711,73.2854763 C104.046823,71.8617174 103.216704,70.472207 104.255575,68.8266483 C108.35724,62.3259577 110.309405,55.0473369 111.70707,47.579534 C113.251514,39.3240157 114.225149,31.0114165 113.760348,22.6140116 C114.530124,16.1981267 111.501579,12.2921673 104.85574,11.5811033" id="Fill-6-Ponytail"></path>
                        <g id="Group-21" transform="translate(77.542806, 29.000000)">
                            <polygon id="Fill-1-Angry" points="19.6436461 8.71469564 22.2513911 19.0428442 18.4482161 19.4237865"></polygon>
                            <g id="Group-20" transform="translate(0.000000, 1.041698)">
                                <path d="M19.6503063,7.77481021 L18.4685385,18.3609062 L22.2307272,17.9850887 L19.6503063,7.77481021 Z M18.4480454,18.4001962 C18.4429221,18.4001962 18.4377988,18.3967797 18.4343833,18.3933632 C18.4309678,18.3899467 18.4275523,18.3848219 18.42926,18.3796971 L19.62469,7.67060626 C19.62469,7.66377322 19.6332287,7.65694017 19.6417675,7.65523191 C19.6503063,7.65523191 19.6588451,7.66206495 19.6605529,7.668898 L22.2700056,17.9953383 C22.2717134,18.0004631 22.2700056,18.0055879 22.2665901,18.0107126 C22.2631746,18.0141292 22.2597591,18.0175457 22.252928,18.0175457 L18.4497531,18.398488 L18.4480454,18.4001962 Z" id="Fill-2-Angry"></path>
                                <path d="M17.542251,1.76924635 C18.1348427,2.50038224 18.0033454,6.16118647 17.2997495,6.82570016 C11.8690822,7.35696946 8.78487296,2.58408705 5.0192687,2.91207325 C3.06217914,3.08289939 0.425402277,4.47854897 0.0172483461,5.36001186 C0.0172483461,3.58171172 1.55081416,1.67016719 3.95875158,0.952697395 C8.43649053,-0.376329991 12.8834898,3.71495611 17.542251,1.76924635" id="Fill-4-Angry"></path>
                                <path d="M5.38951043,2.87688306 C6.9606469,2.87688306 8.43956449,3.72588899 10.0004544,4.62101797 C12.0292698,5.78092748 14.326203,7.09799703 17.292577,6.80930085 C17.601681,6.50864684 17.8356437,5.53493783 17.8885842,4.32207222 C17.9398169,3.14337184 17.7997808,2.13037282 17.5367862,1.79213706 C15.0724928,2.81538565 12.6406468,2.14745543 10.2890654,1.50173262 C8.21414056,0.932881562 6.06748997,0.346947895 3.9635333,0.972171575 C1.71954056,1.63839353 0.081801562,3.44402585 0.0373998791,5.28211514 C0.541188204,4.40065225 3.0652531,3.06308355 5.01721939,2.89396567 C5.14188566,2.88371611 5.26655192,2.87688306 5.38951043,2.87688306 M16.4660226,6.88617262 C13.8856017,6.88617262 11.8243389,5.70405571 9.98337685,4.65005842 C8.30465168,3.6900155 6.71643764,2.78122042 5.02063491,2.92983916 C4.11723144,3.00841919 2.99523506,3.35690452 1.94496449,3.88646556 C0.959588678,4.38186137 0.228668667,4.94900416 0.033984365,5.36581995 C0.0305688509,5.37436126 0.0237378228,5.37777778 0.0151990376,5.37606952 C0.00666025244,5.37436126 -0.000170775703,5.36752821 -0.000170775703,5.35898691 C-0.000170775703,3.47819108 1.66147682,1.61789439 3.95328676,0.936298085 C6.06748997,0.307657882 8.21926383,0.898716334 10.2993119,1.46756739 C12.6491856,2.1132902 15.0793238,2.7778039 17.5350785,1.75284704 C17.5436172,1.75113878 17.552156,1.75284704 17.5572793,1.75968009 C17.7673334,2.01762756 17.9876341,2.84271783 17.9244471,4.32378048 C17.8834609,5.25478296 17.7007309,6.47106509 17.3113623,6.8383413 C17.3079468,6.84175782 17.306239,6.84346608 17.3028235,6.84346608 C17.0176281,6.87250653 16.7392637,6.88617262 16.4660226,6.88617262" id="Fill-6-Angry"></path>
                                <path d="M21.2947056,2.35466754 C20.9138758,2.82273117 21.1358842,6.46986931 21.586732,6.8952264 C23.40037,7.12754996 27.2325768,5.83439606 29.0872009,5.84806215 C31.0357517,5.8634365 31.5344167,6.11967572 32.5539477,6.86789422 C32.5539477,5.72677559 31.3414402,5.09471886 29.7959201,4.6369048 C26.9234728,3.78277409 24.2832804,3.60169838 21.2947056,2.35466754" id="Fill-9-Angry"></path>
                                <path d="M21.5947585,6.87899792 C22.5955041,7.003701 24.2042112,6.66888176 25.7616856,6.34431209 C27.0288414,6.07953157 28.225979,5.83012541 29.0576567,5.83012541 L29.0901041,5.83012541 C31.0113308,5.84549976 31.5185346,6.08636462 32.53465,6.8311666 C32.5090337,5.61830099 31.0557325,5.03065906 29.7902845,4.65313329 C28.6802424,4.32343883 27.5906934,4.09111528 26.5352996,3.86562477 C24.8616977,3.50859813 23.1317398,3.14132193 21.2993165,2.37602081 C20.930441,2.88849924 21.1609882,6.44680778 21.5947585,6.87899792 M22.0729304,6.94220359 C21.8987392,6.94220359 21.7347946,6.93195402 21.5845119,6.91487141 C21.5793887,6.91316315 21.5759732,6.91145489 21.5742654,6.90974662 C21.3232251,6.67059003 21.1678192,5.53972096 21.1114632,4.64117546 C21.0516917,3.67771601 21.0790159,2.59126175 21.2788234,2.34356384 C21.2839467,2.33843906 21.2941932,2.33502254 21.3010243,2.33843906 C23.1334476,3.10374018 24.866821,3.47272464 26.5404229,3.83145954 C27.5992322,4.05695005 28.690489,4.28756534 29.800531,4.61896806 C31.0915953,5.00161862 32.5722207,5.6046349 32.5722207,6.86704009 C32.5722207,6.87387313 32.5688052,6.88070618 32.5619742,6.8841227 C32.5568509,6.88583096 32.5483121,6.88583096 32.5431888,6.88241444 C31.5134113,6.12736289 31.0181618,5.88137325 29.0883963,5.8659989 L29.0576567,5.8659989 C28.2293946,5.8659989 27.0356724,6.11540506 25.7685167,6.37847732 C24.4398817,6.65692393 23.0702606,6.94220359 22.0729304,6.94220359" id="Fill-11-Angry"></path>
                                <path d="M20.0237928,25.6230672 C19.9179118,25.6230672 19.8137387,25.5786524 19.7420129,25.4898228 C19.6361319,25.3617032 17.1154826,22.334664 14.3506239,24.5536955 C14.1935103,24.6783986 13.9663786,24.654483 13.8417123,24.4990312 C13.7170461,24.3418711 13.7409547,24.1129641 13.8963605,23.988261 C17.2264868,21.3165401 20.2731253,24.9961353 20.3038649,25.033717 C20.430239,25.1891688 20.4080381,25.4163676 20.2526322,25.5427789 C20.1843219,25.5974433 20.1040574,25.6230672 20.0237928,25.6230672" id="Fill-13-Angry"></path>
                                <path d="M11.376565,14.2974648 C10.7002933,14.3401713 10.041099,14.21376 9.41947548,13.9814364 C9.49290903,13.9882695 9.56634258,13.9933943 9.64148389,13.9933943 C10.4834081,13.9933943 11.3031315,13.5748702 11.9486636,12.8146939 C12.4797761,12.1877619 12.8213275,11.3934204 12.8896378,10.6434936 L16.8687117,10.6007871 C16.0865589,11.7077405 14.0850677,14.1180973 11.376565,14.2974648 M5.29011897,10.7271984 L6.40357655,10.7152406 C6.48554889,11.4002534 6.78611413,12.1143067 7.2523318,12.7002404 C6.38479123,12.004978 5.69998065,11.2345521 5.29011897,10.7271984 M17.8557952,10.0490186 C17.7909005,9.93627338 17.6713575,9.86794293 17.5432757,9.86794293 L17.5381524,9.86794293 L4.56090671,10.0114369 C4.42770166,10.0131451 4.30474316,10.0883087 4.2432639,10.2061787 C4.18178465,10.3240487 4.19032344,10.4675427 4.26546475,10.5768714 C4.29620437,10.626411 5.07664934,11.7606966 6.33526627,12.8796078 C7.92518807,14.2906317 9.56634258,15.0303089 11.1118627,15.0303089 C11.2143281,15.0303089 11.3202091,15.0268924 11.4226745,15.0200594 C13.0484592,14.9124389 14.6759516,14.0788073 16.1343761,12.6079942 C17.2239251,11.5095822 17.8318866,10.4555849 17.857503,10.4111701 C17.9223978,10.2984248 17.92069,10.1600556 17.8557952,10.0490186" id="Fill-15-Angry"></path>
                                <path d="M27.3135245,13.5184976 C23.9663207,13.5902446 22.4156773,11.5300813 21.8709028,10.5580805 L22.579622,10.5632053 C22.6547633,11.1969703 22.9348354,11.7726544 23.3839755,12.2116776 C23.9167957,12.7326973 24.6408847,13.0196853 25.4213297,13.0196853 C26.8558456,13.0196853 28.0495677,11.9742293 28.2852382,10.6059119 L31.6734282,10.6315358 C31.0125262,11.5796209 29.4328509,13.4740828 27.3135245,13.5184976 M32.6417264,10.0900169 C32.5768316,9.98068818 32.4607042,9.91235772 32.3326224,9.91235772 L21.2970964,9.82865292 C21.1758457,9.82865292 21.0665492,9.88502554 20.9982389,9.9841047 C20.9299287,10.0797673 20.9128511,10.2061787 20.9538373,10.3172157 C20.9709148,10.358214 21.3466214,11.3472973 22.3200429,12.3261311 C23.1961223,13.207594 24.7399346,14.2445087 27.1512875,14.2445087 C27.2093513,14.2445087 27.2708305,14.2428004 27.3288943,14.2428004 C30.5668016,14.17447 32.5631696,10.5990788 32.6468497,10.4470435 C32.7083289,10.3360066 32.7066212,10.2010539 32.6417264,10.0900169" id="Fill-17-Angry"></path>
                            </g>
                        </g>
                    </g>
                </g>
                <g id="Group" transform="translate(3.767973, 9.970571)">
                    <path d="M247.69443,2.01662169 C247.684644,2.15361567 247.661812,2.23679059 247.617778,2.24820675 C244.665884,2.95437811 242.012441,4.2346195 239.463375,5.72198274 C238.08365,6.35313359 236.78873,7.13595634 235.632436,8.1046995 C235.130125,8.42924477 234.631075,8.7570518 234.128764,9.08159707 C233.73246,9.33927623 233.186115,9.36210856 232.651186,9.50888782 C231.2894,8.03783339 231.489999,6.64995388 232.988778,5.89159433 C237.142631,3.79591258 241.376398,1.84537921 245.665614,0.0432559869 C246.296765,-0.222577574 247.216582,0.77389056 247.69443,2.01662169" id="Fill-6-Ponytail-path" fill="#D8D8D8"></path>
                    <path d="M277.709811,378.85445 C276.685618,383.908549 275.144436,388.861534 274.881864,394.434254 C277.478226,394.044473 279.593479,393.729713 281.945209,393.379074 C280.782391,388.395102 279.697855,383.735676 278.611688,379.077881 C278.309975,379.00286 278.009893,378.92947 277.709811,378.85445 Z" id="Fill-5-Lotus-Color-path" fill="#FFFFFF"></path>
                    <path d="M289.543482,345.251783 C285.971853,345.100111 285.851168,345.062601 285.052036,347.686688 C283.65111,352.289033 282.294217,356.91095 281.155862,361.581792 C280.5769,363.956354 279.944118,366.551086 280.327375,368.883245 C281.591308,376.572848 283.342873,384.182537 284.826975,391.841153 C285.180876,393.674263 286.162666,394.155373 288.03981,393.838982 C282.051216,377.246402 281.976195,361.143085 289.543482,345.251783 Z" id="Fill-5-Lotus-Color-path" fill="#FFFFFF"></path>
                    <path d="M324.772137,396.207021 C324.887929,391.806905 324.568277,387.366017 325.082004,383.019719 C325.473416,379.718817 325.843626,376.628298 324.405189,373.511685 C324.043133,372.7256 323.938757,371.680206 324.095321,370.825624 C324.623727,367.937334 324.424759,365.17136 323.442969,362.390709 C323.116793,361.462738 323.366318,360.334168 323.320653,359.301821 C323.24074,357.491543 322.940658,355.669849 323.077652,353.879142 C323.423399,349.351817 323.082545,344.938654 321.839813,340.554847 C321.542993,339.50619 322.015949,338.243889 322.11217,337.077809 C322.182298,336.21018 322.211654,335.33929 322.27852,334.138962 C320.709613,334.032954 319.378814,333.941625 317.563644,333.819309 C320.843345,359.107746 321.505483,383.977046 318.938477,409.234496 C320.973816,408.892011 322.479119,408.640856 324.282873,408.337512 C324.46227,403.973275 324.669391,400.090148 324.772137,396.207021 Z" id="Fill-5-Lotus-Color-path" fill="#FFFFFF"></path>
                    <path d="M238.310994,326.769012 C237.971771,324.236254 237.626024,321.701865 237.290063,319.227819 C231.917942,319.368075 220.056546,321.718174 217.103021,323.231631 C224.414259,327.163685 231.568933,331.010932 239.436302,335.239806 C238.991072,331.893239 238.65511,329.331125 238.310994,326.769012 Z" id="Fill-5-Lotus-Color-path"></path>
                    <path d="M238.310994,326.769012 C237.971771,324.236254 237.626024,321.701865 237.290063,319.227819 C231.917942,319.368075 220.056546,321.718174 217.103021,323.231631 C224.414259,327.163685 231.568933,331.010932 239.436302,335.239806 C238.991072,331.893239 238.65511,329.331125 238.310994,326.769012 Z" id="Fill-5-Lotus-Color-path"></path>
                    <path d="M279.529874,354.622824 C280.053387,353.032715 280.599732,351.447499 281.092258,349.845974 C281.568475,348.290114 281.990873,346.716314 282.527433,344.837539 C280.544282,344.493424 278.991684,344.222697 276.879693,343.852487 C277.553247,347.924797 278.117532,351.333337 278.681816,354.743509 C278.96559,354.702737 279.247732,354.663596 279.529874,354.622824 Z" id="Fill-5-Lotus-Color-path" fill="#FFFFFF"></path>
                    <path d="M472.7289,281.916529 C474.550594,279.983936 475.020287,277.615897 474.036866,275.045629 C472.971901,272.263346 471.967279,269.4566 470.868065,266.687365 C470.634849,266.098617 470.112967,265.625662 469.219244,264.422072 C469.620441,267.597396 469.809623,269.916509 470.227129,272.194849 C470.897421,275.852915 470.036316,278.839057 466.936011,281.092935 C465.678602,282.006228 464.608745,283.175569 463.349705,284.08397 C461.986288,285.067391 461.611186,286.238363 462.124913,287.795854 C462.446197,288.764598 462.685936,289.757804 463.176831,291.497954 C466.727259,287.957312 469.811254,285.016834 472.7289,281.916529 Z" id="Fill-5-Lotus-Color-path" fill="#FFFFFF"></path>
                    <path d="M465.823751,267.303838 C463.551934,267.130965 461.294795,266.165483 458.949588,267.124441 C461.335567,268.158419 463.698713,269.132055 466.777816,268.706395 C466.324431,268.013271 466.09937,267.32667 465.823751,267.303838 Z" id="Fill-5-Lotus-Color-path" fill="#FFFFFF"></path>
                    <path d="M18.6166802,248.406823 C25.2625192,250.205684 25.5707557,250.176328 26.6846472,247.596275 C19.9344318,246.043677 19.4777852,246.090972 18.6166802,248.406823 Z" id="Fill-5-Lotus-Color-path" fill="#FFFFFF"></path>
                    <path d="M22.6270159,256.223634 C23.145636,255.176609 23.6283767,254.202973 24.2774672,252.898268 C21.3223113,252.62428 18.864574,250.9934 15.9273578,252.704193 C17.7066487,255.010259 20.055117,255.504416 22.6270159,256.223634 Z" id="Fill-5-Lotus-Color-path" fill="#FFFFFF"></path>
                    <path d="M461.439943,274.750439 C462.703876,274.970608 463.997164,275.174468 465.270882,275.143482 C465.890617,275.127173 466.497304,274.559626 467.110516,274.239974 C466.665285,273.602299 466.334216,272.565059 465.750361,272.397078 C463.920513,271.86378 461.994443,271.658289 459.78623,271.27014 C459.805801,274.416109 459.797646,274.463404 461.439943,274.750439 Z" id="Fill-5-Lotus-Color-path" fill="#FFFFFF"></path>
                    <path d="M19.3505765,267.12281 C19.6229336,267.111394 19.8952907,267.098347 20.1676478,267.088562 C20.5003474,264.645502 20.8330471,262.204074 21.1951026,259.532691 C19.7664511,259.022225 18.4992568,258.572102 16.5503543,257.877347 C17.6267356,261.432667 18.4878406,264.278554 19.3505765,267.12281 Z" id="Fill-5-Lotus-Color-path" fill="#FFFFFF"></path>
                    <path d="M13.353828,260.7901 C11.5680136,256.835214 11.9675794,253.296203 13.7745952,249.607151 C14.5215386,248.082277 15.5930273,246.62427 15.720236,244.202412 C12.6199317,247.837645 11.3380594,251.631074 10.3905177,255.537033 C10.1687179,256.447065 10.3399604,257.688165 10.8129158,258.495451 C13.2690222,262.683553 14.6601635,267.212509 15.5228994,271.958372 C16.1622047,267.969237 14.91295,264.247567 13.353828,260.7901 Z" id="Fill-5-Lotus-Color-path" fill="#FFFFFF"></path>
                    <path d="M26.0649125,243.977351 C29.9725028,244.451937 31.3473353,243.263025 31.8936803,238.97707 C24.923296,238.089871 22.8651245,238.856385 21.1510689,243.30869 C23.0037494,243.561476 24.5318846,243.79143 26.0649125,243.977351 Z" id="Fill-5-Lotus-Color-path" fill="#FFFFFF"></path>
                    <path d="M465.642723,264.162762 C465.156721,257.792541 464.424455,257.17933 457.153989,256.996672 C457.421453,258.891755 457.680763,260.718341 457.989,262.902091 C460.854457,263.373415 463.196402,263.759934 465.642723,264.162762 Z" id="Fill-5-Lotus-Color-path" fill="#FFFFFF"></path>
                    <path d="M273.143345,382.181447 C276.96613,371.871019 277.437454,361.433382 274.395862,350.865275 C273.312957,361.280079 272.384986,371.698145 273.143345,382.181447 Z" id="Fill-5-Lotus-Color-path" fill="#FFFFFF"></path>
                    <path d="M13.353828,260.7901 C11.5680136,256.835214 11.9675794,253.296203 13.7745952,249.607151 C14.5215386,248.082277 15.5930273,246.62427 15.720236,244.202412 C12.6199317,247.837645 11.3380594,251.631074 10.3905177,255.537033 C10.1687179,256.447065 10.3399604,257.688165 10.8129158,258.495451 C13.2690222,262.683553 14.6601635,267.212509 15.5228994,271.958372 C16.1622047,267.969237 14.91295,264.247567 13.353828,260.7901 Z" id="Fill-5-Lotus-Color-path" fill="#D8D8D8"></path>
                    <path d="M298.831348,342.975074 C293.423347,345.930229 290.300211,350.424937 288.899284,356.320571 C287.28145,363.116451 287.020509,370.018338 287.57664,376.915333 C288.729673,391.239358 294.486682,403.13011 315.233115,407.588938 C318.030076,383.673703 317.451113,359.915032 314.399735,335.792675 C308.670451,337.787242 303.725621,340.298798 298.831348,342.975074 Z" id="Fill-5-Lotus-Color-path" fill="#FFFFFF"></path>
                    <path d="M238.310994,326.769012 C237.971771,324.236254 237.626024,321.701865 237.290063,319.227819 C231.917942,319.368075 220.056546,321.718174 217.103021,323.231631 C224.414259,327.163685 231.568933,331.010932 239.436302,335.239806 C238.991072,331.893239 238.65511,329.331125 238.310994,326.769012 Z" id="Fill-5-Lotus-Color-path" fill="#FFFFFF"></path>
                    <path d="M362.297072,267.163582 C360.278042,267.556624 358.340555,268.174728 356.406331,268.805879 C342.563415,273.342989 329.392422,279.722995 315.31466,283.648525 C306.674253,286.058966 298.240969,289.630595 289.029755,288.63902 C282.961247,287.986668 276.8748,287.099468 270.941656,285.703434 C261.379802,283.451188 251.883184,282.84287 242.347424,285.400091 C228.657811,289.074465 215.090514,288.457992 201.404163,285.150566 C194.985016,283.597967 188.337547,282.908105 181.760205,282.100819 C177.454679,281.570783 173.175248,281.976872 169.262765,284.230749 C168.612044,284.607483 167.688965,285.095116 167.098587,284.901041 C163.076835,283.578397 159.079546,284.933659 155.080626,284.896148 C151.652515,284.863531 148.221142,285.378889 144.789769,285.651246 C145.691646,286.977152 146.706054,287.71268 147.811791,288.273703 C153.037133,290.925515 158.259213,293.585481 163.535112,296.136179 C176.071692,302.201424 188.642521,308.203065 201.188887,314.24874 C202.123381,314.697232 203.248689,315.101691 203.822759,315.873097 C205.574325,318.231351 208.275064,318.9522 210.685505,320.139481 C211.483006,320.530893 212.642562,320.431409 213.58195,320.258536 C220.74967,318.947308 227.889666,317.481146 235.068803,316.228629 C238.979655,315.546921 239.286261,315.835587 240.936712,319.04516 C282.871549,304.646114 322.819973,286.47321 362.297072,267.163582 Z" id="Fill-5-Lotus-Color-path" fill="#FFFFFF"></path>
                    <path d="M341.211415,196.848159 C350.12744,192.611131 358.575402,187.362956 367.100016,182.338213 C371.478931,179.75816 371.609401,178.923149 370.456368,174.023983 C370.307958,173.391201 370.071481,172.779621 369.86762,172.161517 C369.024455,169.59288 367.351171,168.456156 364.930944,169.188421 C363.910013,169.496658 363.021183,170.447461 362.226944,171.256378 C355.161969,178.450193 347.429963,184.782903 338.753678,189.969104 C332.099684,193.946822 324.915654,196.548077 317.007514,198.599725 C317.227683,200.680729 317.438066,202.658987 317.72347,205.364618 C326.089889,202.394784 333.968673,200.292579 341.211415,196.848159 Z" id="Fill-5-Lotus-Color-path" fill="#FFFFFF"></path>
                    <path d="M117.143079,181.411873 C116.029187,184.673634 115.104478,187.754368 113.917196,190.729094 C113.008796,193.002542 113.59102,194.622007 115.208854,196.316492 C119.569829,200.884589 124.537492,204.674756 130.066178,207.636435 C139.122458,212.483413 148.232558,217.243953 157.481283,221.707674 C162.106461,223.941981 167.08717,225.439129 172.281526,227.410864 C173.635157,223.504905 174.806129,220.122458 176.063538,216.488856 C153.516612,208.981912 135.400788,195.453756 117.143079,181.411873 Z" id="Fill-5-Lotus-Color-path" fill="#FFFFFF"></path>
                    <path d="M25.6262056,262.885782 C29.1016125,261.075504 31.8480157,258.291591 34.6156203,255.595745 C40.4019852,249.952898 46.0888663,244.205674 51.7724857,238.460081 C53.9627585,236.245345 56.3291665,235.222783 59.5044913,236.189895 C63.6094181,237.440781 67.8758022,238.192617 71.9252791,239.590281 C82.6352729,243.289119 93.2490448,247.265206 103.931314,251.047219 C114.121057,254.654727 124.325477,258.213309 134.567408,261.674038 C140.381498,263.639249 145.349161,262.236691 149.189885,257.32774 C155.843879,248.819436 160.182021,239.12548 163.8091,229.377706 C156.088511,225.947964 148.58809,222.666632 141.133334,219.29234 C133.53343,215.852812 126.483133,211.495099 120.228705,206.012078 C115.751937,210.761203 115.751937,210.762833 109.153394,210.185502 C108.504303,210.128421 107.860105,210.001212 107.209384,209.971856 C100.048187,209.650573 92.8755731,208.928093 85.7274228,209.10912 C66.592299,209.596754 48.0051512,213.567948 29.6104473,218.631833 C25.675132,219.714738 22.421525,221.622868 19.7615585,224.613904 C13.0749474,232.129002 7.09450772,240.190446 1.75663504,248.706905 C-0.764706585,252.730288 -0.547799446,256.918389 2.25242279,260.814563 C4.38398392,263.774612 6.62318318,266.661271 8.86727509,269.538145 C9.39078781,270.210067 10.1361003,270.707486 11.0917964,271.56696 C11.3413212,267.987177 10.3954103,265.041806 8.73680463,262.675398 C6.11597927,258.93742 6.54000827,255.357636 8.09749938,251.582148 C9.04014845,249.298914 9.94691814,246.974909 11.1749713,244.844979 C13.0113431,241.659869 15.2358644,238.667203 18.7748756,237.21735 C23.8534382,235.137977 29.1962036,234.983043 34.5487542,235.79196 C36.766752,236.126291 37.3082044,237.393485 36.4210053,239.498952 C36.0198086,240.453017 35.3886577,241.307599 34.89287,242.222523 C32.0306743,247.485375 29.1342301,252.730288 26.3503167,258.033912 C25.6539306,259.36308 25.3244927,260.886322 24.827074,262.321497 C25.0929076,262.509049 25.3603721,262.6966 25.6262056,262.885782 Z" id="Fill-5-Lotus-Color-path" fill="#FFFFFF"></path>
                    <path d="M238.097349,338.764139 C228.209319,333.499656 218.399571,328.075347 208.39738,323.035926 C185.706936,311.608344 162.892545,300.423764 140.193947,289.012491 C135.914516,286.86136 131.532339,284.594436 127.890583,281.549581 C117.055011,272.490039 105.434986,264.568851 93.6600267,256.835214 C83.126168,249.915387 71.6594455,245.016222 59.7947881,240.911295 C57.3076949,240.05019 55.6099481,240.562286 53.9040468,242.374195 C50.7760176,245.694668 47.5680751,248.945013 44.3356695,252.164372 C38.5215797,257.952368 32.6471472,263.676759 26.8493662,269.481064 C26.1643963,270.166034 25.5332454,271.126622 25.3456941,272.054594 C23.7245987,280.062218 23.5859738,288.025809 25.5609704,296.062789 C28.5829924,308.372677 34.9825684,318.864133 42.4683111,328.827183 C46.4672306,334.152009 51.4984977,338.221056 57.6338711,340.822311 C63.6273578,343.361592 69.6893416,345.737786 75.7040297,348.22651 C76.8945727,348.717405 78.0329274,349.353448 79.159866,349.984599 C81.307736,351.183296 83.3235046,352.698385 85.587167,353.598631 C90.5499372,355.571996 95.6138219,357.295837 100.676076,359.008262 C102.641287,359.673661 104.733707,360.510303 106.731536,360.422236 C110.557582,360.255886 113.876424,361.650289 117.289858,362.891389 C120.10802,363.917213 122.875624,365.076769 125.711726,366.042251 C127.174626,366.5413 128.727224,366.80061 130.253729,367.081122 C132.664171,367.523091 135.188774,367.580171 137.488316,368.338531 C163.71614,376.988722 190.160871,384.898494 216.851865,391.996087 C222.726298,393.560102 228.550173,395.323084 234.511042,397.025723 C236.973672,393.065945 237.85924,388.664198 238.167477,384.303222 C239.201455,369.760659 239.897841,355.193632 240.736114,340.411329 C239.635269,339.718205 238.89485,339.188168 238.097349,338.764139 Z" id="Fill-5-Lotus-Color-path" fill="#FFFFFF"></path>
                    <path d="M467.603042,299.543088 C472.989841,295.02718 478.324452,290.447667 483.732452,285.956221 C485.919463,284.141051 486.258686,282.058416 485.603072,279.377248 C483.681895,271.535973 481.806382,263.676759 480.20975,255.763726 C479.162724,250.577525 477.486179,245.878958 474.115148,241.641929 C468.633758,234.757982 462.186887,228.981402 454.003127,225.97732 C437.408916,219.882719 421.054443,212.957999 403.468656,209.906621 C393.608351,208.194196 383.795342,206.20126 373.979071,204.244203 C373.228866,204.095793 372.413425,203.366789 371.986134,202.685081 C371.16254,201.36896 370.536282,199.915846 369.929594,198.477409 C368.471586,195.018311 367.067398,191.533119 365.611022,187.976168 C364.901589,188.272988 364.402539,188.414875 363.971987,188.675815 C351.908362,195.977269 339.632722,202.802504 325.824055,206.352932 C324.657975,206.653014 323.62889,207.476609 322.495427,208.076773 C324.967843,219.763664 329.868639,230.157267 333.689793,240.914557 C335.327197,245.518533 338.88741,247.646832 343.478339,248.139358 C347.617514,248.582958 351.799093,249.059175 355.943161,248.928705 C370.79233,248.459011 385.634975,247.733269 400.480883,247.113534 C404.107962,246.960232 407.743195,246.885211 411.368643,246.691136 C416.698361,246.404101 422.021556,245.841447 427.351274,245.763165 C432.809832,245.684883 436.91802,248.411715 439.180052,253.304358 C443.987888,263.701222 448.541308,274.217141 453.205626,284.680872 C453.734032,285.864892 454.15643,287.145133 454.918051,288.162803 C455.374698,288.766228 456.532623,289.371285 457.136049,289.188627 C457.762307,288.999444 458.486418,287.864351 458.494573,287.136979 C458.517405,284.932028 458.37878,282.69609 458.005308,280.523757 C456.573395,272.199742 455.001226,263.901821 453.553004,255.581067 C453.386654,254.625371 453.663904,253.594654 453.758495,252.298104 C457.000686,252.890114 459.949318,253.34676 462.863702,253.97465 C467.079529,254.88305 470.215713,257.285337 471.972171,261.254901 C473.757986,265.302747 475.421484,269.406043 477.093137,273.502816 C478.927878,278.002416 477.838449,281.942623 474.566902,285.338117 C472.399462,287.588733 470.186357,289.811623 467.844412,291.87958 C465.208909,294.205216 465.290453,296.943465 465.990101,300.19381 C466.707688,299.914929 467.249141,299.84154 467.603042,299.543088 Z" id="Fill-5-Lotus-Color-path" fill="#FFFFFF"></path>
                    <path d="M344.990166,373.180616 C361.14567,368.584794 377.232678,363.731293 393.306638,358.854959 C401.787218,356.28306 409.82583,352.610317 417.848132,348.839721 C429.515453,343.351807 440.200983,336.521678 449.482326,327.563251 C458.313545,319.037006 460.603301,308.154139 460.449999,296.447677 C460.430428,294.970099 460.097728,293.438702 458.171658,293.415869 C455.247489,293.381621 453.665535,291.569712 452.523918,289.265278 C449.288251,282.73197 445.907435,276.257373 443.025669,269.5675 C440.920202,264.67812 439.302368,259.671316 435.963955,255.316864 C434.046039,252.815093 432.105291,251.360348 429.032712,251.040695 C420.364581,250.138818 411.875847,250.518813 403.713288,253.973019 C399.996511,255.545188 396.168834,256.86457 392.492829,258.528069 C373.633324,267.055944 354.81296,275.671887 335.964872,284.229118 C329.09234,287.348993 322.208392,290.446036 315.288565,293.458272 C302.037659,299.223436 288.752505,304.902163 275.501599,310.664064 C273.83647,311.389806 272.024561,312.112286 270.762259,313.333816 C268.474134,315.546921 265.709791,316.427597 262.80193,317.179433 C261.164526,317.603462 259.533645,318.056847 257.904396,318.508601 C252.405066,320.035105 246.907367,321.569764 241.137311,323.176181 C241.512413,326.132968 241.851636,328.80272 242.145195,331.121832 C244.668167,330.91471 246.974233,330.436862 249.234634,330.595058 C256.643725,331.108785 264.036507,331.837789 271.434182,332.516235 C277.254796,333.049533 277.267843,333.091936 276.812827,338.91418 C276.794887,339.129457 277.011794,339.365934 277.18956,339.741037 C284.458396,342.674991 291.769634,341.393119 298.792207,338.822851 C304.757968,336.637471 310.386138,333.542059 316.210013,330.953852 C318.90749,329.755154 321.642477,330.229741 324.007254,331.824742 C326.226883,333.32026 325.837102,335.670359 325.272817,337.875309 C324.698747,340.122663 324.887929,342.193882 325.933324,344.314027 C326.486193,345.436073 326.761811,346.83863 326.699838,348.092777 C326.396494,354.19064 325.931693,360.267302 327.85124,366.237956 C328.146429,367.152881 327.945831,368.341793 327.657165,369.308905 C326.866188,371.960717 327.781112,374.111849 329.193455,376.251564 C334.567207,375.232264 339.898556,374.630469 344.990166,373.180616 Z" id="Fill-5-Lotus-Color-path" fill="#FFFFFF"></path>
                    <path d="M181.114376,172.213705 C181.135577,179.122116 180.928455,186.038681 181.181242,192.938938 C181.646043,205.612512 179.951558,217.824547 175.065439,229.637016 C171.917839,237.241813 170.096145,245.269008 169.693318,253.552251 C169.30843,261.479963 168.908864,269.409305 168.558225,277.340278 C168.519084,278.198121 168.7523,279.069012 168.84526,279.824109 C172.128223,279.38051 175.181232,278.757513 178.257073,278.591164 C186.404953,278.154087 194.368544,279.623511 202.23102,281.52838 C215.237294,284.67761 228.189748,285.400091 241.274305,281.887174 C251.698894,279.086951 262.100652,279.688746 272.574168,282.259014 C278.48448,283.712129 284.624746,284.465596 290.707931,284.932028 C300.318711,285.670817 308.949332,281.51044 317.824585,279.08532 C317.933854,278.356317 318.067586,277.969798 318.033338,277.597957 C317.933854,276.563979 317.805014,275.526739 317.617463,274.505807 C316.006153,265.75287 315.159726,256.962423 315.976797,248.052922 C316.262201,244.941201 316.528035,241.798494 316.415504,238.686773 C316.089328,229.835984 315.689762,220.985194 315.089598,212.149082 C313.703349,191.717408 311.146128,171.439037 306.547045,151.450962 C306.286104,150.320762 306.137694,149.128588 306.18662,147.975556 C306.207821,147.489553 306.819402,146.739348 307.274417,146.643126 C307.74248,146.545273 308.557921,146.959517 308.843325,147.398224 C309.249414,148.02122 309.347267,148.861124 309.511986,149.621114 C310.754717,155.347137 312.044744,161.063374 313.194515,166.808966 C313.985492,170.763852 314.569347,174.75951 315.255948,178.735597 C315.712594,181.382517 316.291557,184.013127 316.63078,186.674725 C316.966742,189.31349 317.071118,191.981611 317.310858,195.068868 C321.523423,193.504853 325.489724,192.25886 329.266844,190.583946 C339.769716,185.931043 348.680849,178.954135 356.913535,171.059042 C360.390572,167.72226 360.395465,167.661917 358.519952,163.406949 C352.841225,150.537669 347.234257,137.634141 341.381026,124.841512 C337.370691,116.072267 332.911863,107.54276 327.213565,99.6770224 C321.976807,92.4522207 315.055349,87.9917619 306.503011,85.9743624 C294.568226,83.1578313 282.564943,84.2717229 270.043041,85.4133394 C270.043041,87.6394916 270.160464,89.7025558 270.020209,91.7460493 C269.628797,97.4997966 268.746491,103.126335 265.659234,108.196743 C263.274886,112.112488 259.781539,114.007571 255.32108,114.201646 C251.207999,114.381043 247.300409,113.469381 243.599941,111.657472 C237.98808,108.906177 233.421614,104.828975 229.474882,100.099421 C225.740166,95.6242837 222.295745,90.9045149 218.592015,86.1276652 C203.711859,89.6324279 188.740374,93.5090314 173.951548,98.1456254 C163.176318,101.523179 155.27307,108.093998 149.648163,117.760228 C138.590791,136.758358 130.490207,157.082394 122.520092,177.473296 C121.764995,179.40752 122.154775,180.620895 123.790548,181.790237 C128.984904,185.502122 134.03411,189.422759 139.290439,193.036791 C149.726445,200.211035 160.509828,206.785115 172.464184,211.193386 C173.768889,211.674496 175.120889,212.020242 176.64087,212.485043 C176.916489,211.359736 177.223094,210.632363 177.255712,209.893574 C177.5297,203.521723 177.831413,197.149872 177.971669,190.774759 C178.107032,184.649171 178.038535,178.520321 178.110293,172.393102 C178.129864,170.878014 178.036904,169.186791 180.887683,168.498559 C180.982274,169.998969 181.109483,171.106337 181.114376,172.213705 Z" id="Fill-5-Lotus-Color-path" fill="#FFFFFF"></path>
                    <path d="M246.111497,333.61708 C245.640172,335.380062 245.186788,336.485799 245.066102,337.627416 C244.462676,343.309404 243.761398,348.989762 243.445007,354.691321 C243.019347,362.359722 243.105784,370.057479 242.619781,377.720988 C242.13541,385.376342 240.918773,392.940367 237.661904,399.821053 C237.921214,400.174954 237.975033,400.336411 238.074517,400.37066 C247.049253,403.547615 256.324072,404.35327 265.748932,403.681347 C266.495875,403.627528 267.387967,402.626168 267.810365,401.848238 C268.216455,401.102925 268.164266,400.07547 268.196884,399.1687 C268.524691,390.450012 268.722028,381.726431 269.165627,373.014266 C269.767422,361.20832 269.371118,349.275166 273.149869,337.82149 C273.29991,337.366475 273.169439,336.818499 273.169439,335.856279 C264.240367,335.11749 255.361852,334.380332 246.111497,333.61708" id="Fill-5-Lotus-Color-path" fill="#FFFFFF"></path>
                    <path d="M247.69443,2.01662169 C247.684644,2.15361567 247.661812,2.23679059 247.617778,2.24820675 C244.665884,2.95437811 242.012441,4.2346195 239.463375,5.72198274 C238.08365,6.35313359 236.78873,7.13595634 235.632436,8.1046995 C235.130125,8.42924477 234.631075,8.7570518 234.128764,9.08159707 C233.73246,9.33927623 233.186115,9.36210856 232.651186,9.50888782 C231.2894,8.03783339 231.489999,6.64995388 232.988778,5.89159433 C237.142631,3.79591258 241.376398,1.84537921 245.665614,0.0432559869 C246.296765,-0.222577574 247.216582,0.77389056 247.69443,2.01662169" id="Fill-6-Ponytail-path"></path>
                </g>
            </g>
        </g>
    </g>
</svg>