<svg xmlns="http://www.w3.org/2000/svg" width="14" height="14" viewBox="0 0 14 14">
    <g fill="none" fill-rule="evenodd">
        <g fill="#E64949" fill-rule="nonzero">
            <g>
                <g>
                    <path d="M2.024 5.071c.35-.145.773-.044 1.02.263l1.4 1.779c.292.365.234.89-.116 1.196-.365.321-.613.54-.671.598-.54.54.233 1.648 1.429 2.844s2.319 1.983 2.858 1.444c.073-.059.278-.307.598-.671.306-.35.831-.409 1.196-.117l1.779 1.4c.306.248.408.656.248 1.02-.204.482-.918 1.342-1.152 1.575-1.284 1.299-4.244-.306-7.044-3.12-2.8-2.815-4.404-5.76-3.12-7.059.233-.233 1.093-.948 1.575-1.152zm4.666-2.07c1.823.058 3.617.787 5.002 2.158 1.371 1.385 2.1 3.18 2.144 5.002.014.336-.277.613-.613.584-.306-.015-.524-.263-.54-.555-.043-1.517-.656-3.033-1.822-4.2-1.152-1.167-2.67-1.779-4.2-1.838-.292-.014-.54-.247-.555-.54-.029-.335.248-.626.584-.611zm.218 2.26c1.167.102 2.319.598 3.209 1.487.889.89 1.385 2.042 1.487 3.209.03.35-.262.656-.612.627-.292-.015-.525-.234-.525-.51-.087-.905-.466-1.794-1.166-2.494-.686-.7-1.576-1.094-2.494-1.167-.292-.03-.51-.263-.526-.54-.029-.35.278-.641.627-.612zm-.48 2.888c-.03-.395.335-.686.714-.599.51.117.992.38 1.386.773.393.394.656.875.758 1.372.087.378-.204.743-.598.714-.262-.015-.467-.19-.525-.438-.073-.305-.233-.597-.467-.83-.233-.234-.524-.394-.83-.467-.234-.073-.423-.278-.438-.525z" transform="translate(-1246 -429) translate(892 426) translate(354)"/>
                </g>
            </g>
        </g>
    </g>
</svg>
