<svg xmlns="http://www.w3.org/2000/svg" width="161" height="102" viewBox="0 0 161 102">
    <g fill="none">
        <path fill="#75FFC0" d="M112.523 52.513c16.782 0 48.473-4.833 48.473 15.174 0 20.007.717 34.313-16.064 34.313H63c63.394-18.32 32.741-49.487 49.523-49.487z" transform="matrix(-1 0 0 1 161 0)"/>
        <path fill="#000" d="M88.55.653c1.296.39 2.59.785 3.89 1.169L99.802 4c1.228.36 2.457.718 3.688 1.07 4.064 1.16 8.052 2.548 12.048 3.914l.954.332c.16.054.32.107.48.158.168.054.354.045.527.086l.144.035c.1.026.196.062.21.114.037.13-.002.324-.085.435-.326.437-.67.861-1.03 1.271-1.01 1.156-2.02 2.314-3.208 3.3-2.024 1.679-4.33 2.725-6.933 3.114-1.72.256-3.39-.038-5.022-.55-.98-.31-1.936-.7-2.934-1.065-.386.202-.458.643-.6 1.032-.573 1.573-1.132 3.153-1.701 4.728l-3.914 10.82-.105.31c-.035.107-.072.223-.116.353l.189-.047c.027-.007.048-.014.065-.026 2.502-1.697 5.21-3.016 7.931-4.308 2.282-1.084 4.585-2.125 6.878-3.186.18-.084.355-.181.42-.214l.186-1.494c.041-.316.084-.626.133-.934.037-.23.16-.455.282-.66.15-.25.4-.269.596-.05.12.133.21.297.291.458.603 1.208 1.206 2.417 1.798 3.631.24.496.11.701-.428.778-1.035.148-1.885-.108-2.439-1.058-.028-.049-.084-.081-.13-.124l-.124.017c-.02.004-.038.009-.055.017l-5.558 2.636c-1.852.88-3.702 1.764-5.546 2.662-1.58.77-3.086 1.685-4.508 2.728-.232.17-.41.35-.51.644-1.321 3.859-2.569 7.738-3.62 11.68-1.347 5.045-2.247 10.164-2.688 15.365-.459 5.411-.63 10.836-.663 16.263-.022 3.41.05 6.82.09 10.23.018 1.517-.004 3.032-.064 4.547.313-3.413 1.123-6.719 2.281-9.946 1.507-4.197 3.604-8.093 6.04-11.818.555-.85 1.098-1.708 1.632-2.571l.794-1.3c.307-.507.688-1.002.623-1.666-.011-.112.154-.241.272-.412-.82-.56-1.363-1.29-1.343-2.29.01-.503.126-1.026.302-1.5.457-1.239.959-2.46 1.475-3.675.161-.38.425-.718.652-1.09l2.311.571c.43-.487.374-1.21.948-1.568.375.253.164.513.056.76l-.19.502-.186.473.685.316.646.31c.107.053.212.109.315.169.474.276.7.702.576 1.246l-.1.438c-.072.293-.16.581-.303.833-.708 1.244-1.453 2.468-2.22 3.677-.626.988-1.517 1.428-2.7 1.131-.06-.015-.131.014-.231.026-1.06 2.347-2.58 4.434-3.906 6.638-.958 1.592-1.93 3.18-2.8 4.819-2.189 4.12-3.777 8.46-4.596 13.063-.393 2.21-.61 4.434-.49 6.682.01.21.049.419.074.628l.14.032.319-.694 2.68-5.965c.448-.993.9-1.985 1.356-2.974 1.137-2.462 2.374-4.877 3.893-7.13 1.29-1.913 2.826-3.591 4.878-4.722.468-.257.96-.486 1.466-.659.892-.305 1.801-.324 2.735.032l.322-.38.164-.178c.175-.178.325-.562.62-.347.299.216.01.422-.134.617l-.033.048c-.09.151-.203.29-.328.465l.344.237c.054.039.105.08.153.123l.572.515c.189.174.373.353.543.543.421.47.456 1.006.1 1.544l-.383.592c-.13.197-.262.39-.408.574-3.583 4.544-7.444 8.84-11.576 12.892l-2.117 2.063-4.253 4.108-.599.586c-.427-.194-.84-.165-1.262.06-.129.068-.302.072-.466.064l-.12-.008c-2.523-.167-5.043-.378-7.568-.506-2.502-.127-5.008-.188-7.514-.245-1.878-.043-3.76.011-5.63-.245-.288-.04-.576-.083-.858-.15-.898-.212-1.297-.652-1.387-1.575-.034-.353-.01-.717.032-1.07.04-.331.14-.654.213-.979l-.03-.087c-.006-.013-.013-.025-.023-.032-.164-.126-.473-.159-.366-.467.099-.284.346-.22.571-.171.064.013.133 0 .165 0l.963-1.03c.16-.168.321-.332.487-.492.996-.96 2.145-1.236 3.522-.914 3.104.727 6.151 1.63 9.073 2.897 2.724 1.18 5.396 2.483 8.09 3.734l.256.367c-.379-.536-.751-1.08-1.085-1.644-1.824-3.088-3.56-6.226-5.242-9.395l-.836-1.587c-1.595-3.045-3.255-6.058-4.95-9.049-2.504-4.418-5.395-8.583-8.525-12.578-2.878-3.675-6.026-7.103-9.516-10.215-2.314-2.062-4.615-4.14-6.867-6.268-1.065-1.006-2-2.15-3-3.224-.149-.16-.317-.33-.511-.414-4.068-1.778-7.8-4.139-11.498-6.55l-.792-.517c-2.537-1.659-5.052-3.362-7.474-5.181-2.964-2.227-5.814-4.606-8.728-6.9-1.99-1.568-3.98-3.137-6.016-4.643-2.04-1.51-3.775-3.308-5.307-5.311-.3-.392-.513-.851-.74-1.292-.108-.208-.131-.439-.399-.516l-.112-.021c-.274-.03-.268-.339-.203-.563.165-.566.327-1.136.538-1.686.26-.675.567-1.332.875-2.045L2.14 7.751l-.694-.58-.686-.58c-.415-.355-.41-.392-.305-.946l.424.266c.065.043.128.087.188.135.847.679 1.686 1.367 2.53 2.05.068.053.156.08.296.151l.698-1.104c.116-.182.233-.363.352-.543.667-1.007 1.412-1.948 2.316-2.76 1.216-1.091 2.575-1.392 4.102-.802 1.628.629 3.022 1.638 4.346 2.744 1.497 1.25 2.828 2.668 4.091 4.153 2.311 2.714 4.25 5.69 6.172 8.681 1.43 2.228 2.894 4.436 4.4 6.614 2.664 3.854 5.329 7.71 8.08 11.502 1.392 1.92 2.965 3.71 4.473 5.546.222.27.538.464.806.699.083.072.172.151.224.246.727 1.335 1.82 2.366 2.909 3.38 2.267 2.113 4.577 4.18 6.868 6.266l1.797 1.653c.094.086.2.159.39.187l-.085-.263c-.015-.043-.033-.085-.054-.126-.877-1.663-1.72-3.336-2.163-5.185-.34-1.421-.477-2.854-.393-4.316.057-.995.49-1.69 1.468-1.977l1-.3c.667-.2 1.337-.39 2.018-.507 1.166-.201 1.847.353 1.935 1.527.065.853.01 1.72-.047 2.577-.153 2.285-.407 4.567-.482 6.853-.055 1.65.104 3.305.19 4.956.011.203.122.437.26.588 2.357 2.573 4.553 5.278 6.62 8.086 1.551 2.105 3.025 4.263 4.39 6.493l.578.96c.807 1.363 1.667 2.695 2.434 4.08 1.26 2.272 2.468 4.573 3.692 6.866l2.63 4.953c.44.825.882 1.649 1.328 2.47.885 1.63 1.806 3.24 2.746 4.84.132.223.288.433.454.637-.047-.28-.12-.633-.213-1.047-.071-.032-.175-.13-.188-.198-.032-.16-.04-.328-.038-.495l.006-.244-.2-.805c-1.387-5.49-4.475-15.885-6.096-20.227l-.602.026c-.102.003-.205.005-.307.004-.728-.006-1.281-.33-1.692-.929-.406-.592-.636-1.255-.844-1.929l-.089-.29c-.332-1.09-.659-2.184-1.001-3.272-.079-.251-.207-.486-.346-.806l1.859-1.28c-.363-.626-.68-1.25-.724-1.945.307-.175.45-.04.54.16l.114.269.49 1.27.633-.302c.1-.048.2-.093.3-.137.976-.423 1.55-.255 1.962.706.634 1.48 1.22 2.983 1.568 4.563.163.741.123 1.465-.17 2.174-.236.566-.502 1.103-1.136 1.448 2.208 6.311 4.105 12.708 5.809 19.163.046-1.418.093-2.837.105-4.257.015-1.775-.075-3.55-.095-5.325-.025-2.18-.048-4.36-.03-6.539.018-2.179.07-4.358.138-6.536.173-5.509.5-11.006 1.41-16.452.587-3.506 1.399-6.961 2.385-10.377.347-1.202.708-2.4 1.08-3.595.09-.288.099-.533-.056-.804-.841-1.47-1.624-2.976-2.513-4.417-1.366-2.216-2.801-4.39-4.209-6.58-.053-.083-.127-.152-.22-.26l-.333.247-.156.123c-1.832 1.512-3.967 1.929-6.26 1.66-.55-.063-1.08-.32-1.607-.522-.41-.157-.536-.746-.254-1.093.1-.124.226-.232.35-.334 2.02-1.649 4.025-3.315 6.067-4.936.846-.673 1.703-1.331 2.563-1.986l2.58-1.965c.392-.3.417-.235.71.144.323.417.241.77.093 1.172l-.042.111c-.375.98-.722 1.97-1.063 2.963-.463 1.35-1.112 2.596-2.013 3.708-.05.062-.083.136-.147.242l1.815 2.668c.605.89 1.206 1.784 1.79 2.69 1.151 1.787 2.235 3.619 3.383 5.487l2.053-5.843c.68-1.937 1.362-3.864 2.057-5.786l1.395-3.854c.935-2.57 1.891-5.142 2.918-7.717l-.05-.06c-.025-.03-.06-.062-.099-.085-4.219-2.444-7.102-6.038-9.024-10.454-.499-1.148-.943-2.318-1.16-3.56-.044-.26-.06-.496.127-.742l.13-.168c.19-.234.26-.233.66-.113z" transform="matrix(-1 0 0 1 161 0)"/>
        <path fill="#618133" d="M61.985 94.728c-.387.76-.485 1.41-.392 2.097.065.48.285.79.778.873.441.073.88.193 1.324.208 2.1.076 4.202.106 6.303.183 2.435.09 4.87.199 7.303.326.841.043 1.679.165 2.518.252l.02-.163-17.854-3.776zM62.404 94.12l.087.028c1.476.419 19.096 4.093 19.992 4.137l-.398-.238c-.05-.029-.095-.053-.141-.074-2.363-1.07-4.705-2.192-7.098-3.19-2.81-1.172-5.713-2.08-8.703-2.685-1.479-.299-3.113.591-3.739 2.022zM99.619 76.153c-2.087.932-3.653 2.483-4.972 4.296-1.573 2.162-2.793 4.535-3.926 6.946-1.324 2.814-2.573 5.664-3.855 8.498l-.88 1.939.11.062.102-.085c.016-.015.03-.03.044-.048 1.107-1.463 2.268-2.89 3.31-4.4 4.02-5.824 8.114-11.591 12.563-17.1.078-.096.125-.22.223-.396l-.376-.071c-.115-.022-.221-.04-.328-.052-.714-.079-1.378.126-2.015.41zM102.97 76.168c-5.322 6.344-9.896 13.221-14.66 19.963.222-.155.421-.33.61-.516l4.334-4.305c3.708-3.674 7.157-7.58 10.415-11.656.334-.419.628-.87.927-1.314.21-.311.203-.622-.034-.931-.416-.541-.905-.979-1.591-1.241zM57.754 42.704c-1.06.23-2.1.567-3.137.89-.423.133-.657.486-.713.923-.048.382-.085.768-.086 1.152-.008 2.144.488 4.178 1.404 6.1.453.95.933 1.886 1.433 2.81l.829 1.508c.26.459.562.914 1.065 1.294l-.023-.596c-.166-2.31-.157-4.618.08-6.926.141-1.376.28-2.753.388-4.132.053-.675.076-1.36.032-2.035-.053-.811-.47-1.163-1.272-.988zM4.183 9.45c-.484.842-.804 1.687-1.112 2.536-.03.08-.042.188-.013.263l.644 1.627c.303.786.95 1.314 1.45 1.951.785 1 1.647 1.93 2.653 2.71 1.485 1.15 3.006 2.253 4.478 3.419 2.11 1.67 4.193 3.376 6.28 5.076 3.968 3.23 8.107 6.227 12.388 9.032 3.067 2.01 6.152 3.988 9.386 5.725.097.052.209.075.363.128l-.054-.146c-.008-.021-.016-.036-.027-.046l-3.42-3.163c-.571-.526-1.144-1.05-1.72-1.57-1.946-1.76-3.936-3.472-5.868-5.246-2.682-2.463-5.306-4.988-7.993-7.443-4.928-4.5-10.04-8.788-15.19-13.032-.729-.6-1.467-1.19-2.245-1.82zM7.563 4.586c-.788.842-1.477 1.78-2.173 2.703-.337.447-.587.96-.885 1.457l.315.338c.032.032.064.062.098.09l5.403 4.487c1.801 1.496 3.598 2.997 5.38 4.515 2.806 2.392 5.559 4.847 8.295 7.318 2.232 2.017 4.385 4.121 6.609 6.147 2.509 2.285 5.059 4.525 7.59 6.787.414.37.822.75 1.233 1.125l.09-.105c-.757-.986-1.55-1.947-2.267-2.963-2.425-3.44-4.857-6.877-7.221-10.36-2.223-3.276-4.35-6.617-6.542-9.915-2.183-3.286-4.535-6.44-7.439-9.14-1.38-1.284-2.859-2.445-4.587-3.233-1.523-.695-2.75-.48-3.9.749z" transform="matrix(-1 0 0 1 161 0)"/>
        <path fill="#EEB200" d="M76.304 66.272c-.944.412-1.818.952-2.695 1.609l.162.584.053.177c.332 1.067.648 2.14 1.01 3.198.202.588.45 1.165.737 1.717.284.548.81.779 1.407.737.8-.056 1.47-.35 1.804-1.168.224-.551.347-1.095.243-1.698-.285-1.646-.942-3.168-1.552-4.703-.25-.63-.543-.727-1.17-.453zM97.702 57.395l-.14.255c-.042.075-.077.143-.106.215-.537 1.351-1.075 2.702-1.6 4.059-.095.248-.16.515-.193.78-.114.917.406 1.788 1.265 2.158 1.055.453 1.766.32 2.42-.592.703-.98 1.338-2.011 1.966-3.042.265-.435.485-.911.643-1.396.233-.719.108-.945-.566-1.283-1.15-.576-2.395-.84-3.689-1.154zM85.377 20.454l-3.9 2.972c-2.579 1.975-5.11 3.958-7.562 6.082l.264.12c.078.036.15.068.225.095 1.603.574 3.2.415 4.748-.157 1.608-.594 2.804-1.72 3.717-3.162.68-1.073 1.1-2.256 1.553-3.427l.171-.438c.259-.647.492-1.304.784-2.085zM108.588 23.653c-.247.724-.23 1.462.017 2.178.25.723.819 1.012 1.6.858l-1.489-3.027-.128-.009zM88.147 1.2l.104.495c.02.093.04.177.064.26 1.038 3.515 2.724 6.67 5.215 9.383 2.348 2.558 5.155 4.381 8.511 5.328 1.091.308 2.198.547 3.343.496 2.808-.126 5.255-1.178 7.427-2.919 1.427-1.143 2.586-2.55 3.8-3.902.032-.036.028-.104.039-.148l-3.782-1.341c-.84-.294-1.68-.58-2.526-.85-4.04-1.284-8.098-2.515-12.154-3.751-2.994-.913-5.997-1.797-8.995-2.697l-.31-.099c-.212-.071-.443-.155-.736-.254z" transform="matrix(-1 0 0 1 161 0)"/>
    </g>
</svg>
