<svg xmlns="http://www.w3.org/2000/svg" width="160" height="160" viewBox="0 0 160 160">
    <g fill="none">
        <circle cx="80" cy="80" r="80" fill="#FFF"/>
        <path fill="#002F87" d="M154.308 75.657c-1.368-29.422-19.997-55.254-47.482-65.842C79.341-.774 48.196 5.884 27.442 26.783c11.45-9.779 27.052-15.207 45.754-15.207 13.597-.02 26.939 3.698 38.567 10.746-.383 1.965-1.185 3.824-2.351 5.45-23.14 31.843-59.335 26.24-89.331 39.249-3.45 1.472-5.868 6.395-5.516 10.592.747 10.329 1.56 20.79 2.439 31.47-1.165.9-2.198 1.89-3.428 2.9 4.39 8.872 10.51 16.777 17.998 23.25 22.041-14.306 49.687-12.943 73.135-23.316 3.72-2.228 5.844-6.382 5.472-10.702-.747-10.446-1.597-21.001-2.55-31.667 1.842-1.471 3.603-3.041 5.275-4.703 2.922-2.879 4.724-9.493 4.197-14.196-.923-8.79-1.934-17.712-2.989-26.766 20.928 13.738 33.533 37.09 33.535 62.125 0 18.723-5.45 34.348-15.25 45.819 14.943-14.765 22.908-35.186 21.909-56.17zm-51.95-1.846c-.7 1.143-1.61 2.143-2.682 2.945-6.462 4.242-13.441 7.64-20.767 10.109-1.255.589-2.436 1.327-3.516 2.197-.483.44-.351 1.495.308 2.374 3.033 4.131 6.043 8.24 9.054 12.284.637.857.308 1.45-.747 1.319-5.934-.791-11.955-1.912-17.976-3.077-1.19-.187-2.407.013-3.473.571-5.889 3.692-11.778 7.472-17.58 11.867-.813.616-1.165.352-.813-.615 1.934-5.054 3.89-10.006 5.867-14.856.205-.363.235-.8.081-1.188-.153-.388-.474-.686-.872-.811-1.547-.287-3.133-.287-4.68 0 0-.242-16.856 6.24-25.009 14.394.627-2.318 1.574-4.537 2.813-6.593.704-1.152 1.622-2.159 2.703-2.967 8.432-5.336 17.607-9.394 27.228-12.042 1.086-.303 2.014-1.01 2.593-1.978 2-4.68 4-9.318 6-13.955.395-.9 1.23-.9 1.89 0l6.9 9.494c.7.899 1.853 1.317 2.966 1.077 0 .153 21.976-6.241 32.59-16.966-.669 2.258-1.637 4.416-2.879 6.417z"/>
    </g>
</svg>
