<svg xmlns="http://www.w3.org/2000/svg" xmlns:xlink="http://www.w3.org/1999/xlink" width="105" height="20" viewBox="0 0 105 20">
    <defs>
        <path id="vmw4x5zzba" d="M0.195 0.29L12.77 0.29 12.77 13.723 0.195 13.723z"/>
    </defs>
    <g fill="none" fill-rule="evenodd">
        <path fill="#FDCD2D" d="M0 1.154L0 4.318 2.478 4.318 3.164 4.318 3.164 1.154z"/>
        <path fill="#FFF" d="M0 19.038L3.164 19.038 3.164 6.463 0 6.463zM5.068 6.463h3.11v1.682c.082-.186.266-.543.576-.824.22-.2.491-.38.804-.55.313-.17.666-.308 1.06-.415.393-.108.84-.161 1.34-.161 1.573 0 2.77.47 3.593 1.407.822.939 1.234 2.204 1.234 3.794v7.642H13.62v-7.615c0-.804-.22-1.425-.657-1.863-.439-.438-1.006-.657-1.703-.657-.429 0-.83.085-1.206.255-.376.17-.697.407-.966.71-.268.304-.478.657-.63 1.06-.152.401-.228.835-.228 1.3v6.81H5.068V6.463zM20.02 9.037h-2.07V6.463h2.07V1.154h3.164v5.309h3.379v2.574h-3.38v5.497c0 .715.122 1.265.363 1.649.241.384.63.576 1.166.576.5 0 .898-.07 1.193-.214.295-.143.577-.313.845-.51l1.34 1.957c-.625.52-1.242.89-1.85 1.113-.607.224-1.286.336-2.037.336-.769 0-1.42-.112-1.958-.336-.535-.223-.97-.54-1.3-.952-.331-.41-.568-.907-.71-1.488-.144-.58-.215-1.22-.215-1.917V9.037zM37.038 11.423c0-.322-.063-.643-.188-.965-.125-.322-.308-.612-.55-.871-.241-.26-.55-.474-.925-.644-.375-.17-.804-.255-1.287-.255-.519 0-.979.085-1.38.255-.403.17-.738.385-1.006.644-.269.26-.474.55-.617.871-.143.322-.215.643-.215.965h6.168zm3.083 5.792l-.442.442c-.241.242-.59.496-1.046.764-.456.269-1.037.51-1.743.724-.706.215-1.55.322-2.534.322-1.001 0-1.913-.17-2.735-.509-.822-.34-1.524-.809-2.105-1.408-.58-.599-1.027-1.318-1.34-2.159-.313-.84-.47-1.77-.47-2.788 0-.93.157-1.792.47-2.587.313-.795.75-1.488 1.314-2.078.563-.59 1.233-1.055 2.01-1.395.779-.339 1.64-.51 2.588-.51 1.144 0 2.114.211 2.91.631.794.42 1.434.97 1.917 1.649.482.68.83 1.448 1.045 2.306.215.858.322 1.734.322 2.627v.457h-9.385c0 .465.103.884.309 1.26.205.375.473.697.804.965.33.268.706.474 1.126.617.42.143.836.214 1.247.214.608 0 1.14-.058 1.595-.174.456-.116.845-.25 1.167-.402.321-.152.585-.313.79-.483.206-.17.363-.309.47-.415l1.716 1.93zM91.243 17.376c-.59.625-1.287 1.126-2.092 1.502-.804.375-1.742.563-2.815.563-1.072 0-2.029-.162-2.869-.483-.84-.322-1.546-.778-2.118-1.368-.572-.59-1.01-1.296-1.314-2.118-.304-.822-.456-1.734-.456-2.735 0-.912.166-1.774.496-2.587.33-.813.791-1.524 1.381-2.132.59-.607 1.3-1.09 2.132-1.448.831-.357 1.747-.536 2.748-.536 1.02 0 1.948.183 2.789.55.84.366 1.555.862 2.145 1.487l-2.011 2.039c-.358-.412-.778-.733-1.26-.966-.483-.232-1.038-.348-1.663-.348-.608 0-1.135.111-1.582.335-.447.223-.818.514-1.113.871-.294.358-.513.778-.656 1.26-.144.483-.215.975-.215 1.475 0 .483.071.957.215 1.421.143.465.362.885.656 1.26.295.376.666.68 1.113.912.447.233.974.349 1.582.349.625 0 1.198-.121 1.716-.362.519-.242.956-.568 1.314-.98l1.877 2.039z"/>
        <g transform="translate(92.174 5.744)">
            <mask id="2e0tdntk5b" fill="#fff">
                <use xlink:href="#vmw4x5zzba"/>
            </mask>
            <path fill="#FFF" d="M9.526 5.68c0-.323-.063-.644-.188-.966-.125-.322-.308-.612-.55-.871-.24-.26-.549-.474-.924-.644-.376-.17-.805-.255-1.287-.255-.52 0-.98.085-1.381.255-.402.17-.737.384-1.005.644-.27.26-.474.55-.617.87-.144.323-.215.644-.215.966h6.167zm3.084 5.79l-.443.443c-.24.242-.59.496-1.046.764-.455.269-1.037.51-1.743.724-.706.215-1.55.322-2.533.322-1.002 0-1.913-.17-2.735-.51-.823-.339-1.524-.808-2.105-1.407S.977 10.488.665 9.647c-.314-.84-.47-1.77-.47-2.788 0-.93.156-1.792.47-2.587.312-.795.75-1.489 1.313-2.079C2.541 1.603 3.212 1.14 3.99.8 4.767.46 5.63.29 6.577.29 7.72.29 8.69.5 9.486.92c.795.42 1.435.97 1.917 1.649.483.68.831 1.448 1.046 2.306.214.858.322 1.734.322 2.627v.457H3.386c0 .464.102.884.308 1.26.206.375.474.697.805.964.33.27.706.475 1.125.617.42.144.836.215 1.248.215.607 0 1.14-.058 1.595-.175.456-.115.845-.25 1.166-.401.322-.152.586-.313.791-.483.206-.17.362-.309.47-.416l1.716 1.93z" mask="url(#2e0tdntk5b)"/>
        </g>
        <path fill="#FFF" d="M42.275 19.038L45.305 19.038 45.305 6.463 42.275 6.463zM50.702 8.52c0 1.135-.92 2.056-2.056 2.056-1.136 0-2.057-.92-2.057-2.056 0-1.136.92-2.057 2.057-2.057 1.136 0 2.056.92 2.056 2.057M57.432 9.828L61.546 9.828 61.546 7.211 57.432 7.211z"/>
        <path fill="#FFF" d="M58.686.006C55.2.16 52.512 3.161 52.512 6.652v12.386l3.05-1.528.01-11.047c0-1.876 1.526-3.402 3.402-3.402 1.034 0 1.96.465 2.584 1.194l2.165-2.165C62.482.743 60.682-.081 58.686.006M66.823 12.748c0 2.479 1.714 3.956 3.85 3.956 5.064 0 5.064-7.886 0-7.886-2.136 0-3.85 1.45-3.85 3.93zm7.806-6.488h3.085v13.001h-3.033l-.158-1.898c-.738 1.529-2.769 2.268-4.219 2.294-3.85.026-6.699-2.347-6.699-6.91 0-4.483 2.98-6.83 6.778-6.803 1.74 0 3.402.817 4.14 2.11l.106-1.794z"/>
    </g>
</svg>
