<svg xmlns="http://www.w3.org/2000/svg" width="40" height="38" viewBox="0 0 40 38">
    <g fill="none" fill-rule="evenodd">
        <g>
            <g>
                <g>
                    <g>
                        <g>
                            <path fill="#083EB1" d="M38.708 26.25h-3.584l.001-4.54c1.333-.5 2.334-2.25 2.334-4.293 0-2.458-1.416-4.458-3.167-4.458-1.75 0-3.208 2-3.208 4.458 0 2.041 1 3.792 2.334 4.292l-.002 4.541h-4.874V1.416c0-.583-.5-1.084-1.084-1.084L12.5.333c-.583 0-1.042.46-1.042 1.084V26.25H6.541v-4.54c1.333-.5 2.334-2.25 2.334-4.293 0-2.458-1.416-4.458-3.167-4.458-1.75 0-3.167 2-3.167 4.458 0 2.041.999 3.792 2.334 4.292v4.541H1.292c-.582 0-1.084.459-1.084 1.084v.291c0 .583.46 1.084 1.084 1.084H13.46c1.124-2.501 3.624-4.209 6.54-4.209 2.875 0 5.417 1.75 6.542 4.21H38.75c.582 0 1.084-.5 1.084-1.085v-.291c-.043-.625-.542-1.084-1.127-1.084zM18.25 21.375c0 .209-.166.334-.334.334h-2.583c-.166 0-.333-.166-.333-.334v-2.583c0-.208.166-.333.333-.333h2.583c.166 0 .334.166.334.333v2.583zm0-7.042c0 .208-.166.334-.334.334h-2.583c-.166 0-.333-.166-.333-.334V11.75c0-.208.166-.334.333-.334h2.583c.166 0 .334.166.334.334v2.583zm0-6.999c0 .166-.166.334-.334.334h-2.583c-.166 0-.333-.166-.333-.334V4.751c0-.166.166-.333.333-.333h2.583c.166 0 .334.166.334.333v2.583zm6.792 14.041c0 .209-.166.334-.334.334h-2.583c-.208 0-.333-.166-.333-.334v-2.583c0-.208.166-.333.333-.333h2.583c.209 0 .334.166.334.333v2.583zm0-7.042c0 .208-.166.334-.334.334h-2.583c-.208 0-.333-.166-.333-.334V11.75c0-.208.166-.334.333-.334h2.583c.209 0 .334.166.334.334v2.583zm0-6.999c0 .166-.166.334-.334.334h-2.583c-.208 0-.333-.166-.333-.334V4.751c0-.166.166-.333.333-.333h2.583c.209 0 .334.166.334.333v2.583z" transform="translate(-798 -69) translate(0 56) translate(407) translate(364) translate(27 13)"/>
                            <path fill="#FDCD2D" d="M20 26.167c-3.042 0-5.5 2.458-5.5 5.5s2.458 5.5 5.5 5.5 5.5-2.458 5.5-5.5-2.458-5.5-5.5-5.5zm.542 8.166v.542c0 .125-.083.208-.208.208h-.625c-.126 0-.209-.083-.209-.208v-.542c-.667-.083-1.167-.583-1.25-1.25 0-.042 0-.125.043-.166.042-.042.083-.083.166-.083h.625c.083 0 .208.083.208.166.042.166.166.291.334.291h.582c.292 0 .542-.208.583-.5 0-.165-.042-.29-.125-.416-.083-.125-.251-.166-.417-.166h-.5c-.459 0-.875-.208-1.207-.542-.292-.334-.46-.791-.417-1.25.083-.708.583-1.25 1.333-1.416v-.583c0-.125.083-.208.208-.208h.625c.126 0 .209.083.209.208v.542c.667.083 1.167.583 1.25 1.25 0 .043 0 .126-.043.166-.042.043-.083.083-.166.083h-.625c-.083 0-.208-.083-.208-.166-.042-.166-.166-.291-.334-.291h-.582c-.292 0-.542.208-.583.5 0 .166.042.29.125.416.083.126.251.166.417.166h.417c.875 0 1.583.625 1.666 1.459.083.874-.459 1.624-1.292 1.79z" transform="translate(-798 -69) translate(0 56) translate(407) translate(364) translate(27 13)"/>
                        </g>
                    </g>
                </g>
            </g>
        </g>
    </g>
</svg>
