<svg xmlns="http://www.w3.org/2000/svg" width="16" height="16" viewBox="0 0 16 16">
    <g fill="none" fill-rule="evenodd">
        <g fill="#FFF" fill-rule="nonzero">
            <g>
                <g>
                    <path d="M8 187c-4.419 0-8 3.581-8 8 0 4.419 3.581 8 8 8 4.419 0 8-3.581 8-8 0-4.419-3.581-8-8-8zm0 12.686c-.541 0-.98-.438-.98-.98 0-.541.439-.98.98-.98.541 0 .98.439.98.98 0 .541-.439.98-.98.98zm1.557-4.222c-.473.472-.741.762-.741 1.218v.228c0 .09-.073.164-.163.164H7.346c-.09 0-.163-.073-.163-.164v-.228c0-1.155.676-1.83 1.218-2.373.475-.473.742-.764.742-1.22 0-.63-.512-1.142-1.143-1.142-.63 0-1.143.513-1.143 1.143 0 .09-.073.163-.163.163H5.388c-.09 0-.163-.073-.163-.163 0-1.53 1.244-2.776 2.775-2.776s2.774 1.245 2.774 2.776c0 1.154-.674 1.83-1.217 2.373z" transform="translate(-440 -659) translate(128 457) translate(312 15)"/>
                </g>
            </g>
        </g>
    </g>
</svg>
