<svg xmlns="http://www.w3.org/2000/svg" width="28" height="24" viewBox="0 0 28 24"><path fill="#FDCD2D" d="M27.038 24V12.06h-5.946c-.155-1.393-.085-2.64.209-3.74.294-1.099.86-1.95 1.696-2.555.836-.604 1.966-.844 3.391-.72l.65-4.831c-3.81-.62-6.674.108-8.594 2.183-1.92 2.075-2.88 5.141-2.88 9.199V24h11.474zm-15.563 0V12.06H5.528c-.154-1.393-.085-2.64.21-3.74.294-1.099.859-1.95 1.695-2.555.836-.604 1.967-.844 3.392-.72l.65-4.831c-3.81-.62-6.674.108-8.595 2.183C.96 4.472 0 7.538 0 11.596V24h11.475z"/></svg>