<svg xmlns="http://www.w3.org/2000/svg" width="26" height="28" viewBox="0 0 26 28">
    <g fill="none" fill-rule="evenodd">
        <g fill="#000" fill-rule="nonzero">
            <g>
                <g>
                    <g>
                        <path d="M17.76 20.13c.228-.284.64-.328.924-.102.283.227.328.64.102.923-3.887 4.847-3.107 11.953 1.741 15.84 2.23 1.789 5.008 2.639 7.85 2.438.113-1.302 1.198-2.33 2.528-2.33 1.406 0 2.55 1.147 2.55 2.55 0 1.408-1.143 2.551-2.55 2.551-1.018 0-1.893-.604-2.301-1.47-.35.03-.7.052-1.048.052-2.85 0-5.6-.961-7.85-2.767-5.413-4.34-6.285-12.274-1.946-17.686zM24.247 14c1.018 0 1.892.604 2.3 1.468 3.223-.264 6.374.692 8.899 2.717 5.411 4.34 6.284 12.273 1.944 17.685-.131.16-.321.245-.513.245-.145 0-.29-.048-.41-.144-.283-.227-.327-.64-.102-.923 3.888-4.847 3.108-11.953-1.74-15.84-2.23-1.786-5.01-2.64-7.851-2.438-.114 1.303-1.197 2.33-2.527 2.33-1.406 0-2.55-1.144-2.55-2.55 0-1.407 1.144-2.55 2.55-2.55zm3.329 6.082c.363 0 .656.293.656.656v6.995l2.624 2.711c.253.26.245.676-.015.928-.127.122-.292.185-.456.185-.172 0-.343-.068-.472-.2l-2.81-2.9c-.02-.021-.03-.049-.046-.073-.032-.043-.067-.086-.088-.14-.02-.05-.026-.106-.033-.162-.003-.028-.016-.053-.016-.082v-7.262c0-.363.294-.656.656-.656z" transform="translate(-751 -264) translate(508 250) translate(184) translate(44)"/>
                    </g>
                </g>
            </g>
        </g>
    </g>
</svg>
