<svg xmlns="http://www.w3.org/2000/svg" width="37" height="48" viewBox="0 0 37 48">
    <g fill="none">
        <path fill="#FDCD2D" d="M18.699 9c5.35 0 9.699 4.35 9.699 9.699 0 5.35-4.35 9.65-9.699 9.65-5.35 0-9.699-4.3-9.699-9.65C9 13.349 13.35 9 18.699 9zm.404 5h-.718v.592c-1.523.12-2.499 1.024-2.499 2.361 0 1.184.696 1.907 2.154 2.23l.345.077V21.7c-.79-.104-1.326-.543-1.397-1.173H15.7c.066 1.353 1.09 2.23 2.685 2.334v.592h.718v-.597c1.61-.126 2.597-1.047 2.597-2.455 0-1.216-.663-1.885-2.247-2.241l-.35-.077v-2.329c.668.11 1.123.532 1.2 1.13h1.26c-.055-1.267-1.03-2.154-2.46-2.286V14zm0 5.43c.898.23 1.276.559 1.276 1.118 0 .608-.51 1.052-1.276 1.15V19.43zm-.718-3.682v2.164c-.833-.224-1.167-.537-1.167-1.063 0-.591.444-1.002 1.167-1.101zM24.15 2.4c.25-.6.95-.9 1.6-.65.6.25.9.949.65 1.6l-1.55 3.699c-.202.449-.65.75-1.15.75-.15 0-.3-.05-.45-.1-.6-.25-.9-1-.65-1.6zM11.2 1.701c.599-.299 1.349 0 1.599.65l1.55 3.7c.3.6 0 1.35-.65 1.6-.148.048-.299.099-.45.099-.5 0-.95-.25-1.15-.75l-1.55-3.7c-.3-.599 0-1.349.65-1.599zM18.5.25c.7 0 1.25.55 1.25 1.25v4c0 .7-.55 1.25-1.25 1.25s-1.25-.55-1.25-1.25v-4c0-.7.55-1.25 1.25-1.25z"/>
        <path fill="#083EB1" d="M31.1 42.15c.55 0 .95.45.898.95v3.65c0 .5-.399.95-.95.95H20.95c-.5 0-.95-.4-.95-.95V43.1c0-.5.4-.95.95-.95zm-15.05 0c.5 0 .95.45.9.95v3.65c0 .5-.4.95-.95.95H5.9c-.5 0-.949-.4-.949-.95V43.1c0-.5.399-.95.95-.95zM3.452 16.399c.45-.15.95-.05 1.35.25.398.3.648.7.699 1.2l.55 7.15c-.3.1-.65.35-.9.6-1 1-1.1 2.6-.25 3.699l3.5 4.449c.3.4.85.451 1.2.15.4-.298.45-.85.15-1.199l-3.5-4.449c-.35-.45-.3-1.049.1-1.45.398-.4 1-.448 1.449-.099l5.1 3.75c1 .701 1.65 1.852 1.8 3.051l.9 7v.05l-9.597-.004-4.5-5.449c-1.201-1.449-1.701-3.35-1.4-5.199L2.252 17.7c.1-.65.6-1.15 1.2-1.3zm28.7.202c.4-.301.9-.4 1.349-.25.6.15 1.1.7 1.2 1.3l2.15 12.2c.3 1.85-.2 3.75-1.447 5.15l-4.5 5.45h-9.551l.9-7c.2-1.202.85-2.301 1.85-3.051l5.1-3.75c.2-.149.4-.2.65-.2s.55.102.75.301c.4.399.449 1 .1 1.45l-3.5 4.449c-.3.398-.2.898.15 1.199.398.299.898.199 1.199-.15l3.5-4.45c.85-1.1.75-2.699-.25-3.699-.25-.25-.551-.45-.9-.6l.55-7.15c.049-.5.299-.899.7-1.2z"/>
    </g>
</svg>
