<svg xmlns="http://www.w3.org/2000/svg" width="48" height="41" viewBox="0 0 48 41">
    <g fill="none">
        <path fill="#FDCD2D" d="M33.249 5.903L24 15.152l-5.357-5.357L5.315 23.122l3.379 3.38 9.948-9.95L24 21.91 36.627 9.282l1.008 1.009c.374.373.89.587 1.418.587.953 0 1.78-.677 1.967-1.61l1.305-6.521c.029-.142.042-.283.042-.425 0-1.19-.968-2.158-2.158-2.158-.142 0-.283.015-.423.042l-6.52 1.305c-.936.186-1.613 1.014-1.613 1.967 0 .536.208 1.039.587 1.418l1.009 1.007zm.317-2.893l6.52-1.305c.38-.074.75.228.75.617 0 .042-.003.082-.01.122l-1.306 6.52c-.069.345-.553.492-.801.243l-2.092-2.091L24 19.743l-5.357-5.357-9.95 9.949-1.212-1.213L18.643 11.96 24 17.317 35.415 5.902l-2.091-2.09c-.09-.089-.14-.211-.14-.336 0-.225.16-.422.383-.466z"/>
        <path fill="#083EB1" d="M38.541 29.245v-2.296h2.296c3.798 0 6.887-3.09 6.887-6.888v-.765h-3.826c-3.413 0-6.249 2.499-6.788 5.763-1.259-1.638-3.234-2.701-5.457-2.701h-3.826v.765c0 .786.149 1.561.407 2.296H17.877c-1.266 0-2.296 1.03-2.296 2.296v1.53c0 .364.092.704.245 1.01-.306-.153-.646-.244-1.01-.244H2.571c-1.266 0-2.296 1.029-2.296 2.296v1.53c0 .59.23 1.123.597 1.53-.367.408-.597.942-.597 1.531v1.531c0 1.267 1.03 2.296 2.296 2.296h12.245c.59 0 1.123-.23 1.53-.597.408.367.942.597 1.531.597h12.245c1.267 0 2.296-1.03 2.296-2.296v-1.53c0-.59-.23-1.124-.597-1.531.368-.408.597-.942.597-1.53v-1.531c0-.59-.23-1.124-.597-1.531.295-.325.494-.733.563-1.186.746.268 1.53.42 2.33.42h2.296v10.715h3.826c3.798 0 6.888-3.09 6.888-6.888v-.765h-3.827c-2.162 0-4.094 1.005-5.357 2.568l.001-6.395zm5.357 5.357h2.243c-.373 2.593-2.608 4.592-5.304 4.592h-2.242c.373-2.592 2.61-4.592 5.303-4.592zm0-13.775h2.243c-.373 2.592-2.608 4.592-5.304 4.592h-2.242c.373-2.593 2.61-4.592 5.303-4.592zm-9.184 7.653c-.8 0-1.58-.188-2.296-.528v-.238c0-1.266-1.03-2.296-2.296-2.296h-.245c-.23-.484-.388-.998-.465-1.53h2.24c2.695 0 4.931 2 5.304 4.592h-2.242z"/>
        <path fill="#FDCD2D" d="M17.112 27.714c0-.423.345-.765.766-.765h.765v1.53h1.53v-1.53h1.531v1.53h1.53v-1.53h1.532v1.53h1.53v-1.53h1.53v1.53h1.531v-1.53h.766c.42 0 .765.342.765.765v1.53c0 .424-.344.766-.765.766H17.878c-.421 0-.766-.342-.766-.765v-1.53zM30.888 32.306v1.53c0 .424-.344.766-.765.766H17.878c-.421 0-.766-.342-.766-.765v-1.53c0-.424.345-.766.766-.766h.765v1.53h1.53v-1.53h1.531v1.53h1.53v-1.53h1.532v1.53h1.53v-1.53h1.53v1.53h1.531v-1.53h.766c.42 0 .765.342.765.765zM1.806 32.306c0-.423.345-.765.766-.765h.765v1.53h1.53v-1.53h1.531v1.53h1.53v-1.53H9.46v1.53h1.531v-1.53h1.53v1.53h1.531v-1.53h.766c.42 0 .765.342.765.765v1.53c0 .424-.345.766-.765.766H2.572c-.421 0-.766-.342-.766-.765v-1.53zM14.816 39.194H2.571c-.42 0-.765-.343-.765-.766v-1.53c0-.423.345-.766.765-.766h.766v1.531h1.53v-1.53h1.531v1.53h1.53v-1.53H9.46v1.53h1.53v-1.53h1.531v1.53h1.531v-1.53h.765c.421 0 .766.342.766.765v1.53c0 .423-.345.766-.766.766zM30.888 38.428c0 .423-.345.766-.766.766H17.877c-.42 0-.765-.343-.765-.766v-1.53c0-.423.344-.766.765-.766h.766v1.531h1.53v-1.53h1.53v1.53h1.531v-1.53h1.531v1.53h1.53v-1.53h1.531v1.53h1.53v-1.53h.766c.421 0 .766.342.766.765v1.53z"/>
    </g>
</svg>
