<svg xmlns="http://www.w3.org/2000/svg" width="37" height="42" viewBox="0 0 37 42">
    <g fill="none">
        <path fill="#083EB1" d="M12.6 41.833l18.57-6.299c.663-.22 1.105-.829 1.105-1.491l-.002-7.297c2.543-2.929 4.035-6.798 3.925-10.996C35.978 7.57 29.456.72 21.277.11 12.215-.553 4.587 6.3 4.035 15.088l-.056.442c0 1.438-.553 3.702-1.215 5.03-.72 1.381-1.438 2.707-2.045 3.648-.608.94.057 2.155 1.162 2.155h2.1v7.736c0 1.548 1.272 2.82 2.82 2.82h4.42v3.868c-.002.717.717 1.27 1.38 1.047zm.72-20.39c-.497.276-1.162.11-1.438-.387-.277-.497-.11-1.161.386-1.438.497-.276 1.162-.11 1.438.387.276.498.11 1.161-.387 1.437zm3.535 2.706c-.276.497-.939.663-1.437.387-.167-.11-.277-.22-.387-.387-.166-.332-.22-.719 0-1.049.277-.496.94-.662 1.438-.386.496.276.663.883.386 1.435zm3.372 1.604c-.386 0-.719-.22-.939-.496-.11-.166-.166-.333-.166-.497 0-.609.443-1.049 1.05-1.049.608 0 1.048.443 1.048 1.05.056.494-.44.992-.993.992zm4.752-1.327c-.497.276-1.162.11-1.438-.387-.276-.496-.11-1.161.386-1.437.497-.277 1.162-.11 1.438.386.276.499.112 1.161-.386 1.438zm3.426-3.536c-.277.496-.94.662-1.438.386-.166-.11-.276-.22-.387-.386-.166-.333-.22-.72 0-1.05.277-.496.94-.662 1.438-.386.499.274.663.937.387 1.436zm1.271-4.754c0 .609-.442 1.05-1.05 1.05-.385 0-.718-.22-.938-.497-.11-.166-.166-.333-.166-.553 0-.609.442-1.049 1.049-1.049.609 0 1.105.443 1.105 1.05z"/>
        <path fill="#FDCD2D" d="M28.295 11.385c.276.442.166 1.049-.277 1.381l-5.36 3.757c-.11.772-.496 1.491-1.271 1.934-1.216.719-2.82.332-3.536-.885-.72-1.216-.333-2.82.885-3.536.719-.443 1.548-.443 2.266-.166l5.86-2.874c.55-.276 1.156-.11 1.433.389zm-8.177-4.92c2.43 0 4.753.939 6.521 2.543-.22.056-.386.11-.552.22l-1.878.94c-1.162-.774-2.597-1.216-4.089-1.216-4.035 0-7.294 3.26-7.294 7.294 0 .663-.553 1.215-1.215 1.215-.724-.054-1.22-.55-1.22-1.27 0-5.359 4.364-9.726 9.727-9.726zm-1.162 9.451c-.11.609.22 1.215.829 1.382.609.11 1.215-.22 1.381-.83.167-.608-.166-1.215-.829-1.38-.608-.111-1.215.22-1.381.828z"/>
    </g>
</svg>
