<svg xmlns="http://www.w3.org/2000/svg" width="42" height="48" viewBox="0 0 42 48">
    <g fill="none" fill-rule="evenodd">
        <path fill="#083EB1" d="M30.354 32.73v-5.242l2.083-.726c.92-.32 1.41-1.333 1.09-2.252l-2.232-6.414c-.114-4.714-2.34-8.9-5.765-11.659-2.554-2.057-5.773-3.32-9.287-3.409C15.847 1.504 14.465.375 12.82.375c-1.952 0-3.538 1.588-3.538 3.538v.567C4.025 6.947.384 12.286.384 18.477c0 4.955 2.334 9.361 5.959 12.19v5.963l15.976 7.256.002-7.618h4.493c1.946 0 3.54-1.592 3.54-3.538zm-5.43-.767c-.275.276-.639.415-1 .415-.363 0-.724-.139-1.002-.415L16.51 25.55c-.96.915-2.258 1.48-3.688 1.48-2.957 0-5.355-2.399-5.355-5.355 0-2.337 1.5-4.319 3.587-5.05l-.002-11.43V3.915c0-.976.79-1.77 1.77-1.77.977 0 1.77.794 1.77 1.77v12.71c2.087.732 3.585 2.714 3.585 5.05 0 .471-.068.925-.18 1.36l6.93 6.93c.551.55.551 1.446-.002 1.999z"/>
        <path fill="#FDCD2D" d="M41.758 29.27l-2.231-6.412c-.156-6.401-4.2-11.837-9.863-14.034 3.417 2.76 5.633 6.947 5.747 11.653l2.232 6.412c.32.919-.171 1.933-1.09 2.252l-2.083.726v5.242c0 1.946-1.592 3.538-3.538 3.538l-4.494.002v7.107l4.115 1.869V41.03h4.493c1.946 0 3.538-1.592 3.538-3.538V32.25l2.083-.726c.92-.32 1.412-1.335 1.091-2.253z"/>
    </g>
</svg>
