<svg xmlns="http://www.w3.org/2000/svg" width="47" height="42" viewBox="0 0 47 42">
    <path fill="#FDCD2D" d="M46.56 41.328v-20.56H36.32c-.267-2.4-.147-4.547.36-6.44.507-1.894 1.48-3.36 2.92-4.4 1.44-1.04 3.387-1.454 5.84-1.24l1.12-8.32C40-.7 35.067.554 31.76 4.128 28.453 7.7 26.8 12.98 26.8 19.968v21.36h19.76zm-26.8 0v-20.56H9.52c-.267-2.4-.147-4.547.36-6.44.507-1.894 1.48-3.36 2.92-4.4 1.44-1.04 3.387-1.454 5.84-1.24l1.12-8.32C13.2-.7 8.267.554 4.96 4.128 1.653 7.7 0 12.98 0 19.968v21.36h19.76z"/>
</svg>
