<svg width="60" height="28" viewBox="0 0 60 28" fill="none" xmlns="http://www.w3.org/2000/svg">
<rect width="60" height="28" rx="14" fill="white"/>
<rect width="24" height="24" transform="translate(2 2)" fill="white" fill-opacity="0.01"/>
<path fill-rule="evenodd" clip-rule="evenodd" d="M14 24C19.5228 24 24 19.5228 24 14C24 8.47715 19.5228 4 14 4C8.47715 4 4 8.47715 4 14C4 19.5228 8.47715 24 14 24ZM12.5918 14.0154L11.117 15.499C11.0218 15.5915 10.946 15.7021 10.8939 15.8242C10.8419 15.9464 10.8147 16.0776 10.8139 16.2104C10.8132 16.3432 10.8388 16.4747 10.8895 16.5975C10.9401 16.7202 11.0147 16.8316 11.1088 16.9252C11.203 17.0189 11.3148 17.0928 11.4378 17.1427C11.5608 17.1927 11.6926 17.2176 11.8253 17.2161C11.9581 17.2146 12.0892 17.1866 12.211 17.1339C12.3329 17.0812 12.443 17.0047 12.535 16.909L14.0027 15.4325L15.442 16.878C15.6291 17.0661 15.8833 17.1721 16.1485 17.1727C16.4138 17.1734 16.6685 17.0686 16.8565 16.8815C17.0445 16.6944 17.1505 16.4403 17.1512 16.175C17.1519 15.9097 17.0471 15.6551 16.86 15.467L15.4127 14.0141L16.895 12.523C17.0767 12.3339 17.1768 12.081 17.1738 11.8187C17.1709 11.5565 17.065 11.3059 16.879 11.121C16.6931 10.9361 16.4419 10.8317 16.1797 10.8302C15.9174 10.8286 15.6651 10.9302 15.477 11.113L14.0015 12.5973L12.5 11.09C12.3118 10.9074 12.0594 10.8061 11.7972 10.8078C11.5349 10.8095 11.2839 10.9141 11.0981 11.0991C10.9123 11.2842 10.8065 11.5348 10.8037 11.797C10.8009 12.0592 10.9012 12.312 11.083 12.501L12.5918 14.0154Z" fill="#231F20"/>
<path d="M31.056 18.144C32.064 18.144 32.832 17.736 33.468 17.004L32.916 16.404C32.412 16.956 31.848 17.256 31.092 17.256C29.604 17.256 28.668 16.02 28.668 14.04C28.668 12.084 29.652 10.872 31.128 10.872C31.8 10.872 32.316 11.148 32.736 11.58L33.288 10.956C32.82 10.44 32.076 9.984 31.116 9.984C29.112 9.984 27.624 11.532 27.624 14.064C27.624 16.632 29.088 18.144 31.056 18.144ZM35.8835 18.144C36.1355 18.144 36.3155 18.108 36.4595 18.036L36.3275 17.292C36.2315 17.316 36.1835 17.316 36.1235 17.316C35.9675 17.316 35.8355 17.208 35.8355 16.896V9.456H34.8395V16.824C34.8395 17.664 35.1395 18.144 35.8835 18.144ZM40.1661 18.144C41.5941 18.144 42.8781 17.028 42.8781 15.096C42.8781 13.14 41.5941 12.024 40.1661 12.024C38.7381 12.024 37.4661 13.14 37.4661 15.096C37.4661 17.028 38.7381 18.144 40.1661 18.144ZM40.1661 17.316C39.1701 17.316 38.4981 16.428 38.4981 15.096C38.4981 13.752 39.1701 12.852 40.1661 12.852C41.1741 12.852 41.8461 13.752 41.8461 15.096C41.8461 16.428 41.1741 17.316 40.1661 17.316ZM45.926 18.144C47.306 18.144 48.062 17.352 48.062 16.404C48.062 15.348 47.186 14.952 46.274 14.628C45.542 14.376 45.038 14.16 45.038 13.632C45.038 13.2 45.362 12.792 46.106 12.792C46.622 12.792 47.042 12.96 47.45 13.26L47.906 12.684C47.45 12.3 46.826 12.024 46.094 12.024C44.822 12.024 44.078 12.744 44.078 13.68C44.078 14.64 44.918 15.06 45.794 15.372C46.454 15.612 47.102 15.864 47.102 16.464C47.102 16.968 46.73 17.364 45.962 17.364C45.242 17.364 44.714 17.148 44.21 16.728L43.754 17.304C44.294 17.832 45.074 18.144 45.926 18.144ZM51.7813 18.144C52.5853 18.144 53.2093 17.904 53.7133 17.544L53.3653 16.908C52.9573 17.184 52.4653 17.34 51.9013 17.34C50.7973 17.34 50.0653 16.548 49.9813 15.348H53.9053C53.9413 15.156 53.9533 14.976 53.9533 14.76C53.9533 13.08 53.1013 12.024 51.6133 12.024C50.2813 12.024 48.9973 13.188 48.9973 15.084C48.9973 17.016 50.2213 18.144 51.7813 18.144ZM49.9813 14.58C50.1013 13.464 50.8213 12.816 51.6373 12.816C52.5253 12.816 53.0653 13.428 53.0653 14.58H49.9813Z" fill="#231F20"/>
</svg>
